<?xml version="1.0" encoding="utf-8" standalone="no"?>
<!DOCTYPE svg PUBLIC "-//W3C//DTD SVG 1.1//EN"
  "http://www.w3.org/Graphics/SVG/1.1/DTD/svg11.dtd">
<svg xmlns:xlink="http://www.w3.org/1999/xlink" width="460.8pt" height="345.6pt" viewBox="0 0 460.8 345.6" xmlns="http://www.w3.org/2000/svg" version="1.1">
 <metadata>
  <rdf:RDF xmlns:dc="http://purl.org/dc/elements/1.1/" xmlns:cc="http://creativecommons.org/ns#" xmlns:rdf="http://www.w3.org/1999/02/22-rdf-syntax-ns#">
   <cc:Work>
    <dc:type rdf:resource="http://purl.org/dc/dcmitype/StillImage"/>
    <dc:date>2023-07-24T09:24:37.536649</dc:date>
    <dc:format>image/svg+xml</dc:format>
    <dc:creator>
     <cc:Agent>
      <dc:title>Matplotlib v3.7.1, https://matplotlib.org/</dc:title>
     </cc:Agent>
    </dc:creator>
   </cc:Work>
  </rdf:RDF>
 </metadata>
 <defs>
  <style type="text/css">*{stroke-linejoin: round; stroke-linecap: butt}</style>
 </defs>
 <g id="figure_1">
  <g id="patch_1">
   <path d="M 0 345.6 
L 460.8 345.6 
L 460.8 0 
L 0 0 
z
" style="fill: #ffffff"/>
  </g>
  <g id="axes_1">
   <g id="patch_2">
    <path d="M 57.6 307.584 
L 414.72 307.584 
L 414.72 41.472 
L 57.6 41.472 
z
" style="fill: #ffffff"/>
   </g>
   <g id="matplotlib.axis_1">
    <g id="xtick_1">
     <g id="line2d_1">
      <path d="M 63.991761 307.584 
L 63.991761 41.472 
" clip-path="url(#p96e80f87fa)" style="fill: none; stroke: #b0b0b0; stroke-width: 0.8; stroke-linecap: square"/>
     </g>
     <g id="line2d_2">
      <defs>
       <path id="m7e9100ac0d" d="M 0 0 
L 0 3.5 
" style="stroke: #000000; stroke-width: 0.8"/>
      </defs>
      <g>
       <use xlink:href="#m7e9100ac0d" x="63.991761" y="307.584" style="stroke: #000000; stroke-width: 0.8"/>
      </g>
     </g>
     <g id="text_1">
      <!-- 47 -->
      <g transform="translate(57.629261 322.182437) scale(0.1 -0.1)">
       <defs>
        <path id="DejaVuSans-34" d="M 2419 4116 
L 825 1625 
L 2419 1625 
L 2419 4116 
z
M 2253 4666 
L 3047 4666 
L 3047 1625 
L 3713 1625 
L 3713 1100 
L 3047 1100 
L 3047 0 
L 2419 0 
L 2419 1100 
L 313 1100 
L 313 1709 
L 2253 4666 
z
" transform="scale(0.015625)"/>
        <path id="DejaVuSans-37" d="M 525 4666 
L 3525 4666 
L 3525 4397 
L 1831 0 
L 1172 0 
L 2766 4134 
L 525 4134 
L 525 4666 
z
" transform="scale(0.015625)"/>
       </defs>
       <use xlink:href="#DejaVuSans-34"/>
       <use xlink:href="#DejaVuSans-37" x="63.623047"/>
      </g>
     </g>
    </g>
    <g id="xtick_2">
     <g id="line2d_3">
      <path d="M 89.748935 307.584 
L 89.748935 41.472 
" clip-path="url(#p96e80f87fa)" style="fill: none; stroke: #b0b0b0; stroke-width: 0.8; stroke-linecap: square"/>
     </g>
     <g id="line2d_4">
      <g>
       <use xlink:href="#m7e9100ac0d" x="89.748935" y="307.584" style="stroke: #000000; stroke-width: 0.8"/>
      </g>
     </g>
     <g id="text_2">
      <!-- 48 -->
      <g transform="translate(83.386435 322.182437) scale(0.1 -0.1)">
       <defs>
        <path id="DejaVuSans-38" d="M 2034 2216 
Q 1584 2216 1326 1975 
Q 1069 1734 1069 1313 
Q 1069 891 1326 650 
Q 1584 409 2034 409 
Q 2484 409 2743 651 
Q 3003 894 3003 1313 
Q 3003 1734 2745 1975 
Q 2488 2216 2034 2216 
z
M 1403 2484 
Q 997 2584 770 2862 
Q 544 3141 544 3541 
Q 544 4100 942 4425 
Q 1341 4750 2034 4750 
Q 2731 4750 3128 4425 
Q 3525 4100 3525 3541 
Q 3525 3141 3298 2862 
Q 3072 2584 2669 2484 
Q 3125 2378 3379 2068 
Q 3634 1759 3634 1313 
Q 3634 634 3220 271 
Q 2806 -91 2034 -91 
Q 1263 -91 848 271 
Q 434 634 434 1313 
Q 434 1759 690 2068 
Q 947 2378 1403 2484 
z
M 1172 3481 
Q 1172 3119 1398 2916 
Q 1625 2713 2034 2713 
Q 2441 2713 2670 2916 
Q 2900 3119 2900 3481 
Q 2900 3844 2670 4047 
Q 2441 4250 2034 4250 
Q 1625 4250 1398 4047 
Q 1172 3844 1172 3481 
z
" transform="scale(0.015625)"/>
       </defs>
       <use xlink:href="#DejaVuSans-34"/>
       <use xlink:href="#DejaVuSans-38" x="63.623047"/>
      </g>
     </g>
    </g>
    <g id="xtick_3">
     <g id="line2d_5">
      <path d="M 115.506109 307.584 
L 115.506109 41.472 
" clip-path="url(#p96e80f87fa)" style="fill: none; stroke: #b0b0b0; stroke-width: 0.8; stroke-linecap: square"/>
     </g>
     <g id="line2d_6">
      <g>
       <use xlink:href="#m7e9100ac0d" x="115.506109" y="307.584" style="stroke: #000000; stroke-width: 0.8"/>
      </g>
     </g>
     <g id="text_3">
      <!-- 49 -->
      <g transform="translate(109.143609 322.182437) scale(0.1 -0.1)">
       <defs>
        <path id="DejaVuSans-39" d="M 703 97 
L 703 672 
Q 941 559 1184 500 
Q 1428 441 1663 441 
Q 2288 441 2617 861 
Q 2947 1281 2994 2138 
Q 2813 1869 2534 1725 
Q 2256 1581 1919 1581 
Q 1219 1581 811 2004 
Q 403 2428 403 3163 
Q 403 3881 828 4315 
Q 1253 4750 1959 4750 
Q 2769 4750 3195 4129 
Q 3622 3509 3622 2328 
Q 3622 1225 3098 567 
Q 2575 -91 1691 -91 
Q 1453 -91 1209 -44 
Q 966 3 703 97 
z
M 1959 2075 
Q 2384 2075 2632 2365 
Q 2881 2656 2881 3163 
Q 2881 3666 2632 3958 
Q 2384 4250 1959 4250 
Q 1534 4250 1286 3958 
Q 1038 3666 1038 3163 
Q 1038 2656 1286 2365 
Q 1534 2075 1959 2075 
z
" transform="scale(0.015625)"/>
       </defs>
       <use xlink:href="#DejaVuSans-34"/>
       <use xlink:href="#DejaVuSans-39" x="63.623047"/>
      </g>
     </g>
    </g>
    <g id="xtick_4">
     <g id="line2d_7">
      <path d="M 141.263283 307.584 
L 141.263283 41.472 
" clip-path="url(#p96e80f87fa)" style="fill: none; stroke: #b0b0b0; stroke-width: 0.8; stroke-linecap: square"/>
     </g>
     <g id="line2d_8">
      <g>
       <use xlink:href="#m7e9100ac0d" x="141.263283" y="307.584" style="stroke: #000000; stroke-width: 0.8"/>
      </g>
     </g>
     <g id="text_4">
      <!-- 50 -->
      <g transform="translate(134.900783 322.182437) scale(0.1 -0.1)">
       <defs>
        <path id="DejaVuSans-35" d="M 691 4666 
L 3169 4666 
L 3169 4134 
L 1269 4134 
L 1269 2991 
Q 1406 3038 1543 3061 
Q 1681 3084 1819 3084 
Q 2600 3084 3056 2656 
Q 3513 2228 3513 1497 
Q 3513 744 3044 326 
Q 2575 -91 1722 -91 
Q 1428 -91 1123 -41 
Q 819 9 494 109 
L 494 744 
Q 775 591 1075 516 
Q 1375 441 1709 441 
Q 2250 441 2565 725 
Q 2881 1009 2881 1497 
Q 2881 1984 2565 2268 
Q 2250 2553 1709 2553 
Q 1456 2553 1204 2497 
Q 953 2441 691 2322 
L 691 4666 
z
" transform="scale(0.015625)"/>
        <path id="DejaVuSans-30" d="M 2034 4250 
Q 1547 4250 1301 3770 
Q 1056 3291 1056 2328 
Q 1056 1369 1301 889 
Q 1547 409 2034 409 
Q 2525 409 2770 889 
Q 3016 1369 3016 2328 
Q 3016 3291 2770 3770 
Q 2525 4250 2034 4250 
z
M 2034 4750 
Q 2819 4750 3233 4129 
Q 3647 3509 3647 2328 
Q 3647 1150 3233 529 
Q 2819 -91 2034 -91 
Q 1250 -91 836 529 
Q 422 1150 422 2328 
Q 422 3509 836 4129 
Q 1250 4750 2034 4750 
z
" transform="scale(0.015625)"/>
       </defs>
       <use xlink:href="#DejaVuSans-35"/>
       <use xlink:href="#DejaVuSans-30" x="63.623047"/>
      </g>
     </g>
    </g>
    <g id="xtick_5">
     <g id="line2d_9">
      <path d="M 167.020456 307.584 
L 167.020456 41.472 
" clip-path="url(#p96e80f87fa)" style="fill: none; stroke: #b0b0b0; stroke-width: 0.8; stroke-linecap: square"/>
     </g>
     <g id="line2d_10">
      <g>
       <use xlink:href="#m7e9100ac0d" x="167.020456" y="307.584" style="stroke: #000000; stroke-width: 0.8"/>
      </g>
     </g>
     <g id="text_5">
      <!-- 51 -->
      <g transform="translate(160.657956 322.182437) scale(0.1 -0.1)">
       <defs>
        <path id="DejaVuSans-31" d="M 794 531 
L 1825 531 
L 1825 4091 
L 703 3866 
L 703 4441 
L 1819 4666 
L 2450 4666 
L 2450 531 
L 3481 531 
L 3481 0 
L 794 0 
L 794 531 
z
" transform="scale(0.015625)"/>
       </defs>
       <use xlink:href="#DejaVuSans-35"/>
       <use xlink:href="#DejaVuSans-31" x="63.623047"/>
      </g>
     </g>
    </g>
    <g id="xtick_6">
     <g id="line2d_11">
      <path d="M 192.77763 307.584 
L 192.77763 41.472 
" clip-path="url(#p96e80f87fa)" style="fill: none; stroke: #b0b0b0; stroke-width: 0.8; stroke-linecap: square"/>
     </g>
     <g id="line2d_12">
      <g>
       <use xlink:href="#m7e9100ac0d" x="192.77763" y="307.584" style="stroke: #000000; stroke-width: 0.8"/>
      </g>
     </g>
     <g id="text_6">
      <!-- 52 -->
      <g transform="translate(186.41513 322.182437) scale(0.1 -0.1)">
       <defs>
        <path id="DejaVuSans-32" d="M 1228 531 
L 3431 531 
L 3431 0 
L 469 0 
L 469 531 
Q 828 903 1448 1529 
Q 2069 2156 2228 2338 
Q 2531 2678 2651 2914 
Q 2772 3150 2772 3378 
Q 2772 3750 2511 3984 
Q 2250 4219 1831 4219 
Q 1534 4219 1204 4116 
Q 875 4013 500 3803 
L 500 4441 
Q 881 4594 1212 4672 
Q 1544 4750 1819 4750 
Q 2544 4750 2975 4387 
Q 3406 4025 3406 3419 
Q 3406 3131 3298 2873 
Q 3191 2616 2906 2266 
Q 2828 2175 2409 1742 
Q 1991 1309 1228 531 
z
" transform="scale(0.015625)"/>
       </defs>
       <use xlink:href="#DejaVuSans-35"/>
       <use xlink:href="#DejaVuSans-32" x="63.623047"/>
      </g>
     </g>
    </g>
    <g id="xtick_7">
     <g id="line2d_13">
      <path d="M 218.534804 307.584 
L 218.534804 41.472 
" clip-path="url(#p96e80f87fa)" style="fill: none; stroke: #b0b0b0; stroke-width: 0.8; stroke-linecap: square"/>
     </g>
     <g id="line2d_14">
      <g>
       <use xlink:href="#m7e9100ac0d" x="218.534804" y="307.584" style="stroke: #000000; stroke-width: 0.8"/>
      </g>
     </g>
     <g id="text_7">
      <!-- 53 -->
      <g transform="translate(212.172304 322.182437) scale(0.1 -0.1)">
       <defs>
        <path id="DejaVuSans-33" d="M 2597 2516 
Q 3050 2419 3304 2112 
Q 3559 1806 3559 1356 
Q 3559 666 3084 287 
Q 2609 -91 1734 -91 
Q 1441 -91 1130 -33 
Q 819 25 488 141 
L 488 750 
Q 750 597 1062 519 
Q 1375 441 1716 441 
Q 2309 441 2620 675 
Q 2931 909 2931 1356 
Q 2931 1769 2642 2001 
Q 2353 2234 1838 2234 
L 1294 2234 
L 1294 2753 
L 1863 2753 
Q 2328 2753 2575 2939 
Q 2822 3125 2822 3475 
Q 2822 3834 2567 4026 
Q 2313 4219 1838 4219 
Q 1578 4219 1281 4162 
Q 984 4106 628 3988 
L 628 4550 
Q 988 4650 1302 4700 
Q 1616 4750 1894 4750 
Q 2613 4750 3031 4423 
Q 3450 4097 3450 3541 
Q 3450 3153 3228 2886 
Q 3006 2619 2597 2516 
z
" transform="scale(0.015625)"/>
       </defs>
       <use xlink:href="#DejaVuSans-35"/>
       <use xlink:href="#DejaVuSans-33" x="63.623047"/>
      </g>
     </g>
    </g>
    <g id="xtick_8">
     <g id="line2d_15">
      <path d="M 244.291978 307.584 
L 244.291978 41.472 
" clip-path="url(#p96e80f87fa)" style="fill: none; stroke: #b0b0b0; stroke-width: 0.8; stroke-linecap: square"/>
     </g>
     <g id="line2d_16">
      <g>
       <use xlink:href="#m7e9100ac0d" x="244.291978" y="307.584" style="stroke: #000000; stroke-width: 0.8"/>
      </g>
     </g>
     <g id="text_8">
      <!-- 54 -->
      <g transform="translate(237.929478 322.182437) scale(0.1 -0.1)">
       <use xlink:href="#DejaVuSans-35"/>
       <use xlink:href="#DejaVuSans-34" x="63.623047"/>
      </g>
     </g>
    </g>
    <g id="xtick_9">
     <g id="line2d_17">
      <path d="M 270.049151 307.584 
L 270.049151 41.472 
" clip-path="url(#p96e80f87fa)" style="fill: none; stroke: #b0b0b0; stroke-width: 0.8; stroke-linecap: square"/>
     </g>
     <g id="line2d_18">
      <g>
       <use xlink:href="#m7e9100ac0d" x="270.049151" y="307.584" style="stroke: #000000; stroke-width: 0.8"/>
      </g>
     </g>
     <g id="text_9">
      <!-- 55 -->
      <g transform="translate(263.686651 322.182437) scale(0.1 -0.1)">
       <use xlink:href="#DejaVuSans-35"/>
       <use xlink:href="#DejaVuSans-35" x="63.623047"/>
      </g>
     </g>
    </g>
    <g id="xtick_10">
     <g id="line2d_19">
      <path d="M 295.806325 307.584 
L 295.806325 41.472 
" clip-path="url(#p96e80f87fa)" style="fill: none; stroke: #b0b0b0; stroke-width: 0.8; stroke-linecap: square"/>
     </g>
     <g id="line2d_20">
      <g>
       <use xlink:href="#m7e9100ac0d" x="295.806325" y="307.584" style="stroke: #000000; stroke-width: 0.8"/>
      </g>
     </g>
     <g id="text_10">
      <!-- 56 -->
      <g transform="translate(289.443825 322.182437) scale(0.1 -0.1)">
       <defs>
        <path id="DejaVuSans-36" d="M 2113 2584 
Q 1688 2584 1439 2293 
Q 1191 2003 1191 1497 
Q 1191 994 1439 701 
Q 1688 409 2113 409 
Q 2538 409 2786 701 
Q 3034 994 3034 1497 
Q 3034 2003 2786 2293 
Q 2538 2584 2113 2584 
z
M 3366 4563 
L 3366 3988 
Q 3128 4100 2886 4159 
Q 2644 4219 2406 4219 
Q 1781 4219 1451 3797 
Q 1122 3375 1075 2522 
Q 1259 2794 1537 2939 
Q 1816 3084 2150 3084 
Q 2853 3084 3261 2657 
Q 3669 2231 3669 1497 
Q 3669 778 3244 343 
Q 2819 -91 2113 -91 
Q 1303 -91 875 529 
Q 447 1150 447 2328 
Q 447 3434 972 4092 
Q 1497 4750 2381 4750 
Q 2619 4750 2861 4703 
Q 3103 4656 3366 4563 
z
" transform="scale(0.015625)"/>
       </defs>
       <use xlink:href="#DejaVuSans-35"/>
       <use xlink:href="#DejaVuSans-36" x="63.623047"/>
      </g>
     </g>
    </g>
    <g id="xtick_11">
     <g id="line2d_21">
      <path d="M 321.563499 307.584 
L 321.563499 41.472 
" clip-path="url(#p96e80f87fa)" style="fill: none; stroke: #b0b0b0; stroke-width: 0.8; stroke-linecap: square"/>
     </g>
     <g id="line2d_22">
      <g>
       <use xlink:href="#m7e9100ac0d" x="321.563499" y="307.584" style="stroke: #000000; stroke-width: 0.8"/>
      </g>
     </g>
     <g id="text_11">
      <!-- 57 -->
      <g transform="translate(315.200999 322.182437) scale(0.1 -0.1)">
       <use xlink:href="#DejaVuSans-35"/>
       <use xlink:href="#DejaVuSans-37" x="63.623047"/>
      </g>
     </g>
    </g>
    <g id="xtick_12">
     <g id="line2d_23">
      <path d="M 347.320673 307.584 
L 347.320673 41.472 
" clip-path="url(#p96e80f87fa)" style="fill: none; stroke: #b0b0b0; stroke-width: 0.8; stroke-linecap: square"/>
     </g>
     <g id="line2d_24">
      <g>
       <use xlink:href="#m7e9100ac0d" x="347.320673" y="307.584" style="stroke: #000000; stroke-width: 0.8"/>
      </g>
     </g>
     <g id="text_12">
      <!-- 58 -->
      <g transform="translate(340.958173 322.182437) scale(0.1 -0.1)">
       <use xlink:href="#DejaVuSans-35"/>
       <use xlink:href="#DejaVuSans-38" x="63.623047"/>
      </g>
     </g>
    </g>
    <g id="xtick_13">
     <g id="line2d_25">
      <path d="M 373.077847 307.584 
L 373.077847 41.472 
" clip-path="url(#p96e80f87fa)" style="fill: none; stroke: #b0b0b0; stroke-width: 0.8; stroke-linecap: square"/>
     </g>
     <g id="line2d_26">
      <g>
       <use xlink:href="#m7e9100ac0d" x="373.077847" y="307.584" style="stroke: #000000; stroke-width: 0.8"/>
      </g>
     </g>
     <g id="text_13">
      <!-- 59 -->
      <g transform="translate(366.715347 322.182437) scale(0.1 -0.1)">
       <use xlink:href="#DejaVuSans-35"/>
       <use xlink:href="#DejaVuSans-39" x="63.623047"/>
      </g>
     </g>
    </g>
    <g id="text_14">
     <!-- time [sec] -->
     <g transform="translate(210.942813 335.860562) scale(0.1 -0.1)">
      <defs>
       <path id="DejaVuSans-74" d="M 1172 4494 
L 1172 3500 
L 2356 3500 
L 2356 3053 
L 1172 3053 
L 1172 1153 
Q 1172 725 1289 603 
Q 1406 481 1766 481 
L 2356 481 
L 2356 0 
L 1766 0 
Q 1100 0 847 248 
Q 594 497 594 1153 
L 594 3053 
L 172 3053 
L 172 3500 
L 594 3500 
L 594 4494 
L 1172 4494 
z
" transform="scale(0.015625)"/>
       <path id="DejaVuSans-69" d="M 603 3500 
L 1178 3500 
L 1178 0 
L 603 0 
L 603 3500 
z
M 603 4863 
L 1178 4863 
L 1178 4134 
L 603 4134 
L 603 4863 
z
" transform="scale(0.015625)"/>
       <path id="DejaVuSans-6d" d="M 3328 2828 
Q 3544 3216 3844 3400 
Q 4144 3584 4550 3584 
Q 5097 3584 5394 3201 
Q 5691 2819 5691 2113 
L 5691 0 
L 5113 0 
L 5113 2094 
Q 5113 2597 4934 2840 
Q 4756 3084 4391 3084 
Q 3944 3084 3684 2787 
Q 3425 2491 3425 1978 
L 3425 0 
L 2847 0 
L 2847 2094 
Q 2847 2600 2669 2842 
Q 2491 3084 2119 3084 
Q 1678 3084 1418 2786 
Q 1159 2488 1159 1978 
L 1159 0 
L 581 0 
L 581 3500 
L 1159 3500 
L 1159 2956 
Q 1356 3278 1631 3431 
Q 1906 3584 2284 3584 
Q 2666 3584 2933 3390 
Q 3200 3197 3328 2828 
z
" transform="scale(0.015625)"/>
       <path id="DejaVuSans-65" d="M 3597 1894 
L 3597 1613 
L 953 1613 
Q 991 1019 1311 708 
Q 1631 397 2203 397 
Q 2534 397 2845 478 
Q 3156 559 3463 722 
L 3463 178 
Q 3153 47 2828 -22 
Q 2503 -91 2169 -91 
Q 1331 -91 842 396 
Q 353 884 353 1716 
Q 353 2575 817 3079 
Q 1281 3584 2069 3584 
Q 2775 3584 3186 3129 
Q 3597 2675 3597 1894 
z
M 3022 2063 
Q 3016 2534 2758 2815 
Q 2500 3097 2075 3097 
Q 1594 3097 1305 2825 
Q 1016 2553 972 2059 
L 3022 2063 
z
" transform="scale(0.015625)"/>
       <path id="DejaVuSans-20" transform="scale(0.015625)"/>
       <path id="DejaVuSans-5b" d="M 550 4863 
L 1875 4863 
L 1875 4416 
L 1125 4416 
L 1125 -397 
L 1875 -397 
L 1875 -844 
L 550 -844 
L 550 4863 
z
" transform="scale(0.015625)"/>
       <path id="DejaVuSans-73" d="M 2834 3397 
L 2834 2853 
Q 2591 2978 2328 3040 
Q 2066 3103 1784 3103 
Q 1356 3103 1142 2972 
Q 928 2841 928 2578 
Q 928 2378 1081 2264 
Q 1234 2150 1697 2047 
L 1894 2003 
Q 2506 1872 2764 1633 
Q 3022 1394 3022 966 
Q 3022 478 2636 193 
Q 2250 -91 1575 -91 
Q 1294 -91 989 -36 
Q 684 19 347 128 
L 347 722 
Q 666 556 975 473 
Q 1284 391 1588 391 
Q 1994 391 2212 530 
Q 2431 669 2431 922 
Q 2431 1156 2273 1281 
Q 2116 1406 1581 1522 
L 1381 1569 
Q 847 1681 609 1914 
Q 372 2147 372 2553 
Q 372 3047 722 3315 
Q 1072 3584 1716 3584 
Q 2034 3584 2315 3537 
Q 2597 3491 2834 3397 
z
" transform="scale(0.015625)"/>
       <path id="DejaVuSans-63" d="M 3122 3366 
L 3122 2828 
Q 2878 2963 2633 3030 
Q 2388 3097 2138 3097 
Q 1578 3097 1268 2742 
Q 959 2388 959 1747 
Q 959 1106 1268 751 
Q 1578 397 2138 397 
Q 2388 397 2633 464 
Q 2878 531 3122 666 
L 3122 134 
Q 2881 22 2623 -34 
Q 2366 -91 2075 -91 
Q 1284 -91 818 406 
Q 353 903 353 1747 
Q 353 2603 823 3093 
Q 1294 3584 2113 3584 
Q 2378 3584 2631 3529 
Q 2884 3475 3122 3366 
z
" transform="scale(0.015625)"/>
       <path id="DejaVuSans-5d" d="M 1947 4863 
L 1947 -844 
L 622 -844 
L 622 -397 
L 1369 -397 
L 1369 4416 
L 622 4416 
L 622 4863 
L 1947 4863 
z
" transform="scale(0.015625)"/>
      </defs>
      <use xlink:href="#DejaVuSans-74"/>
      <use xlink:href="#DejaVuSans-69" x="39.208984"/>
      <use xlink:href="#DejaVuSans-6d" x="66.992188"/>
      <use xlink:href="#DejaVuSans-65" x="164.404297"/>
      <use xlink:href="#DejaVuSans-20" x="225.927734"/>
      <use xlink:href="#DejaVuSans-5b" x="257.714844"/>
      <use xlink:href="#DejaVuSans-73" x="296.728516"/>
      <use xlink:href="#DejaVuSans-65" x="348.828125"/>
      <use xlink:href="#DejaVuSans-63" x="410.351562"/>
      <use xlink:href="#DejaVuSans-5d" x="465.332031"/>
     </g>
    </g>
   </g>
   <g id="matplotlib.axis_2">
    <g id="ytick_1">
     <g id="line2d_27">
      <path d="M 57.6 301.204521 
L 414.72 301.204521 
" clip-path="url(#p96e80f87fa)" style="fill: none; stroke: #b0b0b0; stroke-width: 0.8; stroke-linecap: square"/>
     </g>
     <g id="line2d_28">
      <defs>
       <path id="m9ff21e5143" d="M 0 0 
L -3.5 0 
" style="stroke: #000000; stroke-width: 0.8"/>
      </defs>
      <g>
       <use xlink:href="#m9ff21e5143" x="57.6" y="301.204521" style="stroke: #000000; stroke-width: 0.8"/>
      </g>
     </g>
     <g id="text_15">
      <!-- 0 -->
      <g transform="translate(44.2375 305.00374) scale(0.1 -0.1)">
       <use xlink:href="#DejaVuSans-30"/>
      </g>
     </g>
    </g>
    <g id="ytick_2">
     <g id="line2d_29">
      <path d="M 57.6 270.492861 
L 414.72 270.492861 
" clip-path="url(#p96e80f87fa)" style="fill: none; stroke: #b0b0b0; stroke-width: 0.8; stroke-linecap: square"/>
     </g>
     <g id="line2d_30">
      <g>
       <use xlink:href="#m9ff21e5143" x="57.6" y="270.492861" style="stroke: #000000; stroke-width: 0.8"/>
      </g>
     </g>
     <g id="text_16">
      <!-- 5 -->
      <g transform="translate(44.2375 274.29208) scale(0.1 -0.1)">
       <use xlink:href="#DejaVuSans-35"/>
      </g>
     </g>
    </g>
    <g id="ytick_3">
     <g id="line2d_31">
      <path d="M 57.6 239.781201 
L 414.72 239.781201 
" clip-path="url(#p96e80f87fa)" style="fill: none; stroke: #b0b0b0; stroke-width: 0.8; stroke-linecap: square"/>
     </g>
     <g id="line2d_32">
      <g>
       <use xlink:href="#m9ff21e5143" x="57.6" y="239.781201" style="stroke: #000000; stroke-width: 0.8"/>
      </g>
     </g>
     <g id="text_17">
      <!-- 10 -->
      <g transform="translate(37.875 243.58042) scale(0.1 -0.1)">
       <use xlink:href="#DejaVuSans-31"/>
       <use xlink:href="#DejaVuSans-30" x="63.623047"/>
      </g>
     </g>
    </g>
    <g id="ytick_4">
     <g id="line2d_33">
      <path d="M 57.6 209.069541 
L 414.72 209.069541 
" clip-path="url(#p96e80f87fa)" style="fill: none; stroke: #b0b0b0; stroke-width: 0.8; stroke-linecap: square"/>
     </g>
     <g id="line2d_34">
      <g>
       <use xlink:href="#m9ff21e5143" x="57.6" y="209.069541" style="stroke: #000000; stroke-width: 0.8"/>
      </g>
     </g>
     <g id="text_18">
      <!-- 15 -->
      <g transform="translate(37.875 212.86876) scale(0.1 -0.1)">
       <use xlink:href="#DejaVuSans-31"/>
       <use xlink:href="#DejaVuSans-35" x="63.623047"/>
      </g>
     </g>
    </g>
    <g id="ytick_5">
     <g id="line2d_35">
      <path d="M 57.6 178.357882 
L 414.72 178.357882 
" clip-path="url(#p96e80f87fa)" style="fill: none; stroke: #b0b0b0; stroke-width: 0.8; stroke-linecap: square"/>
     </g>
     <g id="line2d_36">
      <g>
       <use xlink:href="#m9ff21e5143" x="57.6" y="178.357882" style="stroke: #000000; stroke-width: 0.8"/>
      </g>
     </g>
     <g id="text_19">
      <!-- 20 -->
      <g transform="translate(37.875 182.1571) scale(0.1 -0.1)">
       <use xlink:href="#DejaVuSans-32"/>
       <use xlink:href="#DejaVuSans-30" x="63.623047"/>
      </g>
     </g>
    </g>
    <g id="ytick_6">
     <g id="line2d_37">
      <path d="M 57.6 147.646222 
L 414.72 147.646222 
" clip-path="url(#p96e80f87fa)" style="fill: none; stroke: #b0b0b0; stroke-width: 0.8; stroke-linecap: square"/>
     </g>
     <g id="line2d_38">
      <g>
       <use xlink:href="#m9ff21e5143" x="57.6" y="147.646222" style="stroke: #000000; stroke-width: 0.8"/>
      </g>
     </g>
     <g id="text_20">
      <!-- 25 -->
      <g transform="translate(37.875 151.44544) scale(0.1 -0.1)">
       <use xlink:href="#DejaVuSans-32"/>
       <use xlink:href="#DejaVuSans-35" x="63.623047"/>
      </g>
     </g>
    </g>
    <g id="ytick_7">
     <g id="line2d_39">
      <path d="M 57.6 116.934562 
L 414.72 116.934562 
" clip-path="url(#p96e80f87fa)" style="fill: none; stroke: #b0b0b0; stroke-width: 0.8; stroke-linecap: square"/>
     </g>
     <g id="line2d_40">
      <g>
       <use xlink:href="#m9ff21e5143" x="57.6" y="116.934562" style="stroke: #000000; stroke-width: 0.8"/>
      </g>
     </g>
     <g id="text_21">
      <!-- 30 -->
      <g transform="translate(37.875 120.73378) scale(0.1 -0.1)">
       <use xlink:href="#DejaVuSans-33"/>
       <use xlink:href="#DejaVuSans-30" x="63.623047"/>
      </g>
     </g>
    </g>
    <g id="ytick_8">
     <g id="line2d_41">
      <path d="M 57.6 86.222902 
L 414.72 86.222902 
" clip-path="url(#p96e80f87fa)" style="fill: none; stroke: #b0b0b0; stroke-width: 0.8; stroke-linecap: square"/>
     </g>
     <g id="line2d_42">
      <g>
       <use xlink:href="#m9ff21e5143" x="57.6" y="86.222902" style="stroke: #000000; stroke-width: 0.8"/>
      </g>
     </g>
     <g id="text_22">
      <!-- 35 -->
      <g transform="translate(37.875 90.02212) scale(0.1 -0.1)">
       <use xlink:href="#DejaVuSans-33"/>
       <use xlink:href="#DejaVuSans-35" x="63.623047"/>
      </g>
     </g>
    </g>
    <g id="ytick_9">
     <g id="line2d_43">
      <path d="M 57.6 55.511242 
L 414.72 55.511242 
" clip-path="url(#p96e80f87fa)" style="fill: none; stroke: #b0b0b0; stroke-width: 0.8; stroke-linecap: square"/>
     </g>
     <g id="line2d_44">
      <g>
       <use xlink:href="#m9ff21e5143" x="57.6" y="55.511242" style="stroke: #000000; stroke-width: 0.8"/>
      </g>
     </g>
     <g id="text_23">
      <!-- 40 -->
      <g transform="translate(37.875 59.31046) scale(0.1 -0.1)">
       <use xlink:href="#DejaVuSans-34"/>
       <use xlink:href="#DejaVuSans-30" x="63.623047"/>
      </g>
     </g>
    </g>
    <g id="text_24">
     <!-- angle [°] -->
     <g transform="translate(31.795312 196.391281) rotate(-90) scale(0.1 -0.1)">
      <defs>
       <path id="DejaVuSans-61" d="M 2194 1759 
Q 1497 1759 1228 1600 
Q 959 1441 959 1056 
Q 959 750 1161 570 
Q 1363 391 1709 391 
Q 2188 391 2477 730 
Q 2766 1069 2766 1631 
L 2766 1759 
L 2194 1759 
z
M 3341 1997 
L 3341 0 
L 2766 0 
L 2766 531 
Q 2569 213 2275 61 
Q 1981 -91 1556 -91 
Q 1019 -91 701 211 
Q 384 513 384 1019 
Q 384 1609 779 1909 
Q 1175 2209 1959 2209 
L 2766 2209 
L 2766 2266 
Q 2766 2663 2505 2880 
Q 2244 3097 1772 3097 
Q 1472 3097 1187 3025 
Q 903 2953 641 2809 
L 641 3341 
Q 956 3463 1253 3523 
Q 1550 3584 1831 3584 
Q 2591 3584 2966 3190 
Q 3341 2797 3341 1997 
z
" transform="scale(0.015625)"/>
       <path id="DejaVuSans-6e" d="M 3513 2113 
L 3513 0 
L 2938 0 
L 2938 2094 
Q 2938 2591 2744 2837 
Q 2550 3084 2163 3084 
Q 1697 3084 1428 2787 
Q 1159 2491 1159 1978 
L 1159 0 
L 581 0 
L 581 3500 
L 1159 3500 
L 1159 2956 
Q 1366 3272 1645 3428 
Q 1925 3584 2291 3584 
Q 2894 3584 3203 3211 
Q 3513 2838 3513 2113 
z
" transform="scale(0.015625)"/>
       <path id="DejaVuSans-67" d="M 2906 1791 
Q 2906 2416 2648 2759 
Q 2391 3103 1925 3103 
Q 1463 3103 1205 2759 
Q 947 2416 947 1791 
Q 947 1169 1205 825 
Q 1463 481 1925 481 
Q 2391 481 2648 825 
Q 2906 1169 2906 1791 
z
M 3481 434 
Q 3481 -459 3084 -895 
Q 2688 -1331 1869 -1331 
Q 1566 -1331 1297 -1286 
Q 1028 -1241 775 -1147 
L 775 -588 
Q 1028 -725 1275 -790 
Q 1522 -856 1778 -856 
Q 2344 -856 2625 -561 
Q 2906 -266 2906 331 
L 2906 616 
Q 2728 306 2450 153 
Q 2172 0 1784 0 
Q 1141 0 747 490 
Q 353 981 353 1791 
Q 353 2603 747 3093 
Q 1141 3584 1784 3584 
Q 2172 3584 2450 3431 
Q 2728 3278 2906 2969 
L 2906 3500 
L 3481 3500 
L 3481 434 
z
" transform="scale(0.015625)"/>
       <path id="DejaVuSans-6c" d="M 603 4863 
L 1178 4863 
L 1178 0 
L 603 0 
L 603 4863 
z
" transform="scale(0.015625)"/>
       <path id="DejaVuSans-b0" d="M 1600 4347 
Q 1350 4347 1178 4173 
Q 1006 4000 1006 3750 
Q 1006 3503 1178 3333 
Q 1350 3163 1600 3163 
Q 1850 3163 2022 3333 
Q 2194 3503 2194 3750 
Q 2194 3997 2020 4172 
Q 1847 4347 1600 4347 
z
M 1600 4750 
Q 1800 4750 1984 4673 
Q 2169 4597 2303 4453 
Q 2447 4313 2519 4134 
Q 2591 3956 2591 3750 
Q 2591 3338 2302 3052 
Q 2013 2766 1594 2766 
Q 1172 2766 890 3047 
Q 609 3328 609 3750 
Q 609 4169 896 4459 
Q 1184 4750 1600 4750 
z
" transform="scale(0.015625)"/>
      </defs>
      <use xlink:href="#DejaVuSans-61"/>
      <use xlink:href="#DejaVuSans-6e" x="61.279297"/>
      <use xlink:href="#DejaVuSans-67" x="124.658203"/>
      <use xlink:href="#DejaVuSans-6c" x="188.134766"/>
      <use xlink:href="#DejaVuSans-65" x="215.917969"/>
      <use xlink:href="#DejaVuSans-20" x="277.441406"/>
      <use xlink:href="#DejaVuSans-5b" x="309.228516"/>
      <use xlink:href="#DejaVuSans-b0" x="348.242188"/>
      <use xlink:href="#DejaVuSans-5d" x="398.242188"/>
     </g>
    </g>
   </g>
   <g id="line2d_45">
    <path d="M 73.832727 230.053989 
L 74.659069 242.310298 
L 75.489661 269.21085 
L 76.405148 272.070731 
L 77.229403 206.115019 
L 78.98205 110.113143 
L 79.950391 86.148455 
L 80.742321 73.755462 
L 81.557329 69.819719 
L 82.382692 70.928445 
L 83.310157 68.51985 
L 84.131167 65.101137 
L 85.883607 66.743854 
L 86.708687 79.36197 
L 87.645578 87.086454 
L 88.457985 128.660661 
L 89.382616 159.604099 
L 90.20579 193.804048 
L 91.02613 244.857625 
L 91.96024 266.082398 
L 92.811772 289.347206 
L 93.602723 271.807359 
L 94.536987 257.101524 
L 95.36047 250.872635 
L 97.111469 242.146063 
L 97.93745 236.034334 
L 98.857135 234.978406 
L 99.691487 234.722305 
L 100.515459 234.97351 
L 102.582266 269.070852 
L 103.33059 277.354802 
L 104.016271 223.711187 
L 104.841634 175.547285 
L 105.768738 133.634734 
L 106.593869 101.52271 
L 107.532666 88.590356 
L 108.351745 83.066534 
L 109.25577 82.579577 
L 110.123812 83.681902 
L 110.934339 84.353855 
L 111.736521 86.965968 
L 112.657185 90.953177 
L 113.485355 97.879025 
L 114.40978 126.975196 
L 116.060274 184.394136 
L 116.984648 210.250002 
L 117.812071 243.666279 
L 118.742189 272.502338 
L 119.565439 288.345324 
L 120.383848 284.531176 
L 121.315768 259.064842 
L 122.137061 256.254621 
L 122.962553 251.296486 
L 123.893752 241.114865 
L 124.714762 237.943679 
L 125.638388 237.784815 
L 126.473745 239.776623 
L 127.286539 243.062772 
L 128.216579 258.217386 
L 129.041246 282.025468 
L 129.86205 275.949449 
L 130.789463 248.347353 
L 131.625515 196.18176 
L 132.54247 156.600303 
L 133.366622 126.855032 
L 134.193763 114.543969 
L 135.940588 104.466145 
L 136.867795 103.517427 
L 137.698206 104.405386 
L 138.516048 109.949688 
L 139.443178 127.47284 
L 140.269777 160.194577 
L 142.019359 185.272357 
L 142.846009 222.921463 
L 144.594896 279.010315 
L 145.421855 283.610855 
L 146.349268 267.647411 
L 147.171231 269.146583 
L 147.99559 240.461214 
L 148.921766 244.67462 
L 149.746923 241.117257 
L 150.675031 239.668333 
L 151.51201 240.137156 
L 152.323258 245.654787 
L 153.254664 257.328592 
L 154.077296 283.814414 
L 155.001824 264.984296 
L 155.829222 190.260559 
L 156.806475 148.041536 
L 157.583801 108.184825 
L 158.408494 79.813683 
L 159.226645 67.327699 
L 160.153336 60.506941 
L 160.976742 58.606457 
L 161.929371 56.047389 
L 162.727817 53.568 
L 163.553876 57.129106 
L 164.506788 59.801104 
L 165.343123 69.913194 
L 167.086163 123.055021 
L 168.81398 223.730349 
L 169.662807 248.048748 
L 171.387765 286.053129 
L 172.237649 268.249378 
L 173.139253 252.973903 
L 173.993876 248.70505 
L 174.813263 240.352919 
L 176.565833 235.590656 
L 177.388723 235.849248 
L 178.290379 237.039121 
L 179.116128 229.375984 
L 180.046838 269.745924 
L 180.866251 293.470328 
L 183.442355 155.989537 
L 184.370952 129.789933 
L 186.017505 104.462529 
L 186.944145 104.655202 
L 187.773346 104.009815 
L 188.594717 107.386917 
L 189.520481 120.447625 
L 190.348085 128.366632 
L 192.927923 203.983567 
L 193.849438 225.691955 
L 195.507298 271.391905 
L 196.424176 288.341197 
L 197.247582 273.079595 
L 199.003345 245.663079 
L 199.82384 243.645845 
L 200.75084 236.054734 
L 201.575302 240.50613 
L 202.502174 239.970626 
L 203.326352 239.65547 
L 204.149371 233.16474 
L 205.078947 233.514323 
L 205.903228 234.833564 
L 206.729647 252.005622 
L 207.655978 279.739711 
L 209.410119 225.619524 
L 210.230923 180.613228 
L 211.052937 155.810962 
L 211.992662 132.171808 
L 212.809087 115.819989 
L 213.731838 111.882634 
L 214.606397 110.061777 
L 215.382177 107.928125 
L 216.311367 105.8541 
L 217.13503 105.319595 
L 217.957122 112.575838 
L 219.710851 175.277639 
L 220.64393 198.107903 
L 222.291256 272.845888 
L 223.228868 286.349759 
L 224.037309 260.825975 
L 224.963846 255.65992 
L 225.791913 245.168752 
L 226.615138 241.244233 
L 227.537116 235.881851 
L 228.370722 234.89057 
L 229.189027 234.416683 
L 230.113169 233.512788 
L 230.939356 239.483069 
L 231.892036 233.778951 
L 232.689556 233.988628 
L 233.621682 254.431656 
L 234.45521 289.803568 
L 235.269755 224.15481 
L 236.095015 177.518886 
L 237.033503 134.870157 
L 237.844906 111.022776 
L 238.769382 103.483656 
L 239.921706 101.140184 
L 240.485196 98.254441 
L 241.354733 98.798319 
L 242.175639 97.556167 
L 242.991266 97.54413 
L 244.000638 102.578136 
L 244.791152 117.483293 
L 245.6849 162.936619 
L 246.519458 192.435718 
L 247.374725 237.831731 
L 248.421934 253.120858 
L 249.114081 288.730919 
L 250.013238 264.47965 
L 250.839683 255.541648 
L 251.644852 244.299361 
L 252.593772 238.281543 
L 253.419238 237.696222 
L 254.225695 235.78315 
L 255.142986 235.779332 
L 255.962038 237.672614 
L 256.894293 254.090211 
L 257.73936 282.137257 
L 258.539661 261.11132 
L 260.295451 161.079497 
L 261.220185 115.624843 
L 262.046217 87.429826 
L 262.907048 77.137786 
L 263.794382 70.808687 
L 264.643596 67.818673 
L 265.447916 70.725143 
L 266.374891 72.483452 
L 267.194947 75.586303 
L 268.12661 81.264606 
L 268.947208 92.675983 
L 269.795675 129.776656 
L 270.697279 163.167433 
L 271.520865 189.392128 
L 272.449025 212.266869 
L 273.274851 256.538857 
L 274.099287 282.218722 
L 275.024819 281.294968 
L 275.851882 259.714472 
L 276.671063 254.769767 
L 277.599815 247.754284 
L 278.425719 239.622494 
L 279.35169 238.356804 
L 280.177284 237.814837 
L 281.001359 238.560933 
L 281.932455 244.435099 
L 282.752538 262.521825 
L 283.575428 272.629614 
L 284.526203 235.465158 
L 286.252989 115.812955 
L 287.078224 93.794832 
L 287.906548 82.633679 
L 288.831076 81.771848 
L 289.654533 79.472678 
L 290.478634 78.206673 
L 291.406588 78.837315 
L 292.231126 78.394984 
L 293.158153 83.045417 
L 293.982872 104.743141 
L 294.806715 150.360103 
L 296.554751 207.875127 
L 298.309819 273.816028 
L 299.134822 284.921993 
L 300.063007 242.534079 
L 300.885923 229.7354 
L 301.715974 240.862541 
L 302.635994 233.264022 
L 303.459606 239.425977 
L 304.396935 239.444242 
L 305.214494 232.326757 
L 306.036276 242.05536 
L 306.964127 247.024083 
L 307.787919 274.397705 
L 308.738384 272.669394 
L 309.539484 223.002316 
L 310.36361 181.571209 
L 312.126869 136.669875 
L 312.938297 135.050742 
L 313.891132 129.901895 
L 314.693726 131.370873 
L 315.643238 130.091278 
L 316.450365 131.700575 
L 317.270396 136.25287 
L 318.192117 145.418135 
L 319.949709 187.522842 
L 320.773552 210.522681 
L 321.607338 256.742506 
L 322.520249 287.413022 
L 324.184704 263.121089 
L 325.108871 255.385646 
L 325.963674 246.95693 
L 326.8626 244.991068 
L 327.685155 245.410543 
L 328.537408 243.747281 
L 329.436437 239.019523 
L 330.264787 266.059696 
L 331.085591 287.708539 
L 332.02851 235.95795 
L 332.837775 210.126898 
L 333.767918 153.218065 
L 334.59395 120.732943 
L 335.410942 98.074643 
L 336.33972 96.529375 
L 337.164516 94.232978 
L 337.987587 91.172344 
L 338.913196 91.354753 
L 339.74402 92.200212 
L 340.676636 95.086702 
L 341.490794 102.074039 
L 342.326357 112.691574 
L 344.068855 186.898915 
L 344.992662 219.426295 
L 345.824748 273.244796 
L 346.642667 295.488 
L 347.569101 272.052478 
L 348.392609 258.212201 
L 349.216169 249.20181 
L 350.144689 244.561253 
L 350.968429 243.238738 
L 351.895713 244.744121 
L 352.721411 238.755193 
L 353.551333 239.954541 
L 354.472075 251.959804 
L 355.297103 285.124631 
L 356.240511 276.862401 
L 357.872099 185.107398 
L 358.802525 160.421001 
L 359.62606 156.513421 
L 360.448872 147.586581 
L 361.383549 147.033424 
L 362.333834 149.961884 
L 363.17581 153.405802 
L 363.981804 161.725377 
L 364.777108 179.265602 
L 365.690689 184.67436 
L 366.522234 192.706208 
L 367.451604 205.244108 
L 368.270373 227.484618 
L 370.042544 289.211959 
L 370.842201 279.478327 
L 371.665091 251.199196 
L 372.609298 244.028241 
L 373.417893 239.319704 
L 374.35074 243.436909 
L 375.193618 242.159562 
L 376.609541 235.428082 
L 376.956207 240.573406 
L 377.769876 265.777611 
L 378.59135 285.589254 
L 380.328852 156.984958 
L 381.31512 135.944337 
L 382.077661 130.392646 
L 382.949361 127.518108 
L 383.897328 126.985392 
L 384.738042 119.393593 
L 385.504627 119.441911 
L 386.403089 127.615346 
L 387.227627 131.510313 
L 390.781782 197.191212 
L 391.566217 242.048358 
L 392.51336 256.884741 
L 393.333159 287.313268 
L 394.128515 272.718023 
L 395.067132 257.674936 
L 395.883429 253.955049 
L 396.705288 244.496875 
L 397.632418 243.511133 
L 398.487273 237.036273 
L 398.487273 237.036273 
" clip-path="url(#p96e80f87fa)" style="fill: none; stroke: #ff0000; stroke-width: 1.5; stroke-linecap: square"/>
   </g>
   <g id="line2d_46">
    <path d="M 73.832727 254.944361 
L 74.659069 259.796798 
L 75.489661 247.529128 
L 76.405148 248.300269 
L 77.229403 254.576245 
L 78.160499 253.201564 
L 78.98205 245.350637 
L 79.950391 244.275967 
L 80.742321 242.425208 
L 81.557329 243.519285 
L 82.382692 241.77718 
L 83.310157 242.924731 
L 84.131167 247.161607 
L 85.064607 247.503305 
L 85.883607 248.355215 
L 86.708687 246.457297 
L 87.645578 246.51089 
L 88.457985 249.372961 
L 89.382616 251.828016 
L 90.20579 250.652624 
L 91.02613 252.600056 
L 91.96024 253.595954 
L 92.811772 255.423942 
L 93.602723 257.670855 
L 94.536987 258.517504 
L 95.36047 258.742705 
L 96.281469 264.357788 
L 97.111469 263.934131 
L 97.93745 264.801239 
L 98.857135 264.925854 
L 99.691487 260.779023 
L 100.515459 260.538672 
L 101.462525 259.291548 
L 102.582266 255.472093 
L 103.33059 248.609196 
L 104.016271 246.808833 
L 104.841634 252.895992 
L 105.768738 250.842776 
L 106.593869 250.341584 
L 107.532666 247.368452 
L 109.25577 247.619586 
L 110.123812 248.726346 
L 110.934339 249.449121 
L 111.736521 252.059229 
L 112.657185 251.788506 
L 113.485355 251.047024 
L 114.40978 251.997484 
L 115.232233 256.757687 
L 116.060274 257.121193 
L 116.984648 256.969542 
L 117.812071 256.154747 
L 118.742189 235.263717 
L 119.565439 257.63909 
L 120.383848 248.74485 
L 121.315768 258.522397 
L 122.137061 260.520329 
L 122.962553 261.008598 
L 123.893752 260.024394 
L 124.714762 260.275406 
L 125.638388 265.210009 
L 126.473745 259.562528 
L 127.286539 260.714928 
L 128.216579 258.584342 
L 129.041246 243.882674 
L 129.86205 249.305397 
L 130.789463 246.646467 
L 131.625515 253.056182 
L 132.54247 256.454933 
L 133.366622 256.221511 
L 134.193763 254.593704 
L 135.118883 256.001712 
L 135.940588 254.508522 
L 136.867795 255.958593 
L 137.698206 254.870232 
L 138.516048 255.972206 
L 139.443178 260.180421 
L 140.269777 260.966312 
L 141.09514 261.571468 
L 142.019359 264.323158 
L 142.846009 264.943873 
L 143.770975 263.289558 
L 144.594896 243.605396 
L 145.421855 261.027079 
L 146.349268 271.560286 
L 147.171231 269.109132 
L 147.99559 240.370877 
L 149.746923 261.949702 
L 150.675031 262.430408 
L 151.51201 262.426126 
L 152.323258 263.925727 
L 153.254664 263.085212 
L 154.077296 254.211879 
L 155.001824 248.069184 
L 155.829222 250.089465 
L 156.806475 247.940156 
L 157.583801 250.485371 
L 158.408494 244.982195 
L 159.226645 244.494476 
L 160.153336 245.180387 
L 160.976742 243.884053 
L 161.929371 245.407827 
L 162.727817 247.557994 
L 163.553876 246.589251 
L 164.506788 247.110482 
L 165.343123 248.187134 
L 166.28751 249.181157 
L 167.086163 253.31255 
L 167.883219 258.117159 
L 168.81398 259.344867 
L 169.662807 257.381502 
L 170.460739 255.997566 
L 171.387765 257.929382 
L 172.237649 257.964978 
L 173.993876 260.120558 
L 175.715486 261.462701 
L 176.565833 260.847807 
L 177.388723 261.393458 
L 178.290379 261.074934 
L 179.116128 234.993575 
L 180.046838 258.004457 
L 180.866251 251.586988 
L 181.692489 254.799525 
L 182.61967 256.423724 
L 183.442355 259.283599 
L 184.370952 260.890479 
L 185.200153 256.291984 
L 186.017505 256.141193 
L 186.944145 255.736745 
L 187.773346 256.766011 
L 188.594717 257.515805 
L 189.520481 258.978565 
L 190.348085 265.026534 
L 191.271634 264.205665 
L 192.096533 267.296905 
L 192.927923 265.499843 
L 193.849438 264.550193 
L 194.672405 266.162836 
L 195.507298 263.048185 
L 196.424176 247.266388 
L 197.247582 258.913093 
L 198.175252 261.750209 
L 199.003345 262.481458 
L 199.82384 262.935543 
L 200.75084 261.916788 
L 201.575302 263.106459 
L 202.502174 262.816449 
L 203.326352 263.184842 
L 205.078947 262.281664 
L 205.903228 262.126274 
L 206.729647 262.607738 
L 207.655978 246.385406 
L 208.478997 251.982464 
L 209.410119 253.055338 
L 211.052937 256.299121 
L 211.992662 254.568375 
L 212.809087 252.739327 
L 213.731838 252.729733 
L 214.606397 254.159 
L 215.382177 254.083047 
L 216.311367 256.277398 
L 217.13503 256.193399 
L 217.957122 256.300242 
L 218.888321 257.49268 
L 219.710851 263.461939 
L 220.64393 264.46799 
L 221.464888 262.845017 
L 222.291256 249.409011 
L 223.228868 259.689489 
L 224.037309 253.162004 
L 224.963846 260.844308 
L 225.791913 260.12636 
L 226.615138 263.616904 
L 227.537116 261.507119 
L 228.370722 262.574734 
L 229.189027 261.643516 
L 230.113169 261.197166 
L 230.939356 263.518742 
L 231.892036 262.645662 
L 232.689556 263.132239 
L 234.45521 255.282365 
L 235.269755 253.852215 
L 236.095015 258.178992 
L 237.033503 256.191707 
L 237.844906 255.048332 
L 238.769382 254.478095 
L 239.921706 257.088853 
L 241.354733 254.840637 
L 242.175639 257.779527 
L 242.991266 258.073042 
L 244.000638 255.568393 
L 244.791152 257.316326 
L 245.6849 258.045381 
L 246.519458 263.059906 
L 247.374725 258.202362 
L 249.114081 258.869049 
L 250.013238 259.023423 
L 250.839683 257.330032 
L 251.644852 251.392971 
L 252.593772 262.661178 
L 253.419238 262.163979 
L 254.225695 261.898642 
L 255.142986 261.82498 
L 255.962038 261.944189 
L 256.894293 258.481234 
L 257.73936 253.234481 
L 258.539661 245.910898 
L 259.468414 246.408393 
L 260.295451 253.786514 
L 261.220185 252.426283 
L 262.046217 250.137819 
L 262.907048 249.263088 
L 263.794382 252.159262 
L 264.643596 254.540467 
L 265.447916 251.67152 
L 266.374891 252.748858 
L 267.194947 254.136906 
L 268.12661 253.614806 
L 268.947208 252.344372 
L 269.795675 254.454246 
L 270.697279 254.901275 
L 271.520865 258.046839 
L 272.449025 260.257782 
L 273.274851 255.785852 
L 274.099287 257.996772 
L 275.024819 262.133348 
L 275.851882 258.34708 
L 276.671063 259.91779 
L 277.599815 260.840093 
L 278.425719 262.247357 
L 279.35169 262.047074 
L 280.177284 262.086468 
L 281.932455 260.191618 
L 282.752538 257.819601 
L 283.575428 252.603936 
L 284.526203 249.238882 
L 285.325783 254.808489 
L 286.252989 251.451483 
L 287.078224 251.822136 
L 287.906548 251.484742 
L 288.831076 249.106493 
L 289.654533 250.754049 
L 290.478634 251.319846 
L 291.406588 250.835603 
L 292.231126 251.348687 
L 293.158153 251.44228 
L 293.982872 252.365535 
L 295.732222 261.904091 
L 296.554751 264.429342 
L 297.484817 261.38807 
L 298.309819 246.95929 
L 299.134822 261.847125 
L 300.063007 238.51506 
L 300.885923 232.671929 
L 301.715974 262.116373 
L 302.635994 261.587344 
L 303.459606 269.629917 
L 304.396935 269.174354 
L 305.214494 261.207207 
L 306.036276 262.443013 
L 306.964127 264.639669 
L 308.738384 245.973661 
L 309.539484 263.145322 
L 310.36361 264.608707 
L 311.360464 261.977729 
L 312.126869 262.42881 
L 312.938297 260.032376 
L 313.891132 260.646939 
L 314.693726 260.575365 
L 315.643238 261.61685 
L 316.450365 260.99784 
L 317.270396 264.459898 
L 318.192117 265.245294 
L 319.041125 267.914541 
L 319.949709 266.352251 
L 320.773552 266.300129 
L 321.607338 248.225418 
L 322.520249 263.21416 
L 323.343526 262.361145 
L 324.184704 265.437073 
L 325.108871 262.974857 
L 325.963674 261.630402 
L 326.8626 261.79337 
L 327.685155 263.700943 
L 328.537408 264.789412 
L 329.436437 237.476198 
L 330.264787 261.06353 
L 331.085591 257.374102 
L 332.02851 257.762105 
L 332.837775 253.195132 
L 333.767918 261.290949 
L 334.59395 262.53617 
L 336.33972 257.475763 
L 337.164516 255.227133 
L 337.987587 255.592774 
L 338.913196 256.165032 
L 339.74402 256.450055 
L 340.676636 256.599363 
L 341.490794 255.588591 
L 342.326357 258.272956 
L 343.248824 258.199393 
L 344.068855 262.093198 
L 344.992662 260.061113 
L 345.824748 228.280054 
L 346.642667 250.262587 
L 347.569101 261.33628 
L 348.392609 259.999026 
L 349.216169 260.747025 
L 350.144689 260.964424 
L 350.968429 261.430378 
L 351.895713 263.420083 
L 352.721411 261.80041 
L 353.551333 262.917567 
L 354.472075 265.995244 
L 355.297103 264.934726 
L 356.240511 260.196809 
L 357.04841 245.768064 
L 357.872099 260.253749 
L 358.802525 263.017881 
L 359.62606 257.072648 
L 360.448872 262.740701 
L 362.333834 263.350905 
L 363.17581 262.915028 
L 363.981804 262.798378 
L 364.777108 267.743153 
L 365.690689 267.694812 
L 366.522234 266.439487 
L 368.270373 260.809954 
L 369.094422 260.902296 
L 370.042544 247.674875 
L 370.842201 263.786365 
L 371.665091 247.378261 
L 372.609298 247.547112 
L 373.417893 261.621785 
L 374.35074 270.18324 
L 375.193618 269.998447 
L 376.609541 261.891341 
L 376.956207 260.690888 
L 377.769876 259.245701 
L 378.59135 254.864236 
L 379.494602 255.172673 
L 380.328852 255.13974 
L 381.31512 256.637667 
L 382.077661 256.080866 
L 382.949361 255.787369 
L 383.897328 256.194657 
L 384.738042 258.442384 
L 385.504627 257.905695 
L 387.227627 257.901743 
L 388.158749 260.347187 
L 389.069394 259.958205 
L 389.803886 260.863931 
L 390.781782 260.896236 
L 391.566217 257.113501 
L 392.51336 256.125654 
L 393.333159 258.816496 
L 394.128515 259.758152 
L 395.067132 261.271531 
L 395.883429 260.266893 
L 396.705288 258.043668 
L 397.632418 263.158532 
L 398.487273 261.421571 
L 398.487273 261.421571 
" clip-path="url(#p96e80f87fa)" style="fill: none; stroke: #008000; stroke-width: 1.5; stroke-linecap: square"/>
   </g>
   <g id="patch_3">
    <path d="M 57.6 307.584 
L 57.6 41.472 
" style="fill: none; stroke: #000000; stroke-width: 0.8; stroke-linejoin: miter; stroke-linecap: square"/>
   </g>
   <g id="patch_4">
    <path d="M 414.72 307.584 
L 414.72 41.472 
" style="fill: none; stroke: #000000; stroke-width: 0.8; stroke-linejoin: miter; stroke-linecap: square"/>
   </g>
   <g id="patch_5">
    <path d="M 57.6 307.584 
L 414.72 307.584 
" style="fill: none; stroke: #000000; stroke-width: 0.8; stroke-linejoin: miter; stroke-linecap: square"/>
   </g>
   <g id="patch_6">
    <path d="M 57.6 41.472 
L 414.72 41.472 
" style="fill: none; stroke: #000000; stroke-width: 0.8; stroke-linejoin: miter; stroke-linecap: square"/>
   </g>
   <g id="text_25">
    <!-- Angles in Thumb joints -->
    <g transform="translate(167.56125 35.472) scale(0.12 -0.12)">
     <defs>
      <path id="DejaVuSans-41" d="M 2188 4044 
L 1331 1722 
L 3047 1722 
L 2188 4044 
z
M 1831 4666 
L 2547 4666 
L 4325 0 
L 3669 0 
L 3244 1197 
L 1141 1197 
L 716 0 
L 50 0 
L 1831 4666 
z
" transform="scale(0.015625)"/>
      <path id="DejaVuSans-54" d="M -19 4666 
L 3928 4666 
L 3928 4134 
L 2272 4134 
L 2272 0 
L 1638 0 
L 1638 4134 
L -19 4134 
L -19 4666 
z
" transform="scale(0.015625)"/>
      <path id="DejaVuSans-68" d="M 3513 2113 
L 3513 0 
L 2938 0 
L 2938 2094 
Q 2938 2591 2744 2837 
Q 2550 3084 2163 3084 
Q 1697 3084 1428 2787 
Q 1159 2491 1159 1978 
L 1159 0 
L 581 0 
L 581 4863 
L 1159 4863 
L 1159 2956 
Q 1366 3272 1645 3428 
Q 1925 3584 2291 3584 
Q 2894 3584 3203 3211 
Q 3513 2838 3513 2113 
z
" transform="scale(0.015625)"/>
      <path id="DejaVuSans-75" d="M 544 1381 
L 544 3500 
L 1119 3500 
L 1119 1403 
Q 1119 906 1312 657 
Q 1506 409 1894 409 
Q 2359 409 2629 706 
Q 2900 1003 2900 1516 
L 2900 3500 
L 3475 3500 
L 3475 0 
L 2900 0 
L 2900 538 
Q 2691 219 2414 64 
Q 2138 -91 1772 -91 
Q 1169 -91 856 284 
Q 544 659 544 1381 
z
M 1991 3584 
L 1991 3584 
z
" transform="scale(0.015625)"/>
      <path id="DejaVuSans-62" d="M 3116 1747 
Q 3116 2381 2855 2742 
Q 2594 3103 2138 3103 
Q 1681 3103 1420 2742 
Q 1159 2381 1159 1747 
Q 1159 1113 1420 752 
Q 1681 391 2138 391 
Q 2594 391 2855 752 
Q 3116 1113 3116 1747 
z
M 1159 2969 
Q 1341 3281 1617 3432 
Q 1894 3584 2278 3584 
Q 2916 3584 3314 3078 
Q 3713 2572 3713 1747 
Q 3713 922 3314 415 
Q 2916 -91 2278 -91 
Q 1894 -91 1617 61 
Q 1341 213 1159 525 
L 1159 0 
L 581 0 
L 581 4863 
L 1159 4863 
L 1159 2969 
z
" transform="scale(0.015625)"/>
      <path id="DejaVuSans-6a" d="M 603 3500 
L 1178 3500 
L 1178 -63 
Q 1178 -731 923 -1031 
Q 669 -1331 103 -1331 
L -116 -1331 
L -116 -844 
L 38 -844 
Q 366 -844 484 -692 
Q 603 -541 603 -63 
L 603 3500 
z
M 603 4863 
L 1178 4863 
L 1178 4134 
L 603 4134 
L 603 4863 
z
" transform="scale(0.015625)"/>
      <path id="DejaVuSans-6f" d="M 1959 3097 
Q 1497 3097 1228 2736 
Q 959 2375 959 1747 
Q 959 1119 1226 758 
Q 1494 397 1959 397 
Q 2419 397 2687 759 
Q 2956 1122 2956 1747 
Q 2956 2369 2687 2733 
Q 2419 3097 1959 3097 
z
M 1959 3584 
Q 2709 3584 3137 3096 
Q 3566 2609 3566 1747 
Q 3566 888 3137 398 
Q 2709 -91 1959 -91 
Q 1206 -91 779 398 
Q 353 888 353 1747 
Q 353 2609 779 3096 
Q 1206 3584 1959 3584 
z
" transform="scale(0.015625)"/>
     </defs>
     <use xlink:href="#DejaVuSans-41"/>
     <use xlink:href="#DejaVuSans-6e" x="68.408203"/>
     <use xlink:href="#DejaVuSans-67" x="131.787109"/>
     <use xlink:href="#DejaVuSans-6c" x="195.263672"/>
     <use xlink:href="#DejaVuSans-65" x="223.046875"/>
     <use xlink:href="#DejaVuSans-73" x="284.570312"/>
     <use xlink:href="#DejaVuSans-20" x="336.669922"/>
     <use xlink:href="#DejaVuSans-69" x="368.457031"/>
     <use xlink:href="#DejaVuSans-6e" x="396.240234"/>
     <use xlink:href="#DejaVuSans-20" x="459.619141"/>
     <use xlink:href="#DejaVuSans-54" x="491.40625"/>
     <use xlink:href="#DejaVuSans-68" x="552.490234"/>
     <use xlink:href="#DejaVuSans-75" x="615.869141"/>
     <use xlink:href="#DejaVuSans-6d" x="679.248047"/>
     <use xlink:href="#DejaVuSans-62" x="776.660156"/>
     <use xlink:href="#DejaVuSans-20" x="840.136719"/>
     <use xlink:href="#DejaVuSans-6a" x="871.923828"/>
     <use xlink:href="#DejaVuSans-6f" x="899.707031"/>
     <use xlink:href="#DejaVuSans-69" x="960.888672"/>
     <use xlink:href="#DejaVuSans-6e" x="988.671875"/>
     <use xlink:href="#DejaVuSans-74" x="1052.050781"/>
     <use xlink:href="#DejaVuSans-73" x="1091.259766"/>
    </g>
   </g>
   <g id="legend_1">
    <g id="patch_7">
     <path d="M 314.005938 78.82825 
L 407.72 78.82825 
Q 409.72 78.82825 409.72 76.82825 
L 409.72 48.472 
Q 409.72 46.472 407.72 46.472 
L 314.005938 46.472 
Q 312.005938 46.472 312.005938 48.472 
L 312.005938 76.82825 
Q 312.005938 78.82825 314.005938 78.82825 
z
" style="fill: #ffffff; opacity: 0.8; stroke: #cccccc; stroke-linejoin: miter"/>
    </g>
    <g id="line2d_47">
     <path d="M 316.005938 54.570437 
L 326.005938 54.570437 
L 336.005938 54.570437 
" style="fill: none; stroke: #ff0000; stroke-width: 1.5; stroke-linecap: square"/>
    </g>
    <g id="text_26">
     <!-- delta (DIP) -->
     <g transform="translate(344.005938 58.070437) scale(0.1 -0.1)">
      <defs>
       <path id="DejaVuSans-64" d="M 2906 2969 
L 2906 4863 
L 3481 4863 
L 3481 0 
L 2906 0 
L 2906 525 
Q 2725 213 2448 61 
Q 2172 -91 1784 -91 
Q 1150 -91 751 415 
Q 353 922 353 1747 
Q 353 2572 751 3078 
Q 1150 3584 1784 3584 
Q 2172 3584 2448 3432 
Q 2725 3281 2906 2969 
z
M 947 1747 
Q 947 1113 1208 752 
Q 1469 391 1925 391 
Q 2381 391 2643 752 
Q 2906 1113 2906 1747 
Q 2906 2381 2643 2742 
Q 2381 3103 1925 3103 
Q 1469 3103 1208 2742 
Q 947 2381 947 1747 
z
" transform="scale(0.015625)"/>
       <path id="DejaVuSans-28" d="M 1984 4856 
Q 1566 4138 1362 3434 
Q 1159 2731 1159 2009 
Q 1159 1288 1364 580 
Q 1569 -128 1984 -844 
L 1484 -844 
Q 1016 -109 783 600 
Q 550 1309 550 2009 
Q 550 2706 781 3412 
Q 1013 4119 1484 4856 
L 1984 4856 
z
" transform="scale(0.015625)"/>
       <path id="DejaVuSans-44" d="M 1259 4147 
L 1259 519 
L 2022 519 
Q 2988 519 3436 956 
Q 3884 1394 3884 2338 
Q 3884 3275 3436 3711 
Q 2988 4147 2022 4147 
L 1259 4147 
z
M 628 4666 
L 1925 4666 
Q 3281 4666 3915 4102 
Q 4550 3538 4550 2338 
Q 4550 1131 3912 565 
Q 3275 0 1925 0 
L 628 0 
L 628 4666 
z
" transform="scale(0.015625)"/>
       <path id="DejaVuSans-49" d="M 628 4666 
L 1259 4666 
L 1259 0 
L 628 0 
L 628 4666 
z
" transform="scale(0.015625)"/>
       <path id="DejaVuSans-50" d="M 1259 4147 
L 1259 2394 
L 2053 2394 
Q 2494 2394 2734 2622 
Q 2975 2850 2975 3272 
Q 2975 3691 2734 3919 
Q 2494 4147 2053 4147 
L 1259 4147 
z
M 628 4666 
L 2053 4666 
Q 2838 4666 3239 4311 
Q 3641 3956 3641 3272 
Q 3641 2581 3239 2228 
Q 2838 1875 2053 1875 
L 1259 1875 
L 1259 0 
L 628 0 
L 628 4666 
z
" transform="scale(0.015625)"/>
       <path id="DejaVuSans-29" d="M 513 4856 
L 1013 4856 
Q 1481 4119 1714 3412 
Q 1947 2706 1947 2009 
Q 1947 1309 1714 600 
Q 1481 -109 1013 -844 
L 513 -844 
Q 928 -128 1133 580 
Q 1338 1288 1338 2009 
Q 1338 2731 1133 3434 
Q 928 4138 513 4856 
z
" transform="scale(0.015625)"/>
      </defs>
      <use xlink:href="#DejaVuSans-64"/>
      <use xlink:href="#DejaVuSans-65" x="63.476562"/>
      <use xlink:href="#DejaVuSans-6c" x="125"/>
      <use xlink:href="#DejaVuSans-74" x="152.783203"/>
      <use xlink:href="#DejaVuSans-61" x="191.992188"/>
      <use xlink:href="#DejaVuSans-20" x="253.271484"/>
      <use xlink:href="#DejaVuSans-28" x="285.058594"/>
      <use xlink:href="#DejaVuSans-44" x="324.072266"/>
      <use xlink:href="#DejaVuSans-49" x="401.074219"/>
      <use xlink:href="#DejaVuSans-50" x="430.566406"/>
      <use xlink:href="#DejaVuSans-29" x="490.869141"/>
     </g>
    </g>
    <g id="line2d_48">
     <path d="M 316.005938 69.248562 
L 326.005938 69.248562 
L 336.005938 69.248562 
" style="fill: none; stroke: #008000; stroke-width: 1.5; stroke-linecap: square"/>
    </g>
    <g id="text_27">
     <!-- epsilon (PIP) -->
     <g transform="translate(344.005938 72.748562) scale(0.1 -0.1)">
      <defs>
       <path id="DejaVuSans-70" d="M 1159 525 
L 1159 -1331 
L 581 -1331 
L 581 3500 
L 1159 3500 
L 1159 2969 
Q 1341 3281 1617 3432 
Q 1894 3584 2278 3584 
Q 2916 3584 3314 3078 
Q 3713 2572 3713 1747 
Q 3713 922 3314 415 
Q 2916 -91 2278 -91 
Q 1894 -91 1617 61 
Q 1341 213 1159 525 
z
M 3116 1747 
Q 3116 2381 2855 2742 
Q 2594 3103 2138 3103 
Q 1681 3103 1420 2742 
Q 1159 2381 1159 1747 
Q 1159 1113 1420 752 
Q 1681 391 2138 391 
Q 2594 391 2855 752 
Q 3116 1113 3116 1747 
z
" transform="scale(0.015625)"/>
      </defs>
      <use xlink:href="#DejaVuSans-65"/>
      <use xlink:href="#DejaVuSans-70" x="61.523438"/>
      <use xlink:href="#DejaVuSans-73" x="125"/>
      <use xlink:href="#DejaVuSans-69" x="177.099609"/>
      <use xlink:href="#DejaVuSans-6c" x="204.882812"/>
      <use xlink:href="#DejaVuSans-6f" x="232.666016"/>
      <use xlink:href="#DejaVuSans-6e" x="293.847656"/>
      <use xlink:href="#DejaVuSans-20" x="357.226562"/>
      <use xlink:href="#DejaVuSans-28" x="389.013672"/>
      <use xlink:href="#DejaVuSans-50" x="428.027344"/>
      <use xlink:href="#DejaVuSans-49" x="488.330078"/>
      <use xlink:href="#DejaVuSans-50" x="517.822266"/>
      <use xlink:href="#DejaVuSans-29" x="578.125"/>
     </g>
    </g>
   </g>
  </g>
 </g>
 <defs>
  <clipPath id="p96e80f87fa">
   <rect x="57.6" y="41.472" width="357.12" height="266.112"/>
  </clipPath>
 </defs>
</svg>
