<?xml version="1.0" encoding="utf-8" standalone="no"?>
<!DOCTYPE svg PUBLIC "-//W3C//DTD SVG 1.1//EN"
  "http://www.w3.org/Graphics/SVG/1.1/DTD/svg11.dtd">
<svg xmlns:xlink="http://www.w3.org/1999/xlink" width="460.8pt" height="345.6pt" viewBox="0 0 460.8 345.6" xmlns="http://www.w3.org/2000/svg" version="1.1">
 <metadata>
  <rdf:RDF xmlns:dc="http://purl.org/dc/elements/1.1/" xmlns:cc="http://creativecommons.org/ns#" xmlns:rdf="http://www.w3.org/1999/02/22-rdf-syntax-ns#">
   <cc:Work>
    <dc:type rdf:resource="http://purl.org/dc/dcmitype/StillImage"/>
    <dc:date>2023-07-24T09:24:37.744094</dc:date>
    <dc:format>image/svg+xml</dc:format>
    <dc:creator>
     <cc:Agent>
      <dc:title>Matplotlib v3.7.1, https://matplotlib.org/</dc:title>
     </cc:Agent>
    </dc:creator>
   </cc:Work>
  </rdf:RDF>
 </metadata>
 <defs>
  <style type="text/css">*{stroke-linejoin: round; stroke-linecap: butt}</style>
 </defs>
 <g id="figure_1">
  <g id="patch_1">
   <path d="M 0 345.6 
L 460.8 345.6 
L 460.8 0 
L 0 0 
z
" style="fill: #ffffff"/>
  </g>
  <g id="axes_1">
   <g id="patch_2">
    <path d="M 57.6 307.584 
L 414.72 307.584 
L 414.72 41.472 
L 57.6 41.472 
z
" style="fill: #ffffff"/>
   </g>
   <g id="matplotlib.axis_1">
    <g id="xtick_1">
     <g id="line2d_1">
      <path d="M 63.991761 307.584 
L 63.991761 41.472 
" clip-path="url(#p84ab66401b)" style="fill: none; stroke: #b0b0b0; stroke-width: 0.8; stroke-linecap: square"/>
     </g>
     <g id="line2d_2">
      <defs>
       <path id="m730e36975f" d="M 0 0 
L 0 3.5 
" style="stroke: #000000; stroke-width: 0.8"/>
      </defs>
      <g>
       <use xlink:href="#m730e36975f" x="63.991761" y="307.584" style="stroke: #000000; stroke-width: 0.8"/>
      </g>
     </g>
     <g id="text_1">
      <!-- 47 -->
      <g transform="translate(57.629261 322.182437) scale(0.1 -0.1)">
       <defs>
        <path id="DejaVuSans-34" d="M 2419 4116 
L 825 1625 
L 2419 1625 
L 2419 4116 
z
M 2253 4666 
L 3047 4666 
L 3047 1625 
L 3713 1625 
L 3713 1100 
L 3047 1100 
L 3047 0 
L 2419 0 
L 2419 1100 
L 313 1100 
L 313 1709 
L 2253 4666 
z
" transform="scale(0.015625)"/>
        <path id="DejaVuSans-37" d="M 525 4666 
L 3525 4666 
L 3525 4397 
L 1831 0 
L 1172 0 
L 2766 4134 
L 525 4134 
L 525 4666 
z
" transform="scale(0.015625)"/>
       </defs>
       <use xlink:href="#DejaVuSans-34"/>
       <use xlink:href="#DejaVuSans-37" x="63.623047"/>
      </g>
     </g>
    </g>
    <g id="xtick_2">
     <g id="line2d_3">
      <path d="M 89.748935 307.584 
L 89.748935 41.472 
" clip-path="url(#p84ab66401b)" style="fill: none; stroke: #b0b0b0; stroke-width: 0.8; stroke-linecap: square"/>
     </g>
     <g id="line2d_4">
      <g>
       <use xlink:href="#m730e36975f" x="89.748935" y="307.584" style="stroke: #000000; stroke-width: 0.8"/>
      </g>
     </g>
     <g id="text_2">
      <!-- 48 -->
      <g transform="translate(83.386435 322.182437) scale(0.1 -0.1)">
       <defs>
        <path id="DejaVuSans-38" d="M 2034 2216 
Q 1584 2216 1326 1975 
Q 1069 1734 1069 1313 
Q 1069 891 1326 650 
Q 1584 409 2034 409 
Q 2484 409 2743 651 
Q 3003 894 3003 1313 
Q 3003 1734 2745 1975 
Q 2488 2216 2034 2216 
z
M 1403 2484 
Q 997 2584 770 2862 
Q 544 3141 544 3541 
Q 544 4100 942 4425 
Q 1341 4750 2034 4750 
Q 2731 4750 3128 4425 
Q 3525 4100 3525 3541 
Q 3525 3141 3298 2862 
Q 3072 2584 2669 2484 
Q 3125 2378 3379 2068 
Q 3634 1759 3634 1313 
Q 3634 634 3220 271 
Q 2806 -91 2034 -91 
Q 1263 -91 848 271 
Q 434 634 434 1313 
Q 434 1759 690 2068 
Q 947 2378 1403 2484 
z
M 1172 3481 
Q 1172 3119 1398 2916 
Q 1625 2713 2034 2713 
Q 2441 2713 2670 2916 
Q 2900 3119 2900 3481 
Q 2900 3844 2670 4047 
Q 2441 4250 2034 4250 
Q 1625 4250 1398 4047 
Q 1172 3844 1172 3481 
z
" transform="scale(0.015625)"/>
       </defs>
       <use xlink:href="#DejaVuSans-34"/>
       <use xlink:href="#DejaVuSans-38" x="63.623047"/>
      </g>
     </g>
    </g>
    <g id="xtick_3">
     <g id="line2d_5">
      <path d="M 115.506109 307.584 
L 115.506109 41.472 
" clip-path="url(#p84ab66401b)" style="fill: none; stroke: #b0b0b0; stroke-width: 0.8; stroke-linecap: square"/>
     </g>
     <g id="line2d_6">
      <g>
       <use xlink:href="#m730e36975f" x="115.506109" y="307.584" style="stroke: #000000; stroke-width: 0.8"/>
      </g>
     </g>
     <g id="text_3">
      <!-- 49 -->
      <g transform="translate(109.143609 322.182437) scale(0.1 -0.1)">
       <defs>
        <path id="DejaVuSans-39" d="M 703 97 
L 703 672 
Q 941 559 1184 500 
Q 1428 441 1663 441 
Q 2288 441 2617 861 
Q 2947 1281 2994 2138 
Q 2813 1869 2534 1725 
Q 2256 1581 1919 1581 
Q 1219 1581 811 2004 
Q 403 2428 403 3163 
Q 403 3881 828 4315 
Q 1253 4750 1959 4750 
Q 2769 4750 3195 4129 
Q 3622 3509 3622 2328 
Q 3622 1225 3098 567 
Q 2575 -91 1691 -91 
Q 1453 -91 1209 -44 
Q 966 3 703 97 
z
M 1959 2075 
Q 2384 2075 2632 2365 
Q 2881 2656 2881 3163 
Q 2881 3666 2632 3958 
Q 2384 4250 1959 4250 
Q 1534 4250 1286 3958 
Q 1038 3666 1038 3163 
Q 1038 2656 1286 2365 
Q 1534 2075 1959 2075 
z
" transform="scale(0.015625)"/>
       </defs>
       <use xlink:href="#DejaVuSans-34"/>
       <use xlink:href="#DejaVuSans-39" x="63.623047"/>
      </g>
     </g>
    </g>
    <g id="xtick_4">
     <g id="line2d_7">
      <path d="M 141.263283 307.584 
L 141.263283 41.472 
" clip-path="url(#p84ab66401b)" style="fill: none; stroke: #b0b0b0; stroke-width: 0.8; stroke-linecap: square"/>
     </g>
     <g id="line2d_8">
      <g>
       <use xlink:href="#m730e36975f" x="141.263283" y="307.584" style="stroke: #000000; stroke-width: 0.8"/>
      </g>
     </g>
     <g id="text_4">
      <!-- 50 -->
      <g transform="translate(134.900783 322.182437) scale(0.1 -0.1)">
       <defs>
        <path id="DejaVuSans-35" d="M 691 4666 
L 3169 4666 
L 3169 4134 
L 1269 4134 
L 1269 2991 
Q 1406 3038 1543 3061 
Q 1681 3084 1819 3084 
Q 2600 3084 3056 2656 
Q 3513 2228 3513 1497 
Q 3513 744 3044 326 
Q 2575 -91 1722 -91 
Q 1428 -91 1123 -41 
Q 819 9 494 109 
L 494 744 
Q 775 591 1075 516 
Q 1375 441 1709 441 
Q 2250 441 2565 725 
Q 2881 1009 2881 1497 
Q 2881 1984 2565 2268 
Q 2250 2553 1709 2553 
Q 1456 2553 1204 2497 
Q 953 2441 691 2322 
L 691 4666 
z
" transform="scale(0.015625)"/>
        <path id="DejaVuSans-30" d="M 2034 4250 
Q 1547 4250 1301 3770 
Q 1056 3291 1056 2328 
Q 1056 1369 1301 889 
Q 1547 409 2034 409 
Q 2525 409 2770 889 
Q 3016 1369 3016 2328 
Q 3016 3291 2770 3770 
Q 2525 4250 2034 4250 
z
M 2034 4750 
Q 2819 4750 3233 4129 
Q 3647 3509 3647 2328 
Q 3647 1150 3233 529 
Q 2819 -91 2034 -91 
Q 1250 -91 836 529 
Q 422 1150 422 2328 
Q 422 3509 836 4129 
Q 1250 4750 2034 4750 
z
" transform="scale(0.015625)"/>
       </defs>
       <use xlink:href="#DejaVuSans-35"/>
       <use xlink:href="#DejaVuSans-30" x="63.623047"/>
      </g>
     </g>
    </g>
    <g id="xtick_5">
     <g id="line2d_9">
      <path d="M 167.020456 307.584 
L 167.020456 41.472 
" clip-path="url(#p84ab66401b)" style="fill: none; stroke: #b0b0b0; stroke-width: 0.8; stroke-linecap: square"/>
     </g>
     <g id="line2d_10">
      <g>
       <use xlink:href="#m730e36975f" x="167.020456" y="307.584" style="stroke: #000000; stroke-width: 0.8"/>
      </g>
     </g>
     <g id="text_5">
      <!-- 51 -->
      <g transform="translate(160.657956 322.182437) scale(0.1 -0.1)">
       <defs>
        <path id="DejaVuSans-31" d="M 794 531 
L 1825 531 
L 1825 4091 
L 703 3866 
L 703 4441 
L 1819 4666 
L 2450 4666 
L 2450 531 
L 3481 531 
L 3481 0 
L 794 0 
L 794 531 
z
" transform="scale(0.015625)"/>
       </defs>
       <use xlink:href="#DejaVuSans-35"/>
       <use xlink:href="#DejaVuSans-31" x="63.623047"/>
      </g>
     </g>
    </g>
    <g id="xtick_6">
     <g id="line2d_11">
      <path d="M 192.77763 307.584 
L 192.77763 41.472 
" clip-path="url(#p84ab66401b)" style="fill: none; stroke: #b0b0b0; stroke-width: 0.8; stroke-linecap: square"/>
     </g>
     <g id="line2d_12">
      <g>
       <use xlink:href="#m730e36975f" x="192.77763" y="307.584" style="stroke: #000000; stroke-width: 0.8"/>
      </g>
     </g>
     <g id="text_6">
      <!-- 52 -->
      <g transform="translate(186.41513 322.182437) scale(0.1 -0.1)">
       <defs>
        <path id="DejaVuSans-32" d="M 1228 531 
L 3431 531 
L 3431 0 
L 469 0 
L 469 531 
Q 828 903 1448 1529 
Q 2069 2156 2228 2338 
Q 2531 2678 2651 2914 
Q 2772 3150 2772 3378 
Q 2772 3750 2511 3984 
Q 2250 4219 1831 4219 
Q 1534 4219 1204 4116 
Q 875 4013 500 3803 
L 500 4441 
Q 881 4594 1212 4672 
Q 1544 4750 1819 4750 
Q 2544 4750 2975 4387 
Q 3406 4025 3406 3419 
Q 3406 3131 3298 2873 
Q 3191 2616 2906 2266 
Q 2828 2175 2409 1742 
Q 1991 1309 1228 531 
z
" transform="scale(0.015625)"/>
       </defs>
       <use xlink:href="#DejaVuSans-35"/>
       <use xlink:href="#DejaVuSans-32" x="63.623047"/>
      </g>
     </g>
    </g>
    <g id="xtick_7">
     <g id="line2d_13">
      <path d="M 218.534804 307.584 
L 218.534804 41.472 
" clip-path="url(#p84ab66401b)" style="fill: none; stroke: #b0b0b0; stroke-width: 0.8; stroke-linecap: square"/>
     </g>
     <g id="line2d_14">
      <g>
       <use xlink:href="#m730e36975f" x="218.534804" y="307.584" style="stroke: #000000; stroke-width: 0.8"/>
      </g>
     </g>
     <g id="text_7">
      <!-- 53 -->
      <g transform="translate(212.172304 322.182437) scale(0.1 -0.1)">
       <defs>
        <path id="DejaVuSans-33" d="M 2597 2516 
Q 3050 2419 3304 2112 
Q 3559 1806 3559 1356 
Q 3559 666 3084 287 
Q 2609 -91 1734 -91 
Q 1441 -91 1130 -33 
Q 819 25 488 141 
L 488 750 
Q 750 597 1062 519 
Q 1375 441 1716 441 
Q 2309 441 2620 675 
Q 2931 909 2931 1356 
Q 2931 1769 2642 2001 
Q 2353 2234 1838 2234 
L 1294 2234 
L 1294 2753 
L 1863 2753 
Q 2328 2753 2575 2939 
Q 2822 3125 2822 3475 
Q 2822 3834 2567 4026 
Q 2313 4219 1838 4219 
Q 1578 4219 1281 4162 
Q 984 4106 628 3988 
L 628 4550 
Q 988 4650 1302 4700 
Q 1616 4750 1894 4750 
Q 2613 4750 3031 4423 
Q 3450 4097 3450 3541 
Q 3450 3153 3228 2886 
Q 3006 2619 2597 2516 
z
" transform="scale(0.015625)"/>
       </defs>
       <use xlink:href="#DejaVuSans-35"/>
       <use xlink:href="#DejaVuSans-33" x="63.623047"/>
      </g>
     </g>
    </g>
    <g id="xtick_8">
     <g id="line2d_15">
      <path d="M 244.291978 307.584 
L 244.291978 41.472 
" clip-path="url(#p84ab66401b)" style="fill: none; stroke: #b0b0b0; stroke-width: 0.8; stroke-linecap: square"/>
     </g>
     <g id="line2d_16">
      <g>
       <use xlink:href="#m730e36975f" x="244.291978" y="307.584" style="stroke: #000000; stroke-width: 0.8"/>
      </g>
     </g>
     <g id="text_8">
      <!-- 54 -->
      <g transform="translate(237.929478 322.182437) scale(0.1 -0.1)">
       <use xlink:href="#DejaVuSans-35"/>
       <use xlink:href="#DejaVuSans-34" x="63.623047"/>
      </g>
     </g>
    </g>
    <g id="xtick_9">
     <g id="line2d_17">
      <path d="M 270.049151 307.584 
L 270.049151 41.472 
" clip-path="url(#p84ab66401b)" style="fill: none; stroke: #b0b0b0; stroke-width: 0.8; stroke-linecap: square"/>
     </g>
     <g id="line2d_18">
      <g>
       <use xlink:href="#m730e36975f" x="270.049151" y="307.584" style="stroke: #000000; stroke-width: 0.8"/>
      </g>
     </g>
     <g id="text_9">
      <!-- 55 -->
      <g transform="translate(263.686651 322.182437) scale(0.1 -0.1)">
       <use xlink:href="#DejaVuSans-35"/>
       <use xlink:href="#DejaVuSans-35" x="63.623047"/>
      </g>
     </g>
    </g>
    <g id="xtick_10">
     <g id="line2d_19">
      <path d="M 295.806325 307.584 
L 295.806325 41.472 
" clip-path="url(#p84ab66401b)" style="fill: none; stroke: #b0b0b0; stroke-width: 0.8; stroke-linecap: square"/>
     </g>
     <g id="line2d_20">
      <g>
       <use xlink:href="#m730e36975f" x="295.806325" y="307.584" style="stroke: #000000; stroke-width: 0.8"/>
      </g>
     </g>
     <g id="text_10">
      <!-- 56 -->
      <g transform="translate(289.443825 322.182437) scale(0.1 -0.1)">
       <defs>
        <path id="DejaVuSans-36" d="M 2113 2584 
Q 1688 2584 1439 2293 
Q 1191 2003 1191 1497 
Q 1191 994 1439 701 
Q 1688 409 2113 409 
Q 2538 409 2786 701 
Q 3034 994 3034 1497 
Q 3034 2003 2786 2293 
Q 2538 2584 2113 2584 
z
M 3366 4563 
L 3366 3988 
Q 3128 4100 2886 4159 
Q 2644 4219 2406 4219 
Q 1781 4219 1451 3797 
Q 1122 3375 1075 2522 
Q 1259 2794 1537 2939 
Q 1816 3084 2150 3084 
Q 2853 3084 3261 2657 
Q 3669 2231 3669 1497 
Q 3669 778 3244 343 
Q 2819 -91 2113 -91 
Q 1303 -91 875 529 
Q 447 1150 447 2328 
Q 447 3434 972 4092 
Q 1497 4750 2381 4750 
Q 2619 4750 2861 4703 
Q 3103 4656 3366 4563 
z
" transform="scale(0.015625)"/>
       </defs>
       <use xlink:href="#DejaVuSans-35"/>
       <use xlink:href="#DejaVuSans-36" x="63.623047"/>
      </g>
     </g>
    </g>
    <g id="xtick_11">
     <g id="line2d_21">
      <path d="M 321.563499 307.584 
L 321.563499 41.472 
" clip-path="url(#p84ab66401b)" style="fill: none; stroke: #b0b0b0; stroke-width: 0.8; stroke-linecap: square"/>
     </g>
     <g id="line2d_22">
      <g>
       <use xlink:href="#m730e36975f" x="321.563499" y="307.584" style="stroke: #000000; stroke-width: 0.8"/>
      </g>
     </g>
     <g id="text_11">
      <!-- 57 -->
      <g transform="translate(315.200999 322.182437) scale(0.1 -0.1)">
       <use xlink:href="#DejaVuSans-35"/>
       <use xlink:href="#DejaVuSans-37" x="63.623047"/>
      </g>
     </g>
    </g>
    <g id="xtick_12">
     <g id="line2d_23">
      <path d="M 347.320673 307.584 
L 347.320673 41.472 
" clip-path="url(#p84ab66401b)" style="fill: none; stroke: #b0b0b0; stroke-width: 0.8; stroke-linecap: square"/>
     </g>
     <g id="line2d_24">
      <g>
       <use xlink:href="#m730e36975f" x="347.320673" y="307.584" style="stroke: #000000; stroke-width: 0.8"/>
      </g>
     </g>
     <g id="text_12">
      <!-- 58 -->
      <g transform="translate(340.958173 322.182437) scale(0.1 -0.1)">
       <use xlink:href="#DejaVuSans-35"/>
       <use xlink:href="#DejaVuSans-38" x="63.623047"/>
      </g>
     </g>
    </g>
    <g id="xtick_13">
     <g id="line2d_25">
      <path d="M 373.077847 307.584 
L 373.077847 41.472 
" clip-path="url(#p84ab66401b)" style="fill: none; stroke: #b0b0b0; stroke-width: 0.8; stroke-linecap: square"/>
     </g>
     <g id="line2d_26">
      <g>
       <use xlink:href="#m730e36975f" x="373.077847" y="307.584" style="stroke: #000000; stroke-width: 0.8"/>
      </g>
     </g>
     <g id="text_13">
      <!-- 59 -->
      <g transform="translate(366.715347 322.182437) scale(0.1 -0.1)">
       <use xlink:href="#DejaVuSans-35"/>
       <use xlink:href="#DejaVuSans-39" x="63.623047"/>
      </g>
     </g>
    </g>
    <g id="text_14">
     <!-- time [sec] -->
     <g transform="translate(210.942813 335.860562) scale(0.1 -0.1)">
      <defs>
       <path id="DejaVuSans-74" d="M 1172 4494 
L 1172 3500 
L 2356 3500 
L 2356 3053 
L 1172 3053 
L 1172 1153 
Q 1172 725 1289 603 
Q 1406 481 1766 481 
L 2356 481 
L 2356 0 
L 1766 0 
Q 1100 0 847 248 
Q 594 497 594 1153 
L 594 3053 
L 172 3053 
L 172 3500 
L 594 3500 
L 594 4494 
L 1172 4494 
z
" transform="scale(0.015625)"/>
       <path id="DejaVuSans-69" d="M 603 3500 
L 1178 3500 
L 1178 0 
L 603 0 
L 603 3500 
z
M 603 4863 
L 1178 4863 
L 1178 4134 
L 603 4134 
L 603 4863 
z
" transform="scale(0.015625)"/>
       <path id="DejaVuSans-6d" d="M 3328 2828 
Q 3544 3216 3844 3400 
Q 4144 3584 4550 3584 
Q 5097 3584 5394 3201 
Q 5691 2819 5691 2113 
L 5691 0 
L 5113 0 
L 5113 2094 
Q 5113 2597 4934 2840 
Q 4756 3084 4391 3084 
Q 3944 3084 3684 2787 
Q 3425 2491 3425 1978 
L 3425 0 
L 2847 0 
L 2847 2094 
Q 2847 2600 2669 2842 
Q 2491 3084 2119 3084 
Q 1678 3084 1418 2786 
Q 1159 2488 1159 1978 
L 1159 0 
L 581 0 
L 581 3500 
L 1159 3500 
L 1159 2956 
Q 1356 3278 1631 3431 
Q 1906 3584 2284 3584 
Q 2666 3584 2933 3390 
Q 3200 3197 3328 2828 
z
" transform="scale(0.015625)"/>
       <path id="DejaVuSans-65" d="M 3597 1894 
L 3597 1613 
L 953 1613 
Q 991 1019 1311 708 
Q 1631 397 2203 397 
Q 2534 397 2845 478 
Q 3156 559 3463 722 
L 3463 178 
Q 3153 47 2828 -22 
Q 2503 -91 2169 -91 
Q 1331 -91 842 396 
Q 353 884 353 1716 
Q 353 2575 817 3079 
Q 1281 3584 2069 3584 
Q 2775 3584 3186 3129 
Q 3597 2675 3597 1894 
z
M 3022 2063 
Q 3016 2534 2758 2815 
Q 2500 3097 2075 3097 
Q 1594 3097 1305 2825 
Q 1016 2553 972 2059 
L 3022 2063 
z
" transform="scale(0.015625)"/>
       <path id="DejaVuSans-20" transform="scale(0.015625)"/>
       <path id="DejaVuSans-5b" d="M 550 4863 
L 1875 4863 
L 1875 4416 
L 1125 4416 
L 1125 -397 
L 1875 -397 
L 1875 -844 
L 550 -844 
L 550 4863 
z
" transform="scale(0.015625)"/>
       <path id="DejaVuSans-73" d="M 2834 3397 
L 2834 2853 
Q 2591 2978 2328 3040 
Q 2066 3103 1784 3103 
Q 1356 3103 1142 2972 
Q 928 2841 928 2578 
Q 928 2378 1081 2264 
Q 1234 2150 1697 2047 
L 1894 2003 
Q 2506 1872 2764 1633 
Q 3022 1394 3022 966 
Q 3022 478 2636 193 
Q 2250 -91 1575 -91 
Q 1294 -91 989 -36 
Q 684 19 347 128 
L 347 722 
Q 666 556 975 473 
Q 1284 391 1588 391 
Q 1994 391 2212 530 
Q 2431 669 2431 922 
Q 2431 1156 2273 1281 
Q 2116 1406 1581 1522 
L 1381 1569 
Q 847 1681 609 1914 
Q 372 2147 372 2553 
Q 372 3047 722 3315 
Q 1072 3584 1716 3584 
Q 2034 3584 2315 3537 
Q 2597 3491 2834 3397 
z
" transform="scale(0.015625)"/>
       <path id="DejaVuSans-63" d="M 3122 3366 
L 3122 2828 
Q 2878 2963 2633 3030 
Q 2388 3097 2138 3097 
Q 1578 3097 1268 2742 
Q 959 2388 959 1747 
Q 959 1106 1268 751 
Q 1578 397 2138 397 
Q 2388 397 2633 464 
Q 2878 531 3122 666 
L 3122 134 
Q 2881 22 2623 -34 
Q 2366 -91 2075 -91 
Q 1284 -91 818 406 
Q 353 903 353 1747 
Q 353 2603 823 3093 
Q 1294 3584 2113 3584 
Q 2378 3584 2631 3529 
Q 2884 3475 3122 3366 
z
" transform="scale(0.015625)"/>
       <path id="DejaVuSans-5d" d="M 1947 4863 
L 1947 -844 
L 622 -844 
L 622 -397 
L 1369 -397 
L 1369 4416 
L 622 4416 
L 622 4863 
L 1947 4863 
z
" transform="scale(0.015625)"/>
      </defs>
      <use xlink:href="#DejaVuSans-74"/>
      <use xlink:href="#DejaVuSans-69" x="39.208984"/>
      <use xlink:href="#DejaVuSans-6d" x="66.992188"/>
      <use xlink:href="#DejaVuSans-65" x="164.404297"/>
      <use xlink:href="#DejaVuSans-20" x="225.927734"/>
      <use xlink:href="#DejaVuSans-5b" x="257.714844"/>
      <use xlink:href="#DejaVuSans-73" x="296.728516"/>
      <use xlink:href="#DejaVuSans-65" x="348.828125"/>
      <use xlink:href="#DejaVuSans-63" x="410.351562"/>
      <use xlink:href="#DejaVuSans-5d" x="465.332031"/>
     </g>
    </g>
   </g>
   <g id="matplotlib.axis_2">
    <g id="ytick_1">
     <g id="line2d_27">
      <path d="M 57.6 280.105653 
L 414.72 280.105653 
" clip-path="url(#p84ab66401b)" style="fill: none; stroke: #b0b0b0; stroke-width: 0.8; stroke-linecap: square"/>
     </g>
     <g id="line2d_28">
      <defs>
       <path id="m784baa7789" d="M 0 0 
L -3.5 0 
" style="stroke: #000000; stroke-width: 0.8"/>
      </defs>
      <g>
       <use xlink:href="#m784baa7789" x="57.6" y="280.105653" style="stroke: #000000; stroke-width: 0.8"/>
      </g>
     </g>
     <g id="text_15">
      <!-- 10 -->
      <g transform="translate(37.875 283.904872) scale(0.1 -0.1)">
       <use xlink:href="#DejaVuSans-31"/>
       <use xlink:href="#DejaVuSans-30" x="63.623047"/>
      </g>
     </g>
    </g>
    <g id="ytick_2">
     <g id="line2d_29">
      <path d="M 57.6 238.997927 
L 414.72 238.997927 
" clip-path="url(#p84ab66401b)" style="fill: none; stroke: #b0b0b0; stroke-width: 0.8; stroke-linecap: square"/>
     </g>
     <g id="line2d_30">
      <g>
       <use xlink:href="#m784baa7789" x="57.6" y="238.997927" style="stroke: #000000; stroke-width: 0.8"/>
      </g>
     </g>
     <g id="text_16">
      <!-- 20 -->
      <g transform="translate(37.875 242.797146) scale(0.1 -0.1)">
       <use xlink:href="#DejaVuSans-32"/>
       <use xlink:href="#DejaVuSans-30" x="63.623047"/>
      </g>
     </g>
    </g>
    <g id="ytick_3">
     <g id="line2d_31">
      <path d="M 57.6 197.890202 
L 414.72 197.890202 
" clip-path="url(#p84ab66401b)" style="fill: none; stroke: #b0b0b0; stroke-width: 0.8; stroke-linecap: square"/>
     </g>
     <g id="line2d_32">
      <g>
       <use xlink:href="#m784baa7789" x="57.6" y="197.890202" style="stroke: #000000; stroke-width: 0.8"/>
      </g>
     </g>
     <g id="text_17">
      <!-- 30 -->
      <g transform="translate(37.875 201.68942) scale(0.1 -0.1)">
       <use xlink:href="#DejaVuSans-33"/>
       <use xlink:href="#DejaVuSans-30" x="63.623047"/>
      </g>
     </g>
    </g>
    <g id="ytick_4">
     <g id="line2d_33">
      <path d="M 57.6 156.782476 
L 414.72 156.782476 
" clip-path="url(#p84ab66401b)" style="fill: none; stroke: #b0b0b0; stroke-width: 0.8; stroke-linecap: square"/>
     </g>
     <g id="line2d_34">
      <g>
       <use xlink:href="#m784baa7789" x="57.6" y="156.782476" style="stroke: #000000; stroke-width: 0.8"/>
      </g>
     </g>
     <g id="text_18">
      <!-- 40 -->
      <g transform="translate(37.875 160.581695) scale(0.1 -0.1)">
       <use xlink:href="#DejaVuSans-34"/>
       <use xlink:href="#DejaVuSans-30" x="63.623047"/>
      </g>
     </g>
    </g>
    <g id="ytick_5">
     <g id="line2d_35">
      <path d="M 57.6 115.67475 
L 414.72 115.67475 
" clip-path="url(#p84ab66401b)" style="fill: none; stroke: #b0b0b0; stroke-width: 0.8; stroke-linecap: square"/>
     </g>
     <g id="line2d_36">
      <g>
       <use xlink:href="#m784baa7789" x="57.6" y="115.67475" style="stroke: #000000; stroke-width: 0.8"/>
      </g>
     </g>
     <g id="text_19">
      <!-- 50 -->
      <g transform="translate(37.875 119.473969) scale(0.1 -0.1)">
       <use xlink:href="#DejaVuSans-35"/>
       <use xlink:href="#DejaVuSans-30" x="63.623047"/>
      </g>
     </g>
    </g>
    <g id="ytick_6">
     <g id="line2d_37">
      <path d="M 57.6 74.567025 
L 414.72 74.567025 
" clip-path="url(#p84ab66401b)" style="fill: none; stroke: #b0b0b0; stroke-width: 0.8; stroke-linecap: square"/>
     </g>
     <g id="line2d_38">
      <g>
       <use xlink:href="#m784baa7789" x="57.6" y="74.567025" style="stroke: #000000; stroke-width: 0.8"/>
      </g>
     </g>
     <g id="text_20">
      <!-- 60 -->
      <g transform="translate(37.875 78.366243) scale(0.1 -0.1)">
       <use xlink:href="#DejaVuSans-36"/>
       <use xlink:href="#DejaVuSans-30" x="63.623047"/>
      </g>
     </g>
    </g>
    <g id="text_21">
     <!-- angle [°] -->
     <g transform="translate(31.795312 196.391281) rotate(-90) scale(0.1 -0.1)">
      <defs>
       <path id="DejaVuSans-61" d="M 2194 1759 
Q 1497 1759 1228 1600 
Q 959 1441 959 1056 
Q 959 750 1161 570 
Q 1363 391 1709 391 
Q 2188 391 2477 730 
Q 2766 1069 2766 1631 
L 2766 1759 
L 2194 1759 
z
M 3341 1997 
L 3341 0 
L 2766 0 
L 2766 531 
Q 2569 213 2275 61 
Q 1981 -91 1556 -91 
Q 1019 -91 701 211 
Q 384 513 384 1019 
Q 384 1609 779 1909 
Q 1175 2209 1959 2209 
L 2766 2209 
L 2766 2266 
Q 2766 2663 2505 2880 
Q 2244 3097 1772 3097 
Q 1472 3097 1187 3025 
Q 903 2953 641 2809 
L 641 3341 
Q 956 3463 1253 3523 
Q 1550 3584 1831 3584 
Q 2591 3584 2966 3190 
Q 3341 2797 3341 1997 
z
" transform="scale(0.015625)"/>
       <path id="DejaVuSans-6e" d="M 3513 2113 
L 3513 0 
L 2938 0 
L 2938 2094 
Q 2938 2591 2744 2837 
Q 2550 3084 2163 3084 
Q 1697 3084 1428 2787 
Q 1159 2491 1159 1978 
L 1159 0 
L 581 0 
L 581 3500 
L 1159 3500 
L 1159 2956 
Q 1366 3272 1645 3428 
Q 1925 3584 2291 3584 
Q 2894 3584 3203 3211 
Q 3513 2838 3513 2113 
z
" transform="scale(0.015625)"/>
       <path id="DejaVuSans-67" d="M 2906 1791 
Q 2906 2416 2648 2759 
Q 2391 3103 1925 3103 
Q 1463 3103 1205 2759 
Q 947 2416 947 1791 
Q 947 1169 1205 825 
Q 1463 481 1925 481 
Q 2391 481 2648 825 
Q 2906 1169 2906 1791 
z
M 3481 434 
Q 3481 -459 3084 -895 
Q 2688 -1331 1869 -1331 
Q 1566 -1331 1297 -1286 
Q 1028 -1241 775 -1147 
L 775 -588 
Q 1028 -725 1275 -790 
Q 1522 -856 1778 -856 
Q 2344 -856 2625 -561 
Q 2906 -266 2906 331 
L 2906 616 
Q 2728 306 2450 153 
Q 2172 0 1784 0 
Q 1141 0 747 490 
Q 353 981 353 1791 
Q 353 2603 747 3093 
Q 1141 3584 1784 3584 
Q 2172 3584 2450 3431 
Q 2728 3278 2906 2969 
L 2906 3500 
L 3481 3500 
L 3481 434 
z
" transform="scale(0.015625)"/>
       <path id="DejaVuSans-6c" d="M 603 4863 
L 1178 4863 
L 1178 0 
L 603 0 
L 603 4863 
z
" transform="scale(0.015625)"/>
       <path id="DejaVuSans-b0" d="M 1600 4347 
Q 1350 4347 1178 4173 
Q 1006 4000 1006 3750 
Q 1006 3503 1178 3333 
Q 1350 3163 1600 3163 
Q 1850 3163 2022 3333 
Q 2194 3503 2194 3750 
Q 2194 3997 2020 4172 
Q 1847 4347 1600 4347 
z
M 1600 4750 
Q 1800 4750 1984 4673 
Q 2169 4597 2303 4453 
Q 2447 4313 2519 4134 
Q 2591 3956 2591 3750 
Q 2591 3338 2302 3052 
Q 2013 2766 1594 2766 
Q 1172 2766 890 3047 
Q 609 3328 609 3750 
Q 609 4169 896 4459 
Q 1184 4750 1600 4750 
z
" transform="scale(0.015625)"/>
      </defs>
      <use xlink:href="#DejaVuSans-61"/>
      <use xlink:href="#DejaVuSans-6e" x="61.279297"/>
      <use xlink:href="#DejaVuSans-67" x="124.658203"/>
      <use xlink:href="#DejaVuSans-6c" x="188.134766"/>
      <use xlink:href="#DejaVuSans-65" x="215.917969"/>
      <use xlink:href="#DejaVuSans-20" x="277.441406"/>
      <use xlink:href="#DejaVuSans-5b" x="309.228516"/>
      <use xlink:href="#DejaVuSans-b0" x="348.242188"/>
      <use xlink:href="#DejaVuSans-5d" x="398.242188"/>
     </g>
    </g>
   </g>
   <g id="line2d_39">
    <path d="M 73.832727 276.510625 
L 74.659069 276.887695 
L 76.405148 276.581586 
L 77.229403 277.846218 
L 78.160499 279.830586 
L 79.950391 280.335359 
L 80.742321 279.882147 
L 81.557329 278.760547 
L 83.310157 279.376957 
L 84.131167 279.920432 
L 85.064607 280.111873 
L 85.883607 279.901253 
L 86.708687 278.759466 
L 87.645578 278.392136 
L 88.457985 276.051029 
L 89.382616 275.145205 
L 91.02613 275.767981 
L 91.96024 275.957192 
L 93.602723 276.758148 
L 94.536987 276.579952 
L 95.36047 277.142376 
L 97.111469 276.975695 
L 97.93745 276.745919 
L 99.691487 276.523168 
L 100.515459 276.636352 
L 101.462525 276.951468 
L 102.582266 277.114727 
L 103.33059 277.015598 
L 104.016271 277.789671 
L 104.841634 279.890469 
L 106.593869 281.167874 
L 107.532666 280.995513 
L 108.351745 280.587799 
L 109.25577 280.933133 
L 111.736521 280.717543 
L 112.657185 280.081349 
L 113.485355 279.232508 
L 115.232233 275.801383 
L 116.060274 275.551154 
L 116.984648 279.979824 
L 117.812071 279.763006 
L 118.742189 280.192488 
L 120.383848 280.501724 
L 122.137061 281.269795 
L 122.962553 281.249024 
L 123.893752 280.706132 
L 124.714762 280.745527 
L 125.638388 280.641564 
L 126.473745 281.048477 
L 127.286539 280.807191 
L 128.216579 281.082611 
L 129.86205 281.919159 
L 131.625515 284.917849 
L 132.54247 286.04988 
L 133.366622 286.664504 
L 135.118883 285.707841 
L 135.940588 285.725033 
L 136.867795 285.093193 
L 137.698206 285.002728 
L 138.516048 284.238633 
L 139.443178 282.150699 
L 140.269777 281.264168 
L 141.09514 281.93078 
L 142.019359 281.773145 
L 142.846009 281.434003 
L 143.770975 281.500626 
L 144.594896 281.223428 
L 145.421855 280.72809 
L 146.349268 280.867272 
L 147.171231 280.522541 
L 147.99559 281.12567 
L 148.921766 280.161842 
L 149.746923 279.64674 
L 151.51201 279.423153 
L 152.323258 279.487461 
L 153.254664 278.918476 
L 154.077296 278.861302 
L 155.001824 278.429604 
L 155.829222 279.768389 
L 156.806475 280.831035 
L 157.583801 281.057058 
L 159.226645 282.123947 
L 160.153336 281.745233 
L 160.976742 282.037753 
L 161.929371 281.918252 
L 163.553876 282.103911 
L 164.506788 281.518167 
L 165.343123 280.655182 
L 166.28751 280.048121 
L 167.086163 274.956222 
L 169.662807 272.733493 
L 170.460739 273.580059 
L 171.387765 274.785235 
L 172.237649 274.172744 
L 173.139253 274.934469 
L 173.993876 281.514546 
L 174.813263 281.078448 
L 175.715486 281.05277 
L 176.565833 280.74263 
L 177.388723 280.709378 
L 178.290379 281.010672 
L 179.116128 281.494786 
L 180.046838 281.807033 
L 180.866251 282.476266 
L 181.692489 283.656303 
L 183.442355 285.46665 
L 184.370952 286.27226 
L 185.200153 285.036806 
L 186.017505 285.065438 
L 186.944145 284.023913 
L 187.773346 277.756515 
L 189.520481 276.953547 
L 191.271634 275.603762 
L 192.096533 275.255881 
L 192.927923 275.41801 
L 193.849438 275.20381 
L 194.672405 269.853263 
L 195.507298 269.542712 
L 196.424176 269.433905 
L 197.247582 270.02145 
L 198.175252 270.480763 
L 199.003345 270.214658 
L 199.82384 279.208347 
L 200.75084 278.976946 
L 201.575302 277.569201 
L 202.502174 276.29871 
L 203.326352 275.661864 
L 204.149371 275.238471 
L 205.078947 275.270815 
L 205.903228 275.489867 
L 206.729647 275.973365 
L 207.655978 275.98559 
L 208.478997 277.376752 
L 209.410119 277.86745 
L 210.230923 278.073334 
L 211.052937 278.591929 
L 211.992662 278.057735 
L 212.809087 277.829702 
L 213.731838 277.73793 
L 214.606397 277.861349 
L 215.382177 278.481949 
L 216.311367 277.947967 
L 217.13503 277.639918 
L 217.957122 276.430064 
L 218.888321 274.286808 
L 219.710851 273.246771 
L 220.64393 274.233535 
L 221.464888 274.505161 
L 222.291256 274.59377 
L 223.228868 275.16036 
L 224.037309 274.370508 
L 224.963846 274.767823 
L 225.791913 275.509681 
L 226.615138 275.108214 
L 227.537116 275.130453 
L 228.370722 275.423612 
L 229.189027 275.463502 
L 230.113169 275.236883 
L 230.939356 275.34778 
L 231.892036 274.974442 
L 232.689556 274.78413 
L 234.45521 276.548746 
L 236.095015 279.508461 
L 237.033503 279.682986 
L 237.844906 278.959855 
L 238.769382 278.443107 
L 239.921706 278.244115 
L 241.354733 279.052772 
L 242.175639 279.153106 
L 242.991266 279.009411 
L 244.000638 277.659311 
L 244.791152 276.063407 
L 245.6849 273.443713 
L 246.519458 273.542764 
L 247.374725 274.414402 
L 248.421934 274.762974 
L 249.114081 274.223369 
L 250.013238 275.020404 
L 250.839683 273.503127 
L 251.644852 273.45437 
L 252.593772 273.78854 
L 253.419238 273.907694 
L 254.225695 273.211786 
L 255.962038 273.138325 
L 256.894293 273.405642 
L 258.539661 274.703537 
L 260.295451 276.897021 
L 261.220185 277.279596 
L 262.046217 277.04543 
L 262.907048 276.611875 
L 263.794382 276.030008 
L 264.643596 276.825679 
L 267.194947 277.201161 
L 268.12661 275.957305 
L 268.947208 274.433735 
L 269.795675 271.755687 
L 270.697279 270.36327 
L 271.520865 271.157558 
L 272.449025 271.797353 
L 273.274851 272.212732 
L 274.099287 272.943281 
L 275.024819 273.002428 
L 275.851882 272.707106 
L 276.671063 273.343901 
L 277.599815 273.24542 
L 278.425719 272.676769 
L 279.35169 272.793748 
L 280.177284 273.244431 
L 281.001359 272.963817 
L 281.932455 273.066759 
L 283.575428 273.797955 
L 284.526203 274.802131 
L 285.325783 275.955553 
L 286.252989 276.717597 
L 287.078224 277.560953 
L 287.906548 276.666098 
L 289.654533 276.265572 
L 291.406588 276.574094 
L 292.231126 276.353276 
L 293.158153 255.541253 
L 293.982872 255.611872 
L 294.806715 255.150286 
L 295.732222 253.135596 
L 296.554751 252.550615 
L 297.484817 252.629075 
L 298.309819 252.066622 
L 299.134822 252.267625 
L 300.885923 250.848644 
L 301.715974 251.037672 
L 302.635994 251.793701 
L 303.459606 250.817191 
L 304.396935 251.515677 
L 305.214494 251.639692 
L 306.036276 251.455074 
L 306.964127 252.038503 
L 307.787919 252.214418 
L 308.738384 253.1112 
L 309.539484 254.473777 
L 310.36361 254.450462 
L 312.126869 255.668261 
L 312.938297 254.892586 
L 314.693726 255.411889 
L 315.643238 255.545338 
L 317.270396 256.412377 
L 318.192117 256.188043 
L 319.041125 255.482748 
L 319.949709 254.16217 
L 321.607338 252.252385 
L 323.343526 252.446611 
L 324.184704 251.897205 
L 325.108871 252.463886 
L 328.537408 252.531345 
L 329.436437 252.721613 
L 330.264787 252.354338 
L 331.085591 252.668449 
L 332.02851 254.048963 
L 332.837775 293.236511 
L 333.767918 293.858578 
L 334.59395 294.227002 
L 335.410942 293.842349 
L 336.33972 293.115562 
L 337.164516 292.797274 
L 338.913196 292.676178 
L 339.74402 292.806801 
L 340.676636 292.3015 
L 343.248824 290.276547 
L 344.068855 289.912322 
L 345.824748 290.602182 
L 346.642667 290.417138 
L 347.569101 290.536059 
L 348.392609 290.859147 
L 350.144689 290.529637 
L 350.968429 290.637533 
L 351.895713 290.585742 
L 352.721411 290.759064 
L 358.802525 293.160821 
L 359.62606 293.045494 
L 360.448872 292.532776 
L 361.383549 292.760243 
L 363.17581 293.445716 
L 363.981804 290.564566 
L 364.777108 289.444657 
L 365.690689 289.463433 
L 367.451604 288.097009 
L 368.270373 291.687863 
L 369.094422 293.080655 
L 370.842201 293.080294 
L 371.665091 292.993245 
L 373.417893 293.29619 
L 375.193618 293.530443 
L 376.956207 293.652182 
L 378.59135 294.248145 
L 379.494602 294.698438 
L 380.328852 295.281118 
L 381.31512 295.488 
L 398.487273 295.488 
L 398.487273 295.488 
" clip-path="url(#p84ab66401b)" style="fill: none; stroke: #ff0000; stroke-width: 1.5; stroke-linecap: square"/>
   </g>
   <g id="line2d_40">
    <path d="M 73.832727 62.818377 
L 74.659069 63.172013 
L 75.489661 63.110288 
L 76.405148 62.639022 
L 77.229403 63.887248 
L 78.160499 65.022462 
L 78.98205 65.429715 
L 79.950391 65.046334 
L 81.557329 62.126399 
L 83.310157 63.566616 
L 84.131167 64.644855 
L 85.064607 65.43324 
L 85.883607 65.565094 
L 86.708687 64.801717 
L 87.645578 64.775229 
L 88.457985 62.854626 
L 89.382616 61.31143 
L 90.20579 61.19247 
L 91.02613 61.497242 
L 91.96024 61.720869 
L 93.602723 62.937212 
L 95.36047 63.081983 
L 96.281469 62.923969 
L 97.93745 63.232172 
L 98.857135 62.903037 
L 100.515459 63.109758 
L 101.462525 63.335032 
L 102.582266 63.188754 
L 103.33059 62.599638 
L 104.016271 63.818461 
L 104.841634 65.756646 
L 105.768738 66.007871 
L 106.593869 67.231386 
L 108.351745 66.179206 
L 109.25577 67.041189 
L 110.123812 67.102303 
L 111.736521 67.720612 
L 112.657185 67.537129 
L 114.40978 65.315925 
L 115.232233 63.161884 
L 116.060274 61.452947 
L 116.984648 78.519621 
L 117.812071 78.478168 
L 118.742189 78.751865 
L 119.565439 78.794769 
L 120.383848 79.235857 
L 121.315768 79.33446 
L 122.137061 80.069564 
L 122.962553 79.648146 
L 124.714762 80.117264 
L 125.638388 79.918939 
L 126.473745 80.574912 
L 127.286539 80.069456 
L 128.216579 80.261141 
L 129.041246 79.866235 
L 129.86205 79.607242 
L 130.789463 81.102432 
L 131.625515 82.175488 
L 132.54247 83.667469 
L 133.366622 85.353345 
L 135.118883 85.149903 
L 135.940588 85.201671 
L 136.867795 84.622021 
L 137.698206 85.085515 
L 138.516048 84.991594 
L 139.443178 87.599365 
L 140.269777 86.935674 
L 141.09514 86.844263 
L 142.019359 85.856044 
L 142.846009 83.813428 
L 143.770975 83.58721 
L 144.594896 84.265712 
L 145.421855 83.77892 
L 146.349268 84.277265 
L 147.171231 83.650461 
L 147.99559 83.558312 
L 148.921766 79.605026 
L 149.746923 79.407497 
L 150.675031 78.877664 
L 151.51201 78.963292 
L 152.323258 79.249047 
L 154.077296 79.061206 
L 155.001824 77.991046 
L 155.829222 79.279307 
L 156.806475 80.166856 
L 157.583801 80.031015 
L 158.408494 80.205524 
L 159.226645 80.135914 
L 160.153336 79.652939 
L 160.976742 80.439755 
L 161.929371 80.350663 
L 162.727817 80.891605 
L 163.553876 81.615997 
L 164.506788 81.489313 
L 166.28751 79.6315 
L 167.086163 64.431069 
L 167.883219 63.322329 
L 168.81398 61.230113 
L 169.662807 61.683576 
L 170.460739 63.527739 
L 171.387765 65.083023 
L 172.237649 64.432135 
L 173.139253 65.453527 
L 173.993876 83.964751 
L 175.715486 82.880518 
L 176.565833 81.828365 
L 177.388723 82.556112 
L 178.290379 82.653167 
L 179.116128 82.069414 
L 180.866251 82.850673 
L 181.692489 83.594261 
L 183.442355 87.084645 
L 184.370952 87.869634 
L 185.200153 87.086662 
L 186.017505 88.130433 
L 186.944145 86.738567 
L 187.773346 57.138218 
L 188.594717 56.765564 
L 189.520481 57.351775 
L 190.348085 57.654497 
L 191.271634 55.772818 
L 192.096533 55.197964 
L 192.927923 54.966118 
L 193.849438 53.568 
L 194.672405 61.536393 
L 195.507298 61.169533 
L 196.424176 58.991488 
L 197.247582 60.125463 
L 198.175252 59.729753 
L 199.003345 59.163885 
L 199.82384 82.200799 
L 200.75084 79.91414 
L 201.575302 76.452103 
L 202.502174 73.32041 
L 203.326352 71.825636 
L 204.149371 71.002103 
L 205.078947 71.652217 
L 205.903228 71.59684 
L 207.655978 71.183046 
L 208.478997 72.485343 
L 209.410119 73.022063 
L 210.230923 73.346682 
L 211.052937 75.137373 
L 211.992662 74.79196 
L 212.809087 75.658683 
L 213.731838 75.240852 
L 214.606397 75.405545 
L 215.382177 76.098633 
L 216.311367 75.417966 
L 217.13503 75.376287 
L 217.957122 75.135696 
L 219.710851 71.64451 
L 221.464888 70.558138 
L 222.291256 70.456375 
L 223.228868 71.688918 
L 224.963846 70.512845 
L 226.615138 71.718662 
L 227.537116 70.972621 
L 229.189027 71.404087 
L 230.113169 70.951259 
L 230.939356 71.630723 
L 231.892036 71.762072 
L 232.689556 71.410843 
L 234.45521 71.836418 
L 236.095015 75.431045 
L 237.033503 75.900256 
L 239.921706 74.959147 
L 240.485196 75.479096 
L 241.354733 75.895701 
L 242.175639 75.935169 
L 242.991266 76.486348 
L 244.000638 75.49184 
L 244.791152 74.462836 
L 245.6849 71.897621 
L 246.519458 70.512431 
L 247.374725 70.483269 
L 248.421934 70.959719 
L 249.114081 70.156539 
L 250.013238 71.848356 
L 250.839683 64.343287 
L 251.644852 63.18985 
L 252.593772 64.623746 
L 253.419238 64.903122 
L 254.225695 63.531021 
L 255.142986 64.402254 
L 257.73936 64.261615 
L 258.539661 64.313872 
L 260.295451 66.582784 
L 261.220185 67.133258 
L 262.046217 68.15187 
L 262.907048 66.961927 
L 263.794382 65.990261 
L 264.643596 67.874918 
L 265.447916 67.783029 
L 266.374891 68.222553 
L 267.194947 68.74323 
L 268.12661 67.860355 
L 268.947208 66.887743 
L 270.697279 62.574495 
L 271.520865 62.053017 
L 272.449025 62.590932 
L 273.274851 62.938449 
L 274.099287 63.070637 
L 275.024819 63.938718 
L 276.671063 63.522571 
L 278.425719 63.721979 
L 279.35169 63.2671 
L 280.177284 64.658012 
L 281.001359 64.171358 
L 281.932455 64.193206 
L 283.575428 64.691447 
L 285.325783 66.075266 
L 286.252989 67.761206 
L 287.078224 68.778814 
L 287.906548 66.63382 
L 288.831076 66.617596 
L 289.654533 66.442762 
L 290.478634 67.000502 
L 292.231126 67.498148 
L 293.982872 69.413971 
L 296.554751 72.287704 
L 298.309819 74.203527 
L 301.715974 78.035171 
L 304.396935 80.908905 
L 307.787919 84.74055 
L 309.539484 86.656372 
L 310.36361 87.614283 
L 311.360464 88.572194 
L 312.938297 90.488017 
L 315.643238 93.36175 
L 318.192117 96.235484 
L 325.963674 104.856684 
L 329.436437 108.688329 
L 332.837775 112.519974 
L 333.767918 112.933617 
L 334.59395 112.681257 
L 335.410942 112.560406 
L 336.33972 111.497468 
L 337.164516 111.12358 
L 337.987587 111.518245 
L 338.913196 111.680611 
L 339.74402 112.390769 
L 340.676636 112.161025 
L 341.490794 111.842761 
L 342.326357 111.311272 
L 343.248824 109.939148 
L 344.068855 108.443281 
L 344.992662 107.730199 
L 345.824748 108.603784 
L 346.642667 108.431562 
L 347.569101 108.545938 
L 348.392609 109.235232 
L 349.216169 108.261995 
L 350.968429 109.236273 
L 351.895713 108.548673 
L 352.721411 109.119025 
L 353.551333 109.43656 
L 354.472075 109.547117 
L 355.297103 110.234576 
L 356.240511 110.212179 
L 357.872099 111.977813 
L 358.802525 110.889438 
L 359.62606 111.282237 
L 360.448872 110.322033 
L 361.383549 110.957124 
L 362.333834 111.253369 
L 363.17581 111.722439 
L 363.981804 115.272635 
L 364.777108 115.887606 
L 365.690689 115.206156 
L 366.522234 113.295149 
L 367.451604 112.409468 
L 368.270373 114.421882 
L 369.094422 111.407853 
L 370.042544 111.713708 
L 370.842201 110.915153 
L 372.609298 111.367449 
L 373.417893 111.475545 
L 374.35074 111.782193 
L 376.609541 111.959681 
L 377.769876 111.370776 
L 378.59135 112.45868 
L 379.494602 113.016646 
L 380.328852 114.785312 
L 381.31512 115.768947 
L 398.487273 115.768947 
L 398.487273 115.768947 
" clip-path="url(#p84ab66401b)" style="fill: none; stroke: #008000; stroke-width: 1.5; stroke-linecap: square"/>
   </g>
   <g id="line2d_41">
    <path d="M 73.832727 192.853652 
L 74.659069 192.641865 
L 75.489661 192.549938 
L 76.405148 193.807612 
L 77.229403 191.608795 
L 78.160499 189.533026 
L 78.98205 189.064161 
L 79.950391 189.372098 
L 80.742321 190.68973 
L 81.557329 192.506285 
L 82.382692 191.309642 
L 83.310157 190.202668 
L 84.131167 188.862677 
L 85.064607 187.627536 
L 85.883607 187.45476 
L 86.708687 188.222722 
L 87.645578 188.389252 
L 89.382616 192.930899 
L 90.20579 193.331117 
L 91.96024 193.786904 
L 92.811772 192.91766 
L 94.536987 192.728946 
L 95.36047 193.501629 
L 96.281469 193.659733 
L 97.111469 193.441555 
L 97.93745 192.75147 
L 98.857135 193.050514 
L 99.691487 192.830936 
L 100.515459 192.088765 
L 101.462525 192.274693 
L 102.582266 192.69442 
L 103.33059 193.107443 
L 104.016271 191.566988 
L 104.841634 188.999969 
L 105.768738 188.480845 
L 106.593869 186.953706 
L 108.351745 187.635657 
L 109.25577 186.250791 
L 110.934339 185.553237 
L 111.736521 184.867685 
L 112.657185 185.152149 
L 114.40978 186.950659 
L 116.060274 192.115393 
L 116.984648 190.42711 
L 117.812071 190.728811 
L 118.742189 190.865124 
L 119.565439 191.279553 
L 120.383848 190.283847 
L 121.315768 191.52691 
L 122.137061 190.25591 
L 122.962553 191.21904 
L 123.893752 189.801339 
L 124.714762 190.246323 
L 125.638388 189.678671 
L 126.473745 189.657542 
L 127.286539 190.139795 
L 128.216579 190.148936 
L 129.041246 190.843726 
L 129.86205 191.259294 
L 130.789463 189.684351 
L 131.625515 188.005224 
L 132.54247 185.629691 
L 133.366622 182.731004 
L 135.940588 182.186428 
L 136.867795 182.750022 
L 137.698206 181.990409 
L 138.516048 181.506976 
L 139.443178 186.146112 
L 140.269777 186.755231 
L 141.09514 186.510683 
L 142.019359 188.218362 
L 142.846009 191.793742 
L 143.770975 192.616717 
L 144.594896 192.454613 
L 145.421855 192.989818 
L 146.349268 193.063121 
L 147.171231 193.36948 
L 147.99559 194.224693 
L 148.921766 195.950577 
L 149.746923 195.725668 
L 150.675031 197.379811 
L 151.51201 197.077444 
L 152.323258 196.505437 
L 153.254664 195.554648 
L 154.077296 196.040624 
L 155.001824 197.477076 
L 155.829222 194.769126 
L 156.806475 193.575197 
L 157.583801 194.29875 
L 158.408494 194.098243 
L 159.226645 194.071674 
L 160.153336 194.282955 
L 160.976742 193.037966 
L 161.929371 192.997381 
L 162.727817 192.276857 
L 163.553876 190.832392 
L 164.506788 190.787557 
L 166.28751 192.976869 
L 167.086163 191.619984 
L 167.883219 194.116764 
L 168.81398 194.023247 
L 169.662807 192.690691 
L 170.460739 192.617853 
L 171.387765 192.009619 
L 172.237649 190.389181 
L 173.139253 190.699406 
L 173.993876 190.447439 
L 174.813263 189.98521 
L 175.715486 190.293739 
L 176.565833 191.270756 
L 177.388723 189.976575 
L 178.290379 190.025753 
L 179.116128 191.08915 
L 180.866251 190.895216 
L 181.692489 189.529161 
L 182.61967 186.988912 
L 183.442355 183.640718 
L 184.370952 182.573933 
L 185.200153 183.061248 
L 186.017505 181.604169 
L 186.944145 182.405352 
L 187.773346 189.91993 
L 188.594717 190.054621 
L 190.348085 188.89669 
L 191.271634 190.883935 
L 192.096533 191.558971 
L 192.927923 192.811178 
L 193.849438 195.411455 
L 194.672405 192.597408 
L 195.507298 193.606168 
L 196.424176 192.837509 
L 197.247582 192.457422 
L 198.175252 192.633554 
L 199.003345 193.392887 
L 199.82384 189.419145 
L 200.75084 191.618621 
L 201.575302 191.538867 
L 202.502174 191.239666 
L 203.326352 190.706964 
L 204.149371 190.319881 
L 205.078947 189.467041 
L 205.903228 189.58161 
L 206.729647 190.47216 
L 207.655978 190.931933 
L 208.478997 189.501489 
L 210.230923 186.767414 
L 211.052937 183.420405 
L 211.992662 184.104596 
L 212.809087 182.348546 
L 213.731838 182.150386 
L 215.382177 181.19636 
L 217.13503 181.997598 
L 217.957122 181.936031 
L 218.888321 183.496675 
L 219.710851 186.134101 
L 220.64393 187.108106 
L 221.464888 189.155061 
L 222.291256 189.532737 
L 223.228868 188.902849 
L 224.037309 189.058134 
L 224.963846 190.88654 
L 225.791913 190.047345 
L 226.615138 189.006903 
L 227.537116 190.807853 
L 228.370722 190.087891 
L 229.189027 189.978902 
L 230.113169 190.662463 
L 231.892036 188.417121 
L 232.689556 188.644061 
L 233.621682 189.601551 
L 234.45521 189.853841 
L 235.269755 187.556727 
L 236.095015 183.720404 
L 237.033503 182.260662 
L 237.844906 182.783994 
L 238.769382 183.052411 
L 239.921706 183.505549 
L 240.485196 182.414934 
L 241.354733 181.891221 
L 242.175639 181.947651 
L 242.991266 181.316253 
L 244.000638 181.860897 
L 244.791152 183.067477 
L 245.6849 184.765251 
L 246.519458 188.775992 
L 247.374725 189.572376 
L 248.421934 189.63515 
L 249.114081 189.970526 
L 250.013238 188.696477 
L 250.839683 184.714266 
L 251.644852 186.322695 
L 252.593772 184.700771 
L 253.419238 184.667274 
L 254.225695 185.961098 
L 255.142986 183.73566 
L 255.962038 183.716593 
L 256.894293 184.362836 
L 257.73936 185.607099 
L 258.539661 185.754379 
L 259.468414 183.880103 
L 260.295451 181.821987 
L 261.220185 180.715487 
L 262.046217 178.279386 
L 262.907048 179.755275 
L 263.794382 180.774645 
L 264.643596 178.244909 
L 266.374891 177.197794 
L 267.194947 176.63396 
L 268.12661 177.249984 
L 268.947208 178.253633 
L 269.795675 179.829252 
L 270.697279 183.482309 
L 271.520865 184.754161 
L 273.274851 185.461225 
L 274.099287 185.388331 
L 275.024819 184.45222 
L 275.851882 185.213974 
L 278.425719 185.522583 
L 279.35169 186.00397 
L 280.177284 183.903606 
L 281.001359 182.775484 
L 281.932455 182.704883 
L 282.752538 183.31353 
L 283.575428 183.09531 
L 284.526203 181.819853 
L 285.325783 180.075277 
L 286.252989 177.370504 
L 287.078224 176.567994 
L 287.906548 178.414179 
L 288.831076 178.774256 
L 289.654533 178.893504 
L 290.478634 178.290353 
L 292.231126 177.311881 
L 308.738384 175.597926 
L 323.343526 174.064387 
L 332.837775 173.072097 
L 333.767918 173.099153 
L 334.59395 173.302872 
L 335.410942 173.34679 
L 336.33972 174.335122 
L 337.164516 174.513657 
L 337.987587 173.999317 
L 338.913196 173.670698 
L 339.74402 172.680157 
L 340.676636 172.615489 
L 341.490794 172.84051 
L 343.248824 174.389818 
L 344.068855 177.558977 
L 344.992662 179.193422 
L 346.642667 178.257625 
L 348.392609 178.493764 
L 349.216169 179.387553 
L 350.144689 177.977374 
L 350.968429 177.424133 
L 351.895713 178.277566 
L 352.721411 178.356109 
L 353.551333 178.019708 
L 354.472075 178.095586 
L 355.297103 177.399447 
L 356.240511 176.792413 
L 357.04841 174.296561 
L 357.872099 173.165866 
L 358.802525 172.365322 
L 359.62606 171.866891 
L 360.448872 172.261595 
L 361.383549 171.444624 
L 362.333834 171.344166 
L 363.17581 170.728404 
L 363.981804 168.522939 
L 364.777108 167.869299 
L 365.690689 168.566946 
L 366.522234 171.259022 
L 367.451604 171.541377 
L 368.270373 169.196987 
L 369.094422 170.542328 
L 370.042544 170.656529 
L 370.842201 171.064092 
L 371.665091 171.733263 
L 372.609298 171.529883 
L 373.417893 170.615899 
L 374.35074 170.937289 
L 376.609541 170.825229 
L 377.769876 171.547553 
L 378.59135 170.306242 
L 379.494602 169.287026 
L 380.328852 165.954815 
L 381.31512 164.568407 
L 398.487273 164.568407 
L 398.487273 164.568407 
" clip-path="url(#p84ab66401b)" style="fill: none; stroke: #0000ff; stroke-width: 1.5; stroke-linecap: square"/>
   </g>
   <g id="patch_3">
    <path d="M 57.6 307.584 
L 57.6 41.472 
" style="fill: none; stroke: #000000; stroke-width: 0.8; stroke-linejoin: miter; stroke-linecap: square"/>
   </g>
   <g id="patch_4">
    <path d="M 414.72 307.584 
L 414.72 41.472 
" style="fill: none; stroke: #000000; stroke-width: 0.8; stroke-linejoin: miter; stroke-linecap: square"/>
   </g>
   <g id="patch_5">
    <path d="M 57.6 307.584 
L 414.72 307.584 
" style="fill: none; stroke: #000000; stroke-width: 0.8; stroke-linejoin: miter; stroke-linecap: square"/>
   </g>
   <g id="patch_6">
    <path d="M 57.6 41.472 
L 414.72 41.472 
" style="fill: none; stroke: #000000; stroke-width: 0.8; stroke-linejoin: miter; stroke-linecap: square"/>
   </g>
   <g id="text_22">
    <!-- Angles in Index finger joints -->
    <g transform="translate(152.50875 35.472) scale(0.12 -0.12)">
     <defs>
      <path id="DejaVuSans-41" d="M 2188 4044 
L 1331 1722 
L 3047 1722 
L 2188 4044 
z
M 1831 4666 
L 2547 4666 
L 4325 0 
L 3669 0 
L 3244 1197 
L 1141 1197 
L 716 0 
L 50 0 
L 1831 4666 
z
" transform="scale(0.015625)"/>
      <path id="DejaVuSans-49" d="M 628 4666 
L 1259 4666 
L 1259 0 
L 628 0 
L 628 4666 
z
" transform="scale(0.015625)"/>
      <path id="DejaVuSans-64" d="M 2906 2969 
L 2906 4863 
L 3481 4863 
L 3481 0 
L 2906 0 
L 2906 525 
Q 2725 213 2448 61 
Q 2172 -91 1784 -91 
Q 1150 -91 751 415 
Q 353 922 353 1747 
Q 353 2572 751 3078 
Q 1150 3584 1784 3584 
Q 2172 3584 2448 3432 
Q 2725 3281 2906 2969 
z
M 947 1747 
Q 947 1113 1208 752 
Q 1469 391 1925 391 
Q 2381 391 2643 752 
Q 2906 1113 2906 1747 
Q 2906 2381 2643 2742 
Q 2381 3103 1925 3103 
Q 1469 3103 1208 2742 
Q 947 2381 947 1747 
z
" transform="scale(0.015625)"/>
      <path id="DejaVuSans-78" d="M 3513 3500 
L 2247 1797 
L 3578 0 
L 2900 0 
L 1881 1375 
L 863 0 
L 184 0 
L 1544 1831 
L 300 3500 
L 978 3500 
L 1906 2253 
L 2834 3500 
L 3513 3500 
z
" transform="scale(0.015625)"/>
      <path id="DejaVuSans-66" d="M 2375 4863 
L 2375 4384 
L 1825 4384 
Q 1516 4384 1395 4259 
Q 1275 4134 1275 3809 
L 1275 3500 
L 2222 3500 
L 2222 3053 
L 1275 3053 
L 1275 0 
L 697 0 
L 697 3053 
L 147 3053 
L 147 3500 
L 697 3500 
L 697 3744 
Q 697 4328 969 4595 
Q 1241 4863 1831 4863 
L 2375 4863 
z
" transform="scale(0.015625)"/>
      <path id="DejaVuSans-72" d="M 2631 2963 
Q 2534 3019 2420 3045 
Q 2306 3072 2169 3072 
Q 1681 3072 1420 2755 
Q 1159 2438 1159 1844 
L 1159 0 
L 581 0 
L 581 3500 
L 1159 3500 
L 1159 2956 
Q 1341 3275 1631 3429 
Q 1922 3584 2338 3584 
Q 2397 3584 2469 3576 
Q 2541 3569 2628 3553 
L 2631 2963 
z
" transform="scale(0.015625)"/>
      <path id="DejaVuSans-6a" d="M 603 3500 
L 1178 3500 
L 1178 -63 
Q 1178 -731 923 -1031 
Q 669 -1331 103 -1331 
L -116 -1331 
L -116 -844 
L 38 -844 
Q 366 -844 484 -692 
Q 603 -541 603 -63 
L 603 3500 
z
M 603 4863 
L 1178 4863 
L 1178 4134 
L 603 4134 
L 603 4863 
z
" transform="scale(0.015625)"/>
      <path id="DejaVuSans-6f" d="M 1959 3097 
Q 1497 3097 1228 2736 
Q 959 2375 959 1747 
Q 959 1119 1226 758 
Q 1494 397 1959 397 
Q 2419 397 2687 759 
Q 2956 1122 2956 1747 
Q 2956 2369 2687 2733 
Q 2419 3097 1959 3097 
z
M 1959 3584 
Q 2709 3584 3137 3096 
Q 3566 2609 3566 1747 
Q 3566 888 3137 398 
Q 2709 -91 1959 -91 
Q 1206 -91 779 398 
Q 353 888 353 1747 
Q 353 2609 779 3096 
Q 1206 3584 1959 3584 
z
" transform="scale(0.015625)"/>
     </defs>
     <use xlink:href="#DejaVuSans-41"/>
     <use xlink:href="#DejaVuSans-6e" x="68.408203"/>
     <use xlink:href="#DejaVuSans-67" x="131.787109"/>
     <use xlink:href="#DejaVuSans-6c" x="195.263672"/>
     <use xlink:href="#DejaVuSans-65" x="223.046875"/>
     <use xlink:href="#DejaVuSans-73" x="284.570312"/>
     <use xlink:href="#DejaVuSans-20" x="336.669922"/>
     <use xlink:href="#DejaVuSans-69" x="368.457031"/>
     <use xlink:href="#DejaVuSans-6e" x="396.240234"/>
     <use xlink:href="#DejaVuSans-20" x="459.619141"/>
     <use xlink:href="#DejaVuSans-49" x="491.40625"/>
     <use xlink:href="#DejaVuSans-6e" x="520.898438"/>
     <use xlink:href="#DejaVuSans-64" x="584.277344"/>
     <use xlink:href="#DejaVuSans-65" x="647.753906"/>
     <use xlink:href="#DejaVuSans-78" x="707.527344"/>
     <use xlink:href="#DejaVuSans-20" x="766.707031"/>
     <use xlink:href="#DejaVuSans-66" x="798.494141"/>
     <use xlink:href="#DejaVuSans-69" x="833.699219"/>
     <use xlink:href="#DejaVuSans-6e" x="861.482422"/>
     <use xlink:href="#DejaVuSans-67" x="924.861328"/>
     <use xlink:href="#DejaVuSans-65" x="988.337891"/>
     <use xlink:href="#DejaVuSans-72" x="1049.861328"/>
     <use xlink:href="#DejaVuSans-20" x="1090.974609"/>
     <use xlink:href="#DejaVuSans-6a" x="1122.761719"/>
     <use xlink:href="#DejaVuSans-6f" x="1150.544922"/>
     <use xlink:href="#DejaVuSans-69" x="1211.726562"/>
     <use xlink:href="#DejaVuSans-6e" x="1239.509766"/>
     <use xlink:href="#DejaVuSans-74" x="1302.888672"/>
     <use xlink:href="#DejaVuSans-73" x="1342.097656"/>
    </g>
   </g>
   <g id="legend_1">
    <g id="patch_7">
     <path d="M 305.012188 93.506375 
L 407.72 93.506375 
Q 409.72 93.506375 409.72 91.506375 
L 409.72 48.472 
Q 409.72 46.472 407.72 46.472 
L 305.012188 46.472 
Q 303.012188 46.472 303.012188 48.472 
L 303.012188 91.506375 
Q 303.012188 93.506375 305.012188 93.506375 
z
" style="fill: #ffffff; opacity: 0.8; stroke: #cccccc; stroke-linejoin: miter"/>
    </g>
    <g id="line2d_42">
     <path d="M 307.012188 54.570438 
L 317.012188 54.570438 
L 327.012188 54.570438 
" style="fill: none; stroke: #ff0000; stroke-width: 1.5; stroke-linecap: square"/>
    </g>
    <g id="text_23">
     <!-- alpha (DIP) -->
     <g transform="translate(335.012188 58.070438) scale(0.1 -0.1)">
      <defs>
       <path id="DejaVuSans-70" d="M 1159 525 
L 1159 -1331 
L 581 -1331 
L 581 3500 
L 1159 3500 
L 1159 2969 
Q 1341 3281 1617 3432 
Q 1894 3584 2278 3584 
Q 2916 3584 3314 3078 
Q 3713 2572 3713 1747 
Q 3713 922 3314 415 
Q 2916 -91 2278 -91 
Q 1894 -91 1617 61 
Q 1341 213 1159 525 
z
M 3116 1747 
Q 3116 2381 2855 2742 
Q 2594 3103 2138 3103 
Q 1681 3103 1420 2742 
Q 1159 2381 1159 1747 
Q 1159 1113 1420 752 
Q 1681 391 2138 391 
Q 2594 391 2855 752 
Q 3116 1113 3116 1747 
z
" transform="scale(0.015625)"/>
       <path id="DejaVuSans-68" d="M 3513 2113 
L 3513 0 
L 2938 0 
L 2938 2094 
Q 2938 2591 2744 2837 
Q 2550 3084 2163 3084 
Q 1697 3084 1428 2787 
Q 1159 2491 1159 1978 
L 1159 0 
L 581 0 
L 581 4863 
L 1159 4863 
L 1159 2956 
Q 1366 3272 1645 3428 
Q 1925 3584 2291 3584 
Q 2894 3584 3203 3211 
Q 3513 2838 3513 2113 
z
" transform="scale(0.015625)"/>
       <path id="DejaVuSans-28" d="M 1984 4856 
Q 1566 4138 1362 3434 
Q 1159 2731 1159 2009 
Q 1159 1288 1364 580 
Q 1569 -128 1984 -844 
L 1484 -844 
Q 1016 -109 783 600 
Q 550 1309 550 2009 
Q 550 2706 781 3412 
Q 1013 4119 1484 4856 
L 1984 4856 
z
" transform="scale(0.015625)"/>
       <path id="DejaVuSans-44" d="M 1259 4147 
L 1259 519 
L 2022 519 
Q 2988 519 3436 956 
Q 3884 1394 3884 2338 
Q 3884 3275 3436 3711 
Q 2988 4147 2022 4147 
L 1259 4147 
z
M 628 4666 
L 1925 4666 
Q 3281 4666 3915 4102 
Q 4550 3538 4550 2338 
Q 4550 1131 3912 565 
Q 3275 0 1925 0 
L 628 0 
L 628 4666 
z
" transform="scale(0.015625)"/>
       <path id="DejaVuSans-50" d="M 1259 4147 
L 1259 2394 
L 2053 2394 
Q 2494 2394 2734 2622 
Q 2975 2850 2975 3272 
Q 2975 3691 2734 3919 
Q 2494 4147 2053 4147 
L 1259 4147 
z
M 628 4666 
L 2053 4666 
Q 2838 4666 3239 4311 
Q 3641 3956 3641 3272 
Q 3641 2581 3239 2228 
Q 2838 1875 2053 1875 
L 1259 1875 
L 1259 0 
L 628 0 
L 628 4666 
z
" transform="scale(0.015625)"/>
       <path id="DejaVuSans-29" d="M 513 4856 
L 1013 4856 
Q 1481 4119 1714 3412 
Q 1947 2706 1947 2009 
Q 1947 1309 1714 600 
Q 1481 -109 1013 -844 
L 513 -844 
Q 928 -128 1133 580 
Q 1338 1288 1338 2009 
Q 1338 2731 1133 3434 
Q 928 4138 513 4856 
z
" transform="scale(0.015625)"/>
      </defs>
      <use xlink:href="#DejaVuSans-61"/>
      <use xlink:href="#DejaVuSans-6c" x="61.279297"/>
      <use xlink:href="#DejaVuSans-70" x="89.0625"/>
      <use xlink:href="#DejaVuSans-68" x="152.539062"/>
      <use xlink:href="#DejaVuSans-61" x="215.917969"/>
      <use xlink:href="#DejaVuSans-20" x="277.197266"/>
      <use xlink:href="#DejaVuSans-28" x="308.984375"/>
      <use xlink:href="#DejaVuSans-44" x="347.998047"/>
      <use xlink:href="#DejaVuSans-49" x="425"/>
      <use xlink:href="#DejaVuSans-50" x="454.492188"/>
      <use xlink:href="#DejaVuSans-29" x="514.794922"/>
     </g>
    </g>
    <g id="line2d_43">
     <path d="M 307.012188 69.248563 
L 317.012188 69.248563 
L 327.012188 69.248563 
" style="fill: none; stroke: #008000; stroke-width: 1.5; stroke-linecap: square"/>
    </g>
    <g id="text_24">
     <!-- beta (PIP) -->
     <g transform="translate(335.012188 72.748563) scale(0.1 -0.1)">
      <defs>
       <path id="DejaVuSans-62" d="M 3116 1747 
Q 3116 2381 2855 2742 
Q 2594 3103 2138 3103 
Q 1681 3103 1420 2742 
Q 1159 2381 1159 1747 
Q 1159 1113 1420 752 
Q 1681 391 2138 391 
Q 2594 391 2855 752 
Q 3116 1113 3116 1747 
z
M 1159 2969 
Q 1341 3281 1617 3432 
Q 1894 3584 2278 3584 
Q 2916 3584 3314 3078 
Q 3713 2572 3713 1747 
Q 3713 922 3314 415 
Q 2916 -91 2278 -91 
Q 1894 -91 1617 61 
Q 1341 213 1159 525 
L 1159 0 
L 581 0 
L 581 4863 
L 1159 4863 
L 1159 2969 
z
" transform="scale(0.015625)"/>
      </defs>
      <use xlink:href="#DejaVuSans-62"/>
      <use xlink:href="#DejaVuSans-65" x="63.476562"/>
      <use xlink:href="#DejaVuSans-74" x="125"/>
      <use xlink:href="#DejaVuSans-61" x="164.208984"/>
      <use xlink:href="#DejaVuSans-20" x="225.488281"/>
      <use xlink:href="#DejaVuSans-28" x="257.275391"/>
      <use xlink:href="#DejaVuSans-50" x="296.289062"/>
      <use xlink:href="#DejaVuSans-49" x="356.591797"/>
      <use xlink:href="#DejaVuSans-50" x="386.083984"/>
      <use xlink:href="#DejaVuSans-29" x="446.386719"/>
     </g>
    </g>
    <g id="line2d_44">
     <path d="M 307.012188 83.926688 
L 317.012188 83.926688 
L 327.012188 83.926688 
" style="fill: none; stroke: #0000ff; stroke-width: 1.5; stroke-linecap: square"/>
    </g>
    <g id="text_25">
     <!-- gamma (MCP) -->
     <g transform="translate(335.012188 87.426688) scale(0.1 -0.1)">
      <defs>
       <path id="DejaVuSans-4d" d="M 628 4666 
L 1569 4666 
L 2759 1491 
L 3956 4666 
L 4897 4666 
L 4897 0 
L 4281 0 
L 4281 4097 
L 3078 897 
L 2444 897 
L 1241 4097 
L 1241 0 
L 628 0 
L 628 4666 
z
" transform="scale(0.015625)"/>
       <path id="DejaVuSans-43" d="M 4122 4306 
L 4122 3641 
Q 3803 3938 3442 4084 
Q 3081 4231 2675 4231 
Q 1875 4231 1450 3742 
Q 1025 3253 1025 2328 
Q 1025 1406 1450 917 
Q 1875 428 2675 428 
Q 3081 428 3442 575 
Q 3803 722 4122 1019 
L 4122 359 
Q 3791 134 3420 21 
Q 3050 -91 2638 -91 
Q 1578 -91 968 557 
Q 359 1206 359 2328 
Q 359 3453 968 4101 
Q 1578 4750 2638 4750 
Q 3056 4750 3426 4639 
Q 3797 4528 4122 4306 
z
" transform="scale(0.015625)"/>
      </defs>
      <use xlink:href="#DejaVuSans-67"/>
      <use xlink:href="#DejaVuSans-61" x="63.476562"/>
      <use xlink:href="#DejaVuSans-6d" x="124.755859"/>
      <use xlink:href="#DejaVuSans-6d" x="222.167969"/>
      <use xlink:href="#DejaVuSans-61" x="319.580078"/>
      <use xlink:href="#DejaVuSans-20" x="380.859375"/>
      <use xlink:href="#DejaVuSans-28" x="412.646484"/>
      <use xlink:href="#DejaVuSans-4d" x="451.660156"/>
      <use xlink:href="#DejaVuSans-43" x="537.939453"/>
      <use xlink:href="#DejaVuSans-50" x="607.763672"/>
      <use xlink:href="#DejaVuSans-29" x="668.066406"/>
     </g>
    </g>
   </g>
  </g>
 </g>
 <defs>
  <clipPath id="p84ab66401b">
   <rect x="57.6" y="41.472" width="357.12" height="266.112"/>
  </clipPath>
 </defs>
</svg>
