<?xml version="1.0" encoding="utf-8" standalone="no"?>
<!DOCTYPE svg PUBLIC "-//W3C//DTD SVG 1.1//EN"
  "http://www.w3.org/Graphics/SVG/1.1/DTD/svg11.dtd">
<svg xmlns:xlink="http://www.w3.org/1999/xlink" width="460.8pt" height="345.6pt" viewBox="0 0 460.8 345.6" xmlns="http://www.w3.org/2000/svg" version="1.1">
 <metadata>
  <rdf:RDF xmlns:dc="http://purl.org/dc/elements/1.1/" xmlns:cc="http://creativecommons.org/ns#" xmlns:rdf="http://www.w3.org/1999/02/22-rdf-syntax-ns#">
   <cc:Work>
    <dc:type rdf:resource="http://purl.org/dc/dcmitype/StillImage"/>
    <dc:date>2023-07-24T09:53:30.246714</dc:date>
    <dc:format>image/svg+xml</dc:format>
    <dc:creator>
     <cc:Agent>
      <dc:title>Matplotlib v3.7.1, https://matplotlib.org/</dc:title>
     </cc:Agent>
    </dc:creator>
   </cc:Work>
  </rdf:RDF>
 </metadata>
 <defs>
  <style type="text/css">*{stroke-linejoin: round; stroke-linecap: butt}</style>
 </defs>
 <g id="figure_1">
  <g id="patch_1">
   <path d="M 0 345.6 
L 460.8 345.6 
L 460.8 0 
L 0 0 
z
" style="fill: #ffffff"/>
  </g>
  <g id="axes_1">
   <g id="patch_2">
    <path d="M 57.6 307.584 
L 414.72 307.584 
L 414.72 41.472 
L 57.6 41.472 
z
" style="fill: #ffffff"/>
   </g>
   <g id="matplotlib.axis_1">
    <g id="xtick_1">
     <g id="line2d_1">
      <path d="M 66.672436 307.584 
L 66.672436 41.472 
" clip-path="url(#p30126b9d4b)" style="fill: none; stroke: #b0b0b0; stroke-width: 0.8; stroke-linecap: square"/>
     </g>
     <g id="line2d_2">
      <defs>
       <path id="mee96b97bf1" d="M 0 0 
L 0 3.5 
" style="stroke: #000000; stroke-width: 0.8"/>
      </defs>
      <g>
       <use xlink:href="#mee96b97bf1" x="66.672436" y="307.584" style="stroke: #000000; stroke-width: 0.8"/>
      </g>
     </g>
     <g id="text_1">
      <!-- 30 -->
      <g transform="translate(60.309936 322.182437) scale(0.1 -0.1)">
       <defs>
        <path id="DejaVuSans-33" d="M 2597 2516 
Q 3050 2419 3304 2112 
Q 3559 1806 3559 1356 
Q 3559 666 3084 287 
Q 2609 -91 1734 -91 
Q 1441 -91 1130 -33 
Q 819 25 488 141 
L 488 750 
Q 750 597 1062 519 
Q 1375 441 1716 441 
Q 2309 441 2620 675 
Q 2931 909 2931 1356 
Q 2931 1769 2642 2001 
Q 2353 2234 1838 2234 
L 1294 2234 
L 1294 2753 
L 1863 2753 
Q 2328 2753 2575 2939 
Q 2822 3125 2822 3475 
Q 2822 3834 2567 4026 
Q 2313 4219 1838 4219 
Q 1578 4219 1281 4162 
Q 984 4106 628 3988 
L 628 4550 
Q 988 4650 1302 4700 
Q 1616 4750 1894 4750 
Q 2613 4750 3031 4423 
Q 3450 4097 3450 3541 
Q 3450 3153 3228 2886 
Q 3006 2619 2597 2516 
z
" transform="scale(0.015625)"/>
        <path id="DejaVuSans-30" d="M 2034 4250 
Q 1547 4250 1301 3770 
Q 1056 3291 1056 2328 
Q 1056 1369 1301 889 
Q 1547 409 2034 409 
Q 2525 409 2770 889 
Q 3016 1369 3016 2328 
Q 3016 3291 2770 3770 
Q 2525 4250 2034 4250 
z
M 2034 4750 
Q 2819 4750 3233 4129 
Q 3647 3509 3647 2328 
Q 3647 1150 3233 529 
Q 2819 -91 2034 -91 
Q 1250 -91 836 529 
Q 422 1150 422 2328 
Q 422 3509 836 4129 
Q 1250 4750 2034 4750 
z
" transform="scale(0.015625)"/>
       </defs>
       <use xlink:href="#DejaVuSans-33"/>
       <use xlink:href="#DejaVuSans-30" x="63.623047"/>
      </g>
     </g>
    </g>
    <g id="xtick_2">
     <g id="line2d_3">
      <path d="M 141.272484 307.584 
L 141.272484 41.472 
" clip-path="url(#p30126b9d4b)" style="fill: none; stroke: #b0b0b0; stroke-width: 0.8; stroke-linecap: square"/>
     </g>
     <g id="line2d_4">
      <g>
       <use xlink:href="#mee96b97bf1" x="141.272484" y="307.584" style="stroke: #000000; stroke-width: 0.8"/>
      </g>
     </g>
     <g id="text_2">
      <!-- 35 -->
      <g transform="translate(134.909984 322.182437) scale(0.1 -0.1)">
       <defs>
        <path id="DejaVuSans-35" d="M 691 4666 
L 3169 4666 
L 3169 4134 
L 1269 4134 
L 1269 2991 
Q 1406 3038 1543 3061 
Q 1681 3084 1819 3084 
Q 2600 3084 3056 2656 
Q 3513 2228 3513 1497 
Q 3513 744 3044 326 
Q 2575 -91 1722 -91 
Q 1428 -91 1123 -41 
Q 819 9 494 109 
L 494 744 
Q 775 591 1075 516 
Q 1375 441 1709 441 
Q 2250 441 2565 725 
Q 2881 1009 2881 1497 
Q 2881 1984 2565 2268 
Q 2250 2553 1709 2553 
Q 1456 2553 1204 2497 
Q 953 2441 691 2322 
L 691 4666 
z
" transform="scale(0.015625)"/>
       </defs>
       <use xlink:href="#DejaVuSans-33"/>
       <use xlink:href="#DejaVuSans-35" x="63.623047"/>
      </g>
     </g>
    </g>
    <g id="xtick_3">
     <g id="line2d_5">
      <path d="M 215.872532 307.584 
L 215.872532 41.472 
" clip-path="url(#p30126b9d4b)" style="fill: none; stroke: #b0b0b0; stroke-width: 0.8; stroke-linecap: square"/>
     </g>
     <g id="line2d_6">
      <g>
       <use xlink:href="#mee96b97bf1" x="215.872532" y="307.584" style="stroke: #000000; stroke-width: 0.8"/>
      </g>
     </g>
     <g id="text_3">
      <!-- 40 -->
      <g transform="translate(209.510032 322.182437) scale(0.1 -0.1)">
       <defs>
        <path id="DejaVuSans-34" d="M 2419 4116 
L 825 1625 
L 2419 1625 
L 2419 4116 
z
M 2253 4666 
L 3047 4666 
L 3047 1625 
L 3713 1625 
L 3713 1100 
L 3047 1100 
L 3047 0 
L 2419 0 
L 2419 1100 
L 313 1100 
L 313 1709 
L 2253 4666 
z
" transform="scale(0.015625)"/>
       </defs>
       <use xlink:href="#DejaVuSans-34"/>
       <use xlink:href="#DejaVuSans-30" x="63.623047"/>
      </g>
     </g>
    </g>
    <g id="xtick_4">
     <g id="line2d_7">
      <path d="M 290.47258 307.584 
L 290.47258 41.472 
" clip-path="url(#p30126b9d4b)" style="fill: none; stroke: #b0b0b0; stroke-width: 0.8; stroke-linecap: square"/>
     </g>
     <g id="line2d_8">
      <g>
       <use xlink:href="#mee96b97bf1" x="290.47258" y="307.584" style="stroke: #000000; stroke-width: 0.8"/>
      </g>
     </g>
     <g id="text_4">
      <!-- 45 -->
      <g transform="translate(284.11008 322.182437) scale(0.1 -0.1)">
       <use xlink:href="#DejaVuSans-34"/>
       <use xlink:href="#DejaVuSans-35" x="63.623047"/>
      </g>
     </g>
    </g>
    <g id="xtick_5">
     <g id="line2d_9">
      <path d="M 365.072628 307.584 
L 365.072628 41.472 
" clip-path="url(#p30126b9d4b)" style="fill: none; stroke: #b0b0b0; stroke-width: 0.8; stroke-linecap: square"/>
     </g>
     <g id="line2d_10">
      <g>
       <use xlink:href="#mee96b97bf1" x="365.072628" y="307.584" style="stroke: #000000; stroke-width: 0.8"/>
      </g>
     </g>
     <g id="text_5">
      <!-- 50 -->
      <g transform="translate(358.710128 322.182437) scale(0.1 -0.1)">
       <use xlink:href="#DejaVuSans-35"/>
       <use xlink:href="#DejaVuSans-30" x="63.623047"/>
      </g>
     </g>
    </g>
    <g id="text_6">
     <!-- time [sec] -->
     <g transform="translate(210.942813 335.860562) scale(0.1 -0.1)">
      <defs>
       <path id="DejaVuSans-74" d="M 1172 4494 
L 1172 3500 
L 2356 3500 
L 2356 3053 
L 1172 3053 
L 1172 1153 
Q 1172 725 1289 603 
Q 1406 481 1766 481 
L 2356 481 
L 2356 0 
L 1766 0 
Q 1100 0 847 248 
Q 594 497 594 1153 
L 594 3053 
L 172 3053 
L 172 3500 
L 594 3500 
L 594 4494 
L 1172 4494 
z
" transform="scale(0.015625)"/>
       <path id="DejaVuSans-69" d="M 603 3500 
L 1178 3500 
L 1178 0 
L 603 0 
L 603 3500 
z
M 603 4863 
L 1178 4863 
L 1178 4134 
L 603 4134 
L 603 4863 
z
" transform="scale(0.015625)"/>
       <path id="DejaVuSans-6d" d="M 3328 2828 
Q 3544 3216 3844 3400 
Q 4144 3584 4550 3584 
Q 5097 3584 5394 3201 
Q 5691 2819 5691 2113 
L 5691 0 
L 5113 0 
L 5113 2094 
Q 5113 2597 4934 2840 
Q 4756 3084 4391 3084 
Q 3944 3084 3684 2787 
Q 3425 2491 3425 1978 
L 3425 0 
L 2847 0 
L 2847 2094 
Q 2847 2600 2669 2842 
Q 2491 3084 2119 3084 
Q 1678 3084 1418 2786 
Q 1159 2488 1159 1978 
L 1159 0 
L 581 0 
L 581 3500 
L 1159 3500 
L 1159 2956 
Q 1356 3278 1631 3431 
Q 1906 3584 2284 3584 
Q 2666 3584 2933 3390 
Q 3200 3197 3328 2828 
z
" transform="scale(0.015625)"/>
       <path id="DejaVuSans-65" d="M 3597 1894 
L 3597 1613 
L 953 1613 
Q 991 1019 1311 708 
Q 1631 397 2203 397 
Q 2534 397 2845 478 
Q 3156 559 3463 722 
L 3463 178 
Q 3153 47 2828 -22 
Q 2503 -91 2169 -91 
Q 1331 -91 842 396 
Q 353 884 353 1716 
Q 353 2575 817 3079 
Q 1281 3584 2069 3584 
Q 2775 3584 3186 3129 
Q 3597 2675 3597 1894 
z
M 3022 2063 
Q 3016 2534 2758 2815 
Q 2500 3097 2075 3097 
Q 1594 3097 1305 2825 
Q 1016 2553 972 2059 
L 3022 2063 
z
" transform="scale(0.015625)"/>
       <path id="DejaVuSans-20" transform="scale(0.015625)"/>
       <path id="DejaVuSans-5b" d="M 550 4863 
L 1875 4863 
L 1875 4416 
L 1125 4416 
L 1125 -397 
L 1875 -397 
L 1875 -844 
L 550 -844 
L 550 4863 
z
" transform="scale(0.015625)"/>
       <path id="DejaVuSans-73" d="M 2834 3397 
L 2834 2853 
Q 2591 2978 2328 3040 
Q 2066 3103 1784 3103 
Q 1356 3103 1142 2972 
Q 928 2841 928 2578 
Q 928 2378 1081 2264 
Q 1234 2150 1697 2047 
L 1894 2003 
Q 2506 1872 2764 1633 
Q 3022 1394 3022 966 
Q 3022 478 2636 193 
Q 2250 -91 1575 -91 
Q 1294 -91 989 -36 
Q 684 19 347 128 
L 347 722 
Q 666 556 975 473 
Q 1284 391 1588 391 
Q 1994 391 2212 530 
Q 2431 669 2431 922 
Q 2431 1156 2273 1281 
Q 2116 1406 1581 1522 
L 1381 1569 
Q 847 1681 609 1914 
Q 372 2147 372 2553 
Q 372 3047 722 3315 
Q 1072 3584 1716 3584 
Q 2034 3584 2315 3537 
Q 2597 3491 2834 3397 
z
" transform="scale(0.015625)"/>
       <path id="DejaVuSans-63" d="M 3122 3366 
L 3122 2828 
Q 2878 2963 2633 3030 
Q 2388 3097 2138 3097 
Q 1578 3097 1268 2742 
Q 959 2388 959 1747 
Q 959 1106 1268 751 
Q 1578 397 2138 397 
Q 2388 397 2633 464 
Q 2878 531 3122 666 
L 3122 134 
Q 2881 22 2623 -34 
Q 2366 -91 2075 -91 
Q 1284 -91 818 406 
Q 353 903 353 1747 
Q 353 2603 823 3093 
Q 1294 3584 2113 3584 
Q 2378 3584 2631 3529 
Q 2884 3475 3122 3366 
z
" transform="scale(0.015625)"/>
       <path id="DejaVuSans-5d" d="M 1947 4863 
L 1947 -844 
L 622 -844 
L 622 -397 
L 1369 -397 
L 1369 4416 
L 622 4416 
L 622 4863 
L 1947 4863 
z
" transform="scale(0.015625)"/>
      </defs>
      <use xlink:href="#DejaVuSans-74"/>
      <use xlink:href="#DejaVuSans-69" x="39.208984"/>
      <use xlink:href="#DejaVuSans-6d" x="66.992188"/>
      <use xlink:href="#DejaVuSans-65" x="164.404297"/>
      <use xlink:href="#DejaVuSans-20" x="225.927734"/>
      <use xlink:href="#DejaVuSans-5b" x="257.714844"/>
      <use xlink:href="#DejaVuSans-73" x="296.728516"/>
      <use xlink:href="#DejaVuSans-65" x="348.828125"/>
      <use xlink:href="#DejaVuSans-63" x="410.351562"/>
      <use xlink:href="#DejaVuSans-5d" x="465.332031"/>
     </g>
    </g>
   </g>
   <g id="matplotlib.axis_2">
    <g id="ytick_1">
     <g id="line2d_11">
      <path d="M 57.6 301.876975 
L 414.72 301.876975 
" clip-path="url(#p30126b9d4b)" style="fill: none; stroke: #b0b0b0; stroke-width: 0.8; stroke-linecap: square"/>
     </g>
     <g id="line2d_12">
      <defs>
       <path id="m5c3ccda22c" d="M 0 0 
L -3.5 0 
" style="stroke: #000000; stroke-width: 0.8"/>
      </defs>
      <g>
       <use xlink:href="#m5c3ccda22c" x="57.6" y="301.876975" style="stroke: #000000; stroke-width: 0.8"/>
      </g>
     </g>
     <g id="text_7">
      <!-- 10 -->
      <g transform="translate(37.875 305.676194) scale(0.1 -0.1)">
       <defs>
        <path id="DejaVuSans-31" d="M 794 531 
L 1825 531 
L 1825 4091 
L 703 3866 
L 703 4441 
L 1819 4666 
L 2450 4666 
L 2450 531 
L 3481 531 
L 3481 0 
L 794 0 
L 794 531 
z
" transform="scale(0.015625)"/>
       </defs>
       <use xlink:href="#DejaVuSans-31"/>
       <use xlink:href="#DejaVuSans-30" x="63.623047"/>
      </g>
     </g>
    </g>
    <g id="ytick_2">
     <g id="line2d_13">
      <path d="M 57.6 250.145285 
L 414.72 250.145285 
" clip-path="url(#p30126b9d4b)" style="fill: none; stroke: #b0b0b0; stroke-width: 0.8; stroke-linecap: square"/>
     </g>
     <g id="line2d_14">
      <g>
       <use xlink:href="#m5c3ccda22c" x="57.6" y="250.145285" style="stroke: #000000; stroke-width: 0.8"/>
      </g>
     </g>
     <g id="text_8">
      <!-- 20 -->
      <g transform="translate(37.875 253.944503) scale(0.1 -0.1)">
       <defs>
        <path id="DejaVuSans-32" d="M 1228 531 
L 3431 531 
L 3431 0 
L 469 0 
L 469 531 
Q 828 903 1448 1529 
Q 2069 2156 2228 2338 
Q 2531 2678 2651 2914 
Q 2772 3150 2772 3378 
Q 2772 3750 2511 3984 
Q 2250 4219 1831 4219 
Q 1534 4219 1204 4116 
Q 875 4013 500 3803 
L 500 4441 
Q 881 4594 1212 4672 
Q 1544 4750 1819 4750 
Q 2544 4750 2975 4387 
Q 3406 4025 3406 3419 
Q 3406 3131 3298 2873 
Q 3191 2616 2906 2266 
Q 2828 2175 2409 1742 
Q 1991 1309 1228 531 
z
" transform="scale(0.015625)"/>
       </defs>
       <use xlink:href="#DejaVuSans-32"/>
       <use xlink:href="#DejaVuSans-30" x="63.623047"/>
      </g>
     </g>
    </g>
    <g id="ytick_3">
     <g id="line2d_15">
      <path d="M 57.6 198.413594 
L 414.72 198.413594 
" clip-path="url(#p30126b9d4b)" style="fill: none; stroke: #b0b0b0; stroke-width: 0.8; stroke-linecap: square"/>
     </g>
     <g id="line2d_16">
      <g>
       <use xlink:href="#m5c3ccda22c" x="57.6" y="198.413594" style="stroke: #000000; stroke-width: 0.8"/>
      </g>
     </g>
     <g id="text_9">
      <!-- 30 -->
      <g transform="translate(37.875 202.212813) scale(0.1 -0.1)">
       <use xlink:href="#DejaVuSans-33"/>
       <use xlink:href="#DejaVuSans-30" x="63.623047"/>
      </g>
     </g>
    </g>
    <g id="ytick_4">
     <g id="line2d_17">
      <path d="M 57.6 146.681903 
L 414.72 146.681903 
" clip-path="url(#p30126b9d4b)" style="fill: none; stroke: #b0b0b0; stroke-width: 0.8; stroke-linecap: square"/>
     </g>
     <g id="line2d_18">
      <g>
       <use xlink:href="#m5c3ccda22c" x="57.6" y="146.681903" style="stroke: #000000; stroke-width: 0.8"/>
      </g>
     </g>
     <g id="text_10">
      <!-- 40 -->
      <g transform="translate(37.875 150.481122) scale(0.1 -0.1)">
       <use xlink:href="#DejaVuSans-34"/>
       <use xlink:href="#DejaVuSans-30" x="63.623047"/>
      </g>
     </g>
    </g>
    <g id="ytick_5">
     <g id="line2d_19">
      <path d="M 57.6 94.950213 
L 414.72 94.950213 
" clip-path="url(#p30126b9d4b)" style="fill: none; stroke: #b0b0b0; stroke-width: 0.8; stroke-linecap: square"/>
     </g>
     <g id="line2d_20">
      <g>
       <use xlink:href="#m5c3ccda22c" x="57.6" y="94.950213" style="stroke: #000000; stroke-width: 0.8"/>
      </g>
     </g>
     <g id="text_11">
      <!-- 50 -->
      <g transform="translate(37.875 98.749431) scale(0.1 -0.1)">
       <use xlink:href="#DejaVuSans-35"/>
       <use xlink:href="#DejaVuSans-30" x="63.623047"/>
      </g>
     </g>
    </g>
    <g id="ytick_6">
     <g id="line2d_21">
      <path d="M 57.6 43.218522 
L 414.72 43.218522 
" clip-path="url(#p30126b9d4b)" style="fill: none; stroke: #b0b0b0; stroke-width: 0.8; stroke-linecap: square"/>
     </g>
     <g id="line2d_22">
      <g>
       <use xlink:href="#m5c3ccda22c" x="57.6" y="43.218522" style="stroke: #000000; stroke-width: 0.8"/>
      </g>
     </g>
     <g id="text_12">
      <!-- 60 -->
      <g transform="translate(37.875 47.017741) scale(0.1 -0.1)">
       <defs>
        <path id="DejaVuSans-36" d="M 2113 2584 
Q 1688 2584 1439 2293 
Q 1191 2003 1191 1497 
Q 1191 994 1439 701 
Q 1688 409 2113 409 
Q 2538 409 2786 701 
Q 3034 994 3034 1497 
Q 3034 2003 2786 2293 
Q 2538 2584 2113 2584 
z
M 3366 4563 
L 3366 3988 
Q 3128 4100 2886 4159 
Q 2644 4219 2406 4219 
Q 1781 4219 1451 3797 
Q 1122 3375 1075 2522 
Q 1259 2794 1537 2939 
Q 1816 3084 2150 3084 
Q 2853 3084 3261 2657 
Q 3669 2231 3669 1497 
Q 3669 778 3244 343 
Q 2819 -91 2113 -91 
Q 1303 -91 875 529 
Q 447 1150 447 2328 
Q 447 3434 972 4092 
Q 1497 4750 2381 4750 
Q 2619 4750 2861 4703 
Q 3103 4656 3366 4563 
z
" transform="scale(0.015625)"/>
       </defs>
       <use xlink:href="#DejaVuSans-36"/>
       <use xlink:href="#DejaVuSans-30" x="63.623047"/>
      </g>
     </g>
    </g>
    <g id="text_13">
     <!-- angle [°] -->
     <g transform="translate(31.795312 196.391281) rotate(-90) scale(0.1 -0.1)">
      <defs>
       <path id="DejaVuSans-61" d="M 2194 1759 
Q 1497 1759 1228 1600 
Q 959 1441 959 1056 
Q 959 750 1161 570 
Q 1363 391 1709 391 
Q 2188 391 2477 730 
Q 2766 1069 2766 1631 
L 2766 1759 
L 2194 1759 
z
M 3341 1997 
L 3341 0 
L 2766 0 
L 2766 531 
Q 2569 213 2275 61 
Q 1981 -91 1556 -91 
Q 1019 -91 701 211 
Q 384 513 384 1019 
Q 384 1609 779 1909 
Q 1175 2209 1959 2209 
L 2766 2209 
L 2766 2266 
Q 2766 2663 2505 2880 
Q 2244 3097 1772 3097 
Q 1472 3097 1187 3025 
Q 903 2953 641 2809 
L 641 3341 
Q 956 3463 1253 3523 
Q 1550 3584 1831 3584 
Q 2591 3584 2966 3190 
Q 3341 2797 3341 1997 
z
" transform="scale(0.015625)"/>
       <path id="DejaVuSans-6e" d="M 3513 2113 
L 3513 0 
L 2938 0 
L 2938 2094 
Q 2938 2591 2744 2837 
Q 2550 3084 2163 3084 
Q 1697 3084 1428 2787 
Q 1159 2491 1159 1978 
L 1159 0 
L 581 0 
L 581 3500 
L 1159 3500 
L 1159 2956 
Q 1366 3272 1645 3428 
Q 1925 3584 2291 3584 
Q 2894 3584 3203 3211 
Q 3513 2838 3513 2113 
z
" transform="scale(0.015625)"/>
       <path id="DejaVuSans-67" d="M 2906 1791 
Q 2906 2416 2648 2759 
Q 2391 3103 1925 3103 
Q 1463 3103 1205 2759 
Q 947 2416 947 1791 
Q 947 1169 1205 825 
Q 1463 481 1925 481 
Q 2391 481 2648 825 
Q 2906 1169 2906 1791 
z
M 3481 434 
Q 3481 -459 3084 -895 
Q 2688 -1331 1869 -1331 
Q 1566 -1331 1297 -1286 
Q 1028 -1241 775 -1147 
L 775 -588 
Q 1028 -725 1275 -790 
Q 1522 -856 1778 -856 
Q 2344 -856 2625 -561 
Q 2906 -266 2906 331 
L 2906 616 
Q 2728 306 2450 153 
Q 2172 0 1784 0 
Q 1141 0 747 490 
Q 353 981 353 1791 
Q 353 2603 747 3093 
Q 1141 3584 1784 3584 
Q 2172 3584 2450 3431 
Q 2728 3278 2906 2969 
L 2906 3500 
L 3481 3500 
L 3481 434 
z
" transform="scale(0.015625)"/>
       <path id="DejaVuSans-6c" d="M 603 4863 
L 1178 4863 
L 1178 0 
L 603 0 
L 603 4863 
z
" transform="scale(0.015625)"/>
       <path id="DejaVuSans-b0" d="M 1600 4347 
Q 1350 4347 1178 4173 
Q 1006 4000 1006 3750 
Q 1006 3503 1178 3333 
Q 1350 3163 1600 3163 
Q 1850 3163 2022 3333 
Q 2194 3503 2194 3750 
Q 2194 3997 2020 4172 
Q 1847 4347 1600 4347 
z
M 1600 4750 
Q 1800 4750 1984 4673 
Q 2169 4597 2303 4453 
Q 2447 4313 2519 4134 
Q 2591 3956 2591 3750 
Q 2591 3338 2302 3052 
Q 2013 2766 1594 2766 
Q 1172 2766 890 3047 
Q 609 3328 609 3750 
Q 609 4169 896 4459 
Q 1184 4750 1600 4750 
z
" transform="scale(0.015625)"/>
      </defs>
      <use xlink:href="#DejaVuSans-61"/>
      <use xlink:href="#DejaVuSans-6e" x="61.279297"/>
      <use xlink:href="#DejaVuSans-67" x="124.658203"/>
      <use xlink:href="#DejaVuSans-6c" x="188.134766"/>
      <use xlink:href="#DejaVuSans-65" x="215.917969"/>
      <use xlink:href="#DejaVuSans-20" x="277.441406"/>
      <use xlink:href="#DejaVuSans-5b" x="309.228516"/>
      <use xlink:href="#DejaVuSans-b0" x="348.242188"/>
      <use xlink:href="#DejaVuSans-5d" x="398.242188"/>
     </g>
    </g>
   </g>
   <g id="line2d_23">
    <path d="M 73.832727 72.651636 
L 74.311734 74.109724 
L 74.847736 82.481371 
L 75.325116 76.834617 
L 75.809629 80.562385 
L 76.341005 79.578197 
L 76.816565 88.597229 
L 77.311328 80.648013 
L 77.831543 75.86102 
L 78.318533 86.089727 
L 78.876287 86.675375 
L 79.324141 85.580087 
L 79.80194 86.439128 
L 80.815769 85.535901 
L 81.293493 86.870793 
L 81.830688 85.726239 
L 82.307039 86.024135 
L 83.32242 87.997817 
L 83.803576 85.061962 
L 84.336712 71.246071 
L 84.814406 73.265441 
L 85.365477 84.732157 
L 85.828057 79.880303 
L 86.30596 83.90761 
L 86.846363 75.342288 
L 87.320431 80.397408 
L 87.802675 108.633923 
L 88.352552 106.907282 
L 88.812909 108.858683 
L 89.35 122.589939 
L 89.843196 107.530811 
L 90.304851 128.935321 
L 90.841881 132.816719 
L 91.331989 194.512767 
L 92.334509 216.610524 
L 92.83521 208.373776 
L 93.817528 222.598153 
L 94.30207 230.462611 
L 94.837878 226.591333 
L 95.309261 229.29252 
L 95.845426 233.743788 
L 96.32306 235.498846 
L 96.799769 235.668245 
L 97.3368 235.552971 
L 97.828012 240.43539 
L 98.827682 238.415498 
L 99.842019 207.828712 
L 100.31846 161.214418 
L 100.800525 126.127802 
L 101.33402 53.568 
L 101.811863 89.711906 
L 102.349879 88.526372 
L 102.838524 86.651761 
L 103.301969 83.740697 
L 103.838702 81.420431 
L 104.317589 90.505841 
L 104.79309 87.225466 
L 105.330762 85.107523 
L 105.80871 85.459093 
L 106.345502 84.723245 
L 107.29998 84.821489 
L 108.313989 84.56235 
L 108.792428 85.072266 
L 109.329056 86.391639 
L 109.808615 85.480123 
L 110.361596 85.016146 
L 111.298811 86.197244 
L 111.841124 78.329252 
L 112.313924 67.796476 
L 112.84997 73.302705 
L 113.32923 73.531864 
L 114.35883 81.788567 
L 114.835674 78.695856 
L 115.296807 83.584851 
L 115.850443 84.337958 
L 116.327153 83.908581 
L 116.864094 84.445897 
L 117.333836 102.01744 
L 117.810709 88.316334 
L 118.371582 101.138644 
L 118.824688 96.534817 
L 119.417728 108.730653 
L 120.327834 115.653796 
L 120.86303 122.179929 
L 121.377054 133.439154 
L 121.866236 181.905356 
L 122.356702 178.073241 
L 122.849718 205.308851 
L 123.367279 209.030275 
L 123.835066 223.16759 
L 124.861234 235.623192 
L 125.32732 237.339062 
L 125.816413 224.18119 
L 126.35601 242.782551 
L 126.836047 244.117019 
L 127.369258 241.579707 
L 127.846698 242.695644 
L 128.310919 244.089624 
L 128.860364 244.944667 
L 129.337983 245.947092 
L 129.859557 245.698894 
L 130.340652 246.108599 
L 130.82985 234.833121 
L 131.847126 124.667611 
L 132.321269 102.654629 
L 132.844543 85.727089 
L 133.323207 85.270202 
L 133.858224 85.006539 
L 134.349972 90.157108 
L 134.829516 118.649806 
L 135.350165 114.537181 
L 135.828053 113.490768 
L 136.320637 85.014239 
L 136.856967 93.361037 
L 137.319547 105.500226 
L 137.860606 104.750901 
L 138.33366 112.172467 
L 138.812159 112.591132 
L 139.348683 112.311562 
L 139.826407 114.359368 
L 140.363109 114.040708 
L 140.841937 114.581557 
L 141.320556 108.504666 
L 141.855632 114.693207 
L 142.334221 114.486606 
L 142.811811 107.905099 
L 143.349334 107.435421 
L 143.827819 107.507844 
L 144.377845 106.845655 
L 144.838888 107.664147 
L 145.319029 110.015975 
L 145.868652 108.615876 
L 146.331844 105.10328 
L 146.868621 107.776477 
L 147.354849 93.652487 
L 147.823935 115.24868 
L 148.359996 95.249849 
L 148.853147 108.711823 
L 149.315309 99.167669 
L 149.852235 112.939185 
L 150.345222 95.589964 
L 150.866647 108.989729 
L 152.374373 132.754227 
L 152.836401 150.203741 
L 153.316751 160.993507 
L 153.850887 166.459333 
L 154.331685 173.102711 
L 155.344589 194.517487 
L 155.820985 130.978539 
L 156.375651 220.149706 
L 156.834949 230.038907 
L 157.389779 217.821076 
L 157.852001 238.687842 
L 158.328263 244.110484 
L 158.86598 246.510152 
L 159.34715 241.237084 
L 159.819025 223.321614 
L 160.388955 226.064945 
L 160.835332 227.399187 
L 161.386238 228.02585 
L 161.860486 232.603584 
L 162.325483 188.904115 
L 162.878597 173.629348 
L 163.352695 138.117918 
L 164.370986 92.421847 
L 164.832492 84.914915 
L 165.370343 84.572578 
L 166.322926 83.604898 
L 166.861822 83.505286 
L 167.353317 84.177254 
L 167.906118 83.664426 
L 168.35351 83.504401 
L 168.846571 82.36776 
L 169.368861 80.461606 
L 169.862027 80.501796 
L 170.861235 79.554047 
L 171.337691 79.468168 
L 171.874498 83.050279 
L 172.3544 81.757092 
L 172.843672 82.113437 
L 173.36629 81.935763 
L 173.844297 81.916816 
L 174.380955 82.136735 
L 174.859275 83.719775 
L 175.33591 82.183911 
L 175.873075 83.485971 
L 176.351873 81.172539 
L 176.828359 81.846257 
L 177.381548 81.921469 
L 178.39396 81.0556 
L 178.857599 82.334498 
L 179.364969 82.877625 
L 179.885603 86.393331 
L 180.363655 94.864177 
L 180.826593 87.40932 
L 181.378514 94.794198 
L 182.379975 116.413992 
L 182.871768 118.01585 
L 183.33487 132.560698 
L 183.870051 142.765196 
L 184.352803 164.513994 
L 184.898517 169.904902 
L 185.361142 176.521036 
L 185.857262 178.364844 
L 186.377254 184.342756 
L 186.854113 186.635523 
L 187.874313 198.775691 
L 189.360943 211.806488 
L 189.839472 217.002481 
L 190.374847 205.933713 
L 190.853884 219.60991 
L 191.329653 223.931158 
L 191.869549 213.53984 
L 192.345497 218.79922 
L 192.883199 214.52421 
L 193.359849 218.967379 
L 193.837364 154.830703 
L 194.373499 154.823434 
L 194.851133 106.688967 
L 195.420511 88.710652 
L 195.865038 85.686282 
L 196.343567 85.944623 
L 196.906753 84.594289 
L 197.358232 85.079021 
L 197.86511 84.662874 
L 198.392338 83.86848 
L 198.853978 83.503114 
L 199.394485 83.445615 
L 199.875671 82.433866 
L 200.35238 81.852815 
L 202.378457 82.562573 
L 202.853406 82.833749 
L 203.408356 82.016411 
L 203.870115 81.904812 
L 204.369637 81.968824 
L 204.902431 81.36268 
L 205.362713 81.527224 
L 205.900012 81.959447 
L 206.376587 83.659325 
L 206.855535 82.354654 
L 207.395415 83.120875 
L 207.883284 82.757927 
L 208.345432 83.006398 
L 208.88385 83.046643 
L 209.391608 80.213543 
L 209.896307 81.83194 
L 210.373061 82.076202 
L 210.875224 83.703702 
L 211.389666 86.028534 
L 211.865435 81.245812 
L 212.880175 97.586563 
L 213.416877 112.328553 
L 213.899674 113.125815 
L 214.371668 122.048706 
L 215.391794 160.627412 
L 215.865505 190.229671 
L 216.404087 136.289736 
L 216.880155 205.163755 
L 217.355655 208.418822 
L 217.894506 214.026385 
L 218.849432 233.077563 
L 219.38688 230.403662 
L 219.868334 233.665861 
L 220.400516 235.586191 
L 220.878971 241.932244 
L 221.359709 243.467092 
L 221.891726 239.214661 
L 222.37133 239.938692 
L 223.384085 245.350263 
L 223.863137 248.056049 
L 224.400406 264.883681 
L 224.877548 203.633746 
L 226.368147 94.251187 
L 226.906088 85.602688 
L 227.390675 85.264161 
L 227.891361 85.830585 
L 228.398178 85.966069 
L 228.882646 86.534759 
L 229.412903 83.989334 
L 229.892089 79.272488 
L 230.368187 83.456621 
L 230.910201 83.161275 
L 231.38688 82.342876 
L 231.861888 82.396856 
L 232.398457 82.224545 
L 232.872644 82.429005 
L 233.411391 81.901747 
L 233.889219 80.95661 
L 234.365988 82.654049 
L 235.395096 82.430242 
L 235.856676 82.075395 
L 236.39872 82.279646 
L 236.874713 81.397197 
L 237.409983 81.455457 
L 237.887185 81.933215 
L 238.364357 82.574417 
L 238.90179 83.60663 
L 239.377724 84.053581 
L 239.95844 80.828728 
L 240.393493 83.141186 
L 240.869337 83.637361 
L 241.452903 82.212604 
L 241.884569 84.220258 
L 242.361562 73.110393 
L 242.904158 81.660982 
L 243.376794 83.13657 
L 243.921389 100.194274 
L 244.416286 110.124303 
L 244.868392 116.75934 
L 245.409451 143.699498 
L 245.882609 127.210956 
L 246.360303 143.548992 
L 246.913851 183.270831 
L 247.381981 182.464972 
L 247.915267 209.43422 
L 249.407029 245.873233 
L 249.89651 233.454899 
L 250.419038 237.652898 
L 250.90085 233.309938 
L 251.374038 243.039042 
L 251.911233 245.55201 
L 252.404265 241.782947 
L 252.866621 243.635491 
L 253.401996 244.640511 
L 254.417123 235.431887 
L 254.8944 239.194581 
L 255.373302 240.021264 
L 255.909632 237.006961 
L 256.386982 168.427111 
L 256.924461 146.085991 
L 257.40126 110.849381 
L 257.885235 90.517969 
L 258.417999 83.515345 
L 258.893649 83.651165 
L 259.371283 83.217945 
L 259.9117 83.316554 
L 260.387141 82.825331 
L 260.921949 82.726987 
L 263.369905 81.356248 
L 263.906011 81.320706 
L 264.387703 80.990361 
L 264.926898 81.165311 
L 265.39825 81.773676 
L 265.884568 86.497678 
L 266.415571 88.216097 
L 266.891147 88.540858 
L 267.429073 88.165152 
L 268.384103 89.711723 
L 268.919388 88.987854 
L 269.400543 87.43059 
L 269.874253 90.446385 
L 270.413597 82.163359 
L 270.897721 82.075888 
L 271.426561 81.733045 
L 271.903703 80.80472 
L 272.384605 80.899972 
L 272.927022 81.608547 
L 273.395749 83.07037 
L 273.934794 87.045732 
L 274.410205 88.391085 
L 274.887541 89.159051 
L 275.424288 101.026182 
L 275.902713 118.53167 
L 276.499394 117.689329 
L 276.920138 143.949142 
L 277.394058 140.922952 
L 277.929477 153.832873 
L 278.441383 198.74587 
L 279.431803 223.974694 
L 280.048208 206.668786 
L 280.392771 209.719556 
L 280.925445 219.128246 
L 281.392769 202.331081 
L 281.937439 196.365483 
L 282.407807 206.306718 
L 282.886785 206.013971 
L 283.432633 206.937586 
L 283.899391 221.369601 
L 284.441226 226.920335 
L 284.913623 227.600687 
L 285.391048 211.243319 
L 285.940179 210.212461 
L 286.882378 250.676418 
L 287.421513 215.66741 
L 287.897983 159.02138 
L 288.913618 105.194933 
L 289.400204 88.053932 
L 289.940547 85.760461 
L 290.416287 85.978406 
L 291.41824 83.460375 
L 291.900872 83.876171 
L 292.433114 83.791126 
L 293.396872 82.904181 
L 293.927666 82.137879 
L 294.457521 81.676839 
L 295.452775 81.840935 
L 295.911744 79.650659 
L 296.430587 80.338012 
L 296.908386 81.651489 
L 297.389123 81.617052 
L 297.924095 82.861782 
L 298.4017 82.855195 
L 299.895909 82.587463 
L 300.436222 83.536222 
L 300.930999 83.610132 
L 301.924478 84.409912 
L 302.424 84.23861 
L 302.937771 82.16004 
L 303.420105 81.653716 
L 303.891383 82.188397 
L 304.42998 86.054972 
L 304.911673 85.055352 
L 305.443019 87.849601 
L 305.922981 88.357634 
L 306.403689 95.590731 
L 306.934886 110.863954 
L 307.894362 119.916307 
L 308.425992 126.972607 
L 308.906132 148.651208 
L 309.443805 162.421243 
L 309.918664 181.803817 
L 310.398402 215.655176 
L 310.941371 224.805253 
L 311.411023 230.780949 
L 311.949546 222.693459 
L 312.425121 224.380725 
L 313.439935 195.802053 
L 313.916958 237.546387 
L 314.39413 217.266385 
L 314.931489 207.062426 
L 315.409899 207.698251 
L 315.953912 221.28452 
L 316.423594 222.089373 
L 316.901348 203.418538 
L 317.439572 208.45055 
L 317.91567 209.356597 
L 318.452283 225.922553 
L 318.930723 203.694179 
L 319.408715 145.777159 
L 319.94509 108.748291 
L 320.424305 90.359488 
L 320.899537 85.711002 
L 321.916232 85.349079 
L 322.452218 85.838485 
L 322.928987 86.046488 
L 323.414335 86.132275 
L 323.943115 85.957485 
L 324.421301 98.956102 
L 324.902337 97.111323 
L 325.436056 83.373993 
L 325.912332 83.138459 
L 326.453586 82.508685 
L 326.927833 82.736387 
L 327.404975 82.704085 
L 327.943423 82.310206 
L 328.421251 82.384876 
L 328.957969 82.993553 
L 329.435111 83.182362 
L 329.911387 83.15233 
L 330.44903 82.922112 
L 331.984911 83.046904 
L 332.457562 82.561039 
L 332.970482 84.658565 
L 333.436762 83.811656 
L 333.911323 84.563316 
L 334.954739 82.767602 
L 335.405457 83.607895 
L 335.953857 85.554495 
L 336.417645 82.99994 
L 336.975147 88.266312 
L 337.445739 90.261144 
L 337.909035 103.69722 
L 338.445424 113.509656 
L 339.460895 125.822746 
L 339.936366 139.012375 
L 340.952254 203.99618 
L 341.428889 226.068711 
L 341.921682 194.441666 
L 342.444464 206.305775 
L 342.921919 206.958658 
L 343.460875 220.063937 
L 343.936435 214.397492 
L 345.42866 217.550759 
L 345.905041 197.857147 
L 346.444698 205.410147 
L 346.981743 205.543603 
L 347.457975 212.541275 
L 347.938862 210.603217 
L 348.41299 200.249671 
L 349.023994 200.531901 
L 349.474235 201.634605 
L 349.98632 182.648636 
L 350.921715 111.312677 
L 351.458149 103.678099 
L 351.932695 86.588935 
L 352.416029 84.446214 
L 352.952269 80.884017 
L 353.425233 97.528814 
L 353.962309 95.778209 
L 354.917309 95.763677 
L 355.481494 95.805972 
L 355.933093 96.031429 
L 356.947668 95.482197 
L 357.551377 95.00262 
L 358.066952 95.154723 
L 358.440982 94.72632 
L 359.051703 94.913621 
L 359.461899 94.702466 
L 360.474923 94.922662 
L 360.95014 95.114659 
L 361.427998 94.574694 
L 361.969266 81.914124 
L 362.442081 81.891964 
L 363.936574 80.734643 
L 364.469621 81.732735 
L 364.950239 102.126738 
L 365.425218 103.484728 
L 365.961338 112.263118 
L 366.442374 92.425293 
L 366.977734 92.054735 
L 367.454503 85.638432 
L 367.935062 85.264456 
L 368.946937 94.22376 
L 369.426048 111.177459 
L 369.968913 112.24267 
L 370.438028 125.969506 
L 370.976043 130.356309 
L 371.453379 151.939889 
L 371.929775 181.410961 
L 372.469656 175.271698 
L 372.94911 215.423854 
L 373.423522 132.444013 
L 373.962179 194.985643 
L 374.445691 206.564119 
L 374.973681 207.59046 
L 375.48769 210.306221 
L 375.952269 210.937114 
L 376.466502 211.930357 
L 376.96689 222.368102 
L 377.486285 227.580512 
L 377.958265 223.978489 
L 378.436615 200.953277 
L 378.979972 200.378517 
L 379.449997 201.430016 
L 379.928213 201.982122 
L 380.467676 218.020636 
L 380.942326 195.457581 
L 381.958438 126.427576 
L 382.434163 94.814877 
L 382.970985 94.077454 
L 383.450126 82.380046 
L 383.985665 75.62858 
L 384.462867 74.781689 
L 385.477606 73.355586 
L 385.956359 82.817159 
L 386.434993 83.073438 
L 386.996031 76.087734 
L 387.449166 81.871132 
L 387.983646 83.134952 
L 388.464861 83.137796 
L 388.938153 82.196386 
L 389.476273 83.918583 
L 389.956369 82.189158 
L 390.430557 82.272827 
L 390.968617 95.0063 
L 391.44931 92.963847 
L 391.982969 74.661999 
L 392.459813 92.622875 
L 392.940714 92.654058 
L 393.475149 92.919265 
L 393.952649 80.225386 
L 394.491978 87.780676 
L 394.966777 81.70155 
L 395.444098 81.055561 
L 395.986455 86.076358 
L 396.458271 81.069343 
L 396.940739 85.289085 
L 397.474786 77.272008 
L 397.950376 85.04114 
L 398.487273 87.381516 
L 398.487273 87.381516 
" clip-path="url(#p30126b9d4b)" style="fill: none; stroke: #1f77b4; stroke-width: 1.5; stroke-linecap: square"/>
   </g>
   <g id="line2d_24">
    <path d="M 73.832727 216.351013 
L 74.311734 215.04194 
L 74.847736 210.919797 
L 75.325116 213.044233 
L 75.809629 211.886084 
L 76.341005 212.956624 
L 76.816565 202.057636 
L 77.311328 210.026138 
L 77.831543 214.65928 
L 78.318533 209.500851 
L 78.876287 207.26349 
L 79.324141 207.966762 
L 79.80194 206.802481 
L 80.341059 207.45712 
L 80.815769 208.256028 
L 81.293493 207.13332 
L 81.830688 208.155325 
L 82.307039 207.578548 
L 82.844264 206.437017 
L 83.32242 204.746864 
L 83.803576 206.535605 
L 84.336712 215.723453 
L 84.814406 213.175611 
L 85.365477 208.035222 
L 85.828057 213.539504 
L 86.30596 215.377781 
L 86.846363 224.014268 
L 87.320431 224.514888 
L 87.802675 211.478185 
L 88.352552 211.971635 
L 88.812909 209.113699 
L 89.35 232.208256 
L 89.843196 261.277758 
L 90.304851 265.877902 
L 91.331989 256.530411 
L 91.856114 262.502626 
L 92.334509 263.289873 
L 92.83521 186.778463 
L 93.34425 200.094776 
L 95.309261 216.916226 
L 96.32306 225.326951 
L 98.289577 242.148401 
L 99.842019 254.764489 
L 100.31846 258.969851 
L 100.800525 239.63798 
L 101.33402 240.905431 
L 101.811863 212.679824 
L 102.349879 214.444508 
L 102.838524 212.311648 
L 103.301969 214.61569 
L 103.838702 212.345461 
L 104.317589 200.550645 
L 105.330762 202.378199 
L 105.80871 201.752582 
L 106.345502 201.7022 
L 106.82245 201.273499 
L 107.29998 201.175272 
L 108.313989 201.726616 
L 108.792428 201.293113 
L 109.329056 199.927772 
L 109.808615 201.656462 
L 110.361596 202.123869 
L 110.821803 201.860167 
L 111.298811 201.379302 
L 111.841124 206.058732 
L 112.313924 220.480117 
L 112.84997 214.073394 
L 113.32923 214.142852 
L 113.804806 212.028348 
L 114.35883 205.142602 
L 114.835674 206.656595 
L 115.296807 203.989942 
L 115.850443 203.698129 
L 116.327153 204.163811 
L 116.864094 206.32916 
L 117.333836 180.658213 
L 117.810709 209.86283 
L 118.371582 191.832938 
L 118.824688 213.261498 
L 119.417728 220.645522 
L 119.863374 231.296972 
L 120.327834 235.104795 
L 120.86303 247.662876 
L 121.377054 256.72495 
L 121.866236 238.963954 
L 122.356702 257.819204 
L 122.849718 252.009174 
L 123.367279 259.77736 
L 123.835066 256.875848 
L 124.34154 259.059623 
L 124.861234 258.691955 
L 125.32732 261.261134 
L 125.816413 214.399017 
L 126.35601 262.118839 
L 126.836047 261.567959 
L 131.352871 263.357547 
L 131.847126 252.407293 
L 132.321269 220.420308 
L 133.323207 212.66622 
L 133.858224 211.689778 
L 134.349972 203.928768 
L 136.320637 202.454452 
L 136.856967 198.74026 
L 138.812159 196.540844 
L 140.841937 194.341427 
L 143.827819 191.042303 
L 144.838888 189.942595 
L 147.354849 187.193324 
L 148.359996 190.523009 
L 149.315309 195.791252 
L 149.852235 180.366782 
L 150.345222 216.703803 
L 150.866647 224.888502 
L 151.344669 225.65092 
L 152.374373 241.59641 
L 152.836401 246.151203 
L 153.316751 247.681035 
L 153.850887 242.442265 
L 154.331685 252.221681 
L 154.87167 248.384977 
L 155.344589 249.606454 
L 155.820985 267.684869 
L 156.375651 252.557206 
L 156.834949 254.780131 
L 157.389779 270.992041 
L 157.852001 258.497706 
L 158.328263 257.3431 
L 158.86598 257.776438 
L 159.34715 263.124684 
L 160.835332 267.921512 
L 161.860486 271.119397 
L 162.325483 271.018754 
L 162.878597 250.114478 
L 163.352695 244.781315 
L 163.817499 226.773206 
L 164.832492 208.198897 
L 165.370343 206.417816 
L 165.861838 206.19218 
L 166.322926 205.747099 
L 166.861822 205.384766 
L 167.353317 204.461546 
L 167.906118 204.532661 
L 168.35351 203.716149 
L 169.368861 204.914784 
L 169.862027 204.641154 
L 170.336722 204.527297 
L 171.337691 204.721465 
L 171.874498 202.067028 
L 172.3544 202.94988 
L 172.843672 202.506327 
L 173.36629 202.616871 
L 173.844297 202.925607 
L 174.380955 202.743411 
L 174.859275 202.037672 
L 175.33591 203.631351 
L 175.873075 202.812928 
L 176.351873 204.470164 
L 176.828359 204.212718 
L 177.381548 203.00768 
L 177.844844 204.161615 
L 178.39396 204.737231 
L 178.857599 205.029929 
L 179.364969 206.336671 
L 179.885603 206.837567 
L 180.363655 190.263079 
L 180.826593 215.403669 
L 181.378514 221.470789 
L 181.840124 223.931085 
L 182.379975 222.662583 
L 183.33487 234.600342 
L 183.870051 249.376422 
L 184.352803 243.792877 
L 184.898517 250.116285 
L 185.361142 249.911818 
L 185.857262 251.047572 
L 186.377254 250.021853 
L 186.854113 252.194364 
L 187.345891 250.663605 
L 187.874313 250.423911 
L 188.34874 251.52186 
L 188.883189 251.71149 
L 189.360943 251.716603 
L 189.839472 250.697042 
L 190.374847 261.255318 
L 190.853884 257.575326 
L 191.329653 257.794559 
L 191.869549 261.479629 
L 192.345497 260.061584 
L 192.883199 260.906158 
L 193.359849 261.356891 
L 193.837364 262.887959 
L 194.851133 222.806944 
L 195.420511 216.857154 
L 195.865038 214.303974 
L 196.343567 210.57478 
L 196.906753 209.556905 
L 197.358232 208.023813 
L 197.86511 205.745258 
L 198.392338 206.09605 
L 198.853978 206.146416 
L 199.394485 205.148774 
L 199.875671 204.655086 
L 200.35238 205.177573 
L 201.913983 203.004447 
L 202.853406 202.865676 
L 203.408356 203.349205 
L 203.870115 203.178869 
L 204.369637 203.316022 
L 204.902431 204.132269 
L 205.362713 204.463315 
L 205.900012 204.317951 
L 206.376587 203.436411 
L 206.855535 203.66968 
L 207.395415 204.369605 
L 207.883284 204.746636 
L 208.88385 204.279678 
L 209.391608 205.456792 
L 209.896307 205.217842 
L 210.373061 206.12123 
L 210.875224 207.34953 
L 211.389666 209.144295 
L 211.865435 215.752481 
L 212.40551 214.956085 
L 212.880175 222.666434 
L 213.416877 227.55099 
L 213.899674 228.110308 
L 214.371668 233.428173 
L 215.391794 251.938248 
L 215.865505 250.459306 
L 216.404087 262.086179 
L 218.375647 268.174785 
L 218.849432 269.7395 
L 220.878971 269.631585 
L 221.359709 269.364566 
L 222.913359 262.590404 
L 223.384085 262.260317 
L 223.863137 284.123106 
L 224.400406 258.791895 
L 224.877548 259.961961 
L 225.355675 237.632303 
L 225.895242 234.348657 
L 226.368147 220.721105 
L 226.906088 211.564466 
L 227.390675 209.399231 
L 227.891361 209.008916 
L 228.398178 208.05807 
L 228.882646 205.670287 
L 229.412903 208.300678 
L 229.892089 213.120858 
L 230.368187 205.426673 
L 230.910201 205.053839 
L 231.38688 205.830556 
L 231.861888 205.322818 
L 232.398457 205.387655 
L 232.872644 205.122797 
L 233.889219 205.999638 
L 234.365988 205.328161 
L 235.856676 205.909821 
L 236.39872 205.594667 
L 236.874713 206.635005 
L 237.409983 206.57267 
L 237.887185 205.631548 
L 238.364357 205.104257 
L 239.377724 204.865664 
L 239.95844 206.7938 
L 240.393493 204.9565 
L 240.869337 205.17262 
L 241.452903 205.993208 
L 241.884569 206.316174 
L 242.361562 216.722114 
L 242.904158 214.967308 
L 243.376794 219.342701 
L 243.921389 219.148073 
L 244.416286 216.374351 
L 244.868392 223.194769 
L 245.409451 196.096548 
L 245.882609 235.506351 
L 246.360303 249.579017 
L 246.913851 247.712014 
L 247.381981 257.747416 
L 247.915267 260.995716 
L 248.39032 261.992798 
L 249.407029 247.870684 
L 249.89651 272.371577 
L 250.419038 272.30475 
L 250.90085 277.159507 
L 251.374038 270.171831 
L 251.911233 268.698725 
L 252.404265 272.532003 
L 252.866621 263.687952 
L 253.401996 269.953466 
L 253.882584 273.641547 
L 254.417123 276.673781 
L 254.8944 274.641727 
L 255.373302 274.259614 
L 255.909632 276.125252 
L 256.386982 275.164591 
L 257.40126 231.100367 
L 257.885235 216.991642 
L 258.417999 210.299752 
L 258.893649 209.226218 
L 260.387141 206.655123 
L 261.878038 206.081256 
L 262.414592 205.672994 
L 262.895971 205.517685 
L 263.906011 205.429919 
L 264.387703 205.919617 
L 265.39825 205.140615 
L 265.884568 196.220101 
L 266.415571 195.175758 
L 266.891147 194.742542 
L 267.429073 195.149189 
L 267.905036 194.029175 
L 268.384103 193.701996 
L 268.919388 194.686764 
L 269.400543 196.022198 
L 269.874253 192.446206 
L 270.413597 204.766419 
L 270.897721 202.924289 
L 271.426561 204.784606 
L 271.903703 205.278158 
L 272.927022 206.804133 
L 273.395749 208.522303 
L 273.934794 208.903313 
L 274.410205 212.059073 
L 274.887541 217.367002 
L 275.424288 221.58632 
L 275.902713 220.493165 
L 276.499394 225.629245 
L 276.920138 200.670141 
L 277.394058 242.271063 
L 277.929477 258.800545 
L 278.441383 246.207065 
L 278.886491 242.776573 
L 279.431803 244.61065 
L 280.048208 270.064808 
L 280.392771 270.6492 
L 280.925445 274.086789 
L 281.392769 275.048671 
L 281.937439 277.843617 
L 282.407807 276.254271 
L 282.886785 277.272472 
L 283.432633 277.595988 
L 283.899391 279.028529 
L 284.441226 277.602448 
L 284.913623 274.661431 
L 285.391048 279.161401 
L 285.940179 279.374762 
L 286.408131 275.914193 
L 286.882378 262.749472 
L 287.421513 276.248878 
L 287.897983 257.209159 
L 288.435253 246.36632 
L 288.913618 221.248773 
L 289.400204 211.114321 
L 289.940547 209.726805 
L 290.416287 207.154291 
L 290.881881 207.325107 
L 291.41824 207.922449 
L 291.900872 207.007333 
L 292.433114 206.332743 
L 292.940529 206.496953 
L 293.396872 206.037959 
L 294.457521 206.581652 
L 295.452775 206.223427 
L 295.911744 207.892886 
L 296.430587 207.162886 
L 296.908386 206.862848 
L 297.389123 206.877657 
L 297.924095 206.164147 
L 299.417648 206.925675 
L 299.895909 206.809006 
L 300.436222 205.593284 
L 300.930999 206.010246 
L 301.44665 205.632378 
L 302.424 205.314271 
L 302.937771 205.263355 
L 303.420105 206.222294 
L 303.891383 206.760544 
L 304.42998 205.797103 
L 304.911673 209.042642 
L 305.443019 211.254039 
L 305.922981 214.504279 
L 306.403689 219.623622 
L 306.934886 216.392802 
L 307.414698 224.591192 
L 307.894362 227.375279 
L 308.906132 246.06679 
L 309.443805 259.847356 
L 310.398402 244.463496 
L 310.941371 244.110496 
L 311.949546 260.259386 
L 312.425121 261.158617 
L 312.902427 280.281751 
L 313.439935 277.229876 
L 313.916958 265.567117 
L 314.39413 267.3491 
L 314.931489 259.937219 
L 315.409899 276.242065 
L 316.423594 269.179381 
L 316.901348 272.816118 
L 317.439572 262.11976 
L 317.91567 263.704303 
L 318.452283 277.59623 
L 318.930723 245.760882 
L 319.408715 247.565301 
L 320.424305 212.951448 
L 320.899537 209.934457 
L 321.436091 208.089997 
L 321.916232 207.84739 
L 322.928987 205.8299 
L 323.414335 205.76112 
L 323.943115 205.255181 
L 324.421301 185.965879 
L 324.902337 186.87075 
L 325.436056 206.44609 
L 325.912332 206.199386 
L 326.453586 206.503256 
L 326.927833 206.255744 
L 327.943423 206.656502 
L 328.421251 206.34696 
L 328.957969 205.40719 
L 329.435111 205.223813 
L 330.44903 205.822945 
L 330.927619 205.82259 
L 332.457562 206.504933 
L 332.970482 205.043834 
L 333.436762 205.62504 
L 333.911323 204.153124 
L 335.405457 207.840274 
L 335.953857 207.846593 
L 336.417645 215.84331 
L 336.975147 214.07555 
L 337.445739 216.085217 
L 337.909035 223.82014 
L 338.445424 225.111404 
L 338.924252 224.875243 
L 339.936366 249.332606 
L 340.423489 244.226254 
L 340.952254 249.053006 
L 341.428889 242.467095 
L 341.921682 276.55418 
L 342.444464 274.591865 
L 342.921919 277.563234 
L 343.460875 270.005974 
L 343.936435 277.589453 
L 344.413129 278.532368 
L 344.951757 278.705644 
L 345.42866 277.90417 
L 345.905041 279.622681 
L 346.444698 287.94334 
L 346.981743 288.237952 
L 347.938862 282.864903 
L 348.41299 295.488 
L 349.474235 295.221025 
L 349.98632 289.491811 
L 350.921715 229.684088 
L 351.458149 205.348918 
L 351.932695 206.266516 
L 352.416029 203.463835 
L 352.952269 203.857976 
L 353.425233 182.183344 
L 353.962309 182.752407 
L 354.917309 182.569085 
L 355.481494 182.423382 
L 355.933093 182.116859 
L 356.469064 182.328434 
L 356.947668 182.332442 
L 357.551377 182.725315 
L 359.051703 182.440139 
L 359.461899 182.715147 
L 360.95014 182.582634 
L 361.427998 183.554826 
L 361.969266 202.378307 
L 362.442081 201.922705 
L 363.458358 202.693004 
L 363.936574 202.839326 
L 364.469621 202.052299 
L 364.950239 171.931845 
L 365.425218 171.227196 
L 365.961338 152.059719 
L 366.442374 188.797467 
L 366.977734 182.962249 
L 367.454503 204.20435 
L 367.935062 213.502161 
L 368.470571 212.969434 
L 368.946937 216.925427 
L 369.426048 225.489752 
L 369.968913 229.704802 
L 370.438028 225.168028 
L 370.976043 244.896178 
L 371.453379 240.063479 
L 372.469656 274.953573 
L 372.94911 252.89789 
L 373.423522 278.307371 
L 373.962179 277.40394 
L 374.445691 273.920253 
L 374.973681 275.012025 
L 375.48769 274.265514 
L 375.952269 274.730426 
L 376.466502 274.958907 
L 376.96689 257.598546 
L 377.486285 253.588601 
L 377.958265 258.3071 
L 378.436615 259.690102 
L 379.449997 261.166691 
L 379.928213 261.447076 
L 380.467676 276.652288 
L 380.942326 283.438201 
L 381.479357 271.819857 
L 381.958438 258.093047 
L 382.434163 239.430124 
L 382.970985 202.523034 
L 383.450126 215.666561 
L 383.985665 218.789973 
L 384.462867 217.698655 
L 384.964865 217.308345 
L 385.477606 217.507497 
L 385.956359 202.730432 
L 386.434993 202.544202 
L 386.996031 212.226385 
L 387.449166 203.322637 
L 387.983646 202.171308 
L 388.464861 202.560171 
L 388.938153 202.238035 
L 389.476273 200.89734 
L 389.956369 201.977081 
L 390.430557 201.741548 
L 390.968617 183.104798 
L 391.44931 187.800349 
L 391.982969 215.742168 
L 392.459813 186.339363 
L 392.940714 186.724755 
L 393.475149 186.289252 
L 393.952649 204.680434 
L 394.491978 198.56584 
L 394.966777 202.602641 
L 395.444098 203.872999 
L 395.986455 196.743355 
L 396.458271 204.100214 
L 396.940739 199.554111 
L 397.474786 214.057482 
L 397.950376 206.228186 
L 398.487273 205.881485 
L 398.487273 205.881485 
" clip-path="url(#p30126b9d4b)" style="fill: none; stroke: #ff7f0e; stroke-width: 1.5; stroke-linecap: square"/>
   </g>
   <g id="patch_3">
    <path d="M 57.6 307.584 
L 57.6 41.472 
" style="fill: none; stroke: #000000; stroke-width: 0.8; stroke-linejoin: miter; stroke-linecap: square"/>
   </g>
   <g id="patch_4">
    <path d="M 414.72 307.584 
L 414.72 41.472 
" style="fill: none; stroke: #000000; stroke-width: 0.8; stroke-linejoin: miter; stroke-linecap: square"/>
   </g>
   <g id="patch_5">
    <path d="M 57.6 307.584 
L 414.72 307.584 
" style="fill: none; stroke: #000000; stroke-width: 0.8; stroke-linejoin: miter; stroke-linecap: square"/>
   </g>
   <g id="patch_6">
    <path d="M 57.6 41.472 
L 414.72 41.472 
" style="fill: none; stroke: #000000; stroke-width: 0.8; stroke-linejoin: miter; stroke-linecap: square"/>
   </g>
   <g id="text_14">
    <!-- Angles in Thumb joints -->
    <g transform="translate(167.56125 35.472) scale(0.12 -0.12)">
     <defs>
      <path id="DejaVuSans-41" d="M 2188 4044 
L 1331 1722 
L 3047 1722 
L 2188 4044 
z
M 1831 4666 
L 2547 4666 
L 4325 0 
L 3669 0 
L 3244 1197 
L 1141 1197 
L 716 0 
L 50 0 
L 1831 4666 
z
" transform="scale(0.015625)"/>
      <path id="DejaVuSans-54" d="M -19 4666 
L 3928 4666 
L 3928 4134 
L 2272 4134 
L 2272 0 
L 1638 0 
L 1638 4134 
L -19 4134 
L -19 4666 
z
" transform="scale(0.015625)"/>
      <path id="DejaVuSans-68" d="M 3513 2113 
L 3513 0 
L 2938 0 
L 2938 2094 
Q 2938 2591 2744 2837 
Q 2550 3084 2163 3084 
Q 1697 3084 1428 2787 
Q 1159 2491 1159 1978 
L 1159 0 
L 581 0 
L 581 4863 
L 1159 4863 
L 1159 2956 
Q 1366 3272 1645 3428 
Q 1925 3584 2291 3584 
Q 2894 3584 3203 3211 
Q 3513 2838 3513 2113 
z
" transform="scale(0.015625)"/>
      <path id="DejaVuSans-75" d="M 544 1381 
L 544 3500 
L 1119 3500 
L 1119 1403 
Q 1119 906 1312 657 
Q 1506 409 1894 409 
Q 2359 409 2629 706 
Q 2900 1003 2900 1516 
L 2900 3500 
L 3475 3500 
L 3475 0 
L 2900 0 
L 2900 538 
Q 2691 219 2414 64 
Q 2138 -91 1772 -91 
Q 1169 -91 856 284 
Q 544 659 544 1381 
z
M 1991 3584 
L 1991 3584 
z
" transform="scale(0.015625)"/>
      <path id="DejaVuSans-62" d="M 3116 1747 
Q 3116 2381 2855 2742 
Q 2594 3103 2138 3103 
Q 1681 3103 1420 2742 
Q 1159 2381 1159 1747 
Q 1159 1113 1420 752 
Q 1681 391 2138 391 
Q 2594 391 2855 752 
Q 3116 1113 3116 1747 
z
M 1159 2969 
Q 1341 3281 1617 3432 
Q 1894 3584 2278 3584 
Q 2916 3584 3314 3078 
Q 3713 2572 3713 1747 
Q 3713 922 3314 415 
Q 2916 -91 2278 -91 
Q 1894 -91 1617 61 
Q 1341 213 1159 525 
L 1159 0 
L 581 0 
L 581 4863 
L 1159 4863 
L 1159 2969 
z
" transform="scale(0.015625)"/>
      <path id="DejaVuSans-6a" d="M 603 3500 
L 1178 3500 
L 1178 -63 
Q 1178 -731 923 -1031 
Q 669 -1331 103 -1331 
L -116 -1331 
L -116 -844 
L 38 -844 
Q 366 -844 484 -692 
Q 603 -541 603 -63 
L 603 3500 
z
M 603 4863 
L 1178 4863 
L 1178 4134 
L 603 4134 
L 603 4863 
z
" transform="scale(0.015625)"/>
      <path id="DejaVuSans-6f" d="M 1959 3097 
Q 1497 3097 1228 2736 
Q 959 2375 959 1747 
Q 959 1119 1226 758 
Q 1494 397 1959 397 
Q 2419 397 2687 759 
Q 2956 1122 2956 1747 
Q 2956 2369 2687 2733 
Q 2419 3097 1959 3097 
z
M 1959 3584 
Q 2709 3584 3137 3096 
Q 3566 2609 3566 1747 
Q 3566 888 3137 398 
Q 2709 -91 1959 -91 
Q 1206 -91 779 398 
Q 353 888 353 1747 
Q 353 2609 779 3096 
Q 1206 3584 1959 3584 
z
" transform="scale(0.015625)"/>
     </defs>
     <use xlink:href="#DejaVuSans-41"/>
     <use xlink:href="#DejaVuSans-6e" x="68.408203"/>
     <use xlink:href="#DejaVuSans-67" x="131.787109"/>
     <use xlink:href="#DejaVuSans-6c" x="195.263672"/>
     <use xlink:href="#DejaVuSans-65" x="223.046875"/>
     <use xlink:href="#DejaVuSans-73" x="284.570312"/>
     <use xlink:href="#DejaVuSans-20" x="336.669922"/>
     <use xlink:href="#DejaVuSans-69" x="368.457031"/>
     <use xlink:href="#DejaVuSans-6e" x="396.240234"/>
     <use xlink:href="#DejaVuSans-20" x="459.619141"/>
     <use xlink:href="#DejaVuSans-54" x="491.40625"/>
     <use xlink:href="#DejaVuSans-68" x="552.490234"/>
     <use xlink:href="#DejaVuSans-75" x="615.869141"/>
     <use xlink:href="#DejaVuSans-6d" x="679.248047"/>
     <use xlink:href="#DejaVuSans-62" x="776.660156"/>
     <use xlink:href="#DejaVuSans-20" x="840.136719"/>
     <use xlink:href="#DejaVuSans-6a" x="871.923828"/>
     <use xlink:href="#DejaVuSans-6f" x="899.707031"/>
     <use xlink:href="#DejaVuSans-69" x="960.888672"/>
     <use xlink:href="#DejaVuSans-6e" x="988.671875"/>
     <use xlink:href="#DejaVuSans-74" x="1052.050781"/>
     <use xlink:href="#DejaVuSans-73" x="1091.259766"/>
    </g>
   </g>
   <g id="legend_1">
    <g id="patch_7">
     <path d="M 314.005938 78.82825 
L 407.72 78.82825 
Q 409.72 78.82825 409.72 76.82825 
L 409.72 48.472 
Q 409.72 46.472 407.72 46.472 
L 314.005938 46.472 
Q 312.005938 46.472 312.005938 48.472 
L 312.005938 76.82825 
Q 312.005938 78.82825 314.005938 78.82825 
z
" style="fill: #ffffff; opacity: 0.8; stroke: #cccccc; stroke-linejoin: miter"/>
    </g>
    <g id="line2d_25">
     <path d="M 316.005938 54.570437 
L 326.005938 54.570437 
L 336.005938 54.570437 
" style="fill: none; stroke: #1f77b4; stroke-width: 1.5; stroke-linecap: square"/>
    </g>
    <g id="text_15">
     <!-- delta (DIP) -->
     <g transform="translate(344.005938 58.070437) scale(0.1 -0.1)">
      <defs>
       <path id="DejaVuSans-64" d="M 2906 2969 
L 2906 4863 
L 3481 4863 
L 3481 0 
L 2906 0 
L 2906 525 
Q 2725 213 2448 61 
Q 2172 -91 1784 -91 
Q 1150 -91 751 415 
Q 353 922 353 1747 
Q 353 2572 751 3078 
Q 1150 3584 1784 3584 
Q 2172 3584 2448 3432 
Q 2725 3281 2906 2969 
z
M 947 1747 
Q 947 1113 1208 752 
Q 1469 391 1925 391 
Q 2381 391 2643 752 
Q 2906 1113 2906 1747 
Q 2906 2381 2643 2742 
Q 2381 3103 1925 3103 
Q 1469 3103 1208 2742 
Q 947 2381 947 1747 
z
" transform="scale(0.015625)"/>
       <path id="DejaVuSans-28" d="M 1984 4856 
Q 1566 4138 1362 3434 
Q 1159 2731 1159 2009 
Q 1159 1288 1364 580 
Q 1569 -128 1984 -844 
L 1484 -844 
Q 1016 -109 783 600 
Q 550 1309 550 2009 
Q 550 2706 781 3412 
Q 1013 4119 1484 4856 
L 1984 4856 
z
" transform="scale(0.015625)"/>
       <path id="DejaVuSans-44" d="M 1259 4147 
L 1259 519 
L 2022 519 
Q 2988 519 3436 956 
Q 3884 1394 3884 2338 
Q 3884 3275 3436 3711 
Q 2988 4147 2022 4147 
L 1259 4147 
z
M 628 4666 
L 1925 4666 
Q 3281 4666 3915 4102 
Q 4550 3538 4550 2338 
Q 4550 1131 3912 565 
Q 3275 0 1925 0 
L 628 0 
L 628 4666 
z
" transform="scale(0.015625)"/>
       <path id="DejaVuSans-49" d="M 628 4666 
L 1259 4666 
L 1259 0 
L 628 0 
L 628 4666 
z
" transform="scale(0.015625)"/>
       <path id="DejaVuSans-50" d="M 1259 4147 
L 1259 2394 
L 2053 2394 
Q 2494 2394 2734 2622 
Q 2975 2850 2975 3272 
Q 2975 3691 2734 3919 
Q 2494 4147 2053 4147 
L 1259 4147 
z
M 628 4666 
L 2053 4666 
Q 2838 4666 3239 4311 
Q 3641 3956 3641 3272 
Q 3641 2581 3239 2228 
Q 2838 1875 2053 1875 
L 1259 1875 
L 1259 0 
L 628 0 
L 628 4666 
z
" transform="scale(0.015625)"/>
       <path id="DejaVuSans-29" d="M 513 4856 
L 1013 4856 
Q 1481 4119 1714 3412 
Q 1947 2706 1947 2009 
Q 1947 1309 1714 600 
Q 1481 -109 1013 -844 
L 513 -844 
Q 928 -128 1133 580 
Q 1338 1288 1338 2009 
Q 1338 2731 1133 3434 
Q 928 4138 513 4856 
z
" transform="scale(0.015625)"/>
      </defs>
      <use xlink:href="#DejaVuSans-64"/>
      <use xlink:href="#DejaVuSans-65" x="63.476562"/>
      <use xlink:href="#DejaVuSans-6c" x="125"/>
      <use xlink:href="#DejaVuSans-74" x="152.783203"/>
      <use xlink:href="#DejaVuSans-61" x="191.992188"/>
      <use xlink:href="#DejaVuSans-20" x="253.271484"/>
      <use xlink:href="#DejaVuSans-28" x="285.058594"/>
      <use xlink:href="#DejaVuSans-44" x="324.072266"/>
      <use xlink:href="#DejaVuSans-49" x="401.074219"/>
      <use xlink:href="#DejaVuSans-50" x="430.566406"/>
      <use xlink:href="#DejaVuSans-29" x="490.869141"/>
     </g>
    </g>
    <g id="line2d_26">
     <path d="M 316.005938 69.248562 
L 326.005938 69.248562 
L 336.005938 69.248562 
" style="fill: none; stroke: #ff7f0e; stroke-width: 1.5; stroke-linecap: square"/>
    </g>
    <g id="text_16">
     <!-- epsilon (PIP) -->
     <g transform="translate(344.005938 72.748562) scale(0.1 -0.1)">
      <defs>
       <path id="DejaVuSans-70" d="M 1159 525 
L 1159 -1331 
L 581 -1331 
L 581 3500 
L 1159 3500 
L 1159 2969 
Q 1341 3281 1617 3432 
Q 1894 3584 2278 3584 
Q 2916 3584 3314 3078 
Q 3713 2572 3713 1747 
Q 3713 922 3314 415 
Q 2916 -91 2278 -91 
Q 1894 -91 1617 61 
Q 1341 213 1159 525 
z
M 3116 1747 
Q 3116 2381 2855 2742 
Q 2594 3103 2138 3103 
Q 1681 3103 1420 2742 
Q 1159 2381 1159 1747 
Q 1159 1113 1420 752 
Q 1681 391 2138 391 
Q 2594 391 2855 752 
Q 3116 1113 3116 1747 
z
" transform="scale(0.015625)"/>
      </defs>
      <use xlink:href="#DejaVuSans-65"/>
      <use xlink:href="#DejaVuSans-70" x="61.523438"/>
      <use xlink:href="#DejaVuSans-73" x="125"/>
      <use xlink:href="#DejaVuSans-69" x="177.099609"/>
      <use xlink:href="#DejaVuSans-6c" x="204.882812"/>
      <use xlink:href="#DejaVuSans-6f" x="232.666016"/>
      <use xlink:href="#DejaVuSans-6e" x="293.847656"/>
      <use xlink:href="#DejaVuSans-20" x="357.226562"/>
      <use xlink:href="#DejaVuSans-28" x="389.013672"/>
      <use xlink:href="#DejaVuSans-50" x="428.027344"/>
      <use xlink:href="#DejaVuSans-49" x="488.330078"/>
      <use xlink:href="#DejaVuSans-50" x="517.822266"/>
      <use xlink:href="#DejaVuSans-29" x="578.125"/>
     </g>
    </g>
   </g>
  </g>
 </g>
 <defs>
  <clipPath id="p30126b9d4b">
   <rect x="57.6" y="41.472" width="357.12" height="266.112"/>
  </clipPath>
 </defs>
</svg>
