<?xml version="1.0" encoding="utf-8" standalone="no"?>
<!DOCTYPE svg PUBLIC "-//W3C//DTD SVG 1.1//EN"
  "http://www.w3.org/Graphics/SVG/1.1/DTD/svg11.dtd">
<svg xmlns:xlink="http://www.w3.org/1999/xlink" width="460.8pt" height="345.6pt" viewBox="0 0 460.8 345.6" xmlns="http://www.w3.org/2000/svg" version="1.1">
 <metadata>
  <rdf:RDF xmlns:dc="http://purl.org/dc/elements/1.1/" xmlns:cc="http://creativecommons.org/ns#" xmlns:rdf="http://www.w3.org/1999/02/22-rdf-syntax-ns#">
   <cc:Work>
    <dc:type rdf:resource="http://purl.org/dc/dcmitype/StillImage"/>
    <dc:date>2023-07-24T09:53:30.392715</dc:date>
    <dc:format>image/svg+xml</dc:format>
    <dc:creator>
     <cc:Agent>
      <dc:title>Matplotlib v3.7.1, https://matplotlib.org/</dc:title>
     </cc:Agent>
    </dc:creator>
   </cc:Work>
  </rdf:RDF>
 </metadata>
 <defs>
  <style type="text/css">*{stroke-linejoin: round; stroke-linecap: butt}</style>
 </defs>
 <g id="figure_1">
  <g id="patch_1">
   <path d="M 0 345.6 
L 460.8 345.6 
L 460.8 0 
L 0 0 
z
" style="fill: #ffffff"/>
  </g>
  <g id="axes_1">
   <g id="patch_2">
    <path d="M 57.6 307.584 
L 414.72 307.584 
L 414.72 41.472 
L 57.6 41.472 
z
" style="fill: #ffffff"/>
   </g>
   <g id="matplotlib.axis_1">
    <g id="xtick_1">
     <g id="line2d_1">
      <path d="M 66.672436 307.584 
L 66.672436 41.472 
" clip-path="url(#p2ecf21eaec)" style="fill: none; stroke: #b0b0b0; stroke-width: 0.8; stroke-linecap: square"/>
     </g>
     <g id="line2d_2">
      <defs>
       <path id="m22f701e687" d="M 0 0 
L 0 3.5 
" style="stroke: #000000; stroke-width: 0.8"/>
      </defs>
      <g>
       <use xlink:href="#m22f701e687" x="66.672436" y="307.584" style="stroke: #000000; stroke-width: 0.8"/>
      </g>
     </g>
     <g id="text_1">
      <!-- 30 -->
      <g transform="translate(60.309936 322.182437) scale(0.1 -0.1)">
       <defs>
        <path id="DejaVuSans-33" d="M 2597 2516 
Q 3050 2419 3304 2112 
Q 3559 1806 3559 1356 
Q 3559 666 3084 287 
Q 2609 -91 1734 -91 
Q 1441 -91 1130 -33 
Q 819 25 488 141 
L 488 750 
Q 750 597 1062 519 
Q 1375 441 1716 441 
Q 2309 441 2620 675 
Q 2931 909 2931 1356 
Q 2931 1769 2642 2001 
Q 2353 2234 1838 2234 
L 1294 2234 
L 1294 2753 
L 1863 2753 
Q 2328 2753 2575 2939 
Q 2822 3125 2822 3475 
Q 2822 3834 2567 4026 
Q 2313 4219 1838 4219 
Q 1578 4219 1281 4162 
Q 984 4106 628 3988 
L 628 4550 
Q 988 4650 1302 4700 
Q 1616 4750 1894 4750 
Q 2613 4750 3031 4423 
Q 3450 4097 3450 3541 
Q 3450 3153 3228 2886 
Q 3006 2619 2597 2516 
z
" transform="scale(0.015625)"/>
        <path id="DejaVuSans-30" d="M 2034 4250 
Q 1547 4250 1301 3770 
Q 1056 3291 1056 2328 
Q 1056 1369 1301 889 
Q 1547 409 2034 409 
Q 2525 409 2770 889 
Q 3016 1369 3016 2328 
Q 3016 3291 2770 3770 
Q 2525 4250 2034 4250 
z
M 2034 4750 
Q 2819 4750 3233 4129 
Q 3647 3509 3647 2328 
Q 3647 1150 3233 529 
Q 2819 -91 2034 -91 
Q 1250 -91 836 529 
Q 422 1150 422 2328 
Q 422 3509 836 4129 
Q 1250 4750 2034 4750 
z
" transform="scale(0.015625)"/>
       </defs>
       <use xlink:href="#DejaVuSans-33"/>
       <use xlink:href="#DejaVuSans-30" x="63.623047"/>
      </g>
     </g>
    </g>
    <g id="xtick_2">
     <g id="line2d_3">
      <path d="M 141.272484 307.584 
L 141.272484 41.472 
" clip-path="url(#p2ecf21eaec)" style="fill: none; stroke: #b0b0b0; stroke-width: 0.8; stroke-linecap: square"/>
     </g>
     <g id="line2d_4">
      <g>
       <use xlink:href="#m22f701e687" x="141.272484" y="307.584" style="stroke: #000000; stroke-width: 0.8"/>
      </g>
     </g>
     <g id="text_2">
      <!-- 35 -->
      <g transform="translate(134.909984 322.182437) scale(0.1 -0.1)">
       <defs>
        <path id="DejaVuSans-35" d="M 691 4666 
L 3169 4666 
L 3169 4134 
L 1269 4134 
L 1269 2991 
Q 1406 3038 1543 3061 
Q 1681 3084 1819 3084 
Q 2600 3084 3056 2656 
Q 3513 2228 3513 1497 
Q 3513 744 3044 326 
Q 2575 -91 1722 -91 
Q 1428 -91 1123 -41 
Q 819 9 494 109 
L 494 744 
Q 775 591 1075 516 
Q 1375 441 1709 441 
Q 2250 441 2565 725 
Q 2881 1009 2881 1497 
Q 2881 1984 2565 2268 
Q 2250 2553 1709 2553 
Q 1456 2553 1204 2497 
Q 953 2441 691 2322 
L 691 4666 
z
" transform="scale(0.015625)"/>
       </defs>
       <use xlink:href="#DejaVuSans-33"/>
       <use xlink:href="#DejaVuSans-35" x="63.623047"/>
      </g>
     </g>
    </g>
    <g id="xtick_3">
     <g id="line2d_5">
      <path d="M 215.872532 307.584 
L 215.872532 41.472 
" clip-path="url(#p2ecf21eaec)" style="fill: none; stroke: #b0b0b0; stroke-width: 0.8; stroke-linecap: square"/>
     </g>
     <g id="line2d_6">
      <g>
       <use xlink:href="#m22f701e687" x="215.872532" y="307.584" style="stroke: #000000; stroke-width: 0.8"/>
      </g>
     </g>
     <g id="text_3">
      <!-- 40 -->
      <g transform="translate(209.510032 322.182437) scale(0.1 -0.1)">
       <defs>
        <path id="DejaVuSans-34" d="M 2419 4116 
L 825 1625 
L 2419 1625 
L 2419 4116 
z
M 2253 4666 
L 3047 4666 
L 3047 1625 
L 3713 1625 
L 3713 1100 
L 3047 1100 
L 3047 0 
L 2419 0 
L 2419 1100 
L 313 1100 
L 313 1709 
L 2253 4666 
z
" transform="scale(0.015625)"/>
       </defs>
       <use xlink:href="#DejaVuSans-34"/>
       <use xlink:href="#DejaVuSans-30" x="63.623047"/>
      </g>
     </g>
    </g>
    <g id="xtick_4">
     <g id="line2d_7">
      <path d="M 290.47258 307.584 
L 290.47258 41.472 
" clip-path="url(#p2ecf21eaec)" style="fill: none; stroke: #b0b0b0; stroke-width: 0.8; stroke-linecap: square"/>
     </g>
     <g id="line2d_8">
      <g>
       <use xlink:href="#m22f701e687" x="290.47258" y="307.584" style="stroke: #000000; stroke-width: 0.8"/>
      </g>
     </g>
     <g id="text_4">
      <!-- 45 -->
      <g transform="translate(284.11008 322.182437) scale(0.1 -0.1)">
       <use xlink:href="#DejaVuSans-34"/>
       <use xlink:href="#DejaVuSans-35" x="63.623047"/>
      </g>
     </g>
    </g>
    <g id="xtick_5">
     <g id="line2d_9">
      <path d="M 365.072628 307.584 
L 365.072628 41.472 
" clip-path="url(#p2ecf21eaec)" style="fill: none; stroke: #b0b0b0; stroke-width: 0.8; stroke-linecap: square"/>
     </g>
     <g id="line2d_10">
      <g>
       <use xlink:href="#m22f701e687" x="365.072628" y="307.584" style="stroke: #000000; stroke-width: 0.8"/>
      </g>
     </g>
     <g id="text_5">
      <!-- 50 -->
      <g transform="translate(358.710128 322.182437) scale(0.1 -0.1)">
       <use xlink:href="#DejaVuSans-35"/>
       <use xlink:href="#DejaVuSans-30" x="63.623047"/>
      </g>
     </g>
    </g>
    <g id="text_6">
     <!-- time [sec] -->
     <g transform="translate(210.942813 335.860562) scale(0.1 -0.1)">
      <defs>
       <path id="DejaVuSans-74" d="M 1172 4494 
L 1172 3500 
L 2356 3500 
L 2356 3053 
L 1172 3053 
L 1172 1153 
Q 1172 725 1289 603 
Q 1406 481 1766 481 
L 2356 481 
L 2356 0 
L 1766 0 
Q 1100 0 847 248 
Q 594 497 594 1153 
L 594 3053 
L 172 3053 
L 172 3500 
L 594 3500 
L 594 4494 
L 1172 4494 
z
" transform="scale(0.015625)"/>
       <path id="DejaVuSans-69" d="M 603 3500 
L 1178 3500 
L 1178 0 
L 603 0 
L 603 3500 
z
M 603 4863 
L 1178 4863 
L 1178 4134 
L 603 4134 
L 603 4863 
z
" transform="scale(0.015625)"/>
       <path id="DejaVuSans-6d" d="M 3328 2828 
Q 3544 3216 3844 3400 
Q 4144 3584 4550 3584 
Q 5097 3584 5394 3201 
Q 5691 2819 5691 2113 
L 5691 0 
L 5113 0 
L 5113 2094 
Q 5113 2597 4934 2840 
Q 4756 3084 4391 3084 
Q 3944 3084 3684 2787 
Q 3425 2491 3425 1978 
L 3425 0 
L 2847 0 
L 2847 2094 
Q 2847 2600 2669 2842 
Q 2491 3084 2119 3084 
Q 1678 3084 1418 2786 
Q 1159 2488 1159 1978 
L 1159 0 
L 581 0 
L 581 3500 
L 1159 3500 
L 1159 2956 
Q 1356 3278 1631 3431 
Q 1906 3584 2284 3584 
Q 2666 3584 2933 3390 
Q 3200 3197 3328 2828 
z
" transform="scale(0.015625)"/>
       <path id="DejaVuSans-65" d="M 3597 1894 
L 3597 1613 
L 953 1613 
Q 991 1019 1311 708 
Q 1631 397 2203 397 
Q 2534 397 2845 478 
Q 3156 559 3463 722 
L 3463 178 
Q 3153 47 2828 -22 
Q 2503 -91 2169 -91 
Q 1331 -91 842 396 
Q 353 884 353 1716 
Q 353 2575 817 3079 
Q 1281 3584 2069 3584 
Q 2775 3584 3186 3129 
Q 3597 2675 3597 1894 
z
M 3022 2063 
Q 3016 2534 2758 2815 
Q 2500 3097 2075 3097 
Q 1594 3097 1305 2825 
Q 1016 2553 972 2059 
L 3022 2063 
z
" transform="scale(0.015625)"/>
       <path id="DejaVuSans-20" transform="scale(0.015625)"/>
       <path id="DejaVuSans-5b" d="M 550 4863 
L 1875 4863 
L 1875 4416 
L 1125 4416 
L 1125 -397 
L 1875 -397 
L 1875 -844 
L 550 -844 
L 550 4863 
z
" transform="scale(0.015625)"/>
       <path id="DejaVuSans-73" d="M 2834 3397 
L 2834 2853 
Q 2591 2978 2328 3040 
Q 2066 3103 1784 3103 
Q 1356 3103 1142 2972 
Q 928 2841 928 2578 
Q 928 2378 1081 2264 
Q 1234 2150 1697 2047 
L 1894 2003 
Q 2506 1872 2764 1633 
Q 3022 1394 3022 966 
Q 3022 478 2636 193 
Q 2250 -91 1575 -91 
Q 1294 -91 989 -36 
Q 684 19 347 128 
L 347 722 
Q 666 556 975 473 
Q 1284 391 1588 391 
Q 1994 391 2212 530 
Q 2431 669 2431 922 
Q 2431 1156 2273 1281 
Q 2116 1406 1581 1522 
L 1381 1569 
Q 847 1681 609 1914 
Q 372 2147 372 2553 
Q 372 3047 722 3315 
Q 1072 3584 1716 3584 
Q 2034 3584 2315 3537 
Q 2597 3491 2834 3397 
z
" transform="scale(0.015625)"/>
       <path id="DejaVuSans-63" d="M 3122 3366 
L 3122 2828 
Q 2878 2963 2633 3030 
Q 2388 3097 2138 3097 
Q 1578 3097 1268 2742 
Q 959 2388 959 1747 
Q 959 1106 1268 751 
Q 1578 397 2138 397 
Q 2388 397 2633 464 
Q 2878 531 3122 666 
L 3122 134 
Q 2881 22 2623 -34 
Q 2366 -91 2075 -91 
Q 1284 -91 818 406 
Q 353 903 353 1747 
Q 353 2603 823 3093 
Q 1294 3584 2113 3584 
Q 2378 3584 2631 3529 
Q 2884 3475 3122 3366 
z
" transform="scale(0.015625)"/>
       <path id="DejaVuSans-5d" d="M 1947 4863 
L 1947 -844 
L 622 -844 
L 622 -397 
L 1369 -397 
L 1369 4416 
L 622 4416 
L 622 4863 
L 1947 4863 
z
" transform="scale(0.015625)"/>
      </defs>
      <use xlink:href="#DejaVuSans-74"/>
      <use xlink:href="#DejaVuSans-69" x="39.208984"/>
      <use xlink:href="#DejaVuSans-6d" x="66.992188"/>
      <use xlink:href="#DejaVuSans-65" x="164.404297"/>
      <use xlink:href="#DejaVuSans-20" x="225.927734"/>
      <use xlink:href="#DejaVuSans-5b" x="257.714844"/>
      <use xlink:href="#DejaVuSans-73" x="296.728516"/>
      <use xlink:href="#DejaVuSans-65" x="348.828125"/>
      <use xlink:href="#DejaVuSans-63" x="410.351562"/>
      <use xlink:href="#DejaVuSans-5d" x="465.332031"/>
     </g>
    </g>
   </g>
   <g id="matplotlib.axis_2">
    <g id="ytick_1">
     <g id="line2d_11">
      <path d="M 57.6 303.67267 
L 414.72 303.67267 
" clip-path="url(#p2ecf21eaec)" style="fill: none; stroke: #b0b0b0; stroke-width: 0.8; stroke-linecap: square"/>
     </g>
     <g id="line2d_12">
      <defs>
       <path id="m34701bd8bf" d="M 0 0 
L -3.5 0 
" style="stroke: #000000; stroke-width: 0.8"/>
      </defs>
      <g>
       <use xlink:href="#m34701bd8bf" x="57.6" y="303.67267" style="stroke: #000000; stroke-width: 0.8"/>
      </g>
     </g>
     <g id="text_7">
      <!-- 0 -->
      <g transform="translate(44.2375 307.471889) scale(0.1 -0.1)">
       <use xlink:href="#DejaVuSans-30"/>
      </g>
     </g>
    </g>
    <g id="ytick_2">
     <g id="line2d_13">
      <path d="M 57.6 257.475647 
L 414.72 257.475647 
" clip-path="url(#p2ecf21eaec)" style="fill: none; stroke: #b0b0b0; stroke-width: 0.8; stroke-linecap: square"/>
     </g>
     <g id="line2d_14">
      <g>
       <use xlink:href="#m34701bd8bf" x="57.6" y="257.475647" style="stroke: #000000; stroke-width: 0.8"/>
      </g>
     </g>
     <g id="text_8">
      <!-- 20 -->
      <g transform="translate(37.875 261.274866) scale(0.1 -0.1)">
       <defs>
        <path id="DejaVuSans-32" d="M 1228 531 
L 3431 531 
L 3431 0 
L 469 0 
L 469 531 
Q 828 903 1448 1529 
Q 2069 2156 2228 2338 
Q 2531 2678 2651 2914 
Q 2772 3150 2772 3378 
Q 2772 3750 2511 3984 
Q 2250 4219 1831 4219 
Q 1534 4219 1204 4116 
Q 875 4013 500 3803 
L 500 4441 
Q 881 4594 1212 4672 
Q 1544 4750 1819 4750 
Q 2544 4750 2975 4387 
Q 3406 4025 3406 3419 
Q 3406 3131 3298 2873 
Q 3191 2616 2906 2266 
Q 2828 2175 2409 1742 
Q 1991 1309 1228 531 
z
" transform="scale(0.015625)"/>
       </defs>
       <use xlink:href="#DejaVuSans-32"/>
       <use xlink:href="#DejaVuSans-30" x="63.623047"/>
      </g>
     </g>
    </g>
    <g id="ytick_3">
     <g id="line2d_15">
      <path d="M 57.6 211.278624 
L 414.72 211.278624 
" clip-path="url(#p2ecf21eaec)" style="fill: none; stroke: #b0b0b0; stroke-width: 0.8; stroke-linecap: square"/>
     </g>
     <g id="line2d_16">
      <g>
       <use xlink:href="#m34701bd8bf" x="57.6" y="211.278624" style="stroke: #000000; stroke-width: 0.8"/>
      </g>
     </g>
     <g id="text_9">
      <!-- 40 -->
      <g transform="translate(37.875 215.077843) scale(0.1 -0.1)">
       <use xlink:href="#DejaVuSans-34"/>
       <use xlink:href="#DejaVuSans-30" x="63.623047"/>
      </g>
     </g>
    </g>
    <g id="ytick_4">
     <g id="line2d_17">
      <path d="M 57.6 165.081601 
L 414.72 165.081601 
" clip-path="url(#p2ecf21eaec)" style="fill: none; stroke: #b0b0b0; stroke-width: 0.8; stroke-linecap: square"/>
     </g>
     <g id="line2d_18">
      <g>
       <use xlink:href="#m34701bd8bf" x="57.6" y="165.081601" style="stroke: #000000; stroke-width: 0.8"/>
      </g>
     </g>
     <g id="text_10">
      <!-- 60 -->
      <g transform="translate(37.875 168.88082) scale(0.1 -0.1)">
       <defs>
        <path id="DejaVuSans-36" d="M 2113 2584 
Q 1688 2584 1439 2293 
Q 1191 2003 1191 1497 
Q 1191 994 1439 701 
Q 1688 409 2113 409 
Q 2538 409 2786 701 
Q 3034 994 3034 1497 
Q 3034 2003 2786 2293 
Q 2538 2584 2113 2584 
z
M 3366 4563 
L 3366 3988 
Q 3128 4100 2886 4159 
Q 2644 4219 2406 4219 
Q 1781 4219 1451 3797 
Q 1122 3375 1075 2522 
Q 1259 2794 1537 2939 
Q 1816 3084 2150 3084 
Q 2853 3084 3261 2657 
Q 3669 2231 3669 1497 
Q 3669 778 3244 343 
Q 2819 -91 2113 -91 
Q 1303 -91 875 529 
Q 447 1150 447 2328 
Q 447 3434 972 4092 
Q 1497 4750 2381 4750 
Q 2619 4750 2861 4703 
Q 3103 4656 3366 4563 
z
" transform="scale(0.015625)"/>
       </defs>
       <use xlink:href="#DejaVuSans-36"/>
       <use xlink:href="#DejaVuSans-30" x="63.623047"/>
      </g>
     </g>
    </g>
    <g id="ytick_5">
     <g id="line2d_19">
      <path d="M 57.6 118.884579 
L 414.72 118.884579 
" clip-path="url(#p2ecf21eaec)" style="fill: none; stroke: #b0b0b0; stroke-width: 0.8; stroke-linecap: square"/>
     </g>
     <g id="line2d_20">
      <g>
       <use xlink:href="#m34701bd8bf" x="57.6" y="118.884579" style="stroke: #000000; stroke-width: 0.8"/>
      </g>
     </g>
     <g id="text_11">
      <!-- 80 -->
      <g transform="translate(37.875 122.683797) scale(0.1 -0.1)">
       <defs>
        <path id="DejaVuSans-38" d="M 2034 2216 
Q 1584 2216 1326 1975 
Q 1069 1734 1069 1313 
Q 1069 891 1326 650 
Q 1584 409 2034 409 
Q 2484 409 2743 651 
Q 3003 894 3003 1313 
Q 3003 1734 2745 1975 
Q 2488 2216 2034 2216 
z
M 1403 2484 
Q 997 2584 770 2862 
Q 544 3141 544 3541 
Q 544 4100 942 4425 
Q 1341 4750 2034 4750 
Q 2731 4750 3128 4425 
Q 3525 4100 3525 3541 
Q 3525 3141 3298 2862 
Q 3072 2584 2669 2484 
Q 3125 2378 3379 2068 
Q 3634 1759 3634 1313 
Q 3634 634 3220 271 
Q 2806 -91 2034 -91 
Q 1263 -91 848 271 
Q 434 634 434 1313 
Q 434 1759 690 2068 
Q 947 2378 1403 2484 
z
M 1172 3481 
Q 1172 3119 1398 2916 
Q 1625 2713 2034 2713 
Q 2441 2713 2670 2916 
Q 2900 3119 2900 3481 
Q 2900 3844 2670 4047 
Q 2441 4250 2034 4250 
Q 1625 4250 1398 4047 
Q 1172 3844 1172 3481 
z
" transform="scale(0.015625)"/>
       </defs>
       <use xlink:href="#DejaVuSans-38"/>
       <use xlink:href="#DejaVuSans-30" x="63.623047"/>
      </g>
     </g>
    </g>
    <g id="ytick_6">
     <g id="line2d_21">
      <path d="M 57.6 72.687556 
L 414.72 72.687556 
" clip-path="url(#p2ecf21eaec)" style="fill: none; stroke: #b0b0b0; stroke-width: 0.8; stroke-linecap: square"/>
     </g>
     <g id="line2d_22">
      <g>
       <use xlink:href="#m34701bd8bf" x="57.6" y="72.687556" style="stroke: #000000; stroke-width: 0.8"/>
      </g>
     </g>
     <g id="text_12">
      <!-- 100 -->
      <g transform="translate(31.5125 76.486775) scale(0.1 -0.1)">
       <defs>
        <path id="DejaVuSans-31" d="M 794 531 
L 1825 531 
L 1825 4091 
L 703 3866 
L 703 4441 
L 1819 4666 
L 2450 4666 
L 2450 531 
L 3481 531 
L 3481 0 
L 794 0 
L 794 531 
z
" transform="scale(0.015625)"/>
       </defs>
       <use xlink:href="#DejaVuSans-31"/>
       <use xlink:href="#DejaVuSans-30" x="63.623047"/>
       <use xlink:href="#DejaVuSans-30" x="127.246094"/>
      </g>
     </g>
    </g>
    <g id="text_13">
     <!-- angle [°] -->
     <g transform="translate(25.432812 196.391281) rotate(-90) scale(0.1 -0.1)">
      <defs>
       <path id="DejaVuSans-61" d="M 2194 1759 
Q 1497 1759 1228 1600 
Q 959 1441 959 1056 
Q 959 750 1161 570 
Q 1363 391 1709 391 
Q 2188 391 2477 730 
Q 2766 1069 2766 1631 
L 2766 1759 
L 2194 1759 
z
M 3341 1997 
L 3341 0 
L 2766 0 
L 2766 531 
Q 2569 213 2275 61 
Q 1981 -91 1556 -91 
Q 1019 -91 701 211 
Q 384 513 384 1019 
Q 384 1609 779 1909 
Q 1175 2209 1959 2209 
L 2766 2209 
L 2766 2266 
Q 2766 2663 2505 2880 
Q 2244 3097 1772 3097 
Q 1472 3097 1187 3025 
Q 903 2953 641 2809 
L 641 3341 
Q 956 3463 1253 3523 
Q 1550 3584 1831 3584 
Q 2591 3584 2966 3190 
Q 3341 2797 3341 1997 
z
" transform="scale(0.015625)"/>
       <path id="DejaVuSans-6e" d="M 3513 2113 
L 3513 0 
L 2938 0 
L 2938 2094 
Q 2938 2591 2744 2837 
Q 2550 3084 2163 3084 
Q 1697 3084 1428 2787 
Q 1159 2491 1159 1978 
L 1159 0 
L 581 0 
L 581 3500 
L 1159 3500 
L 1159 2956 
Q 1366 3272 1645 3428 
Q 1925 3584 2291 3584 
Q 2894 3584 3203 3211 
Q 3513 2838 3513 2113 
z
" transform="scale(0.015625)"/>
       <path id="DejaVuSans-67" d="M 2906 1791 
Q 2906 2416 2648 2759 
Q 2391 3103 1925 3103 
Q 1463 3103 1205 2759 
Q 947 2416 947 1791 
Q 947 1169 1205 825 
Q 1463 481 1925 481 
Q 2391 481 2648 825 
Q 2906 1169 2906 1791 
z
M 3481 434 
Q 3481 -459 3084 -895 
Q 2688 -1331 1869 -1331 
Q 1566 -1331 1297 -1286 
Q 1028 -1241 775 -1147 
L 775 -588 
Q 1028 -725 1275 -790 
Q 1522 -856 1778 -856 
Q 2344 -856 2625 -561 
Q 2906 -266 2906 331 
L 2906 616 
Q 2728 306 2450 153 
Q 2172 0 1784 0 
Q 1141 0 747 490 
Q 353 981 353 1791 
Q 353 2603 747 3093 
Q 1141 3584 1784 3584 
Q 2172 3584 2450 3431 
Q 2728 3278 2906 2969 
L 2906 3500 
L 3481 3500 
L 3481 434 
z
" transform="scale(0.015625)"/>
       <path id="DejaVuSans-6c" d="M 603 4863 
L 1178 4863 
L 1178 0 
L 603 0 
L 603 4863 
z
" transform="scale(0.015625)"/>
       <path id="DejaVuSans-b0" d="M 1600 4347 
Q 1350 4347 1178 4173 
Q 1006 4000 1006 3750 
Q 1006 3503 1178 3333 
Q 1350 3163 1600 3163 
Q 1850 3163 2022 3333 
Q 2194 3503 2194 3750 
Q 2194 3997 2020 4172 
Q 1847 4347 1600 4347 
z
M 1600 4750 
Q 1800 4750 1984 4673 
Q 2169 4597 2303 4453 
Q 2447 4313 2519 4134 
Q 2591 3956 2591 3750 
Q 2591 3338 2302 3052 
Q 2013 2766 1594 2766 
Q 1172 2766 890 3047 
Q 609 3328 609 3750 
Q 609 4169 896 4459 
Q 1184 4750 1600 4750 
z
" transform="scale(0.015625)"/>
      </defs>
      <use xlink:href="#DejaVuSans-61"/>
      <use xlink:href="#DejaVuSans-6e" x="61.279297"/>
      <use xlink:href="#DejaVuSans-67" x="124.658203"/>
      <use xlink:href="#DejaVuSans-6c" x="188.134766"/>
      <use xlink:href="#DejaVuSans-65" x="215.917969"/>
      <use xlink:href="#DejaVuSans-20" x="277.441406"/>
      <use xlink:href="#DejaVuSans-5b" x="309.228516"/>
      <use xlink:href="#DejaVuSans-b0" x="348.242188"/>
      <use xlink:href="#DejaVuSans-5d" x="398.242188"/>
     </g>
    </g>
   </g>
   <g id="line2d_23">
    <path d="M 73.832727 290.112471 
L 74.311734 290.386887 
L 74.847736 290.162363 
L 75.325116 293.340597 
L 75.809629 290.567473 
L 76.341005 291.463676 
L 76.816565 291.451523 
L 77.311328 292.00681 
L 77.831543 291.926069 
L 78.318533 290.353319 
L 79.324141 290.501341 
L 79.80194 290.329898 
L 80.341059 291.376909 
L 80.815769 291.861409 
L 81.293493 288.623128 
L 81.830688 288.581253 
L 82.307039 286.969893 
L 82.844264 288.54769 
L 83.32242 288.584863 
L 83.803576 287.987363 
L 84.336712 289.010749 
L 84.814406 288.736466 
L 85.365477 288.949484 
L 85.828057 288.423981 
L 86.846363 289.330702 
L 87.320431 289.471779 
L 87.802675 289.80923 
L 88.352552 289.449924 
L 89.35 289.467229 
L 89.843196 289.006915 
L 90.304851 289.316227 
L 90.841881 289.52463 
L 91.331989 290.046945 
L 91.856114 289.492099 
L 92.334509 290.148282 
L 93.34425 290.136261 
L 93.817528 289.7805 
L 94.30207 289.835408 
L 94.837878 290.355408 
L 95.309261 290.616101 
L 96.32306 290.583163 
L 97.828012 290.945532 
L 98.289577 290.212011 
L 99.306868 289.750209 
L 99.842019 289.494908 
L 100.31846 289.721848 
L 100.800525 289.796748 
L 101.33402 290.170588 
L 101.811863 289.758247 
L 102.349879 288.123732 
L 102.838524 288.445442 
L 103.301969 288.152849 
L 103.838702 288.463567 
L 104.317589 287.938702 
L 104.79309 288.060477 
L 105.330762 290.294566 
L 105.80871 290.128893 
L 106.345502 290.136676 
L 106.82245 289.373526 
L 107.29998 289.278953 
L 107.853363 290.44814 
L 108.313989 290.430434 
L 108.792428 289.994294 
L 109.808615 291.692385 
L 110.361596 291.2965 
L 110.821803 291.298898 
L 111.298811 290.231986 
L 111.841124 290.244049 
L 112.313924 289.951092 
L 112.84997 289.940461 
L 113.32923 289.3844 
L 113.804806 288.126914 
L 114.35883 288.59816 
L 114.835674 288.017353 
L 115.850443 288.061526 
L 116.327153 288.206457 
L 116.864094 287.749328 
L 117.333836 288.112666 
L 117.810709 288.31771 
L 118.371582 288.152735 
L 118.824688 288.612373 
L 119.417728 288.211015 
L 119.863374 288.51228 
L 120.327834 287.769523 
L 120.86303 287.660218 
L 121.377054 288.141934 
L 121.866236 288.023764 
L 126.836047 288.501318 
L 127.369258 288.39264 
L 127.846698 288.556393 
L 128.860364 290.440654 
L 129.337983 290.672482 
L 129.859557 289.724208 
L 130.340652 289.669293 
L 130.82985 289.989176 
L 131.352871 290.997303 
L 131.847126 289.833575 
L 132.321269 289.512424 
L 132.844543 293.929325 
L 133.323207 293.74303 
L 133.858224 292.767689 
L 134.349972 295.488 
L 134.829516 292.472338 
L 135.350165 290.882661 
L 135.828053 291.019063 
L 136.320637 292.347703 
L 136.856967 292.548585 
L 137.319547 290.874617 
L 137.860606 291.314495 
L 138.33366 291.014825 
L 138.812159 290.417683 
L 139.348683 291.198142 
L 139.826407 292.636504 
L 140.841937 292.792756 
L 141.320556 292.649536 
L 141.855632 292.799429 
L 142.334221 290.528123 
L 142.811811 292.385656 
L 143.827819 291.470491 
L 144.377845 289.7997 
L 144.838888 291.805594 
L 145.319029 289.830547 
L 145.868652 291.78682 
L 146.331844 291.349752 
L 146.868621 289.17178 
L 147.354849 288.953136 
L 147.823935 286.824204 
L 148.359996 287.204646 
L 148.853147 287.098898 
L 149.315309 287.436237 
L 149.852235 288.445489 
L 150.345222 288.28981 
L 150.866647 288.414824 
L 151.344669 288.243955 
L 151.824481 287.749403 
L 152.374373 287.591427 
L 152.836401 288.449454 
L 153.850887 287.857474 
L 154.331685 289.537013 
L 154.87167 287.992547 
L 155.344589 289.102263 
L 155.820985 288.889101 
L 156.375651 288.279594 
L 157.389779 288.465284 
L 157.852001 288.870089 
L 158.328263 288.557148 
L 158.86598 289.10849 
L 159.34715 289.184744 
L 159.819025 289.542319 
L 160.388955 289.801051 
L 160.835332 289.119547 
L 161.386238 289.315377 
L 161.860486 288.35487 
L 162.325483 288.661916 
L 162.878597 289.538002 
L 163.352695 288.198676 
L 163.817499 289.162718 
L 164.370986 288.273648 
L 164.832492 289.956868 
L 165.861838 290.070055 
L 166.322926 291.07419 
L 166.861822 291.021785 
L 167.353317 290.854273 
L 168.35351 290.837454 
L 168.846571 290.480668 
L 169.368861 290.265959 
L 169.862027 290.461282 
L 170.336722 289.242576 
L 171.337691 292.033539 
L 171.874498 290.37436 
L 172.3544 290.16541 
L 172.843672 291.406934 
L 173.36629 291.409048 
L 173.844297 290.40193 
L 174.380955 291.716811 
L 174.859275 289.067519 
L 175.33591 288.854897 
L 175.873075 290.048835 
L 176.351873 288.061656 
L 176.828359 287.125745 
L 177.844844 289.470608 
L 178.857599 286.949004 
L 179.364969 288.36466 
L 179.885603 288.701745 
L 180.826593 288.493594 
L 181.378514 288.630366 
L 181.840124 288.494318 
L 182.379975 287.943672 
L 182.871768 288.477724 
L 183.33487 287.950829 
L 183.870051 287.738577 
L 184.352803 288.140039 
L 184.898517 287.989207 
L 185.857262 288.053702 
L 186.377254 288.128602 
L 186.854113 288.494917 
L 187.345891 288.273373 
L 188.34874 288.468842 
L 189.360943 288.606924 
L 189.839472 289.125121 
L 190.374847 289.221451 
L 190.853884 289.628728 
L 191.329653 289.756517 
L 191.869549 290.017081 
L 193.359849 288.284788 
L 193.837364 289.470978 
L 194.373499 289.482702 
L 194.851133 288.299774 
L 195.420511 289.296366 
L 195.865038 288.488956 
L 196.343567 288.521338 
L 196.906753 290.323849 
L 197.358232 290.515051 
L 197.86511 289.463965 
L 198.392338 290.438494 
L 198.853978 290.600325 
L 199.394485 290.156612 
L 199.875671 289.37343 
L 200.35238 289.368375 
L 200.888918 289.895014 
L 201.378026 289.843088 
L 201.913983 290.837793 
L 202.378457 289.181228 
L 203.408356 288.910975 
L 203.870115 291.415266 
L 204.369637 291.337844 
L 205.362713 291.477873 
L 206.376587 288.865805 
L 206.855535 288.320062 
L 207.395415 286.716805 
L 207.883284 290.013784 
L 208.345432 289.237096 
L 208.88385 288.730105 
L 209.896307 287.453311 
L 210.373061 287.645634 
L 210.875224 288.214479 
L 211.389666 288.002598 
L 211.865435 288.353157 
L 212.40551 288.493108 
L 212.880175 287.994067 
L 213.416877 288.053871 
L 213.899674 288.648646 
L 214.371668 288.28052 
L 214.857509 288.825242 
L 215.391794 289.199219 
L 215.865505 288.235963 
L 216.404087 288.359247 
L 216.880155 288.231596 
L 217.355655 287.727247 
L 217.894506 287.942208 
L 218.375647 287.74921 
L 218.849432 288.063713 
L 219.38688 287.815295 
L 220.878971 288.471256 
L 221.359709 288.919778 
L 221.891726 288.971241 
L 222.37133 289.283122 
L 222.913359 289.150608 
L 223.384085 288.428256 
L 223.863137 288.209825 
L 224.400406 288.10313 
L 224.877548 289.186149 
L 225.355675 289.227132 
L 225.895242 288.100745 
L 226.368147 289.697795 
L 226.906088 287.712323 
L 227.390675 290.27435 
L 227.891361 289.916565 
L 228.882646 290.971518 
L 229.892089 290.911996 
L 230.910201 290.932678 
L 232.398457 291.094623 
L 232.872644 290.910115 
L 233.411391 290.887648 
L 233.889219 292.421811 
L 234.365988 290.964943 
L 234.9029 290.94725 
L 235.395096 290.798449 
L 235.856676 291.624162 
L 236.39872 290.743805 
L 236.874713 291.903811 
L 237.409983 290.447561 
L 237.887185 290.265134 
L 238.364357 287.43936 
L 238.90179 287.206177 
L 239.377724 288.371331 
L 239.95844 287.672854 
L 240.393493 288.298667 
L 240.869337 287.439157 
L 241.452903 287.272095 
L 241.884569 286.654165 
L 242.361562 288.510677 
L 242.904158 288.071107 
L 243.376794 288.101178 
L 243.921389 288.2637 
L 244.416286 287.578279 
L 244.868392 288.226072 
L 245.409451 289.222165 
L 245.882609 288.491028 
L 246.360303 288.774401 
L 246.913851 288.613392 
L 247.381981 288.973984 
L 247.915267 289.122656 
L 248.39032 288.511887 
L 250.419038 289.015757 
L 250.90085 288.989559 
L 251.374038 288.442509 
L 251.911233 288.64565 
L 252.404265 289.247658 
L 253.882584 289.550804 
L 254.417123 289.48608 
L 254.8944 288.598227 
L 255.373302 288.604149 
L 255.909632 288.296046 
L 256.386982 288.960932 
L 256.924461 288.523222 
L 257.40126 288.44357 
L 257.885235 291.315499 
L 258.417999 289.628604 
L 258.893649 291.224226 
L 259.371283 291.140809 
L 259.9117 292.181425 
L 260.387141 292.64079 
L 260.921949 292.518117 
L 261.399956 290.847692 
L 261.878038 290.954615 
L 263.906011 290.700753 
L 264.387703 292.197194 
L 265.39825 292.246857 
L 266.891147 292.581111 
L 267.429073 290.329307 
L 267.905036 289.956411 
L 268.384103 288.832497 
L 269.400543 288.652373 
L 269.874253 288.100826 
L 270.413597 287.729721 
L 271.426561 287.742862 
L 271.903703 286.669242 
L 272.384605 287.986595 
L 272.927022 287.823237 
L 273.395749 288.864624 
L 273.934794 288.55717 
L 274.410205 288.697624 
L 275.424288 288.813353 
L 276.499394 287.71964 
L 276.920138 288.404646 
L 277.394058 287.964581 
L 277.929477 288.298349 
L 278.441383 288.466394 
L 278.886491 288.053553 
L 279.431803 288.244225 
L 280.048208 288.303403 
L 280.392771 288.551554 
L 280.925445 289.425111 
L 281.392769 288.826741 
L 283.432633 289.305103 
L 283.899391 289.793221 
L 284.441226 289.335537 
L 285.391048 289.328803 
L 285.940179 288.654962 
L 286.408131 288.638707 
L 286.882378 288.482011 
L 287.421513 289.650125 
L 288.435253 286.057835 
L 288.913618 287.965481 
L 289.400204 291.522645 
L 290.416287 290.344998 
L 291.41824 290.433562 
L 292.433114 290.81777 
L 293.396872 290.722485 
L 293.927666 289.559362 
L 294.956998 289.562121 
L 295.452775 291.804846 
L 295.911744 289.522369 
L 296.430587 291.766662 
L 297.389123 289.583695 
L 297.924095 289.527295 
L 298.4017 290.328247 
L 298.961364 290.545836 
L 299.417648 291.780934 
L 299.895909 292.153904 
L 300.930999 288.605235 
L 301.44665 288.038068 
L 301.924478 286.756459 
L 302.424 287.002959 
L 302.937771 287.894295 
L 303.420105 288.48201 
L 303.891383 288.254646 
L 304.911673 288.750947 
L 305.922981 288.50906 
L 306.403689 288.757901 
L 306.934886 287.524856 
L 307.414698 288.184036 
L 307.894362 288.171215 
L 308.425992 287.445943 
L 308.906132 287.786214 
L 309.918664 287.966557 
L 311.411023 288.025862 
L 311.949546 288.468295 
L 312.425121 288.178651 
L 312.902427 288.190961 
L 313.439935 288.046398 
L 313.916958 288.673558 
L 314.39413 289.041662 
L 314.931489 288.952265 
L 315.409899 289.439306 
L 316.423594 289.655303 
L 316.901348 289.617028 
L 317.439572 288.783022 
L 317.91567 288.428474 
L 318.452283 288.347551 
L 318.930723 287.76125 
L 319.408715 287.637297 
L 319.94509 288.480458 
L 320.424305 290.740058 
L 320.899537 289.520047 
L 321.436091 292.461579 
L 321.916232 292.433009 
L 322.452218 291.338382 
L 322.928987 291.868883 
L 323.414335 291.576958 
L 323.943115 292.344649 
L 324.421301 292.072856 
L 324.902337 292.352003 
L 325.912332 292.301776 
L 326.453586 292.567859 
L 326.927833 292.2267 
L 327.404975 292.230261 
L 327.943423 292.482685 
L 328.421251 292.129861 
L 328.957969 292.554618 
L 329.435111 292.608896 
L 329.911387 290.889913 
L 330.44903 290.863981 
L 330.927619 293.046889 
L 331.403538 293.337221 
L 332.457562 288.964656 
L 332.970482 288.189039 
L 333.911323 289.185626 
L 334.461946 288.092665 
L 334.954739 286.777969 
L 335.405457 287.731312 
L 335.953857 286.902219 
L 336.417645 289.152883 
L 336.975147 288.179491 
L 337.909035 288.322377 
L 338.445424 287.648169 
L 338.924252 288.311921 
L 339.460895 288.517285 
L 339.936366 288.192757 
L 340.423489 288.128715 
L 340.952254 288.344271 
L 341.428889 288.262986 
L 341.921682 289.533252 
L 342.444464 288.433448 
L 342.921919 289.196889 
L 343.460875 289.375106 
L 343.936435 288.784126 
L 344.413129 289.002669 
L 344.951757 288.992152 
L 345.42866 289.261564 
L 345.905041 289.760722 
L 346.444698 289.604154 
L 347.457975 289.718778 
L 347.938862 289.738163 
L 348.41299 288.869977 
L 349.023994 288.697709 
L 349.474235 288.247133 
L 349.98632 289.505184 
L 350.441753 289.477448 
L 350.921715 286.95188 
L 351.458149 289.432803 
L 351.932695 289.19176 
L 352.416029 291.616693 
L 352.952269 287.175354 
L 353.425233 292.041422 
L 353.962309 291.988351 
L 354.442166 292.075063 
L 356.469064 291.750055 
L 356.947668 290.562114 
L 357.551377 291.361312 
L 358.066952 291.287193 
L 359.051703 291.797355 
L 359.461899 290.287935 
L 360.95014 290.559701 
L 361.969266 290.473968 
L 362.442081 291.173502 
L 362.919954 290.041003 
L 363.458358 289.658677 
L 363.936574 289.679234 
L 364.469621 287.955369 
L 364.950239 287.598537 
L 365.425218 286.28223 
L 365.961338 288.347757 
L 366.442374 287.263119 
L 366.977734 287.909689 
L 367.454503 287.664008 
L 368.946937 288.177108 
L 369.968913 288.466279 
L 370.438028 287.865601 
L 370.976043 288.610727 
L 371.453379 287.478343 
L 371.929775 288.202022 
L 373.962179 288.778129 
L 374.445691 289.179308 
L 374.973681 289.114443 
L 375.48769 288.175834 
L 375.952269 288.292626 
L 376.466502 288.630688 
L 376.96689 288.697883 
L 377.486285 289.262706 
L 377.958265 289.221486 
L 378.979972 289.419284 
L 379.449997 288.571739 
L 379.928213 288.542149 
L 380.467676 288.245348 
L 380.942326 288.471443 
L 382.434163 290.001542 
L 382.970985 289.382462 
L 383.450126 288.349964 
L 383.985665 288.794996 
L 384.462867 288.572505 
L 384.964865 289.07606 
L 385.477606 289.15649 
L 385.956359 289.831413 
L 386.434993 289.975582 
L 386.996031 290.826536 
L 387.449166 287.844873 
L 387.983646 289.303842 
L 388.464861 290.288519 
L 388.938153 290.217608 
L 389.476273 291.480401 
L 389.956369 291.808452 
L 390.430557 290.885456 
L 390.968617 291.997114 
L 391.44931 291.301649 
L 391.982969 292.351596 
L 392.459813 291.168619 
L 392.940714 291.194829 
L 393.475149 291.915102 
L 393.952649 289.75792 
L 394.491978 289.111044 
L 394.966777 288.903825 
L 395.444098 287.51775 
L 395.986455 288.196458 
L 396.458271 288.25557 
L 396.940739 287.898385 
L 397.474786 288.001295 
L 397.950376 287.289411 
L 398.487273 287.958875 
L 398.487273 287.958875 
" clip-path="url(#p2ecf21eaec)" style="fill: none; stroke: #1f77b4; stroke-width: 1.5; stroke-linecap: square"/>
   </g>
   <g id="line2d_24">
    <path d="M 73.832727 57.715538 
L 74.311734 57.456604 
L 74.847736 57.296464 
L 75.325116 56.769304 
L 75.809629 56.723555 
L 76.341005 57.071265 
L 77.311328 56.971392 
L 77.831543 57.052916 
L 79.324141 56.88787 
L 79.80194 57.070343 
L 80.341059 56.843738 
L 80.815769 57.119526 
L 81.293493 58.438147 
L 81.830688 59.002914 
L 82.307039 59.853937 
L 82.844264 61.238792 
L 83.32242 61.546161 
L 83.803576 64.77541 
L 84.336712 65.889664 
L 84.814406 67.485002 
L 85.828057 72.991241 
L 86.846363 78.010091 
L 87.802675 79.840022 
L 88.352552 80.536242 
L 88.812909 81.414826 
L 89.35 80.972897 
L 89.843196 82.392988 
L 90.841881 82.912922 
L 91.331989 82.845709 
L 91.856114 83.224799 
L 92.334509 82.462137 
L 92.83521 82.669119 
L 93.34425 82.712241 
L 93.817528 83.338864 
L 94.30207 83.280086 
L 94.837878 82.383715 
L 95.309261 81.866203 
L 95.845426 81.57016 
L 96.32306 82.188455 
L 96.799769 81.700808 
L 97.3368 81.398282 
L 97.828012 80.707532 
L 98.289577 78.779652 
L 99.306868 75.968685 
L 99.842019 73.647166 
L 100.31846 68.190469 
L 100.800525 64.782498 
L 101.33402 63.141353 
L 101.811863 62.498718 
L 102.349879 61.376866 
L 102.838524 60.762736 
L 103.301969 60.94459 
L 104.79309 59.88184 
L 105.330762 58.617945 
L 105.80871 59.104574 
L 106.82245 58.693025 
L 107.29998 58.792002 
L 107.853363 58.072308 
L 108.313989 58.041917 
L 108.792428 58.700512 
L 109.329056 58.812132 
L 109.808615 58.236076 
L 110.821803 58.247413 
L 111.298811 58.460777 
L 111.841124 58.50228 
L 112.313924 59.312016 
L 113.32923 60.221343 
L 114.35883 61.786959 
L 114.835674 63.150475 
L 115.296807 66.032399 
L 115.850443 67.714634 
L 116.327153 69.570153 
L 116.864094 73.400492 
L 117.333836 75.533714 
L 117.810709 78.386002 
L 118.371582 79.789673 
L 120.327834 82.706784 
L 120.86303 83.235654 
L 123.367279 84.120948 
L 124.861234 84.28713 
L 125.32732 84.2601 
L 126.35601 83.820894 
L 127.846698 83.047527 
L 128.310919 82.606992 
L 128.860364 81.468195 
L 130.340652 77.21652 
L 130.82985 74.666046 
L 131.352871 69.412011 
L 131.847126 67.191258 
L 132.321269 62.590911 
L 132.844543 60.610455 
L 134.349972 53.769605 
L 134.829516 56.054427 
L 135.350165 56.847953 
L 135.828053 56.845431 
L 136.320637 55.640723 
L 136.856967 56.094538 
L 137.319547 54.586891 
L 137.860606 55.969191 
L 138.33366 55.365194 
L 138.812159 53.568 
L 140.363109 54.167828 
L 140.841937 54.760113 
L 141.855632 55.072998 
L 142.334221 54.89326 
L 142.811811 56.223324 
L 143.827819 57.477545 
L 144.377845 59.203991 
L 144.838888 58.338989 
L 145.319029 58.571443 
L 145.868652 59.583264 
L 146.331844 61.711758 
L 146.868621 62.298014 
L 147.354849 64.366818 
L 147.823935 69.178385 
L 148.853147 75.647862 
L 149.315309 77.563547 
L 150.345222 80.620886 
L 151.824481 82.887652 
L 152.374373 83.34483 
L 152.836401 83.380775 
L 153.316751 84.140781 
L 153.850887 84.126955 
L 154.331685 82.743116 
L 154.87167 84.639256 
L 155.344589 83.805751 
L 156.375651 84.457275 
L 156.834949 84.325441 
L 159.34715 82.982552 
L 160.388955 81.552182 
L 160.835332 79.618744 
L 161.860486 76.712444 
L 162.325483 73.445606 
L 162.878597 68.10796 
L 163.352695 65.914937 
L 163.817499 62.729545 
L 164.370986 61.742375 
L 164.832492 58.980926 
L 166.322926 58.321753 
L 168.35351 57.801692 
L 169.368861 57.814548 
L 169.862027 57.719093 
L 170.861235 57.831169 
L 171.337691 57.673606 
L 172.3544 57.703786 
L 172.843672 57.836247 
L 173.36629 57.860029 
L 173.844297 58.018172 
L 174.380955 57.853721 
L 174.859275 58.135484 
L 175.33591 58.670005 
L 175.873075 58.902431 
L 176.351873 59.937391 
L 176.828359 63.024582 
L 177.381548 62.628148 
L 177.844844 65.389952 
L 178.39396 67.967197 
L 178.857599 71.323209 
L 180.363655 76.624118 
L 180.826593 79.467602 
L 181.378514 80.317607 
L 181.840124 81.572451 
L 183.33487 82.94606 
L 186.854113 84.290867 
L 187.874313 84.178913 
L 188.883189 83.593508 
L 190.374847 82.837112 
L 191.869549 80.781044 
L 192.345497 79.020391 
L 192.883199 78.021237 
L 193.359849 76.716139 
L 193.837364 71.134691 
L 194.373499 66.826256 
L 195.420511 60.527552 
L 195.865038 60.875817 
L 196.906753 59.390973 
L 197.358232 59.197943 
L 197.86511 59.152769 
L 198.392338 58.414778 
L 198.853978 58.645222 
L 199.394485 58.439095 
L 199.875671 58.861516 
L 200.888918 58.666981 
L 201.378026 58.469776 
L 201.913983 57.23622 
L 202.853406 57.676356 
L 205.362713 57.747233 
L 206.855535 58.996768 
L 207.395415 60.919166 
L 207.883284 60.613249 
L 208.88385 64.284638 
L 209.896307 69.066273 
L 210.373061 72.713417 
L 210.875224 73.909741 
L 211.389666 77.411999 
L 211.865435 78.650944 
L 213.899674 81.930871 
L 214.857509 82.712901 
L 215.391794 82.533291 
L 215.865505 83.6367 
L 216.880155 83.8113 
L 217.355655 83.997635 
L 217.894506 83.875017 
L 218.375647 83.957183 
L 218.849432 83.811051 
L 219.38688 83.814589 
L 219.868334 83.447691 
L 221.359709 82.758357 
L 221.891726 82.371188 
L 222.913359 80.8397 
L 223.863137 77.445584 
L 224.400406 76.247924 
L 224.877548 72.724424 
L 225.355675 67.518375 
L 225.895242 65.481088 
L 226.368147 61.592029 
L 226.906088 61.043049 
L 227.390675 59.243026 
L 227.891361 58.956217 
L 228.398178 59.067849 
L 228.882646 58.14691 
L 230.910201 57.18794 
L 231.861888 56.924391 
L 233.411391 56.820844 
L 233.889219 56.991389 
L 234.365988 56.757712 
L 235.395096 56.751978 
L 235.856676 56.935723 
L 236.39872 56.876215 
L 237.409983 57.523662 
L 237.887185 57.992959 
L 238.364357 60.410739 
L 238.90179 61.133034 
L 239.377724 62.544801 
L 239.95844 64.721351 
L 240.393493 64.966643 
L 241.452903 71.477765 
L 242.361562 76.099595 
L 243.376794 79.427064 
L 243.921389 80.325543 
L 244.868392 82.114023 
L 245.409451 82.024185 
L 246.360303 82.764195 
L 246.913851 82.975212 
L 247.915267 83.661178 
L 248.872788 83.59969 
L 249.407029 83.734251 
L 250.90085 83.202042 
L 251.374038 83.414041 
L 252.866621 82.43328 
L 253.401996 82.031427 
L 253.882584 81.425755 
L 254.417123 80.377472 
L 254.8944 78.351545 
L 255.373302 77.482583 
L 255.909632 75.020965 
L 256.924461 66.61405 
L 257.40126 64.532276 
L 257.885235 60.229552 
L 258.417999 61.064235 
L 258.893649 59.160113 
L 259.371283 58.986634 
L 260.387141 58.191822 
L 261.399956 58.290753 
L 262.414592 57.865799 
L 263.369905 57.677516 
L 263.906011 57.69228 
L 264.387703 57.548043 
L 266.415571 57.409333 
L 266.891147 57.079558 
L 267.429073 57.93815 
L 268.919388 59.204587 
L 269.400543 59.382722 
L 269.874253 59.783625 
L 270.413597 60.613947 
L 270.897721 62.158201 
L 271.903703 66.990472 
L 272.384605 68.464781 
L 273.395749 73.639189 
L 273.934794 77.012624 
L 274.410205 78.518821 
L 274.887541 79.659221 
L 275.424288 80.376494 
L 275.902713 81.326501 
L 276.920138 82.390216 
L 277.394058 82.773331 
L 278.441383 82.960839 
L 278.886491 83.274151 
L 280.048208 83.455131 
L 280.925445 83.930972 
L 281.392769 83.501471 
L 282.407807 83.223552 
L 283.899391 82.33686 
L 284.913623 81.992672 
L 285.391048 81.159285 
L 285.940179 78.953647 
L 286.408131 77.956046 
L 286.882378 76.605038 
L 287.421513 72.127205 
L 287.897983 69.264595 
L 289.400204 58.224592 
L 289.940547 58.543752 
L 290.416287 57.465465 
L 290.881881 57.23751 
L 292.940529 56.797547 
L 293.396872 56.627047 
L 293.927666 56.763642 
L 297.389123 56.686568 
L 297.924095 56.751481 
L 298.4017 56.944652 
L 298.961364 56.896366 
L 299.895909 56.557394 
L 300.436222 57.270121 
L 300.930999 58.494046 
L 301.44665 59.257066 
L 301.924478 61.782219 
L 302.424 63.416117 
L 302.937771 63.901098 
L 303.420105 66.242847 
L 304.42998 72.224078 
L 304.911673 74.308334 
L 305.443019 77.839849 
L 306.403689 79.820494 
L 306.934886 81.0595 
L 307.894362 82.398174 
L 308.425992 82.651292 
L 308.906132 83.121955 
L 309.918664 83.39049 
L 310.398402 83.715034 
L 310.941371 83.719915 
L 311.411023 83.970452 
L 312.425121 84.03002 
L 312.902427 83.774481 
L 313.439935 83.785187 
L 313.916958 83.419706 
L 314.39413 82.899151 
L 315.409899 82.497381 
L 316.423594 81.253713 
L 317.91567 76.929971 
L 318.452283 74.720634 
L 319.94509 63.998462 
L 320.424305 59.413729 
L 320.899537 59.94609 
L 321.436091 57.950619 
L 321.916232 57.667967 
L 322.452218 57.532224 
L 322.928987 57.902146 
L 323.414335 57.942728 
L 323.943115 57.118921 
L 325.436056 56.905927 
L 326.927833 56.717481 
L 328.957969 56.632961 
L 329.435111 56.659944 
L 329.911387 57.003798 
L 330.44903 57.010786 
L 330.927619 56.184801 
L 331.403538 56.768701 
L 331.984911 57.861732 
L 332.457562 59.18844 
L 333.436762 61.054924 
L 333.911323 63.540053 
L 334.461946 65.675593 
L 335.953857 75.053108 
L 336.417645 75.695809 
L 336.975147 78.451481 
L 337.445739 79.525053 
L 338.924252 81.835126 
L 339.460895 82.32846 
L 339.936366 82.926224 
L 340.423489 82.990444 
L 340.952254 83.313789 
L 341.428889 83.426039 
L 341.921682 82.664152 
L 342.444464 83.637089 
L 342.921919 83.866101 
L 343.460875 83.822255 
L 344.951757 82.9451 
L 345.42866 83.00355 
L 345.905041 82.537205 
L 346.444698 82.603483 
L 347.457975 81.653809 
L 347.938862 80.690421 
L 348.41299 78.235718 
L 349.023994 77.699517 
L 349.474235 75.691603 
L 349.98632 71.113933 
L 351.458149 61.602574 
L 351.932695 61.216444 
L 352.416029 59.896698 
L 352.952269 59.742419 
L 353.962309 59.248267 
L 356.469064 58.936017 
L 356.947668 59.718191 
L 357.551377 58.965543 
L 358.066952 58.88392 
L 358.440982 58.132 
L 359.051703 58.142033 
L 359.461899 59.775362 
L 359.946516 59.500085 
L 360.474923 59.406856 
L 361.427998 59.638827 
L 361.969266 59.842184 
L 362.442081 58.77088 
L 362.919954 59.312003 
L 363.458358 59.494021 
L 363.936574 60.014982 
L 364.469621 62.046297 
L 364.950239 62.266066 
L 365.425218 65.745644 
L 365.961338 66.036751 
L 366.442374 68.751643 
L 367.454503 73.121121 
L 367.935062 77.992301 
L 369.426048 81.21379 
L 369.968913 81.549373 
L 370.438028 82.251047 
L 371.929775 83.067951 
L 373.962179 83.464969 
L 374.445691 83.530959 
L 374.973681 83.361347 
L 375.48769 83.611374 
L 375.952269 83.338665 
L 376.466502 83.219548 
L 376.96689 82.946008 
L 377.486285 82.791182 
L 377.958265 82.347746 
L 378.436615 82.069483 
L 378.979972 81.161517 
L 379.928213 78.085076 
L 380.467676 77.069241 
L 380.942326 74.54474 
L 381.958438 66.272289 
L 382.970985 60.845532 
L 383.450126 61.136834 
L 383.985665 60.25624 
L 384.462867 60.140475 
L 384.964865 59.263142 
L 385.477606 59.136934 
L 385.956359 58.664427 
L 386.996031 58.394584 
L 387.449166 59.947363 
L 387.983646 59.782657 
L 388.464861 60.001684 
L 388.938153 59.811087 
L 389.476273 58.438386 
L 389.956369 58.45506 
L 390.430557 58.641299 
L 390.968617 57.925042 
L 391.44931 58.309294 
L 391.982969 57.746437 
L 392.459813 57.9462 
L 392.940714 59.247182 
L 393.475149 58.073578 
L 393.952649 59.464854 
L 394.491978 59.649478 
L 394.966777 60.057721 
L 395.444098 61.267481 
L 397.474786 68.496702 
L 398.487273 74.323463 
L 398.487273 74.323463 
" clip-path="url(#p2ecf21eaec)" style="fill: none; stroke: #ff7f0e; stroke-width: 1.5; stroke-linecap: square"/>
   </g>
   <g id="line2d_25">
    <path d="M 73.832727 243.458533 
L 74.311734 243.194063 
L 74.847736 243.292648 
L 75.325116 244.040285 
L 75.809629 243.155956 
L 76.341005 243.711067 
L 76.816565 243.799269 
L 77.831543 244.113494 
L 78.318533 243.558789 
L 79.80194 243.723426 
L 80.815769 244.516552 
L 81.293493 243.877752 
L 81.830688 243.927412 
L 82.307039 245.086555 
L 82.844264 245.317601 
L 83.32242 244.563599 
L 83.803576 245.05825 
L 85.828057 246.397917 
L 86.30596 246.607614 
L 86.846363 247.528615 
L 87.802675 247.485994 
L 88.812909 247.599183 
L 89.35 247.035369 
L 89.843196 248.063362 
L 90.304851 248.050722 
L 90.841881 247.92291 
L 91.331989 248.027248 
L 91.856114 247.868634 
L 92.334509 246.92736 
L 93.34425 246.785696 
L 93.817528 247.906214 
L 94.30207 247.812097 
L 94.837878 246.66925 
L 95.845426 246.366711 
L 96.32306 247.058756 
L 98.827682 246.884026 
L 99.842019 246.34624 
L 100.31846 243.671737 
L 100.800525 242.780494 
L 101.33402 242.847276 
L 101.811863 243.536605 
L 102.349879 242.479646 
L 102.838524 241.813023 
L 103.301969 242.751547 
L 103.838702 242.700897 
L 104.79309 243.470402 
L 105.330762 242.896274 
L 105.80871 244.074932 
L 106.345502 244.170325 
L 106.82245 244.661662 
L 107.29998 244.676457 
L 107.853363 243.299832 
L 108.313989 243.301977 
L 109.329056 245.576231 
L 109.808615 244.209145 
L 110.821803 244.332561 
L 111.298811 244.029522 
L 111.841124 244.00501 
L 113.32923 244.897568 
L 113.804806 244.267627 
L 114.35883 244.762862 
L 114.835674 244.871872 
L 115.296807 245.538941 
L 115.850443 245.849223 
L 116.327153 245.697843 
L 116.864094 247.408075 
L 117.333836 247.954621 
L 118.371582 247.346324 
L 118.824688 247.645404 
L 119.417728 247.734903 
L 119.863374 247.54426 
L 120.327834 247.972037 
L 121.377054 247.782647 
L 121.866236 247.903027 
L 125.816413 247.759337 
L 127.369258 247.44367 
L 127.846698 247.974965 
L 128.860364 247.200786 
L 129.337983 246.910227 
L 129.859557 246.856496 
L 130.340652 247.077354 
L 130.82985 246.714267 
L 131.352871 245.031618 
L 131.847126 244.82933 
L 132.321269 242.654133 
L 132.844543 242.913614 
L 133.323207 240.319642 
L 133.858224 240.603705 
L 134.349972 238.533318 
L 134.829516 240.078002 
L 135.350165 240.279348 
L 135.828053 241.092785 
L 136.320637 240.99552 
L 136.856967 240.716445 
L 137.319547 240.15767 
L 137.860606 241.365256 
L 138.33366 241.409293 
L 138.812159 239.856731 
L 139.348683 239.607019 
L 139.826407 239.967134 
L 140.363109 240.016823 
L 140.841937 240.49965 
L 141.320556 241.223965 
L 141.855632 241.356804 
L 142.334221 241.029084 
L 143.827819 242.177247 
L 144.377845 243.207259 
L 144.838888 242.842674 
L 145.319029 242.629096 
L 145.868652 243.243114 
L 146.331844 243.210362 
L 146.868621 244.210705 
L 147.354849 244.239085 
L 147.823935 245.810975 
L 148.853147 247.380879 
L 149.315309 247.612119 
L 149.852235 247.401592 
L 150.345222 247.497685 
L 150.866647 247.461917 
L 151.344669 247.290893 
L 151.824481 247.727742 
L 152.836401 247.796692 
L 153.316751 248.453638 
L 153.850887 247.923487 
L 154.331685 247.132413 
L 154.87167 247.848026 
L 155.820985 248.269635 
L 156.375651 247.864087 
L 156.834949 247.789045 
L 157.389779 248.062403 
L 157.852001 248.087314 
L 158.86598 247.117686 
L 159.819025 247.022345 
L 161.386238 247.070064 
L 162.325483 246.117992 
L 162.878597 244.262514 
L 163.352695 243.705417 
L 163.817499 242.322703 
L 164.370986 243.731735 
L 164.832492 242.867453 
L 165.370343 243.193062 
L 165.861838 243.023735 
L 166.322926 243.178601 
L 166.861822 243.138745 
L 167.353317 243.322612 
L 168.35351 243.23611 
L 169.368861 243.445423 
L 170.336722 243.15873 
L 171.337691 244.106997 
L 171.874498 243.550957 
L 172.843672 244.114172 
L 173.36629 244.14963 
L 173.844297 244.031962 
L 174.380955 244.373821 
L 174.859275 243.649322 
L 175.33591 243.834567 
L 176.828359 245.091676 
L 177.381548 244.067016 
L 177.844844 244.367864 
L 178.39396 245.403382 
L 178.857599 246.000297 
L 179.364969 245.723719 
L 180.363655 246.937061 
L 180.826593 248.071969 
L 181.378514 248.042434 
L 181.840124 248.253055 
L 182.379975 248.649701 
L 182.871768 247.728631 
L 183.33487 248.113404 
L 183.870051 247.974248 
L 184.352803 248.022647 
L 185.857262 247.904353 
L 186.377254 247.943104 
L 186.854113 247.792802 
L 187.345891 247.897071 
L 187.874313 247.796764 
L 188.34874 248.148291 
L 188.883189 248.052089 
L 189.839472 247.129194 
L 190.374847 247.104324 
L 190.853884 247.425669 
L 191.329653 247.281329 
L 191.869549 246.533151 
L 192.345497 246.432942 
L 192.883199 246.16891 
L 193.359849 245.299335 
L 193.837364 244.007106 
L 194.373499 243.650849 
L 194.851133 244.062805 
L 195.420511 242.449656 
L 195.865038 242.890637 
L 196.343567 242.495445 
L 196.906753 241.425791 
L 197.358232 241.338827 
L 197.86511 241.638098 
L 198.392338 241.803614 
L 198.853978 243.129986 
L 199.394485 243.176908 
L 199.875671 242.879528 
L 200.35238 242.906309 
L 201.378026 243.108783 
L 201.913983 242.57128 
L 202.378457 242.537719 
L 203.408356 242.774935 
L 203.870115 243.514815 
L 204.902431 243.666495 
L 205.362713 244.042366 
L 205.900012 243.842176 
L 206.376587 243.392103 
L 206.855535 243.723941 
L 207.395415 244.5357 
L 207.883284 244.17532 
L 208.345432 244.52265 
L 208.88385 245.467529 
L 209.391608 246.021132 
L 209.896307 247.341721 
L 210.373061 248.02252 
L 210.875224 247.167113 
L 211.389666 247.557381 
L 212.40551 247.642023 
L 212.880175 247.867627 
L 213.899674 247.974541 
L 214.371668 247.946411 
L 214.857509 247.613669 
L 215.391794 248.196457 
L 215.865505 247.53867 
L 216.404087 247.626396 
L 216.880155 247.516188 
L 217.894506 248.322429 
L 218.375647 247.783879 
L 218.849432 248.149775 
L 219.38688 247.716259 
L 219.868334 247.986628 
L 220.878971 247.715016 
L 221.359709 246.863311 
L 221.891726 246.865424 
L 222.37133 247.022658 
L 222.913359 246.864302 
L 223.384085 246.894268 
L 224.877548 246.372827 
L 225.355675 244.334523 
L 225.895242 244.54046 
L 226.368147 242.68653 
L 226.906088 243.724284 
L 227.390675 242.664425 
L 227.891361 242.687955 
L 228.398178 243.708697 
L 228.882646 242.980219 
L 229.892089 242.737687 
L 230.910201 242.738882 
L 231.38688 242.57491 
L 232.398457 242.643339 
L 232.872644 242.868997 
L 233.411391 242.960353 
L 233.889219 243.646082 
L 234.365988 243.07256 
L 235.395096 243.251137 
L 235.856676 243.663672 
L 236.39872 243.561419 
L 236.874713 243.781262 
L 237.409983 243.610909 
L 237.887185 243.805592 
L 238.364357 244.472659 
L 238.90179 244.730189 
L 239.377724 245.427699 
L 239.95844 246.492533 
L 240.393493 246.634161 
L 241.452903 247.961572 
L 242.361562 247.979598 
L 242.904158 247.55585 
L 243.376794 247.713119 
L 243.921389 247.700481 
L 244.416286 248.195435 
L 244.868392 247.759738 
L 245.409451 248.434803 
L 246.913851 248.280586 
L 247.381981 247.909415 
L 247.915267 247.809963 
L 248.872788 248.587543 
L 249.407029 248.326766 
L 249.89651 248.717414 
L 250.419038 248.495712 
L 250.90085 248.542705 
L 251.374038 247.936788 
L 252.404265 246.997499 
L 252.866621 246.919019 
L 253.401996 247.210012 
L 253.882584 247.104202 
L 254.417123 246.817465 
L 254.8944 246.812384 
L 255.909632 246.025956 
L 257.40126 244.207184 
L 257.885235 243.119707 
L 258.417999 244.305961 
L 258.893649 243.485549 
L 259.371283 243.626199 
L 259.9117 243.921498 
L 260.921949 244.110652 
L 261.399956 243.627251 
L 263.906011 243.732086 
L 264.387703 244.340146 
L 266.891147 244.466344 
L 267.429073 244.00974 
L 267.905036 243.991424 
L 268.384103 243.81048 
L 268.919388 244.016821 
L 269.400543 244.060668 
L 269.874253 244.619202 
L 270.413597 244.791534 
L 270.897721 245.143502 
L 271.426561 246.535588 
L 271.903703 246.666931 
L 272.384605 246.374991 
L 272.927022 246.699031 
L 273.395749 247.433407 
L 273.934794 248.040101 
L 274.410205 248.073031 
L 275.424288 247.643793 
L 275.902713 247.764908 
L 276.499394 248.268589 
L 277.394058 248.160002 
L 277.929477 248.332484 
L 278.441383 248.327487 
L 278.886491 248.017888 
L 279.431803 248.393106 
L 280.048208 247.991962 
L 280.392771 248.053997 
L 280.925445 247.726515 
L 281.392769 248.550608 
L 282.407807 248.424324 
L 282.886785 247.92116 
L 283.432633 247.874777 
L 283.899391 247.302981 
L 284.441226 247.24336 
L 285.391048 246.775644 
L 285.940179 246.945355 
L 286.882378 246.593225 
L 287.421513 245.118657 
L 287.897983 245.230121 
L 288.435253 244.550121 
L 288.913618 243.206081 
L 289.400204 243.60805 
L 289.940547 244.225977 
L 290.416287 242.9877 
L 291.41824 242.820598 
L 292.433114 242.732917 
L 293.396872 242.901736 
L 293.927666 242.875926 
L 294.956998 242.997955 
L 295.452775 243.654943 
L 295.911744 243.090263 
L 296.430587 243.743998 
L 296.908386 243.301356 
L 297.389123 243.101156 
L 297.924095 243.168202 
L 298.4017 243.717314 
L 298.961364 243.840335 
L 299.417648 244.37387 
L 299.895909 244.482028 
L 300.930999 243.981348 
L 301.924478 245.278313 
L 302.424 246.077851 
L 302.937771 245.721629 
L 303.891383 246.581633 
L 304.42998 247.242035 
L 304.911673 247.348218 
L 305.443019 248.073634 
L 305.922981 247.870818 
L 306.403689 247.789357 
L 306.934886 247.841487 
L 307.414698 247.586383 
L 307.894362 247.646682 
L 308.425992 247.941876 
L 308.906132 247.758685 
L 309.918664 247.797463 
L 310.398402 247.708702 
L 310.941371 247.891193 
L 311.949546 247.774929 
L 313.439935 247.750676 
L 313.916958 248.127575 
L 314.39413 247.592656 
L 314.931489 247.541051 
L 315.409899 247.041608 
L 315.953912 247.241604 
L 316.423594 247.167577 
L 316.901348 246.49349 
L 317.439572 246.707208 
L 318.452283 246.597941 
L 319.408715 245.036487 
L 319.94509 244.126246 
L 320.424305 243.57779 
L 320.899537 243.742953 
L 321.436091 243.226414 
L 321.916232 243.416073 
L 322.452218 243.193799 
L 322.928987 244.46056 
L 323.414335 244.570519 
L 323.943115 243.845964 
L 324.421301 243.728825 
L 324.902337 243.86376 
L 325.912332 243.82158 
L 326.927833 243.90193 
L 327.404975 243.943038 
L 327.943423 244.264887 
L 328.421251 244.136743 
L 328.957969 244.361174 
L 329.435111 244.423732 
L 329.911387 244.047577 
L 330.44903 244.018145 
L 330.927619 244.675815 
L 331.403538 244.930145 
L 331.984911 244.067342 
L 332.457562 244.127952 
L 333.436762 245.334568 
L 333.911323 246.270179 
L 334.461946 245.915775 
L 334.954739 247.366987 
L 335.405457 246.846074 
L 335.953857 248.057344 
L 336.417645 246.796788 
L 336.975147 247.758354 
L 337.909035 247.424172 
L 338.445424 248.021401 
L 338.924252 247.621476 
L 339.460895 247.842598 
L 339.936366 247.547846 
L 340.423489 247.722839 
L 340.952254 247.74226 
L 341.921682 248.163919 
L 342.444464 248.051978 
L 342.921919 247.806006 
L 343.460875 247.730658 
L 343.936435 248.496892 
L 344.413129 248.462364 
L 345.42866 248.125264 
L 345.905041 247.379322 
L 346.444698 247.052268 
L 347.457975 247.066861 
L 347.938862 246.759953 
L 348.41299 246.953527 
L 349.474235 246.492797 
L 351.458149 242.297293 
L 351.932695 243.770751 
L 352.416029 244.222304 
L 352.952269 247.502509 
L 353.425233 244.020761 
L 353.962309 244.141271 
L 354.442166 244.132644 
L 354.917309 244.320054 
L 355.933093 244.337863 
L 358.066952 244.730843 
L 358.440982 243.96714 
L 359.051703 243.972171 
L 359.461899 244.620861 
L 359.946516 244.525342 
L 361.427998 244.726204 
L 361.969266 244.908056 
L 362.442081 244.315309 
L 362.919954 244.095911 
L 363.458358 244.599027 
L 363.936574 244.672966 
L 364.469621 245.738487 
L 364.950239 244.692406 
L 365.425218 246.212905 
L 365.961338 245.775134 
L 366.442374 245.82785 
L 366.977734 246.301331 
L 367.454503 246.482876 
L 367.935062 247.697134 
L 368.470571 247.530804 
L 368.946937 247.657439 
L 369.426048 247.45778 
L 369.968913 247.90317 
L 370.438028 248.021459 
L 370.976043 247.46486 
L 371.453379 247.965271 
L 372.469656 247.913033 
L 373.423522 248.062153 
L 373.962179 248.033274 
L 374.973681 248.127031 
L 375.48769 247.688846 
L 376.96689 247.383545 
L 377.486285 246.901955 
L 377.958265 246.814974 
L 378.436615 246.506838 
L 378.979972 246.47901 
L 379.928213 246.043125 
L 380.467676 246.185018 
L 380.942326 245.937197 
L 381.958438 243.457161 
L 382.434163 243.130113 
L 382.970985 241.899324 
L 383.450126 242.824511 
L 383.985665 242.102669 
L 384.462867 243.00393 
L 384.964865 242.215014 
L 385.477606 242.22572 
L 386.434993 242.537409 
L 386.996031 242.85772 
L 387.449166 243.47029 
L 387.983646 243.720753 
L 388.464861 244.233588 
L 388.938153 244.469087 
L 389.476273 243.905369 
L 389.956369 244.277759 
L 390.430557 245.626136 
L 390.968617 244.513638 
L 391.44931 245.831388 
L 391.982969 244.841995 
L 392.459813 244.923422 
L 392.940714 245.226014 
L 393.475149 245.243226 
L 393.952649 244.153937 
L 395.444098 244.730083 
L 395.986455 245.542046 
L 396.940739 246.229451 
L 397.474786 246.22988 
L 397.950376 246.486334 
L 398.487273 247.13843 
L 398.487273 247.13843 
" clip-path="url(#p2ecf21eaec)" style="fill: none; stroke: #2ca02c; stroke-width: 1.5; stroke-linecap: square"/>
   </g>
   <g id="patch_3">
    <path d="M 57.6 307.584 
L 57.6 41.472 
" style="fill: none; stroke: #000000; stroke-width: 0.8; stroke-linejoin: miter; stroke-linecap: square"/>
   </g>
   <g id="patch_4">
    <path d="M 414.72 307.584 
L 414.72 41.472 
" style="fill: none; stroke: #000000; stroke-width: 0.8; stroke-linejoin: miter; stroke-linecap: square"/>
   </g>
   <g id="patch_5">
    <path d="M 57.6 307.584 
L 414.72 307.584 
" style="fill: none; stroke: #000000; stroke-width: 0.8; stroke-linejoin: miter; stroke-linecap: square"/>
   </g>
   <g id="patch_6">
    <path d="M 57.6 41.472 
L 414.72 41.472 
" style="fill: none; stroke: #000000; stroke-width: 0.8; stroke-linejoin: miter; stroke-linecap: square"/>
   </g>
   <g id="text_14">
    <!-- Angles in Index finger joints -->
    <g transform="translate(152.50875 35.472) scale(0.12 -0.12)">
     <defs>
      <path id="DejaVuSans-41" d="M 2188 4044 
L 1331 1722 
L 3047 1722 
L 2188 4044 
z
M 1831 4666 
L 2547 4666 
L 4325 0 
L 3669 0 
L 3244 1197 
L 1141 1197 
L 716 0 
L 50 0 
L 1831 4666 
z
" transform="scale(0.015625)"/>
      <path id="DejaVuSans-49" d="M 628 4666 
L 1259 4666 
L 1259 0 
L 628 0 
L 628 4666 
z
" transform="scale(0.015625)"/>
      <path id="DejaVuSans-64" d="M 2906 2969 
L 2906 4863 
L 3481 4863 
L 3481 0 
L 2906 0 
L 2906 525 
Q 2725 213 2448 61 
Q 2172 -91 1784 -91 
Q 1150 -91 751 415 
Q 353 922 353 1747 
Q 353 2572 751 3078 
Q 1150 3584 1784 3584 
Q 2172 3584 2448 3432 
Q 2725 3281 2906 2969 
z
M 947 1747 
Q 947 1113 1208 752 
Q 1469 391 1925 391 
Q 2381 391 2643 752 
Q 2906 1113 2906 1747 
Q 2906 2381 2643 2742 
Q 2381 3103 1925 3103 
Q 1469 3103 1208 2742 
Q 947 2381 947 1747 
z
" transform="scale(0.015625)"/>
      <path id="DejaVuSans-78" d="M 3513 3500 
L 2247 1797 
L 3578 0 
L 2900 0 
L 1881 1375 
L 863 0 
L 184 0 
L 1544 1831 
L 300 3500 
L 978 3500 
L 1906 2253 
L 2834 3500 
L 3513 3500 
z
" transform="scale(0.015625)"/>
      <path id="DejaVuSans-66" d="M 2375 4863 
L 2375 4384 
L 1825 4384 
Q 1516 4384 1395 4259 
Q 1275 4134 1275 3809 
L 1275 3500 
L 2222 3500 
L 2222 3053 
L 1275 3053 
L 1275 0 
L 697 0 
L 697 3053 
L 147 3053 
L 147 3500 
L 697 3500 
L 697 3744 
Q 697 4328 969 4595 
Q 1241 4863 1831 4863 
L 2375 4863 
z
" transform="scale(0.015625)"/>
      <path id="DejaVuSans-72" d="M 2631 2963 
Q 2534 3019 2420 3045 
Q 2306 3072 2169 3072 
Q 1681 3072 1420 2755 
Q 1159 2438 1159 1844 
L 1159 0 
L 581 0 
L 581 3500 
L 1159 3500 
L 1159 2956 
Q 1341 3275 1631 3429 
Q 1922 3584 2338 3584 
Q 2397 3584 2469 3576 
Q 2541 3569 2628 3553 
L 2631 2963 
z
" transform="scale(0.015625)"/>
      <path id="DejaVuSans-6a" d="M 603 3500 
L 1178 3500 
L 1178 -63 
Q 1178 -731 923 -1031 
Q 669 -1331 103 -1331 
L -116 -1331 
L -116 -844 
L 38 -844 
Q 366 -844 484 -692 
Q 603 -541 603 -63 
L 603 3500 
z
M 603 4863 
L 1178 4863 
L 1178 4134 
L 603 4134 
L 603 4863 
z
" transform="scale(0.015625)"/>
      <path id="DejaVuSans-6f" d="M 1959 3097 
Q 1497 3097 1228 2736 
Q 959 2375 959 1747 
Q 959 1119 1226 758 
Q 1494 397 1959 397 
Q 2419 397 2687 759 
Q 2956 1122 2956 1747 
Q 2956 2369 2687 2733 
Q 2419 3097 1959 3097 
z
M 1959 3584 
Q 2709 3584 3137 3096 
Q 3566 2609 3566 1747 
Q 3566 888 3137 398 
Q 2709 -91 1959 -91 
Q 1206 -91 779 398 
Q 353 888 353 1747 
Q 353 2609 779 3096 
Q 1206 3584 1959 3584 
z
" transform="scale(0.015625)"/>
     </defs>
     <use xlink:href="#DejaVuSans-41"/>
     <use xlink:href="#DejaVuSans-6e" x="68.408203"/>
     <use xlink:href="#DejaVuSans-67" x="131.787109"/>
     <use xlink:href="#DejaVuSans-6c" x="195.263672"/>
     <use xlink:href="#DejaVuSans-65" x="223.046875"/>
     <use xlink:href="#DejaVuSans-73" x="284.570312"/>
     <use xlink:href="#DejaVuSans-20" x="336.669922"/>
     <use xlink:href="#DejaVuSans-69" x="368.457031"/>
     <use xlink:href="#DejaVuSans-6e" x="396.240234"/>
     <use xlink:href="#DejaVuSans-20" x="459.619141"/>
     <use xlink:href="#DejaVuSans-49" x="491.40625"/>
     <use xlink:href="#DejaVuSans-6e" x="520.898438"/>
     <use xlink:href="#DejaVuSans-64" x="584.277344"/>
     <use xlink:href="#DejaVuSans-65" x="647.753906"/>
     <use xlink:href="#DejaVuSans-78" x="707.527344"/>
     <use xlink:href="#DejaVuSans-20" x="766.707031"/>
     <use xlink:href="#DejaVuSans-66" x="798.494141"/>
     <use xlink:href="#DejaVuSans-69" x="833.699219"/>
     <use xlink:href="#DejaVuSans-6e" x="861.482422"/>
     <use xlink:href="#DejaVuSans-67" x="924.861328"/>
     <use xlink:href="#DejaVuSans-65" x="988.337891"/>
     <use xlink:href="#DejaVuSans-72" x="1049.861328"/>
     <use xlink:href="#DejaVuSans-20" x="1090.974609"/>
     <use xlink:href="#DejaVuSans-6a" x="1122.761719"/>
     <use xlink:href="#DejaVuSans-6f" x="1150.544922"/>
     <use xlink:href="#DejaVuSans-69" x="1211.726562"/>
     <use xlink:href="#DejaVuSans-6e" x="1239.509766"/>
     <use xlink:href="#DejaVuSans-74" x="1302.888672"/>
     <use xlink:href="#DejaVuSans-73" x="1342.097656"/>
    </g>
   </g>
   <g id="legend_1">
    <g id="patch_7">
     <path d="M 305.012188 93.506375 
L 407.72 93.506375 
Q 409.72 93.506375 409.72 91.506375 
L 409.72 48.472 
Q 409.72 46.472 407.72 46.472 
L 305.012188 46.472 
Q 303.012188 46.472 303.012188 48.472 
L 303.012188 91.506375 
Q 303.012188 93.506375 305.012188 93.506375 
z
" style="fill: #ffffff; opacity: 0.8; stroke: #cccccc; stroke-linejoin: miter"/>
    </g>
    <g id="line2d_26">
     <path d="M 307.012188 54.570438 
L 317.012188 54.570438 
L 327.012188 54.570438 
" style="fill: none; stroke: #1f77b4; stroke-width: 1.5; stroke-linecap: square"/>
    </g>
    <g id="text_15">
     <!-- alpha (DIP) -->
     <g transform="translate(335.012188 58.070438) scale(0.1 -0.1)">
      <defs>
       <path id="DejaVuSans-70" d="M 1159 525 
L 1159 -1331 
L 581 -1331 
L 581 3500 
L 1159 3500 
L 1159 2969 
Q 1341 3281 1617 3432 
Q 1894 3584 2278 3584 
Q 2916 3584 3314 3078 
Q 3713 2572 3713 1747 
Q 3713 922 3314 415 
Q 2916 -91 2278 -91 
Q 1894 -91 1617 61 
Q 1341 213 1159 525 
z
M 3116 1747 
Q 3116 2381 2855 2742 
Q 2594 3103 2138 3103 
Q 1681 3103 1420 2742 
Q 1159 2381 1159 1747 
Q 1159 1113 1420 752 
Q 1681 391 2138 391 
Q 2594 391 2855 752 
Q 3116 1113 3116 1747 
z
" transform="scale(0.015625)"/>
       <path id="DejaVuSans-68" d="M 3513 2113 
L 3513 0 
L 2938 0 
L 2938 2094 
Q 2938 2591 2744 2837 
Q 2550 3084 2163 3084 
Q 1697 3084 1428 2787 
Q 1159 2491 1159 1978 
L 1159 0 
L 581 0 
L 581 4863 
L 1159 4863 
L 1159 2956 
Q 1366 3272 1645 3428 
Q 1925 3584 2291 3584 
Q 2894 3584 3203 3211 
Q 3513 2838 3513 2113 
z
" transform="scale(0.015625)"/>
       <path id="DejaVuSans-28" d="M 1984 4856 
Q 1566 4138 1362 3434 
Q 1159 2731 1159 2009 
Q 1159 1288 1364 580 
Q 1569 -128 1984 -844 
L 1484 -844 
Q 1016 -109 783 600 
Q 550 1309 550 2009 
Q 550 2706 781 3412 
Q 1013 4119 1484 4856 
L 1984 4856 
z
" transform="scale(0.015625)"/>
       <path id="DejaVuSans-44" d="M 1259 4147 
L 1259 519 
L 2022 519 
Q 2988 519 3436 956 
Q 3884 1394 3884 2338 
Q 3884 3275 3436 3711 
Q 2988 4147 2022 4147 
L 1259 4147 
z
M 628 4666 
L 1925 4666 
Q 3281 4666 3915 4102 
Q 4550 3538 4550 2338 
Q 4550 1131 3912 565 
Q 3275 0 1925 0 
L 628 0 
L 628 4666 
z
" transform="scale(0.015625)"/>
       <path id="DejaVuSans-50" d="M 1259 4147 
L 1259 2394 
L 2053 2394 
Q 2494 2394 2734 2622 
Q 2975 2850 2975 3272 
Q 2975 3691 2734 3919 
Q 2494 4147 2053 4147 
L 1259 4147 
z
M 628 4666 
L 2053 4666 
Q 2838 4666 3239 4311 
Q 3641 3956 3641 3272 
Q 3641 2581 3239 2228 
Q 2838 1875 2053 1875 
L 1259 1875 
L 1259 0 
L 628 0 
L 628 4666 
z
" transform="scale(0.015625)"/>
       <path id="DejaVuSans-29" d="M 513 4856 
L 1013 4856 
Q 1481 4119 1714 3412 
Q 1947 2706 1947 2009 
Q 1947 1309 1714 600 
Q 1481 -109 1013 -844 
L 513 -844 
Q 928 -128 1133 580 
Q 1338 1288 1338 2009 
Q 1338 2731 1133 3434 
Q 928 4138 513 4856 
z
" transform="scale(0.015625)"/>
      </defs>
      <use xlink:href="#DejaVuSans-61"/>
      <use xlink:href="#DejaVuSans-6c" x="61.279297"/>
      <use xlink:href="#DejaVuSans-70" x="89.0625"/>
      <use xlink:href="#DejaVuSans-68" x="152.539062"/>
      <use xlink:href="#DejaVuSans-61" x="215.917969"/>
      <use xlink:href="#DejaVuSans-20" x="277.197266"/>
      <use xlink:href="#DejaVuSans-28" x="308.984375"/>
      <use xlink:href="#DejaVuSans-44" x="347.998047"/>
      <use xlink:href="#DejaVuSans-49" x="425"/>
      <use xlink:href="#DejaVuSans-50" x="454.492188"/>
      <use xlink:href="#DejaVuSans-29" x="514.794922"/>
     </g>
    </g>
    <g id="line2d_27">
     <path d="M 307.012188 69.248563 
L 317.012188 69.248563 
L 327.012188 69.248563 
" style="fill: none; stroke: #ff7f0e; stroke-width: 1.5; stroke-linecap: square"/>
    </g>
    <g id="text_16">
     <!-- beta (PIP) -->
     <g transform="translate(335.012188 72.748563) scale(0.1 -0.1)">
      <defs>
       <path id="DejaVuSans-62" d="M 3116 1747 
Q 3116 2381 2855 2742 
Q 2594 3103 2138 3103 
Q 1681 3103 1420 2742 
Q 1159 2381 1159 1747 
Q 1159 1113 1420 752 
Q 1681 391 2138 391 
Q 2594 391 2855 752 
Q 3116 1113 3116 1747 
z
M 1159 2969 
Q 1341 3281 1617 3432 
Q 1894 3584 2278 3584 
Q 2916 3584 3314 3078 
Q 3713 2572 3713 1747 
Q 3713 922 3314 415 
Q 2916 -91 2278 -91 
Q 1894 -91 1617 61 
Q 1341 213 1159 525 
L 1159 0 
L 581 0 
L 581 4863 
L 1159 4863 
L 1159 2969 
z
" transform="scale(0.015625)"/>
      </defs>
      <use xlink:href="#DejaVuSans-62"/>
      <use xlink:href="#DejaVuSans-65" x="63.476562"/>
      <use xlink:href="#DejaVuSans-74" x="125"/>
      <use xlink:href="#DejaVuSans-61" x="164.208984"/>
      <use xlink:href="#DejaVuSans-20" x="225.488281"/>
      <use xlink:href="#DejaVuSans-28" x="257.275391"/>
      <use xlink:href="#DejaVuSans-50" x="296.289062"/>
      <use xlink:href="#DejaVuSans-49" x="356.591797"/>
      <use xlink:href="#DejaVuSans-50" x="386.083984"/>
      <use xlink:href="#DejaVuSans-29" x="446.386719"/>
     </g>
    </g>
    <g id="line2d_28">
     <path d="M 307.012188 83.926688 
L 317.012188 83.926688 
L 327.012188 83.926688 
" style="fill: none; stroke: #2ca02c; stroke-width: 1.5; stroke-linecap: square"/>
    </g>
    <g id="text_17">
     <!-- gamma (MCP) -->
     <g transform="translate(335.012188 87.426688) scale(0.1 -0.1)">
      <defs>
       <path id="DejaVuSans-4d" d="M 628 4666 
L 1569 4666 
L 2759 1491 
L 3956 4666 
L 4897 4666 
L 4897 0 
L 4281 0 
L 4281 4097 
L 3078 897 
L 2444 897 
L 1241 4097 
L 1241 0 
L 628 0 
L 628 4666 
z
" transform="scale(0.015625)"/>
       <path id="DejaVuSans-43" d="M 4122 4306 
L 4122 3641 
Q 3803 3938 3442 4084 
Q 3081 4231 2675 4231 
Q 1875 4231 1450 3742 
Q 1025 3253 1025 2328 
Q 1025 1406 1450 917 
Q 1875 428 2675 428 
Q 3081 428 3442 575 
Q 3803 722 4122 1019 
L 4122 359 
Q 3791 134 3420 21 
Q 3050 -91 2638 -91 
Q 1578 -91 968 557 
Q 359 1206 359 2328 
Q 359 3453 968 4101 
Q 1578 4750 2638 4750 
Q 3056 4750 3426 4639 
Q 3797 4528 4122 4306 
z
" transform="scale(0.015625)"/>
      </defs>
      <use xlink:href="#DejaVuSans-67"/>
      <use xlink:href="#DejaVuSans-61" x="63.476562"/>
      <use xlink:href="#DejaVuSans-6d" x="124.755859"/>
      <use xlink:href="#DejaVuSans-6d" x="222.167969"/>
      <use xlink:href="#DejaVuSans-61" x="319.580078"/>
      <use xlink:href="#DejaVuSans-20" x="380.859375"/>
      <use xlink:href="#DejaVuSans-28" x="412.646484"/>
      <use xlink:href="#DejaVuSans-4d" x="451.660156"/>
      <use xlink:href="#DejaVuSans-43" x="537.939453"/>
      <use xlink:href="#DejaVuSans-50" x="607.763672"/>
      <use xlink:href="#DejaVuSans-29" x="668.066406"/>
     </g>
    </g>
   </g>
  </g>
 </g>
 <defs>
  <clipPath id="p2ecf21eaec">
   <rect x="57.6" y="41.472" width="357.12" height="266.112"/>
  </clipPath>
 </defs>
</svg>
