<?xml version="1.0" encoding="utf-8" standalone="no"?>
<!DOCTYPE svg PUBLIC "-//W3C//DTD SVG 1.1//EN"
  "http://www.w3.org/Graphics/SVG/1.1/DTD/svg11.dtd">
<svg xmlns:xlink="http://www.w3.org/1999/xlink" width="460.8pt" height="345.6pt" viewBox="0 0 460.8 345.6" xmlns="http://www.w3.org/2000/svg" version="1.1">
 <metadata>
  <rdf:RDF xmlns:dc="http://purl.org/dc/elements/1.1/" xmlns:cc="http://creativecommons.org/ns#" xmlns:rdf="http://www.w3.org/1999/02/22-rdf-syntax-ns#">
   <cc:Work>
    <dc:type rdf:resource="http://purl.org/dc/dcmitype/StillImage"/>
    <dc:date>2023-07-25T11:24:15.347782</dc:date>
    <dc:format>image/svg+xml</dc:format>
    <dc:creator>
     <cc:Agent>
      <dc:title>Matplotlib v3.7.1, https://matplotlib.org/</dc:title>
     </cc:Agent>
    </dc:creator>
   </cc:Work>
  </rdf:RDF>
 </metadata>
 <defs>
  <style type="text/css">*{stroke-linejoin: round; stroke-linecap: butt}</style>
 </defs>
 <g id="figure_1">
  <g id="patch_1">
   <path d="M 0 345.6 
L 460.8 345.6 
L 460.8 0 
L 0 0 
z
" style="fill: #ffffff"/>
  </g>
  <g id="axes_1">
   <g id="patch_2">
    <path d="M 57.6 307.584 
L 414.72 307.584 
L 414.72 41.472 
L 57.6 41.472 
z
" style="fill: #ffffff"/>
   </g>
   <g id="matplotlib.axis_1">
    <g id="xtick_1">
     <g id="line2d_1">
      <path d="M 64.175902 307.584 
L 64.175902 41.472 
" clip-path="url(#pa5cac8fb48)" style="fill: none; stroke: #b0b0b0; stroke-width: 0.8; stroke-linecap: square"/>
     </g>
     <g id="line2d_2">
      <defs>
       <path id="mb9c83a9b25" d="M 0 0 
L 0 3.5 
" style="stroke: #000000; stroke-width: 0.8"/>
      </defs>
      <g>
       <use xlink:href="#mb9c83a9b25" x="64.175902" y="307.584" style="stroke: #000000; stroke-width: 0.8"/>
      </g>
     </g>
     <g id="text_1">
      <!-- 47 -->
      <g transform="translate(57.813402 322.182437) scale(0.1 -0.1)">
       <defs>
        <path id="DejaVuSans-34" d="M 2419 4116 
L 825 1625 
L 2419 1625 
L 2419 4116 
z
M 2253 4666 
L 3047 4666 
L 3047 1625 
L 3713 1625 
L 3713 1100 
L 3047 1100 
L 3047 0 
L 2419 0 
L 2419 1100 
L 313 1100 
L 313 1709 
L 2253 4666 
z
" transform="scale(0.015625)"/>
        <path id="DejaVuSans-37" d="M 525 4666 
L 3525 4666 
L 3525 4397 
L 1831 0 
L 1172 0 
L 2766 4134 
L 525 4134 
L 525 4666 
z
" transform="scale(0.015625)"/>
       </defs>
       <use xlink:href="#DejaVuSans-34"/>
       <use xlink:href="#DejaVuSans-37" x="63.623047"/>
      </g>
     </g>
    </g>
    <g id="xtick_2">
     <g id="line2d_3">
      <path d="M 89.933687 307.584 
L 89.933687 41.472 
" clip-path="url(#pa5cac8fb48)" style="fill: none; stroke: #b0b0b0; stroke-width: 0.8; stroke-linecap: square"/>
     </g>
     <g id="line2d_4">
      <g>
       <use xlink:href="#mb9c83a9b25" x="89.933687" y="307.584" style="stroke: #000000; stroke-width: 0.8"/>
      </g>
     </g>
     <g id="text_2">
      <!-- 48 -->
      <g transform="translate(83.571187 322.182437) scale(0.1 -0.1)">
       <defs>
        <path id="DejaVuSans-38" d="M 2034 2216 
Q 1584 2216 1326 1975 
Q 1069 1734 1069 1313 
Q 1069 891 1326 650 
Q 1584 409 2034 409 
Q 2484 409 2743 651 
Q 3003 894 3003 1313 
Q 3003 1734 2745 1975 
Q 2488 2216 2034 2216 
z
M 1403 2484 
Q 997 2584 770 2862 
Q 544 3141 544 3541 
Q 544 4100 942 4425 
Q 1341 4750 2034 4750 
Q 2731 4750 3128 4425 
Q 3525 4100 3525 3541 
Q 3525 3141 3298 2862 
Q 3072 2584 2669 2484 
Q 3125 2378 3379 2068 
Q 3634 1759 3634 1313 
Q 3634 634 3220 271 
Q 2806 -91 2034 -91 
Q 1263 -91 848 271 
Q 434 634 434 1313 
Q 434 1759 690 2068 
Q 947 2378 1403 2484 
z
M 1172 3481 
Q 1172 3119 1398 2916 
Q 1625 2713 2034 2713 
Q 2441 2713 2670 2916 
Q 2900 3119 2900 3481 
Q 2900 3844 2670 4047 
Q 2441 4250 2034 4250 
Q 1625 4250 1398 4047 
Q 1172 3844 1172 3481 
z
" transform="scale(0.015625)"/>
       </defs>
       <use xlink:href="#DejaVuSans-34"/>
       <use xlink:href="#DejaVuSans-38" x="63.623047"/>
      </g>
     </g>
    </g>
    <g id="xtick_3">
     <g id="line2d_5">
      <path d="M 115.691472 307.584 
L 115.691472 41.472 
" clip-path="url(#pa5cac8fb48)" style="fill: none; stroke: #b0b0b0; stroke-width: 0.8; stroke-linecap: square"/>
     </g>
     <g id="line2d_6">
      <g>
       <use xlink:href="#mb9c83a9b25" x="115.691472" y="307.584" style="stroke: #000000; stroke-width: 0.8"/>
      </g>
     </g>
     <g id="text_3">
      <!-- 49 -->
      <g transform="translate(109.328972 322.182437) scale(0.1 -0.1)">
       <defs>
        <path id="DejaVuSans-39" d="M 703 97 
L 703 672 
Q 941 559 1184 500 
Q 1428 441 1663 441 
Q 2288 441 2617 861 
Q 2947 1281 2994 2138 
Q 2813 1869 2534 1725 
Q 2256 1581 1919 1581 
Q 1219 1581 811 2004 
Q 403 2428 403 3163 
Q 403 3881 828 4315 
Q 1253 4750 1959 4750 
Q 2769 4750 3195 4129 
Q 3622 3509 3622 2328 
Q 3622 1225 3098 567 
Q 2575 -91 1691 -91 
Q 1453 -91 1209 -44 
Q 966 3 703 97 
z
M 1959 2075 
Q 2384 2075 2632 2365 
Q 2881 2656 2881 3163 
Q 2881 3666 2632 3958 
Q 2384 4250 1959 4250 
Q 1534 4250 1286 3958 
Q 1038 3666 1038 3163 
Q 1038 2656 1286 2365 
Q 1534 2075 1959 2075 
z
" transform="scale(0.015625)"/>
       </defs>
       <use xlink:href="#DejaVuSans-34"/>
       <use xlink:href="#DejaVuSans-39" x="63.623047"/>
      </g>
     </g>
    </g>
    <g id="xtick_4">
     <g id="line2d_7">
      <path d="M 141.449256 307.584 
L 141.449256 41.472 
" clip-path="url(#pa5cac8fb48)" style="fill: none; stroke: #b0b0b0; stroke-width: 0.8; stroke-linecap: square"/>
     </g>
     <g id="line2d_8">
      <g>
       <use xlink:href="#mb9c83a9b25" x="141.449256" y="307.584" style="stroke: #000000; stroke-width: 0.8"/>
      </g>
     </g>
     <g id="text_4">
      <!-- 50 -->
      <g transform="translate(135.086756 322.182437) scale(0.1 -0.1)">
       <defs>
        <path id="DejaVuSans-35" d="M 691 4666 
L 3169 4666 
L 3169 4134 
L 1269 4134 
L 1269 2991 
Q 1406 3038 1543 3061 
Q 1681 3084 1819 3084 
Q 2600 3084 3056 2656 
Q 3513 2228 3513 1497 
Q 3513 744 3044 326 
Q 2575 -91 1722 -91 
Q 1428 -91 1123 -41 
Q 819 9 494 109 
L 494 744 
Q 775 591 1075 516 
Q 1375 441 1709 441 
Q 2250 441 2565 725 
Q 2881 1009 2881 1497 
Q 2881 1984 2565 2268 
Q 2250 2553 1709 2553 
Q 1456 2553 1204 2497 
Q 953 2441 691 2322 
L 691 4666 
z
" transform="scale(0.015625)"/>
        <path id="DejaVuSans-30" d="M 2034 4250 
Q 1547 4250 1301 3770 
Q 1056 3291 1056 2328 
Q 1056 1369 1301 889 
Q 1547 409 2034 409 
Q 2525 409 2770 889 
Q 3016 1369 3016 2328 
Q 3016 3291 2770 3770 
Q 2525 4250 2034 4250 
z
M 2034 4750 
Q 2819 4750 3233 4129 
Q 3647 3509 3647 2328 
Q 3647 1150 3233 529 
Q 2819 -91 2034 -91 
Q 1250 -91 836 529 
Q 422 1150 422 2328 
Q 422 3509 836 4129 
Q 1250 4750 2034 4750 
z
" transform="scale(0.015625)"/>
       </defs>
       <use xlink:href="#DejaVuSans-35"/>
       <use xlink:href="#DejaVuSans-30" x="63.623047"/>
      </g>
     </g>
    </g>
    <g id="xtick_5">
     <g id="line2d_9">
      <path d="M 167.207041 307.584 
L 167.207041 41.472 
" clip-path="url(#pa5cac8fb48)" style="fill: none; stroke: #b0b0b0; stroke-width: 0.8; stroke-linecap: square"/>
     </g>
     <g id="line2d_10">
      <g>
       <use xlink:href="#mb9c83a9b25" x="167.207041" y="307.584" style="stroke: #000000; stroke-width: 0.8"/>
      </g>
     </g>
     <g id="text_5">
      <!-- 51 -->
      <g transform="translate(160.844541 322.182437) scale(0.1 -0.1)">
       <defs>
        <path id="DejaVuSans-31" d="M 794 531 
L 1825 531 
L 1825 4091 
L 703 3866 
L 703 4441 
L 1819 4666 
L 2450 4666 
L 2450 531 
L 3481 531 
L 3481 0 
L 794 0 
L 794 531 
z
" transform="scale(0.015625)"/>
       </defs>
       <use xlink:href="#DejaVuSans-35"/>
       <use xlink:href="#DejaVuSans-31" x="63.623047"/>
      </g>
     </g>
    </g>
    <g id="xtick_6">
     <g id="line2d_11">
      <path d="M 192.964826 307.584 
L 192.964826 41.472 
" clip-path="url(#pa5cac8fb48)" style="fill: none; stroke: #b0b0b0; stroke-width: 0.8; stroke-linecap: square"/>
     </g>
     <g id="line2d_12">
      <g>
       <use xlink:href="#mb9c83a9b25" x="192.964826" y="307.584" style="stroke: #000000; stroke-width: 0.8"/>
      </g>
     </g>
     <g id="text_6">
      <!-- 52 -->
      <g transform="translate(186.602326 322.182437) scale(0.1 -0.1)">
       <defs>
        <path id="DejaVuSans-32" d="M 1228 531 
L 3431 531 
L 3431 0 
L 469 0 
L 469 531 
Q 828 903 1448 1529 
Q 2069 2156 2228 2338 
Q 2531 2678 2651 2914 
Q 2772 3150 2772 3378 
Q 2772 3750 2511 3984 
Q 2250 4219 1831 4219 
Q 1534 4219 1204 4116 
Q 875 4013 500 3803 
L 500 4441 
Q 881 4594 1212 4672 
Q 1544 4750 1819 4750 
Q 2544 4750 2975 4387 
Q 3406 4025 3406 3419 
Q 3406 3131 3298 2873 
Q 3191 2616 2906 2266 
Q 2828 2175 2409 1742 
Q 1991 1309 1228 531 
z
" transform="scale(0.015625)"/>
       </defs>
       <use xlink:href="#DejaVuSans-35"/>
       <use xlink:href="#DejaVuSans-32" x="63.623047"/>
      </g>
     </g>
    </g>
    <g id="xtick_7">
     <g id="line2d_13">
      <path d="M 218.722611 307.584 
L 218.722611 41.472 
" clip-path="url(#pa5cac8fb48)" style="fill: none; stroke: #b0b0b0; stroke-width: 0.8; stroke-linecap: square"/>
     </g>
     <g id="line2d_14">
      <g>
       <use xlink:href="#mb9c83a9b25" x="218.722611" y="307.584" style="stroke: #000000; stroke-width: 0.8"/>
      </g>
     </g>
     <g id="text_7">
      <!-- 53 -->
      <g transform="translate(212.360111 322.182437) scale(0.1 -0.1)">
       <defs>
        <path id="DejaVuSans-33" d="M 2597 2516 
Q 3050 2419 3304 2112 
Q 3559 1806 3559 1356 
Q 3559 666 3084 287 
Q 2609 -91 1734 -91 
Q 1441 -91 1130 -33 
Q 819 25 488 141 
L 488 750 
Q 750 597 1062 519 
Q 1375 441 1716 441 
Q 2309 441 2620 675 
Q 2931 909 2931 1356 
Q 2931 1769 2642 2001 
Q 2353 2234 1838 2234 
L 1294 2234 
L 1294 2753 
L 1863 2753 
Q 2328 2753 2575 2939 
Q 2822 3125 2822 3475 
Q 2822 3834 2567 4026 
Q 2313 4219 1838 4219 
Q 1578 4219 1281 4162 
Q 984 4106 628 3988 
L 628 4550 
Q 988 4650 1302 4700 
Q 1616 4750 1894 4750 
Q 2613 4750 3031 4423 
Q 3450 4097 3450 3541 
Q 3450 3153 3228 2886 
Q 3006 2619 2597 2516 
z
" transform="scale(0.015625)"/>
       </defs>
       <use xlink:href="#DejaVuSans-35"/>
       <use xlink:href="#DejaVuSans-33" x="63.623047"/>
      </g>
     </g>
    </g>
    <g id="xtick_8">
     <g id="line2d_15">
      <path d="M 244.480396 307.584 
L 244.480396 41.472 
" clip-path="url(#pa5cac8fb48)" style="fill: none; stroke: #b0b0b0; stroke-width: 0.8; stroke-linecap: square"/>
     </g>
     <g id="line2d_16">
      <g>
       <use xlink:href="#mb9c83a9b25" x="244.480396" y="307.584" style="stroke: #000000; stroke-width: 0.8"/>
      </g>
     </g>
     <g id="text_8">
      <!-- 54 -->
      <g transform="translate(238.117896 322.182437) scale(0.1 -0.1)">
       <use xlink:href="#DejaVuSans-35"/>
       <use xlink:href="#DejaVuSans-34" x="63.623047"/>
      </g>
     </g>
    </g>
    <g id="xtick_9">
     <g id="line2d_17">
      <path d="M 270.23818 307.584 
L 270.23818 41.472 
" clip-path="url(#pa5cac8fb48)" style="fill: none; stroke: #b0b0b0; stroke-width: 0.8; stroke-linecap: square"/>
     </g>
     <g id="line2d_18">
      <g>
       <use xlink:href="#mb9c83a9b25" x="270.23818" y="307.584" style="stroke: #000000; stroke-width: 0.8"/>
      </g>
     </g>
     <g id="text_9">
      <!-- 55 -->
      <g transform="translate(263.87568 322.182437) scale(0.1 -0.1)">
       <use xlink:href="#DejaVuSans-35"/>
       <use xlink:href="#DejaVuSans-35" x="63.623047"/>
      </g>
     </g>
    </g>
    <g id="xtick_10">
     <g id="line2d_19">
      <path d="M 295.995965 307.584 
L 295.995965 41.472 
" clip-path="url(#pa5cac8fb48)" style="fill: none; stroke: #b0b0b0; stroke-width: 0.8; stroke-linecap: square"/>
     </g>
     <g id="line2d_20">
      <g>
       <use xlink:href="#mb9c83a9b25" x="295.995965" y="307.584" style="stroke: #000000; stroke-width: 0.8"/>
      </g>
     </g>
     <g id="text_10">
      <!-- 56 -->
      <g transform="translate(289.633465 322.182437) scale(0.1 -0.1)">
       <defs>
        <path id="DejaVuSans-36" d="M 2113 2584 
Q 1688 2584 1439 2293 
Q 1191 2003 1191 1497 
Q 1191 994 1439 701 
Q 1688 409 2113 409 
Q 2538 409 2786 701 
Q 3034 994 3034 1497 
Q 3034 2003 2786 2293 
Q 2538 2584 2113 2584 
z
M 3366 4563 
L 3366 3988 
Q 3128 4100 2886 4159 
Q 2644 4219 2406 4219 
Q 1781 4219 1451 3797 
Q 1122 3375 1075 2522 
Q 1259 2794 1537 2939 
Q 1816 3084 2150 3084 
Q 2853 3084 3261 2657 
Q 3669 2231 3669 1497 
Q 3669 778 3244 343 
Q 2819 -91 2113 -91 
Q 1303 -91 875 529 
Q 447 1150 447 2328 
Q 447 3434 972 4092 
Q 1497 4750 2381 4750 
Q 2619 4750 2861 4703 
Q 3103 4656 3366 4563 
z
" transform="scale(0.015625)"/>
       </defs>
       <use xlink:href="#DejaVuSans-35"/>
       <use xlink:href="#DejaVuSans-36" x="63.623047"/>
      </g>
     </g>
    </g>
    <g id="xtick_11">
     <g id="line2d_21">
      <path d="M 321.75375 307.584 
L 321.75375 41.472 
" clip-path="url(#pa5cac8fb48)" style="fill: none; stroke: #b0b0b0; stroke-width: 0.8; stroke-linecap: square"/>
     </g>
     <g id="line2d_22">
      <g>
       <use xlink:href="#mb9c83a9b25" x="321.75375" y="307.584" style="stroke: #000000; stroke-width: 0.8"/>
      </g>
     </g>
     <g id="text_11">
      <!-- 57 -->
      <g transform="translate(315.39125 322.182437) scale(0.1 -0.1)">
       <use xlink:href="#DejaVuSans-35"/>
       <use xlink:href="#DejaVuSans-37" x="63.623047"/>
      </g>
     </g>
    </g>
    <g id="xtick_12">
     <g id="line2d_23">
      <path d="M 347.511535 307.584 
L 347.511535 41.472 
" clip-path="url(#pa5cac8fb48)" style="fill: none; stroke: #b0b0b0; stroke-width: 0.8; stroke-linecap: square"/>
     </g>
     <g id="line2d_24">
      <g>
       <use xlink:href="#mb9c83a9b25" x="347.511535" y="307.584" style="stroke: #000000; stroke-width: 0.8"/>
      </g>
     </g>
     <g id="text_12">
      <!-- 58 -->
      <g transform="translate(341.149035 322.182437) scale(0.1 -0.1)">
       <use xlink:href="#DejaVuSans-35"/>
       <use xlink:href="#DejaVuSans-38" x="63.623047"/>
      </g>
     </g>
    </g>
    <g id="xtick_13">
     <g id="line2d_25">
      <path d="M 373.26932 307.584 
L 373.26932 41.472 
" clip-path="url(#pa5cac8fb48)" style="fill: none; stroke: #b0b0b0; stroke-width: 0.8; stroke-linecap: square"/>
     </g>
     <g id="line2d_26">
      <g>
       <use xlink:href="#mb9c83a9b25" x="373.26932" y="307.584" style="stroke: #000000; stroke-width: 0.8"/>
      </g>
     </g>
     <g id="text_13">
      <!-- 59 -->
      <g transform="translate(366.90682 322.182437) scale(0.1 -0.1)">
       <use xlink:href="#DejaVuSans-35"/>
       <use xlink:href="#DejaVuSans-39" x="63.623047"/>
      </g>
     </g>
    </g>
    <g id="text_14">
     <!-- time [sec] -->
     <g transform="translate(210.942813 335.860562) scale(0.1 -0.1)">
      <defs>
       <path id="DejaVuSans-74" d="M 1172 4494 
L 1172 3500 
L 2356 3500 
L 2356 3053 
L 1172 3053 
L 1172 1153 
Q 1172 725 1289 603 
Q 1406 481 1766 481 
L 2356 481 
L 2356 0 
L 1766 0 
Q 1100 0 847 248 
Q 594 497 594 1153 
L 594 3053 
L 172 3053 
L 172 3500 
L 594 3500 
L 594 4494 
L 1172 4494 
z
" transform="scale(0.015625)"/>
       <path id="DejaVuSans-69" d="M 603 3500 
L 1178 3500 
L 1178 0 
L 603 0 
L 603 3500 
z
M 603 4863 
L 1178 4863 
L 1178 4134 
L 603 4134 
L 603 4863 
z
" transform="scale(0.015625)"/>
       <path id="DejaVuSans-6d" d="M 3328 2828 
Q 3544 3216 3844 3400 
Q 4144 3584 4550 3584 
Q 5097 3584 5394 3201 
Q 5691 2819 5691 2113 
L 5691 0 
L 5113 0 
L 5113 2094 
Q 5113 2597 4934 2840 
Q 4756 3084 4391 3084 
Q 3944 3084 3684 2787 
Q 3425 2491 3425 1978 
L 3425 0 
L 2847 0 
L 2847 2094 
Q 2847 2600 2669 2842 
Q 2491 3084 2119 3084 
Q 1678 3084 1418 2786 
Q 1159 2488 1159 1978 
L 1159 0 
L 581 0 
L 581 3500 
L 1159 3500 
L 1159 2956 
Q 1356 3278 1631 3431 
Q 1906 3584 2284 3584 
Q 2666 3584 2933 3390 
Q 3200 3197 3328 2828 
z
" transform="scale(0.015625)"/>
       <path id="DejaVuSans-65" d="M 3597 1894 
L 3597 1613 
L 953 1613 
Q 991 1019 1311 708 
Q 1631 397 2203 397 
Q 2534 397 2845 478 
Q 3156 559 3463 722 
L 3463 178 
Q 3153 47 2828 -22 
Q 2503 -91 2169 -91 
Q 1331 -91 842 396 
Q 353 884 353 1716 
Q 353 2575 817 3079 
Q 1281 3584 2069 3584 
Q 2775 3584 3186 3129 
Q 3597 2675 3597 1894 
z
M 3022 2063 
Q 3016 2534 2758 2815 
Q 2500 3097 2075 3097 
Q 1594 3097 1305 2825 
Q 1016 2553 972 2059 
L 3022 2063 
z
" transform="scale(0.015625)"/>
       <path id="DejaVuSans-20" transform="scale(0.015625)"/>
       <path id="DejaVuSans-5b" d="M 550 4863 
L 1875 4863 
L 1875 4416 
L 1125 4416 
L 1125 -397 
L 1875 -397 
L 1875 -844 
L 550 -844 
L 550 4863 
z
" transform="scale(0.015625)"/>
       <path id="DejaVuSans-73" d="M 2834 3397 
L 2834 2853 
Q 2591 2978 2328 3040 
Q 2066 3103 1784 3103 
Q 1356 3103 1142 2972 
Q 928 2841 928 2578 
Q 928 2378 1081 2264 
Q 1234 2150 1697 2047 
L 1894 2003 
Q 2506 1872 2764 1633 
Q 3022 1394 3022 966 
Q 3022 478 2636 193 
Q 2250 -91 1575 -91 
Q 1294 -91 989 -36 
Q 684 19 347 128 
L 347 722 
Q 666 556 975 473 
Q 1284 391 1588 391 
Q 1994 391 2212 530 
Q 2431 669 2431 922 
Q 2431 1156 2273 1281 
Q 2116 1406 1581 1522 
L 1381 1569 
Q 847 1681 609 1914 
Q 372 2147 372 2553 
Q 372 3047 722 3315 
Q 1072 3584 1716 3584 
Q 2034 3584 2315 3537 
Q 2597 3491 2834 3397 
z
" transform="scale(0.015625)"/>
       <path id="DejaVuSans-63" d="M 3122 3366 
L 3122 2828 
Q 2878 2963 2633 3030 
Q 2388 3097 2138 3097 
Q 1578 3097 1268 2742 
Q 959 2388 959 1747 
Q 959 1106 1268 751 
Q 1578 397 2138 397 
Q 2388 397 2633 464 
Q 2878 531 3122 666 
L 3122 134 
Q 2881 22 2623 -34 
Q 2366 -91 2075 -91 
Q 1284 -91 818 406 
Q 353 903 353 1747 
Q 353 2603 823 3093 
Q 1294 3584 2113 3584 
Q 2378 3584 2631 3529 
Q 2884 3475 3122 3366 
z
" transform="scale(0.015625)"/>
       <path id="DejaVuSans-5d" d="M 1947 4863 
L 1947 -844 
L 622 -844 
L 622 -397 
L 1369 -397 
L 1369 4416 
L 622 4416 
L 622 4863 
L 1947 4863 
z
" transform="scale(0.015625)"/>
      </defs>
      <use xlink:href="#DejaVuSans-74"/>
      <use xlink:href="#DejaVuSans-69" x="39.208984"/>
      <use xlink:href="#DejaVuSans-6d" x="66.992188"/>
      <use xlink:href="#DejaVuSans-65" x="164.404297"/>
      <use xlink:href="#DejaVuSans-20" x="225.927734"/>
      <use xlink:href="#DejaVuSans-5b" x="257.714844"/>
      <use xlink:href="#DejaVuSans-73" x="296.728516"/>
      <use xlink:href="#DejaVuSans-65" x="348.828125"/>
      <use xlink:href="#DejaVuSans-63" x="410.351562"/>
      <use xlink:href="#DejaVuSans-5d" x="465.332031"/>
     </g>
    </g>
   </g>
   <g id="matplotlib.axis_2">
    <g id="ytick_1">
     <g id="line2d_27">
      <path d="M 57.6 301.733128 
L 414.72 301.733128 
" clip-path="url(#pa5cac8fb48)" style="fill: none; stroke: #b0b0b0; stroke-width: 0.8; stroke-linecap: square"/>
     </g>
     <g id="line2d_28">
      <defs>
       <path id="m3489c80bb0" d="M 0 0 
L -3.5 0 
" style="stroke: #000000; stroke-width: 0.8"/>
      </defs>
      <g>
       <use xlink:href="#m3489c80bb0" x="57.6" y="301.733128" style="stroke: #000000; stroke-width: 0.8"/>
      </g>
     </g>
     <g id="text_15">
      <!-- −20 -->
      <g transform="translate(29.495313 305.532347) scale(0.1 -0.1)">
       <defs>
        <path id="DejaVuSans-2212" d="M 678 2272 
L 4684 2272 
L 4684 1741 
L 678 1741 
L 678 2272 
z
" transform="scale(0.015625)"/>
       </defs>
       <use xlink:href="#DejaVuSans-2212"/>
       <use xlink:href="#DejaVuSans-32" x="83.789062"/>
       <use xlink:href="#DejaVuSans-30" x="147.412109"/>
      </g>
     </g>
    </g>
    <g id="ytick_2">
     <g id="line2d_29">
      <path d="M 57.6 267.33547 
L 414.72 267.33547 
" clip-path="url(#pa5cac8fb48)" style="fill: none; stroke: #b0b0b0; stroke-width: 0.8; stroke-linecap: square"/>
     </g>
     <g id="line2d_30">
      <g>
       <use xlink:href="#m3489c80bb0" x="57.6" y="267.33547" style="stroke: #000000; stroke-width: 0.8"/>
      </g>
     </g>
     <g id="text_16">
      <!-- −10 -->
      <g transform="translate(29.495313 271.134689) scale(0.1 -0.1)">
       <use xlink:href="#DejaVuSans-2212"/>
       <use xlink:href="#DejaVuSans-31" x="83.789062"/>
       <use xlink:href="#DejaVuSans-30" x="147.412109"/>
      </g>
     </g>
    </g>
    <g id="ytick_3">
     <g id="line2d_31">
      <path d="M 57.6 232.937812 
L 414.72 232.937812 
" clip-path="url(#pa5cac8fb48)" style="fill: none; stroke: #b0b0b0; stroke-width: 0.8; stroke-linecap: square"/>
     </g>
     <g id="line2d_32">
      <g>
       <use xlink:href="#m3489c80bb0" x="57.6" y="232.937812" style="stroke: #000000; stroke-width: 0.8"/>
      </g>
     </g>
     <g id="text_17">
      <!-- 0 -->
      <g transform="translate(44.2375 236.737031) scale(0.1 -0.1)">
       <use xlink:href="#DejaVuSans-30"/>
      </g>
     </g>
    </g>
    <g id="ytick_4">
     <g id="line2d_33">
      <path d="M 57.6 198.540154 
L 414.72 198.540154 
" clip-path="url(#pa5cac8fb48)" style="fill: none; stroke: #b0b0b0; stroke-width: 0.8; stroke-linecap: square"/>
     </g>
     <g id="line2d_34">
      <g>
       <use xlink:href="#m3489c80bb0" x="57.6" y="198.540154" style="stroke: #000000; stroke-width: 0.8"/>
      </g>
     </g>
     <g id="text_18">
      <!-- 10 -->
      <g transform="translate(37.875 202.339373) scale(0.1 -0.1)">
       <use xlink:href="#DejaVuSans-31"/>
       <use xlink:href="#DejaVuSans-30" x="63.623047"/>
      </g>
     </g>
    </g>
    <g id="ytick_5">
     <g id="line2d_35">
      <path d="M 57.6 164.142496 
L 414.72 164.142496 
" clip-path="url(#pa5cac8fb48)" style="fill: none; stroke: #b0b0b0; stroke-width: 0.8; stroke-linecap: square"/>
     </g>
     <g id="line2d_36">
      <g>
       <use xlink:href="#m3489c80bb0" x="57.6" y="164.142496" style="stroke: #000000; stroke-width: 0.8"/>
      </g>
     </g>
     <g id="text_19">
      <!-- 20 -->
      <g transform="translate(37.875 167.941714) scale(0.1 -0.1)">
       <use xlink:href="#DejaVuSans-32"/>
       <use xlink:href="#DejaVuSans-30" x="63.623047"/>
      </g>
     </g>
    </g>
    <g id="ytick_6">
     <g id="line2d_37">
      <path d="M 57.6 129.744838 
L 414.72 129.744838 
" clip-path="url(#pa5cac8fb48)" style="fill: none; stroke: #b0b0b0; stroke-width: 0.8; stroke-linecap: square"/>
     </g>
     <g id="line2d_38">
      <g>
       <use xlink:href="#m3489c80bb0" x="57.6" y="129.744838" style="stroke: #000000; stroke-width: 0.8"/>
      </g>
     </g>
     <g id="text_20">
      <!-- 30 -->
      <g transform="translate(37.875 133.544056) scale(0.1 -0.1)">
       <use xlink:href="#DejaVuSans-33"/>
       <use xlink:href="#DejaVuSans-30" x="63.623047"/>
      </g>
     </g>
    </g>
    <g id="ytick_7">
     <g id="line2d_39">
      <path d="M 57.6 95.347179 
L 414.72 95.347179 
" clip-path="url(#pa5cac8fb48)" style="fill: none; stroke: #b0b0b0; stroke-width: 0.8; stroke-linecap: square"/>
     </g>
     <g id="line2d_40">
      <g>
       <use xlink:href="#m3489c80bb0" x="57.6" y="95.347179" style="stroke: #000000; stroke-width: 0.8"/>
      </g>
     </g>
     <g id="text_21">
      <!-- 40 -->
      <g transform="translate(37.875 99.146398) scale(0.1 -0.1)">
       <use xlink:href="#DejaVuSans-34"/>
       <use xlink:href="#DejaVuSans-30" x="63.623047"/>
      </g>
     </g>
    </g>
    <g id="ytick_8">
     <g id="line2d_41">
      <path d="M 57.6 60.949521 
L 414.72 60.949521 
" clip-path="url(#pa5cac8fb48)" style="fill: none; stroke: #b0b0b0; stroke-width: 0.8; stroke-linecap: square"/>
     </g>
     <g id="line2d_42">
      <g>
       <use xlink:href="#m3489c80bb0" x="57.6" y="60.949521" style="stroke: #000000; stroke-width: 0.8"/>
      </g>
     </g>
     <g id="text_22">
      <!-- 50 -->
      <g transform="translate(37.875 64.74874) scale(0.1 -0.1)">
       <use xlink:href="#DejaVuSans-35"/>
       <use xlink:href="#DejaVuSans-30" x="63.623047"/>
      </g>
     </g>
    </g>
    <g id="text_23">
     <!-- angle [°] -->
     <g transform="translate(23.415625 196.391281) rotate(-90) scale(0.1 -0.1)">
      <defs>
       <path id="DejaVuSans-61" d="M 2194 1759 
Q 1497 1759 1228 1600 
Q 959 1441 959 1056 
Q 959 750 1161 570 
Q 1363 391 1709 391 
Q 2188 391 2477 730 
Q 2766 1069 2766 1631 
L 2766 1759 
L 2194 1759 
z
M 3341 1997 
L 3341 0 
L 2766 0 
L 2766 531 
Q 2569 213 2275 61 
Q 1981 -91 1556 -91 
Q 1019 -91 701 211 
Q 384 513 384 1019 
Q 384 1609 779 1909 
Q 1175 2209 1959 2209 
L 2766 2209 
L 2766 2266 
Q 2766 2663 2505 2880 
Q 2244 3097 1772 3097 
Q 1472 3097 1187 3025 
Q 903 2953 641 2809 
L 641 3341 
Q 956 3463 1253 3523 
Q 1550 3584 1831 3584 
Q 2591 3584 2966 3190 
Q 3341 2797 3341 1997 
z
" transform="scale(0.015625)"/>
       <path id="DejaVuSans-6e" d="M 3513 2113 
L 3513 0 
L 2938 0 
L 2938 2094 
Q 2938 2591 2744 2837 
Q 2550 3084 2163 3084 
Q 1697 3084 1428 2787 
Q 1159 2491 1159 1978 
L 1159 0 
L 581 0 
L 581 3500 
L 1159 3500 
L 1159 2956 
Q 1366 3272 1645 3428 
Q 1925 3584 2291 3584 
Q 2894 3584 3203 3211 
Q 3513 2838 3513 2113 
z
" transform="scale(0.015625)"/>
       <path id="DejaVuSans-67" d="M 2906 1791 
Q 2906 2416 2648 2759 
Q 2391 3103 1925 3103 
Q 1463 3103 1205 2759 
Q 947 2416 947 1791 
Q 947 1169 1205 825 
Q 1463 481 1925 481 
Q 2391 481 2648 825 
Q 2906 1169 2906 1791 
z
M 3481 434 
Q 3481 -459 3084 -895 
Q 2688 -1331 1869 -1331 
Q 1566 -1331 1297 -1286 
Q 1028 -1241 775 -1147 
L 775 -588 
Q 1028 -725 1275 -790 
Q 1522 -856 1778 -856 
Q 2344 -856 2625 -561 
Q 2906 -266 2906 331 
L 2906 616 
Q 2728 306 2450 153 
Q 2172 0 1784 0 
Q 1141 0 747 490 
Q 353 981 353 1791 
Q 353 2603 747 3093 
Q 1141 3584 1784 3584 
Q 2172 3584 2450 3431 
Q 2728 3278 2906 2969 
L 2906 3500 
L 3481 3500 
L 3481 434 
z
" transform="scale(0.015625)"/>
       <path id="DejaVuSans-6c" d="M 603 4863 
L 1178 4863 
L 1178 0 
L 603 0 
L 603 4863 
z
" transform="scale(0.015625)"/>
       <path id="DejaVuSans-b0" d="M 1600 4347 
Q 1350 4347 1178 4173 
Q 1006 4000 1006 3750 
Q 1006 3503 1178 3333 
Q 1350 3163 1600 3163 
Q 1850 3163 2022 3333 
Q 2194 3503 2194 3750 
Q 2194 3997 2020 4172 
Q 1847 4347 1600 4347 
z
M 1600 4750 
Q 1800 4750 1984 4673 
Q 2169 4597 2303 4453 
Q 2447 4313 2519 4134 
Q 2591 3956 2591 3750 
Q 2591 3338 2302 3052 
Q 2013 2766 1594 2766 
Q 1172 2766 890 3047 
Q 609 3328 609 3750 
Q 609 4169 896 4459 
Q 1184 4750 1600 4750 
z
" transform="scale(0.015625)"/>
      </defs>
      <use xlink:href="#DejaVuSans-61"/>
      <use xlink:href="#DejaVuSans-6e" x="61.279297"/>
      <use xlink:href="#DejaVuSans-67" x="124.658203"/>
      <use xlink:href="#DejaVuSans-6c" x="188.134766"/>
      <use xlink:href="#DejaVuSans-65" x="215.917969"/>
      <use xlink:href="#DejaVuSans-20" x="277.441406"/>
      <use xlink:href="#DejaVuSans-5b" x="309.228516"/>
      <use xlink:href="#DejaVuSans-b0" x="348.242188"/>
      <use xlink:href="#DejaVuSans-5d" x="398.242188"/>
     </g>
    </g>
   </g>
   <g id="line2d_43">
    <path d="M 73.832727 283.521668 
L 75.479088 291.583124 
L 76.417856 292.016653 
L 77.230952 291.654606 
L 78.159726 289.438318 
L 78.996931 289.495656 
L 79.807452 288.071408 
L 80.734912 286.026274 
L 81.562793 281.316436 
L 82.3839 274.399841 
L 83.329777 267.730041 
L 84.138108 256.345577 
L 85.06562 245.060961 
L 85.887242 225.993292 
L 87.636762 196.279115 
L 90.2154 151.272161 
L 91.965512 123.992771 
L 92.790611 113.488644 
L 93.613701 106.8205 
L 94.541136 105.14331 
L 95.365797 104.019041 
L 96.294855 103.937678 
L 97.119362 102.702193 
L 98.87442 97.544383 
L 99.699261 93.81601 
L 101.465833 88.967129 
L 104.055418 84.103276 
L 104.843812 81.144213 
L 105.783534 80.430148 
L 106.603919 79.647932 
L 107.533002 79.39708 
L 108.365751 80.735974 
L 109.171841 94.714621 
L 110.104479 115.884841 
L 110.932644 128.032689 
L 113.509349 225.125901 
L 114.449045 246.916497 
L 116.082964 264.970475 
L 117.008055 271.924772 
L 119.591638 283.332505 
L 120.406022 285.057671 
L 121.33016 285.151782 
L 122.155826 285.015594 
L 122.979096 283.949062 
L 123.904702 283.799049 
L 124.728899 283.809261 
L 125.660636 281.589051 
L 126.479527 276.287502 
L 127.716777 272.564837 
L 128.232757 266.341178 
L 129.05971 259.354101 
L 129.90982 250.676579 
L 130.811652 239.2587 
L 131.694912 219.322377 
L 134.2812 184.133772 
L 135.156295 177.154758 
L 135.961148 165.509411 
L 137.709896 151.050675 
L 138.53126 139.510809 
L 139.456377 129.813902 
L 141.104102 110.013032 
L 142.031331 105.16245 
L 142.860242 98.279156 
L 143.810704 94.51755 
L 144.615403 91.815314 
L 145.437927 88.564889 
L 148.147903 81.326048 
L 148.960845 80.420752 
L 151.535928 76.583008 
L 152.335475 76.464672 
L 153.261313 76.488259 
L 154.088163 82.020054 
L 155.012121 95.678288 
L 155.873925 99.965172 
L 156.671437 112.866662 
L 157.597816 122.054519 
L 159.343447 162.460753 
L 160.167129 188.526446 
L 160.988829 223.666917 
L 161.922085 245.229186 
L 163.564272 260.395049 
L 164.49284 262.76436 
L 165.316471 270.245902 
L 167.892095 283.352244 
L 169.646484 290.668142 
L 170.467255 291.714021 
L 172.223962 287.420763 
L 173.177953 283.375158 
L 175.751001 266.487409 
L 177.374901 249.777463 
L 178.354341 238.754418 
L 179.122721 213.797136 
L 180.880072 187.531938 
L 181.698963 164.90231 
L 182.658441 148.865779 
L 183.459946 133.561115 
L 185.240401 106.47305 
L 186.067252 96.238274 
L 186.998215 90.302186 
L 188.613975 84.274536 
L 189.530334 81.420865 
L 190.383561 79.497081 
L 191.287968 77.148563 
L 192.954085 70.587105 
L 193.881983 68.680291 
L 194.680784 66.771447 
L 195.713439 65.831761 
L 196.535267 65.754517 
L 198.208853 68.056764 
L 199.022027 70.340246 
L 199.914766 74.467791 
L 201.586858 83.997613 
L 202.541854 88.022841 
L 203.362265 89.039853 
L 205.09427 93.241601 
L 205.911333 95.335906 
L 208.513925 103.161583 
L 209.413516 111.555687 
L 210.241113 126.270459 
L 211.08754 136.082768 
L 211.992617 155.175553 
L 212.839095 176.424653 
L 214.62702 239.490121 
L 215.389785 251.322234 
L 217.141469 269.207631 
L 217.970844 275.060684 
L 218.89238 276.622833 
L 219.721008 279.23074 
L 220.646795 281.265198 
L 221.467721 284.707231 
L 222.292047 285.71125 
L 224.04453 286.961644 
L 224.870221 286.596913 
L 225.799356 284.200389 
L 226.620926 278.590068 
L 227.564717 270.480701 
L 228.40097 260.923829 
L 230.14915 238.875951 
L 230.95063 220.021083 
L 231.880846 206.354802 
L 232.699789 187.304061 
L 233.52731 163.962367 
L 234.475686 150.961874 
L 236.129104 120.905511 
L 237.849028 99.533567 
L 239.609856 92.169569 
L 241.352988 84.381936 
L 243.11173 79.018468 
L 243.933996 75.668773 
L 244.779624 74.029009 
L 247.54127 70.626579 
L 248.361347 69.838193 
L 249.091786 69.773913 
L 250.07017 70.692261 
L 250.832626 75.982952 
L 251.656077 79.861819 
L 252.586808 84.822473 
L 253.408121 87.862957 
L 255.164519 93.120151 
L 257.778032 117.573466 
L 258.564623 138.156428 
L 259.543059 155.300743 
L 260.364603 183.016165 
L 261.245468 219.663811 
L 262.078938 245.081452 
L 262.945688 262.176039 
L 264.396109 263.429289 
L 264.715686 273.272353 
L 265.50274 282.988889 
L 266.418327 286.373391 
L 267.217024 290.129198 
L 268.209549 292.032779 
L 269.824072 292.740288 
L 270.755371 292.247262 
L 271.81278 290.867115 
L 272.437921 288.848075 
L 273.306757 283.333572 
L 274.205729 272.598273 
L 275.879779 246.886183 
L 276.717628 228.646636 
L 280.302236 168.148253 
L 281.031362 152.930335 
L 281.958719 141.309751 
L 282.779723 121.937068 
L 285.35563 92.100009 
L 286.287186 86.070545 
L 287.120116 82.239182 
L 287.964198 79.593381 
L 288.956182 77.858986 
L 291.440778 72.198799 
L 292.26307 69.391418 
L 293.216211 67.917642 
L 294.013466 65.786654 
L 295.774963 63.233769 
L 297.514876 58.573001 
L 298.368953 56.903687 
L 299.185294 55.868628 
L 300.097532 55.837274 
L 300.949651 56.651096 
L 301.740981 62.322618 
L 302.669086 71.674437 
L 303.490888 76.784546 
L 304.416237 79.551051 
L 305.240614 86.420244 
L 306.066744 103.35878 
L 306.994848 114.770315 
L 307.817475 134.190483 
L 308.759282 152.605339 
L 309.569184 175.725316 
L 310.422128 218.616895 
L 311.334906 243.537515 
L 312.144757 254.765606 
L 312.964163 269.515938 
L 313.897523 279.788849 
L 314.715925 286.37584 
L 316.483398 291.228665 
L 317.29464 292.408362 
L 318.220529 292.689349 
L 319.057193 292.441926 
L 319.86931 290.527411 
L 320.818588 281.368083 
L 322.558629 253.7301 
L 323.397328 242.397743 
L 324.207617 214.91344 
L 326.88689 168.145584 
L 327.716291 153.176973 
L 328.534847 140.609816 
L 331.146507 111.633812 
L 334.661568 89.261633 
L 336.358981 82.058585 
L 337.199148 79.641992 
L 338.135727 77.941751 
L 338.937129 75.606211 
L 339.766426 73.833387 
L 340.693732 69.680813 
L 341.511413 64.942017 
L 342.338084 59.442173 
L 343.269253 57.144818 
L 344.087218 55.652589 
L 345.014369 54.866752 
L 345.844027 54.462983 
L 346.663898 53.90986 
L 347.591049 53.568 
L 348.41996 54.021244 
L 349.241531 57.46761 
L 350.166184 65.445582 
L 350.995971 74.598479 
L 351.916811 81.026876 
L 352.744409 87.833201 
L 354.49277 117.643231 
L 355.341026 143.293946 
L 356.245897 175.097574 
L 357.894343 250.769432 
L 358.820258 263.373489 
L 359.646594 276.547249 
L 360.468988 287.418843 
L 361.401163 290.853703 
L 362.401183 289.322715 
L 363.160316 292.636218 
L 364.007644 293.65479 
L 364.796142 294.396759 
L 365.723242 295.488 
L 366.549423 294.840831 
L 367.375217 293.801416 
L 368.299535 286.871642 
L 370.051786 256.675295 
L 370.874824 238.530823 
L 371.699254 211.036771 
L 372.639052 193.260594 
L 373.451685 174.129944 
L 374.379119 156.220212 
L 375.206743 143.182442 
L 376.026536 133.459557 
L 377.78229 116.099152 
L 378.604323 106.186397 
L 379.531964 101.259597 
L 380.356703 91.314104 
L 381.285348 85.581239 
L 382.105116 78.640698 
L 382.936139 75.152954 
L 383.858474 72.31491 
L 385.639444 67.987961 
L 386.435102 66.043942 
L 388.186142 61.274872 
L 389.011937 59.268375 
L 389.835748 58.278246 
L 390.760968 57.827549 
L 392.525376 55.705641 
L 393.343417 55.134625 
L 394.163288 55.212367 
L 395.114883 55.41449 
L 395.913169 56.140099 
L 396.739118 58.170909 
L 397.672502 64.648054 
L 398.487273 76.807772 
L 398.487273 76.807772 
" clip-path="url(#pa5cac8fb48)" style="fill: none; stroke: #1f77b4; stroke-width: 1.5; stroke-linecap: square"/>
   </g>
   <g id="line2d_44">
    <path d="M 73.832727 257.468865 
L 74.655637 257.406169 
L 75.479088 260.304016 
L 76.417856 260.519177 
L 77.230952 260.361717 
L 78.159726 257.470942 
L 79.807452 257.139204 
L 80.734912 257.074879 
L 82.3839 258.104494 
L 83.329777 259.242612 
L 84.138108 260.727812 
L 85.06562 203.76044 
L 85.887242 201.962232 
L 86.722773 199.588833 
L 87.636762 198.056425 
L 89.397719 193.416725 
L 90.2154 190.604891 
L 91.068755 188.742201 
L 91.965512 187.918857 
L 92.790611 187.781804 
L 93.613701 187.454867 
L 96.294855 186.860057 
L 97.119362 187.369226 
L 97.946161 186.825775 
L 98.87442 186.822847 
L 99.699261 187.210566 
L 100.696242 187.379428 
L 102.285163 186.677848 
L 103.209352 185.957466 
L 104.843812 185.222704 
L 105.783534 184.189389 
L 106.603919 184.661784 
L 107.533002 184.706428 
L 108.365751 184.515767 
L 109.171841 185.788039 
L 110.104479 188.456999 
L 110.932644 191.445509 
L 111.752334 196.966114 
L 112.684662 200.063296 
L 113.509349 203.995585 
L 114.449045 262.067675 
L 116.082964 258.89197 
L 117.008055 257.946232 
L 117.838795 258.029228 
L 118.757112 257.943974 
L 119.591638 257.513014 
L 120.406022 257.24206 
L 122.155826 257.16206 
L 122.979096 257.286404 
L 124.728899 256.642609 
L 125.660636 256.803561 
L 126.479527 257.629342 
L 127.716777 257.817703 
L 128.232757 258.942341 
L 129.05971 259.774389 
L 129.90982 205.047736 
L 130.811652 203.382431 
L 131.694912 201.409948 
L 132.617453 199.642268 
L 133.381815 198.6433 
L 134.2812 196.615944 
L 135.156295 195.397708 
L 135.961148 193.667004 
L 136.88745 192.846368 
L 138.53126 188.816949 
L 139.456377 188.084468 
L 140.282532 188.243345 
L 141.104102 187.041963 
L 142.031331 187.133922 
L 142.860242 186.562892 
L 143.810704 186.533487 
L 144.615403 186.844692 
L 145.437927 186.342928 
L 146.384654 186.206884 
L 147.196333 185.563938 
L 148.147903 186.133473 
L 148.960845 185.911324 
L 149.768789 185.836404 
L 150.686693 184.936248 
L 151.535928 184.533506 
L 152.335475 183.509605 
L 153.261313 183.556903 
L 154.088163 184.862027 
L 155.012121 186.905793 
L 155.873925 187.177887 
L 156.671437 189.189793 
L 157.597816 189.047423 
L 158.416759 194.168963 
L 159.343447 197.164092 
L 160.167129 201.286202 
L 160.988829 204.068563 
L 161.922085 261.004825 
L 162.741002 260.624694 
L 163.564272 258.935525 
L 164.49284 259.034754 
L 165.316471 257.613819 
L 167.070911 258.170513 
L 167.892095 258.230922 
L 168.818989 257.894535 
L 169.646484 260.504031 
L 170.467255 260.438163 
L 171.393686 257.736948 
L 172.223962 257.55199 
L 173.177953 257.560538 
L 173.973663 257.976656 
L 175.751001 259.400821 
L 176.547381 260.495292 
L 177.374901 203.959656 
L 178.354341 201.92857 
L 179.122721 199.953608 
L 180.088458 198.49316 
L 180.880072 196.979522 
L 181.698963 192.597633 
L 182.658441 189.740726 
L 183.459946 186.358944 
L 185.240401 182.931761 
L 186.067252 183.499851 
L 186.998215 183.669458 
L 187.806881 182.270556 
L 188.613975 181.875865 
L 189.530334 181.101994 
L 190.383561 179.756123 
L 192.105314 177.57858 
L 192.954085 176.804528 
L 194.680784 174.93739 
L 195.713439 174.293068 
L 198.208853 174.326376 
L 199.022027 175.117302 
L 200.758565 177.497617 
L 201.586858 179.186363 
L 202.541854 180.665726 
L 203.362265 181.190941 
L 204.161632 182.448663 
L 205.911333 184.07253 
L 206.839437 184.568489 
L 207.663815 185.454315 
L 208.513925 186.756165 
L 209.413516 189.463154 
L 210.241113 192.518583 
L 211.08754 193.222271 
L 211.992617 196.042854 
L 212.839095 199.126084 
L 213.846482 201.941006 
L 214.62702 261.177011 
L 215.389785 261.219177 
L 216.318122 259.261264 
L 217.141469 258.917721 
L 217.970844 258.301546 
L 218.89238 258.300843 
L 219.721008 257.538484 
L 221.467721 254.99766 
L 223.22502 254.15944 
L 224.04453 253.827778 
L 224.870221 254.143427 
L 226.620926 255.77874 
L 227.564717 257.534097 
L 228.40097 260.678861 
L 229.218882 262.80356 
L 230.14915 201.241799 
L 230.95063 200.622346 
L 231.880846 198.666599 
L 232.699789 197.514861 
L 233.52731 193.94953 
L 234.475686 192.021734 
L 235.275053 188.643893 
L 236.129104 189.521729 
L 237.032712 187.733474 
L 237.849028 187.208904 
L 238.809124 186.253552 
L 239.609856 186.055719 
L 240.428361 186.319282 
L 241.352988 185.35134 
L 243.11173 185.0404 
L 243.933996 184.601335 
L 244.779624 184.758105 
L 245.707883 184.781256 
L 246.518145 183.692625 
L 248.361347 183.077298 
L 249.091786 182.525916 
L 250.07017 182.436432 
L 251.656077 184.942719 
L 252.586808 185.225194 
L 253.408121 185.18959 
L 254.359098 185.683663 
L 255.164519 186.90089 
L 255.984157 188.70759 
L 256.937478 190.193451 
L 257.778032 191.105797 
L 259.543059 196.493486 
L 260.364603 200.359254 
L 261.245468 202.266848 
L 262.078938 261.627049 
L 262.945688 250.820236 
L 264.396109 255.433842 
L 264.715686 258.832565 
L 265.50274 256.05043 
L 266.418327 255.935275 
L 267.217024 261.125165 
L 268.209549 260.937323 
L 268.997892 261.042079 
L 269.824072 260.841008 
L 270.755371 261.009247 
L 271.81278 261.055849 
L 272.437921 255.45392 
L 273.306757 256.451291 
L 274.205729 258.983361 
L 275.151581 261.104286 
L 275.879779 260.733285 
L 276.717628 199.930553 
L 277.728209 199.723797 
L 278.552845 197.632762 
L 281.031362 193.614655 
L 281.958719 191.511196 
L 282.779723 192.150875 
L 283.807175 192.405279 
L 284.534266 192.156664 
L 285.35563 190.569741 
L 286.287186 190.548166 
L 287.120116 188.449485 
L 287.964198 187.432241 
L 288.956182 187.479344 
L 289.686622 187.748883 
L 290.642802 187.725837 
L 291.440778 187.019588 
L 292.26307 186.044878 
L 293.216211 185.246945 
L 294.013466 185.103258 
L 294.841501 184.086992 
L 295.774963 183.428033 
L 296.59674 182.697957 
L 298.368953 181.935582 
L 299.185294 181.276237 
L 300.949651 180.977456 
L 301.740981 180.389161 
L 302.669086 182.258296 
L 303.490888 182.716367 
L 304.416237 183.619179 
L 305.240614 185.215535 
L 306.066744 189.115132 
L 307.817475 193.497623 
L 308.759282 197.199009 
L 309.569184 199.10049 
L 310.422128 202.763209 
L 311.334906 261.634981 
L 312.144757 260.955142 
L 312.964163 258.792286 
L 313.897523 257.152403 
L 314.715925 259.670853 
L 315.67329 259.655913 
L 316.483398 261.300492 
L 317.29464 254.880042 
L 318.220529 261.208143 
L 319.057193 261.409581 
L 319.86931 260.581419 
L 320.818588 257.838511 
L 321.633229 256.826566 
L 322.558629 257.096481 
L 323.397328 204.801474 
L 324.207617 200.099917 
L 325.99106 197.40168 
L 327.716291 193.532853 
L 328.534847 192.217612 
L 329.481626 190.985476 
L 330.311748 189.387207 
L 332.064282 188.277247 
L 332.863752 186.492524 
L 333.783846 185.741042 
L 334.661568 185.342798 
L 335.460832 184.194166 
L 336.358981 184.992372 
L 337.199148 183.638058 
L 338.135727 183.701371 
L 338.937129 184.079116 
L 339.766426 181.898856 
L 341.511413 179.327233 
L 342.338084 176.295056 
L 343.269253 175.049934 
L 344.087218 173.024763 
L 345.844027 171.056533 
L 346.663898 170.585643 
L 347.591049 170.320363 
L 348.41996 170.551004 
L 349.241531 171.753279 
L 350.166184 174.044023 
L 350.995971 177.796413 
L 351.916811 179.347914 
L 352.744409 182.166183 
L 355.341026 194.872675 
L 357.070403 202.022227 
L 357.894343 261.053187 
L 358.820258 260.667011 
L 359.646594 258.864903 
L 360.468988 261.277345 
L 361.401163 261.53856 
L 362.401183 250.88638 
L 363.160316 252.820613 
L 364.007644 253.896938 
L 364.796142 255.094429 
L 365.723242 256.719659 
L 366.549423 249.237138 
L 367.375217 257.674293 
L 368.299535 260.865899 
L 369.126721 260.84721 
L 370.051786 262.317534 
L 370.874824 201.41918 
L 371.699254 200.175127 
L 372.639052 197.128053 
L 374.379119 192.35212 
L 375.206743 189.602615 
L 376.026536 186.469494 
L 376.955336 185.508183 
L 377.78229 185.52532 
L 378.604323 186.203265 
L 379.531964 185.392785 
L 380.356703 185.843039 
L 381.285348 185.541394 
L 382.105116 184.463936 
L 382.936139 182.878924 
L 383.858474 183.557938 
L 384.681306 183.188106 
L 385.639444 183.279341 
L 386.435102 182.12979 
L 388.186142 180.734401 
L 389.011937 179.514677 
L 389.835748 179.131748 
L 390.760968 178.956729 
L 391.611284 178.434309 
L 392.525376 178.472618 
L 395.913169 177.726383 
L 396.739118 178.344485 
L 397.672502 180.36378 
L 398.487273 181.542188 
L 398.487273 181.542188 
" clip-path="url(#pa5cac8fb48)" style="fill: none; stroke: #ff7f0e; stroke-width: 1.5; stroke-linecap: square"/>
   </g>
   <g id="patch_3">
    <path d="M 57.6 307.584 
L 57.6 41.472 
" style="fill: none; stroke: #000000; stroke-width: 0.8; stroke-linejoin: miter; stroke-linecap: square"/>
   </g>
   <g id="patch_4">
    <path d="M 414.72 307.584 
L 414.72 41.472 
" style="fill: none; stroke: #000000; stroke-width: 0.8; stroke-linejoin: miter; stroke-linecap: square"/>
   </g>
   <g id="patch_5">
    <path d="M 57.6 307.584 
L 414.72 307.584 
" style="fill: none; stroke: #000000; stroke-width: 0.8; stroke-linejoin: miter; stroke-linecap: square"/>
   </g>
   <g id="patch_6">
    <path d="M 57.6 41.472 
L 414.72 41.472 
" style="fill: none; stroke: #000000; stroke-width: 0.8; stroke-linejoin: miter; stroke-linecap: square"/>
   </g>
   <g id="text_24">
    <!-- Angles in Thumb joints -->
    <g transform="translate(167.56125 35.472) scale(0.12 -0.12)">
     <defs>
      <path id="DejaVuSans-41" d="M 2188 4044 
L 1331 1722 
L 3047 1722 
L 2188 4044 
z
M 1831 4666 
L 2547 4666 
L 4325 0 
L 3669 0 
L 3244 1197 
L 1141 1197 
L 716 0 
L 50 0 
L 1831 4666 
z
" transform="scale(0.015625)"/>
      <path id="DejaVuSans-54" d="M -19 4666 
L 3928 4666 
L 3928 4134 
L 2272 4134 
L 2272 0 
L 1638 0 
L 1638 4134 
L -19 4134 
L -19 4666 
z
" transform="scale(0.015625)"/>
      <path id="DejaVuSans-68" d="M 3513 2113 
L 3513 0 
L 2938 0 
L 2938 2094 
Q 2938 2591 2744 2837 
Q 2550 3084 2163 3084 
Q 1697 3084 1428 2787 
Q 1159 2491 1159 1978 
L 1159 0 
L 581 0 
L 581 4863 
L 1159 4863 
L 1159 2956 
Q 1366 3272 1645 3428 
Q 1925 3584 2291 3584 
Q 2894 3584 3203 3211 
Q 3513 2838 3513 2113 
z
" transform="scale(0.015625)"/>
      <path id="DejaVuSans-75" d="M 544 1381 
L 544 3500 
L 1119 3500 
L 1119 1403 
Q 1119 906 1312 657 
Q 1506 409 1894 409 
Q 2359 409 2629 706 
Q 2900 1003 2900 1516 
L 2900 3500 
L 3475 3500 
L 3475 0 
L 2900 0 
L 2900 538 
Q 2691 219 2414 64 
Q 2138 -91 1772 -91 
Q 1169 -91 856 284 
Q 544 659 544 1381 
z
M 1991 3584 
L 1991 3584 
z
" transform="scale(0.015625)"/>
      <path id="DejaVuSans-62" d="M 3116 1747 
Q 3116 2381 2855 2742 
Q 2594 3103 2138 3103 
Q 1681 3103 1420 2742 
Q 1159 2381 1159 1747 
Q 1159 1113 1420 752 
Q 1681 391 2138 391 
Q 2594 391 2855 752 
Q 3116 1113 3116 1747 
z
M 1159 2969 
Q 1341 3281 1617 3432 
Q 1894 3584 2278 3584 
Q 2916 3584 3314 3078 
Q 3713 2572 3713 1747 
Q 3713 922 3314 415 
Q 2916 -91 2278 -91 
Q 1894 -91 1617 61 
Q 1341 213 1159 525 
L 1159 0 
L 581 0 
L 581 4863 
L 1159 4863 
L 1159 2969 
z
" transform="scale(0.015625)"/>
      <path id="DejaVuSans-6a" d="M 603 3500 
L 1178 3500 
L 1178 -63 
Q 1178 -731 923 -1031 
Q 669 -1331 103 -1331 
L -116 -1331 
L -116 -844 
L 38 -844 
Q 366 -844 484 -692 
Q 603 -541 603 -63 
L 603 3500 
z
M 603 4863 
L 1178 4863 
L 1178 4134 
L 603 4134 
L 603 4863 
z
" transform="scale(0.015625)"/>
      <path id="DejaVuSans-6f" d="M 1959 3097 
Q 1497 3097 1228 2736 
Q 959 2375 959 1747 
Q 959 1119 1226 758 
Q 1494 397 1959 397 
Q 2419 397 2687 759 
Q 2956 1122 2956 1747 
Q 2956 2369 2687 2733 
Q 2419 3097 1959 3097 
z
M 1959 3584 
Q 2709 3584 3137 3096 
Q 3566 2609 3566 1747 
Q 3566 888 3137 398 
Q 2709 -91 1959 -91 
Q 1206 -91 779 398 
Q 353 888 353 1747 
Q 353 2609 779 3096 
Q 1206 3584 1959 3584 
z
" transform="scale(0.015625)"/>
     </defs>
     <use xlink:href="#DejaVuSans-41"/>
     <use xlink:href="#DejaVuSans-6e" x="68.408203"/>
     <use xlink:href="#DejaVuSans-67" x="131.787109"/>
     <use xlink:href="#DejaVuSans-6c" x="195.263672"/>
     <use xlink:href="#DejaVuSans-65" x="223.046875"/>
     <use xlink:href="#DejaVuSans-73" x="284.570312"/>
     <use xlink:href="#DejaVuSans-20" x="336.669922"/>
     <use xlink:href="#DejaVuSans-69" x="368.457031"/>
     <use xlink:href="#DejaVuSans-6e" x="396.240234"/>
     <use xlink:href="#DejaVuSans-20" x="459.619141"/>
     <use xlink:href="#DejaVuSans-54" x="491.40625"/>
     <use xlink:href="#DejaVuSans-68" x="552.490234"/>
     <use xlink:href="#DejaVuSans-75" x="615.869141"/>
     <use xlink:href="#DejaVuSans-6d" x="679.248047"/>
     <use xlink:href="#DejaVuSans-62" x="776.660156"/>
     <use xlink:href="#DejaVuSans-20" x="840.136719"/>
     <use xlink:href="#DejaVuSans-6a" x="871.923828"/>
     <use xlink:href="#DejaVuSans-6f" x="899.707031"/>
     <use xlink:href="#DejaVuSans-69" x="960.888672"/>
     <use xlink:href="#DejaVuSans-6e" x="988.671875"/>
     <use xlink:href="#DejaVuSans-74" x="1052.050781"/>
     <use xlink:href="#DejaVuSans-73" x="1091.259766"/>
    </g>
   </g>
   <g id="legend_1">
    <g id="patch_7">
     <path d="M 314.005938 78.82825 
L 407.72 78.82825 
Q 409.72 78.82825 409.72 76.82825 
L 409.72 48.472 
Q 409.72 46.472 407.72 46.472 
L 314.005938 46.472 
Q 312.005938 46.472 312.005938 48.472 
L 312.005938 76.82825 
Q 312.005938 78.82825 314.005938 78.82825 
z
" style="fill: #ffffff; opacity: 0.8; stroke: #cccccc; stroke-linejoin: miter"/>
    </g>
    <g id="line2d_45">
     <path d="M 316.005938 54.570437 
L 326.005938 54.570437 
L 336.005938 54.570437 
" style="fill: none; stroke: #1f77b4; stroke-width: 1.5; stroke-linecap: square"/>
    </g>
    <g id="text_25">
     <!-- delta (DIP) -->
     <g transform="translate(344.005938 58.070437) scale(0.1 -0.1)">
      <defs>
       <path id="DejaVuSans-64" d="M 2906 2969 
L 2906 4863 
L 3481 4863 
L 3481 0 
L 2906 0 
L 2906 525 
Q 2725 213 2448 61 
Q 2172 -91 1784 -91 
Q 1150 -91 751 415 
Q 353 922 353 1747 
Q 353 2572 751 3078 
Q 1150 3584 1784 3584 
Q 2172 3584 2448 3432 
Q 2725 3281 2906 2969 
z
M 947 1747 
Q 947 1113 1208 752 
Q 1469 391 1925 391 
Q 2381 391 2643 752 
Q 2906 1113 2906 1747 
Q 2906 2381 2643 2742 
Q 2381 3103 1925 3103 
Q 1469 3103 1208 2742 
Q 947 2381 947 1747 
z
" transform="scale(0.015625)"/>
       <path id="DejaVuSans-28" d="M 1984 4856 
Q 1566 4138 1362 3434 
Q 1159 2731 1159 2009 
Q 1159 1288 1364 580 
Q 1569 -128 1984 -844 
L 1484 -844 
Q 1016 -109 783 600 
Q 550 1309 550 2009 
Q 550 2706 781 3412 
Q 1013 4119 1484 4856 
L 1984 4856 
z
" transform="scale(0.015625)"/>
       <path id="DejaVuSans-44" d="M 1259 4147 
L 1259 519 
L 2022 519 
Q 2988 519 3436 956 
Q 3884 1394 3884 2338 
Q 3884 3275 3436 3711 
Q 2988 4147 2022 4147 
L 1259 4147 
z
M 628 4666 
L 1925 4666 
Q 3281 4666 3915 4102 
Q 4550 3538 4550 2338 
Q 4550 1131 3912 565 
Q 3275 0 1925 0 
L 628 0 
L 628 4666 
z
" transform="scale(0.015625)"/>
       <path id="DejaVuSans-49" d="M 628 4666 
L 1259 4666 
L 1259 0 
L 628 0 
L 628 4666 
z
" transform="scale(0.015625)"/>
       <path id="DejaVuSans-50" d="M 1259 4147 
L 1259 2394 
L 2053 2394 
Q 2494 2394 2734 2622 
Q 2975 2850 2975 3272 
Q 2975 3691 2734 3919 
Q 2494 4147 2053 4147 
L 1259 4147 
z
M 628 4666 
L 2053 4666 
Q 2838 4666 3239 4311 
Q 3641 3956 3641 3272 
Q 3641 2581 3239 2228 
Q 2838 1875 2053 1875 
L 1259 1875 
L 1259 0 
L 628 0 
L 628 4666 
z
" transform="scale(0.015625)"/>
       <path id="DejaVuSans-29" d="M 513 4856 
L 1013 4856 
Q 1481 4119 1714 3412 
Q 1947 2706 1947 2009 
Q 1947 1309 1714 600 
Q 1481 -109 1013 -844 
L 513 -844 
Q 928 -128 1133 580 
Q 1338 1288 1338 2009 
Q 1338 2731 1133 3434 
Q 928 4138 513 4856 
z
" transform="scale(0.015625)"/>
      </defs>
      <use xlink:href="#DejaVuSans-64"/>
      <use xlink:href="#DejaVuSans-65" x="63.476562"/>
      <use xlink:href="#DejaVuSans-6c" x="125"/>
      <use xlink:href="#DejaVuSans-74" x="152.783203"/>
      <use xlink:href="#DejaVuSans-61" x="191.992188"/>
      <use xlink:href="#DejaVuSans-20" x="253.271484"/>
      <use xlink:href="#DejaVuSans-28" x="285.058594"/>
      <use xlink:href="#DejaVuSans-44" x="324.072266"/>
      <use xlink:href="#DejaVuSans-49" x="401.074219"/>
      <use xlink:href="#DejaVuSans-50" x="430.566406"/>
      <use xlink:href="#DejaVuSans-29" x="490.869141"/>
     </g>
    </g>
    <g id="line2d_46">
     <path d="M 316.005938 69.248562 
L 326.005938 69.248562 
L 336.005938 69.248562 
" style="fill: none; stroke: #ff7f0e; stroke-width: 1.5; stroke-linecap: square"/>
    </g>
    <g id="text_26">
     <!-- epsilon (PIP) -->
     <g transform="translate(344.005938 72.748562) scale(0.1 -0.1)">
      <defs>
       <path id="DejaVuSans-70" d="M 1159 525 
L 1159 -1331 
L 581 -1331 
L 581 3500 
L 1159 3500 
L 1159 2969 
Q 1341 3281 1617 3432 
Q 1894 3584 2278 3584 
Q 2916 3584 3314 3078 
Q 3713 2572 3713 1747 
Q 3713 922 3314 415 
Q 2916 -91 2278 -91 
Q 1894 -91 1617 61 
Q 1341 213 1159 525 
z
M 3116 1747 
Q 3116 2381 2855 2742 
Q 2594 3103 2138 3103 
Q 1681 3103 1420 2742 
Q 1159 2381 1159 1747 
Q 1159 1113 1420 752 
Q 1681 391 2138 391 
Q 2594 391 2855 752 
Q 3116 1113 3116 1747 
z
" transform="scale(0.015625)"/>
      </defs>
      <use xlink:href="#DejaVuSans-65"/>
      <use xlink:href="#DejaVuSans-70" x="61.523438"/>
      <use xlink:href="#DejaVuSans-73" x="125"/>
      <use xlink:href="#DejaVuSans-69" x="177.099609"/>
      <use xlink:href="#DejaVuSans-6c" x="204.882812"/>
      <use xlink:href="#DejaVuSans-6f" x="232.666016"/>
      <use xlink:href="#DejaVuSans-6e" x="293.847656"/>
      <use xlink:href="#DejaVuSans-20" x="357.226562"/>
      <use xlink:href="#DejaVuSans-28" x="389.013672"/>
      <use xlink:href="#DejaVuSans-50" x="428.027344"/>
      <use xlink:href="#DejaVuSans-49" x="488.330078"/>
      <use xlink:href="#DejaVuSans-50" x="517.822266"/>
      <use xlink:href="#DejaVuSans-29" x="578.125"/>
     </g>
    </g>
   </g>
  </g>
 </g>
 <defs>
  <clipPath id="pa5cac8fb48">
   <rect x="57.6" y="41.472" width="357.12" height="266.112"/>
  </clipPath>
 </defs>
</svg>
