<?xml version="1.0" encoding="utf-8" standalone="no"?>
<!DOCTYPE svg PUBLIC "-//W3C//DTD SVG 1.1//EN"
  "http://www.w3.org/Graphics/SVG/1.1/DTD/svg11.dtd">
<svg xmlns:xlink="http://www.w3.org/1999/xlink" width="460.8pt" height="345.6pt" viewBox="0 0 460.8 345.6" xmlns="http://www.w3.org/2000/svg" version="1.1">
 <metadata>
  <rdf:RDF xmlns:dc="http://purl.org/dc/elements/1.1/" xmlns:cc="http://creativecommons.org/ns#" xmlns:rdf="http://www.w3.org/1999/02/22-rdf-syntax-ns#">
   <cc:Work>
    <dc:type rdf:resource="http://purl.org/dc/dcmitype/StillImage"/>
    <dc:date>2023-07-24T09:59:07.292303</dc:date>
    <dc:format>image/svg+xml</dc:format>
    <dc:creator>
     <cc:Agent>
      <dc:title>Matplotlib v3.7.1, https://matplotlib.org/</dc:title>
     </cc:Agent>
    </dc:creator>
   </cc:Work>
  </rdf:RDF>
 </metadata>
 <defs>
  <style type="text/css">*{stroke-linejoin: round; stroke-linecap: butt}</style>
 </defs>
 <g id="figure_1">
  <g id="patch_1">
   <path d="M 0 345.6 
L 460.8 345.6 
L 460.8 0 
L 0 0 
z
" style="fill: #ffffff"/>
  </g>
  <g id="axes_1">
   <g id="patch_2">
    <path d="M 57.6 307.584 
L 414.72 307.584 
L 414.72 41.472 
L 57.6 41.472 
z
" style="fill: #ffffff"/>
   </g>
   <g id="matplotlib.axis_1">
    <g id="xtick_1">
     <g id="line2d_1">
      <path d="M 65.905404 307.584 
L 65.905404 41.472 
" clip-path="url(#p49e44c9b0c)" style="fill: none; stroke: #b0b0b0; stroke-width: 0.8; stroke-linecap: square"/>
     </g>
     <g id="line2d_2">
      <defs>
       <path id="m61da344dfe" d="M 0 0 
L 0 3.5 
" style="stroke: #000000; stroke-width: 0.8"/>
      </defs>
      <g>
       <use xlink:href="#m61da344dfe" x="65.905404" y="307.584" style="stroke: #000000; stroke-width: 0.8"/>
      </g>
     </g>
     <g id="text_1">
      <!-- 30 -->
      <g transform="translate(59.542904 322.182437) scale(0.1 -0.1)">
       <defs>
        <path id="DejaVuSans-33" d="M 2597 2516 
Q 3050 2419 3304 2112 
Q 3559 1806 3559 1356 
Q 3559 666 3084 287 
Q 2609 -91 1734 -91 
Q 1441 -91 1130 -33 
Q 819 25 488 141 
L 488 750 
Q 750 597 1062 519 
Q 1375 441 1716 441 
Q 2309 441 2620 675 
Q 2931 909 2931 1356 
Q 2931 1769 2642 2001 
Q 2353 2234 1838 2234 
L 1294 2234 
L 1294 2753 
L 1863 2753 
Q 2328 2753 2575 2939 
Q 2822 3125 2822 3475 
Q 2822 3834 2567 4026 
Q 2313 4219 1838 4219 
Q 1578 4219 1281 4162 
Q 984 4106 628 3988 
L 628 4550 
Q 988 4650 1302 4700 
Q 1616 4750 1894 4750 
Q 2613 4750 3031 4423 
Q 3450 4097 3450 3541 
Q 3450 3153 3228 2886 
Q 3006 2619 2597 2516 
z
" transform="scale(0.015625)"/>
        <path id="DejaVuSans-30" d="M 2034 4250 
Q 1547 4250 1301 3770 
Q 1056 3291 1056 2328 
Q 1056 1369 1301 889 
Q 1547 409 2034 409 
Q 2525 409 2770 889 
Q 3016 1369 3016 2328 
Q 3016 3291 2770 3770 
Q 2525 4250 2034 4250 
z
M 2034 4750 
Q 2819 4750 3233 4129 
Q 3647 3509 3647 2328 
Q 3647 1150 3233 529 
Q 2819 -91 2034 -91 
Q 1250 -91 836 529 
Q 422 1150 422 2328 
Q 422 3509 836 4129 
Q 1250 4750 2034 4750 
z
" transform="scale(0.015625)"/>
       </defs>
       <use xlink:href="#DejaVuSans-33"/>
       <use xlink:href="#DejaVuSans-30" x="63.623047"/>
      </g>
     </g>
    </g>
    <g id="xtick_2">
     <g id="line2d_3">
      <path d="M 140.503011 307.584 
L 140.503011 41.472 
" clip-path="url(#p49e44c9b0c)" style="fill: none; stroke: #b0b0b0; stroke-width: 0.8; stroke-linecap: square"/>
     </g>
     <g id="line2d_4">
      <g>
       <use xlink:href="#m61da344dfe" x="140.503011" y="307.584" style="stroke: #000000; stroke-width: 0.8"/>
      </g>
     </g>
     <g id="text_2">
      <!-- 35 -->
      <g transform="translate(134.140511 322.182437) scale(0.1 -0.1)">
       <defs>
        <path id="DejaVuSans-35" d="M 691 4666 
L 3169 4666 
L 3169 4134 
L 1269 4134 
L 1269 2991 
Q 1406 3038 1543 3061 
Q 1681 3084 1819 3084 
Q 2600 3084 3056 2656 
Q 3513 2228 3513 1497 
Q 3513 744 3044 326 
Q 2575 -91 1722 -91 
Q 1428 -91 1123 -41 
Q 819 9 494 109 
L 494 744 
Q 775 591 1075 516 
Q 1375 441 1709 441 
Q 2250 441 2565 725 
Q 2881 1009 2881 1497 
Q 2881 1984 2565 2268 
Q 2250 2553 1709 2553 
Q 1456 2553 1204 2497 
Q 953 2441 691 2322 
L 691 4666 
z
" transform="scale(0.015625)"/>
       </defs>
       <use xlink:href="#DejaVuSans-33"/>
       <use xlink:href="#DejaVuSans-35" x="63.623047"/>
      </g>
     </g>
    </g>
    <g id="xtick_3">
     <g id="line2d_5">
      <path d="M 215.100618 307.584 
L 215.100618 41.472 
" clip-path="url(#p49e44c9b0c)" style="fill: none; stroke: #b0b0b0; stroke-width: 0.8; stroke-linecap: square"/>
     </g>
     <g id="line2d_6">
      <g>
       <use xlink:href="#m61da344dfe" x="215.100618" y="307.584" style="stroke: #000000; stroke-width: 0.8"/>
      </g>
     </g>
     <g id="text_3">
      <!-- 40 -->
      <g transform="translate(208.738118 322.182437) scale(0.1 -0.1)">
       <defs>
        <path id="DejaVuSans-34" d="M 2419 4116 
L 825 1625 
L 2419 1625 
L 2419 4116 
z
M 2253 4666 
L 3047 4666 
L 3047 1625 
L 3713 1625 
L 3713 1100 
L 3047 1100 
L 3047 0 
L 2419 0 
L 2419 1100 
L 313 1100 
L 313 1709 
L 2253 4666 
z
" transform="scale(0.015625)"/>
       </defs>
       <use xlink:href="#DejaVuSans-34"/>
       <use xlink:href="#DejaVuSans-30" x="63.623047"/>
      </g>
     </g>
    </g>
    <g id="xtick_4">
     <g id="line2d_7">
      <path d="M 289.698225 307.584 
L 289.698225 41.472 
" clip-path="url(#p49e44c9b0c)" style="fill: none; stroke: #b0b0b0; stroke-width: 0.8; stroke-linecap: square"/>
     </g>
     <g id="line2d_8">
      <g>
       <use xlink:href="#m61da344dfe" x="289.698225" y="307.584" style="stroke: #000000; stroke-width: 0.8"/>
      </g>
     </g>
     <g id="text_4">
      <!-- 45 -->
      <g transform="translate(283.335725 322.182437) scale(0.1 -0.1)">
       <use xlink:href="#DejaVuSans-34"/>
       <use xlink:href="#DejaVuSans-35" x="63.623047"/>
      </g>
     </g>
    </g>
    <g id="xtick_5">
     <g id="line2d_9">
      <path d="M 364.295832 307.584 
L 364.295832 41.472 
" clip-path="url(#p49e44c9b0c)" style="fill: none; stroke: #b0b0b0; stroke-width: 0.8; stroke-linecap: square"/>
     </g>
     <g id="line2d_10">
      <g>
       <use xlink:href="#m61da344dfe" x="364.295832" y="307.584" style="stroke: #000000; stroke-width: 0.8"/>
      </g>
     </g>
     <g id="text_5">
      <!-- 50 -->
      <g transform="translate(357.933332 322.182437) scale(0.1 -0.1)">
       <use xlink:href="#DejaVuSans-35"/>
       <use xlink:href="#DejaVuSans-30" x="63.623047"/>
      </g>
     </g>
    </g>
    <g id="text_6">
     <!-- time [sec] -->
     <g transform="translate(210.942813 335.860562) scale(0.1 -0.1)">
      <defs>
       <path id="DejaVuSans-74" d="M 1172 4494 
L 1172 3500 
L 2356 3500 
L 2356 3053 
L 1172 3053 
L 1172 1153 
Q 1172 725 1289 603 
Q 1406 481 1766 481 
L 2356 481 
L 2356 0 
L 1766 0 
Q 1100 0 847 248 
Q 594 497 594 1153 
L 594 3053 
L 172 3053 
L 172 3500 
L 594 3500 
L 594 4494 
L 1172 4494 
z
" transform="scale(0.015625)"/>
       <path id="DejaVuSans-69" d="M 603 3500 
L 1178 3500 
L 1178 0 
L 603 0 
L 603 3500 
z
M 603 4863 
L 1178 4863 
L 1178 4134 
L 603 4134 
L 603 4863 
z
" transform="scale(0.015625)"/>
       <path id="DejaVuSans-6d" d="M 3328 2828 
Q 3544 3216 3844 3400 
Q 4144 3584 4550 3584 
Q 5097 3584 5394 3201 
Q 5691 2819 5691 2113 
L 5691 0 
L 5113 0 
L 5113 2094 
Q 5113 2597 4934 2840 
Q 4756 3084 4391 3084 
Q 3944 3084 3684 2787 
Q 3425 2491 3425 1978 
L 3425 0 
L 2847 0 
L 2847 2094 
Q 2847 2600 2669 2842 
Q 2491 3084 2119 3084 
Q 1678 3084 1418 2786 
Q 1159 2488 1159 1978 
L 1159 0 
L 581 0 
L 581 3500 
L 1159 3500 
L 1159 2956 
Q 1356 3278 1631 3431 
Q 1906 3584 2284 3584 
Q 2666 3584 2933 3390 
Q 3200 3197 3328 2828 
z
" transform="scale(0.015625)"/>
       <path id="DejaVuSans-65" d="M 3597 1894 
L 3597 1613 
L 953 1613 
Q 991 1019 1311 708 
Q 1631 397 2203 397 
Q 2534 397 2845 478 
Q 3156 559 3463 722 
L 3463 178 
Q 3153 47 2828 -22 
Q 2503 -91 2169 -91 
Q 1331 -91 842 396 
Q 353 884 353 1716 
Q 353 2575 817 3079 
Q 1281 3584 2069 3584 
Q 2775 3584 3186 3129 
Q 3597 2675 3597 1894 
z
M 3022 2063 
Q 3016 2534 2758 2815 
Q 2500 3097 2075 3097 
Q 1594 3097 1305 2825 
Q 1016 2553 972 2059 
L 3022 2063 
z
" transform="scale(0.015625)"/>
       <path id="DejaVuSans-20" transform="scale(0.015625)"/>
       <path id="DejaVuSans-5b" d="M 550 4863 
L 1875 4863 
L 1875 4416 
L 1125 4416 
L 1125 -397 
L 1875 -397 
L 1875 -844 
L 550 -844 
L 550 4863 
z
" transform="scale(0.015625)"/>
       <path id="DejaVuSans-73" d="M 2834 3397 
L 2834 2853 
Q 2591 2978 2328 3040 
Q 2066 3103 1784 3103 
Q 1356 3103 1142 2972 
Q 928 2841 928 2578 
Q 928 2378 1081 2264 
Q 1234 2150 1697 2047 
L 1894 2003 
Q 2506 1872 2764 1633 
Q 3022 1394 3022 966 
Q 3022 478 2636 193 
Q 2250 -91 1575 -91 
Q 1294 -91 989 -36 
Q 684 19 347 128 
L 347 722 
Q 666 556 975 473 
Q 1284 391 1588 391 
Q 1994 391 2212 530 
Q 2431 669 2431 922 
Q 2431 1156 2273 1281 
Q 2116 1406 1581 1522 
L 1381 1569 
Q 847 1681 609 1914 
Q 372 2147 372 2553 
Q 372 3047 722 3315 
Q 1072 3584 1716 3584 
Q 2034 3584 2315 3537 
Q 2597 3491 2834 3397 
z
" transform="scale(0.015625)"/>
       <path id="DejaVuSans-63" d="M 3122 3366 
L 3122 2828 
Q 2878 2963 2633 3030 
Q 2388 3097 2138 3097 
Q 1578 3097 1268 2742 
Q 959 2388 959 1747 
Q 959 1106 1268 751 
Q 1578 397 2138 397 
Q 2388 397 2633 464 
Q 2878 531 3122 666 
L 3122 134 
Q 2881 22 2623 -34 
Q 2366 -91 2075 -91 
Q 1284 -91 818 406 
Q 353 903 353 1747 
Q 353 2603 823 3093 
Q 1294 3584 2113 3584 
Q 2378 3584 2631 3529 
Q 2884 3475 3122 3366 
z
" transform="scale(0.015625)"/>
       <path id="DejaVuSans-5d" d="M 1947 4863 
L 1947 -844 
L 622 -844 
L 622 -397 
L 1369 -397 
L 1369 4416 
L 622 4416 
L 622 4863 
L 1947 4863 
z
" transform="scale(0.015625)"/>
      </defs>
      <use xlink:href="#DejaVuSans-74"/>
      <use xlink:href="#DejaVuSans-69" x="39.208984"/>
      <use xlink:href="#DejaVuSans-6d" x="66.992188"/>
      <use xlink:href="#DejaVuSans-65" x="164.404297"/>
      <use xlink:href="#DejaVuSans-20" x="225.927734"/>
      <use xlink:href="#DejaVuSans-5b" x="257.714844"/>
      <use xlink:href="#DejaVuSans-73" x="296.728516"/>
      <use xlink:href="#DejaVuSans-65" x="348.828125"/>
      <use xlink:href="#DejaVuSans-63" x="410.351562"/>
      <use xlink:href="#DejaVuSans-5d" x="465.332031"/>
     </g>
    </g>
   </g>
   <g id="matplotlib.axis_2">
    <g id="ytick_1">
     <g id="line2d_11">
      <path d="M 57.6 296.874758 
L 414.72 296.874758 
" clip-path="url(#p49e44c9b0c)" style="fill: none; stroke: #b0b0b0; stroke-width: 0.8; stroke-linecap: square"/>
     </g>
     <g id="line2d_12">
      <defs>
       <path id="mc87583d9b4" d="M 0 0 
L -3.5 0 
" style="stroke: #000000; stroke-width: 0.8"/>
      </defs>
      <g>
       <use xlink:href="#mc87583d9b4" x="57.6" y="296.874758" style="stroke: #000000; stroke-width: 0.8"/>
      </g>
     </g>
     <g id="text_7">
      <!-- 0.0 -->
      <g transform="translate(34.696875 300.673976) scale(0.1 -0.1)">
       <defs>
        <path id="DejaVuSans-2e" d="M 684 794 
L 1344 794 
L 1344 0 
L 684 0 
L 684 794 
z
" transform="scale(0.015625)"/>
       </defs>
       <use xlink:href="#DejaVuSans-30"/>
       <use xlink:href="#DejaVuSans-2e" x="63.623047"/>
       <use xlink:href="#DejaVuSans-30" x="95.410156"/>
      </g>
     </g>
    </g>
    <g id="ytick_2">
     <g id="line2d_13">
      <path d="M 57.6 239.523947 
L 414.72 239.523947 
" clip-path="url(#p49e44c9b0c)" style="fill: none; stroke: #b0b0b0; stroke-width: 0.8; stroke-linecap: square"/>
     </g>
     <g id="line2d_14">
      <g>
       <use xlink:href="#mc87583d9b4" x="57.6" y="239.523947" style="stroke: #000000; stroke-width: 0.8"/>
      </g>
     </g>
     <g id="text_8">
      <!-- 0.5 -->
      <g transform="translate(34.696875 243.323166) scale(0.1 -0.1)">
       <use xlink:href="#DejaVuSans-30"/>
       <use xlink:href="#DejaVuSans-2e" x="63.623047"/>
       <use xlink:href="#DejaVuSans-35" x="95.410156"/>
      </g>
     </g>
    </g>
    <g id="ytick_3">
     <g id="line2d_15">
      <path d="M 57.6 182.173136 
L 414.72 182.173136 
" clip-path="url(#p49e44c9b0c)" style="fill: none; stroke: #b0b0b0; stroke-width: 0.8; stroke-linecap: square"/>
     </g>
     <g id="line2d_16">
      <g>
       <use xlink:href="#mc87583d9b4" x="57.6" y="182.173136" style="stroke: #000000; stroke-width: 0.8"/>
      </g>
     </g>
     <g id="text_9">
      <!-- 1.0 -->
      <g transform="translate(34.696875 185.972355) scale(0.1 -0.1)">
       <defs>
        <path id="DejaVuSans-31" d="M 794 531 
L 1825 531 
L 1825 4091 
L 703 3866 
L 703 4441 
L 1819 4666 
L 2450 4666 
L 2450 531 
L 3481 531 
L 3481 0 
L 794 0 
L 794 531 
z
" transform="scale(0.015625)"/>
       </defs>
       <use xlink:href="#DejaVuSans-31"/>
       <use xlink:href="#DejaVuSans-2e" x="63.623047"/>
       <use xlink:href="#DejaVuSans-30" x="95.410156"/>
      </g>
     </g>
    </g>
    <g id="ytick_4">
     <g id="line2d_17">
      <path d="M 57.6 124.822325 
L 414.72 124.822325 
" clip-path="url(#p49e44c9b0c)" style="fill: none; stroke: #b0b0b0; stroke-width: 0.8; stroke-linecap: square"/>
     </g>
     <g id="line2d_18">
      <g>
       <use xlink:href="#mc87583d9b4" x="57.6" y="124.822325" style="stroke: #000000; stroke-width: 0.8"/>
      </g>
     </g>
     <g id="text_10">
      <!-- 1.5 -->
      <g transform="translate(34.696875 128.621544) scale(0.1 -0.1)">
       <use xlink:href="#DejaVuSans-31"/>
       <use xlink:href="#DejaVuSans-2e" x="63.623047"/>
       <use xlink:href="#DejaVuSans-35" x="95.410156"/>
      </g>
     </g>
    </g>
    <g id="ytick_5">
     <g id="line2d_19">
      <path d="M 57.6 67.471514 
L 414.72 67.471514 
" clip-path="url(#p49e44c9b0c)" style="fill: none; stroke: #b0b0b0; stroke-width: 0.8; stroke-linecap: square"/>
     </g>
     <g id="line2d_20">
      <g>
       <use xlink:href="#mc87583d9b4" x="57.6" y="67.471514" style="stroke: #000000; stroke-width: 0.8"/>
      </g>
     </g>
     <g id="text_11">
      <!-- 2.0 -->
      <g transform="translate(34.696875 71.270733) scale(0.1 -0.1)">
       <defs>
        <path id="DejaVuSans-32" d="M 1228 531 
L 3431 531 
L 3431 0 
L 469 0 
L 469 531 
Q 828 903 1448 1529 
Q 2069 2156 2228 2338 
Q 2531 2678 2651 2914 
Q 2772 3150 2772 3378 
Q 2772 3750 2511 3984 
Q 2250 4219 1831 4219 
Q 1534 4219 1204 4116 
Q 875 4013 500 3803 
L 500 4441 
Q 881 4594 1212 4672 
Q 1544 4750 1819 4750 
Q 2544 4750 2975 4387 
Q 3406 4025 3406 3419 
Q 3406 3131 3298 2873 
Q 3191 2616 2906 2266 
Q 2828 2175 2409 1742 
Q 1991 1309 1228 531 
z
" transform="scale(0.015625)"/>
       </defs>
       <use xlink:href="#DejaVuSans-32"/>
       <use xlink:href="#DejaVuSans-2e" x="63.623047"/>
       <use xlink:href="#DejaVuSans-30" x="95.410156"/>
      </g>
     </g>
    </g>
    <g id="text_12">
     <!-- angle [°] -->
     <g transform="translate(28.617187 196.391281) rotate(-90) scale(0.1 -0.1)">
      <defs>
       <path id="DejaVuSans-61" d="M 2194 1759 
Q 1497 1759 1228 1600 
Q 959 1441 959 1056 
Q 959 750 1161 570 
Q 1363 391 1709 391 
Q 2188 391 2477 730 
Q 2766 1069 2766 1631 
L 2766 1759 
L 2194 1759 
z
M 3341 1997 
L 3341 0 
L 2766 0 
L 2766 531 
Q 2569 213 2275 61 
Q 1981 -91 1556 -91 
Q 1019 -91 701 211 
Q 384 513 384 1019 
Q 384 1609 779 1909 
Q 1175 2209 1959 2209 
L 2766 2209 
L 2766 2266 
Q 2766 2663 2505 2880 
Q 2244 3097 1772 3097 
Q 1472 3097 1187 3025 
Q 903 2953 641 2809 
L 641 3341 
Q 956 3463 1253 3523 
Q 1550 3584 1831 3584 
Q 2591 3584 2966 3190 
Q 3341 2797 3341 1997 
z
" transform="scale(0.015625)"/>
       <path id="DejaVuSans-6e" d="M 3513 2113 
L 3513 0 
L 2938 0 
L 2938 2094 
Q 2938 2591 2744 2837 
Q 2550 3084 2163 3084 
Q 1697 3084 1428 2787 
Q 1159 2491 1159 1978 
L 1159 0 
L 581 0 
L 581 3500 
L 1159 3500 
L 1159 2956 
Q 1366 3272 1645 3428 
Q 1925 3584 2291 3584 
Q 2894 3584 3203 3211 
Q 3513 2838 3513 2113 
z
" transform="scale(0.015625)"/>
       <path id="DejaVuSans-67" d="M 2906 1791 
Q 2906 2416 2648 2759 
Q 2391 3103 1925 3103 
Q 1463 3103 1205 2759 
Q 947 2416 947 1791 
Q 947 1169 1205 825 
Q 1463 481 1925 481 
Q 2391 481 2648 825 
Q 2906 1169 2906 1791 
z
M 3481 434 
Q 3481 -459 3084 -895 
Q 2688 -1331 1869 -1331 
Q 1566 -1331 1297 -1286 
Q 1028 -1241 775 -1147 
L 775 -588 
Q 1028 -725 1275 -790 
Q 1522 -856 1778 -856 
Q 2344 -856 2625 -561 
Q 2906 -266 2906 331 
L 2906 616 
Q 2728 306 2450 153 
Q 2172 0 1784 0 
Q 1141 0 747 490 
Q 353 981 353 1791 
Q 353 2603 747 3093 
Q 1141 3584 1784 3584 
Q 2172 3584 2450 3431 
Q 2728 3278 2906 2969 
L 2906 3500 
L 3481 3500 
L 3481 434 
z
" transform="scale(0.015625)"/>
       <path id="DejaVuSans-6c" d="M 603 4863 
L 1178 4863 
L 1178 0 
L 603 0 
L 603 4863 
z
" transform="scale(0.015625)"/>
       <path id="DejaVuSans-b0" d="M 1600 4347 
Q 1350 4347 1178 4173 
Q 1006 4000 1006 3750 
Q 1006 3503 1178 3333 
Q 1350 3163 1600 3163 
Q 1850 3163 2022 3333 
Q 2194 3503 2194 3750 
Q 2194 3997 2020 4172 
Q 1847 4347 1600 4347 
z
M 1600 4750 
Q 1800 4750 1984 4673 
Q 2169 4597 2303 4453 
Q 2447 4313 2519 4134 
Q 2591 3956 2591 3750 
Q 2591 3338 2302 3052 
Q 2013 2766 1594 2766 
Q 1172 2766 890 3047 
Q 609 3328 609 3750 
Q 609 4169 896 4459 
Q 1184 4750 1600 4750 
z
" transform="scale(0.015625)"/>
      </defs>
      <use xlink:href="#DejaVuSans-61"/>
      <use xlink:href="#DejaVuSans-6e" x="61.279297"/>
      <use xlink:href="#DejaVuSans-67" x="124.658203"/>
      <use xlink:href="#DejaVuSans-6c" x="188.134766"/>
      <use xlink:href="#DejaVuSans-65" x="215.917969"/>
      <use xlink:href="#DejaVuSans-20" x="277.441406"/>
      <use xlink:href="#DejaVuSans-5b" x="309.228516"/>
      <use xlink:href="#DejaVuSans-b0" x="348.242188"/>
      <use xlink:href="#DejaVuSans-5d" x="398.242188"/>
     </g>
    </g>
   </g>
   <g id="line2d_21">
    <path d="M 73.832727 143.787296 
L 74.317746 137.775449 
L 74.842316 163.777349 
L 75.32174 166.13666 
L 75.794003 166.224271 
L 76.33961 158.248757 
L 76.83364 154.298989 
L 77.286432 158.006843 
L 77.822819 160.143907 
L 78.309509 158.239283 
L 78.830125 153.126572 
L 79.345968 150.385688 
L 79.801431 151.526875 
L 80.322152 150.563673 
L 80.815466 140.004948 
L 81.817058 138.280064 
L 82.299347 142.472361 
L 82.828632 140.558077 
L 83.307354 145.165402 
L 83.788599 136.194475 
L 84.799486 174.560848 
L 85.335708 138.279326 
L 85.813148 218.094681 
L 86.290737 168.171307 
L 86.82954 257.626564 
L 87.305294 243.815958 
L 87.782614 261.801883 
L 88.321716 276.253714 
L 88.796948 279.017467 
L 89.333469 226.00204 
L 89.813012 280.561847 
L 90.290287 274.925099 
L 90.825585 203.690319 
L 91.310186 223.777178 
L 91.84056 219.075769 
L 92.317731 201.37541 
L 92.801556 202.971353 
L 93.337227 195.616074 
L 94.293553 193.725696 
L 94.826971 191.713824 
L 95.300889 190.562458 
L 95.839588 182.643351 
L 96.331157 185.374224 
L 96.793259 197.750209 
L 97.33157 168.894 
L 97.839356 172.680491 
L 98.288046 197.623132 
L 98.822433 180.826732 
L 99.315643 288.783229 
L 99.837155 211.72227 
L 100.314863 253.793541 
L 100.795331 258.64367 
L 101.344862 245.459514 
L 101.806517 186.370372 
L 102.35551 180.532795 
L 102.835814 169.136107 
L 103.298722 168.705194 
L 103.83866 236.938024 
L 104.313787 151.089023 
L 104.790108 212.346977 
L 105.330657 166.396217 
L 105.805799 218.703056 
L 106.343096 216.600135 
L 106.821863 208.744374 
L 107.303107 209.674043 
L 107.833914 206.270833 
L 108.314307 212.360115 
L 108.794552 206.003888 
L 109.326537 213.213756 
L 109.804245 226.446856 
L 110.34378 236.844228 
L 110.817729 253.594615 
L 111.29763 242.389336 
L 111.84822 241.017037 
L 112.311904 196.895971 
L 112.878219 222.728258 
L 113.339889 250.797186 
L 113.801588 211.997669 
L 114.35655 206.008072 
L 114.825948 220.099263 
L 115.293883 292.068372 
L 115.86463 284.024915 
L 116.314468 235.903939 
L 116.861298 266.254837 
L 117.337873 235.429957 
L 117.816222 286.37312 
L 118.404708 256.943047 
L 119.359617 199.287288 
L 119.85229 187.050618 
L 120.317301 203.836414 
L 120.845616 197.074397 
L 121.451334 176.92055 
L 121.898845 184.920868 
L 122.340776 176.938938 
L 122.8192 190.463429 
L 123.353767 181.138615 
L 123.833683 168.782324 
L 124.322909 166.629667 
L 124.859415 161.20228 
L 125.338212 161.925758 
L 125.800703 166.669201 
L 126.336433 162.751808 
L 126.832164 161.503893 
L 127.351781 182.587794 
L 127.829608 159.300648 
L 128.307481 161.957573 
L 128.846344 180.424356 
L 129.32077 181.434318 
L 129.857485 182.216238 
L 130.338311 205.69474 
L 130.812916 161.324923 
L 131.351018 183.940091 
L 131.827115 149.773606 
L 132.305972 146.996396 
L 133.860631 105.684118 
L 134.33446 118.67716 
L 134.812899 88.328049 
L 135.35039 94.142451 
L 135.825383 82.411258 
L 136.303046 106.702011 
L 136.84091 111.782047 
L 137.31826 89.541464 
L 137.870476 81.70932 
L 138.333742 84.919432 
L 138.811704 90.070773 
L 139.361205 113.693604 
L 139.823904 93.758743 
L 140.360574 88.809759 
L 140.838148 76.214142 
L 141.315603 88.243706 
L 141.853183 98.047035 
L 142.33289 121.471743 
L 142.807047 132.435619 
L 143.344807 113.352296 
L 143.823067 120.456817 
L 144.360647 146.565316 
L 144.837192 183.982728 
L 145.344992 213.250996 
L 145.896 201.34791 
L 146.361519 198.054245 
L 146.8961 212.32394 
L 147.837418 266.614417 
L 148.35881 267.166484 
L 148.839816 258.749856 
L 149.313898 294.474874 
L 149.848972 268.437129 
L 150.342062 263.089283 
L 150.867006 234.128222 
L 151.386578 224.879856 
L 151.820647 257.066827 
L 152.360614 190.59439 
L 152.833413 188.38642 
L 153.310898 193.653933 
L 153.849478 189.234875 
L 154.325709 181.506504 
L 154.871584 167.379139 
L 155.340445 176.549687 
L 155.81781 188.34782 
L 156.360105 163.920394 
L 156.831935 164.522339 
L 157.369948 182.478655 
L 157.851266 180.652347 
L 158.324275 161.167708 
L 158.861586 178.134248 
L 159.343696 177.003747 
L 159.819584 180.271942 
L 160.372979 161.593275 
L 160.837737 174.46229 
L 161.382538 179.318072 
L 161.862618 195.746413 
L 162.332166 150.734234 
L 162.861764 198.634967 
L 163.844155 82.915731 
L 164.353164 72.957862 
L 164.860756 109.215178 
L 165.36602 225.607163 
L 166.359541 114.634438 
L 166.859808 88.129617 
L 167.352211 84.742284 
L 167.873082 105.844386 
L 168.349611 151.396894 
L 168.858621 102.689944 
L 169.364691 83.79705 
L 170.326433 129.362247 
L 170.85621 125.046626 
L 171.334381 114.129531 
L 171.873364 105.015428 
L 172.348431 130.452361 
L 172.825587 134.620514 
L 173.367583 141.059578 
L 174.377352 174.480899 
L 174.86155 179.190977 
L 175.3315 203.653811 
L 175.869975 245.050394 
L 176.350816 258.577357 
L 176.824914 234.530114 
L 177.362733 237.725353 
L 177.840307 294.422743 
L 178.390852 259.284419 
L 178.853865 262.990001 
L 179.333259 261.439808 
L 179.882715 286.446997 
L 180.345876 253.823191 
L 180.854587 231.341571 
L 181.363015 251.273529 
L 181.838828 212.356424 
L 182.373618 271.451991 
L 182.866649 257.67645 
L 183.330348 193.910339 
L 183.866048 191.467994 
L 184.362092 175.044739 
L 184.895942 171.023892 
L 185.35809 166.572331 
L 185.840542 164.212415 
L 186.371961 165.202237 
L 186.851056 160.949006 
L 187.333016 159.163238 
L 187.864166 160.954418 
L 188.879678 155.688132 
L 189.832917 158.159813 
L 190.374436 156.362149 
L 190.847832 160.911613 
L 191.325465 173.509053 
L 191.865388 171.305283 
L 192.339695 175.945633 
L 192.876812 224.412256 
L 193.358191 168.927394 
L 193.83205 192.057262 
L 194.369122 152.503042 
L 194.853216 159.648823 
L 195.387947 183.801655 
L 195.862492 232.229872 
L 196.345705 117.674709 
L 196.917228 55.827226 
L 197.354056 57.972278 
L 197.833197 133.22392 
L 198.378416 139.796423 
L 198.917965 86.716459 
L 199.397628 53.568 
L 199.896984 75.8331 
L 200.382973 91.11472 
L 200.897607 129.930937 
L 201.360649 149.003932 
L 201.911731 158.091233 
L 202.37458 128.851724 
L 202.849841 113.304013 
L 203.388152 144.511603 
L 203.865577 205.334974 
L 204.344329 203.312672 
L 204.878583 204.711275 
L 205.357932 228.522975 
L 205.90785 203.617656 
L 207.390955 241.062157 
L 207.91005 243.381929 
L 208.36623 294.574839 
L 209.371611 261.060716 
L 209.891751 293.724193 
L 210.376814 293.689767 
L 210.847779 257.921891 
L 211.383568 279.735729 
L 211.864798 283.732603 
L 213.356645 223.833914 
L 213.890212 264.829797 
L 214.367518 249.266719 
L 214.848105 198.786886 
L 215.38212 188.011291 
L 215.859455 193.333226 
L 216.397856 172.703489 
L 216.874624 172.7111 
L 217.351243 169.496246 
L 217.889017 166.976894 
L 218.365845 165.932171 
L 218.844254 163.897647 
L 219.380283 164.233537 
L 219.858483 162.018123 
L 220.395392 160.457047 
L 221.350316 160.329237 
L 221.886986 158.845734 
L 222.366828 161.768258 
L 222.904095 176.325932 
L 223.379177 177.445758 
L 223.858661 167.013654 
L 224.39915 266.508431 
L 224.870965 255.469751 
L 225.34836 180.670253 
L 225.893758 143.569236 
L 226.363559 138.105338 
L 226.899647 153.434732 
L 227.378265 127.994265 
L 227.856958 119.300784 
L 228.391927 127.401497 
L 228.871262 120.613501 
L 229.407365 81.84526 
L 230.366675 97.30589 
L 230.898019 104.987013 
L 231.375578 99.970036 
L 231.856285 75.059886 
L 232.390807 67.21418 
L 233.406065 105.782985 
L 233.883281 105.56704 
L 234.362272 101.761254 
L 234.897913 100.139519 
L 235.375666 114.454013 
L 235.852494 134.672179 
L 236.392401 144.570366 
L 236.866275 158.051034 
L 237.425369 157.950345 
L 237.881892 168.693112 
L 239.377842 217.329885 
L 239.929342 264.764881 
L 240.399099 269.940749 
L 240.865199 271.503126 
L 241.89772 250.095385 
L 242.357211 248.436533 
L 242.898581 235.564035 
L 243.400116 242.115492 
L 243.908886 223.312714 
L 244.387818 271.261718 
L 244.882519 266.719367 
L 245.399898 181.427004 
L 245.882843 193.970957 
L 246.362864 191.985677 
L 246.891388 166.617045 
L 247.372871 162.166999 
L 247.907333 168.240631 
L 248.384713 156.894799 
L 248.868329 157.718508 
L 249.398718 161.457776 
L 249.876411 153.771613 
L 250.416065 156.962252 
L 250.899846 155.352987 
L 251.389803 154.38835 
L 251.905466 154.773884 
L 252.383055 155.2791 
L 252.862747 155.136576 
L 253.875485 155.088421 
L 254.412901 156.17287 
L 254.889147 161.550646 
L 255.366288 212.990146 
L 255.903898 187.991644 
L 256.380457 180.085472 
L 256.92411 151.537849 
L 257.396596 178.173937 
L 257.881764 161.359928 
L 258.416181 120.651275 
L 258.889772 108.579303 
L 259.365734 121.126078 
L 259.909133 147.200525 
L 260.380888 133.052705 
L 260.917379 129.030365 
L 261.397191 107.004452 
L 261.871617 105.77132 
L 262.409272 113.953485 
L 262.892709 106.535191 
L 263.364569 117.753459 
L 263.901448 116.784971 
L 264.914722 87.095169 
L 265.393116 102.964975 
L 265.871794 111.268642 
L 266.40751 115.43546 
L 266.884904 135.182282 
L 267.421067 130.417904 
L 267.899596 132.813389 
L 268.376842 145.778505 
L 269.39216 197.78631 
L 269.869107 208.02042 
L 270.40618 214.145445 
L 270.883485 215.173893 
L 271.899475 245.988184 
L 272.375333 252.154494 
L 272.912122 275.611981 
L 273.390905 263.533433 
L 273.932901 282.521626 
L 274.403806 255.802838 
L 274.881082 235.198556 
L 275.432 222.782285 
L 275.895699 261.503205 
L 276.3793 246.421243 
L 276.931815 183.139881 
L 277.399139 171.332064 
L 277.939166 172.147536 
L 278.408504 172.214578 
L 279.43343 159.036832 
L 279.939486 164.483205 
L 280.365334 157.395651 
L 280.946911 158.702486 
L 281.400092 158.135939 
L 282.441266 156.092597 
L 282.900861 154.78045 
L 283.445021 156.312919 
L 283.929324 155.758004 
L 284.457221 154.413433 
L 284.933557 154.643129 
L 285.37871 156.775028 
L 285.929509 160.897521 
L 286.398698 176.797213 
L 286.869753 224.132339 
L 287.408646 256.217629 
L 287.886473 198.555297 
L 288.437347 171.034456 
L 288.92899 164.727202 
L 289.380887 162.649306 
L 289.929448 166.919132 
L 290.869109 128.91054 
L 291.407122 123.93149 
L 291.900645 129.299857 
L 292.899343 225.194637 
L 293.391806 111.424029 
L 293.916004 81.053272 
L 294.390937 97.173613 
L 294.926503 139.45216 
L 295.419593 99.342701 
L 295.89669 136.460548 
L 296.419708 120.917439 
L 296.895402 126.801669 
L 297.374841 142.640019 
L 297.910527 145.020569 
L 298.394844 149.899678 
L 298.954878 151.761289 
L 299.415414 158.245316 
L 299.89812 182.911842 
L 300.433224 202.629026 
L 300.894252 210.409668 
L 301.449631 210.736298 
L 301.923848 211.824907 
L 302.38704 239.307548 
L 302.942717 255.524011 
L 303.412369 281.611866 
L 303.878246 266.213473 
L 304.415602 274.360119 
L 304.895951 278.157189 
L 305.430279 289.213583 
L 305.90733 237.714636 
L 306.922112 228.011064 
L 307.399193 272.949016 
L 307.881675 247.977509 
L 308.413154 194.877429 
L 308.891429 179.689813 
L 309.437961 169.73694 
L 309.905941 168.441965 
L 310.383993 165.827589 
L 310.920558 158.462008 
L 311.412813 164.340657 
L 312.417792 157.298911 
L 312.889249 159.133581 
L 313.904134 155.177094 
L 314.382186 155.111788 
L 314.919199 157.242532 
L 315.484589 151.368917 
L 315.949541 147.750588 
L 316.411181 149.675656 
L 316.903331 155.692071 
L 317.426007 172.023029 
L 317.902596 183.129625 
L 318.390628 140.518982 
L 318.922957 163.775306 
L 319.394817 295.488 
L 320.414163 131.06098 
L 320.901285 120.38816 
L 321.424737 138.408152 
L 321.904713 149.114226 
L 322.467775 131.66402 
L 322.917137 94.405166 
L 323.398933 103.421042 
L 323.964591 121.55582 
L 324.409089 142.856932 
L 324.889169 123.862734 
L 325.900862 94.202526 
L 326.46755 115.991712 
L 326.930264 143.444174 
L 327.39253 136.052163 
L 327.958174 112.729212 
L 328.423216 98.802432 
L 328.958558 113.42931 
L 329.465911 130.627628 
L 329.932743 153.194666 
L 330.450182 156.981193 
L 330.942541 158.566022 
L 331.407448 169.93576 
L 331.94282 199.159648 
L 332.440133 219.271305 
L 332.956647 222.98619 
L 333.421345 253.138597 
L 333.92752 275.079651 
L 334.448823 266.817643 
L 334.927068 255.705645 
L 335.419233 268.49152 
L 335.934538 265.456519 
L 336.418005 250.930604 
L 336.947126 227.005323 
L 337.432801 251.545254 
L 337.92616 220.874735 
L 338.437646 260.240377 
L 338.924052 261.32596 
L 339.447922 184.134302 
L 339.923451 174.326165 
L 340.444859 180.142346 
L 340.938546 178.660834 
L 341.902093 211.39773 
L 342.431229 219.340165 
L 342.908132 242.149138 
L 343.446846 247.658064 
L 343.923032 258.010436 
L 344.400069 182.667688 
L 344.938111 182.756459 
L 345.414865 188.601213 
L 345.892498 163.073315 
L 346.439881 161.914554 
L 346.942325 162.180876 
L 347.448455 166.152817 
L 347.932519 163.120033 
L 348.40332 161.006729 
L 348.941452 192.741178 
L 349.421099 189.691975 
L 349.958008 198.352566 
L 350.432419 191.579098 
L 350.912097 189.858074 
L 351.448603 157.303457 
L 351.923819 157.671004 
L 352.405973 130.047078 
L 352.953729 117.710113 
L 353.415025 118.822738 
L 354.053984 67.914235 
L 354.463942 112.480313 
L 354.962941 122.024578 
L 355.466952 135.572914 
L 355.98463 142.325776 
L 356.463621 127.734739 
L 356.96799 115.866943 
L 357.441193 118.347858 
L 357.964972 134.724662 
L 358.429581 143.604495 
L 358.910795 212.220004 
L 359.445004 208.409998 
L 359.921429 199.991682 
L 360.465156 154.639419 
L 360.935016 142.7157 
L 361.412665 170.144952 
L 361.951483 182.289047 
L 362.427983 175.594429 
L 362.905408 173.081046 
L 363.448911 182.517038 
L 363.919786 235.133836 
L 364.935417 252.932075 
L 365.411216 240.82572 
L 365.958255 244.205247 
L 366.428086 249.845711 
L 366.968202 251.226866 
L 367.447343 274.666254 
L 367.918949 284.950926 
L 368.932298 247.097559 
L 369.417555 278.077654 
L 369.948048 274.819766 
L 370.423325 193.797095 
L 370.978689 202.40865 
L 371.439061 179.086612 
L 371.922349 174.769702 
L 372.476803 171.871233 
L 372.97871 166.311573 
L 373.406722 168.56542 
L 373.944004 168.643873 
L 374.423577 162.235317 
L 374.961067 162.492449 
L 375.436075 162.867171 
L 375.915872 157.799076 
L 376.450558 158.467525 
L 376.953375 162.373864 
L 377.959458 159.022238 
L 378.436361 160.733473 
L 378.973374 160.949858 
L 379.434179 155.792332 
L 379.939965 140.958148 
L 380.450541 176.481997 
L 380.927548 175.619566 
L 381.463263 226.023078 
L 382.419247 147.563642 
L 382.95529 164.965738 
L 383.439652 95.733088 
L 383.971802 124.642378 
L 384.4476 161.758061 
L 384.926144 147.475712 
L 385.466469 107.177401 
L 385.939836 84.08661 
L 386.422393 99.185405 
L 386.954363 131.227745 
L 387.969115 142.120141 
L 388.448747 122.602594 
L 388.922606 117.538773 
L 389.460664 119.746619 
L 389.93779 130.590259 
L 390.414454 137.090124 
L 390.953272 210.097842 
L 391.430861 159.460456 
L 391.96695 143.222195 
L 392.444523 136.840453 
L 392.923783 161.867781 
L 393.939295 241.14282 
L 394.475757 237.534354 
L 394.952241 240.391365 
L 395.429189 279.901602 
L 395.973229 290.147565 
L 396.442597 264.541081 
L 396.923483 270.742162 
L 397.464316 286.071407 
L 397.935922 291.658706 
L 398.487273 255.664926 
L 398.487273 255.664926 
" clip-path="url(#p49e44c9b0c)" style="fill: none; stroke: #ff0000; stroke-width: 1.5; stroke-linecap: square"/>
   </g>
   <g id="patch_3">
    <path d="M 57.6 307.584 
L 57.6 41.472 
" style="fill: none; stroke: #000000; stroke-width: 0.8; stroke-linejoin: miter; stroke-linecap: square"/>
   </g>
   <g id="patch_4">
    <path d="M 414.72 307.584 
L 414.72 41.472 
" style="fill: none; stroke: #000000; stroke-width: 0.8; stroke-linejoin: miter; stroke-linecap: square"/>
   </g>
   <g id="patch_5">
    <path d="M 57.6 307.584 
L 414.72 307.584 
" style="fill: none; stroke: #000000; stroke-width: 0.8; stroke-linejoin: miter; stroke-linecap: square"/>
   </g>
   <g id="patch_6">
    <path d="M 57.6 41.472 
L 414.72 41.472 
" style="fill: none; stroke: #000000; stroke-width: 0.8; stroke-linejoin: miter; stroke-linecap: square"/>
   </g>
   <g id="text_13">
    <!-- Angles in Thumb MCP joint to midhand -->
    <g transform="translate(119.547188 35.472) scale(0.12 -0.12)">
     <defs>
      <path id="DejaVuSans-41" d="M 2188 4044 
L 1331 1722 
L 3047 1722 
L 2188 4044 
z
M 1831 4666 
L 2547 4666 
L 4325 0 
L 3669 0 
L 3244 1197 
L 1141 1197 
L 716 0 
L 50 0 
L 1831 4666 
z
" transform="scale(0.015625)"/>
      <path id="DejaVuSans-54" d="M -19 4666 
L 3928 4666 
L 3928 4134 
L 2272 4134 
L 2272 0 
L 1638 0 
L 1638 4134 
L -19 4134 
L -19 4666 
z
" transform="scale(0.015625)"/>
      <path id="DejaVuSans-68" d="M 3513 2113 
L 3513 0 
L 2938 0 
L 2938 2094 
Q 2938 2591 2744 2837 
Q 2550 3084 2163 3084 
Q 1697 3084 1428 2787 
Q 1159 2491 1159 1978 
L 1159 0 
L 581 0 
L 581 4863 
L 1159 4863 
L 1159 2956 
Q 1366 3272 1645 3428 
Q 1925 3584 2291 3584 
Q 2894 3584 3203 3211 
Q 3513 2838 3513 2113 
z
" transform="scale(0.015625)"/>
      <path id="DejaVuSans-75" d="M 544 1381 
L 544 3500 
L 1119 3500 
L 1119 1403 
Q 1119 906 1312 657 
Q 1506 409 1894 409 
Q 2359 409 2629 706 
Q 2900 1003 2900 1516 
L 2900 3500 
L 3475 3500 
L 3475 0 
L 2900 0 
L 2900 538 
Q 2691 219 2414 64 
Q 2138 -91 1772 -91 
Q 1169 -91 856 284 
Q 544 659 544 1381 
z
M 1991 3584 
L 1991 3584 
z
" transform="scale(0.015625)"/>
      <path id="DejaVuSans-62" d="M 3116 1747 
Q 3116 2381 2855 2742 
Q 2594 3103 2138 3103 
Q 1681 3103 1420 2742 
Q 1159 2381 1159 1747 
Q 1159 1113 1420 752 
Q 1681 391 2138 391 
Q 2594 391 2855 752 
Q 3116 1113 3116 1747 
z
M 1159 2969 
Q 1341 3281 1617 3432 
Q 1894 3584 2278 3584 
Q 2916 3584 3314 3078 
Q 3713 2572 3713 1747 
Q 3713 922 3314 415 
Q 2916 -91 2278 -91 
Q 1894 -91 1617 61 
Q 1341 213 1159 525 
L 1159 0 
L 581 0 
L 581 4863 
L 1159 4863 
L 1159 2969 
z
" transform="scale(0.015625)"/>
      <path id="DejaVuSans-4d" d="M 628 4666 
L 1569 4666 
L 2759 1491 
L 3956 4666 
L 4897 4666 
L 4897 0 
L 4281 0 
L 4281 4097 
L 3078 897 
L 2444 897 
L 1241 4097 
L 1241 0 
L 628 0 
L 628 4666 
z
" transform="scale(0.015625)"/>
      <path id="DejaVuSans-43" d="M 4122 4306 
L 4122 3641 
Q 3803 3938 3442 4084 
Q 3081 4231 2675 4231 
Q 1875 4231 1450 3742 
Q 1025 3253 1025 2328 
Q 1025 1406 1450 917 
Q 1875 428 2675 428 
Q 3081 428 3442 575 
Q 3803 722 4122 1019 
L 4122 359 
Q 3791 134 3420 21 
Q 3050 -91 2638 -91 
Q 1578 -91 968 557 
Q 359 1206 359 2328 
Q 359 3453 968 4101 
Q 1578 4750 2638 4750 
Q 3056 4750 3426 4639 
Q 3797 4528 4122 4306 
z
" transform="scale(0.015625)"/>
      <path id="DejaVuSans-50" d="M 1259 4147 
L 1259 2394 
L 2053 2394 
Q 2494 2394 2734 2622 
Q 2975 2850 2975 3272 
Q 2975 3691 2734 3919 
Q 2494 4147 2053 4147 
L 1259 4147 
z
M 628 4666 
L 2053 4666 
Q 2838 4666 3239 4311 
Q 3641 3956 3641 3272 
Q 3641 2581 3239 2228 
Q 2838 1875 2053 1875 
L 1259 1875 
L 1259 0 
L 628 0 
L 628 4666 
z
" transform="scale(0.015625)"/>
      <path id="DejaVuSans-6a" d="M 603 3500 
L 1178 3500 
L 1178 -63 
Q 1178 -731 923 -1031 
Q 669 -1331 103 -1331 
L -116 -1331 
L -116 -844 
L 38 -844 
Q 366 -844 484 -692 
Q 603 -541 603 -63 
L 603 3500 
z
M 603 4863 
L 1178 4863 
L 1178 4134 
L 603 4134 
L 603 4863 
z
" transform="scale(0.015625)"/>
      <path id="DejaVuSans-6f" d="M 1959 3097 
Q 1497 3097 1228 2736 
Q 959 2375 959 1747 
Q 959 1119 1226 758 
Q 1494 397 1959 397 
Q 2419 397 2687 759 
Q 2956 1122 2956 1747 
Q 2956 2369 2687 2733 
Q 2419 3097 1959 3097 
z
M 1959 3584 
Q 2709 3584 3137 3096 
Q 3566 2609 3566 1747 
Q 3566 888 3137 398 
Q 2709 -91 1959 -91 
Q 1206 -91 779 398 
Q 353 888 353 1747 
Q 353 2609 779 3096 
Q 1206 3584 1959 3584 
z
" transform="scale(0.015625)"/>
      <path id="DejaVuSans-64" d="M 2906 2969 
L 2906 4863 
L 3481 4863 
L 3481 0 
L 2906 0 
L 2906 525 
Q 2725 213 2448 61 
Q 2172 -91 1784 -91 
Q 1150 -91 751 415 
Q 353 922 353 1747 
Q 353 2572 751 3078 
Q 1150 3584 1784 3584 
Q 2172 3584 2448 3432 
Q 2725 3281 2906 2969 
z
M 947 1747 
Q 947 1113 1208 752 
Q 1469 391 1925 391 
Q 2381 391 2643 752 
Q 2906 1113 2906 1747 
Q 2906 2381 2643 2742 
Q 2381 3103 1925 3103 
Q 1469 3103 1208 2742 
Q 947 2381 947 1747 
z
" transform="scale(0.015625)"/>
     </defs>
     <use xlink:href="#DejaVuSans-41"/>
     <use xlink:href="#DejaVuSans-6e" x="68.408203"/>
     <use xlink:href="#DejaVuSans-67" x="131.787109"/>
     <use xlink:href="#DejaVuSans-6c" x="195.263672"/>
     <use xlink:href="#DejaVuSans-65" x="223.046875"/>
     <use xlink:href="#DejaVuSans-73" x="284.570312"/>
     <use xlink:href="#DejaVuSans-20" x="336.669922"/>
     <use xlink:href="#DejaVuSans-69" x="368.457031"/>
     <use xlink:href="#DejaVuSans-6e" x="396.240234"/>
     <use xlink:href="#DejaVuSans-20" x="459.619141"/>
     <use xlink:href="#DejaVuSans-54" x="491.40625"/>
     <use xlink:href="#DejaVuSans-68" x="552.490234"/>
     <use xlink:href="#DejaVuSans-75" x="615.869141"/>
     <use xlink:href="#DejaVuSans-6d" x="679.248047"/>
     <use xlink:href="#DejaVuSans-62" x="776.660156"/>
     <use xlink:href="#DejaVuSans-20" x="840.136719"/>
     <use xlink:href="#DejaVuSans-4d" x="871.923828"/>
     <use xlink:href="#DejaVuSans-43" x="958.203125"/>
     <use xlink:href="#DejaVuSans-50" x="1028.027344"/>
     <use xlink:href="#DejaVuSans-20" x="1088.330078"/>
     <use xlink:href="#DejaVuSans-6a" x="1120.117188"/>
     <use xlink:href="#DejaVuSans-6f" x="1147.900391"/>
     <use xlink:href="#DejaVuSans-69" x="1209.082031"/>
     <use xlink:href="#DejaVuSans-6e" x="1236.865234"/>
     <use xlink:href="#DejaVuSans-74" x="1300.244141"/>
     <use xlink:href="#DejaVuSans-20" x="1339.453125"/>
     <use xlink:href="#DejaVuSans-74" x="1371.240234"/>
     <use xlink:href="#DejaVuSans-6f" x="1410.449219"/>
     <use xlink:href="#DejaVuSans-20" x="1471.630859"/>
     <use xlink:href="#DejaVuSans-6d" x="1503.417969"/>
     <use xlink:href="#DejaVuSans-69" x="1600.830078"/>
     <use xlink:href="#DejaVuSans-64" x="1628.613281"/>
     <use xlink:href="#DejaVuSans-68" x="1692.089844"/>
     <use xlink:href="#DejaVuSans-61" x="1755.46875"/>
     <use xlink:href="#DejaVuSans-6e" x="1816.748047"/>
     <use xlink:href="#DejaVuSans-64" x="1880.126953"/>
    </g>
   </g>
   <g id="legend_1">
    <g id="patch_7">
     <path d="M 196.77625 64.150125 
L 407.72 64.150125 
Q 409.72 64.150125 409.72 62.150125 
L 409.72 48.472 
Q 409.72 46.472 407.72 46.472 
L 196.77625 46.472 
Q 194.77625 46.472 194.77625 48.472 
L 194.77625 62.150125 
Q 194.77625 64.150125 196.77625 64.150125 
z
" style="fill: #ffffff; opacity: 0.8; stroke: #cccccc; stroke-linejoin: miter"/>
    </g>
    <g id="line2d_22">
     <path d="M 198.77625 54.570438 
L 208.77625 54.570438 
L 218.77625 54.570438 
" style="fill: none; stroke: #ff0000; stroke-width: 1.5; stroke-linecap: square"/>
    </g>
    <g id="text_14">
     <!-- perpendicular around specified axis -->
     <g transform="translate(226.77625 58.070438) scale(0.1 -0.1)">
      <defs>
       <path id="DejaVuSans-70" d="M 1159 525 
L 1159 -1331 
L 581 -1331 
L 581 3500 
L 1159 3500 
L 1159 2969 
Q 1341 3281 1617 3432 
Q 1894 3584 2278 3584 
Q 2916 3584 3314 3078 
Q 3713 2572 3713 1747 
Q 3713 922 3314 415 
Q 2916 -91 2278 -91 
Q 1894 -91 1617 61 
Q 1341 213 1159 525 
z
M 3116 1747 
Q 3116 2381 2855 2742 
Q 2594 3103 2138 3103 
Q 1681 3103 1420 2742 
Q 1159 2381 1159 1747 
Q 1159 1113 1420 752 
Q 1681 391 2138 391 
Q 2594 391 2855 752 
Q 3116 1113 3116 1747 
z
" transform="scale(0.015625)"/>
       <path id="DejaVuSans-72" d="M 2631 2963 
Q 2534 3019 2420 3045 
Q 2306 3072 2169 3072 
Q 1681 3072 1420 2755 
Q 1159 2438 1159 1844 
L 1159 0 
L 581 0 
L 581 3500 
L 1159 3500 
L 1159 2956 
Q 1341 3275 1631 3429 
Q 1922 3584 2338 3584 
Q 2397 3584 2469 3576 
Q 2541 3569 2628 3553 
L 2631 2963 
z
" transform="scale(0.015625)"/>
       <path id="DejaVuSans-66" d="M 2375 4863 
L 2375 4384 
L 1825 4384 
Q 1516 4384 1395 4259 
Q 1275 4134 1275 3809 
L 1275 3500 
L 2222 3500 
L 2222 3053 
L 1275 3053 
L 1275 0 
L 697 0 
L 697 3053 
L 147 3053 
L 147 3500 
L 697 3500 
L 697 3744 
Q 697 4328 969 4595 
Q 1241 4863 1831 4863 
L 2375 4863 
z
" transform="scale(0.015625)"/>
       <path id="DejaVuSans-78" d="M 3513 3500 
L 2247 1797 
L 3578 0 
L 2900 0 
L 1881 1375 
L 863 0 
L 184 0 
L 1544 1831 
L 300 3500 
L 978 3500 
L 1906 2253 
L 2834 3500 
L 3513 3500 
z
" transform="scale(0.015625)"/>
      </defs>
      <use xlink:href="#DejaVuSans-70"/>
      <use xlink:href="#DejaVuSans-65" x="63.476562"/>
      <use xlink:href="#DejaVuSans-72" x="125"/>
      <use xlink:href="#DejaVuSans-70" x="166.113281"/>
      <use xlink:href="#DejaVuSans-65" x="229.589844"/>
      <use xlink:href="#DejaVuSans-6e" x="291.113281"/>
      <use xlink:href="#DejaVuSans-64" x="354.492188"/>
      <use xlink:href="#DejaVuSans-69" x="417.96875"/>
      <use xlink:href="#DejaVuSans-63" x="445.751953"/>
      <use xlink:href="#DejaVuSans-75" x="500.732422"/>
      <use xlink:href="#DejaVuSans-6c" x="564.111328"/>
      <use xlink:href="#DejaVuSans-61" x="591.894531"/>
      <use xlink:href="#DejaVuSans-72" x="653.173828"/>
      <use xlink:href="#DejaVuSans-20" x="694.287109"/>
      <use xlink:href="#DejaVuSans-61" x="726.074219"/>
      <use xlink:href="#DejaVuSans-72" x="787.353516"/>
      <use xlink:href="#DejaVuSans-6f" x="826.216797"/>
      <use xlink:href="#DejaVuSans-75" x="887.398438"/>
      <use xlink:href="#DejaVuSans-6e" x="950.777344"/>
      <use xlink:href="#DejaVuSans-64" x="1014.15625"/>
      <use xlink:href="#DejaVuSans-20" x="1077.632812"/>
      <use xlink:href="#DejaVuSans-73" x="1109.419922"/>
      <use xlink:href="#DejaVuSans-70" x="1161.519531"/>
      <use xlink:href="#DejaVuSans-65" x="1224.996094"/>
      <use xlink:href="#DejaVuSans-63" x="1286.519531"/>
      <use xlink:href="#DejaVuSans-69" x="1341.5"/>
      <use xlink:href="#DejaVuSans-66" x="1369.283203"/>
      <use xlink:href="#DejaVuSans-69" x="1404.488281"/>
      <use xlink:href="#DejaVuSans-65" x="1432.271484"/>
      <use xlink:href="#DejaVuSans-64" x="1493.794922"/>
      <use xlink:href="#DejaVuSans-20" x="1557.271484"/>
      <use xlink:href="#DejaVuSans-61" x="1589.058594"/>
      <use xlink:href="#DejaVuSans-78" x="1650.337891"/>
      <use xlink:href="#DejaVuSans-69" x="1709.517578"/>
      <use xlink:href="#DejaVuSans-73" x="1737.300781"/>
     </g>
    </g>
   </g>
  </g>
 </g>
 <defs>
  <clipPath id="p49e44c9b0c">
   <rect x="57.6" y="41.472" width="357.12" height="266.112"/>
  </clipPath>
 </defs>
</svg>
