<?xml version="1.0" encoding="utf-8" standalone="no"?>
<!DOCTYPE svg PUBLIC "-//W3C//DTD SVG 1.1//EN"
  "http://www.w3.org/Graphics/SVG/1.1/DTD/svg11.dtd">
<svg xmlns:xlink="http://www.w3.org/1999/xlink" width="460.8pt" height="345.6pt" viewBox="0 0 460.8 345.6" xmlns="http://www.w3.org/2000/svg" version="1.1">
 <metadata>
  <rdf:RDF xmlns:dc="http://purl.org/dc/elements/1.1/" xmlns:cc="http://creativecommons.org/ns#" xmlns:rdf="http://www.w3.org/1999/02/22-rdf-syntax-ns#">
   <cc:Work>
    <dc:type rdf:resource="http://purl.org/dc/dcmitype/StillImage"/>
    <dc:date>2023-08-06T18:48:53.317544</dc:date>
    <dc:format>image/svg+xml</dc:format>
    <dc:creator>
     <cc:Agent>
      <dc:title>Matplotlib v3.7.1, https://matplotlib.org/</dc:title>
     </cc:Agent>
    </dc:creator>
   </cc:Work>
  </rdf:RDF>
 </metadata>
 <defs>
  <style type="text/css">*{stroke-linejoin: round; stroke-linecap: butt}</style>
 </defs>
 <g id="figure_1">
  <g id="patch_1">
   <path d="M 0 345.6 
L 460.8 345.6 
L 460.8 0 
L 0 0 
z
" style="fill: #ffffff"/>
  </g>
  <g id="axes_1">
   <g id="patch_2">
    <path d="M 57.6 307.584 
L 414.72 307.584 
L 414.72 41.472 
L 57.6 41.472 
z
" style="fill: #ffffff"/>
   </g>
   <g id="matplotlib.axis_1">
    <g id="xtick_1">
     <g id="line2d_1">
      <path d="M 64.175902 307.584 
L 64.175902 41.472 
" clip-path="url(#pc77d1a405d)" style="fill: none; stroke: #b0b0b0; stroke-width: 0.8; stroke-linecap: square"/>
     </g>
     <g id="line2d_2">
      <defs>
       <path id="mfe20f9ed2c" d="M 0 0 
L 0 3.5 
" style="stroke: #000000; stroke-width: 0.8"/>
      </defs>
      <g>
       <use xlink:href="#mfe20f9ed2c" x="64.175902" y="307.584" style="stroke: #000000; stroke-width: 0.8"/>
      </g>
     </g>
     <g id="text_1">
      <!-- 47 -->
      <g transform="translate(57.813402 322.182437) scale(0.1 -0.1)">
       <defs>
        <path id="DejaVuSans-34" d="M 2419 4116 
L 825 1625 
L 2419 1625 
L 2419 4116 
z
M 2253 4666 
L 3047 4666 
L 3047 1625 
L 3713 1625 
L 3713 1100 
L 3047 1100 
L 3047 0 
L 2419 0 
L 2419 1100 
L 313 1100 
L 313 1709 
L 2253 4666 
z
" transform="scale(0.015625)"/>
        <path id="DejaVuSans-37" d="M 525 4666 
L 3525 4666 
L 3525 4397 
L 1831 0 
L 1172 0 
L 2766 4134 
L 525 4134 
L 525 4666 
z
" transform="scale(0.015625)"/>
       </defs>
       <use xlink:href="#DejaVuSans-34"/>
       <use xlink:href="#DejaVuSans-37" x="63.623047"/>
      </g>
     </g>
    </g>
    <g id="xtick_2">
     <g id="line2d_3">
      <path d="M 89.933687 307.584 
L 89.933687 41.472 
" clip-path="url(#pc77d1a405d)" style="fill: none; stroke: #b0b0b0; stroke-width: 0.8; stroke-linecap: square"/>
     </g>
     <g id="line2d_4">
      <g>
       <use xlink:href="#mfe20f9ed2c" x="89.933687" y="307.584" style="stroke: #000000; stroke-width: 0.8"/>
      </g>
     </g>
     <g id="text_2">
      <!-- 48 -->
      <g transform="translate(83.571187 322.182437) scale(0.1 -0.1)">
       <defs>
        <path id="DejaVuSans-38" d="M 2034 2216 
Q 1584 2216 1326 1975 
Q 1069 1734 1069 1313 
Q 1069 891 1326 650 
Q 1584 409 2034 409 
Q 2484 409 2743 651 
Q 3003 894 3003 1313 
Q 3003 1734 2745 1975 
Q 2488 2216 2034 2216 
z
M 1403 2484 
Q 997 2584 770 2862 
Q 544 3141 544 3541 
Q 544 4100 942 4425 
Q 1341 4750 2034 4750 
Q 2731 4750 3128 4425 
Q 3525 4100 3525 3541 
Q 3525 3141 3298 2862 
Q 3072 2584 2669 2484 
Q 3125 2378 3379 2068 
Q 3634 1759 3634 1313 
Q 3634 634 3220 271 
Q 2806 -91 2034 -91 
Q 1263 -91 848 271 
Q 434 634 434 1313 
Q 434 1759 690 2068 
Q 947 2378 1403 2484 
z
M 1172 3481 
Q 1172 3119 1398 2916 
Q 1625 2713 2034 2713 
Q 2441 2713 2670 2916 
Q 2900 3119 2900 3481 
Q 2900 3844 2670 4047 
Q 2441 4250 2034 4250 
Q 1625 4250 1398 4047 
Q 1172 3844 1172 3481 
z
" transform="scale(0.015625)"/>
       </defs>
       <use xlink:href="#DejaVuSans-34"/>
       <use xlink:href="#DejaVuSans-38" x="63.623047"/>
      </g>
     </g>
    </g>
    <g id="xtick_3">
     <g id="line2d_5">
      <path d="M 115.691472 307.584 
L 115.691472 41.472 
" clip-path="url(#pc77d1a405d)" style="fill: none; stroke: #b0b0b0; stroke-width: 0.8; stroke-linecap: square"/>
     </g>
     <g id="line2d_6">
      <g>
       <use xlink:href="#mfe20f9ed2c" x="115.691472" y="307.584" style="stroke: #000000; stroke-width: 0.8"/>
      </g>
     </g>
     <g id="text_3">
      <!-- 49 -->
      <g transform="translate(109.328972 322.182437) scale(0.1 -0.1)">
       <defs>
        <path id="DejaVuSans-39" d="M 703 97 
L 703 672 
Q 941 559 1184 500 
Q 1428 441 1663 441 
Q 2288 441 2617 861 
Q 2947 1281 2994 2138 
Q 2813 1869 2534 1725 
Q 2256 1581 1919 1581 
Q 1219 1581 811 2004 
Q 403 2428 403 3163 
Q 403 3881 828 4315 
Q 1253 4750 1959 4750 
Q 2769 4750 3195 4129 
Q 3622 3509 3622 2328 
Q 3622 1225 3098 567 
Q 2575 -91 1691 -91 
Q 1453 -91 1209 -44 
Q 966 3 703 97 
z
M 1959 2075 
Q 2384 2075 2632 2365 
Q 2881 2656 2881 3163 
Q 2881 3666 2632 3958 
Q 2384 4250 1959 4250 
Q 1534 4250 1286 3958 
Q 1038 3666 1038 3163 
Q 1038 2656 1286 2365 
Q 1534 2075 1959 2075 
z
" transform="scale(0.015625)"/>
       </defs>
       <use xlink:href="#DejaVuSans-34"/>
       <use xlink:href="#DejaVuSans-39" x="63.623047"/>
      </g>
     </g>
    </g>
    <g id="xtick_4">
     <g id="line2d_7">
      <path d="M 141.449256 307.584 
L 141.449256 41.472 
" clip-path="url(#pc77d1a405d)" style="fill: none; stroke: #b0b0b0; stroke-width: 0.8; stroke-linecap: square"/>
     </g>
     <g id="line2d_8">
      <g>
       <use xlink:href="#mfe20f9ed2c" x="141.449256" y="307.584" style="stroke: #000000; stroke-width: 0.8"/>
      </g>
     </g>
     <g id="text_4">
      <!-- 50 -->
      <g transform="translate(135.086756 322.182437) scale(0.1 -0.1)">
       <defs>
        <path id="DejaVuSans-35" d="M 691 4666 
L 3169 4666 
L 3169 4134 
L 1269 4134 
L 1269 2991 
Q 1406 3038 1543 3061 
Q 1681 3084 1819 3084 
Q 2600 3084 3056 2656 
Q 3513 2228 3513 1497 
Q 3513 744 3044 326 
Q 2575 -91 1722 -91 
Q 1428 -91 1123 -41 
Q 819 9 494 109 
L 494 744 
Q 775 591 1075 516 
Q 1375 441 1709 441 
Q 2250 441 2565 725 
Q 2881 1009 2881 1497 
Q 2881 1984 2565 2268 
Q 2250 2553 1709 2553 
Q 1456 2553 1204 2497 
Q 953 2441 691 2322 
L 691 4666 
z
" transform="scale(0.015625)"/>
        <path id="DejaVuSans-30" d="M 2034 4250 
Q 1547 4250 1301 3770 
Q 1056 3291 1056 2328 
Q 1056 1369 1301 889 
Q 1547 409 2034 409 
Q 2525 409 2770 889 
Q 3016 1369 3016 2328 
Q 3016 3291 2770 3770 
Q 2525 4250 2034 4250 
z
M 2034 4750 
Q 2819 4750 3233 4129 
Q 3647 3509 3647 2328 
Q 3647 1150 3233 529 
Q 2819 -91 2034 -91 
Q 1250 -91 836 529 
Q 422 1150 422 2328 
Q 422 3509 836 4129 
Q 1250 4750 2034 4750 
z
" transform="scale(0.015625)"/>
       </defs>
       <use xlink:href="#DejaVuSans-35"/>
       <use xlink:href="#DejaVuSans-30" x="63.623047"/>
      </g>
     </g>
    </g>
    <g id="xtick_5">
     <g id="line2d_9">
      <path d="M 167.207041 307.584 
L 167.207041 41.472 
" clip-path="url(#pc77d1a405d)" style="fill: none; stroke: #b0b0b0; stroke-width: 0.8; stroke-linecap: square"/>
     </g>
     <g id="line2d_10">
      <g>
       <use xlink:href="#mfe20f9ed2c" x="167.207041" y="307.584" style="stroke: #000000; stroke-width: 0.8"/>
      </g>
     </g>
     <g id="text_5">
      <!-- 51 -->
      <g transform="translate(160.844541 322.182437) scale(0.1 -0.1)">
       <defs>
        <path id="DejaVuSans-31" d="M 794 531 
L 1825 531 
L 1825 4091 
L 703 3866 
L 703 4441 
L 1819 4666 
L 2450 4666 
L 2450 531 
L 3481 531 
L 3481 0 
L 794 0 
L 794 531 
z
" transform="scale(0.015625)"/>
       </defs>
       <use xlink:href="#DejaVuSans-35"/>
       <use xlink:href="#DejaVuSans-31" x="63.623047"/>
      </g>
     </g>
    </g>
    <g id="xtick_6">
     <g id="line2d_11">
      <path d="M 192.964826 307.584 
L 192.964826 41.472 
" clip-path="url(#pc77d1a405d)" style="fill: none; stroke: #b0b0b0; stroke-width: 0.8; stroke-linecap: square"/>
     </g>
     <g id="line2d_12">
      <g>
       <use xlink:href="#mfe20f9ed2c" x="192.964826" y="307.584" style="stroke: #000000; stroke-width: 0.8"/>
      </g>
     </g>
     <g id="text_6">
      <!-- 52 -->
      <g transform="translate(186.602326 322.182437) scale(0.1 -0.1)">
       <defs>
        <path id="DejaVuSans-32" d="M 1228 531 
L 3431 531 
L 3431 0 
L 469 0 
L 469 531 
Q 828 903 1448 1529 
Q 2069 2156 2228 2338 
Q 2531 2678 2651 2914 
Q 2772 3150 2772 3378 
Q 2772 3750 2511 3984 
Q 2250 4219 1831 4219 
Q 1534 4219 1204 4116 
Q 875 4013 500 3803 
L 500 4441 
Q 881 4594 1212 4672 
Q 1544 4750 1819 4750 
Q 2544 4750 2975 4387 
Q 3406 4025 3406 3419 
Q 3406 3131 3298 2873 
Q 3191 2616 2906 2266 
Q 2828 2175 2409 1742 
Q 1991 1309 1228 531 
z
" transform="scale(0.015625)"/>
       </defs>
       <use xlink:href="#DejaVuSans-35"/>
       <use xlink:href="#DejaVuSans-32" x="63.623047"/>
      </g>
     </g>
    </g>
    <g id="xtick_7">
     <g id="line2d_13">
      <path d="M 218.722611 307.584 
L 218.722611 41.472 
" clip-path="url(#pc77d1a405d)" style="fill: none; stroke: #b0b0b0; stroke-width: 0.8; stroke-linecap: square"/>
     </g>
     <g id="line2d_14">
      <g>
       <use xlink:href="#mfe20f9ed2c" x="218.722611" y="307.584" style="stroke: #000000; stroke-width: 0.8"/>
      </g>
     </g>
     <g id="text_7">
      <!-- 53 -->
      <g transform="translate(212.360111 322.182437) scale(0.1 -0.1)">
       <defs>
        <path id="DejaVuSans-33" d="M 2597 2516 
Q 3050 2419 3304 2112 
Q 3559 1806 3559 1356 
Q 3559 666 3084 287 
Q 2609 -91 1734 -91 
Q 1441 -91 1130 -33 
Q 819 25 488 141 
L 488 750 
Q 750 597 1062 519 
Q 1375 441 1716 441 
Q 2309 441 2620 675 
Q 2931 909 2931 1356 
Q 2931 1769 2642 2001 
Q 2353 2234 1838 2234 
L 1294 2234 
L 1294 2753 
L 1863 2753 
Q 2328 2753 2575 2939 
Q 2822 3125 2822 3475 
Q 2822 3834 2567 4026 
Q 2313 4219 1838 4219 
Q 1578 4219 1281 4162 
Q 984 4106 628 3988 
L 628 4550 
Q 988 4650 1302 4700 
Q 1616 4750 1894 4750 
Q 2613 4750 3031 4423 
Q 3450 4097 3450 3541 
Q 3450 3153 3228 2886 
Q 3006 2619 2597 2516 
z
" transform="scale(0.015625)"/>
       </defs>
       <use xlink:href="#DejaVuSans-35"/>
       <use xlink:href="#DejaVuSans-33" x="63.623047"/>
      </g>
     </g>
    </g>
    <g id="xtick_8">
     <g id="line2d_15">
      <path d="M 244.480396 307.584 
L 244.480396 41.472 
" clip-path="url(#pc77d1a405d)" style="fill: none; stroke: #b0b0b0; stroke-width: 0.8; stroke-linecap: square"/>
     </g>
     <g id="line2d_16">
      <g>
       <use xlink:href="#mfe20f9ed2c" x="244.480396" y="307.584" style="stroke: #000000; stroke-width: 0.8"/>
      </g>
     </g>
     <g id="text_8">
      <!-- 54 -->
      <g transform="translate(238.117896 322.182437) scale(0.1 -0.1)">
       <use xlink:href="#DejaVuSans-35"/>
       <use xlink:href="#DejaVuSans-34" x="63.623047"/>
      </g>
     </g>
    </g>
    <g id="xtick_9">
     <g id="line2d_17">
      <path d="M 270.23818 307.584 
L 270.23818 41.472 
" clip-path="url(#pc77d1a405d)" style="fill: none; stroke: #b0b0b0; stroke-width: 0.8; stroke-linecap: square"/>
     </g>
     <g id="line2d_18">
      <g>
       <use xlink:href="#mfe20f9ed2c" x="270.23818" y="307.584" style="stroke: #000000; stroke-width: 0.8"/>
      </g>
     </g>
     <g id="text_9">
      <!-- 55 -->
      <g transform="translate(263.87568 322.182437) scale(0.1 -0.1)">
       <use xlink:href="#DejaVuSans-35"/>
       <use xlink:href="#DejaVuSans-35" x="63.623047"/>
      </g>
     </g>
    </g>
    <g id="xtick_10">
     <g id="line2d_19">
      <path d="M 295.995965 307.584 
L 295.995965 41.472 
" clip-path="url(#pc77d1a405d)" style="fill: none; stroke: #b0b0b0; stroke-width: 0.8; stroke-linecap: square"/>
     </g>
     <g id="line2d_20">
      <g>
       <use xlink:href="#mfe20f9ed2c" x="295.995965" y="307.584" style="stroke: #000000; stroke-width: 0.8"/>
      </g>
     </g>
     <g id="text_10">
      <!-- 56 -->
      <g transform="translate(289.633465 322.182437) scale(0.1 -0.1)">
       <defs>
        <path id="DejaVuSans-36" d="M 2113 2584 
Q 1688 2584 1439 2293 
Q 1191 2003 1191 1497 
Q 1191 994 1439 701 
Q 1688 409 2113 409 
Q 2538 409 2786 701 
Q 3034 994 3034 1497 
Q 3034 2003 2786 2293 
Q 2538 2584 2113 2584 
z
M 3366 4563 
L 3366 3988 
Q 3128 4100 2886 4159 
Q 2644 4219 2406 4219 
Q 1781 4219 1451 3797 
Q 1122 3375 1075 2522 
Q 1259 2794 1537 2939 
Q 1816 3084 2150 3084 
Q 2853 3084 3261 2657 
Q 3669 2231 3669 1497 
Q 3669 778 3244 343 
Q 2819 -91 2113 -91 
Q 1303 -91 875 529 
Q 447 1150 447 2328 
Q 447 3434 972 4092 
Q 1497 4750 2381 4750 
Q 2619 4750 2861 4703 
Q 3103 4656 3366 4563 
z
" transform="scale(0.015625)"/>
       </defs>
       <use xlink:href="#DejaVuSans-35"/>
       <use xlink:href="#DejaVuSans-36" x="63.623047"/>
      </g>
     </g>
    </g>
    <g id="xtick_11">
     <g id="line2d_21">
      <path d="M 321.75375 307.584 
L 321.75375 41.472 
" clip-path="url(#pc77d1a405d)" style="fill: none; stroke: #b0b0b0; stroke-width: 0.8; stroke-linecap: square"/>
     </g>
     <g id="line2d_22">
      <g>
       <use xlink:href="#mfe20f9ed2c" x="321.75375" y="307.584" style="stroke: #000000; stroke-width: 0.8"/>
      </g>
     </g>
     <g id="text_11">
      <!-- 57 -->
      <g transform="translate(315.39125 322.182437) scale(0.1 -0.1)">
       <use xlink:href="#DejaVuSans-35"/>
       <use xlink:href="#DejaVuSans-37" x="63.623047"/>
      </g>
     </g>
    </g>
    <g id="xtick_12">
     <g id="line2d_23">
      <path d="M 347.511535 307.584 
L 347.511535 41.472 
" clip-path="url(#pc77d1a405d)" style="fill: none; stroke: #b0b0b0; stroke-width: 0.8; stroke-linecap: square"/>
     </g>
     <g id="line2d_24">
      <g>
       <use xlink:href="#mfe20f9ed2c" x="347.511535" y="307.584" style="stroke: #000000; stroke-width: 0.8"/>
      </g>
     </g>
     <g id="text_12">
      <!-- 58 -->
      <g transform="translate(341.149035 322.182437) scale(0.1 -0.1)">
       <use xlink:href="#DejaVuSans-35"/>
       <use xlink:href="#DejaVuSans-38" x="63.623047"/>
      </g>
     </g>
    </g>
    <g id="xtick_13">
     <g id="line2d_25">
      <path d="M 373.26932 307.584 
L 373.26932 41.472 
" clip-path="url(#pc77d1a405d)" style="fill: none; stroke: #b0b0b0; stroke-width: 0.8; stroke-linecap: square"/>
     </g>
     <g id="line2d_26">
      <g>
       <use xlink:href="#mfe20f9ed2c" x="373.26932" y="307.584" style="stroke: #000000; stroke-width: 0.8"/>
      </g>
     </g>
     <g id="text_13">
      <!-- 59 -->
      <g transform="translate(366.90682 322.182437) scale(0.1 -0.1)">
       <use xlink:href="#DejaVuSans-35"/>
       <use xlink:href="#DejaVuSans-39" x="63.623047"/>
      </g>
     </g>
    </g>
    <g id="text_14">
     <!-- time [sec] -->
     <g transform="translate(210.942813 335.860562) scale(0.1 -0.1)">
      <defs>
       <path id="DejaVuSans-74" d="M 1172 4494 
L 1172 3500 
L 2356 3500 
L 2356 3053 
L 1172 3053 
L 1172 1153 
Q 1172 725 1289 603 
Q 1406 481 1766 481 
L 2356 481 
L 2356 0 
L 1766 0 
Q 1100 0 847 248 
Q 594 497 594 1153 
L 594 3053 
L 172 3053 
L 172 3500 
L 594 3500 
L 594 4494 
L 1172 4494 
z
" transform="scale(0.015625)"/>
       <path id="DejaVuSans-69" d="M 603 3500 
L 1178 3500 
L 1178 0 
L 603 0 
L 603 3500 
z
M 603 4863 
L 1178 4863 
L 1178 4134 
L 603 4134 
L 603 4863 
z
" transform="scale(0.015625)"/>
       <path id="DejaVuSans-6d" d="M 3328 2828 
Q 3544 3216 3844 3400 
Q 4144 3584 4550 3584 
Q 5097 3584 5394 3201 
Q 5691 2819 5691 2113 
L 5691 0 
L 5113 0 
L 5113 2094 
Q 5113 2597 4934 2840 
Q 4756 3084 4391 3084 
Q 3944 3084 3684 2787 
Q 3425 2491 3425 1978 
L 3425 0 
L 2847 0 
L 2847 2094 
Q 2847 2600 2669 2842 
Q 2491 3084 2119 3084 
Q 1678 3084 1418 2786 
Q 1159 2488 1159 1978 
L 1159 0 
L 581 0 
L 581 3500 
L 1159 3500 
L 1159 2956 
Q 1356 3278 1631 3431 
Q 1906 3584 2284 3584 
Q 2666 3584 2933 3390 
Q 3200 3197 3328 2828 
z
" transform="scale(0.015625)"/>
       <path id="DejaVuSans-65" d="M 3597 1894 
L 3597 1613 
L 953 1613 
Q 991 1019 1311 708 
Q 1631 397 2203 397 
Q 2534 397 2845 478 
Q 3156 559 3463 722 
L 3463 178 
Q 3153 47 2828 -22 
Q 2503 -91 2169 -91 
Q 1331 -91 842 396 
Q 353 884 353 1716 
Q 353 2575 817 3079 
Q 1281 3584 2069 3584 
Q 2775 3584 3186 3129 
Q 3597 2675 3597 1894 
z
M 3022 2063 
Q 3016 2534 2758 2815 
Q 2500 3097 2075 3097 
Q 1594 3097 1305 2825 
Q 1016 2553 972 2059 
L 3022 2063 
z
" transform="scale(0.015625)"/>
       <path id="DejaVuSans-20" transform="scale(0.015625)"/>
       <path id="DejaVuSans-5b" d="M 550 4863 
L 1875 4863 
L 1875 4416 
L 1125 4416 
L 1125 -397 
L 1875 -397 
L 1875 -844 
L 550 -844 
L 550 4863 
z
" transform="scale(0.015625)"/>
       <path id="DejaVuSans-73" d="M 2834 3397 
L 2834 2853 
Q 2591 2978 2328 3040 
Q 2066 3103 1784 3103 
Q 1356 3103 1142 2972 
Q 928 2841 928 2578 
Q 928 2378 1081 2264 
Q 1234 2150 1697 2047 
L 1894 2003 
Q 2506 1872 2764 1633 
Q 3022 1394 3022 966 
Q 3022 478 2636 193 
Q 2250 -91 1575 -91 
Q 1294 -91 989 -36 
Q 684 19 347 128 
L 347 722 
Q 666 556 975 473 
Q 1284 391 1588 391 
Q 1994 391 2212 530 
Q 2431 669 2431 922 
Q 2431 1156 2273 1281 
Q 2116 1406 1581 1522 
L 1381 1569 
Q 847 1681 609 1914 
Q 372 2147 372 2553 
Q 372 3047 722 3315 
Q 1072 3584 1716 3584 
Q 2034 3584 2315 3537 
Q 2597 3491 2834 3397 
z
" transform="scale(0.015625)"/>
       <path id="DejaVuSans-63" d="M 3122 3366 
L 3122 2828 
Q 2878 2963 2633 3030 
Q 2388 3097 2138 3097 
Q 1578 3097 1268 2742 
Q 959 2388 959 1747 
Q 959 1106 1268 751 
Q 1578 397 2138 397 
Q 2388 397 2633 464 
Q 2878 531 3122 666 
L 3122 134 
Q 2881 22 2623 -34 
Q 2366 -91 2075 -91 
Q 1284 -91 818 406 
Q 353 903 353 1747 
Q 353 2603 823 3093 
Q 1294 3584 2113 3584 
Q 2378 3584 2631 3529 
Q 2884 3475 3122 3366 
z
" transform="scale(0.015625)"/>
       <path id="DejaVuSans-5d" d="M 1947 4863 
L 1947 -844 
L 622 -844 
L 622 -397 
L 1369 -397 
L 1369 4416 
L 622 4416 
L 622 4863 
L 1947 4863 
z
" transform="scale(0.015625)"/>
      </defs>
      <use xlink:href="#DejaVuSans-74"/>
      <use xlink:href="#DejaVuSans-69" x="39.208984"/>
      <use xlink:href="#DejaVuSans-6d" x="66.992188"/>
      <use xlink:href="#DejaVuSans-65" x="164.404297"/>
      <use xlink:href="#DejaVuSans-20" x="225.927734"/>
      <use xlink:href="#DejaVuSans-5b" x="257.714844"/>
      <use xlink:href="#DejaVuSans-73" x="296.728516"/>
      <use xlink:href="#DejaVuSans-65" x="348.828125"/>
      <use xlink:href="#DejaVuSans-63" x="410.351562"/>
      <use xlink:href="#DejaVuSans-5d" x="465.332031"/>
     </g>
    </g>
   </g>
   <g id="matplotlib.axis_2">
    <g id="ytick_1">
     <g id="line2d_27">
      <path d="M 57.6 302.806679 
L 414.72 302.806679 
" clip-path="url(#pc77d1a405d)" style="fill: none; stroke: #b0b0b0; stroke-width: 0.8; stroke-linecap: square"/>
     </g>
     <g id="line2d_28">
      <defs>
       <path id="ma2d103b630" d="M 0 0 
L -3.5 0 
" style="stroke: #000000; stroke-width: 0.8"/>
      </defs>
      <g>
       <use xlink:href="#ma2d103b630" x="57.6" y="302.806679" style="stroke: #000000; stroke-width: 0.8"/>
      </g>
     </g>
     <g id="text_15">
      <!-- 0 -->
      <g transform="translate(44.2375 306.605898) scale(0.1 -0.1)">
       <use xlink:href="#DejaVuSans-30"/>
      </g>
     </g>
    </g>
    <g id="ytick_2">
     <g id="line2d_29">
      <path d="M 57.6 249.634984 
L 414.72 249.634984 
" clip-path="url(#pc77d1a405d)" style="fill: none; stroke: #b0b0b0; stroke-width: 0.8; stroke-linecap: square"/>
     </g>
     <g id="line2d_30">
      <g>
       <use xlink:href="#ma2d103b630" x="57.6" y="249.634984" style="stroke: #000000; stroke-width: 0.8"/>
      </g>
     </g>
     <g id="text_16">
      <!-- 20 -->
      <g transform="translate(37.875 253.434203) scale(0.1 -0.1)">
       <use xlink:href="#DejaVuSans-32"/>
       <use xlink:href="#DejaVuSans-30" x="63.623047"/>
      </g>
     </g>
    </g>
    <g id="ytick_3">
     <g id="line2d_31">
      <path d="M 57.6 196.463289 
L 414.72 196.463289 
" clip-path="url(#pc77d1a405d)" style="fill: none; stroke: #b0b0b0; stroke-width: 0.8; stroke-linecap: square"/>
     </g>
     <g id="line2d_32">
      <g>
       <use xlink:href="#ma2d103b630" x="57.6" y="196.463289" style="stroke: #000000; stroke-width: 0.8"/>
      </g>
     </g>
     <g id="text_17">
      <!-- 40 -->
      <g transform="translate(37.875 200.262507) scale(0.1 -0.1)">
       <use xlink:href="#DejaVuSans-34"/>
       <use xlink:href="#DejaVuSans-30" x="63.623047"/>
      </g>
     </g>
    </g>
    <g id="ytick_4">
     <g id="line2d_33">
      <path d="M 57.6 143.291593 
L 414.72 143.291593 
" clip-path="url(#pc77d1a405d)" style="fill: none; stroke: #b0b0b0; stroke-width: 0.8; stroke-linecap: square"/>
     </g>
     <g id="line2d_34">
      <g>
       <use xlink:href="#ma2d103b630" x="57.6" y="143.291593" style="stroke: #000000; stroke-width: 0.8"/>
      </g>
     </g>
     <g id="text_18">
      <!-- 60 -->
      <g transform="translate(37.875 147.090812) scale(0.1 -0.1)">
       <use xlink:href="#DejaVuSans-36"/>
       <use xlink:href="#DejaVuSans-30" x="63.623047"/>
      </g>
     </g>
    </g>
    <g id="ytick_5">
     <g id="line2d_35">
      <path d="M 57.6 90.119898 
L 414.72 90.119898 
" clip-path="url(#pc77d1a405d)" style="fill: none; stroke: #b0b0b0; stroke-width: 0.8; stroke-linecap: square"/>
     </g>
     <g id="line2d_36">
      <g>
       <use xlink:href="#ma2d103b630" x="57.6" y="90.119898" style="stroke: #000000; stroke-width: 0.8"/>
      </g>
     </g>
     <g id="text_19">
      <!-- 80 -->
      <g transform="translate(37.875 93.919117) scale(0.1 -0.1)">
       <use xlink:href="#DejaVuSans-38"/>
       <use xlink:href="#DejaVuSans-30" x="63.623047"/>
      </g>
     </g>
    </g>
    <g id="text_20">
     <!-- angle [°] -->
     <g transform="translate(31.795312 196.391281) rotate(-90) scale(0.1 -0.1)">
      <defs>
       <path id="DejaVuSans-61" d="M 2194 1759 
Q 1497 1759 1228 1600 
Q 959 1441 959 1056 
Q 959 750 1161 570 
Q 1363 391 1709 391 
Q 2188 391 2477 730 
Q 2766 1069 2766 1631 
L 2766 1759 
L 2194 1759 
z
M 3341 1997 
L 3341 0 
L 2766 0 
L 2766 531 
Q 2569 213 2275 61 
Q 1981 -91 1556 -91 
Q 1019 -91 701 211 
Q 384 513 384 1019 
Q 384 1609 779 1909 
Q 1175 2209 1959 2209 
L 2766 2209 
L 2766 2266 
Q 2766 2663 2505 2880 
Q 2244 3097 1772 3097 
Q 1472 3097 1187 3025 
Q 903 2953 641 2809 
L 641 3341 
Q 956 3463 1253 3523 
Q 1550 3584 1831 3584 
Q 2591 3584 2966 3190 
Q 3341 2797 3341 1997 
z
" transform="scale(0.015625)"/>
       <path id="DejaVuSans-6e" d="M 3513 2113 
L 3513 0 
L 2938 0 
L 2938 2094 
Q 2938 2591 2744 2837 
Q 2550 3084 2163 3084 
Q 1697 3084 1428 2787 
Q 1159 2491 1159 1978 
L 1159 0 
L 581 0 
L 581 3500 
L 1159 3500 
L 1159 2956 
Q 1366 3272 1645 3428 
Q 1925 3584 2291 3584 
Q 2894 3584 3203 3211 
Q 3513 2838 3513 2113 
z
" transform="scale(0.015625)"/>
       <path id="DejaVuSans-67" d="M 2906 1791 
Q 2906 2416 2648 2759 
Q 2391 3103 1925 3103 
Q 1463 3103 1205 2759 
Q 947 2416 947 1791 
Q 947 1169 1205 825 
Q 1463 481 1925 481 
Q 2391 481 2648 825 
Q 2906 1169 2906 1791 
z
M 3481 434 
Q 3481 -459 3084 -895 
Q 2688 -1331 1869 -1331 
Q 1566 -1331 1297 -1286 
Q 1028 -1241 775 -1147 
L 775 -588 
Q 1028 -725 1275 -790 
Q 1522 -856 1778 -856 
Q 2344 -856 2625 -561 
Q 2906 -266 2906 331 
L 2906 616 
Q 2728 306 2450 153 
Q 2172 0 1784 0 
Q 1141 0 747 490 
Q 353 981 353 1791 
Q 353 2603 747 3093 
Q 1141 3584 1784 3584 
Q 2172 3584 2450 3431 
Q 2728 3278 2906 2969 
L 2906 3500 
L 3481 3500 
L 3481 434 
z
" transform="scale(0.015625)"/>
       <path id="DejaVuSans-6c" d="M 603 4863 
L 1178 4863 
L 1178 0 
L 603 0 
L 603 4863 
z
" transform="scale(0.015625)"/>
       <path id="DejaVuSans-b0" d="M 1600 4347 
Q 1350 4347 1178 4173 
Q 1006 4000 1006 3750 
Q 1006 3503 1178 3333 
Q 1350 3163 1600 3163 
Q 1850 3163 2022 3333 
Q 2194 3503 2194 3750 
Q 2194 3997 2020 4172 
Q 1847 4347 1600 4347 
z
M 1600 4750 
Q 1800 4750 1984 4673 
Q 2169 4597 2303 4453 
Q 2447 4313 2519 4134 
Q 2591 3956 2591 3750 
Q 2591 3338 2302 3052 
Q 2013 2766 1594 2766 
Q 1172 2766 890 3047 
Q 609 3328 609 3750 
Q 609 4169 896 4459 
Q 1184 4750 1600 4750 
z
" transform="scale(0.015625)"/>
      </defs>
      <use xlink:href="#DejaVuSans-61"/>
      <use xlink:href="#DejaVuSans-6e" x="61.279297"/>
      <use xlink:href="#DejaVuSans-67" x="124.658203"/>
      <use xlink:href="#DejaVuSans-6c" x="188.134766"/>
      <use xlink:href="#DejaVuSans-65" x="215.917969"/>
      <use xlink:href="#DejaVuSans-20" x="277.441406"/>
      <use xlink:href="#DejaVuSans-5b" x="309.228516"/>
      <use xlink:href="#DejaVuSans-b0" x="348.242188"/>
      <use xlink:href="#DejaVuSans-5d" x="398.242188"/>
     </g>
    </g>
   </g>
   <g id="line2d_37">
    <path d="M 73.832727 287.03053 
L 75.479088 291.303074 
L 77.230952 292.673457 
L 79.807452 293.12304 
L 80.734912 293.043324 
L 81.562793 292.596479 
L 82.3839 291.753936 
L 83.329777 291.550537 
L 85.06562 288.95512 
L 85.887242 287.507572 
L 86.722773 287.14569 
L 87.636762 284.991656 
L 88.50024 283.576906 
L 89.397719 280.785075 
L 90.2154 275.005193 
L 91.068755 271.663677 
L 91.965512 269.144187 
L 92.790611 268.605405 
L 94.541136 267.909751 
L 95.365797 267.222512 
L 96.294855 267.249182 
L 97.119362 267.092871 
L 97.946161 266.553963 
L 99.699261 265.796802 
L 100.696242 265.770504 
L 101.465833 265.92554 
L 102.285163 265.905154 
L 104.055418 265.592893 
L 104.843812 265.588331 
L 105.783534 265.418631 
L 106.603919 265.649809 
L 107.533002 265.356733 
L 108.365751 266.110121 
L 109.171841 269.566314 
L 110.104479 269.65738 
L 110.932644 270.975896 
L 111.752334 272.79236 
L 112.684662 275.438594 
L 113.509349 280.364675 
L 114.449045 280.43808 
L 115.249906 279.124221 
L 116.082964 278.197198 
L 117.008055 281.915981 
L 117.838795 283.985636 
L 119.591638 289.700086 
L 120.406022 291.826468 
L 122.155826 293.787978 
L 122.979096 294.245219 
L 123.904702 294.415979 
L 124.728899 294.752224 
L 125.660636 294.87296 
L 126.479527 294.699197 
L 128.232757 293.965414 
L 129.05971 293.786702 
L 129.90982 293.330999 
L 131.694912 290.897236 
L 134.2812 278.150209 
L 135.156295 275.699203 
L 135.961148 272.131558 
L 136.88745 270.978846 
L 137.709896 276.423743 
L 138.53126 277.426538 
L 139.456377 277.736558 
L 140.282532 276.837282 
L 141.104102 276.429194 
L 142.031331 276.370586 
L 142.860242 275.29971 
L 143.810704 274.266623 
L 145.437927 273.128982 
L 146.384654 273.016738 
L 147.196333 272.68054 
L 148.147903 272.538679 
L 148.960845 271.941074 
L 152.335475 270.697942 
L 153.261313 270.687676 
L 154.088163 271.089856 
L 155.012121 272.162696 
L 156.671437 274.900508 
L 157.597816 275.214014 
L 158.416759 276.80528 
L 160.167129 284.009658 
L 160.988829 283.647003 
L 162.741002 289.033336 
L 163.564272 290.09283 
L 166.243494 294.316006 
L 167.070911 295.10741 
L 167.892095 295.269944 
L 169.646484 295.345668 
L 170.467255 295.47155 
L 171.393686 295.401185 
L 173.973663 295.453558 
L 174.795516 295.488 
L 176.547381 295.057912 
L 178.354341 294.104947 
L 179.122721 291.594569 
L 180.880072 283.241247 
L 181.698963 276.847824 
L 182.658441 272.680047 
L 183.459946 267.988058 
L 184.377206 271.208461 
L 185.240401 270.371292 
L 186.067252 269.394719 
L 186.998215 269.194695 
L 187.806881 269.449823 
L 189.530334 268.705724 
L 190.383561 268.509611 
L 191.287968 267.909744 
L 192.105314 268.1824 
L 194.680784 267.83572 
L 195.713439 267.997951 
L 198.208853 267.823577 
L 199.022027 268.100001 
L 199.914766 268.26368 
L 201.586858 269.537286 
L 203.362265 269.833156 
L 205.09427 269.681957 
L 206.839437 270.094067 
L 207.663815 270.407227 
L 208.513925 270.896124 
L 209.413516 271.994615 
L 210.241113 273.986557 
L 211.08754 274.211298 
L 211.992617 275.920498 
L 214.62702 279.543337 
L 215.389785 282.100149 
L 216.318122 282.960082 
L 217.141469 284.591166 
L 217.970844 285.069606 
L 218.89238 285.852822 
L 219.721008 286.792371 
L 221.467721 287.999536 
L 222.292047 289.197107 
L 223.22502 289.887111 
L 224.870221 290.466275 
L 225.799356 290.243506 
L 226.620926 290.586223 
L 227.564717 290.033111 
L 229.218882 288.088878 
L 230.14915 284.880125 
L 232.699789 268.144093 
L 233.52731 263.651929 
L 234.475686 262.417165 
L 236.129104 261.400682 
L 237.032712 260.38431 
L 237.849028 260.121158 
L 238.809124 260.52274 
L 239.609856 259.945595 
L 240.428361 260.061914 
L 241.352988 260.887003 
L 243.11173 260.541098 
L 244.779624 261.551991 
L 245.707883 262.328214 
L 246.518145 263.789633 
L 247.54127 264.959765 
L 248.361347 264.994969 
L 249.091786 265.416627 
L 250.07017 265.715862 
L 250.832626 266.455738 
L 251.656077 268.058171 
L 253.408121 267.746655 
L 254.359098 268.623512 
L 255.164519 268.809742 
L 255.984157 269.709207 
L 257.778032 271.160436 
L 258.564623 272.456275 
L 259.543059 273.730761 
L 261.245468 279.162194 
L 262.945688 287.104914 
L 264.396109 287.30337 
L 264.715686 288.363837 
L 267.217024 291.063432 
L 269.824072 292.012707 
L 270.755371 292.148405 
L 272.437921 291.933253 
L 273.306757 291.545954 
L 274.205729 290.834596 
L 275.151581 289.673681 
L 275.879779 288.448571 
L 276.717628 283.040819 
L 277.728209 280.781477 
L 278.552845 280.027046 
L 279.581302 279.291145 
L 280.302236 279.131655 
L 281.031362 278.469655 
L 281.958719 276.105397 
L 282.779723 275.794237 
L 283.807175 274.871909 
L 284.534266 276.074237 
L 285.35563 273.91083 
L 286.287186 274.190121 
L 287.120116 274.005597 
L 287.964198 273.50556 
L 288.956182 273.820651 
L 291.440778 273.683727 
L 292.26307 273.073412 
L 300.097532 272.403374 
L 300.949651 272.207482 
L 301.740981 272.55844 
L 302.669086 272.639932 
L 303.490888 273.293553 
L 304.416237 273.436482 
L 305.240614 272.825945 
L 306.066744 274.289197 
L 306.994848 274.614908 
L 307.817475 275.630452 
L 308.759282 275.938646 
L 309.569184 276.562544 
L 310.422128 279.498551 
L 311.334906 280.091309 
L 312.144757 282.964027 
L 312.964163 286.674531 
L 313.897523 288.186875 
L 314.715925 289.168767 
L 315.67329 289.792554 
L 316.483398 289.842087 
L 317.29464 290.608999 
L 318.220529 291.090308 
L 319.86931 291.349667 
L 320.818588 290.833112 
L 321.633229 290.649548 
L 322.558629 289.327641 
L 323.397328 288.424796 
L 325.99106 284.600598 
L 326.88689 283.929794 
L 327.716291 283.076487 
L 329.481626 280.570796 
L 330.311748 279.716245 
L 331.146507 277.941266 
L 332.064282 276.900975 
L 332.863752 276.428418 
L 333.783846 275.23233 
L 334.661568 274.562254 
L 335.460832 273.407731 
L 336.358981 272.90926 
L 338.135727 272.35898 
L 338.937129 272.215798 
L 339.766426 272.192863 
L 340.693732 272.478714 
L 341.511413 272.016961 
L 342.338084 271.282802 
L 343.269253 271.225054 
L 345.014369 270.882194 
L 345.844027 271.104543 
L 346.663898 271.095051 
L 347.591049 270.615101 
L 348.41996 270.476467 
L 349.241531 270.49171 
L 350.166184 271.022363 
L 350.995971 272.002399 
L 351.916811 272.598234 
L 353.570332 273.972273 
L 356.245897 277.810553 
L 357.070403 280.30867 
L 357.894343 284.473973 
L 358.820258 288.085678 
L 360.468988 291.695091 
L 361.401163 292.858955 
L 362.401183 293.48286 
L 363.160316 294.294532 
L 364.007644 294.729656 
L 365.723242 295.050572 
L 368.299535 295.288524 
L 369.126721 295.145466 
L 370.051786 294.627646 
L 370.874824 293.469 
L 372.639052 290.216908 
L 373.451685 288.558495 
L 374.379119 286.326191 
L 376.026536 285.712397 
L 376.955336 283.365939 
L 377.78229 282.058177 
L 378.604323 281.569703 
L 379.531964 288.789932 
L 380.356703 280.474986 
L 381.285348 280.949624 
L 382.936139 279.542654 
L 383.858474 277.60656 
L 384.681306 277.741132 
L 385.639444 277.623669 
L 386.435102 277.806967 
L 387.257188 277.657147 
L 388.186142 277.663082 
L 389.835748 277.295283 
L 390.760968 276.908013 
L 392.525376 277.249216 
L 393.343417 278.969892 
L 395.114883 278.942316 
L 395.913169 277.023974 
L 396.739118 277.120407 
L 398.487273 280.699472 
L 398.487273 280.699472 
" clip-path="url(#pc77d1a405d)" style="fill: none; stroke: #0065bd; stroke-width: 1.5; stroke-linecap: square"/>
   </g>
   <g id="line2d_38">
    <path d="M 73.832727 70.060617 
L 75.479088 72.574356 
L 76.417856 73.647277 
L 77.230952 74.066934 
L 79.807452 73.921765 
L 82.3839 71.945586 
L 83.329777 71.471173 
L 84.138108 70.921437 
L 85.06562 70.011847 
L 85.887242 69.500375 
L 86.722773 66.95848 
L 88.50024 63.787313 
L 89.397719 63.769168 
L 90.2154 65.237294 
L 91.965512 65.18509 
L 92.790611 64.982805 
L 95.365797 65.059574 
L 96.294855 64.992624 
L 100.696242 65.47646 
L 101.465833 65.246514 
L 102.285163 65.138288 
L 103.209352 64.841908 
L 107.533002 65.094876 
L 108.365751 65.151463 
L 109.171841 64.182252 
L 110.932644 63.576204 
L 111.752334 62.94109 
L 112.684662 61.094942 
L 113.509349 57.931884 
L 114.449045 58.451842 
L 115.249906 60.251389 
L 116.082964 62.538457 
L 117.008055 62.964198 
L 117.838795 67.240509 
L 118.757112 68.52124 
L 119.591638 70.024076 
L 120.406022 72.021364 
L 121.33016 72.583857 
L 122.155826 73.633729 
L 122.979096 73.9144 
L 125.660636 74.392492 
L 127.716777 72.975595 
L 128.232757 72.256509 
L 129.05971 72.186625 
L 129.90982 71.66011 
L 131.694912 69.378385 
L 135.156295 66.100886 
L 135.961148 65.536745 
L 136.88745 65.470753 
L 137.709896 61.646354 
L 138.53126 61.298255 
L 139.456377 61.128677 
L 140.282532 61.280235 
L 142.031331 61.258597 
L 144.615403 62.681962 
L 145.437927 62.995559 
L 146.384654 62.930955 
L 147.196333 63.133089 
L 148.147903 63.148799 
L 148.960845 63.584775 
L 150.686693 64.096721 
L 151.535928 63.98166 
L 154.088163 64.474183 
L 155.012121 64.065939 
L 155.873925 64.409933 
L 156.671437 63.761184 
L 157.597816 63.4159 
L 158.416759 63.3309 
L 159.343447 60.672576 
L 160.167129 60.480245 
L 160.988829 64.713992 
L 161.922085 68.197007 
L 162.741002 69.17178 
L 163.564272 69.89022 
L 164.49284 71.495816 
L 165.316471 72.610241 
L 166.243494 74.807452 
L 167.070911 76.188773 
L 167.892095 76.865968 
L 169.646484 77.428587 
L 172.223962 77.627448 
L 173.177953 76.821924 
L 174.795516 76.160941 
L 176.547381 75.009535 
L 178.354341 73.338972 
L 179.122721 70.175363 
L 180.088458 68.192743 
L 180.880072 67.3197 
L 181.698963 65.536192 
L 182.658441 65.454675 
L 183.459946 64.031094 
L 184.377206 61.144193 
L 185.240401 64.065919 
L 186.067252 64.792449 
L 186.998215 64.923507 
L 187.806881 64.471922 
L 188.613975 64.570228 
L 189.530334 64.462495 
L 190.383561 64.991939 
L 191.287968 65.163887 
L 192.105314 64.856589 
L 193.881983 64.847194 
L 194.680784 64.956035 
L 195.713439 64.847881 
L 197.286158 65.024542 
L 198.208853 65.314168 
L 199.022027 65.977949 
L 199.914766 66.146424 
L 200.758565 66.071497 
L 202.541854 66.598006 
L 204.161632 66.836484 
L 205.09427 67.236147 
L 206.839437 66.852869 
L 207.663815 66.614989 
L 208.513925 66.15354 
L 210.241113 64.850352 
L 211.08754 64.53576 
L 212.839095 64.829523 
L 213.846482 65.25543 
L 214.62702 66.69254 
L 215.389785 68.423955 
L 216.318122 68.54529 
L 217.141469 68.967439 
L 217.970844 69.007919 
L 218.89238 69.436084 
L 219.721008 69.978666 
L 220.646795 70.20921 
L 221.467721 70.725241 
L 222.292047 71.861713 
L 224.04453 72.479466 
L 224.870221 72.566027 
L 226.620926 72.065905 
L 227.564717 71.286112 
L 228.40097 69.944017 
L 229.218882 68.949434 
L 230.14915 68.588557 
L 230.95063 67.051616 
L 232.699789 64.883893 
L 233.52731 65.524226 
L 234.475686 65.566045 
L 235.275053 65.150292 
L 236.129104 65.454057 
L 237.032712 66.13071 
L 237.849028 66.185548 
L 238.809124 66.006398 
L 239.609856 66.473923 
L 240.428361 66.657576 
L 241.352988 66.136988 
L 242.203098 66.496329 
L 243.11173 67.018773 
L 243.933996 67.240549 
L 244.779624 67.111068 
L 245.707883 66.530649 
L 246.518145 66.767479 
L 247.54127 65.56216 
L 249.091786 65.149801 
L 250.07017 65.274552 
L 251.656077 66.07816 
L 252.586808 65.733226 
L 253.408121 66.140065 
L 254.359098 66.457364 
L 255.164519 66.305091 
L 256.937478 65.352087 
L 257.778032 65.073383 
L 258.564623 64.570238 
L 259.543059 64.348265 
L 260.364603 64.672172 
L 261.245468 66.63868 
L 262.078938 69.407972 
L 262.945688 70.778504 
L 264.396109 70.935058 
L 264.715686 71.492829 
L 265.50274 72.322014 
L 266.418327 73.59776 
L 267.217024 74.030457 
L 268.209549 74.291496 
L 268.997892 74.74606 
L 269.824072 74.864852 
L 270.755371 74.737621 
L 271.81278 74.106362 
L 272.437921 73.863152 
L 274.205729 72.499699 
L 275.151581 70.963701 
L 275.879779 70.631282 
L 276.717628 69.710781 
L 277.728209 68.112103 
L 278.552845 64.949949 
L 279.581302 64.064572 
L 280.302236 62.150912 
L 281.031362 60.686466 
L 281.958719 60.366688 
L 282.779723 59.705994 
L 283.807175 60.238854 
L 284.534266 53.568 
L 285.35563 60.625032 
L 286.287186 58.697471 
L 287.120116 59.037508 
L 287.964198 60.947743 
L 288.956182 59.32858 
L 290.642802 59.712612 
L 291.440778 59.570848 
L 292.26307 61.353653 
L 293.216211 61.117968 
L 294.013466 61.700836 
L 294.841501 61.681332 
L 295.774963 62.125115 
L 296.59674 61.952991 
L 297.514876 62.278681 
L 298.368953 62.184975 
L 299.185294 62.386099 
L 300.097532 61.197974 
L 300.949651 61.538436 
L 301.740981 59.070228 
L 302.669086 63.35165 
L 303.490888 62.710381 
L 305.240614 63.728452 
L 306.066744 62.879221 
L 306.994848 62.389568 
L 307.817475 62.11471 
L 308.759282 62.061219 
L 309.569184 62.130087 
L 311.334906 63.520394 
L 312.144757 66.581092 
L 312.964163 69.16148 
L 313.897523 69.773352 
L 314.715925 70.561904 
L 315.67329 71.142824 
L 316.483398 71.249318 
L 318.220529 72.361264 
L 319.057193 72.489426 
L 319.86931 72.355342 
L 320.818588 71.375846 
L 321.633229 70.866065 
L 322.558629 69.724976 
L 323.397328 69.528401 
L 325.99106 66.957572 
L 326.88689 65.579088 
L 327.716291 65.060096 
L 328.534847 64.152878 
L 330.311748 63.127324 
L 332.064282 64.041003 
L 332.863752 62.642931 
L 334.661568 62.49583 
L 335.460832 65.106388 
L 337.199148 65.8238 
L 338.135727 65.642931 
L 338.937129 65.727117 
L 339.766426 65.056829 
L 340.693732 66.871191 
L 341.511413 64.165642 
L 342.338084 67.20075 
L 343.269253 67.42806 
L 345.014369 67.534455 
L 345.844027 65.47097 
L 346.663898 65.513969 
L 347.591049 68.776125 
L 348.41996 68.052992 
L 349.241531 68.834768 
L 350.166184 68.213598 
L 350.995971 66.665047 
L 351.916811 65.851196 
L 352.744409 64.854078 
L 356.245897 63.300174 
L 357.070403 65.194522 
L 357.894343 67.937978 
L 359.646594 71.860317 
L 360.468988 73.646746 
L 361.401163 74.674976 
L 362.401183 75.371895 
L 363.160316 76.83378 
L 364.007644 77.901755 
L 364.796142 78.369994 
L 365.723242 78.758047 
L 367.375217 78.87972 
L 368.299535 78.264561 
L 369.126721 77.336333 
L 370.874824 73.8195 
L 371.699254 72.902538 
L 372.639052 71.589381 
L 374.379119 68.201094 
L 375.206743 65.155563 
L 376.026536 63.655971 
L 376.955336 63.619187 
L 377.78229 63.456824 
L 378.604323 63.134406 
L 379.531964 56.308946 
L 380.356703 62.769324 
L 381.285348 58.765695 
L 382.936139 60.304498 
L 383.858474 64.654276 
L 385.639444 64.899286 
L 386.435102 64.655541 
L 387.257188 64.909516 
L 389.835748 65.439042 
L 390.760968 66.041875 
L 391.611284 66.084302 
L 392.525376 65.821772 
L 393.343417 59.794255 
L 394.163288 59.754504 
L 395.114883 59.921182 
L 395.913169 65.878134 
L 396.739118 66.656549 
L 397.672502 63.722318 
L 398.487273 60.788088 
L 398.487273 60.788088 
" clip-path="url(#pc77d1a405d)" style="fill: none; stroke: #e37222; stroke-width: 1.5; stroke-linecap: square"/>
   </g>
   <g id="line2d_39">
    <path d="M 73.832727 234.871521 
L 74.655637 236.24362 
L 75.479088 236.518392 
L 76.417856 236.251697 
L 77.230952 236.299194 
L 78.159726 235.67851 
L 78.996931 235.324375 
L 79.807452 235.569928 
L 80.734912 234.922247 
L 81.562793 233.968435 
L 82.3839 232.152314 
L 83.329777 231.221329 
L 84.138108 227.628065 
L 85.887242 218.221719 
L 86.722773 210.111821 
L 87.636762 207.080109 
L 88.50024 200.900724 
L 89.397719 196.88541 
L 90.2154 194.50482 
L 91.068755 194.29926 
L 91.965512 193.368872 
L 92.790611 192.718161 
L 93.613701 191.8283 
L 94.541136 192.18953 
L 95.365797 193.053017 
L 96.294855 193.066991 
L 97.119362 192.746433 
L 97.946161 191.851994 
L 98.87442 191.341461 
L 99.699261 190.68217 
L 100.696242 190.315247 
L 101.465833 190.485359 
L 102.285163 189.979145 
L 103.209352 190.211497 
L 104.055418 190.089012 
L 105.783534 189.985831 
L 106.603919 190.483012 
L 107.533002 190.240948 
L 108.365751 190.677541 
L 109.171841 193.158505 
L 110.104479 197.870157 
L 110.932644 198.512348 
L 111.752334 201.018859 
L 112.684662 207.797407 
L 113.509349 215.145393 
L 115.249906 221.454534 
L 116.082964 227.200276 
L 117.008055 230.483713 
L 117.838795 234.730665 
L 118.757112 235.843375 
L 120.406022 236.534037 
L 121.33016 236.094095 
L 122.155826 236.17241 
L 122.979096 235.456154 
L 123.904702 235.361193 
L 124.728899 235.065205 
L 125.660636 235.127062 
L 126.479527 234.836489 
L 127.716777 235.206206 
L 128.232757 234.199297 
L 129.90982 232.038724 
L 130.811652 229.900383 
L 131.694912 226.451774 
L 133.381815 224.283226 
L 135.156295 222.158395 
L 135.961148 222.538509 
L 136.88745 222.664423 
L 137.709896 216.91155 
L 138.53126 213.593948 
L 139.456377 210.780348 
L 140.282532 210.093588 
L 141.104102 208.470849 
L 142.860242 207.104118 
L 145.437927 205.58411 
L 147.196333 204.908504 
L 148.147903 204.826425 
L 148.960845 204.153725 
L 150.686693 203.518599 
L 152.335475 202.859421 
L 153.261313 202.794156 
L 154.088163 203.116692 
L 155.012121 203.936855 
L 155.873925 206.253129 
L 156.671437 206.81342 
L 157.597816 208.950541 
L 158.416759 215.136837 
L 159.343447 220.332837 
L 160.988829 233.248227 
L 161.922085 236.267726 
L 162.741002 235.56459 
L 163.564272 235.141737 
L 164.49284 235.367636 
L 166.243494 234.251059 
L 167.070911 233.871203 
L 168.818989 234.283008 
L 170.467255 233.551506 
L 171.393686 233.969429 
L 172.223962 235.161728 
L 173.177953 236.797332 
L 173.973663 236.165231 
L 174.795516 235.114433 
L 176.547381 234.095541 
L 177.374901 232.833271 
L 178.354341 230.657534 
L 179.122721 229.515586 
L 180.880072 228.214051 
L 181.698963 226.873472 
L 183.459946 224.281156 
L 185.240401 208.372501 
L 186.067252 205.920083 
L 187.806881 205.252925 
L 188.613975 204.330978 
L 189.530334 204.132015 
L 190.383561 204.393323 
L 191.287968 203.673071 
L 192.105314 203.638812 
L 192.954085 203.167625 
L 193.881983 202.986894 
L 194.680784 203.033124 
L 197.286158 202.961935 
L 198.208853 203.311303 
L 199.022027 204.001125 
L 199.914766 204.514007 
L 200.758565 204.838176 
L 201.586858 205.689947 
L 202.541854 205.972364 
L 203.362265 205.857412 
L 204.161632 206.062966 
L 205.09427 206.597088 
L 207.663815 206.695272 
L 208.513925 208.092946 
L 209.413516 210.43926 
L 210.241113 214.555588 
L 211.08754 217.719659 
L 211.992617 223.656768 
L 212.839095 226.610685 
L 213.846482 228.491065 
L 214.62702 232.348027 
L 215.389785 234.445703 
L 216.318122 234.933922 
L 217.970844 234.425164 
L 218.89238 234.673526 
L 219.721008 235.038757 
L 220.646795 234.985274 
L 221.467721 235.401175 
L 222.292047 236.362217 
L 224.870221 236.187068 
L 225.799356 235.395886 
L 226.620926 234.343448 
L 227.564717 232.497344 
L 229.218882 226.957952 
L 230.14915 224.91982 
L 230.95063 222.596403 
L 231.880846 220.349146 
L 233.52731 215.932445 
L 234.475686 215.60768 
L 235.275053 214.631113 
L 236.129104 212.4657 
L 237.032712 210.516957 
L 237.849028 207.479225 
L 238.809124 206.706257 
L 239.609856 205.244311 
L 240.428361 204.640738 
L 241.352988 202.306517 
L 243.11173 200.20725 
L 243.933996 197.895155 
L 244.779624 197.360833 
L 245.707883 196.50185 
L 246.518145 195.459968 
L 247.54127 195.30058 
L 248.361347 194.485942 
L 249.091786 194.392619 
L 250.07017 194.461199 
L 251.656077 198.652225 
L 253.408121 201.329127 
L 254.359098 201.798614 
L 255.164519 202.385573 
L 255.984157 204.953318 
L 256.937478 206.564728 
L 257.778032 208.549585 
L 258.564623 216.581946 
L 259.543059 222.877185 
L 260.364603 229.530898 
L 261.245468 234.292731 
L 262.078938 236.528318 
L 262.945688 235.539869 
L 264.396109 235.26504 
L 264.715686 235.747497 
L 265.50274 236.311221 
L 266.418327 236.545906 
L 268.209549 236.404003 
L 268.997892 236.597718 
L 269.824072 236.564122 
L 270.755371 236.243742 
L 271.81278 234.877726 
L 272.437921 234.650685 
L 273.306757 234.045877 
L 275.151581 228.250484 
L 275.879779 225.185408 
L 276.717628 219.748275 
L 277.728209 214.419229 
L 278.552845 207.484468 
L 279.581302 204.603446 
L 280.302236 198.916725 
L 281.031362 196.718533 
L 281.958719 194.278592 
L 282.779723 189.750763 
L 284.534266 188.936295 
L 302.669086 189.545874 
L 303.490888 194.603921 
L 304.416237 195.444896 
L 305.240614 196.924384 
L 306.066744 199.044877 
L 306.994848 202.125364 
L 307.817475 209.934811 
L 308.759282 216.042226 
L 309.569184 222.698238 
L 310.422128 228.548614 
L 311.334906 231.379634 
L 312.144757 235.210512 
L 312.964163 235.930824 
L 313.897523 235.648342 
L 314.715925 236.155164 
L 315.67329 236.141684 
L 316.483398 235.995612 
L 317.29464 236.336544 
L 318.220529 235.983244 
L 319.057193 235.988591 
L 319.86931 235.302504 
L 320.818588 233.988299 
L 321.633229 232.64954 
L 322.558629 230.20486 
L 323.397328 225.153976 
L 324.207617 218.157326 
L 325.144685 212.67053 
L 328.534847 197.639122 
L 329.481626 194.763568 
L 330.311748 190.036613 
L 331.146507 188.964028 
L 332.064282 188.201549 
L 350.166184 188.443718 
L 350.995971 194.094757 
L 351.916811 196.061806 
L 352.744409 197.002381 
L 353.570332 199.700912 
L 354.49277 207.001726 
L 355.341026 218.326754 
L 356.245897 224.240595 
L 357.070403 231.830416 
L 357.894343 235.278469 
L 358.820258 236.313991 
L 359.646594 235.617859 
L 360.468988 235.373513 
L 361.401163 235.835273 
L 362.401183 234.763129 
L 364.796142 234.246754 
L 365.723242 233.937536 
L 366.549423 233.513328 
L 368.299535 233.771909 
L 369.126721 234.093602 
L 370.051786 233.674919 
L 370.874824 231.014572 
L 371.699254 227.809746 
L 373.451685 214.926107 
L 374.379119 210.013452 
L 375.206743 206.8337 
L 376.026536 205.238703 
L 376.955336 203.698269 
L 378.604323 202.159711 
L 379.531964 206.848362 
L 380.356703 200.560773 
L 381.285348 200.798922 
L 382.105116 199.63949 
L 382.936139 198.237767 
L 383.858474 195.559671 
L 385.639444 195.301159 
L 386.435102 195.348805 
L 387.257188 194.275267 
L 388.186142 194.490746 
L 389.011937 193.706539 
L 389.835748 193.823686 
L 390.760968 194.071543 
L 391.611284 194.508877 
L 392.525376 194.636257 
L 393.343417 196.761163 
L 395.114883 196.78654 
L 395.913169 194.673269 
L 396.739118 195.072229 
L 397.672502 198.837609 
L 398.487273 202.602988 
L 398.487273 202.602988 
" clip-path="url(#pc77d1a405d)" style="fill: none; stroke: #679a1d; stroke-width: 1.5; stroke-linecap: square"/>
   </g>
   <g id="patch_3">
    <path d="M 57.6 307.584 
L 57.6 41.472 
" style="fill: none; stroke: #000000; stroke-width: 0.8; stroke-linejoin: miter; stroke-linecap: square"/>
   </g>
   <g id="patch_4">
    <path d="M 414.72 307.584 
L 414.72 41.472 
" style="fill: none; stroke: #000000; stroke-width: 0.8; stroke-linejoin: miter; stroke-linecap: square"/>
   </g>
   <g id="patch_5">
    <path d="M 57.6 307.584 
L 414.72 307.584 
" style="fill: none; stroke: #000000; stroke-width: 0.8; stroke-linejoin: miter; stroke-linecap: square"/>
   </g>
   <g id="patch_6">
    <path d="M 57.6 41.472 
L 414.72 41.472 
" style="fill: none; stroke: #000000; stroke-width: 0.8; stroke-linejoin: miter; stroke-linecap: square"/>
   </g>
   <g id="text_21">
    <!-- Angles in Index finger joints -->
    <g transform="translate(152.50875 35.472) scale(0.12 -0.12)">
     <defs>
      <path id="DejaVuSans-41" d="M 2188 4044 
L 1331 1722 
L 3047 1722 
L 2188 4044 
z
M 1831 4666 
L 2547 4666 
L 4325 0 
L 3669 0 
L 3244 1197 
L 1141 1197 
L 716 0 
L 50 0 
L 1831 4666 
z
" transform="scale(0.015625)"/>
      <path id="DejaVuSans-49" d="M 628 4666 
L 1259 4666 
L 1259 0 
L 628 0 
L 628 4666 
z
" transform="scale(0.015625)"/>
      <path id="DejaVuSans-64" d="M 2906 2969 
L 2906 4863 
L 3481 4863 
L 3481 0 
L 2906 0 
L 2906 525 
Q 2725 213 2448 61 
Q 2172 -91 1784 -91 
Q 1150 -91 751 415 
Q 353 922 353 1747 
Q 353 2572 751 3078 
Q 1150 3584 1784 3584 
Q 2172 3584 2448 3432 
Q 2725 3281 2906 2969 
z
M 947 1747 
Q 947 1113 1208 752 
Q 1469 391 1925 391 
Q 2381 391 2643 752 
Q 2906 1113 2906 1747 
Q 2906 2381 2643 2742 
Q 2381 3103 1925 3103 
Q 1469 3103 1208 2742 
Q 947 2381 947 1747 
z
" transform="scale(0.015625)"/>
      <path id="DejaVuSans-78" d="M 3513 3500 
L 2247 1797 
L 3578 0 
L 2900 0 
L 1881 1375 
L 863 0 
L 184 0 
L 1544 1831 
L 300 3500 
L 978 3500 
L 1906 2253 
L 2834 3500 
L 3513 3500 
z
" transform="scale(0.015625)"/>
      <path id="DejaVuSans-66" d="M 2375 4863 
L 2375 4384 
L 1825 4384 
Q 1516 4384 1395 4259 
Q 1275 4134 1275 3809 
L 1275 3500 
L 2222 3500 
L 2222 3053 
L 1275 3053 
L 1275 0 
L 697 0 
L 697 3053 
L 147 3053 
L 147 3500 
L 697 3500 
L 697 3744 
Q 697 4328 969 4595 
Q 1241 4863 1831 4863 
L 2375 4863 
z
" transform="scale(0.015625)"/>
      <path id="DejaVuSans-72" d="M 2631 2963 
Q 2534 3019 2420 3045 
Q 2306 3072 2169 3072 
Q 1681 3072 1420 2755 
Q 1159 2438 1159 1844 
L 1159 0 
L 581 0 
L 581 3500 
L 1159 3500 
L 1159 2956 
Q 1341 3275 1631 3429 
Q 1922 3584 2338 3584 
Q 2397 3584 2469 3576 
Q 2541 3569 2628 3553 
L 2631 2963 
z
" transform="scale(0.015625)"/>
      <path id="DejaVuSans-6a" d="M 603 3500 
L 1178 3500 
L 1178 -63 
Q 1178 -731 923 -1031 
Q 669 -1331 103 -1331 
L -116 -1331 
L -116 -844 
L 38 -844 
Q 366 -844 484 -692 
Q 603 -541 603 -63 
L 603 3500 
z
M 603 4863 
L 1178 4863 
L 1178 4134 
L 603 4134 
L 603 4863 
z
" transform="scale(0.015625)"/>
      <path id="DejaVuSans-6f" d="M 1959 3097 
Q 1497 3097 1228 2736 
Q 959 2375 959 1747 
Q 959 1119 1226 758 
Q 1494 397 1959 397 
Q 2419 397 2687 759 
Q 2956 1122 2956 1747 
Q 2956 2369 2687 2733 
Q 2419 3097 1959 3097 
z
M 1959 3584 
Q 2709 3584 3137 3096 
Q 3566 2609 3566 1747 
Q 3566 888 3137 398 
Q 2709 -91 1959 -91 
Q 1206 -91 779 398 
Q 353 888 353 1747 
Q 353 2609 779 3096 
Q 1206 3584 1959 3584 
z
" transform="scale(0.015625)"/>
     </defs>
     <use xlink:href="#DejaVuSans-41"/>
     <use xlink:href="#DejaVuSans-6e" x="68.408203"/>
     <use xlink:href="#DejaVuSans-67" x="131.787109"/>
     <use xlink:href="#DejaVuSans-6c" x="195.263672"/>
     <use xlink:href="#DejaVuSans-65" x="223.046875"/>
     <use xlink:href="#DejaVuSans-73" x="284.570312"/>
     <use xlink:href="#DejaVuSans-20" x="336.669922"/>
     <use xlink:href="#DejaVuSans-69" x="368.457031"/>
     <use xlink:href="#DejaVuSans-6e" x="396.240234"/>
     <use xlink:href="#DejaVuSans-20" x="459.619141"/>
     <use xlink:href="#DejaVuSans-49" x="491.40625"/>
     <use xlink:href="#DejaVuSans-6e" x="520.898438"/>
     <use xlink:href="#DejaVuSans-64" x="584.277344"/>
     <use xlink:href="#DejaVuSans-65" x="647.753906"/>
     <use xlink:href="#DejaVuSans-78" x="707.527344"/>
     <use xlink:href="#DejaVuSans-20" x="766.707031"/>
     <use xlink:href="#DejaVuSans-66" x="798.494141"/>
     <use xlink:href="#DejaVuSans-69" x="833.699219"/>
     <use xlink:href="#DejaVuSans-6e" x="861.482422"/>
     <use xlink:href="#DejaVuSans-67" x="924.861328"/>
     <use xlink:href="#DejaVuSans-65" x="988.337891"/>
     <use xlink:href="#DejaVuSans-72" x="1049.861328"/>
     <use xlink:href="#DejaVuSans-20" x="1090.974609"/>
     <use xlink:href="#DejaVuSans-6a" x="1122.761719"/>
     <use xlink:href="#DejaVuSans-6f" x="1150.544922"/>
     <use xlink:href="#DejaVuSans-69" x="1211.726562"/>
     <use xlink:href="#DejaVuSans-6e" x="1239.509766"/>
     <use xlink:href="#DejaVuSans-74" x="1302.888672"/>
     <use xlink:href="#DejaVuSans-73" x="1342.097656"/>
    </g>
   </g>
   <g id="legend_1">
    <g id="patch_7">
     <path d="M 305.012188 93.506375 
L 407.72 93.506375 
Q 409.72 93.506375 409.72 91.506375 
L 409.72 48.472 
Q 409.72 46.472 407.72 46.472 
L 305.012188 46.472 
Q 303.012188 46.472 303.012188 48.472 
L 303.012188 91.506375 
Q 303.012188 93.506375 305.012188 93.506375 
z
" style="fill: #ffffff; opacity: 0.8; stroke: #cccccc; stroke-linejoin: miter"/>
    </g>
    <g id="line2d_40">
     <path d="M 307.012188 54.570438 
L 317.012188 54.570438 
L 327.012188 54.570438 
" style="fill: none; stroke: #0065bd; stroke-width: 1.5; stroke-linecap: square"/>
    </g>
    <g id="text_22">
     <!-- alpha (DIP) -->
     <g transform="translate(335.012188 58.070438) scale(0.1 -0.1)">
      <defs>
       <path id="DejaVuSans-70" d="M 1159 525 
L 1159 -1331 
L 581 -1331 
L 581 3500 
L 1159 3500 
L 1159 2969 
Q 1341 3281 1617 3432 
Q 1894 3584 2278 3584 
Q 2916 3584 3314 3078 
Q 3713 2572 3713 1747 
Q 3713 922 3314 415 
Q 2916 -91 2278 -91 
Q 1894 -91 1617 61 
Q 1341 213 1159 525 
z
M 3116 1747 
Q 3116 2381 2855 2742 
Q 2594 3103 2138 3103 
Q 1681 3103 1420 2742 
Q 1159 2381 1159 1747 
Q 1159 1113 1420 752 
Q 1681 391 2138 391 
Q 2594 391 2855 752 
Q 3116 1113 3116 1747 
z
" transform="scale(0.015625)"/>
       <path id="DejaVuSans-68" d="M 3513 2113 
L 3513 0 
L 2938 0 
L 2938 2094 
Q 2938 2591 2744 2837 
Q 2550 3084 2163 3084 
Q 1697 3084 1428 2787 
Q 1159 2491 1159 1978 
L 1159 0 
L 581 0 
L 581 4863 
L 1159 4863 
L 1159 2956 
Q 1366 3272 1645 3428 
Q 1925 3584 2291 3584 
Q 2894 3584 3203 3211 
Q 3513 2838 3513 2113 
z
" transform="scale(0.015625)"/>
       <path id="DejaVuSans-28" d="M 1984 4856 
Q 1566 4138 1362 3434 
Q 1159 2731 1159 2009 
Q 1159 1288 1364 580 
Q 1569 -128 1984 -844 
L 1484 -844 
Q 1016 -109 783 600 
Q 550 1309 550 2009 
Q 550 2706 781 3412 
Q 1013 4119 1484 4856 
L 1984 4856 
z
" transform="scale(0.015625)"/>
       <path id="DejaVuSans-44" d="M 1259 4147 
L 1259 519 
L 2022 519 
Q 2988 519 3436 956 
Q 3884 1394 3884 2338 
Q 3884 3275 3436 3711 
Q 2988 4147 2022 4147 
L 1259 4147 
z
M 628 4666 
L 1925 4666 
Q 3281 4666 3915 4102 
Q 4550 3538 4550 2338 
Q 4550 1131 3912 565 
Q 3275 0 1925 0 
L 628 0 
L 628 4666 
z
" transform="scale(0.015625)"/>
       <path id="DejaVuSans-50" d="M 1259 4147 
L 1259 2394 
L 2053 2394 
Q 2494 2394 2734 2622 
Q 2975 2850 2975 3272 
Q 2975 3691 2734 3919 
Q 2494 4147 2053 4147 
L 1259 4147 
z
M 628 4666 
L 2053 4666 
Q 2838 4666 3239 4311 
Q 3641 3956 3641 3272 
Q 3641 2581 3239 2228 
Q 2838 1875 2053 1875 
L 1259 1875 
L 1259 0 
L 628 0 
L 628 4666 
z
" transform="scale(0.015625)"/>
       <path id="DejaVuSans-29" d="M 513 4856 
L 1013 4856 
Q 1481 4119 1714 3412 
Q 1947 2706 1947 2009 
Q 1947 1309 1714 600 
Q 1481 -109 1013 -844 
L 513 -844 
Q 928 -128 1133 580 
Q 1338 1288 1338 2009 
Q 1338 2731 1133 3434 
Q 928 4138 513 4856 
z
" transform="scale(0.015625)"/>
      </defs>
      <use xlink:href="#DejaVuSans-61"/>
      <use xlink:href="#DejaVuSans-6c" x="61.279297"/>
      <use xlink:href="#DejaVuSans-70" x="89.0625"/>
      <use xlink:href="#DejaVuSans-68" x="152.539062"/>
      <use xlink:href="#DejaVuSans-61" x="215.917969"/>
      <use xlink:href="#DejaVuSans-20" x="277.197266"/>
      <use xlink:href="#DejaVuSans-28" x="308.984375"/>
      <use xlink:href="#DejaVuSans-44" x="347.998047"/>
      <use xlink:href="#DejaVuSans-49" x="425"/>
      <use xlink:href="#DejaVuSans-50" x="454.492188"/>
      <use xlink:href="#DejaVuSans-29" x="514.794922"/>
     </g>
    </g>
    <g id="line2d_41">
     <path d="M 307.012188 69.248563 
L 317.012188 69.248563 
L 327.012188 69.248563 
" style="fill: none; stroke: #e37222; stroke-width: 1.5; stroke-linecap: square"/>
    </g>
    <g id="text_23">
     <!-- beta (PIP) -->
     <g transform="translate(335.012188 72.748563) scale(0.1 -0.1)">
      <defs>
       <path id="DejaVuSans-62" d="M 3116 1747 
Q 3116 2381 2855 2742 
Q 2594 3103 2138 3103 
Q 1681 3103 1420 2742 
Q 1159 2381 1159 1747 
Q 1159 1113 1420 752 
Q 1681 391 2138 391 
Q 2594 391 2855 752 
Q 3116 1113 3116 1747 
z
M 1159 2969 
Q 1341 3281 1617 3432 
Q 1894 3584 2278 3584 
Q 2916 3584 3314 3078 
Q 3713 2572 3713 1747 
Q 3713 922 3314 415 
Q 2916 -91 2278 -91 
Q 1894 -91 1617 61 
Q 1341 213 1159 525 
L 1159 0 
L 581 0 
L 581 4863 
L 1159 4863 
L 1159 2969 
z
" transform="scale(0.015625)"/>
      </defs>
      <use xlink:href="#DejaVuSans-62"/>
      <use xlink:href="#DejaVuSans-65" x="63.476562"/>
      <use xlink:href="#DejaVuSans-74" x="125"/>
      <use xlink:href="#DejaVuSans-61" x="164.208984"/>
      <use xlink:href="#DejaVuSans-20" x="225.488281"/>
      <use xlink:href="#DejaVuSans-28" x="257.275391"/>
      <use xlink:href="#DejaVuSans-50" x="296.289062"/>
      <use xlink:href="#DejaVuSans-49" x="356.591797"/>
      <use xlink:href="#DejaVuSans-50" x="386.083984"/>
      <use xlink:href="#DejaVuSans-29" x="446.386719"/>
     </g>
    </g>
    <g id="line2d_42">
     <path d="M 307.012188 83.926688 
L 317.012188 83.926688 
L 327.012188 83.926688 
" style="fill: none; stroke: #679a1d; stroke-width: 1.5; stroke-linecap: square"/>
    </g>
    <g id="text_24">
     <!-- gamma (MCP) -->
     <g transform="translate(335.012188 87.426688) scale(0.1 -0.1)">
      <defs>
       <path id="DejaVuSans-4d" d="M 628 4666 
L 1569 4666 
L 2759 1491 
L 3956 4666 
L 4897 4666 
L 4897 0 
L 4281 0 
L 4281 4097 
L 3078 897 
L 2444 897 
L 1241 4097 
L 1241 0 
L 628 0 
L 628 4666 
z
" transform="scale(0.015625)"/>
       <path id="DejaVuSans-43" d="M 4122 4306 
L 4122 3641 
Q 3803 3938 3442 4084 
Q 3081 4231 2675 4231 
Q 1875 4231 1450 3742 
Q 1025 3253 1025 2328 
Q 1025 1406 1450 917 
Q 1875 428 2675 428 
Q 3081 428 3442 575 
Q 3803 722 4122 1019 
L 4122 359 
Q 3791 134 3420 21 
Q 3050 -91 2638 -91 
Q 1578 -91 968 557 
Q 359 1206 359 2328 
Q 359 3453 968 4101 
Q 1578 4750 2638 4750 
Q 3056 4750 3426 4639 
Q 3797 4528 4122 4306 
z
" transform="scale(0.015625)"/>
      </defs>
      <use xlink:href="#DejaVuSans-67"/>
      <use xlink:href="#DejaVuSans-61" x="63.476562"/>
      <use xlink:href="#DejaVuSans-6d" x="124.755859"/>
      <use xlink:href="#DejaVuSans-6d" x="222.167969"/>
      <use xlink:href="#DejaVuSans-61" x="319.580078"/>
      <use xlink:href="#DejaVuSans-20" x="380.859375"/>
      <use xlink:href="#DejaVuSans-28" x="412.646484"/>
      <use xlink:href="#DejaVuSans-4d" x="451.660156"/>
      <use xlink:href="#DejaVuSans-43" x="537.939453"/>
      <use xlink:href="#DejaVuSans-50" x="607.763672"/>
      <use xlink:href="#DejaVuSans-29" x="668.066406"/>
     </g>
    </g>
   </g>
  </g>
 </g>
 <defs>
  <clipPath id="pc77d1a405d">
   <rect x="57.6" y="41.472" width="357.12" height="266.112"/>
  </clipPath>
 </defs>
</svg>
