<?xml version="1.0" encoding="utf-8" standalone="no"?>
<!DOCTYPE svg PUBLIC "-//W3C//DTD SVG 1.1//EN"
  "http://www.w3.org/Graphics/SVG/1.1/DTD/svg11.dtd">
<svg xmlns:xlink="http://www.w3.org/1999/xlink" width="460.8pt" height="345.6pt" viewBox="0 0 460.8 345.6" xmlns="http://www.w3.org/2000/svg" version="1.1">
 <metadata>
  <rdf:RDF xmlns:dc="http://purl.org/dc/elements/1.1/" xmlns:cc="http://creativecommons.org/ns#" xmlns:rdf="http://www.w3.org/1999/02/22-rdf-syntax-ns#">
   <cc:Work>
    <dc:type rdf:resource="http://purl.org/dc/dcmitype/StillImage"/>
    <dc:date>2023-08-07T09:57:08.821548</dc:date>
    <dc:format>image/svg+xml</dc:format>
    <dc:creator>
     <cc:Agent>
      <dc:title>Matplotlib v3.7.1, https://matplotlib.org/</dc:title>
     </cc:Agent>
    </dc:creator>
   </cc:Work>
  </rdf:RDF>
 </metadata>
 <defs>
  <style type="text/css">*{stroke-linejoin: round; stroke-linecap: butt}</style>
 </defs>
 <g id="figure_1">
  <g id="patch_1">
   <path d="M 0 345.6 
L 460.8 345.6 
L 460.8 0 
L 0 0 
z
" style="fill: #ffffff"/>
  </g>
  <g id="axes_1">
   <g id="patch_2">
    <path d="M 57.6 307.584 
L 414.72 307.584 
L 414.72 41.472 
L 57.6 41.472 
z
" style="fill: #ffffff"/>
   </g>
   <g id="matplotlib.axis_1">
    <g id="xtick_1">
     <g id="line2d_1">
      <path d="M 66.248584 307.584 
L 66.248584 41.472 
" clip-path="url(#p8b4e424146)" style="fill: none; stroke: #b0b0b0; stroke-width: 0.8; stroke-linecap: square"/>
     </g>
     <g id="line2d_2">
      <defs>
       <path id="m93601f04bf" d="M 0 0 
L 0 3.5 
" style="stroke: #000000; stroke-width: 0.8"/>
      </defs>
      <g>
       <use xlink:href="#m93601f04bf" x="66.248584" y="307.584" style="stroke: #000000; stroke-width: 0.8"/>
      </g>
     </g>
     <g id="text_1">
      <!-- 47 -->
      <g transform="translate(59.886084 322.182437) scale(0.1 -0.1)">
       <defs>
        <path id="DejaVuSans-34" d="M 2419 4116 
L 825 1625 
L 2419 1625 
L 2419 4116 
z
M 2253 4666 
L 3047 4666 
L 3047 1625 
L 3713 1625 
L 3713 1100 
L 3047 1100 
L 3047 0 
L 2419 0 
L 2419 1100 
L 313 1100 
L 313 1709 
L 2253 4666 
z
" transform="scale(0.015625)"/>
        <path id="DejaVuSans-37" d="M 525 4666 
L 3525 4666 
L 3525 4397 
L 1831 0 
L 1172 0 
L 2766 4134 
L 525 4134 
L 525 4666 
z
" transform="scale(0.015625)"/>
       </defs>
       <use xlink:href="#DejaVuSans-34"/>
       <use xlink:href="#DejaVuSans-37" x="63.623047"/>
      </g>
     </g>
    </g>
    <g id="xtick_2">
     <g id="line2d_3">
      <path d="M 91.806192 307.584 
L 91.806192 41.472 
" clip-path="url(#p8b4e424146)" style="fill: none; stroke: #b0b0b0; stroke-width: 0.8; stroke-linecap: square"/>
     </g>
     <g id="line2d_4">
      <g>
       <use xlink:href="#m93601f04bf" x="91.806192" y="307.584" style="stroke: #000000; stroke-width: 0.8"/>
      </g>
     </g>
     <g id="text_2">
      <!-- 48 -->
      <g transform="translate(85.443692 322.182437) scale(0.1 -0.1)">
       <defs>
        <path id="DejaVuSans-38" d="M 2034 2216 
Q 1584 2216 1326 1975 
Q 1069 1734 1069 1313 
Q 1069 891 1326 650 
Q 1584 409 2034 409 
Q 2484 409 2743 651 
Q 3003 894 3003 1313 
Q 3003 1734 2745 1975 
Q 2488 2216 2034 2216 
z
M 1403 2484 
Q 997 2584 770 2862 
Q 544 3141 544 3541 
Q 544 4100 942 4425 
Q 1341 4750 2034 4750 
Q 2731 4750 3128 4425 
Q 3525 4100 3525 3541 
Q 3525 3141 3298 2862 
Q 3072 2584 2669 2484 
Q 3125 2378 3379 2068 
Q 3634 1759 3634 1313 
Q 3634 634 3220 271 
Q 2806 -91 2034 -91 
Q 1263 -91 848 271 
Q 434 634 434 1313 
Q 434 1759 690 2068 
Q 947 2378 1403 2484 
z
M 1172 3481 
Q 1172 3119 1398 2916 
Q 1625 2713 2034 2713 
Q 2441 2713 2670 2916 
Q 2900 3119 2900 3481 
Q 2900 3844 2670 4047 
Q 2441 4250 2034 4250 
Q 1625 4250 1398 4047 
Q 1172 3844 1172 3481 
z
" transform="scale(0.015625)"/>
       </defs>
       <use xlink:href="#DejaVuSans-34"/>
       <use xlink:href="#DejaVuSans-38" x="63.623047"/>
      </g>
     </g>
    </g>
    <g id="xtick_3">
     <g id="line2d_5">
      <path d="M 117.363801 307.584 
L 117.363801 41.472 
" clip-path="url(#p8b4e424146)" style="fill: none; stroke: #b0b0b0; stroke-width: 0.8; stroke-linecap: square"/>
     </g>
     <g id="line2d_6">
      <g>
       <use xlink:href="#m93601f04bf" x="117.363801" y="307.584" style="stroke: #000000; stroke-width: 0.8"/>
      </g>
     </g>
     <g id="text_3">
      <!-- 49 -->
      <g transform="translate(111.001301 322.182437) scale(0.1 -0.1)">
       <defs>
        <path id="DejaVuSans-39" d="M 703 97 
L 703 672 
Q 941 559 1184 500 
Q 1428 441 1663 441 
Q 2288 441 2617 861 
Q 2947 1281 2994 2138 
Q 2813 1869 2534 1725 
Q 2256 1581 1919 1581 
Q 1219 1581 811 2004 
Q 403 2428 403 3163 
Q 403 3881 828 4315 
Q 1253 4750 1959 4750 
Q 2769 4750 3195 4129 
Q 3622 3509 3622 2328 
Q 3622 1225 3098 567 
Q 2575 -91 1691 -91 
Q 1453 -91 1209 -44 
Q 966 3 703 97 
z
M 1959 2075 
Q 2384 2075 2632 2365 
Q 2881 2656 2881 3163 
Q 2881 3666 2632 3958 
Q 2384 4250 1959 4250 
Q 1534 4250 1286 3958 
Q 1038 3666 1038 3163 
Q 1038 2656 1286 2365 
Q 1534 2075 1959 2075 
z
" transform="scale(0.015625)"/>
       </defs>
       <use xlink:href="#DejaVuSans-34"/>
       <use xlink:href="#DejaVuSans-39" x="63.623047"/>
      </g>
     </g>
    </g>
    <g id="xtick_4">
     <g id="line2d_7">
      <path d="M 142.921409 307.584 
L 142.921409 41.472 
" clip-path="url(#p8b4e424146)" style="fill: none; stroke: #b0b0b0; stroke-width: 0.8; stroke-linecap: square"/>
     </g>
     <g id="line2d_8">
      <g>
       <use xlink:href="#m93601f04bf" x="142.921409" y="307.584" style="stroke: #000000; stroke-width: 0.8"/>
      </g>
     </g>
     <g id="text_4">
      <!-- 50 -->
      <g transform="translate(136.558909 322.182437) scale(0.1 -0.1)">
       <defs>
        <path id="DejaVuSans-35" d="M 691 4666 
L 3169 4666 
L 3169 4134 
L 1269 4134 
L 1269 2991 
Q 1406 3038 1543 3061 
Q 1681 3084 1819 3084 
Q 2600 3084 3056 2656 
Q 3513 2228 3513 1497 
Q 3513 744 3044 326 
Q 2575 -91 1722 -91 
Q 1428 -91 1123 -41 
Q 819 9 494 109 
L 494 744 
Q 775 591 1075 516 
Q 1375 441 1709 441 
Q 2250 441 2565 725 
Q 2881 1009 2881 1497 
Q 2881 1984 2565 2268 
Q 2250 2553 1709 2553 
Q 1456 2553 1204 2497 
Q 953 2441 691 2322 
L 691 4666 
z
" transform="scale(0.015625)"/>
        <path id="DejaVuSans-30" d="M 2034 4250 
Q 1547 4250 1301 3770 
Q 1056 3291 1056 2328 
Q 1056 1369 1301 889 
Q 1547 409 2034 409 
Q 2525 409 2770 889 
Q 3016 1369 3016 2328 
Q 3016 3291 2770 3770 
Q 2525 4250 2034 4250 
z
M 2034 4750 
Q 2819 4750 3233 4129 
Q 3647 3509 3647 2328 
Q 3647 1150 3233 529 
Q 2819 -91 2034 -91 
Q 1250 -91 836 529 
Q 422 1150 422 2328 
Q 422 3509 836 4129 
Q 1250 4750 2034 4750 
z
" transform="scale(0.015625)"/>
       </defs>
       <use xlink:href="#DejaVuSans-35"/>
       <use xlink:href="#DejaVuSans-30" x="63.623047"/>
      </g>
     </g>
    </g>
    <g id="xtick_5">
     <g id="line2d_9">
      <path d="M 168.479018 307.584 
L 168.479018 41.472 
" clip-path="url(#p8b4e424146)" style="fill: none; stroke: #b0b0b0; stroke-width: 0.8; stroke-linecap: square"/>
     </g>
     <g id="line2d_10">
      <g>
       <use xlink:href="#m93601f04bf" x="168.479018" y="307.584" style="stroke: #000000; stroke-width: 0.8"/>
      </g>
     </g>
     <g id="text_5">
      <!-- 51 -->
      <g transform="translate(162.116518 322.182437) scale(0.1 -0.1)">
       <defs>
        <path id="DejaVuSans-31" d="M 794 531 
L 1825 531 
L 1825 4091 
L 703 3866 
L 703 4441 
L 1819 4666 
L 2450 4666 
L 2450 531 
L 3481 531 
L 3481 0 
L 794 0 
L 794 531 
z
" transform="scale(0.015625)"/>
       </defs>
       <use xlink:href="#DejaVuSans-35"/>
       <use xlink:href="#DejaVuSans-31" x="63.623047"/>
      </g>
     </g>
    </g>
    <g id="xtick_6">
     <g id="line2d_11">
      <path d="M 194.036627 307.584 
L 194.036627 41.472 
" clip-path="url(#p8b4e424146)" style="fill: none; stroke: #b0b0b0; stroke-width: 0.8; stroke-linecap: square"/>
     </g>
     <g id="line2d_12">
      <g>
       <use xlink:href="#m93601f04bf" x="194.036627" y="307.584" style="stroke: #000000; stroke-width: 0.8"/>
      </g>
     </g>
     <g id="text_6">
      <!-- 52 -->
      <g transform="translate(187.674127 322.182437) scale(0.1 -0.1)">
       <defs>
        <path id="DejaVuSans-32" d="M 1228 531 
L 3431 531 
L 3431 0 
L 469 0 
L 469 531 
Q 828 903 1448 1529 
Q 2069 2156 2228 2338 
Q 2531 2678 2651 2914 
Q 2772 3150 2772 3378 
Q 2772 3750 2511 3984 
Q 2250 4219 1831 4219 
Q 1534 4219 1204 4116 
Q 875 4013 500 3803 
L 500 4441 
Q 881 4594 1212 4672 
Q 1544 4750 1819 4750 
Q 2544 4750 2975 4387 
Q 3406 4025 3406 3419 
Q 3406 3131 3298 2873 
Q 3191 2616 2906 2266 
Q 2828 2175 2409 1742 
Q 1991 1309 1228 531 
z
" transform="scale(0.015625)"/>
       </defs>
       <use xlink:href="#DejaVuSans-35"/>
       <use xlink:href="#DejaVuSans-32" x="63.623047"/>
      </g>
     </g>
    </g>
    <g id="xtick_7">
     <g id="line2d_13">
      <path d="M 219.594235 307.584 
L 219.594235 41.472 
" clip-path="url(#p8b4e424146)" style="fill: none; stroke: #b0b0b0; stroke-width: 0.8; stroke-linecap: square"/>
     </g>
     <g id="line2d_14">
      <g>
       <use xlink:href="#m93601f04bf" x="219.594235" y="307.584" style="stroke: #000000; stroke-width: 0.8"/>
      </g>
     </g>
     <g id="text_7">
      <!-- 53 -->
      <g transform="translate(213.231735 322.182437) scale(0.1 -0.1)">
       <defs>
        <path id="DejaVuSans-33" d="M 2597 2516 
Q 3050 2419 3304 2112 
Q 3559 1806 3559 1356 
Q 3559 666 3084 287 
Q 2609 -91 1734 -91 
Q 1441 -91 1130 -33 
Q 819 25 488 141 
L 488 750 
Q 750 597 1062 519 
Q 1375 441 1716 441 
Q 2309 441 2620 675 
Q 2931 909 2931 1356 
Q 2931 1769 2642 2001 
Q 2353 2234 1838 2234 
L 1294 2234 
L 1294 2753 
L 1863 2753 
Q 2328 2753 2575 2939 
Q 2822 3125 2822 3475 
Q 2822 3834 2567 4026 
Q 2313 4219 1838 4219 
Q 1578 4219 1281 4162 
Q 984 4106 628 3988 
L 628 4550 
Q 988 4650 1302 4700 
Q 1616 4750 1894 4750 
Q 2613 4750 3031 4423 
Q 3450 4097 3450 3541 
Q 3450 3153 3228 2886 
Q 3006 2619 2597 2516 
z
" transform="scale(0.015625)"/>
       </defs>
       <use xlink:href="#DejaVuSans-35"/>
       <use xlink:href="#DejaVuSans-33" x="63.623047"/>
      </g>
     </g>
    </g>
    <g id="xtick_8">
     <g id="line2d_15">
      <path d="M 245.151844 307.584 
L 245.151844 41.472 
" clip-path="url(#p8b4e424146)" style="fill: none; stroke: #b0b0b0; stroke-width: 0.8; stroke-linecap: square"/>
     </g>
     <g id="line2d_16">
      <g>
       <use xlink:href="#m93601f04bf" x="245.151844" y="307.584" style="stroke: #000000; stroke-width: 0.8"/>
      </g>
     </g>
     <g id="text_8">
      <!-- 54 -->
      <g transform="translate(238.789344 322.182437) scale(0.1 -0.1)">
       <use xlink:href="#DejaVuSans-35"/>
       <use xlink:href="#DejaVuSans-34" x="63.623047"/>
      </g>
     </g>
    </g>
    <g id="xtick_9">
     <g id="line2d_17">
      <path d="M 270.709453 307.584 
L 270.709453 41.472 
" clip-path="url(#p8b4e424146)" style="fill: none; stroke: #b0b0b0; stroke-width: 0.8; stroke-linecap: square"/>
     </g>
     <g id="line2d_18">
      <g>
       <use xlink:href="#m93601f04bf" x="270.709453" y="307.584" style="stroke: #000000; stroke-width: 0.8"/>
      </g>
     </g>
     <g id="text_9">
      <!-- 55 -->
      <g transform="translate(264.346953 322.182437) scale(0.1 -0.1)">
       <use xlink:href="#DejaVuSans-35"/>
       <use xlink:href="#DejaVuSans-35" x="63.623047"/>
      </g>
     </g>
    </g>
    <g id="xtick_10">
     <g id="line2d_19">
      <path d="M 296.267061 307.584 
L 296.267061 41.472 
" clip-path="url(#p8b4e424146)" style="fill: none; stroke: #b0b0b0; stroke-width: 0.8; stroke-linecap: square"/>
     </g>
     <g id="line2d_20">
      <g>
       <use xlink:href="#m93601f04bf" x="296.267061" y="307.584" style="stroke: #000000; stroke-width: 0.8"/>
      </g>
     </g>
     <g id="text_10">
      <!-- 56 -->
      <g transform="translate(289.904561 322.182437) scale(0.1 -0.1)">
       <defs>
        <path id="DejaVuSans-36" d="M 2113 2584 
Q 1688 2584 1439 2293 
Q 1191 2003 1191 1497 
Q 1191 994 1439 701 
Q 1688 409 2113 409 
Q 2538 409 2786 701 
Q 3034 994 3034 1497 
Q 3034 2003 2786 2293 
Q 2538 2584 2113 2584 
z
M 3366 4563 
L 3366 3988 
Q 3128 4100 2886 4159 
Q 2644 4219 2406 4219 
Q 1781 4219 1451 3797 
Q 1122 3375 1075 2522 
Q 1259 2794 1537 2939 
Q 1816 3084 2150 3084 
Q 2853 3084 3261 2657 
Q 3669 2231 3669 1497 
Q 3669 778 3244 343 
Q 2819 -91 2113 -91 
Q 1303 -91 875 529 
Q 447 1150 447 2328 
Q 447 3434 972 4092 
Q 1497 4750 2381 4750 
Q 2619 4750 2861 4703 
Q 3103 4656 3366 4563 
z
" transform="scale(0.015625)"/>
       </defs>
       <use xlink:href="#DejaVuSans-35"/>
       <use xlink:href="#DejaVuSans-36" x="63.623047"/>
      </g>
     </g>
    </g>
    <g id="xtick_11">
     <g id="line2d_21">
      <path d="M 321.82467 307.584 
L 321.82467 41.472 
" clip-path="url(#p8b4e424146)" style="fill: none; stroke: #b0b0b0; stroke-width: 0.8; stroke-linecap: square"/>
     </g>
     <g id="line2d_22">
      <g>
       <use xlink:href="#m93601f04bf" x="321.82467" y="307.584" style="stroke: #000000; stroke-width: 0.8"/>
      </g>
     </g>
     <g id="text_11">
      <!-- 57 -->
      <g transform="translate(315.46217 322.182437) scale(0.1 -0.1)">
       <use xlink:href="#DejaVuSans-35"/>
       <use xlink:href="#DejaVuSans-37" x="63.623047"/>
      </g>
     </g>
    </g>
    <g id="xtick_12">
     <g id="line2d_23">
      <path d="M 347.382279 307.584 
L 347.382279 41.472 
" clip-path="url(#p8b4e424146)" style="fill: none; stroke: #b0b0b0; stroke-width: 0.8; stroke-linecap: square"/>
     </g>
     <g id="line2d_24">
      <g>
       <use xlink:href="#m93601f04bf" x="347.382279" y="307.584" style="stroke: #000000; stroke-width: 0.8"/>
      </g>
     </g>
     <g id="text_12">
      <!-- 58 -->
      <g transform="translate(341.019779 322.182437) scale(0.1 -0.1)">
       <use xlink:href="#DejaVuSans-35"/>
       <use xlink:href="#DejaVuSans-38" x="63.623047"/>
      </g>
     </g>
    </g>
    <g id="xtick_13">
     <g id="line2d_25">
      <path d="M 372.939887 307.584 
L 372.939887 41.472 
" clip-path="url(#p8b4e424146)" style="fill: none; stroke: #b0b0b0; stroke-width: 0.8; stroke-linecap: square"/>
     </g>
     <g id="line2d_26">
      <g>
       <use xlink:href="#m93601f04bf" x="372.939887" y="307.584" style="stroke: #000000; stroke-width: 0.8"/>
      </g>
     </g>
     <g id="text_13">
      <!-- 59 -->
      <g transform="translate(366.577387 322.182437) scale(0.1 -0.1)">
       <use xlink:href="#DejaVuSans-35"/>
       <use xlink:href="#DejaVuSans-39" x="63.623047"/>
      </g>
     </g>
    </g>
    <g id="text_14">
     <!-- time [sec] -->
     <g transform="translate(210.942813 335.860562) scale(0.1 -0.1)">
      <defs>
       <path id="DejaVuSans-74" d="M 1172 4494 
L 1172 3500 
L 2356 3500 
L 2356 3053 
L 1172 3053 
L 1172 1153 
Q 1172 725 1289 603 
Q 1406 481 1766 481 
L 2356 481 
L 2356 0 
L 1766 0 
Q 1100 0 847 248 
Q 594 497 594 1153 
L 594 3053 
L 172 3053 
L 172 3500 
L 594 3500 
L 594 4494 
L 1172 4494 
z
" transform="scale(0.015625)"/>
       <path id="DejaVuSans-69" d="M 603 3500 
L 1178 3500 
L 1178 0 
L 603 0 
L 603 3500 
z
M 603 4863 
L 1178 4863 
L 1178 4134 
L 603 4134 
L 603 4863 
z
" transform="scale(0.015625)"/>
       <path id="DejaVuSans-6d" d="M 3328 2828 
Q 3544 3216 3844 3400 
Q 4144 3584 4550 3584 
Q 5097 3584 5394 3201 
Q 5691 2819 5691 2113 
L 5691 0 
L 5113 0 
L 5113 2094 
Q 5113 2597 4934 2840 
Q 4756 3084 4391 3084 
Q 3944 3084 3684 2787 
Q 3425 2491 3425 1978 
L 3425 0 
L 2847 0 
L 2847 2094 
Q 2847 2600 2669 2842 
Q 2491 3084 2119 3084 
Q 1678 3084 1418 2786 
Q 1159 2488 1159 1978 
L 1159 0 
L 581 0 
L 581 3500 
L 1159 3500 
L 1159 2956 
Q 1356 3278 1631 3431 
Q 1906 3584 2284 3584 
Q 2666 3584 2933 3390 
Q 3200 3197 3328 2828 
z
" transform="scale(0.015625)"/>
       <path id="DejaVuSans-65" d="M 3597 1894 
L 3597 1613 
L 953 1613 
Q 991 1019 1311 708 
Q 1631 397 2203 397 
Q 2534 397 2845 478 
Q 3156 559 3463 722 
L 3463 178 
Q 3153 47 2828 -22 
Q 2503 -91 2169 -91 
Q 1331 -91 842 396 
Q 353 884 353 1716 
Q 353 2575 817 3079 
Q 1281 3584 2069 3584 
Q 2775 3584 3186 3129 
Q 3597 2675 3597 1894 
z
M 3022 2063 
Q 3016 2534 2758 2815 
Q 2500 3097 2075 3097 
Q 1594 3097 1305 2825 
Q 1016 2553 972 2059 
L 3022 2063 
z
" transform="scale(0.015625)"/>
       <path id="DejaVuSans-20" transform="scale(0.015625)"/>
       <path id="DejaVuSans-5b" d="M 550 4863 
L 1875 4863 
L 1875 4416 
L 1125 4416 
L 1125 -397 
L 1875 -397 
L 1875 -844 
L 550 -844 
L 550 4863 
z
" transform="scale(0.015625)"/>
       <path id="DejaVuSans-73" d="M 2834 3397 
L 2834 2853 
Q 2591 2978 2328 3040 
Q 2066 3103 1784 3103 
Q 1356 3103 1142 2972 
Q 928 2841 928 2578 
Q 928 2378 1081 2264 
Q 1234 2150 1697 2047 
L 1894 2003 
Q 2506 1872 2764 1633 
Q 3022 1394 3022 966 
Q 3022 478 2636 193 
Q 2250 -91 1575 -91 
Q 1294 -91 989 -36 
Q 684 19 347 128 
L 347 722 
Q 666 556 975 473 
Q 1284 391 1588 391 
Q 1994 391 2212 530 
Q 2431 669 2431 922 
Q 2431 1156 2273 1281 
Q 2116 1406 1581 1522 
L 1381 1569 
Q 847 1681 609 1914 
Q 372 2147 372 2553 
Q 372 3047 722 3315 
Q 1072 3584 1716 3584 
Q 2034 3584 2315 3537 
Q 2597 3491 2834 3397 
z
" transform="scale(0.015625)"/>
       <path id="DejaVuSans-63" d="M 3122 3366 
L 3122 2828 
Q 2878 2963 2633 3030 
Q 2388 3097 2138 3097 
Q 1578 3097 1268 2742 
Q 959 2388 959 1747 
Q 959 1106 1268 751 
Q 1578 397 2138 397 
Q 2388 397 2633 464 
Q 2878 531 3122 666 
L 3122 134 
Q 2881 22 2623 -34 
Q 2366 -91 2075 -91 
Q 1284 -91 818 406 
Q 353 903 353 1747 
Q 353 2603 823 3093 
Q 1294 3584 2113 3584 
Q 2378 3584 2631 3529 
Q 2884 3475 3122 3366 
z
" transform="scale(0.015625)"/>
       <path id="DejaVuSans-5d" d="M 1947 4863 
L 1947 -844 
L 622 -844 
L 622 -397 
L 1369 -397 
L 1369 4416 
L 622 4416 
L 622 4863 
L 1947 4863 
z
" transform="scale(0.015625)"/>
      </defs>
      <use xlink:href="#DejaVuSans-74"/>
      <use xlink:href="#DejaVuSans-69" x="39.208984"/>
      <use xlink:href="#DejaVuSans-6d" x="66.992188"/>
      <use xlink:href="#DejaVuSans-65" x="164.404297"/>
      <use xlink:href="#DejaVuSans-20" x="225.927734"/>
      <use xlink:href="#DejaVuSans-5b" x="257.714844"/>
      <use xlink:href="#DejaVuSans-73" x="296.728516"/>
      <use xlink:href="#DejaVuSans-65" x="348.828125"/>
      <use xlink:href="#DejaVuSans-63" x="410.351562"/>
      <use xlink:href="#DejaVuSans-5d" x="465.332031"/>
     </g>
    </g>
   </g>
   <g id="matplotlib.axis_2">
    <g id="ytick_1">
     <g id="line2d_27">
      <path d="M 57.6 281.345164 
L 414.72 281.345164 
" clip-path="url(#p8b4e424146)" style="fill: none; stroke: #b0b0b0; stroke-width: 0.8; stroke-linecap: square"/>
     </g>
     <g id="line2d_28">
      <defs>
       <path id="m35a00b893c" d="M 0 0 
L -3.5 0 
" style="stroke: #000000; stroke-width: 0.8"/>
      </defs>
      <g>
       <use xlink:href="#m35a00b893c" x="57.6" y="281.345164" style="stroke: #000000; stroke-width: 0.8"/>
      </g>
     </g>
     <g id="text_15">
      <!-- −20 -->
      <g transform="translate(29.495313 285.144382) scale(0.1 -0.1)">
       <defs>
        <path id="DejaVuSans-2212" d="M 678 2272 
L 4684 2272 
L 4684 1741 
L 678 1741 
L 678 2272 
z
" transform="scale(0.015625)"/>
       </defs>
       <use xlink:href="#DejaVuSans-2212"/>
       <use xlink:href="#DejaVuSans-32" x="83.789062"/>
       <use xlink:href="#DejaVuSans-30" x="147.412109"/>
      </g>
     </g>
    </g>
    <g id="ytick_2">
     <g id="line2d_29">
      <path d="M 57.6 245.474471 
L 414.72 245.474471 
" clip-path="url(#p8b4e424146)" style="fill: none; stroke: #b0b0b0; stroke-width: 0.8; stroke-linecap: square"/>
     </g>
     <g id="line2d_30">
      <g>
       <use xlink:href="#m35a00b893c" x="57.6" y="245.474471" style="stroke: #000000; stroke-width: 0.8"/>
      </g>
     </g>
     <g id="text_16">
      <!-- 0 -->
      <g transform="translate(44.2375 249.27369) scale(0.1 -0.1)">
       <use xlink:href="#DejaVuSans-30"/>
      </g>
     </g>
    </g>
    <g id="ytick_3">
     <g id="line2d_31">
      <path d="M 57.6 209.603779 
L 414.72 209.603779 
" clip-path="url(#p8b4e424146)" style="fill: none; stroke: #b0b0b0; stroke-width: 0.8; stroke-linecap: square"/>
     </g>
     <g id="line2d_32">
      <g>
       <use xlink:href="#m35a00b893c" x="57.6" y="209.603779" style="stroke: #000000; stroke-width: 0.8"/>
      </g>
     </g>
     <g id="text_17">
      <!-- 20 -->
      <g transform="translate(37.875 213.402998) scale(0.1 -0.1)">
       <use xlink:href="#DejaVuSans-32"/>
       <use xlink:href="#DejaVuSans-30" x="63.623047"/>
      </g>
     </g>
    </g>
    <g id="ytick_4">
     <g id="line2d_33">
      <path d="M 57.6 173.733087 
L 414.72 173.733087 
" clip-path="url(#p8b4e424146)" style="fill: none; stroke: #b0b0b0; stroke-width: 0.8; stroke-linecap: square"/>
     </g>
     <g id="line2d_34">
      <g>
       <use xlink:href="#m35a00b893c" x="57.6" y="173.733087" style="stroke: #000000; stroke-width: 0.8"/>
      </g>
     </g>
     <g id="text_18">
      <!-- 40 -->
      <g transform="translate(37.875 177.532306) scale(0.1 -0.1)">
       <use xlink:href="#DejaVuSans-34"/>
       <use xlink:href="#DejaVuSans-30" x="63.623047"/>
      </g>
     </g>
    </g>
    <g id="ytick_5">
     <g id="line2d_35">
      <path d="M 57.6 137.862395 
L 414.72 137.862395 
" clip-path="url(#p8b4e424146)" style="fill: none; stroke: #b0b0b0; stroke-width: 0.8; stroke-linecap: square"/>
     </g>
     <g id="line2d_36">
      <g>
       <use xlink:href="#m35a00b893c" x="57.6" y="137.862395" style="stroke: #000000; stroke-width: 0.8"/>
      </g>
     </g>
     <g id="text_19">
      <!-- 60 -->
      <g transform="translate(37.875 141.661614) scale(0.1 -0.1)">
       <use xlink:href="#DejaVuSans-36"/>
       <use xlink:href="#DejaVuSans-30" x="63.623047"/>
      </g>
     </g>
    </g>
    <g id="ytick_6">
     <g id="line2d_37">
      <path d="M 57.6 101.991703 
L 414.72 101.991703 
" clip-path="url(#p8b4e424146)" style="fill: none; stroke: #b0b0b0; stroke-width: 0.8; stroke-linecap: square"/>
     </g>
     <g id="line2d_38">
      <g>
       <use xlink:href="#m35a00b893c" x="57.6" y="101.991703" style="stroke: #000000; stroke-width: 0.8"/>
      </g>
     </g>
     <g id="text_20">
      <!-- 80 -->
      <g transform="translate(37.875 105.790922) scale(0.1 -0.1)">
       <use xlink:href="#DejaVuSans-38"/>
       <use xlink:href="#DejaVuSans-30" x="63.623047"/>
      </g>
     </g>
    </g>
    <g id="ytick_7">
     <g id="line2d_39">
      <path d="M 57.6 66.121011 
L 414.72 66.121011 
" clip-path="url(#p8b4e424146)" style="fill: none; stroke: #b0b0b0; stroke-width: 0.8; stroke-linecap: square"/>
     </g>
     <g id="line2d_40">
      <g>
       <use xlink:href="#m35a00b893c" x="57.6" y="66.121011" style="stroke: #000000; stroke-width: 0.8"/>
      </g>
     </g>
     <g id="text_21">
      <!-- 100 -->
      <g transform="translate(31.5125 69.92023) scale(0.1 -0.1)">
       <use xlink:href="#DejaVuSans-31"/>
       <use xlink:href="#DejaVuSans-30" x="63.623047"/>
       <use xlink:href="#DejaVuSans-30" x="127.246094"/>
      </g>
     </g>
    </g>
    <g id="text_22">
     <!-- angle [°] -->
     <g transform="translate(23.415625 196.391281) rotate(-90) scale(0.1 -0.1)">
      <defs>
       <path id="DejaVuSans-61" d="M 2194 1759 
Q 1497 1759 1228 1600 
Q 959 1441 959 1056 
Q 959 750 1161 570 
Q 1363 391 1709 391 
Q 2188 391 2477 730 
Q 2766 1069 2766 1631 
L 2766 1759 
L 2194 1759 
z
M 3341 1997 
L 3341 0 
L 2766 0 
L 2766 531 
Q 2569 213 2275 61 
Q 1981 -91 1556 -91 
Q 1019 -91 701 211 
Q 384 513 384 1019 
Q 384 1609 779 1909 
Q 1175 2209 1959 2209 
L 2766 2209 
L 2766 2266 
Q 2766 2663 2505 2880 
Q 2244 3097 1772 3097 
Q 1472 3097 1187 3025 
Q 903 2953 641 2809 
L 641 3341 
Q 956 3463 1253 3523 
Q 1550 3584 1831 3584 
Q 2591 3584 2966 3190 
Q 3341 2797 3341 1997 
z
" transform="scale(0.015625)"/>
       <path id="DejaVuSans-6e" d="M 3513 2113 
L 3513 0 
L 2938 0 
L 2938 2094 
Q 2938 2591 2744 2837 
Q 2550 3084 2163 3084 
Q 1697 3084 1428 2787 
Q 1159 2491 1159 1978 
L 1159 0 
L 581 0 
L 581 3500 
L 1159 3500 
L 1159 2956 
Q 1366 3272 1645 3428 
Q 1925 3584 2291 3584 
Q 2894 3584 3203 3211 
Q 3513 2838 3513 2113 
z
" transform="scale(0.015625)"/>
       <path id="DejaVuSans-67" d="M 2906 1791 
Q 2906 2416 2648 2759 
Q 2391 3103 1925 3103 
Q 1463 3103 1205 2759 
Q 947 2416 947 1791 
Q 947 1169 1205 825 
Q 1463 481 1925 481 
Q 2391 481 2648 825 
Q 2906 1169 2906 1791 
z
M 3481 434 
Q 3481 -459 3084 -895 
Q 2688 -1331 1869 -1331 
Q 1566 -1331 1297 -1286 
Q 1028 -1241 775 -1147 
L 775 -588 
Q 1028 -725 1275 -790 
Q 1522 -856 1778 -856 
Q 2344 -856 2625 -561 
Q 2906 -266 2906 331 
L 2906 616 
Q 2728 306 2450 153 
Q 2172 0 1784 0 
Q 1141 0 747 490 
Q 353 981 353 1791 
Q 353 2603 747 3093 
Q 1141 3584 1784 3584 
Q 2172 3584 2450 3431 
Q 2728 3278 2906 2969 
L 2906 3500 
L 3481 3500 
L 3481 434 
z
" transform="scale(0.015625)"/>
       <path id="DejaVuSans-6c" d="M 603 4863 
L 1178 4863 
L 1178 0 
L 603 0 
L 603 4863 
z
" transform="scale(0.015625)"/>
       <path id="DejaVuSans-b0" d="M 1600 4347 
Q 1350 4347 1178 4173 
Q 1006 4000 1006 3750 
Q 1006 3503 1178 3333 
Q 1350 3163 1600 3163 
Q 1850 3163 2022 3333 
Q 2194 3503 2194 3750 
Q 2194 3997 2020 4172 
Q 1847 4347 1600 4347 
z
M 1600 4750 
Q 1800 4750 1984 4673 
Q 2169 4597 2303 4453 
Q 2447 4313 2519 4134 
Q 2591 3956 2591 3750 
Q 2591 3338 2302 3052 
Q 2013 2766 1594 2766 
Q 1172 2766 890 3047 
Q 609 3328 609 3750 
Q 609 4169 896 4459 
Q 1184 4750 1600 4750 
z
" transform="scale(0.015625)"/>
      </defs>
      <use xlink:href="#DejaVuSans-61"/>
      <use xlink:href="#DejaVuSans-6e" x="61.279297"/>
      <use xlink:href="#DejaVuSans-67" x="124.658203"/>
      <use xlink:href="#DejaVuSans-6c" x="188.134766"/>
      <use xlink:href="#DejaVuSans-65" x="215.917969"/>
      <use xlink:href="#DejaVuSans-20" x="277.441406"/>
      <use xlink:href="#DejaVuSans-5b" x="309.228516"/>
      <use xlink:href="#DejaVuSans-b0" x="348.242188"/>
      <use xlink:href="#DejaVuSans-5d" x="398.242188"/>
     </g>
    </g>
   </g>
   <g id="line2d_41">
    <path d="M 73.832727 237.739348 
L 75.416558 237.868207 
L 76.39383 237.620756 
L 77.149619 237.582071 
L 78.120374 237.738555 
L 78.913018 237.530095 
L 79.704895 237.553928 
L 81.470491 237.118714 
L 82.387549 236.986444 
L 83.256661 237.048219 
L 87.499684 236.080565 
L 88.351596 236.643212 
L 89.2364 235.737516 
L 90.032443 235.584216 
L 90.899536 235.068486 
L 91.792544 234.771206 
L 92.611794 234.705785 
L 93.454888 235.059712 
L 94.337622 234.841851 
L 96.072217 234.740177 
L 96.904194 234.968947 
L 97.749333 235.377606 
L 99.458754 235.563744 
L 100.356158 235.44223 
L 101.170756 235.484832 
L 102.063943 235.20927 
L 104.560231 235.224575 
L 106.283606 235.307081 
L 107.20644 235.136494 
L 108.022163 235.66175 
L 108.839342 258.411449 
L 109.761026 235.333853 
L 110.577719 235.375045 
L 111.39592 235.048921 
L 112.333603 235.72851 
L 113.194307 235.431653 
L 114.061323 235.70374 
L 114.89054 235.569488 
L 115.697036 235.92232 
L 116.618873 235.304323 
L 117.440525 235.229064 
L 118.360266 255.719331 
L 119.172947 255.120482 
L 119.99465 255.760624 
L 121.727763 235.843765 
L 123.49203 236.073611 
L 124.282246 236.060923 
L 125.376801 235.91812 
L 126.079073 236.416432 
L 126.933873 235.850082 
L 127.79726 236.665652 
L 128.684058 235.865658 
L 129.504585 236.309823 
L 130.368586 235.898067 
L 131.179196 236.330563 
L 132.076447 236.384473 
L 132.872337 235.754434 
L 133.696672 236.350933 
L 134.611788 235.817587 
L 135.427919 236.175797 
L 136.35934 235.299202 
L 137.982453 235.143866 
L 138.905466 235.352535 
L 139.721725 257.18765 
L 140.539568 235.556878 
L 141.470606 235.259091 
L 142.27723 235.474582 
L 143.195004 257.046219 
L 144.017039 256.666312 
L 144.832096 257.092033 
L 145.769192 257.229001 
L 146.574026 257.667601 
L 147.499263 257.598342 
L 148.320045 257.369708 
L 151.695081 260.355813 
L 152.603833 260.227772 
L 153.417996 258.894681 
L 154.369352 258.217898 
L 155.157984 257.133318 
L 155.985871 256.530897 
L 156.935669 257.081669 
L 157.795452 256.94655 
L 158.528649 257.272567 
L 159.449029 257.357291 
L 160.270553 234.845343 
L 161.191292 256.354812 
L 162.004995 257.687032 
L 162.826902 256.425133 
L 163.742835 256.144179 
L 164.604178 256.09643 
L 165.483692 235.07341 
L 166.32763 234.895803 
L 167.144579 256.910563 
L 168.064499 235.500797 
L 168.853872 235.536105 
L 169.7203 235.282806 
L 170.594933 256.055764 
L 171.41206 256.557964 
L 172.329757 255.798726 
L 173.967387 255.295651 
L 174.885646 235.776387 
L 175.715374 255.330954 
L 176.626963 256.132972 
L 177.44202 235.612751 
L 178.261781 235.864645 
L 179.187375 255.952896 
L 179.998267 255.798041 
L 180.824902 255.915896 
L 181.736184 257.085639 
L 182.552903 256.215657 
L 183.474485 255.468199 
L 184.296111 255.887736 
L 186.029556 255.777734 
L 186.846888 235.983828 
L 187.663428 255.482306 
L 188.586441 257.266141 
L 189.404566 255.489829 
L 190.322902 255.070726 
L 191.141001 235.902905 
L 192.878995 235.82555 
L 193.701592 256.000199 
L 196.253826 257.457342 
L 197.185784 257.752741 
L 197.989827 258.430978 
L 198.813599 257.432373 
L 199.740063 258.594593 
L 200.547939 257.70484 
L 201.49242 258.76941 
L 202.29613 257.976712 
L 203.101042 258.492817 
L 204.02109 257.21501 
L 204.864338 257.05808 
L 205.657339 257.14586 
L 206.578001 257.015748 
L 207.397531 256.771794 
L 208.318678 257.773097 
L 209.131462 257.114869 
L 209.976268 256.963843 
L 210.872906 256.656386 
L 211.715361 234.427561 
L 212.670858 234.456602 
L 213.428309 235.200776 
L 214.245181 235.031874 
L 215.16592 235.013847 
L 215.98384 234.869359 
L 216.799536 234.553903 
L 217.719943 235.102626 
L 218.543332 235.119714 
L 219.459036 235.571102 
L 220.277927 235.666222 
L 221.098377 235.491113 
L 222.03468 256.25259 
L 222.832103 235.679612 
L 223.774233 235.480816 
L 224.594019 253.747913 
L 225.387251 255.619578 
L 226.360076 235.417292 
L 227.126523 235.728104 
L 227.94475 256.439041 
L 228.933855 256.080605 
L 229.726575 255.100671 
L 230.601361 255.911078 
L 231.428558 255.62821 
L 232.238811 235.879186 
L 233.194921 235.613644 
L 234.007295 235.869574 
L 234.850288 236.378205 
L 235.758605 235.649149 
L 236.539288 236.446187 
L 238.303555 236.29421 
L 239.11483 236.035176 
L 240.061024 236.68301 
L 240.867111 236.858377 
L 241.746727 256.33058 
L 242.588569 256.40115 
L 243.412751 235.722172 
L 245.124957 235.29876 
L 245.967592 235.178063 
L 246.857559 256.544373 
L 247.699529 256.415357 
L 248.595527 257.025346 
L 249.41194 234.47313 
L 250.256107 256.878628 
L 251.148886 257.777601 
L 251.969898 257.615061 
L 252.811536 258.57542 
L 253.705541 258.681731 
L 254.524688 259.607489 
L 255.457464 259.300982 
L 256.2612 258.62764 
L 258.001366 259.109911 
L 258.817165 258.009587 
L 259.8844 258.554468 
L 260.567989 258.522905 
L 261.387187 258.710543 
L 262.320807 256.935524 
L 263.132312 257.800401 
L 264.859981 256.692954 
L 265.673351 256.648788 
L 266.601144 234.3696 
L 267.419498 234.829481 
L 268.272202 234.508482 
L 269.150438 256.863692 
L 269.968461 256.751451 
L 270.887052 234.800165 
L 271.706174 234.838824 
L 273.444475 235.40158 
L 274.286649 256.075704 
L 275.081388 256.097879 
L 276.002229 235.105114 
L 276.817287 255.602377 
L 278.589323 245.874414 
L 279.373431 241.010433 
L 280.29192 236.146452 
L 281.110888 236.436072 
L 281.953063 257.102394 
L 282.847604 236.765984 
L 283.670636 236.483371 
L 285.404081 236.600008 
L 286.251341 236.550447 
L 287.146854 236.770875 
L 289.72416 236.862392 
L 290.515986 236.785211 
L 292.26221 236.895637 
L 295.730198 236.847719 
L 296.550853 236.730118 
L 297.395685 236.212903 
L 298.286342 233.318139 
L 299.116147 258.017717 
L 299.928189 236.076683 
L 300.8431 236.396449 
L 301.659206 255.545505 
L 302.584902 235.760572 
L 303.404279 236.007544 
L 304.21443 255.53522 
L 305.134785 235.918367 
L 307.690929 234.946666 
L 308.509028 235.19215 
L 309.429511 235.130729 
L 310.281244 234.59012 
L 311.063741 234.453553 
L 312.009347 234.83471 
L 312.855559 234.719919 
L 313.730882 234.951164 
L 314.54024 235.453597 
L 315.360921 235.661067 
L 316.284649 235.32588 
L 317.124038 235.762348 
L 318.018017 234.793682 
L 320.570967 234.587227 
L 321.392158 235.170688 
L 322.234001 235.465806 
L 323.126268 235.037985 
L 323.947485 234.487192 
L 324.869399 235.121032 
L 325.682565 233.923947 
L 326.50575 256.619974 
L 327.420457 256.283626 
L 328.239834 234.927594 
L 329.058981 235.165192 
L 329.976653 234.951142 
L 330.794317 235.074496 
L 331.718404 235.837572 
L 332.557358 235.938907 
L 333.348826 236.236576 
L 334.269564 236.451808 
L 335.086027 236.78742 
L 336.007328 236.903339 
L 336.856607 236.847947 
L 337.641839 236.236239 
L 338.56268 236.164622 
L 339.383974 236.378684 
L 340.198265 236.11301 
L 341.116473 236.355184 
L 341.935645 236.964555 
L 343.698277 237.023217 
L 344.491355 237.701398 
L 345.418943 236.871087 
L 346.229375 236.830952 
L 347.086654 236.676423 
L 347.969592 236.265312 
L 348.785059 236.59964 
L 349.705235 236.666867 
L 350.526069 236.584189 
L 351.365943 236.195956 
L 352.258772 236.335948 
L 353.083491 236.352563 
L 353.999169 235.454484 
L 354.841369 235.845239 
L 356.554572 235.352341 
L 357.371342 235.447251 
L 358.196495 235.011917 
L 359.134613 235.442297 
L 359.928151 235.03755 
L 360.847509 256.33367 
L 361.668113 256.365837 
L 362.484244 235.079632 
L 363.405442 234.717422 
L 364.224078 234.900994 
L 365.156522 234.871581 
L 365.973292 235.319423 
L 366.777513 235.414291 
L 367.710698 234.935676 
L 368.535902 235.473583 
L 372.021347 234.769917 
L 372.825747 235.219549 
L 373.697389 234.79495 
L 375.370339 234.804031 
L 376.183505 234.672612 
L 377.159551 235.274842 
L 377.932387 235.030389 
L 378.841497 235.308193 
L 380.495023 235.445104 
L 381.394702 235.822974 
L 383.143175 235.618435 
L 383.956571 234.852044 
L 384.780293 235.310095 
L 385.713759 234.659 
L 386.546017 256.573016 
L 387.372013 235.498107 
L 388.269801 235.620202 
L 389.063032 235.842013 
L 390.800081 236.072218 
L 391.644249 236.750805 
L 392.537538 237.29192 
L 393.367803 237.610658 
L 394.176113 237.337908 
L 395.161793 237.305965 
L 395.929135 237.827124 
L 396.819715 237.860131 
L 397.640524 237.273597 
L 398.487273 237.807153 
L 398.487273 237.807153 
" clip-path="url(#p8b4e424146)" style="fill: none; stroke: #1f77b4; stroke-width: 1.5; stroke-linecap: square"/>
   </g>
   <g id="line2d_42">
    <path d="M 73.832727 58.296731 
L 76.39383 58.23304 
L 77.149619 57.9628 
L 78.120374 57.795639 
L 79.704895 57.995995 
L 80.67386 57.924039 
L 81.470491 57.646013 
L 82.387549 57.793684 
L 83.256661 57.772545 
L 84.056359 57.947294 
L 84.942748 58.347856 
L 85.786174 58.414875 
L 87.499684 58.724894 
L 88.351596 58.34062 
L 90.032443 61.290615 
L 92.611794 63.538585 
L 93.454888 63.303816 
L 94.337622 65.348842 
L 95.165817 66.696183 
L 96.072217 67.441104 
L 96.904194 68.47835 
L 97.749333 68.315342 
L 98.625524 68.724047 
L 99.458754 68.940759 
L 101.170756 69.082069 
L 102.063943 69.758288 
L 102.909644 69.886454 
L 106.283606 69.908781 
L 107.20644 70.215974 
L 108.022163 69.305861 
L 108.839342 66.288978 
L 109.761026 69.630471 
L 110.577719 69.476493 
L 111.39592 69.936969 
L 112.333603 68.403595 
L 113.194307 68.24482 
L 114.061323 67.151807 
L 114.89054 67.335288 
L 115.697036 65.712356 
L 116.618873 64.77288 
L 117.440525 63.495673 
L 118.360266 61.414237 
L 119.172947 60.889056 
L 119.99465 58.946183 
L 124.282246 58.186497 
L 125.376801 57.719081 
L 126.079073 57.894422 
L 126.933873 57.479617 
L 127.79726 58.040192 
L 128.684058 57.496674 
L 129.504585 57.908351 
L 130.368586 57.533271 
L 131.179196 57.867012 
L 132.076447 57.922408 
L 132.872337 57.474816 
L 133.696672 57.797261 
L 134.611788 57.547523 
L 135.427919 58.106595 
L 136.35934 57.238782 
L 137.982453 57.194533 
L 138.905466 58.060384 
L 139.721725 57.830917 
L 140.539568 58.906582 
L 141.470606 58.739481 
L 142.27723 58.969824 
L 143.195004 58.493966 
L 144.017039 59.589494 
L 144.832096 60.096099 
L 145.769192 60.333398 
L 146.574026 59.985738 
L 148.320045 61.504548 
L 152.603833 63.041847 
L 153.417996 63.915941 
L 154.369352 63.714075 
L 155.985871 66.258423 
L 156.935669 65.534625 
L 157.795452 65.774225 
L 158.528649 65.788299 
L 159.449029 66.093311 
L 160.270553 66.698209 
L 161.191292 66.356238 
L 162.004995 65.878637 
L 162.826902 66.050727 
L 165.483692 65.886395 
L 166.32763 65.659547 
L 167.144579 66.48469 
L 168.064499 64.524652 
L 168.853872 63.853677 
L 169.7203 63.437327 
L 170.594933 62.532054 
L 171.41206 59.262233 
L 172.329757 58.969727 
L 173.159 57.915381 
L 174.885646 57.721217 
L 175.715374 57.364916 
L 176.626963 56.468145 
L 178.261781 56.788334 
L 179.187375 56.596515 
L 179.998267 56.623537 
L 180.824902 56.529235 
L 181.736184 56.053155 
L 185.107846 56.591222 
L 186.029556 56.643962 
L 186.846888 56.883899 
L 187.663428 56.428696 
L 188.586441 56.102026 
L 189.404566 56.691934 
L 190.322902 57.10459 
L 191.961988 57.597649 
L 192.878995 58.187082 
L 193.701592 58.21865 
L 194.620567 58.115195 
L 195.4368 58.470822 
L 197.185784 59.818975 
L 198.813599 60.703451 
L 199.740063 60.824221 
L 200.547939 60.651411 
L 201.49242 61.367924 
L 202.29613 62.207109 
L 203.101042 62.552623 
L 204.02109 63.541404 
L 205.657339 65.849267 
L 206.578001 66.729299 
L 207.397531 67.029212 
L 208.318678 66.333725 
L 209.131462 66.073871 
L 209.976268 66.610838 
L 210.872906 68.266431 
L 212.670858 68.455758 
L 213.428309 68.035702 
L 214.245181 67.926457 
L 215.16592 67.934555 
L 215.98384 68.536334 
L 216.799536 68.430658 
L 219.459036 67.070624 
L 220.277927 66.489662 
L 221.098377 65.051775 
L 222.03468 64.610551 
L 222.832103 64.469574 
L 223.774233 64.501456 
L 224.594019 63.327726 
L 225.387251 59.141618 
L 226.360076 60.235586 
L 227.126523 60.159987 
L 227.94475 58.537152 
L 228.933855 59.010744 
L 229.726575 58.174167 
L 230.601361 57.983728 
L 231.428558 56.645663 
L 232.238811 57.526531 
L 233.194921 57.153224 
L 234.850288 57.702238 
L 235.758605 57.045935 
L 236.539288 57.76202 
L 239.11483 57.460811 
L 240.061024 58.030996 
L 240.867111 58.020023 
L 241.746727 57.237602 
L 242.588569 57.042172 
L 243.412751 57.594729 
L 244.33078 57.337069 
L 245.967592 57.904174 
L 246.857559 57.507506 
L 247.699529 57.962693 
L 248.595527 58.302743 
L 249.41194 59.167055 
L 250.256107 59.356056 
L 251.148886 59.16885 
L 251.969898 59.709879 
L 253.705541 60.136136 
L 254.524688 59.825779 
L 255.457464 59.22092 
L 257.078762 60.709956 
L 258.001366 60.827932 
L 258.817165 61.837781 
L 259.8844 61.907342 
L 260.567989 62.371284 
L 261.387187 62.268898 
L 262.320807 63.223497 
L 263.132312 63.364698 
L 263.93114 64.53305 
L 264.859981 64.184911 
L 265.673351 64.525918 
L 266.601144 65.336855 
L 267.419498 64.901331 
L 268.272202 65.532653 
L 269.150438 65.322415 
L 270.887052 65.183712 
L 271.706174 64.915883 
L 272.524861 64.405308 
L 274.286649 63.676456 
L 275.081388 62.904066 
L 276.002229 62.839416 
L 276.817287 61.724493 
L 278.589323 58.271505 
L 279.373431 56.54501 
L 280.29192 54.818516 
L 281.110888 54.043317 
L 281.953063 54.151647 
L 282.847604 53.984381 
L 283.670636 54.34689 
L 285.404081 54.309288 
L 286.251341 54.305462 
L 287.959944 54.159044 
L 288.881551 54.080966 
L 290.515986 53.568 
L 291.437005 53.590358 
L 293.072948 53.793684 
L 295.730198 53.940818 
L 296.550853 54.025557 
L 297.395685 54.388046 
L 299.116147 54.826745 
L 299.928189 54.629472 
L 300.8431 54.629557 
L 301.659206 55.242595 
L 303.404279 55.92412 
L 304.21443 56.757695 
L 305.954238 59.587606 
L 306.875948 61.455759 
L 307.690929 62.336664 
L 308.509028 62.715015 
L 309.429511 64.419467 
L 310.281244 65.517787 
L 311.063741 67.186969 
L 312.009347 67.810186 
L 312.855559 68.227757 
L 313.730882 68.401978 
L 314.54024 67.981605 
L 315.360921 67.935163 
L 316.284649 68.303765 
L 317.124038 70.053158 
L 318.840947 69.533865 
L 320.570967 69.720467 
L 321.392158 69.354727 
L 322.234001 69.880022 
L 323.947485 68.015166 
L 324.869399 67.510677 
L 325.682565 68.932712 
L 326.50575 67.985901 
L 327.420457 65.607076 
L 328.239834 66.912518 
L 329.058981 67.066681 
L 329.976653 66.704539 
L 330.794317 66.8634 
L 333.348826 63.011117 
L 335.086027 62.637225 
L 336.007328 62.209471 
L 336.856607 61.988825 
L 337.641839 61.915912 
L 338.56268 60.862218 
L 339.383974 59.733456 
L 340.198265 60.337012 
L 341.116473 60.811475 
L 341.935645 60.329952 
L 344.491355 60.348615 
L 347.086654 60.100032 
L 347.969592 60.629437 
L 348.785059 60.183458 
L 350.526069 60.27287 
L 351.365943 60.74656 
L 352.258772 60.759245 
L 353.083491 60.62702 
L 353.999169 61.14204 
L 354.841369 60.986417 
L 355.638204 61.284785 
L 356.554572 62.224614 
L 357.371342 61.967229 
L 358.196495 63.170418 
L 359.134613 63.294371 
L 359.928151 65.048531 
L 360.847509 64.954838 
L 361.668113 65.596088 
L 362.484244 65.937372 
L 363.405442 67.453447 
L 364.224078 68.329159 
L 365.156522 68.81013 
L 365.973292 69.517598 
L 366.777513 69.738532 
L 368.535902 69.588537 
L 371.078603 70.117675 
L 372.021347 70.211982 
L 372.825747 69.629127 
L 373.697389 70.21481 
L 376.183505 70.188993 
L 377.159551 70.993907 
L 377.932387 69.759213 
L 378.841497 69.022806 
L 379.692258 68.984321 
L 380.495023 68.241533 
L 383.143175 66.998386 
L 383.956571 67.40773 
L 384.780293 66.594153 
L 385.713759 64.90585 
L 386.546017 63.679477 
L 387.372013 64.103611 
L 388.269801 64.43346 
L 389.982697 62.715793 
L 390.800081 62.425135 
L 391.644249 62.501113 
L 392.537538 62.772579 
L 393.367803 61.788067 
L 394.176113 61.78098 
L 395.929135 61.176375 
L 396.819715 61.044386 
L 397.640524 61.283766 
L 398.487273 61.261136 
L 398.487273 61.261136 
" clip-path="url(#p8b4e424146)" style="fill: none; stroke: #ff7f0e; stroke-width: 1.5; stroke-linecap: square"/>
   </g>
   <g id="line2d_43">
    <path d="M 73.832727 294.321793 
L 74.594165 294.131645 
L 75.416558 294.27597 
L 77.149619 294.269048 
L 78.913018 294.025468 
L 79.704895 294.164865 
L 84.056359 293.487068 
L 84.942748 293.072679 
L 86.582575 293.007972 
L 88.351596 292.815792 
L 89.2364 291.445568 
L 90.032443 291.093571 
L 90.899536 291.327356 
L 91.792544 291.249565 
L 92.611794 291.060635 
L 93.454888 291.121169 
L 94.337622 290.511837 
L 95.165817 290.336648 
L 96.904194 290.257855 
L 97.749333 291.111938 
L 98.625524 291.459568 
L 99.458754 291.484377 
L 100.356158 291.077186 
L 101.170756 291.13116 
L 102.063943 290.324857 
L 107.20644 290.454542 
L 108.022163 291.291324 
L 108.839342 292.387959 
L 109.761026 291.317914 
L 110.577719 291.441712 
L 111.39592 290.625289 
L 112.333603 291.702153 
L 113.194307 290.821943 
L 114.061323 291.725413 
L 114.89054 290.951078 
L 115.697036 292.032965 
L 116.618873 291.626398 
L 117.440525 292.194276 
L 118.360266 293.461222 
L 119.172947 294.011339 
L 119.99465 293.831352 
L 122.553708 293.687298 
L 125.376801 293.642733 
L 126.079073 293.853859 
L 126.933873 293.525495 
L 127.79726 293.562504 
L 129.504585 293.2319 
L 131.179196 293.553661 
L 132.076447 293.190849 
L 132.872337 293.189331 
L 133.696672 292.997707 
L 135.427919 293.04924 
L 136.35934 293.470953 
L 137.164226 293.449293 
L 138.905466 293.204085 
L 139.721725 294.187287 
L 140.539568 293.112162 
L 141.470606 293.124556 
L 142.27723 293.381761 
L 144.017039 292.925606 
L 144.832096 292.890795 
L 145.769192 293.01752 
L 148.320045 292.561889 
L 151.695081 291.991564 
L 152.603833 292.011467 
L 153.417996 290.927375 
L 154.369352 291.80096 
L 155.157984 291.721696 
L 155.985871 290.918994 
L 156.935669 291.764828 
L 157.795452 291.696699 
L 158.528649 291.232641 
L 159.449029 291.213471 
L 160.270553 291.584376 
L 161.191292 291.560016 
L 162.004995 291.171119 
L 162.826902 291.743759 
L 164.604178 291.831851 
L 165.483692 291.655615 
L 166.32763 291.807932 
L 167.144579 291.109365 
L 168.064499 290.9989 
L 168.853872 292.239696 
L 169.7203 291.386368 
L 170.594933 292.213257 
L 171.41206 293.682777 
L 172.329757 293.591371 
L 173.159 293.828141 
L 173.967387 294.243348 
L 175.715374 294.29866 
L 176.626963 295.077573 
L 177.44202 294.173693 
L 178.261781 294.057773 
L 179.187375 294.87748 
L 179.998267 294.783563 
L 180.824902 294.803223 
L 181.736184 294.370453 
L 182.552903 294.139593 
L 183.474485 294.599046 
L 184.296111 294.750461 
L 186.029556 294.679338 
L 186.846888 294.341242 
L 187.663428 294.491481 
L 188.586441 294.34613 
L 189.404566 294.400268 
L 190.322902 294.238305 
L 191.141001 293.334376 
L 192.878995 293.061426 
L 193.701592 292.969902 
L 194.620567 292.98831 
L 195.4368 292.333676 
L 196.253826 291.910805 
L 197.185784 291.72142 
L 197.989827 291.714963 
L 198.813599 292.497137 
L 199.740063 291.776821 
L 200.547939 292.577591 
L 201.49242 291.35461 
L 202.29613 291.072271 
L 203.101042 291.245932 
L 204.02109 291.986375 
L 204.864338 290.968717 
L 205.657339 290.649091 
L 207.397531 290.698069 
L 208.318678 291.186484 
L 209.131462 291.950338 
L 209.976268 291.777622 
L 210.872906 290.567888 
L 211.715361 290.448721 
L 212.670858 290.474414 
L 213.428309 291.38376 
L 215.16592 291.389232 
L 215.98384 290.588782 
L 216.799536 290.540439 
L 217.719943 290.323754 
L 220.277927 290.74008 
L 221.098377 291.221489 
L 222.03468 291.287847 
L 223.774233 291.655474 
L 224.594019 293.083403 
L 225.387251 294.09422 
L 226.360076 293.3499 
L 227.126523 291.893863 
L 227.94475 293.751726 
L 228.933855 292.927018 
L 229.726575 293.865885 
L 230.601361 292.755291 
L 231.428558 293.536065 
L 232.238811 293.266265 
L 233.194921 293.405437 
L 234.850288 293.204985 
L 235.758605 293.25981 
L 237.475872 293.144182 
L 238.303555 293.176429 
L 239.11483 293.025798 
L 240.867111 293.686401 
L 242.588569 293.632876 
L 243.412751 292.852391 
L 244.33078 293.29558 
L 245.124957 293.291562 
L 245.967592 292.735958 
L 246.857559 292.833739 
L 247.699529 292.761884 
L 248.595527 293.43644 
L 249.41194 292.452421 
L 250.256107 292.479652 
L 251.148886 292.253995 
L 251.969898 291.389692 
L 252.811536 291.216366 
L 254.524688 291.215822 
L 255.457464 292.271455 
L 256.2612 292.189348 
L 258.001366 292.503725 
L 258.817165 292.677554 
L 259.8844 292.393949 
L 260.567989 292.431044 
L 261.387187 292.283873 
L 262.320807 293.120926 
L 263.93114 291.052127 
L 264.859981 291.914537 
L 265.673351 291.867542 
L 266.601144 290.912661 
L 267.419498 291.774296 
L 268.272202 290.820032 
L 269.150438 290.988696 
L 269.968461 290.928021 
L 270.887052 290.713976 
L 271.706174 290.739534 
L 272.524861 291.767402 
L 273.444475 291.117632 
L 274.286649 291.528507 
L 275.081388 291.607654 
L 276.002229 291.541473 
L 276.817287 291.921372 
L 278.589323 293.499796 
L 280.29192 295.078221 
L 281.110888 295.269078 
L 281.953063 293.195956 
L 282.847604 295.28362 
L 283.670636 295.488 
L 286.251341 295.327871 
L 288.881551 295.339002 
L 290.515986 295.242729 
L 297.395685 294.813984 
L 298.286342 291.978956 
L 299.116147 292.443768 
L 299.928189 294.801095 
L 300.8431 294.571027 
L 301.659206 294.167699 
L 302.584902 294.392956 
L 303.404279 293.917601 
L 304.21443 293.900323 
L 305.954238 292.492016 
L 306.875948 291.356093 
L 307.690929 291.100156 
L 308.509028 292.005334 
L 309.429511 291.636351 
L 310.281244 290.596059 
L 311.063741 290.271277 
L 312.009347 290.418416 
L 312.855559 290.287784 
L 313.730882 290.510273 
L 314.54024 291.267582 
L 315.360921 291.296186 
L 316.284649 291.567971 
L 317.124038 290.57334 
L 318.018017 290.12114 
L 321.392158 290.099163 
L 322.234001 290.312775 
L 323.126268 291.040382 
L 324.869399 291.460889 
L 325.682565 290.295278 
L 326.50575 290.806152 
L 328.239834 292.07733 
L 329.058981 291.876291 
L 329.976653 291.807686 
L 330.794317 290.996072 
L 332.557358 292.606617 
L 333.348826 292.986812 
L 334.269564 293.180182 
L 335.086027 292.308864 
L 336.007328 292.342994 
L 336.856607 292.222185 
L 337.641839 291.499777 
L 338.56268 291.49552 
L 339.383974 292.284541 
L 340.198265 291.327172 
L 341.116473 291.311757 
L 341.935645 291.911293 
L 343.698277 291.81388 
L 344.491355 291.679762 
L 347.086654 291.83709 
L 347.969592 290.942337 
L 348.785059 291.76636 
L 349.705235 291.670211 
L 350.526069 291.72972 
L 351.365943 290.837924 
L 352.258772 290.996652 
L 353.083491 291.790542 
L 353.999169 290.81229 
L 354.841369 291.677516 
L 355.638204 291.635768 
L 356.554572 290.484015 
L 357.371342 291.509147 
L 358.196495 290.658111 
L 359.134613 291.474945 
L 359.928151 290.459565 
L 360.847509 290.885743 
L 361.668113 290.886106 
L 362.484244 291.466977 
L 363.405442 290.48597 
L 364.224078 290.312691 
L 365.156522 290.309479 
L 366.777513 290.56466 
L 367.710698 290.335494 
L 368.535902 290.465312 
L 370.253655 290.323735 
L 371.078603 290.490622 
L 372.021347 290.316832 
L 372.825747 291.27235 
L 373.697389 290.444238 
L 375.370339 290.433657 
L 376.183505 290.517707 
L 377.159551 290.46041 
L 377.932387 290.615266 
L 378.841497 291.470693 
L 380.495023 291.602295 
L 381.394702 291.810224 
L 382.268798 291.847782 
L 383.143175 292.319221 
L 383.956571 291.239643 
L 386.546017 291.525362 
L 387.372013 290.965527 
L 388.269801 290.83934 
L 389.063032 291.652574 
L 389.982697 291.920619 
L 390.800081 291.081228 
L 391.644249 291.205489 
L 392.537538 291.168353 
L 393.367803 292.125471 
L 394.176113 291.992834 
L 395.161793 292.067507 
L 395.929135 292.264424 
L 396.819715 292.249358 
L 397.640524 291.98245 
L 398.487273 292.188681 
L 398.487273 292.188681 
" clip-path="url(#p8b4e424146)" style="fill: none; stroke: #2ca02c; stroke-width: 1.5; stroke-linecap: square"/>
   </g>
   <g id="patch_3">
    <path d="M 57.6 307.584 
L 57.6 41.472 
" style="fill: none; stroke: #000000; stroke-width: 0.8; stroke-linejoin: miter; stroke-linecap: square"/>
   </g>
   <g id="patch_4">
    <path d="M 414.72 307.584 
L 414.72 41.472 
" style="fill: none; stroke: #000000; stroke-width: 0.8; stroke-linejoin: miter; stroke-linecap: square"/>
   </g>
   <g id="patch_5">
    <path d="M 57.6 307.584 
L 414.72 307.584 
" style="fill: none; stroke: #000000; stroke-width: 0.8; stroke-linejoin: miter; stroke-linecap: square"/>
   </g>
   <g id="patch_6">
    <path d="M 57.6 41.472 
L 414.72 41.472 
" style="fill: none; stroke: #000000; stroke-width: 0.8; stroke-linejoin: miter; stroke-linecap: square"/>
   </g>
   <g id="text_23">
    <!-- Angles in Index finger joints -->
    <g transform="translate(152.50875 35.472) scale(0.12 -0.12)">
     <defs>
      <path id="DejaVuSans-41" d="M 2188 4044 
L 1331 1722 
L 3047 1722 
L 2188 4044 
z
M 1831 4666 
L 2547 4666 
L 4325 0 
L 3669 0 
L 3244 1197 
L 1141 1197 
L 716 0 
L 50 0 
L 1831 4666 
z
" transform="scale(0.015625)"/>
      <path id="DejaVuSans-49" d="M 628 4666 
L 1259 4666 
L 1259 0 
L 628 0 
L 628 4666 
z
" transform="scale(0.015625)"/>
      <path id="DejaVuSans-64" d="M 2906 2969 
L 2906 4863 
L 3481 4863 
L 3481 0 
L 2906 0 
L 2906 525 
Q 2725 213 2448 61 
Q 2172 -91 1784 -91 
Q 1150 -91 751 415 
Q 353 922 353 1747 
Q 353 2572 751 3078 
Q 1150 3584 1784 3584 
Q 2172 3584 2448 3432 
Q 2725 3281 2906 2969 
z
M 947 1747 
Q 947 1113 1208 752 
Q 1469 391 1925 391 
Q 2381 391 2643 752 
Q 2906 1113 2906 1747 
Q 2906 2381 2643 2742 
Q 2381 3103 1925 3103 
Q 1469 3103 1208 2742 
Q 947 2381 947 1747 
z
" transform="scale(0.015625)"/>
      <path id="DejaVuSans-78" d="M 3513 3500 
L 2247 1797 
L 3578 0 
L 2900 0 
L 1881 1375 
L 863 0 
L 184 0 
L 1544 1831 
L 300 3500 
L 978 3500 
L 1906 2253 
L 2834 3500 
L 3513 3500 
z
" transform="scale(0.015625)"/>
      <path id="DejaVuSans-66" d="M 2375 4863 
L 2375 4384 
L 1825 4384 
Q 1516 4384 1395 4259 
Q 1275 4134 1275 3809 
L 1275 3500 
L 2222 3500 
L 2222 3053 
L 1275 3053 
L 1275 0 
L 697 0 
L 697 3053 
L 147 3053 
L 147 3500 
L 697 3500 
L 697 3744 
Q 697 4328 969 4595 
Q 1241 4863 1831 4863 
L 2375 4863 
z
" transform="scale(0.015625)"/>
      <path id="DejaVuSans-72" d="M 2631 2963 
Q 2534 3019 2420 3045 
Q 2306 3072 2169 3072 
Q 1681 3072 1420 2755 
Q 1159 2438 1159 1844 
L 1159 0 
L 581 0 
L 581 3500 
L 1159 3500 
L 1159 2956 
Q 1341 3275 1631 3429 
Q 1922 3584 2338 3584 
Q 2397 3584 2469 3576 
Q 2541 3569 2628 3553 
L 2631 2963 
z
" transform="scale(0.015625)"/>
      <path id="DejaVuSans-6a" d="M 603 3500 
L 1178 3500 
L 1178 -63 
Q 1178 -731 923 -1031 
Q 669 -1331 103 -1331 
L -116 -1331 
L -116 -844 
L 38 -844 
Q 366 -844 484 -692 
Q 603 -541 603 -63 
L 603 3500 
z
M 603 4863 
L 1178 4863 
L 1178 4134 
L 603 4134 
L 603 4863 
z
" transform="scale(0.015625)"/>
      <path id="DejaVuSans-6f" d="M 1959 3097 
Q 1497 3097 1228 2736 
Q 959 2375 959 1747 
Q 959 1119 1226 758 
Q 1494 397 1959 397 
Q 2419 397 2687 759 
Q 2956 1122 2956 1747 
Q 2956 2369 2687 2733 
Q 2419 3097 1959 3097 
z
M 1959 3584 
Q 2709 3584 3137 3096 
Q 3566 2609 3566 1747 
Q 3566 888 3137 398 
Q 2709 -91 1959 -91 
Q 1206 -91 779 398 
Q 353 888 353 1747 
Q 353 2609 779 3096 
Q 1206 3584 1959 3584 
z
" transform="scale(0.015625)"/>
     </defs>
     <use xlink:href="#DejaVuSans-41"/>
     <use xlink:href="#DejaVuSans-6e" x="68.408203"/>
     <use xlink:href="#DejaVuSans-67" x="131.787109"/>
     <use xlink:href="#DejaVuSans-6c" x="195.263672"/>
     <use xlink:href="#DejaVuSans-65" x="223.046875"/>
     <use xlink:href="#DejaVuSans-73" x="284.570312"/>
     <use xlink:href="#DejaVuSans-20" x="336.669922"/>
     <use xlink:href="#DejaVuSans-69" x="368.457031"/>
     <use xlink:href="#DejaVuSans-6e" x="396.240234"/>
     <use xlink:href="#DejaVuSans-20" x="459.619141"/>
     <use xlink:href="#DejaVuSans-49" x="491.40625"/>
     <use xlink:href="#DejaVuSans-6e" x="520.898438"/>
     <use xlink:href="#DejaVuSans-64" x="584.277344"/>
     <use xlink:href="#DejaVuSans-65" x="647.753906"/>
     <use xlink:href="#DejaVuSans-78" x="707.527344"/>
     <use xlink:href="#DejaVuSans-20" x="766.707031"/>
     <use xlink:href="#DejaVuSans-66" x="798.494141"/>
     <use xlink:href="#DejaVuSans-69" x="833.699219"/>
     <use xlink:href="#DejaVuSans-6e" x="861.482422"/>
     <use xlink:href="#DejaVuSans-67" x="924.861328"/>
     <use xlink:href="#DejaVuSans-65" x="988.337891"/>
     <use xlink:href="#DejaVuSans-72" x="1049.861328"/>
     <use xlink:href="#DejaVuSans-20" x="1090.974609"/>
     <use xlink:href="#DejaVuSans-6a" x="1122.761719"/>
     <use xlink:href="#DejaVuSans-6f" x="1150.544922"/>
     <use xlink:href="#DejaVuSans-69" x="1211.726562"/>
     <use xlink:href="#DejaVuSans-6e" x="1239.509766"/>
     <use xlink:href="#DejaVuSans-74" x="1302.888672"/>
     <use xlink:href="#DejaVuSans-73" x="1342.097656"/>
    </g>
   </g>
   <g id="legend_1">
    <g id="patch_7">
     <path d="M 305.012188 93.506375 
L 407.72 93.506375 
Q 409.72 93.506375 409.72 91.506375 
L 409.72 48.472 
Q 409.72 46.472 407.72 46.472 
L 305.012188 46.472 
Q 303.012188 46.472 303.012188 48.472 
L 303.012188 91.506375 
Q 303.012188 93.506375 305.012188 93.506375 
z
" style="fill: #ffffff; opacity: 0.8; stroke: #cccccc; stroke-linejoin: miter"/>
    </g>
    <g id="line2d_44">
     <path d="M 307.012188 54.570438 
L 317.012188 54.570438 
L 327.012188 54.570438 
" style="fill: none; stroke: #1f77b4; stroke-width: 1.5; stroke-linecap: square"/>
    </g>
    <g id="text_24">
     <!-- alpha (DIP) -->
     <g transform="translate(335.012188 58.070438) scale(0.1 -0.1)">
      <defs>
       <path id="DejaVuSans-70" d="M 1159 525 
L 1159 -1331 
L 581 -1331 
L 581 3500 
L 1159 3500 
L 1159 2969 
Q 1341 3281 1617 3432 
Q 1894 3584 2278 3584 
Q 2916 3584 3314 3078 
Q 3713 2572 3713 1747 
Q 3713 922 3314 415 
Q 2916 -91 2278 -91 
Q 1894 -91 1617 61 
Q 1341 213 1159 525 
z
M 3116 1747 
Q 3116 2381 2855 2742 
Q 2594 3103 2138 3103 
Q 1681 3103 1420 2742 
Q 1159 2381 1159 1747 
Q 1159 1113 1420 752 
Q 1681 391 2138 391 
Q 2594 391 2855 752 
Q 3116 1113 3116 1747 
z
" transform="scale(0.015625)"/>
       <path id="DejaVuSans-68" d="M 3513 2113 
L 3513 0 
L 2938 0 
L 2938 2094 
Q 2938 2591 2744 2837 
Q 2550 3084 2163 3084 
Q 1697 3084 1428 2787 
Q 1159 2491 1159 1978 
L 1159 0 
L 581 0 
L 581 4863 
L 1159 4863 
L 1159 2956 
Q 1366 3272 1645 3428 
Q 1925 3584 2291 3584 
Q 2894 3584 3203 3211 
Q 3513 2838 3513 2113 
z
" transform="scale(0.015625)"/>
       <path id="DejaVuSans-28" d="M 1984 4856 
Q 1566 4138 1362 3434 
Q 1159 2731 1159 2009 
Q 1159 1288 1364 580 
Q 1569 -128 1984 -844 
L 1484 -844 
Q 1016 -109 783 600 
Q 550 1309 550 2009 
Q 550 2706 781 3412 
Q 1013 4119 1484 4856 
L 1984 4856 
z
" transform="scale(0.015625)"/>
       <path id="DejaVuSans-44" d="M 1259 4147 
L 1259 519 
L 2022 519 
Q 2988 519 3436 956 
Q 3884 1394 3884 2338 
Q 3884 3275 3436 3711 
Q 2988 4147 2022 4147 
L 1259 4147 
z
M 628 4666 
L 1925 4666 
Q 3281 4666 3915 4102 
Q 4550 3538 4550 2338 
Q 4550 1131 3912 565 
Q 3275 0 1925 0 
L 628 0 
L 628 4666 
z
" transform="scale(0.015625)"/>
       <path id="DejaVuSans-50" d="M 1259 4147 
L 1259 2394 
L 2053 2394 
Q 2494 2394 2734 2622 
Q 2975 2850 2975 3272 
Q 2975 3691 2734 3919 
Q 2494 4147 2053 4147 
L 1259 4147 
z
M 628 4666 
L 2053 4666 
Q 2838 4666 3239 4311 
Q 3641 3956 3641 3272 
Q 3641 2581 3239 2228 
Q 2838 1875 2053 1875 
L 1259 1875 
L 1259 0 
L 628 0 
L 628 4666 
z
" transform="scale(0.015625)"/>
       <path id="DejaVuSans-29" d="M 513 4856 
L 1013 4856 
Q 1481 4119 1714 3412 
Q 1947 2706 1947 2009 
Q 1947 1309 1714 600 
Q 1481 -109 1013 -844 
L 513 -844 
Q 928 -128 1133 580 
Q 1338 1288 1338 2009 
Q 1338 2731 1133 3434 
Q 928 4138 513 4856 
z
" transform="scale(0.015625)"/>
      </defs>
      <use xlink:href="#DejaVuSans-61"/>
      <use xlink:href="#DejaVuSans-6c" x="61.279297"/>
      <use xlink:href="#DejaVuSans-70" x="89.0625"/>
      <use xlink:href="#DejaVuSans-68" x="152.539062"/>
      <use xlink:href="#DejaVuSans-61" x="215.917969"/>
      <use xlink:href="#DejaVuSans-20" x="277.197266"/>
      <use xlink:href="#DejaVuSans-28" x="308.984375"/>
      <use xlink:href="#DejaVuSans-44" x="347.998047"/>
      <use xlink:href="#DejaVuSans-49" x="425"/>
      <use xlink:href="#DejaVuSans-50" x="454.492188"/>
      <use xlink:href="#DejaVuSans-29" x="514.794922"/>
     </g>
    </g>
    <g id="line2d_45">
     <path d="M 307.012188 69.248563 
L 317.012188 69.248563 
L 327.012188 69.248563 
" style="fill: none; stroke: #ff7f0e; stroke-width: 1.5; stroke-linecap: square"/>
    </g>
    <g id="text_25">
     <!-- beta (PIP) -->
     <g transform="translate(335.012188 72.748563) scale(0.1 -0.1)">
      <defs>
       <path id="DejaVuSans-62" d="M 3116 1747 
Q 3116 2381 2855 2742 
Q 2594 3103 2138 3103 
Q 1681 3103 1420 2742 
Q 1159 2381 1159 1747 
Q 1159 1113 1420 752 
Q 1681 391 2138 391 
Q 2594 391 2855 752 
Q 3116 1113 3116 1747 
z
M 1159 2969 
Q 1341 3281 1617 3432 
Q 1894 3584 2278 3584 
Q 2916 3584 3314 3078 
Q 3713 2572 3713 1747 
Q 3713 922 3314 415 
Q 2916 -91 2278 -91 
Q 1894 -91 1617 61 
Q 1341 213 1159 525 
L 1159 0 
L 581 0 
L 581 4863 
L 1159 4863 
L 1159 2969 
z
" transform="scale(0.015625)"/>
      </defs>
      <use xlink:href="#DejaVuSans-62"/>
      <use xlink:href="#DejaVuSans-65" x="63.476562"/>
      <use xlink:href="#DejaVuSans-74" x="125"/>
      <use xlink:href="#DejaVuSans-61" x="164.208984"/>
      <use xlink:href="#DejaVuSans-20" x="225.488281"/>
      <use xlink:href="#DejaVuSans-28" x="257.275391"/>
      <use xlink:href="#DejaVuSans-50" x="296.289062"/>
      <use xlink:href="#DejaVuSans-49" x="356.591797"/>
      <use xlink:href="#DejaVuSans-50" x="386.083984"/>
      <use xlink:href="#DejaVuSans-29" x="446.386719"/>
     </g>
    </g>
    <g id="line2d_46">
     <path d="M 307.012188 83.926688 
L 317.012188 83.926688 
L 327.012188 83.926688 
" style="fill: none; stroke: #2ca02c; stroke-width: 1.5; stroke-linecap: square"/>
    </g>
    <g id="text_26">
     <!-- gamma (MCP) -->
     <g transform="translate(335.012188 87.426688) scale(0.1 -0.1)">
      <defs>
       <path id="DejaVuSans-4d" d="M 628 4666 
L 1569 4666 
L 2759 1491 
L 3956 4666 
L 4897 4666 
L 4897 0 
L 4281 0 
L 4281 4097 
L 3078 897 
L 2444 897 
L 1241 4097 
L 1241 0 
L 628 0 
L 628 4666 
z
" transform="scale(0.015625)"/>
       <path id="DejaVuSans-43" d="M 4122 4306 
L 4122 3641 
Q 3803 3938 3442 4084 
Q 3081 4231 2675 4231 
Q 1875 4231 1450 3742 
Q 1025 3253 1025 2328 
Q 1025 1406 1450 917 
Q 1875 428 2675 428 
Q 3081 428 3442 575 
Q 3803 722 4122 1019 
L 4122 359 
Q 3791 134 3420 21 
Q 3050 -91 2638 -91 
Q 1578 -91 968 557 
Q 359 1206 359 2328 
Q 359 3453 968 4101 
Q 1578 4750 2638 4750 
Q 3056 4750 3426 4639 
Q 3797 4528 4122 4306 
z
" transform="scale(0.015625)"/>
      </defs>
      <use xlink:href="#DejaVuSans-67"/>
      <use xlink:href="#DejaVuSans-61" x="63.476562"/>
      <use xlink:href="#DejaVuSans-6d" x="124.755859"/>
      <use xlink:href="#DejaVuSans-6d" x="222.167969"/>
      <use xlink:href="#DejaVuSans-61" x="319.580078"/>
      <use xlink:href="#DejaVuSans-20" x="380.859375"/>
      <use xlink:href="#DejaVuSans-28" x="412.646484"/>
      <use xlink:href="#DejaVuSans-4d" x="451.660156"/>
      <use xlink:href="#DejaVuSans-43" x="537.939453"/>
      <use xlink:href="#DejaVuSans-50" x="607.763672"/>
      <use xlink:href="#DejaVuSans-29" x="668.066406"/>
     </g>
    </g>
   </g>
  </g>
 </g>
 <defs>
  <clipPath id="p8b4e424146">
   <rect x="57.6" y="41.472" width="357.12" height="266.112"/>
  </clipPath>
 </defs>
</svg>
