<?xml version="1.0" encoding="utf-8" standalone="no"?>
<!DOCTYPE svg PUBLIC "-//W3C//DTD SVG 1.1//EN"
  "http://www.w3.org/Graphics/SVG/1.1/DTD/svg11.dtd">
<svg xmlns:xlink="http://www.w3.org/1999/xlink" width="460.8pt" height="345.6pt" viewBox="0 0 460.8 345.6" xmlns="http://www.w3.org/2000/svg" version="1.1">
 <metadata>
  <rdf:RDF xmlns:dc="http://purl.org/dc/elements/1.1/" xmlns:cc="http://creativecommons.org/ns#" xmlns:rdf="http://www.w3.org/1999/02/22-rdf-syntax-ns#">
   <cc:Work>
    <dc:type rdf:resource="http://purl.org/dc/dcmitype/StillImage"/>
    <dc:date>2023-07-03T15:26:51.529313</dc:date>
    <dc:format>image/svg+xml</dc:format>
    <dc:creator>
     <cc:Agent>
      <dc:title>Matplotlib v3.7.1, https://matplotlib.org/</dc:title>
     </cc:Agent>
    </dc:creator>
   </cc:Work>
  </rdf:RDF>
 </metadata>
 <defs>
  <style type="text/css">*{stroke-linejoin: round; stroke-linecap: butt}</style>
 </defs>
 <g id="figure_1">
  <g id="patch_1">
   <path d="M 0 345.6 
L 460.8 345.6 
L 460.8 0 
L 0 0 
z
" style="fill: #ffffff"/>
  </g>
  <g id="axes_1">
   <g id="patch_2">
    <path d="M 57.6 307.584 
L 414.72 307.584 
L 414.72 41.472 
L 57.6 41.472 
z
" style="fill: #eaeaf2"/>
   </g>
   <g id="matplotlib.axis_1">
    <g id="xtick_1">
     <g id="line2d_1">
      <path d="M 64.175902 307.584 
L 64.175902 41.472 
" clip-path="url(#p6866733f08)" style="fill: none; stroke: #ffffff; stroke-width: 0.8; stroke-linecap: round"/>
     </g>
     <g id="text_1">
      <!-- 47 -->
      <g style="fill: #262626" transform="translate(58.614964 321.741812) scale(0.1 -0.1)">
       <defs>
        <path id="ArialMT-34" d="M 2069 0 
L 2069 1097 
L 81 1097 
L 81 1613 
L 2172 4581 
L 2631 4581 
L 2631 1613 
L 3250 1613 
L 3250 1097 
L 2631 1097 
L 2631 0 
L 2069 0 
z
M 2069 1613 
L 2069 3678 
L 634 1613 
L 2069 1613 
z
" transform="scale(0.015625)"/>
        <path id="ArialMT-37" d="M 303 3981 
L 303 4522 
L 3269 4522 
L 3269 4084 
Q 2831 3619 2401 2847 
Q 1972 2075 1738 1259 
Q 1569 684 1522 0 
L 944 0 
Q 953 541 1156 1306 
Q 1359 2072 1739 2783 
Q 2119 3494 2547 3981 
L 303 3981 
z
" transform="scale(0.015625)"/>
       </defs>
       <use xlink:href="#ArialMT-34"/>
       <use xlink:href="#ArialMT-37" x="55.615234"/>
      </g>
     </g>
    </g>
    <g id="xtick_2">
     <g id="line2d_2">
      <path d="M 89.933687 307.584 
L 89.933687 41.472 
" clip-path="url(#p6866733f08)" style="fill: none; stroke: #ffffff; stroke-width: 0.8; stroke-linecap: round"/>
     </g>
     <g id="text_2">
      <!-- 48 -->
      <g style="fill: #262626" transform="translate(84.372749 321.741812) scale(0.1 -0.1)">
       <defs>
        <path id="ArialMT-38" d="M 1131 2484 
Q 781 2613 612 2850 
Q 444 3088 444 3419 
Q 444 3919 803 4259 
Q 1163 4600 1759 4600 
Q 2359 4600 2725 4251 
Q 3091 3903 3091 3403 
Q 3091 3084 2923 2848 
Q 2756 2613 2416 2484 
Q 2838 2347 3058 2040 
Q 3278 1734 3278 1309 
Q 3278 722 2862 322 
Q 2447 -78 1769 -78 
Q 1091 -78 675 323 
Q 259 725 259 1325 
Q 259 1772 486 2073 
Q 713 2375 1131 2484 
z
M 1019 3438 
Q 1019 3113 1228 2906 
Q 1438 2700 1772 2700 
Q 2097 2700 2305 2904 
Q 2513 3109 2513 3406 
Q 2513 3716 2298 3927 
Q 2084 4138 1766 4138 
Q 1444 4138 1231 3931 
Q 1019 3725 1019 3438 
z
M 838 1322 
Q 838 1081 952 856 
Q 1066 631 1291 507 
Q 1516 384 1775 384 
Q 2178 384 2440 643 
Q 2703 903 2703 1303 
Q 2703 1709 2433 1975 
Q 2163 2241 1756 2241 
Q 1359 2241 1098 1978 
Q 838 1716 838 1322 
z
" transform="scale(0.015625)"/>
       </defs>
       <use xlink:href="#ArialMT-34"/>
       <use xlink:href="#ArialMT-38" x="55.615234"/>
      </g>
     </g>
    </g>
    <g id="xtick_3">
     <g id="line2d_3">
      <path d="M 115.691472 307.584 
L 115.691472 41.472 
" clip-path="url(#p6866733f08)" style="fill: none; stroke: #ffffff; stroke-width: 0.8; stroke-linecap: round"/>
     </g>
     <g id="text_3">
      <!-- 49 -->
      <g style="fill: #262626" transform="translate(110.130534 321.741812) scale(0.1 -0.1)">
       <defs>
        <path id="ArialMT-39" d="M 350 1059 
L 891 1109 
Q 959 728 1153 556 
Q 1347 384 1650 384 
Q 1909 384 2104 503 
Q 2300 622 2425 820 
Q 2550 1019 2634 1356 
Q 2719 1694 2719 2044 
Q 2719 2081 2716 2156 
Q 2547 1888 2255 1720 
Q 1963 1553 1622 1553 
Q 1053 1553 659 1965 
Q 266 2378 266 3053 
Q 266 3750 677 4175 
Q 1088 4600 1706 4600 
Q 2153 4600 2523 4359 
Q 2894 4119 3086 3673 
Q 3278 3228 3278 2384 
Q 3278 1506 3087 986 
Q 2897 466 2520 194 
Q 2144 -78 1638 -78 
Q 1100 -78 759 220 
Q 419 519 350 1059 
z
M 2653 3081 
Q 2653 3566 2395 3850 
Q 2138 4134 1775 4134 
Q 1400 4134 1122 3828 
Q 844 3522 844 3034 
Q 844 2597 1108 2323 
Q 1372 2050 1759 2050 
Q 2150 2050 2401 2323 
Q 2653 2597 2653 3081 
z
" transform="scale(0.015625)"/>
       </defs>
       <use xlink:href="#ArialMT-34"/>
       <use xlink:href="#ArialMT-39" x="55.615234"/>
      </g>
     </g>
    </g>
    <g id="xtick_4">
     <g id="line2d_4">
      <path d="M 141.449256 307.584 
L 141.449256 41.472 
" clip-path="url(#p6866733f08)" style="fill: none; stroke: #ffffff; stroke-width: 0.8; stroke-linecap: round"/>
     </g>
     <g id="text_4">
      <!-- 50 -->
      <g style="fill: #262626" transform="translate(135.888319 321.741812) scale(0.1 -0.1)">
       <defs>
        <path id="ArialMT-35" d="M 266 1200 
L 856 1250 
Q 922 819 1161 601 
Q 1400 384 1738 384 
Q 2144 384 2425 690 
Q 2706 997 2706 1503 
Q 2706 1984 2436 2262 
Q 2166 2541 1728 2541 
Q 1456 2541 1237 2417 
Q 1019 2294 894 2097 
L 366 2166 
L 809 4519 
L 3088 4519 
L 3088 3981 
L 1259 3981 
L 1013 2750 
Q 1425 3038 1878 3038 
Q 2478 3038 2890 2622 
Q 3303 2206 3303 1553 
Q 3303 931 2941 478 
Q 2500 -78 1738 -78 
Q 1113 -78 717 272 
Q 322 622 266 1200 
z
" transform="scale(0.015625)"/>
        <path id="ArialMT-30" d="M 266 2259 
Q 266 3072 433 3567 
Q 600 4063 929 4331 
Q 1259 4600 1759 4600 
Q 2128 4600 2406 4451 
Q 2684 4303 2865 4023 
Q 3047 3744 3150 3342 
Q 3253 2941 3253 2259 
Q 3253 1453 3087 958 
Q 2922 463 2592 192 
Q 2263 -78 1759 -78 
Q 1097 -78 719 397 
Q 266 969 266 2259 
z
M 844 2259 
Q 844 1131 1108 757 
Q 1372 384 1759 384 
Q 2147 384 2411 759 
Q 2675 1134 2675 2259 
Q 2675 3391 2411 3762 
Q 2147 4134 1753 4134 
Q 1366 4134 1134 3806 
Q 844 3388 844 2259 
z
" transform="scale(0.015625)"/>
       </defs>
       <use xlink:href="#ArialMT-35"/>
       <use xlink:href="#ArialMT-30" x="55.615234"/>
      </g>
     </g>
    </g>
    <g id="xtick_5">
     <g id="line2d_5">
      <path d="M 167.207041 307.584 
L 167.207041 41.472 
" clip-path="url(#p6866733f08)" style="fill: none; stroke: #ffffff; stroke-width: 0.8; stroke-linecap: round"/>
     </g>
     <g id="text_5">
      <!-- 51 -->
      <g style="fill: #262626" transform="translate(161.646104 321.741812) scale(0.1 -0.1)">
       <defs>
        <path id="ArialMT-31" d="M 2384 0 
L 1822 0 
L 1822 3584 
Q 1619 3391 1289 3197 
Q 959 3003 697 2906 
L 697 3450 
Q 1169 3672 1522 3987 
Q 1875 4303 2022 4600 
L 2384 4600 
L 2384 0 
z
" transform="scale(0.015625)"/>
       </defs>
       <use xlink:href="#ArialMT-35"/>
       <use xlink:href="#ArialMT-31" x="55.615234"/>
      </g>
     </g>
    </g>
    <g id="xtick_6">
     <g id="line2d_6">
      <path d="M 192.964826 307.584 
L 192.964826 41.472 
" clip-path="url(#p6866733f08)" style="fill: none; stroke: #ffffff; stroke-width: 0.8; stroke-linecap: round"/>
     </g>
     <g id="text_6">
      <!-- 52 -->
      <g style="fill: #262626" transform="translate(187.403888 321.741812) scale(0.1 -0.1)">
       <defs>
        <path id="ArialMT-32" d="M 3222 541 
L 3222 0 
L 194 0 
Q 188 203 259 391 
Q 375 700 629 1000 
Q 884 1300 1366 1694 
Q 2113 2306 2375 2664 
Q 2638 3022 2638 3341 
Q 2638 3675 2398 3904 
Q 2159 4134 1775 4134 
Q 1369 4134 1125 3890 
Q 881 3647 878 3216 
L 300 3275 
Q 359 3922 746 4261 
Q 1134 4600 1788 4600 
Q 2447 4600 2831 4234 
Q 3216 3869 3216 3328 
Q 3216 3053 3103 2787 
Q 2991 2522 2730 2228 
Q 2469 1934 1863 1422 
Q 1356 997 1212 845 
Q 1069 694 975 541 
L 3222 541 
z
" transform="scale(0.015625)"/>
       </defs>
       <use xlink:href="#ArialMT-35"/>
       <use xlink:href="#ArialMT-32" x="55.615234"/>
      </g>
     </g>
    </g>
    <g id="xtick_7">
     <g id="line2d_7">
      <path d="M 218.722611 307.584 
L 218.722611 41.472 
" clip-path="url(#p6866733f08)" style="fill: none; stroke: #ffffff; stroke-width: 0.8; stroke-linecap: round"/>
     </g>
     <g id="text_7">
      <!-- 53 -->
      <g style="fill: #262626" transform="translate(213.161673 321.741812) scale(0.1 -0.1)">
       <defs>
        <path id="ArialMT-33" d="M 269 1209 
L 831 1284 
Q 928 806 1161 595 
Q 1394 384 1728 384 
Q 2125 384 2398 659 
Q 2672 934 2672 1341 
Q 2672 1728 2419 1979 
Q 2166 2231 1775 2231 
Q 1616 2231 1378 2169 
L 1441 2663 
Q 1497 2656 1531 2656 
Q 1891 2656 2178 2843 
Q 2466 3031 2466 3422 
Q 2466 3731 2256 3934 
Q 2047 4138 1716 4138 
Q 1388 4138 1169 3931 
Q 950 3725 888 3313 
L 325 3413 
Q 428 3978 793 4289 
Q 1159 4600 1703 4600 
Q 2078 4600 2393 4439 
Q 2709 4278 2876 4000 
Q 3044 3722 3044 3409 
Q 3044 3113 2884 2869 
Q 2725 2625 2413 2481 
Q 2819 2388 3044 2092 
Q 3269 1797 3269 1353 
Q 3269 753 2831 336 
Q 2394 -81 1725 -81 
Q 1122 -81 723 278 
Q 325 638 269 1209 
z
" transform="scale(0.015625)"/>
       </defs>
       <use xlink:href="#ArialMT-35"/>
       <use xlink:href="#ArialMT-33" x="55.615234"/>
      </g>
     </g>
    </g>
    <g id="xtick_8">
     <g id="line2d_8">
      <path d="M 244.480396 307.584 
L 244.480396 41.472 
" clip-path="url(#p6866733f08)" style="fill: none; stroke: #ffffff; stroke-width: 0.8; stroke-linecap: round"/>
     </g>
     <g id="text_8">
      <!-- 54 -->
      <g style="fill: #262626" transform="translate(238.919458 321.741812) scale(0.1 -0.1)">
       <use xlink:href="#ArialMT-35"/>
       <use xlink:href="#ArialMT-34" x="55.615234"/>
      </g>
     </g>
    </g>
    <g id="xtick_9">
     <g id="line2d_9">
      <path d="M 270.23818 307.584 
L 270.23818 41.472 
" clip-path="url(#p6866733f08)" style="fill: none; stroke: #ffffff; stroke-width: 0.8; stroke-linecap: round"/>
     </g>
     <g id="text_9">
      <!-- 55 -->
      <g style="fill: #262626" transform="translate(264.677243 321.741812) scale(0.1 -0.1)">
       <use xlink:href="#ArialMT-35"/>
       <use xlink:href="#ArialMT-35" x="55.615234"/>
      </g>
     </g>
    </g>
    <g id="xtick_10">
     <g id="line2d_10">
      <path d="M 295.995965 307.584 
L 295.995965 41.472 
" clip-path="url(#p6866733f08)" style="fill: none; stroke: #ffffff; stroke-width: 0.8; stroke-linecap: round"/>
     </g>
     <g id="text_10">
      <!-- 56 -->
      <g style="fill: #262626" transform="translate(290.435028 321.741812) scale(0.1 -0.1)">
       <defs>
        <path id="ArialMT-36" d="M 3184 3459 
L 2625 3416 
Q 2550 3747 2413 3897 
Q 2184 4138 1850 4138 
Q 1581 4138 1378 3988 
Q 1113 3794 959 3422 
Q 806 3050 800 2363 
Q 1003 2672 1297 2822 
Q 1591 2972 1913 2972 
Q 2475 2972 2870 2558 
Q 3266 2144 3266 1488 
Q 3266 1056 3080 686 
Q 2894 316 2569 119 
Q 2244 -78 1831 -78 
Q 1128 -78 684 439 
Q 241 956 241 2144 
Q 241 3472 731 4075 
Q 1159 4600 1884 4600 
Q 2425 4600 2770 4297 
Q 3116 3994 3184 3459 
z
M 888 1484 
Q 888 1194 1011 928 
Q 1134 663 1356 523 
Q 1578 384 1822 384 
Q 2178 384 2434 671 
Q 2691 959 2691 1453 
Q 2691 1928 2437 2201 
Q 2184 2475 1800 2475 
Q 1419 2475 1153 2201 
Q 888 1928 888 1484 
z
" transform="scale(0.015625)"/>
       </defs>
       <use xlink:href="#ArialMT-35"/>
       <use xlink:href="#ArialMT-36" x="55.615234"/>
      </g>
     </g>
    </g>
    <g id="xtick_11">
     <g id="line2d_11">
      <path d="M 321.75375 307.584 
L 321.75375 41.472 
" clip-path="url(#p6866733f08)" style="fill: none; stroke: #ffffff; stroke-width: 0.8; stroke-linecap: round"/>
     </g>
     <g id="text_11">
      <!-- 57 -->
      <g style="fill: #262626" transform="translate(316.192812 321.741812) scale(0.1 -0.1)">
       <use xlink:href="#ArialMT-35"/>
       <use xlink:href="#ArialMT-37" x="55.615234"/>
      </g>
     </g>
    </g>
    <g id="xtick_12">
     <g id="line2d_12">
      <path d="M 347.511535 307.584 
L 347.511535 41.472 
" clip-path="url(#p6866733f08)" style="fill: none; stroke: #ffffff; stroke-width: 0.8; stroke-linecap: round"/>
     </g>
     <g id="text_12">
      <!-- 58 -->
      <g style="fill: #262626" transform="translate(341.950597 321.741812) scale(0.1 -0.1)">
       <use xlink:href="#ArialMT-35"/>
       <use xlink:href="#ArialMT-38" x="55.615234"/>
      </g>
     </g>
    </g>
    <g id="xtick_13">
     <g id="line2d_13">
      <path d="M 373.26932 307.584 
L 373.26932 41.472 
" clip-path="url(#p6866733f08)" style="fill: none; stroke: #ffffff; stroke-width: 0.8; stroke-linecap: round"/>
     </g>
     <g id="text_13">
      <!-- 59 -->
      <g style="fill: #262626" transform="translate(367.708382 321.741812) scale(0.1 -0.1)">
       <use xlink:href="#ArialMT-35"/>
       <use xlink:href="#ArialMT-39" x="55.615234"/>
      </g>
     </g>
    </g>
    <g id="text_14">
     <!-- time [sec] -->
     <g style="fill: #262626" transform="translate(214.767031 334.887125) scale(0.1 -0.1)">
      <defs>
       <path id="ArialMT-74" d="M 1650 503 
L 1731 6 
Q 1494 -44 1306 -44 
Q 1000 -44 831 53 
Q 663 150 594 308 
Q 525 466 525 972 
L 525 2881 
L 113 2881 
L 113 3319 
L 525 3319 
L 525 4141 
L 1084 4478 
L 1084 3319 
L 1650 3319 
L 1650 2881 
L 1084 2881 
L 1084 941 
Q 1084 700 1114 631 
Q 1144 563 1211 522 
Q 1278 481 1403 481 
Q 1497 481 1650 503 
z
" transform="scale(0.015625)"/>
       <path id="ArialMT-69" d="M 425 3934 
L 425 4581 
L 988 4581 
L 988 3934 
L 425 3934 
z
M 425 0 
L 425 3319 
L 988 3319 
L 988 0 
L 425 0 
z
" transform="scale(0.015625)"/>
       <path id="ArialMT-6d" d="M 422 0 
L 422 3319 
L 925 3319 
L 925 2853 
Q 1081 3097 1340 3245 
Q 1600 3394 1931 3394 
Q 2300 3394 2536 3241 
Q 2772 3088 2869 2813 
Q 3263 3394 3894 3394 
Q 4388 3394 4653 3120 
Q 4919 2847 4919 2278 
L 4919 0 
L 4359 0 
L 4359 2091 
Q 4359 2428 4304 2576 
Q 4250 2725 4106 2815 
Q 3963 2906 3769 2906 
Q 3419 2906 3187 2673 
Q 2956 2441 2956 1928 
L 2956 0 
L 2394 0 
L 2394 2156 
Q 2394 2531 2256 2718 
Q 2119 2906 1806 2906 
Q 1569 2906 1367 2781 
Q 1166 2656 1075 2415 
Q 984 2175 984 1722 
L 984 0 
L 422 0 
z
" transform="scale(0.015625)"/>
       <path id="ArialMT-65" d="M 2694 1069 
L 3275 997 
Q 3138 488 2766 206 
Q 2394 -75 1816 -75 
Q 1088 -75 661 373 
Q 234 822 234 1631 
Q 234 2469 665 2931 
Q 1097 3394 1784 3394 
Q 2450 3394 2872 2941 
Q 3294 2488 3294 1666 
Q 3294 1616 3291 1516 
L 816 1516 
Q 847 969 1125 678 
Q 1403 388 1819 388 
Q 2128 388 2347 550 
Q 2566 713 2694 1069 
z
M 847 1978 
L 2700 1978 
Q 2663 2397 2488 2606 
Q 2219 2931 1791 2931 
Q 1403 2931 1139 2672 
Q 875 2413 847 1978 
z
" transform="scale(0.015625)"/>
       <path id="ArialMT-20" transform="scale(0.015625)"/>
       <path id="ArialMT-5b" d="M 434 -1272 
L 434 4581 
L 1675 4581 
L 1675 4116 
L 997 4116 
L 997 -806 
L 1675 -806 
L 1675 -1272 
L 434 -1272 
z
" transform="scale(0.015625)"/>
       <path id="ArialMT-73" d="M 197 991 
L 753 1078 
Q 800 744 1014 566 
Q 1228 388 1613 388 
Q 2000 388 2187 545 
Q 2375 703 2375 916 
Q 2375 1106 2209 1216 
Q 2094 1291 1634 1406 
Q 1016 1563 777 1677 
Q 538 1791 414 1992 
Q 291 2194 291 2438 
Q 291 2659 392 2848 
Q 494 3038 669 3163 
Q 800 3259 1026 3326 
Q 1253 3394 1513 3394 
Q 1903 3394 2198 3281 
Q 2494 3169 2634 2976 
Q 2775 2784 2828 2463 
L 2278 2388 
Q 2241 2644 2061 2787 
Q 1881 2931 1553 2931 
Q 1166 2931 1000 2803 
Q 834 2675 834 2503 
Q 834 2394 903 2306 
Q 972 2216 1119 2156 
Q 1203 2125 1616 2013 
Q 2213 1853 2448 1751 
Q 2684 1650 2818 1456 
Q 2953 1263 2953 975 
Q 2953 694 2789 445 
Q 2625 197 2315 61 
Q 2006 -75 1616 -75 
Q 969 -75 630 194 
Q 291 463 197 991 
z
" transform="scale(0.015625)"/>
       <path id="ArialMT-63" d="M 2588 1216 
L 3141 1144 
Q 3050 572 2676 248 
Q 2303 -75 1759 -75 
Q 1078 -75 664 370 
Q 250 816 250 1647 
Q 250 2184 428 2587 
Q 606 2991 970 3192 
Q 1334 3394 1763 3394 
Q 2303 3394 2647 3120 
Q 2991 2847 3088 2344 
L 2541 2259 
Q 2463 2594 2264 2762 
Q 2066 2931 1784 2931 
Q 1359 2931 1093 2626 
Q 828 2322 828 1663 
Q 828 994 1084 691 
Q 1341 388 1753 388 
Q 2084 388 2306 591 
Q 2528 794 2588 1216 
z
" transform="scale(0.015625)"/>
       <path id="ArialMT-5d" d="M 1363 -1272 
L 122 -1272 
L 122 -806 
L 800 -806 
L 800 4116 
L 122 4116 
L 122 4581 
L 1363 4581 
L 1363 -1272 
z
" transform="scale(0.015625)"/>
      </defs>
      <use xlink:href="#ArialMT-74"/>
      <use xlink:href="#ArialMT-69" x="27.783203"/>
      <use xlink:href="#ArialMT-6d" x="50"/>
      <use xlink:href="#ArialMT-65" x="133.300781"/>
      <use xlink:href="#ArialMT-20" x="188.916016"/>
      <use xlink:href="#ArialMT-5b" x="216.699219"/>
      <use xlink:href="#ArialMT-73" x="244.482422"/>
      <use xlink:href="#ArialMT-65" x="294.482422"/>
      <use xlink:href="#ArialMT-63" x="350.097656"/>
      <use xlink:href="#ArialMT-5d" x="400.097656"/>
     </g>
    </g>
   </g>
   <g id="matplotlib.axis_2">
    <g id="ytick_1">
     <g id="line2d_14">
      <path d="M 57.6 294.191835 
L 414.72 294.191835 
" clip-path="url(#p6866733f08)" style="fill: none; stroke: #ffffff; stroke-width: 0.8; stroke-linecap: round"/>
     </g>
     <g id="text_15">
      <!-- 12 -->
      <g style="fill: #262626" transform="translate(39.478125 297.770742) scale(0.1 -0.1)">
       <use xlink:href="#ArialMT-31"/>
       <use xlink:href="#ArialMT-32" x="55.615234"/>
      </g>
     </g>
    </g>
    <g id="ytick_2">
     <g id="line2d_15">
      <path d="M 57.6 261.553471 
L 414.72 261.553471 
" clip-path="url(#p6866733f08)" style="fill: none; stroke: #ffffff; stroke-width: 0.8; stroke-linecap: round"/>
     </g>
     <g id="text_16">
      <!-- 14 -->
      <g style="fill: #262626" transform="translate(39.478125 265.132378) scale(0.1 -0.1)">
       <use xlink:href="#ArialMT-31"/>
       <use xlink:href="#ArialMT-34" x="55.615234"/>
      </g>
     </g>
    </g>
    <g id="ytick_3">
     <g id="line2d_16">
      <path d="M 57.6 228.915107 
L 414.72 228.915107 
" clip-path="url(#p6866733f08)" style="fill: none; stroke: #ffffff; stroke-width: 0.8; stroke-linecap: round"/>
     </g>
     <g id="text_17">
      <!-- 16 -->
      <g style="fill: #262626" transform="translate(39.478125 232.494014) scale(0.1 -0.1)">
       <use xlink:href="#ArialMT-31"/>
       <use xlink:href="#ArialMT-36" x="55.615234"/>
      </g>
     </g>
    </g>
    <g id="ytick_4">
     <g id="line2d_17">
      <path d="M 57.6 196.276743 
L 414.72 196.276743 
" clip-path="url(#p6866733f08)" style="fill: none; stroke: #ffffff; stroke-width: 0.8; stroke-linecap: round"/>
     </g>
     <g id="text_18">
      <!-- 18 -->
      <g style="fill: #262626" transform="translate(39.478125 199.85565) scale(0.1 -0.1)">
       <use xlink:href="#ArialMT-31"/>
       <use xlink:href="#ArialMT-38" x="55.615234"/>
      </g>
     </g>
    </g>
    <g id="ytick_5">
     <g id="line2d_18">
      <path d="M 57.6 163.638379 
L 414.72 163.638379 
" clip-path="url(#p6866733f08)" style="fill: none; stroke: #ffffff; stroke-width: 0.8; stroke-linecap: round"/>
     </g>
     <g id="text_19">
      <!-- 20 -->
      <g style="fill: #262626" transform="translate(39.478125 167.217286) scale(0.1 -0.1)">
       <use xlink:href="#ArialMT-32"/>
       <use xlink:href="#ArialMT-30" x="55.615234"/>
      </g>
     </g>
    </g>
    <g id="ytick_6">
     <g id="line2d_19">
      <path d="M 57.6 131.000015 
L 414.72 131.000015 
" clip-path="url(#p6866733f08)" style="fill: none; stroke: #ffffff; stroke-width: 0.8; stroke-linecap: round"/>
     </g>
     <g id="text_20">
      <!-- 22 -->
      <g style="fill: #262626" transform="translate(39.478125 134.578922) scale(0.1 -0.1)">
       <use xlink:href="#ArialMT-32"/>
       <use xlink:href="#ArialMT-32" x="55.615234"/>
      </g>
     </g>
    </g>
    <g id="ytick_7">
     <g id="line2d_20">
      <path d="M 57.6 98.361651 
L 414.72 98.361651 
" clip-path="url(#p6866733f08)" style="fill: none; stroke: #ffffff; stroke-width: 0.8; stroke-linecap: round"/>
     </g>
     <g id="text_21">
      <!-- 24 -->
      <g style="fill: #262626" transform="translate(39.478125 101.940558) scale(0.1 -0.1)">
       <use xlink:href="#ArialMT-32"/>
       <use xlink:href="#ArialMT-34" x="55.615234"/>
      </g>
     </g>
    </g>
    <g id="ytick_8">
     <g id="line2d_21">
      <path d="M 57.6 65.723287 
L 414.72 65.723287 
" clip-path="url(#p6866733f08)" style="fill: none; stroke: #ffffff; stroke-width: 0.8; stroke-linecap: round"/>
     </g>
     <g id="text_22">
      <!-- 26 -->
      <g style="fill: #262626" transform="translate(39.478125 69.302194) scale(0.1 -0.1)">
       <use xlink:href="#ArialMT-32"/>
       <use xlink:href="#ArialMT-36" x="55.615234"/>
      </g>
     </g>
    </g>
    <g id="text_23">
     <!-- angle [°] -->
     <g style="fill: #262626" transform="translate(33.373437 192.927219) rotate(-90) scale(0.1 -0.1)">
      <defs>
       <path id="ArialMT-61" d="M 2588 409 
Q 2275 144 1986 34 
Q 1697 -75 1366 -75 
Q 819 -75 525 192 
Q 231 459 231 875 
Q 231 1119 342 1320 
Q 453 1522 633 1644 
Q 813 1766 1038 1828 
Q 1203 1872 1538 1913 
Q 2219 1994 2541 2106 
Q 2544 2222 2544 2253 
Q 2544 2597 2384 2738 
Q 2169 2928 1744 2928 
Q 1347 2928 1158 2789 
Q 969 2650 878 2297 
L 328 2372 
Q 403 2725 575 2942 
Q 747 3159 1072 3276 
Q 1397 3394 1825 3394 
Q 2250 3394 2515 3294 
Q 2781 3194 2906 3042 
Q 3031 2891 3081 2659 
Q 3109 2516 3109 2141 
L 3109 1391 
Q 3109 606 3145 398 
Q 3181 191 3288 0 
L 2700 0 
Q 2613 175 2588 409 
z
M 2541 1666 
Q 2234 1541 1622 1453 
Q 1275 1403 1131 1340 
Q 988 1278 909 1158 
Q 831 1038 831 891 
Q 831 666 1001 516 
Q 1172 366 1500 366 
Q 1825 366 2078 508 
Q 2331 650 2450 897 
Q 2541 1088 2541 1459 
L 2541 1666 
z
" transform="scale(0.015625)"/>
       <path id="ArialMT-6e" d="M 422 0 
L 422 3319 
L 928 3319 
L 928 2847 
Q 1294 3394 1984 3394 
Q 2284 3394 2536 3286 
Q 2788 3178 2913 3003 
Q 3038 2828 3088 2588 
Q 3119 2431 3119 2041 
L 3119 0 
L 2556 0 
L 2556 2019 
Q 2556 2363 2490 2533 
Q 2425 2703 2258 2804 
Q 2091 2906 1866 2906 
Q 1506 2906 1245 2678 
Q 984 2450 984 1813 
L 984 0 
L 422 0 
z
" transform="scale(0.015625)"/>
       <path id="ArialMT-67" d="M 319 -275 
L 866 -356 
Q 900 -609 1056 -725 
Q 1266 -881 1628 -881 
Q 2019 -881 2231 -725 
Q 2444 -569 2519 -288 
Q 2563 -116 2559 434 
Q 2191 0 1641 0 
Q 956 0 581 494 
Q 206 988 206 1678 
Q 206 2153 378 2554 
Q 550 2956 876 3175 
Q 1203 3394 1644 3394 
Q 2231 3394 2613 2919 
L 2613 3319 
L 3131 3319 
L 3131 450 
Q 3131 -325 2973 -648 
Q 2816 -972 2473 -1159 
Q 2131 -1347 1631 -1347 
Q 1038 -1347 672 -1080 
Q 306 -813 319 -275 
z
M 784 1719 
Q 784 1066 1043 766 
Q 1303 466 1694 466 
Q 2081 466 2343 764 
Q 2606 1063 2606 1700 
Q 2606 2309 2336 2618 
Q 2066 2928 1684 2928 
Q 1309 2928 1046 2623 
Q 784 2319 784 1719 
z
" transform="scale(0.015625)"/>
       <path id="ArialMT-6c" d="M 409 0 
L 409 4581 
L 972 4581 
L 972 0 
L 409 0 
z
" transform="scale(0.015625)"/>
       <path id="ArialMT-b0" d="M 400 3794 
Q 400 4153 654 4406 
Q 909 4659 1266 4659 
Q 1628 4659 1881 4406 
Q 2134 4153 2134 3794 
Q 2134 3434 1879 3179 
Q 1625 2925 1266 2925 
Q 909 2925 654 3178 
Q 400 3431 400 3794 
z
M 741 3794 
Q 741 3575 895 3420 
Q 1050 3266 1269 3266 
Q 1484 3266 1639 3420 
Q 1794 3575 1794 3794 
Q 1794 4013 1639 4167 
Q 1484 4322 1269 4322 
Q 1050 4322 895 4167 
Q 741 4013 741 3794 
z
" transform="scale(0.015625)"/>
      </defs>
      <use xlink:href="#ArialMT-61"/>
      <use xlink:href="#ArialMT-6e" x="55.615234"/>
      <use xlink:href="#ArialMT-67" x="111.230469"/>
      <use xlink:href="#ArialMT-6c" x="166.845703"/>
      <use xlink:href="#ArialMT-65" x="189.0625"/>
      <use xlink:href="#ArialMT-20" x="244.677734"/>
      <use xlink:href="#ArialMT-5b" x="272.460938"/>
      <use xlink:href="#ArialMT-b0" x="300.244141"/>
      <use xlink:href="#ArialMT-5d" x="340.234375"/>
     </g>
    </g>
   </g>
   <g id="line2d_22">
    <path d="M 73.832727 107.891224 
L 74.655637 100.884735 
L 75.479088 98.186806 
L 76.417856 97.459199 
L 77.230952 100.05723 
L 78.159726 96.757767 
L 78.996931 96.905499 
L 79.807452 100.269556 
L 80.734912 101.387939 
L 81.562793 109.625378 
L 82.3839 119.54238 
L 83.329777 125.389054 
L 85.06562 142.98423 
L 85.887242 145.77324 
L 86.722773 154.007928 
L 87.636762 159.848029 
L 88.50024 166.978928 
L 89.397719 171.556719 
L 90.2154 183.234473 
L 91.068755 191.407254 
L 91.965512 191.951146 
L 92.790611 191.911381 
L 93.613701 192.927499 
L 94.541136 192.35664 
L 95.365797 188.198129 
L 96.294855 185.515437 
L 97.946161 187.558737 
L 98.87442 188.971694 
L 99.699261 192.484904 
L 100.696242 193.694034 
L 101.465833 194.058454 
L 102.285163 193.773086 
L 103.209352 192.981698 
L 104.055418 192.590395 
L 104.843812 192.426598 
L 105.783534 189.965547 
L 106.603919 193.582974 
L 107.533002 194.261523 
L 108.365751 194.107395 
L 109.171841 195.058411 
L 110.104479 186.809606 
L 111.752334 162.001036 
L 112.684662 140.168081 
L 113.509349 137.88139 
L 114.449045 126.867517 
L 116.082964 118.222683 
L 117.008055 114.767784 
L 117.838795 113.265726 
L 118.757112 103.00927 
L 119.591638 99.589301 
L 120.406022 97.753264 
L 121.33016 97.662043 
L 122.155826 100.46934 
L 123.904702 105.471137 
L 124.728899 108.83187 
L 125.660636 119.992613 
L 126.479527 125.625298 
L 127.716777 127.767978 
L 128.232757 131.583615 
L 129.05971 144.091379 
L 129.90982 148.643779 
L 130.811652 152.665873 
L 132.617453 166.370261 
L 133.381815 166.989403 
L 134.2812 174.726958 
L 135.156295 175.342828 
L 136.88745 180.489835 
L 137.709896 179.751616 
L 138.53126 181.331872 
L 140.282532 186.606736 
L 141.104102 179.971956 
L 142.031331 179.118747 
L 142.860242 177.958127 
L 143.810704 178.792139 
L 144.615403 181.402087 
L 145.437927 180.231756 
L 146.384654 180.139734 
L 147.196333 179.899253 
L 148.147903 183.022509 
L 148.960845 184.376869 
L 149.768789 185.035832 
L 150.686693 184.170726 
L 151.535928 184.891146 
L 152.335475 183.687282 
L 153.261313 184.416535 
L 154.088163 188.731918 
L 155.012121 200.642265 
L 155.873925 203.496249 
L 156.671437 204.228508 
L 158.416759 174.964443 
L 159.343447 153.332363 
L 160.988829 138.612453 
L 161.922085 126.64772 
L 162.741002 125.953217 
L 163.564272 125.862639 
L 164.49284 122.094061 
L 165.316471 125.214725 
L 166.243494 117.830253 
L 167.070911 106.868251 
L 167.892095 99.2015 
L 168.818989 95.759454 
L 169.646484 97.947859 
L 170.467255 97.459788 
L 171.393686 94.286006 
L 172.223962 96.216033 
L 173.177953 102.793316 
L 173.973663 111.563001 
L 174.795516 123.998672 
L 175.751001 124.927228 
L 177.374901 140.484778 
L 178.354341 145.320222 
L 179.122721 156.687296 
L 180.088458 162.844901 
L 181.698963 183.344705 
L 182.658441 200.580197 
L 183.459946 210.569403 
L 184.377206 212.710946 
L 185.240401 209.094288 
L 186.067252 213.672575 
L 186.998215 215.778537 
L 187.806881 214.513272 
L 188.613975 217.562615 
L 189.530334 218.19213 
L 190.383561 216.571029 
L 191.287968 217.559381 
L 192.105314 216.215329 
L 192.954085 214.072079 
L 193.881983 213.448195 
L 194.680784 213.286708 
L 195.713439 211.447365 
L 196.535267 211.316153 
L 197.286158 212.550158 
L 198.208853 213.029393 
L 199.022027 213.743556 
L 199.914766 217.894197 
L 200.758565 228.620191 
L 201.586858 242.301637 
L 202.541854 249.089951 
L 203.362265 251.987662 
L 204.161632 258.62787 
L 205.09427 263.147035 
L 205.911333 267.979632 
L 206.839437 271.33039 
L 207.663815 271.687248 
L 208.513925 268.488218 
L 209.413516 249.046652 
L 210.241113 220.362985 
L 211.08754 199.728403 
L 211.992617 172.961121 
L 212.839095 154.715708 
L 213.846482 145.695014 
L 214.62702 141.719593 
L 215.389785 121.099855 
L 216.318122 120.08305 
L 217.141469 115.696384 
L 217.970844 112.556287 
L 219.721008 109.631936 
L 220.646795 110.290953 
L 221.467721 109.151303 
L 222.292047 108.54261 
L 223.22502 108.807313 
L 224.870221 109.929049 
L 226.620926 112.875132 
L 227.564717 115.886244 
L 228.40097 119.556005 
L 229.218882 125.506245 
L 230.14915 127.692477 
L 230.95063 131.255475 
L 231.880846 130.340338 
L 233.52731 147.063939 
L 234.475686 151.190582 
L 235.275053 155.856294 
L 236.129104 158.851737 
L 237.032712 162.879382 
L 237.849028 168.933955 
L 238.809124 172.433103 
L 239.609856 173.102088 
L 240.428361 174.802082 
L 242.203098 182.069623 
L 243.11173 188.149514 
L 243.933996 194.845203 
L 244.779624 198.4936 
L 245.707883 201.00152 
L 248.361347 201.645552 
L 249.091786 202.920922 
L 250.07017 203.629544 
L 250.832626 208.122126 
L 252.586808 220.206868 
L 253.408121 222.284392 
L 254.359098 226.59316 
L 255.164519 231.534465 
L 255.984157 234.240322 
L 256.937478 229.986978 
L 257.778032 215.095288 
L 258.564623 188.21111 
L 259.543059 160.129943 
L 260.364603 142.88815 
L 262.945688 113.971579 
L 264.396109 112.580148 
L 264.715686 103.583099 
L 266.418327 91.619104 
L 267.217024 93.256316 
L 268.209549 89.629984 
L 268.997892 89.171701 
L 269.824072 88.513356 
L 270.755371 88.995887 
L 271.81278 94.200312 
L 272.437921 91.775967 
L 273.306757 95.511022 
L 275.151581 119.128219 
L 275.879779 124.819968 
L 276.717628 136.14025 
L 277.728209 140.587512 
L 279.581302 155.087771 
L 280.302236 162.188306 
L 281.031362 161.66557 
L 281.958719 155.254604 
L 282.779723 152.142408 
L 283.807175 156.961953 
L 284.534266 162.307863 
L 285.35563 164.435213 
L 286.287186 169.106604 
L 287.120116 169.274722 
L 288.956182 173.352291 
L 289.686622 175.784139 
L 290.642802 177.159475 
L 291.440778 177.895787 
L 292.26307 179.02421 
L 294.013466 182.5803 
L 294.841501 184.026686 
L 295.774963 184.873823 
L 296.59674 185.288571 
L 298.368953 185.834823 
L 299.185294 184.826145 
L 300.097532 184.588083 
L 300.949651 183.506523 
L 301.740981 183.521829 
L 302.669086 191.540347 
L 303.490888 194.143359 
L 304.416237 198.727711 
L 306.066744 198.47828 
L 306.994848 186.370334 
L 307.817475 161.879366 
L 308.759282 156.134193 
L 309.569184 139.830644 
L 310.422128 125.906737 
L 311.334906 121.31584 
L 312.144757 108.695331 
L 312.964163 98.290389 
L 313.897523 90.440995 
L 314.715925 93.05422 
L 315.67329 89.738915 
L 316.483398 83.472615 
L 317.29464 73.301292 
L 318.220529 81.197942 
L 319.057193 80.922967 
L 319.86931 87.149676 
L 320.818588 89.773854 
L 323.397328 129.395293 
L 324.207617 138.632311 
L 325.144685 150.990778 
L 325.99106 164.211637 
L 326.88689 168.171143 
L 327.716291 173.321425 
L 328.534847 180.323513 
L 329.481626 189.581137 
L 330.311748 196.391237 
L 331.146507 200.487436 
L 332.064282 205.899384 
L 332.863752 207.49117 
L 334.661568 213.507023 
L 335.460832 212.26921 
L 336.358981 213.280794 
L 337.199148 209.587898 
L 338.135727 209.439576 
L 338.937129 210.875682 
L 339.766426 206.598465 
L 340.693732 205.100723 
L 341.511413 203.553056 
L 342.338084 195.801066 
L 345.014369 191.877825 
L 345.844027 191.280247 
L 346.663898 190.976266 
L 347.591049 192.090056 
L 348.41996 193.879925 
L 349.241531 195.219598 
L 350.166184 201.280149 
L 350.995971 218.282873 
L 351.916811 224.941651 
L 352.744409 216.925831 
L 353.570332 201.521414 
L 354.49277 177.553152 
L 355.341026 151.78984 
L 356.245897 131.173696 
L 357.070403 118.94001 
L 359.646594 90.163632 
L 360.468988 87.778898 
L 361.401163 77.015774 
L 363.160316 59.980441 
L 364.007644 54.384466 
L 364.796142 53.568 
L 365.723242 55.065737 
L 366.549423 55.921007 
L 367.375217 64.265539 
L 368.299535 77.036092 
L 369.126721 81.691339 
L 370.051786 94.369718 
L 371.699254 121.363372 
L 372.639052 131.427958 
L 373.451685 142.225219 
L 376.026536 188.885321 
L 376.955336 190.978192 
L 377.78229 192.212304 
L 378.604323 195.52887 
L 379.531964 194.030638 
L 380.356703 198.48434 
L 381.285348 201.240784 
L 382.105116 202.105076 
L 382.936139 204.010153 
L 383.858474 210.337783 
L 384.681306 212.980507 
L 385.639444 214.657802 
L 386.435102 212.769051 
L 387.257188 211.881063 
L 389.011937 209.252837 
L 389.835748 209.107597 
L 390.760968 209.508559 
L 391.611284 209.681228 
L 393.343417 211.514517 
L 394.163288 211.45952 
L 395.114883 209.873483 
L 395.913169 208.044988 
L 396.739118 206.921233 
L 397.672502 203.615665 
L 398.487273 196.986635 
L 398.487273 196.986635 
" clip-path="url(#p6866733f08)" style="fill: none; stroke: #1f77b4; stroke-width: 1.5; stroke-linecap: round"/>
   </g>
   <g id="line2d_23">
    <path d="M 73.832727 114.759087 
L 74.655637 105.745605 
L 75.479088 101.455472 
L 76.417856 100.854324 
L 77.230952 103.608861 
L 78.159726 101.195204 
L 78.996931 101.466443 
L 79.807452 105.187585 
L 80.734912 106.989796 
L 81.562793 116.839381 
L 82.3839 128.946309 
L 83.329777 136.838954 
L 85.06562 159.476543 
L 85.887242 163.755962 
L 86.722773 174.702852 
L 87.636762 180.660803 
L 88.50024 189.924274 
L 89.397719 195.28752 
L 90.2154 208.250338 
L 91.068755 218.481923 
L 91.965512 218.399146 
L 92.790611 217.433245 
L 93.613701 217.446346 
L 94.541136 218.78898 
L 95.365797 214.949915 
L 96.294855 211.483292 
L 97.119362 211.636407 
L 97.946161 212.041617 
L 98.87442 213.36054 
L 99.699261 216.232589 
L 100.696242 216.508364 
L 103.209352 215.294644 
L 104.055418 214.727435 
L 104.843812 214.500606 
L 105.783534 211.902186 
L 106.603919 215.788802 
L 107.533002 216.462146 
L 108.365751 216.085472 
L 109.171841 218.21172 
L 110.104479 210.088338 
L 111.752334 184.685794 
L 112.684662 161.80533 
L 113.509349 156.499862 
L 114.449045 142.922734 
L 116.082964 130.501569 
L 117.008055 125.224246 
L 117.838795 122.336025 
L 118.757112 110.825357 
L 119.591638 105.601728 
L 120.406022 103.383126 
L 121.33016 103.148971 
L 122.979096 108.608789 
L 123.904702 111.328815 
L 124.728899 115.127174 
L 125.660636 127.607578 
L 126.479527 134.827746 
L 127.716777 137.650707 
L 128.232757 142.959685 
L 129.05971 157.895131 
L 129.90982 164.545474 
L 130.811652 170.471147 
L 132.617453 188.457783 
L 133.381815 189.429387 
L 134.2812 197.916926 
L 135.156295 199.359444 
L 135.961148 202.896002 
L 136.88745 206.381265 
L 138.53126 206.987464 
L 139.456377 212.074548 
L 140.282532 214.390255 
L 141.104102 206.07418 
L 142.031331 205.047465 
L 142.860242 202.874926 
L 143.810704 203.251058 
L 144.615403 205.070107 
L 145.437927 202.50099 
L 147.196333 200.838241 
L 148.147903 203.494013 
L 148.960845 204.08361 
L 149.768789 204.326397 
L 150.686693 202.641145 
L 151.535928 202.561423 
L 152.335475 200.648495 
L 153.261313 200.959492 
L 154.088163 205.671727 
L 155.012121 219.015633 
L 155.873925 222.439971 
L 156.671437 224.668577 
L 157.597816 210.524257 
L 158.416759 195.974298 
L 159.343447 174.461213 
L 160.988829 156.704036 
L 161.922085 142.098812 
L 162.741002 140.038512 
L 163.564272 138.792111 
L 164.49284 134.803399 
L 165.316471 136.392119 
L 166.243494 127.160188 
L 167.070911 114.515929 
L 167.892095 105.658401 
L 168.818989 101.064978 
L 169.646484 101.867583 
L 170.467255 101.22756 
L 171.393686 99.166405 
L 172.223962 101.626408 
L 173.177953 109.932027 
L 173.973663 120.116693 
L 174.795516 135.300325 
L 175.751001 137.380969 
L 177.374901 156.439683 
L 178.354341 163.375636 
L 179.122721 177.706307 
L 180.088458 185.556703 
L 181.698963 208.183826 
L 182.658441 228.399648 
L 183.459946 241.557073 
L 184.377206 244.459256 
L 185.240401 238.425304 
L 186.067252 242.731099 
L 186.998215 244.193003 
L 187.806881 241.801433 
L 188.613975 245.598761 
L 189.530334 247.303941 
L 190.383561 244.989724 
L 191.287968 245.029887 
L 192.954085 240.490464 
L 194.680784 239.117245 
L 195.713439 236.885824 
L 196.535267 236.865335 
L 197.286158 238.099034 
L 198.208853 238.202327 
L 199.022027 238.443545 
L 199.914766 243.189202 
L 200.758565 254.010991 
L 201.586858 267.632824 
L 202.541854 274.242243 
L 203.362265 276.704249 
L 204.161632 282.691546 
L 205.09427 287.443196 
L 205.911333 292.206192 
L 206.839437 295.223947 
L 207.663815 295.488 
L 208.513925 292.840161 
L 209.413516 273.894077 
L 210.241113 245.399292 
L 211.08754 224.706077 
L 211.992617 197.902434 
L 212.839095 177.55597 
L 213.846482 167.07378 
L 214.62702 161.74255 
L 215.389785 136.996495 
L 216.318122 133.566773 
L 217.970844 122.660215 
L 218.89238 120.851103 
L 219.721008 118.910943 
L 220.646795 118.867795 
L 221.467721 116.959345 
L 222.292047 116.151284 
L 223.22502 116.075233 
L 224.04453 116.546309 
L 224.870221 117.335036 
L 225.799356 119.65991 
L 226.620926 122.190871 
L 227.564717 127.201874 
L 228.40097 133.173495 
L 229.218882 141.130518 
L 230.14915 145.417555 
L 230.95063 151.391611 
L 231.880846 151.50144 
L 233.52731 172.622152 
L 234.475686 177.168936 
L 235.275053 183.182371 
L 236.129104 184.629881 
L 237.032712 187.858312 
L 237.849028 193.212726 
L 238.809124 195.690685 
L 239.609856 196.734695 
L 240.428361 198.812509 
L 242.203098 201.574698 
L 243.11173 205.525304 
L 243.933996 209.699875 
L 244.779624 212.494873 
L 245.707883 214.338362 
L 246.518145 212.516968 
L 247.54127 212.041131 
L 248.361347 211.867748 
L 249.091786 212.895019 
L 250.07017 213.572904 
L 251.656077 225.729325 
L 252.586808 232.877196 
L 253.408121 235.649052 
L 254.359098 239.677708 
L 255.164519 244.626216 
L 255.984157 247.880335 
L 256.937478 244.499541 
L 257.778032 232.857899 
L 259.543059 180.575835 
L 260.364603 161.977615 
L 262.078938 139.616852 
L 262.945688 125.744572 
L 264.396109 123.694465 
L 264.715686 113.297896 
L 265.50274 104.234557 
L 266.418327 97.535827 
L 267.217024 97.366708 
L 268.209549 93.38122 
L 269.824072 92.007291 
L 270.755371 92.695961 
L 271.81278 98.525443 
L 272.437921 97.379059 
L 273.306757 102.535462 
L 275.151581 133.250146 
L 275.879779 140.852362 
L 276.717628 155.175575 
L 277.728209 161.822269 
L 279.581302 178.099765 
L 280.302236 187.577458 
L 281.031362 186.467728 
L 281.958719 179.093425 
L 282.779723 171.562996 
L 283.807175 173.542471 
L 284.534266 176.876197 
L 285.35563 176.608428 
L 286.287186 180.918146 
L 287.120116 181.107339 
L 289.686622 187.360214 
L 290.642802 188.009894 
L 291.440778 188.705572 
L 292.26307 189.769247 
L 293.216211 191.679952 
L 294.013466 192.808064 
L 294.841501 193.118415 
L 295.774963 193.177021 
L 297.514876 193.663331 
L 298.368953 193.757347 
L 299.185294 192.220759 
L 300.097532 191.908947 
L 300.949651 190.880795 
L 301.740981 191.047652 
L 302.669086 201.51523 
L 304.416237 210.291814 
L 305.240614 210.461406 
L 306.066744 212.478043 
L 306.994848 201.803629 
L 307.817475 180.564291 
L 308.759282 174.339117 
L 310.422128 142.61933 
L 311.334906 135.91238 
L 312.964163 107.766472 
L 313.897523 97.404116 
L 314.715925 98.068194 
L 315.67329 94.12977 
L 316.483398 86.593488 
L 317.29464 75.736915 
L 318.220529 83.872856 
L 319.057193 83.661913 
L 319.86931 90.502656 
L 320.818588 97.022274 
L 323.397328 147.360177 
L 325.144685 171.897949 
L 325.99106 186.514979 
L 326.88689 189.787021 
L 327.716291 194.33236 
L 328.534847 201.155523 
L 330.311748 217.231908 
L 331.146507 220.188658 
L 332.064282 225.779571 
L 332.863752 226.942724 
L 334.661568 232.363727 
L 335.460832 230.383841 
L 336.358981 231.43534 
L 337.199148 227.311915 
L 338.135727 227.34061 
L 338.937129 229.121562 
L 339.766426 224.063429 
L 340.693732 221.945285 
L 341.511413 220.592437 
L 342.338084 213.457128 
L 343.269253 212.349035 
L 345.014369 209.806255 
L 345.844027 209.228491 
L 346.663898 209.186658 
L 347.591049 210.322089 
L 348.41996 212.268075 
L 349.241531 214.598815 
L 350.166184 220.979478 
L 350.995971 238.634168 
L 351.916811 246.275231 
L 352.744409 239.804862 
L 353.570332 224.250012 
L 354.49277 199.423435 
L 355.341026 173.472041 
L 356.245897 151.901385 
L 357.894343 123.390975 
L 358.820258 108.898845 
L 359.646594 97.763029 
L 360.468988 92.460412 
L 361.401163 80.477615 
L 363.160316 61.104755 
L 364.007644 55.362071 
L 364.796142 54.445538 
L 365.723242 56.326077 
L 366.549423 57.140963 
L 367.375217 66.850448 
L 368.299535 81.623853 
L 369.126721 90.462743 
L 370.051786 106.757057 
L 371.699254 140.297776 
L 372.639052 152.282134 
L 373.451685 164.672137 
L 376.026536 217.544535 
L 376.955336 219.67756 
L 377.78229 219.545708 
L 378.604323 221.001608 
L 379.531964 218.294993 
L 380.356703 221.466163 
L 381.285348 222.575122 
L 382.105116 220.426251 
L 382.936139 218.8811 
L 383.858474 224.170323 
L 384.681306 225.858437 
L 385.639444 227.072542 
L 386.435102 224.67926 
L 388.186142 220.860676 
L 389.011937 218.865906 
L 389.835748 218.564395 
L 390.760968 219.025068 
L 391.611284 218.39791 
L 393.343417 219.278712 
L 394.163288 219.261105 
L 395.114883 217.852182 
L 395.913169 216.164049 
L 396.739118 215.564184 
L 397.672502 214.480148 
L 398.487273 211.330055 
L 398.487273 211.330055 
" clip-path="url(#p6866733f08)" style="fill: none; stroke: #ff7f0e; stroke-width: 1.5; stroke-linecap: round"/>
   </g>
   <g id="patch_3">
    <path d="M 57.6 307.584 
L 57.6 41.472 
" style="fill: none; stroke: #ffffff; stroke-width: 0.8; stroke-linejoin: miter; stroke-linecap: square"/>
   </g>
   <g id="patch_4">
    <path d="M 414.72 307.584 
L 414.72 41.472 
" style="fill: none; stroke: #ffffff; stroke-width: 0.8; stroke-linejoin: miter; stroke-linecap: square"/>
   </g>
   <g id="patch_5">
    <path d="M 57.6 307.584 
L 414.72 307.584 
" style="fill: none; stroke: #ffffff; stroke-width: 0.8; stroke-linejoin: miter; stroke-linecap: square"/>
   </g>
   <g id="patch_6">
    <path d="M 57.6 41.472 
L 414.72 41.472 
" style="fill: none; stroke: #ffffff; stroke-width: 0.8; stroke-linejoin: miter; stroke-linecap: square"/>
   </g>
   <g id="text_24">
    <!-- Angles in Thumb MCP joint to midhand -->
    <g style="fill: #262626" transform="translate(132.325312 35.472) scale(0.12 -0.12)">
     <defs>
      <path id="ArialMT-41" d="M -9 0 
L 1750 4581 
L 2403 4581 
L 4278 0 
L 3588 0 
L 3053 1388 
L 1138 1388 
L 634 0 
L -9 0 
z
M 1313 1881 
L 2866 1881 
L 2388 3150 
Q 2169 3728 2063 4100 
Q 1975 3659 1816 3225 
L 1313 1881 
z
" transform="scale(0.015625)"/>
      <path id="ArialMT-54" d="M 1659 0 
L 1659 4041 
L 150 4041 
L 150 4581 
L 3781 4581 
L 3781 4041 
L 2266 4041 
L 2266 0 
L 1659 0 
z
" transform="scale(0.015625)"/>
      <path id="ArialMT-68" d="M 422 0 
L 422 4581 
L 984 4581 
L 984 2938 
Q 1378 3394 1978 3394 
Q 2347 3394 2619 3248 
Q 2891 3103 3008 2847 
Q 3125 2591 3125 2103 
L 3125 0 
L 2563 0 
L 2563 2103 
Q 2563 2525 2380 2717 
Q 2197 2909 1863 2909 
Q 1613 2909 1392 2779 
Q 1172 2650 1078 2428 
Q 984 2206 984 1816 
L 984 0 
L 422 0 
z
" transform="scale(0.015625)"/>
      <path id="ArialMT-75" d="M 2597 0 
L 2597 488 
Q 2209 -75 1544 -75 
Q 1250 -75 995 37 
Q 741 150 617 320 
Q 494 491 444 738 
Q 409 903 409 1263 
L 409 3319 
L 972 3319 
L 972 1478 
Q 972 1038 1006 884 
Q 1059 663 1231 536 
Q 1403 409 1656 409 
Q 1909 409 2131 539 
Q 2353 669 2445 892 
Q 2538 1116 2538 1541 
L 2538 3319 
L 3100 3319 
L 3100 0 
L 2597 0 
z
" transform="scale(0.015625)"/>
      <path id="ArialMT-62" d="M 941 0 
L 419 0 
L 419 4581 
L 981 4581 
L 981 2947 
Q 1338 3394 1891 3394 
Q 2197 3394 2470 3270 
Q 2744 3147 2920 2923 
Q 3097 2700 3197 2384 
Q 3297 2069 3297 1709 
Q 3297 856 2875 390 
Q 2453 -75 1863 -75 
Q 1275 -75 941 416 
L 941 0 
z
M 934 1684 
Q 934 1088 1097 822 
Q 1363 388 1816 388 
Q 2184 388 2453 708 
Q 2722 1028 2722 1663 
Q 2722 2313 2464 2622 
Q 2206 2931 1841 2931 
Q 1472 2931 1203 2611 
Q 934 2291 934 1684 
z
" transform="scale(0.015625)"/>
      <path id="ArialMT-4d" d="M 475 0 
L 475 4581 
L 1388 4581 
L 2472 1338 
Q 2622 884 2691 659 
Q 2769 909 2934 1394 
L 4031 4581 
L 4847 4581 
L 4847 0 
L 4263 0 
L 4263 3834 
L 2931 0 
L 2384 0 
L 1059 3900 
L 1059 0 
L 475 0 
z
" transform="scale(0.015625)"/>
      <path id="ArialMT-43" d="M 3763 1606 
L 4369 1453 
Q 4178 706 3683 314 
Q 3188 -78 2472 -78 
Q 1731 -78 1267 223 
Q 803 525 561 1097 
Q 319 1669 319 2325 
Q 319 3041 592 3573 
Q 866 4106 1370 4382 
Q 1875 4659 2481 4659 
Q 3169 4659 3637 4309 
Q 4106 3959 4291 3325 
L 3694 3184 
Q 3534 3684 3231 3912 
Q 2928 4141 2469 4141 
Q 1941 4141 1586 3887 
Q 1231 3634 1087 3207 
Q 944 2781 944 2328 
Q 944 1744 1114 1308 
Q 1284 872 1643 656 
Q 2003 441 2422 441 
Q 2931 441 3284 734 
Q 3638 1028 3763 1606 
z
" transform="scale(0.015625)"/>
      <path id="ArialMT-50" d="M 494 0 
L 494 4581 
L 2222 4581 
Q 2678 4581 2919 4538 
Q 3256 4481 3484 4323 
Q 3713 4166 3852 3881 
Q 3991 3597 3991 3256 
Q 3991 2672 3619 2267 
Q 3247 1863 2275 1863 
L 1100 1863 
L 1100 0 
L 494 0 
z
M 1100 2403 
L 2284 2403 
Q 2872 2403 3119 2622 
Q 3366 2841 3366 3238 
Q 3366 3525 3220 3729 
Q 3075 3934 2838 4000 
Q 2684 4041 2272 4041 
L 1100 4041 
L 1100 2403 
z
" transform="scale(0.015625)"/>
      <path id="ArialMT-6a" d="M 419 3928 
L 419 4581 
L 981 4581 
L 981 3928 
L 419 3928 
z
M -294 -1288 
L -188 -809 
Q -19 -853 78 -853 
Q 250 -853 334 -739 
Q 419 -625 419 -169 
L 419 3319 
L 981 3319 
L 981 -181 
Q 981 -794 822 -1034 
Q 619 -1347 147 -1347 
Q -81 -1347 -294 -1288 
z
" transform="scale(0.015625)"/>
      <path id="ArialMT-6f" d="M 213 1659 
Q 213 2581 725 3025 
Q 1153 3394 1769 3394 
Q 2453 3394 2887 2945 
Q 3322 2497 3322 1706 
Q 3322 1066 3130 698 
Q 2938 331 2570 128 
Q 2203 -75 1769 -75 
Q 1072 -75 642 372 
Q 213 819 213 1659 
z
M 791 1659 
Q 791 1022 1069 705 
Q 1347 388 1769 388 
Q 2188 388 2466 706 
Q 2744 1025 2744 1678 
Q 2744 2294 2464 2611 
Q 2184 2928 1769 2928 
Q 1347 2928 1069 2612 
Q 791 2297 791 1659 
z
" transform="scale(0.015625)"/>
      <path id="ArialMT-64" d="M 2575 0 
L 2575 419 
Q 2259 -75 1647 -75 
Q 1250 -75 917 144 
Q 584 363 401 755 
Q 219 1147 219 1656 
Q 219 2153 384 2558 
Q 550 2963 881 3178 
Q 1213 3394 1622 3394 
Q 1922 3394 2156 3267 
Q 2391 3141 2538 2938 
L 2538 4581 
L 3097 4581 
L 3097 0 
L 2575 0 
z
M 797 1656 
Q 797 1019 1065 703 
Q 1334 388 1700 388 
Q 2069 388 2326 689 
Q 2584 991 2584 1609 
Q 2584 2291 2321 2609 
Q 2059 2928 1675 2928 
Q 1300 2928 1048 2622 
Q 797 2316 797 1656 
z
" transform="scale(0.015625)"/>
     </defs>
     <use xlink:href="#ArialMT-41"/>
     <use xlink:href="#ArialMT-6e" x="66.699219"/>
     <use xlink:href="#ArialMT-67" x="122.314453"/>
     <use xlink:href="#ArialMT-6c" x="177.929688"/>
     <use xlink:href="#ArialMT-65" x="200.146484"/>
     <use xlink:href="#ArialMT-73" x="255.761719"/>
     <use xlink:href="#ArialMT-20" x="305.761719"/>
     <use xlink:href="#ArialMT-69" x="333.544922"/>
     <use xlink:href="#ArialMT-6e" x="355.761719"/>
     <use xlink:href="#ArialMT-20" x="411.376953"/>
     <use xlink:href="#ArialMT-54" x="437.410156"/>
     <use xlink:href="#ArialMT-68" x="498.494141"/>
     <use xlink:href="#ArialMT-75" x="554.109375"/>
     <use xlink:href="#ArialMT-6d" x="609.724609"/>
     <use xlink:href="#ArialMT-62" x="693.025391"/>
     <use xlink:href="#ArialMT-20" x="748.640625"/>
     <use xlink:href="#ArialMT-4d" x="776.423828"/>
     <use xlink:href="#ArialMT-43" x="859.724609"/>
     <use xlink:href="#ArialMT-50" x="931.941406"/>
     <use xlink:href="#ArialMT-20" x="996.890625"/>
     <use xlink:href="#ArialMT-6a" x="1024.673828"/>
     <use xlink:href="#ArialMT-6f" x="1046.890625"/>
     <use xlink:href="#ArialMT-69" x="1102.505859"/>
     <use xlink:href="#ArialMT-6e" x="1124.722656"/>
     <use xlink:href="#ArialMT-74" x="1180.337891"/>
     <use xlink:href="#ArialMT-20" x="1208.121094"/>
     <use xlink:href="#ArialMT-74" x="1235.904297"/>
     <use xlink:href="#ArialMT-6f" x="1263.6875"/>
     <use xlink:href="#ArialMT-20" x="1319.302734"/>
     <use xlink:href="#ArialMT-6d" x="1347.085938"/>
     <use xlink:href="#ArialMT-69" x="1430.386719"/>
     <use xlink:href="#ArialMT-64" x="1452.603516"/>
     <use xlink:href="#ArialMT-68" x="1508.21875"/>
     <use xlink:href="#ArialMT-61" x="1563.833984"/>
     <use xlink:href="#ArialMT-6e" x="1619.449219"/>
     <use xlink:href="#ArialMT-64" x="1675.064453"/>
    </g>
   </g>
   <g id="legend_1">
    <g id="patch_7">
     <path d="M 281.780937 77.8845 
L 407.72 77.8845 
Q 409.72 77.8845 409.72 75.8845 
L 409.72 48.472 
Q 409.72 46.472 407.72 46.472 
L 281.780937 46.472 
Q 279.780937 46.472 279.780937 48.472 
L 279.780937 75.8845 
Q 279.780937 77.8845 281.780937 77.8845 
z
" style="fill: #eaeaf2; opacity: 0.8; stroke: #cccccc; stroke-linejoin: miter"/>
    </g>
    <g id="line2d_24">
     <path d="M 283.780937 54.129813 
L 293.780937 54.129813 
L 303.780937 54.129813 
" style="fill: none; stroke: #1f77b4; stroke-width: 1.5; stroke-linecap: round"/>
    </g>
    <g id="text_25">
     <!-- between vectors -->
     <g style="fill: #262626" transform="translate(311.780937 57.629813) scale(0.1 -0.1)">
      <defs>
       <path id="ArialMT-77" d="M 1034 0 
L 19 3319 
L 600 3319 
L 1128 1403 
L 1325 691 
Q 1338 744 1497 1375 
L 2025 3319 
L 2603 3319 
L 3100 1394 
L 3266 759 
L 3456 1400 
L 4025 3319 
L 4572 3319 
L 3534 0 
L 2950 0 
L 2422 1988 
L 2294 2553 
L 1622 0 
L 1034 0 
z
" transform="scale(0.015625)"/>
       <path id="ArialMT-76" d="M 1344 0 
L 81 3319 
L 675 3319 
L 1388 1331 
Q 1503 1009 1600 663 
Q 1675 925 1809 1294 
L 2547 3319 
L 3125 3319 
L 1869 0 
L 1344 0 
z
" transform="scale(0.015625)"/>
       <path id="ArialMT-72" d="M 416 0 
L 416 3319 
L 922 3319 
L 922 2816 
Q 1116 3169 1280 3281 
Q 1444 3394 1641 3394 
Q 1925 3394 2219 3213 
L 2025 2691 
Q 1819 2813 1613 2813 
Q 1428 2813 1281 2702 
Q 1134 2591 1072 2394 
Q 978 2094 978 1738 
L 978 0 
L 416 0 
z
" transform="scale(0.015625)"/>
      </defs>
      <use xlink:href="#ArialMT-62"/>
      <use xlink:href="#ArialMT-65" x="55.615234"/>
      <use xlink:href="#ArialMT-74" x="111.230469"/>
      <use xlink:href="#ArialMT-77" x="139.013672"/>
      <use xlink:href="#ArialMT-65" x="211.230469"/>
      <use xlink:href="#ArialMT-65" x="266.845703"/>
      <use xlink:href="#ArialMT-6e" x="322.460938"/>
      <use xlink:href="#ArialMT-20" x="378.076172"/>
      <use xlink:href="#ArialMT-76" x="405.859375"/>
      <use xlink:href="#ArialMT-65" x="455.859375"/>
      <use xlink:href="#ArialMT-63" x="511.474609"/>
      <use xlink:href="#ArialMT-74" x="561.474609"/>
      <use xlink:href="#ArialMT-6f" x="589.257812"/>
      <use xlink:href="#ArialMT-72" x="644.873047"/>
      <use xlink:href="#ArialMT-73" x="678.173828"/>
     </g>
    </g>
    <g id="line2d_25">
     <path d="M 283.780937 68.397 
L 293.780937 68.397 
L 303.780937 68.397 
" style="fill: none; stroke: #ff7f0e; stroke-width: 1.5; stroke-linecap: round"/>
    </g>
    <g id="text_26">
     <!-- around specified axis -->
     <g style="fill: #262626" transform="translate(311.780937 71.897) scale(0.1 -0.1)">
      <defs>
       <path id="ArialMT-70" d="M 422 -1272 
L 422 3319 
L 934 3319 
L 934 2888 
Q 1116 3141 1344 3267 
Q 1572 3394 1897 3394 
Q 2322 3394 2647 3175 
Q 2972 2956 3137 2557 
Q 3303 2159 3303 1684 
Q 3303 1175 3120 767 
Q 2938 359 2589 142 
Q 2241 -75 1856 -75 
Q 1575 -75 1351 44 
Q 1128 163 984 344 
L 984 -1272 
L 422 -1272 
z
M 931 1641 
Q 931 1000 1190 694 
Q 1450 388 1819 388 
Q 2194 388 2461 705 
Q 2728 1022 2728 1688 
Q 2728 2322 2467 2637 
Q 2206 2953 1844 2953 
Q 1484 2953 1207 2617 
Q 931 2281 931 1641 
z
" transform="scale(0.015625)"/>
       <path id="ArialMT-66" d="M 556 0 
L 556 2881 
L 59 2881 
L 59 3319 
L 556 3319 
L 556 3672 
Q 556 4006 616 4169 
Q 697 4388 901 4523 
Q 1106 4659 1475 4659 
Q 1713 4659 2000 4603 
L 1916 4113 
Q 1741 4144 1584 4144 
Q 1328 4144 1222 4034 
Q 1116 3925 1116 3625 
L 1116 3319 
L 1763 3319 
L 1763 2881 
L 1116 2881 
L 1116 0 
L 556 0 
z
" transform="scale(0.015625)"/>
       <path id="ArialMT-78" d="M 47 0 
L 1259 1725 
L 138 3319 
L 841 3319 
L 1350 2541 
Q 1494 2319 1581 2169 
Q 1719 2375 1834 2534 
L 2394 3319 
L 3066 3319 
L 1919 1756 
L 3153 0 
L 2463 0 
L 1781 1031 
L 1600 1309 
L 728 0 
L 47 0 
z
" transform="scale(0.015625)"/>
      </defs>
      <use xlink:href="#ArialMT-61"/>
      <use xlink:href="#ArialMT-72" x="55.615234"/>
      <use xlink:href="#ArialMT-6f" x="88.916016"/>
      <use xlink:href="#ArialMT-75" x="144.53125"/>
      <use xlink:href="#ArialMT-6e" x="200.146484"/>
      <use xlink:href="#ArialMT-64" x="255.761719"/>
      <use xlink:href="#ArialMT-20" x="311.376953"/>
      <use xlink:href="#ArialMT-73" x="339.160156"/>
      <use xlink:href="#ArialMT-70" x="389.160156"/>
      <use xlink:href="#ArialMT-65" x="444.775391"/>
      <use xlink:href="#ArialMT-63" x="500.390625"/>
      <use xlink:href="#ArialMT-69" x="550.390625"/>
      <use xlink:href="#ArialMT-66" x="572.607422"/>
      <use xlink:href="#ArialMT-69" x="600.390625"/>
      <use xlink:href="#ArialMT-65" x="622.607422"/>
      <use xlink:href="#ArialMT-64" x="678.222656"/>
      <use xlink:href="#ArialMT-20" x="733.837891"/>
      <use xlink:href="#ArialMT-61" x="761.621094"/>
      <use xlink:href="#ArialMT-78" x="817.236328"/>
      <use xlink:href="#ArialMT-69" x="867.236328"/>
      <use xlink:href="#ArialMT-73" x="889.453125"/>
     </g>
    </g>
   </g>
  </g>
 </g>
 <defs>
  <clipPath id="p6866733f08">
   <rect x="57.6" y="41.472" width="357.12" height="266.112"/>
  </clipPath>
 </defs>
</svg>
