<?xml version="1.0" encoding="utf-8" standalone="no"?>
<!DOCTYPE svg PUBLIC "-//W3C//DTD SVG 1.1//EN"
  "http://www.w3.org/Graphics/SVG/1.1/DTD/svg11.dtd">
<svg xmlns:xlink="http://www.w3.org/1999/xlink" width="460.8pt" height="345.6pt" viewBox="0 0 460.8 345.6" xmlns="http://www.w3.org/2000/svg" version="1.1">
 <metadata>
  <rdf:RDF xmlns:dc="http://purl.org/dc/elements/1.1/" xmlns:cc="http://creativecommons.org/ns#" xmlns:rdf="http://www.w3.org/1999/02/22-rdf-syntax-ns#">
   <cc:Work>
    <dc:type rdf:resource="http://purl.org/dc/dcmitype/StillImage"/>
    <dc:date>2023-08-07T09:57:08.950201</dc:date>
    <dc:format>image/svg+xml</dc:format>
    <dc:creator>
     <cc:Agent>
      <dc:title>Matplotlib v3.7.1, https://matplotlib.org/</dc:title>
     </cc:Agent>
    </dc:creator>
   </cc:Work>
  </rdf:RDF>
 </metadata>
 <defs>
  <style type="text/css">*{stroke-linejoin: round; stroke-linecap: butt}</style>
 </defs>
 <g id="figure_1">
  <g id="patch_1">
   <path d="M 0 345.6 
L 460.8 345.6 
L 460.8 0 
L 0 0 
z
" style="fill: #ffffff"/>
  </g>
  <g id="axes_1">
   <g id="patch_2">
    <path d="M 57.6 307.584 
L 414.72 307.584 
L 414.72 41.472 
L 57.6 41.472 
z
" style="fill: #ffffff"/>
   </g>
   <g id="matplotlib.axis_1">
    <g id="xtick_1">
     <g id="line2d_1">
      <path d="M 66.248584 307.584 
L 66.248584 41.472 
" clip-path="url(#p9539d38341)" style="fill: none; stroke: #b0b0b0; stroke-width: 0.8; stroke-linecap: square"/>
     </g>
     <g id="line2d_2">
      <defs>
       <path id="mc5ed76fb6f" d="M 0 0 
L 0 3.5 
" style="stroke: #000000; stroke-width: 0.8"/>
      </defs>
      <g>
       <use xlink:href="#mc5ed76fb6f" x="66.248584" y="307.584" style="stroke: #000000; stroke-width: 0.8"/>
      </g>
     </g>
     <g id="text_1">
      <!-- 47 -->
      <g transform="translate(59.886084 322.182437) scale(0.1 -0.1)">
       <defs>
        <path id="DejaVuSans-34" d="M 2419 4116 
L 825 1625 
L 2419 1625 
L 2419 4116 
z
M 2253 4666 
L 3047 4666 
L 3047 1625 
L 3713 1625 
L 3713 1100 
L 3047 1100 
L 3047 0 
L 2419 0 
L 2419 1100 
L 313 1100 
L 313 1709 
L 2253 4666 
z
" transform="scale(0.015625)"/>
        <path id="DejaVuSans-37" d="M 525 4666 
L 3525 4666 
L 3525 4397 
L 1831 0 
L 1172 0 
L 2766 4134 
L 525 4134 
L 525 4666 
z
" transform="scale(0.015625)"/>
       </defs>
       <use xlink:href="#DejaVuSans-34"/>
       <use xlink:href="#DejaVuSans-37" x="63.623047"/>
      </g>
     </g>
    </g>
    <g id="xtick_2">
     <g id="line2d_3">
      <path d="M 91.806192 307.584 
L 91.806192 41.472 
" clip-path="url(#p9539d38341)" style="fill: none; stroke: #b0b0b0; stroke-width: 0.8; stroke-linecap: square"/>
     </g>
     <g id="line2d_4">
      <g>
       <use xlink:href="#mc5ed76fb6f" x="91.806192" y="307.584" style="stroke: #000000; stroke-width: 0.8"/>
      </g>
     </g>
     <g id="text_2">
      <!-- 48 -->
      <g transform="translate(85.443692 322.182437) scale(0.1 -0.1)">
       <defs>
        <path id="DejaVuSans-38" d="M 2034 2216 
Q 1584 2216 1326 1975 
Q 1069 1734 1069 1313 
Q 1069 891 1326 650 
Q 1584 409 2034 409 
Q 2484 409 2743 651 
Q 3003 894 3003 1313 
Q 3003 1734 2745 1975 
Q 2488 2216 2034 2216 
z
M 1403 2484 
Q 997 2584 770 2862 
Q 544 3141 544 3541 
Q 544 4100 942 4425 
Q 1341 4750 2034 4750 
Q 2731 4750 3128 4425 
Q 3525 4100 3525 3541 
Q 3525 3141 3298 2862 
Q 3072 2584 2669 2484 
Q 3125 2378 3379 2068 
Q 3634 1759 3634 1313 
Q 3634 634 3220 271 
Q 2806 -91 2034 -91 
Q 1263 -91 848 271 
Q 434 634 434 1313 
Q 434 1759 690 2068 
Q 947 2378 1403 2484 
z
M 1172 3481 
Q 1172 3119 1398 2916 
Q 1625 2713 2034 2713 
Q 2441 2713 2670 2916 
Q 2900 3119 2900 3481 
Q 2900 3844 2670 4047 
Q 2441 4250 2034 4250 
Q 1625 4250 1398 4047 
Q 1172 3844 1172 3481 
z
" transform="scale(0.015625)"/>
       </defs>
       <use xlink:href="#DejaVuSans-34"/>
       <use xlink:href="#DejaVuSans-38" x="63.623047"/>
      </g>
     </g>
    </g>
    <g id="xtick_3">
     <g id="line2d_5">
      <path d="M 117.363801 307.584 
L 117.363801 41.472 
" clip-path="url(#p9539d38341)" style="fill: none; stroke: #b0b0b0; stroke-width: 0.8; stroke-linecap: square"/>
     </g>
     <g id="line2d_6">
      <g>
       <use xlink:href="#mc5ed76fb6f" x="117.363801" y="307.584" style="stroke: #000000; stroke-width: 0.8"/>
      </g>
     </g>
     <g id="text_3">
      <!-- 49 -->
      <g transform="translate(111.001301 322.182437) scale(0.1 -0.1)">
       <defs>
        <path id="DejaVuSans-39" d="M 703 97 
L 703 672 
Q 941 559 1184 500 
Q 1428 441 1663 441 
Q 2288 441 2617 861 
Q 2947 1281 2994 2138 
Q 2813 1869 2534 1725 
Q 2256 1581 1919 1581 
Q 1219 1581 811 2004 
Q 403 2428 403 3163 
Q 403 3881 828 4315 
Q 1253 4750 1959 4750 
Q 2769 4750 3195 4129 
Q 3622 3509 3622 2328 
Q 3622 1225 3098 567 
Q 2575 -91 1691 -91 
Q 1453 -91 1209 -44 
Q 966 3 703 97 
z
M 1959 2075 
Q 2384 2075 2632 2365 
Q 2881 2656 2881 3163 
Q 2881 3666 2632 3958 
Q 2384 4250 1959 4250 
Q 1534 4250 1286 3958 
Q 1038 3666 1038 3163 
Q 1038 2656 1286 2365 
Q 1534 2075 1959 2075 
z
" transform="scale(0.015625)"/>
       </defs>
       <use xlink:href="#DejaVuSans-34"/>
       <use xlink:href="#DejaVuSans-39" x="63.623047"/>
      </g>
     </g>
    </g>
    <g id="xtick_4">
     <g id="line2d_7">
      <path d="M 142.921409 307.584 
L 142.921409 41.472 
" clip-path="url(#p9539d38341)" style="fill: none; stroke: #b0b0b0; stroke-width: 0.8; stroke-linecap: square"/>
     </g>
     <g id="line2d_8">
      <g>
       <use xlink:href="#mc5ed76fb6f" x="142.921409" y="307.584" style="stroke: #000000; stroke-width: 0.8"/>
      </g>
     </g>
     <g id="text_4">
      <!-- 50 -->
      <g transform="translate(136.558909 322.182437) scale(0.1 -0.1)">
       <defs>
        <path id="DejaVuSans-35" d="M 691 4666 
L 3169 4666 
L 3169 4134 
L 1269 4134 
L 1269 2991 
Q 1406 3038 1543 3061 
Q 1681 3084 1819 3084 
Q 2600 3084 3056 2656 
Q 3513 2228 3513 1497 
Q 3513 744 3044 326 
Q 2575 -91 1722 -91 
Q 1428 -91 1123 -41 
Q 819 9 494 109 
L 494 744 
Q 775 591 1075 516 
Q 1375 441 1709 441 
Q 2250 441 2565 725 
Q 2881 1009 2881 1497 
Q 2881 1984 2565 2268 
Q 2250 2553 1709 2553 
Q 1456 2553 1204 2497 
Q 953 2441 691 2322 
L 691 4666 
z
" transform="scale(0.015625)"/>
        <path id="DejaVuSans-30" d="M 2034 4250 
Q 1547 4250 1301 3770 
Q 1056 3291 1056 2328 
Q 1056 1369 1301 889 
Q 1547 409 2034 409 
Q 2525 409 2770 889 
Q 3016 1369 3016 2328 
Q 3016 3291 2770 3770 
Q 2525 4250 2034 4250 
z
M 2034 4750 
Q 2819 4750 3233 4129 
Q 3647 3509 3647 2328 
Q 3647 1150 3233 529 
Q 2819 -91 2034 -91 
Q 1250 -91 836 529 
Q 422 1150 422 2328 
Q 422 3509 836 4129 
Q 1250 4750 2034 4750 
z
" transform="scale(0.015625)"/>
       </defs>
       <use xlink:href="#DejaVuSans-35"/>
       <use xlink:href="#DejaVuSans-30" x="63.623047"/>
      </g>
     </g>
    </g>
    <g id="xtick_5">
     <g id="line2d_9">
      <path d="M 168.479018 307.584 
L 168.479018 41.472 
" clip-path="url(#p9539d38341)" style="fill: none; stroke: #b0b0b0; stroke-width: 0.8; stroke-linecap: square"/>
     </g>
     <g id="line2d_10">
      <g>
       <use xlink:href="#mc5ed76fb6f" x="168.479018" y="307.584" style="stroke: #000000; stroke-width: 0.8"/>
      </g>
     </g>
     <g id="text_5">
      <!-- 51 -->
      <g transform="translate(162.116518 322.182437) scale(0.1 -0.1)">
       <defs>
        <path id="DejaVuSans-31" d="M 794 531 
L 1825 531 
L 1825 4091 
L 703 3866 
L 703 4441 
L 1819 4666 
L 2450 4666 
L 2450 531 
L 3481 531 
L 3481 0 
L 794 0 
L 794 531 
z
" transform="scale(0.015625)"/>
       </defs>
       <use xlink:href="#DejaVuSans-35"/>
       <use xlink:href="#DejaVuSans-31" x="63.623047"/>
      </g>
     </g>
    </g>
    <g id="xtick_6">
     <g id="line2d_11">
      <path d="M 194.036627 307.584 
L 194.036627 41.472 
" clip-path="url(#p9539d38341)" style="fill: none; stroke: #b0b0b0; stroke-width: 0.8; stroke-linecap: square"/>
     </g>
     <g id="line2d_12">
      <g>
       <use xlink:href="#mc5ed76fb6f" x="194.036627" y="307.584" style="stroke: #000000; stroke-width: 0.8"/>
      </g>
     </g>
     <g id="text_6">
      <!-- 52 -->
      <g transform="translate(187.674127 322.182437) scale(0.1 -0.1)">
       <defs>
        <path id="DejaVuSans-32" d="M 1228 531 
L 3431 531 
L 3431 0 
L 469 0 
L 469 531 
Q 828 903 1448 1529 
Q 2069 2156 2228 2338 
Q 2531 2678 2651 2914 
Q 2772 3150 2772 3378 
Q 2772 3750 2511 3984 
Q 2250 4219 1831 4219 
Q 1534 4219 1204 4116 
Q 875 4013 500 3803 
L 500 4441 
Q 881 4594 1212 4672 
Q 1544 4750 1819 4750 
Q 2544 4750 2975 4387 
Q 3406 4025 3406 3419 
Q 3406 3131 3298 2873 
Q 3191 2616 2906 2266 
Q 2828 2175 2409 1742 
Q 1991 1309 1228 531 
z
" transform="scale(0.015625)"/>
       </defs>
       <use xlink:href="#DejaVuSans-35"/>
       <use xlink:href="#DejaVuSans-32" x="63.623047"/>
      </g>
     </g>
    </g>
    <g id="xtick_7">
     <g id="line2d_13">
      <path d="M 219.594235 307.584 
L 219.594235 41.472 
" clip-path="url(#p9539d38341)" style="fill: none; stroke: #b0b0b0; stroke-width: 0.8; stroke-linecap: square"/>
     </g>
     <g id="line2d_14">
      <g>
       <use xlink:href="#mc5ed76fb6f" x="219.594235" y="307.584" style="stroke: #000000; stroke-width: 0.8"/>
      </g>
     </g>
     <g id="text_7">
      <!-- 53 -->
      <g transform="translate(213.231735 322.182437) scale(0.1 -0.1)">
       <defs>
        <path id="DejaVuSans-33" d="M 2597 2516 
Q 3050 2419 3304 2112 
Q 3559 1806 3559 1356 
Q 3559 666 3084 287 
Q 2609 -91 1734 -91 
Q 1441 -91 1130 -33 
Q 819 25 488 141 
L 488 750 
Q 750 597 1062 519 
Q 1375 441 1716 441 
Q 2309 441 2620 675 
Q 2931 909 2931 1356 
Q 2931 1769 2642 2001 
Q 2353 2234 1838 2234 
L 1294 2234 
L 1294 2753 
L 1863 2753 
Q 2328 2753 2575 2939 
Q 2822 3125 2822 3475 
Q 2822 3834 2567 4026 
Q 2313 4219 1838 4219 
Q 1578 4219 1281 4162 
Q 984 4106 628 3988 
L 628 4550 
Q 988 4650 1302 4700 
Q 1616 4750 1894 4750 
Q 2613 4750 3031 4423 
Q 3450 4097 3450 3541 
Q 3450 3153 3228 2886 
Q 3006 2619 2597 2516 
z
" transform="scale(0.015625)"/>
       </defs>
       <use xlink:href="#DejaVuSans-35"/>
       <use xlink:href="#DejaVuSans-33" x="63.623047"/>
      </g>
     </g>
    </g>
    <g id="xtick_8">
     <g id="line2d_15">
      <path d="M 245.151844 307.584 
L 245.151844 41.472 
" clip-path="url(#p9539d38341)" style="fill: none; stroke: #b0b0b0; stroke-width: 0.8; stroke-linecap: square"/>
     </g>
     <g id="line2d_16">
      <g>
       <use xlink:href="#mc5ed76fb6f" x="245.151844" y="307.584" style="stroke: #000000; stroke-width: 0.8"/>
      </g>
     </g>
     <g id="text_8">
      <!-- 54 -->
      <g transform="translate(238.789344 322.182437) scale(0.1 -0.1)">
       <use xlink:href="#DejaVuSans-35"/>
       <use xlink:href="#DejaVuSans-34" x="63.623047"/>
      </g>
     </g>
    </g>
    <g id="xtick_9">
     <g id="line2d_17">
      <path d="M 270.709453 307.584 
L 270.709453 41.472 
" clip-path="url(#p9539d38341)" style="fill: none; stroke: #b0b0b0; stroke-width: 0.8; stroke-linecap: square"/>
     </g>
     <g id="line2d_18">
      <g>
       <use xlink:href="#mc5ed76fb6f" x="270.709453" y="307.584" style="stroke: #000000; stroke-width: 0.8"/>
      </g>
     </g>
     <g id="text_9">
      <!-- 55 -->
      <g transform="translate(264.346953 322.182437) scale(0.1 -0.1)">
       <use xlink:href="#DejaVuSans-35"/>
       <use xlink:href="#DejaVuSans-35" x="63.623047"/>
      </g>
     </g>
    </g>
    <g id="xtick_10">
     <g id="line2d_19">
      <path d="M 296.267061 307.584 
L 296.267061 41.472 
" clip-path="url(#p9539d38341)" style="fill: none; stroke: #b0b0b0; stroke-width: 0.8; stroke-linecap: square"/>
     </g>
     <g id="line2d_20">
      <g>
       <use xlink:href="#mc5ed76fb6f" x="296.267061" y="307.584" style="stroke: #000000; stroke-width: 0.8"/>
      </g>
     </g>
     <g id="text_10">
      <!-- 56 -->
      <g transform="translate(289.904561 322.182437) scale(0.1 -0.1)">
       <defs>
        <path id="DejaVuSans-36" d="M 2113 2584 
Q 1688 2584 1439 2293 
Q 1191 2003 1191 1497 
Q 1191 994 1439 701 
Q 1688 409 2113 409 
Q 2538 409 2786 701 
Q 3034 994 3034 1497 
Q 3034 2003 2786 2293 
Q 2538 2584 2113 2584 
z
M 3366 4563 
L 3366 3988 
Q 3128 4100 2886 4159 
Q 2644 4219 2406 4219 
Q 1781 4219 1451 3797 
Q 1122 3375 1075 2522 
Q 1259 2794 1537 2939 
Q 1816 3084 2150 3084 
Q 2853 3084 3261 2657 
Q 3669 2231 3669 1497 
Q 3669 778 3244 343 
Q 2819 -91 2113 -91 
Q 1303 -91 875 529 
Q 447 1150 447 2328 
Q 447 3434 972 4092 
Q 1497 4750 2381 4750 
Q 2619 4750 2861 4703 
Q 3103 4656 3366 4563 
z
" transform="scale(0.015625)"/>
       </defs>
       <use xlink:href="#DejaVuSans-35"/>
       <use xlink:href="#DejaVuSans-36" x="63.623047"/>
      </g>
     </g>
    </g>
    <g id="xtick_11">
     <g id="line2d_21">
      <path d="M 321.82467 307.584 
L 321.82467 41.472 
" clip-path="url(#p9539d38341)" style="fill: none; stroke: #b0b0b0; stroke-width: 0.8; stroke-linecap: square"/>
     </g>
     <g id="line2d_22">
      <g>
       <use xlink:href="#mc5ed76fb6f" x="321.82467" y="307.584" style="stroke: #000000; stroke-width: 0.8"/>
      </g>
     </g>
     <g id="text_11">
      <!-- 57 -->
      <g transform="translate(315.46217 322.182437) scale(0.1 -0.1)">
       <use xlink:href="#DejaVuSans-35"/>
       <use xlink:href="#DejaVuSans-37" x="63.623047"/>
      </g>
     </g>
    </g>
    <g id="xtick_12">
     <g id="line2d_23">
      <path d="M 347.382279 307.584 
L 347.382279 41.472 
" clip-path="url(#p9539d38341)" style="fill: none; stroke: #b0b0b0; stroke-width: 0.8; stroke-linecap: square"/>
     </g>
     <g id="line2d_24">
      <g>
       <use xlink:href="#mc5ed76fb6f" x="347.382279" y="307.584" style="stroke: #000000; stroke-width: 0.8"/>
      </g>
     </g>
     <g id="text_12">
      <!-- 58 -->
      <g transform="translate(341.019779 322.182437) scale(0.1 -0.1)">
       <use xlink:href="#DejaVuSans-35"/>
       <use xlink:href="#DejaVuSans-38" x="63.623047"/>
      </g>
     </g>
    </g>
    <g id="xtick_13">
     <g id="line2d_25">
      <path d="M 372.939887 307.584 
L 372.939887 41.472 
" clip-path="url(#p9539d38341)" style="fill: none; stroke: #b0b0b0; stroke-width: 0.8; stroke-linecap: square"/>
     </g>
     <g id="line2d_26">
      <g>
       <use xlink:href="#mc5ed76fb6f" x="372.939887" y="307.584" style="stroke: #000000; stroke-width: 0.8"/>
      </g>
     </g>
     <g id="text_13">
      <!-- 59 -->
      <g transform="translate(366.577387 322.182437) scale(0.1 -0.1)">
       <use xlink:href="#DejaVuSans-35"/>
       <use xlink:href="#DejaVuSans-39" x="63.623047"/>
      </g>
     </g>
    </g>
    <g id="text_14">
     <!-- time [sec] -->
     <g transform="translate(210.942813 335.860562) scale(0.1 -0.1)">
      <defs>
       <path id="DejaVuSans-74" d="M 1172 4494 
L 1172 3500 
L 2356 3500 
L 2356 3053 
L 1172 3053 
L 1172 1153 
Q 1172 725 1289 603 
Q 1406 481 1766 481 
L 2356 481 
L 2356 0 
L 1766 0 
Q 1100 0 847 248 
Q 594 497 594 1153 
L 594 3053 
L 172 3053 
L 172 3500 
L 594 3500 
L 594 4494 
L 1172 4494 
z
" transform="scale(0.015625)"/>
       <path id="DejaVuSans-69" d="M 603 3500 
L 1178 3500 
L 1178 0 
L 603 0 
L 603 3500 
z
M 603 4863 
L 1178 4863 
L 1178 4134 
L 603 4134 
L 603 4863 
z
" transform="scale(0.015625)"/>
       <path id="DejaVuSans-6d" d="M 3328 2828 
Q 3544 3216 3844 3400 
Q 4144 3584 4550 3584 
Q 5097 3584 5394 3201 
Q 5691 2819 5691 2113 
L 5691 0 
L 5113 0 
L 5113 2094 
Q 5113 2597 4934 2840 
Q 4756 3084 4391 3084 
Q 3944 3084 3684 2787 
Q 3425 2491 3425 1978 
L 3425 0 
L 2847 0 
L 2847 2094 
Q 2847 2600 2669 2842 
Q 2491 3084 2119 3084 
Q 1678 3084 1418 2786 
Q 1159 2488 1159 1978 
L 1159 0 
L 581 0 
L 581 3500 
L 1159 3500 
L 1159 2956 
Q 1356 3278 1631 3431 
Q 1906 3584 2284 3584 
Q 2666 3584 2933 3390 
Q 3200 3197 3328 2828 
z
" transform="scale(0.015625)"/>
       <path id="DejaVuSans-65" d="M 3597 1894 
L 3597 1613 
L 953 1613 
Q 991 1019 1311 708 
Q 1631 397 2203 397 
Q 2534 397 2845 478 
Q 3156 559 3463 722 
L 3463 178 
Q 3153 47 2828 -22 
Q 2503 -91 2169 -91 
Q 1331 -91 842 396 
Q 353 884 353 1716 
Q 353 2575 817 3079 
Q 1281 3584 2069 3584 
Q 2775 3584 3186 3129 
Q 3597 2675 3597 1894 
z
M 3022 2063 
Q 3016 2534 2758 2815 
Q 2500 3097 2075 3097 
Q 1594 3097 1305 2825 
Q 1016 2553 972 2059 
L 3022 2063 
z
" transform="scale(0.015625)"/>
       <path id="DejaVuSans-20" transform="scale(0.015625)"/>
       <path id="DejaVuSans-5b" d="M 550 4863 
L 1875 4863 
L 1875 4416 
L 1125 4416 
L 1125 -397 
L 1875 -397 
L 1875 -844 
L 550 -844 
L 550 4863 
z
" transform="scale(0.015625)"/>
       <path id="DejaVuSans-73" d="M 2834 3397 
L 2834 2853 
Q 2591 2978 2328 3040 
Q 2066 3103 1784 3103 
Q 1356 3103 1142 2972 
Q 928 2841 928 2578 
Q 928 2378 1081 2264 
Q 1234 2150 1697 2047 
L 1894 2003 
Q 2506 1872 2764 1633 
Q 3022 1394 3022 966 
Q 3022 478 2636 193 
Q 2250 -91 1575 -91 
Q 1294 -91 989 -36 
Q 684 19 347 128 
L 347 722 
Q 666 556 975 473 
Q 1284 391 1588 391 
Q 1994 391 2212 530 
Q 2431 669 2431 922 
Q 2431 1156 2273 1281 
Q 2116 1406 1581 1522 
L 1381 1569 
Q 847 1681 609 1914 
Q 372 2147 372 2553 
Q 372 3047 722 3315 
Q 1072 3584 1716 3584 
Q 2034 3584 2315 3537 
Q 2597 3491 2834 3397 
z
" transform="scale(0.015625)"/>
       <path id="DejaVuSans-63" d="M 3122 3366 
L 3122 2828 
Q 2878 2963 2633 3030 
Q 2388 3097 2138 3097 
Q 1578 3097 1268 2742 
Q 959 2388 959 1747 
Q 959 1106 1268 751 
Q 1578 397 2138 397 
Q 2388 397 2633 464 
Q 2878 531 3122 666 
L 3122 134 
Q 2881 22 2623 -34 
Q 2366 -91 2075 -91 
Q 1284 -91 818 406 
Q 353 903 353 1747 
Q 353 2603 823 3093 
Q 1294 3584 2113 3584 
Q 2378 3584 2631 3529 
Q 2884 3475 3122 3366 
z
" transform="scale(0.015625)"/>
       <path id="DejaVuSans-5d" d="M 1947 4863 
L 1947 -844 
L 622 -844 
L 622 -397 
L 1369 -397 
L 1369 4416 
L 622 4416 
L 622 4863 
L 1947 4863 
z
" transform="scale(0.015625)"/>
      </defs>
      <use xlink:href="#DejaVuSans-74"/>
      <use xlink:href="#DejaVuSans-69" x="39.208984"/>
      <use xlink:href="#DejaVuSans-6d" x="66.992188"/>
      <use xlink:href="#DejaVuSans-65" x="164.404297"/>
      <use xlink:href="#DejaVuSans-20" x="225.927734"/>
      <use xlink:href="#DejaVuSans-5b" x="257.714844"/>
      <use xlink:href="#DejaVuSans-73" x="296.728516"/>
      <use xlink:href="#DejaVuSans-65" x="348.828125"/>
      <use xlink:href="#DejaVuSans-63" x="410.351562"/>
      <use xlink:href="#DejaVuSans-5d" x="465.332031"/>
     </g>
    </g>
   </g>
   <g id="matplotlib.axis_2">
    <g id="ytick_1">
     <g id="line2d_27">
      <path d="M 57.6 295.736135 
L 414.72 295.736135 
" clip-path="url(#p9539d38341)" style="fill: none; stroke: #b0b0b0; stroke-width: 0.8; stroke-linecap: square"/>
     </g>
     <g id="line2d_28">
      <defs>
       <path id="mfada45f62b" d="M 0 0 
L -3.5 0 
" style="stroke: #000000; stroke-width: 0.8"/>
      </defs>
      <g>
       <use xlink:href="#mfada45f62b" x="57.6" y="295.736135" style="stroke: #000000; stroke-width: 0.8"/>
      </g>
     </g>
     <g id="text_15">
      <!-- −2.0 -->
      <g transform="translate(26.317187 299.535353) scale(0.1 -0.1)">
       <defs>
        <path id="DejaVuSans-2212" d="M 678 2272 
L 4684 2272 
L 4684 1741 
L 678 1741 
L 678 2272 
z
" transform="scale(0.015625)"/>
        <path id="DejaVuSans-2e" d="M 684 794 
L 1344 794 
L 1344 0 
L 684 0 
L 684 794 
z
" transform="scale(0.015625)"/>
       </defs>
       <use xlink:href="#DejaVuSans-2212"/>
       <use xlink:href="#DejaVuSans-32" x="83.789062"/>
       <use xlink:href="#DejaVuSans-2e" x="147.412109"/>
       <use xlink:href="#DejaVuSans-30" x="179.199219"/>
      </g>
     </g>
    </g>
    <g id="ytick_2">
     <g id="line2d_29">
      <path d="M 57.6 263.592355 
L 414.72 263.592355 
" clip-path="url(#p9539d38341)" style="fill: none; stroke: #b0b0b0; stroke-width: 0.8; stroke-linecap: square"/>
     </g>
     <g id="line2d_30">
      <g>
       <use xlink:href="#mfada45f62b" x="57.6" y="263.592355" style="stroke: #000000; stroke-width: 0.8"/>
      </g>
     </g>
     <g id="text_16">
      <!-- −1.5 -->
      <g transform="translate(26.317187 267.391574) scale(0.1 -0.1)">
       <use xlink:href="#DejaVuSans-2212"/>
       <use xlink:href="#DejaVuSans-31" x="83.789062"/>
       <use xlink:href="#DejaVuSans-2e" x="147.412109"/>
       <use xlink:href="#DejaVuSans-35" x="179.199219"/>
      </g>
     </g>
    </g>
    <g id="ytick_3">
     <g id="line2d_31">
      <path d="M 57.6 231.448575 
L 414.72 231.448575 
" clip-path="url(#p9539d38341)" style="fill: none; stroke: #b0b0b0; stroke-width: 0.8; stroke-linecap: square"/>
     </g>
     <g id="line2d_32">
      <g>
       <use xlink:href="#mfada45f62b" x="57.6" y="231.448575" style="stroke: #000000; stroke-width: 0.8"/>
      </g>
     </g>
     <g id="text_17">
      <!-- −1.0 -->
      <g transform="translate(26.317187 235.247794) scale(0.1 -0.1)">
       <use xlink:href="#DejaVuSans-2212"/>
       <use xlink:href="#DejaVuSans-31" x="83.789062"/>
       <use xlink:href="#DejaVuSans-2e" x="147.412109"/>
       <use xlink:href="#DejaVuSans-30" x="179.199219"/>
      </g>
     </g>
    </g>
    <g id="ytick_4">
     <g id="line2d_33">
      <path d="M 57.6 199.304796 
L 414.72 199.304796 
" clip-path="url(#p9539d38341)" style="fill: none; stroke: #b0b0b0; stroke-width: 0.8; stroke-linecap: square"/>
     </g>
     <g id="line2d_34">
      <g>
       <use xlink:href="#mfada45f62b" x="57.6" y="199.304796" style="stroke: #000000; stroke-width: 0.8"/>
      </g>
     </g>
     <g id="text_18">
      <!-- −0.5 -->
      <g transform="translate(26.317187 203.104014) scale(0.1 -0.1)">
       <use xlink:href="#DejaVuSans-2212"/>
       <use xlink:href="#DejaVuSans-30" x="83.789062"/>
       <use xlink:href="#DejaVuSans-2e" x="147.412109"/>
       <use xlink:href="#DejaVuSans-35" x="179.199219"/>
      </g>
     </g>
    </g>
    <g id="ytick_5">
     <g id="line2d_35">
      <path d="M 57.6 167.161016 
L 414.72 167.161016 
" clip-path="url(#p9539d38341)" style="fill: none; stroke: #b0b0b0; stroke-width: 0.8; stroke-linecap: square"/>
     </g>
     <g id="line2d_36">
      <g>
       <use xlink:href="#mfada45f62b" x="57.6" y="167.161016" style="stroke: #000000; stroke-width: 0.8"/>
      </g>
     </g>
     <g id="text_19">
      <!-- 0.0 -->
      <g transform="translate(34.696875 170.960235) scale(0.1 -0.1)">
       <use xlink:href="#DejaVuSans-30"/>
       <use xlink:href="#DejaVuSans-2e" x="63.623047"/>
       <use xlink:href="#DejaVuSans-30" x="95.410156"/>
      </g>
     </g>
    </g>
    <g id="ytick_6">
     <g id="line2d_37">
      <path d="M 57.6 135.017236 
L 414.72 135.017236 
" clip-path="url(#p9539d38341)" style="fill: none; stroke: #b0b0b0; stroke-width: 0.8; stroke-linecap: square"/>
     </g>
     <g id="line2d_38">
      <g>
       <use xlink:href="#mfada45f62b" x="57.6" y="135.017236" style="stroke: #000000; stroke-width: 0.8"/>
      </g>
     </g>
     <g id="text_20">
      <!-- 0.5 -->
      <g transform="translate(34.696875 138.816455) scale(0.1 -0.1)">
       <use xlink:href="#DejaVuSans-30"/>
       <use xlink:href="#DejaVuSans-2e" x="63.623047"/>
       <use xlink:href="#DejaVuSans-35" x="95.410156"/>
      </g>
     </g>
    </g>
    <g id="ytick_7">
     <g id="line2d_39">
      <path d="M 57.6 102.873456 
L 414.72 102.873456 
" clip-path="url(#p9539d38341)" style="fill: none; stroke: #b0b0b0; stroke-width: 0.8; stroke-linecap: square"/>
     </g>
     <g id="line2d_40">
      <g>
       <use xlink:href="#mfada45f62b" x="57.6" y="102.873456" style="stroke: #000000; stroke-width: 0.8"/>
      </g>
     </g>
     <g id="text_21">
      <!-- 1.0 -->
      <g transform="translate(34.696875 106.672675) scale(0.1 -0.1)">
       <use xlink:href="#DejaVuSans-31"/>
       <use xlink:href="#DejaVuSans-2e" x="63.623047"/>
       <use xlink:href="#DejaVuSans-30" x="95.410156"/>
      </g>
     </g>
    </g>
    <g id="ytick_8">
     <g id="line2d_41">
      <path d="M 57.6 70.729677 
L 414.72 70.729677 
" clip-path="url(#p9539d38341)" style="fill: none; stroke: #b0b0b0; stroke-width: 0.8; stroke-linecap: square"/>
     </g>
     <g id="line2d_42">
      <g>
       <use xlink:href="#mfada45f62b" x="57.6" y="70.729677" style="stroke: #000000; stroke-width: 0.8"/>
      </g>
     </g>
     <g id="text_22">
      <!-- 1.5 -->
      <g transform="translate(34.696875 74.528896) scale(0.1 -0.1)">
       <use xlink:href="#DejaVuSans-31"/>
       <use xlink:href="#DejaVuSans-2e" x="63.623047"/>
       <use xlink:href="#DejaVuSans-35" x="95.410156"/>
      </g>
     </g>
    </g>
    <g id="text_23">
     <!-- angle [°] -->
     <g transform="translate(20.2375 196.391281) rotate(-90) scale(0.1 -0.1)">
      <defs>
       <path id="DejaVuSans-61" d="M 2194 1759 
Q 1497 1759 1228 1600 
Q 959 1441 959 1056 
Q 959 750 1161 570 
Q 1363 391 1709 391 
Q 2188 391 2477 730 
Q 2766 1069 2766 1631 
L 2766 1759 
L 2194 1759 
z
M 3341 1997 
L 3341 0 
L 2766 0 
L 2766 531 
Q 2569 213 2275 61 
Q 1981 -91 1556 -91 
Q 1019 -91 701 211 
Q 384 513 384 1019 
Q 384 1609 779 1909 
Q 1175 2209 1959 2209 
L 2766 2209 
L 2766 2266 
Q 2766 2663 2505 2880 
Q 2244 3097 1772 3097 
Q 1472 3097 1187 3025 
Q 903 2953 641 2809 
L 641 3341 
Q 956 3463 1253 3523 
Q 1550 3584 1831 3584 
Q 2591 3584 2966 3190 
Q 3341 2797 3341 1997 
z
" transform="scale(0.015625)"/>
       <path id="DejaVuSans-6e" d="M 3513 2113 
L 3513 0 
L 2938 0 
L 2938 2094 
Q 2938 2591 2744 2837 
Q 2550 3084 2163 3084 
Q 1697 3084 1428 2787 
Q 1159 2491 1159 1978 
L 1159 0 
L 581 0 
L 581 3500 
L 1159 3500 
L 1159 2956 
Q 1366 3272 1645 3428 
Q 1925 3584 2291 3584 
Q 2894 3584 3203 3211 
Q 3513 2838 3513 2113 
z
" transform="scale(0.015625)"/>
       <path id="DejaVuSans-67" d="M 2906 1791 
Q 2906 2416 2648 2759 
Q 2391 3103 1925 3103 
Q 1463 3103 1205 2759 
Q 947 2416 947 1791 
Q 947 1169 1205 825 
Q 1463 481 1925 481 
Q 2391 481 2648 825 
Q 2906 1169 2906 1791 
z
M 3481 434 
Q 3481 -459 3084 -895 
Q 2688 -1331 1869 -1331 
Q 1566 -1331 1297 -1286 
Q 1028 -1241 775 -1147 
L 775 -588 
Q 1028 -725 1275 -790 
Q 1522 -856 1778 -856 
Q 2344 -856 2625 -561 
Q 2906 -266 2906 331 
L 2906 616 
Q 2728 306 2450 153 
Q 2172 0 1784 0 
Q 1141 0 747 490 
Q 353 981 353 1791 
Q 353 2603 747 3093 
Q 1141 3584 1784 3584 
Q 2172 3584 2450 3431 
Q 2728 3278 2906 2969 
L 2906 3500 
L 3481 3500 
L 3481 434 
z
" transform="scale(0.015625)"/>
       <path id="DejaVuSans-6c" d="M 603 4863 
L 1178 4863 
L 1178 0 
L 603 0 
L 603 4863 
z
" transform="scale(0.015625)"/>
       <path id="DejaVuSans-b0" d="M 1600 4347 
Q 1350 4347 1178 4173 
Q 1006 4000 1006 3750 
Q 1006 3503 1178 3333 
Q 1350 3163 1600 3163 
Q 1850 3163 2022 3333 
Q 2194 3503 2194 3750 
Q 2194 3997 2020 4172 
Q 1847 4347 1600 4347 
z
M 1600 4750 
Q 1800 4750 1984 4673 
Q 2169 4597 2303 4453 
Q 2447 4313 2519 4134 
Q 2591 3956 2591 3750 
Q 2591 3338 2302 3052 
Q 2013 2766 1594 2766 
Q 1172 2766 890 3047 
Q 609 3328 609 3750 
Q 609 4169 896 4459 
Q 1184 4750 1600 4750 
z
" transform="scale(0.015625)"/>
      </defs>
      <use xlink:href="#DejaVuSans-61"/>
      <use xlink:href="#DejaVuSans-6e" x="61.279297"/>
      <use xlink:href="#DejaVuSans-67" x="124.658203"/>
      <use xlink:href="#DejaVuSans-6c" x="188.134766"/>
      <use xlink:href="#DejaVuSans-65" x="215.917969"/>
      <use xlink:href="#DejaVuSans-20" x="277.441406"/>
      <use xlink:href="#DejaVuSans-5b" x="309.228516"/>
      <use xlink:href="#DejaVuSans-b0" x="348.242188"/>
      <use xlink:href="#DejaVuSans-5d" x="398.242188"/>
     </g>
    </g>
   </g>
   <g id="line2d_43">
    <path d="M 73.832727 265.423154 
L 74.594165 253.484382 
L 75.416558 70.191848 
L 77.149619 53.568 
L 78.120374 65.780326 
L 78.913018 253.155247 
L 79.704895 77.023737 
L 80.67386 63.951772 
L 81.470491 56.146139 
L 82.387549 64.34416 
L 83.256661 73.983412 
L 84.056359 86.631706 
L 84.942748 88.753966 
L 85.786174 244.679807 
L 86.582575 238.307336 
L 87.499684 221.928035 
L 88.351596 210.655925 
L 89.2364 208.573819 
L 90.032443 191.674105 
L 90.899536 179.37666 
L 91.792544 150.31471 
L 92.611794 144.086697 
L 93.454888 151.252879 
L 94.337622 184.770199 
L 95.165817 192.911632 
L 96.072217 206.321189 
L 96.904194 192.567136 
L 97.749333 209.75724 
L 98.625524 187.693724 
L 99.458754 187.08528 
L 100.356158 230.349388 
L 101.170756 235.846618 
L 102.063943 232.586785 
L 102.909644 233.417138 
L 104.560231 215.068878 
L 105.466657 210.61733 
L 106.283606 197.833438 
L 107.20644 194.745814 
L 108.022163 188.943553 
L 108.839342 231.17139 
L 109.761026 231.121636 
L 110.577719 227.845789 
L 111.39592 242.153575 
L 112.333603 242.803034 
L 113.194307 242.653766 
L 114.061323 240.427587 
L 114.89054 242.127391 
L 115.697036 243.311848 
L 116.618873 225.525436 
L 117.440525 227.234443 
L 118.360266 222.380385 
L 119.172947 226.176755 
L 119.99465 227.141348 
L 120.913702 245.387445 
L 121.727763 245.181443 
L 122.553708 260.664004 
L 123.49203 267.578582 
L 124.282246 266.954982 
L 125.376801 295.488 
L 126.079073 270.509762 
L 126.933873 265.160427 
L 127.79726 257.566903 
L 128.684058 253.782083 
L 129.504585 261.960015 
L 130.368586 268.611636 
L 131.179196 267.221141 
L 132.076447 258.042328 
L 132.872337 253.065391 
L 133.696672 214.608013 
L 134.611788 216.743431 
L 135.427919 221.461699 
L 136.35934 246.880576 
L 137.164226 253.56354 
L 137.982453 238.190089 
L 138.905466 231.38361 
L 139.721725 235.135786 
L 140.539568 236.544478 
L 141.470606 231.255826 
L 142.27723 201.765349 
L 144.017039 191.789855 
L 144.832096 198.575182 
L 145.769192 196.681037 
L 146.574026 140.802342 
L 147.499263 141.576447 
L 148.320045 154.713672 
L 149.127921 160.477989 
L 150.046666 184.659566 
L 150.86382 195.059964 
L 151.695081 177.69635 
L 152.603833 179.52232 
L 153.417996 224.93362 
L 154.369352 220.107046 
L 155.157984 233.1785 
L 155.985871 235.598026 
L 156.935669 237.222549 
L 157.795452 240.338608 
L 158.528649 239.07538 
L 159.449029 239.031408 
L 160.270553 242.623254 
L 162.004995 242.269114 
L 162.826902 245.109662 
L 163.742835 244.735012 
L 164.604178 242.545601 
L 166.32763 244.424109 
L 167.144579 243.465002 
L 168.064499 243.343723 
L 168.853872 246.234395 
L 169.7203 254.548606 
L 170.594933 234.638324 
L 171.41206 235.121697 
L 172.329757 206.871715 
L 173.967387 250.846382 
L 174.885646 241.092917 
L 175.715374 279.896187 
L 176.626963 263.693211 
L 177.44202 242.890744 
L 178.261781 250.895665 
L 179.187375 273.48192 
L 179.998267 286.423764 
L 180.824902 277.961245 
L 181.736184 260.002268 
L 182.552903 256.818538 
L 183.474485 253.897336 
L 184.296111 264.836462 
L 185.107846 267.674614 
L 186.029556 266.437169 
L 186.846888 260.359564 
L 187.663428 256.716542 
L 188.586441 215.797434 
L 189.404566 244.178498 
L 190.322902 253.279661 
L 191.141001 256.856477 
L 191.961988 242.829249 
L 193.701592 198.397455 
L 194.620567 200.419915 
L 195.4368 198.818628 
L 196.253826 176.67407 
L 197.185784 163.390582 
L 197.989827 149.038751 
L 198.813599 181.807721 
L 199.740063 173.21604 
L 200.547939 170.08449 
L 201.49242 144.063875 
L 202.29613 178.198266 
L 203.101042 194.326858 
L 204.02109 190.580169 
L 204.864338 191.763911 
L 205.657339 182.491569 
L 206.578001 224.81923 
L 207.397531 228.293544 
L 208.318678 236.955661 
L 209.131462 235.053717 
L 209.976268 234.671661 
L 210.872906 229.857675 
L 211.715361 240.524526 
L 212.670858 241.240799 
L 213.428309 232.0673 
L 214.245181 233.928259 
L 215.16592 234.769554 
L 215.98384 245.423292 
L 216.799536 246.388301 
L 217.719943 247.76947 
L 218.543332 245.24091 
L 219.459036 244.450043 
L 220.277927 245.178642 
L 221.098377 245.408927 
L 222.832103 243.20177 
L 223.774233 231.799728 
L 224.594019 220.320125 
L 225.387251 199.95448 
L 226.360076 222.151604 
L 227.126523 180.53096 
L 227.94475 250.336065 
L 228.933855 259.384871 
L 229.726575 257.691164 
L 230.601361 253.278801 
L 231.428558 242.478391 
L 232.238811 249.469807 
L 233.194921 261.25614 
L 234.007295 264.492479 
L 234.850288 254.26652 
L 235.758605 84.119746 
L 236.539288 79.186726 
L 237.475872 76.10792 
L 238.303555 77.295202 
L 239.11483 85.141361 
L 240.061024 82.797218 
L 240.867111 71.32516 
L 241.746727 70.416207 
L 242.588569 82.156237 
L 243.412751 97.549258 
L 244.33078 102.195109 
L 245.124957 98.297025 
L 245.967592 104.622703 
L 246.857559 113.873831 
L 247.699529 130.012066 
L 248.595527 137.342759 
L 249.41194 132.243363 
L 250.256107 123.152011 
L 251.148886 128.054239 
L 251.969898 183.977589 
L 252.811536 168.691719 
L 253.705541 173.520651 
L 254.524688 184.309076 
L 255.457464 149.252027 
L 256.2612 185.182383 
L 257.078762 169.898476 
L 258.001366 198.371825 
L 258.817165 195.119335 
L 259.8844 206.227854 
L 260.567989 187.916656 
L 261.387187 214.494104 
L 262.320807 232.219156 
L 263.132312 229.020793 
L 263.93114 233.873574 
L 264.859981 236.85509 
L 265.673351 234.605329 
L 266.601144 239.467798 
L 267.419498 240.748469 
L 268.272202 238.997963 
L 269.150438 239.050984 
L 269.968461 241.106822 
L 270.887052 241.645598 
L 271.706174 241.506225 
L 272.524861 242.066721 
L 273.444475 243.163042 
L 274.286649 242.060288 
L 275.081388 233.105711 
L 276.002229 241.165221 
L 276.817287 238.370878 
L 277.738511 199.629756 
L 278.589323 235.780861 
L 279.373431 231.917123 
L 280.29192 176.745732 
L 281.110888 148.358531 
L 281.953063 181.082046 
L 282.847604 185.488747 
L 283.670636 192.534719 
L 284.597125 135.097305 
L 285.404081 143.172363 
L 286.251341 145.049832 
L 287.146854 148.823653 
L 287.959944 148.685494 
L 288.881551 150.993574 
L 289.72416 156.618509 
L 290.515986 159.787023 
L 291.437005 159.467434 
L 292.26221 156.055652 
L 293.072948 165.350999 
L 294.035166 169.069458 
L 295.730198 172.985282 
L 296.550853 176.010196 
L 297.395685 123.371189 
L 298.286342 115.910268 
L 299.116147 196.085262 
L 299.928189 189.985217 
L 300.8431 206.16684 
L 301.659206 210.700369 
L 302.584902 207.13977 
L 303.404279 204.910332 
L 304.21443 212.857317 
L 305.134785 214.283647 
L 305.954238 202.407188 
L 306.875948 197.517845 
L 307.690929 200.597164 
L 308.509028 116.676515 
L 309.429511 167.408486 
L 310.281244 177.594906 
L 311.063741 185.325077 
L 312.009347 186.796756 
L 312.855559 195.916786 
L 313.730882 179.641587 
L 314.54024 187.164555 
L 315.360921 217.874659 
L 316.284649 222.985636 
L 317.124038 224.554908 
L 318.018017 214.384894 
L 319.652682 231.359914 
L 320.570967 234.266818 
L 321.392158 229.056893 
L 322.234001 228.974498 
L 323.126268 216.660525 
L 323.947485 216.601537 
L 324.869399 228.467587 
L 325.682565 226.388577 
L 326.50575 234.911546 
L 327.420457 221.107323 
L 328.239834 232.629324 
L 329.058981 236.577769 
L 330.794317 211.907988 
L 331.718404 250.642749 
L 332.557358 264.361996 
L 333.348826 257.148538 
L 334.269564 199.013781 
L 335.086027 206.484224 
L 336.007328 195.333945 
L 336.856607 207.342462 
L 337.641839 173.714506 
L 339.383974 131.561218 
L 340.198265 159.795465 
L 341.116473 180.026629 
L 341.935645 179.758697 
L 342.858812 158.138188 
L 343.698277 164.581924 
L 344.491355 162.300757 
L 345.418943 156.132222 
L 346.229375 159.447682 
L 347.086654 168.761519 
L 347.969592 168.642495 
L 348.785059 169.420568 
L 349.705235 171.847781 
L 350.526069 175.252341 
L 351.365943 154.892856 
L 352.258772 149.950524 
L 353.083491 137.228694 
L 353.999169 96.760136 
L 354.841369 113.02138 
L 355.638204 111.460732 
L 356.554572 112.757473 
L 357.371342 221.121694 
L 358.196495 228.008646 
L 359.928151 216.340976 
L 360.847509 212.931404 
L 361.668113 121.46237 
L 362.484244 92.741094 
L 363.405442 94.52923 
L 364.224078 101.877783 
L 365.156522 107.66815 
L 365.973292 132.743757 
L 366.777513 177.803151 
L 367.710698 186.37338 
L 368.535902 172.341728 
L 369.336801 195.563383 
L 370.253655 210.081251 
L 371.078603 211.692244 
L 372.021347 209.873243 
L 372.825747 211.748848 
L 373.697389 223.519649 
L 374.607777 210.250734 
L 375.370339 225.057733 
L 376.183505 217.825881 
L 377.159551 218.426078 
L 377.932387 230.065079 
L 378.841497 229.751982 
L 379.692258 217.68352 
L 380.495023 217.602929 
L 381.394702 217.783777 
L 382.268798 223.702712 
L 383.143175 223.782631 
L 383.956571 219.027783 
L 384.780293 223.116533 
L 385.713759 238.038909 
L 386.546017 243.456056 
L 387.372013 208.276983 
L 388.269801 214.677702 
L 389.063032 233.711184 
L 389.982697 220.07201 
L 391.644249 205.070866 
L 392.537538 173.297641 
L 393.367803 200.68256 
L 394.176113 203.861987 
L 395.161793 198.410531 
L 395.929135 191.837399 
L 396.819715 193.344263 
L 397.640524 201.268323 
L 398.487273 171.246661 
L 398.487273 171.246661 
" clip-path="url(#p9539d38341)" style="fill: none; stroke: #1f77b4; stroke-width: 1.5; stroke-linecap: square"/>
   </g>
   <g id="patch_3">
    <path d="M 57.6 307.584 
L 57.6 41.472 
" style="fill: none; stroke: #000000; stroke-width: 0.8; stroke-linejoin: miter; stroke-linecap: square"/>
   </g>
   <g id="patch_4">
    <path d="M 414.72 307.584 
L 414.72 41.472 
" style="fill: none; stroke: #000000; stroke-width: 0.8; stroke-linejoin: miter; stroke-linecap: square"/>
   </g>
   <g id="patch_5">
    <path d="M 57.6 307.584 
L 414.72 307.584 
" style="fill: none; stroke: #000000; stroke-width: 0.8; stroke-linejoin: miter; stroke-linecap: square"/>
   </g>
   <g id="patch_6">
    <path d="M 57.6 41.472 
L 414.72 41.472 
" style="fill: none; stroke: #000000; stroke-width: 0.8; stroke-linejoin: miter; stroke-linecap: square"/>
   </g>
   <g id="text_24">
    <!-- Angles in Thumb MCP joint to midhand -->
    <g transform="translate(119.547188 35.472) scale(0.12 -0.12)">
     <defs>
      <path id="DejaVuSans-41" d="M 2188 4044 
L 1331 1722 
L 3047 1722 
L 2188 4044 
z
M 1831 4666 
L 2547 4666 
L 4325 0 
L 3669 0 
L 3244 1197 
L 1141 1197 
L 716 0 
L 50 0 
L 1831 4666 
z
" transform="scale(0.015625)"/>
      <path id="DejaVuSans-54" d="M -19 4666 
L 3928 4666 
L 3928 4134 
L 2272 4134 
L 2272 0 
L 1638 0 
L 1638 4134 
L -19 4134 
L -19 4666 
z
" transform="scale(0.015625)"/>
      <path id="DejaVuSans-68" d="M 3513 2113 
L 3513 0 
L 2938 0 
L 2938 2094 
Q 2938 2591 2744 2837 
Q 2550 3084 2163 3084 
Q 1697 3084 1428 2787 
Q 1159 2491 1159 1978 
L 1159 0 
L 581 0 
L 581 4863 
L 1159 4863 
L 1159 2956 
Q 1366 3272 1645 3428 
Q 1925 3584 2291 3584 
Q 2894 3584 3203 3211 
Q 3513 2838 3513 2113 
z
" transform="scale(0.015625)"/>
      <path id="DejaVuSans-75" d="M 544 1381 
L 544 3500 
L 1119 3500 
L 1119 1403 
Q 1119 906 1312 657 
Q 1506 409 1894 409 
Q 2359 409 2629 706 
Q 2900 1003 2900 1516 
L 2900 3500 
L 3475 3500 
L 3475 0 
L 2900 0 
L 2900 538 
Q 2691 219 2414 64 
Q 2138 -91 1772 -91 
Q 1169 -91 856 284 
Q 544 659 544 1381 
z
M 1991 3584 
L 1991 3584 
z
" transform="scale(0.015625)"/>
      <path id="DejaVuSans-62" d="M 3116 1747 
Q 3116 2381 2855 2742 
Q 2594 3103 2138 3103 
Q 1681 3103 1420 2742 
Q 1159 2381 1159 1747 
Q 1159 1113 1420 752 
Q 1681 391 2138 391 
Q 2594 391 2855 752 
Q 3116 1113 3116 1747 
z
M 1159 2969 
Q 1341 3281 1617 3432 
Q 1894 3584 2278 3584 
Q 2916 3584 3314 3078 
Q 3713 2572 3713 1747 
Q 3713 922 3314 415 
Q 2916 -91 2278 -91 
Q 1894 -91 1617 61 
Q 1341 213 1159 525 
L 1159 0 
L 581 0 
L 581 4863 
L 1159 4863 
L 1159 2969 
z
" transform="scale(0.015625)"/>
      <path id="DejaVuSans-4d" d="M 628 4666 
L 1569 4666 
L 2759 1491 
L 3956 4666 
L 4897 4666 
L 4897 0 
L 4281 0 
L 4281 4097 
L 3078 897 
L 2444 897 
L 1241 4097 
L 1241 0 
L 628 0 
L 628 4666 
z
" transform="scale(0.015625)"/>
      <path id="DejaVuSans-43" d="M 4122 4306 
L 4122 3641 
Q 3803 3938 3442 4084 
Q 3081 4231 2675 4231 
Q 1875 4231 1450 3742 
Q 1025 3253 1025 2328 
Q 1025 1406 1450 917 
Q 1875 428 2675 428 
Q 3081 428 3442 575 
Q 3803 722 4122 1019 
L 4122 359 
Q 3791 134 3420 21 
Q 3050 -91 2638 -91 
Q 1578 -91 968 557 
Q 359 1206 359 2328 
Q 359 3453 968 4101 
Q 1578 4750 2638 4750 
Q 3056 4750 3426 4639 
Q 3797 4528 4122 4306 
z
" transform="scale(0.015625)"/>
      <path id="DejaVuSans-50" d="M 1259 4147 
L 1259 2394 
L 2053 2394 
Q 2494 2394 2734 2622 
Q 2975 2850 2975 3272 
Q 2975 3691 2734 3919 
Q 2494 4147 2053 4147 
L 1259 4147 
z
M 628 4666 
L 2053 4666 
Q 2838 4666 3239 4311 
Q 3641 3956 3641 3272 
Q 3641 2581 3239 2228 
Q 2838 1875 2053 1875 
L 1259 1875 
L 1259 0 
L 628 0 
L 628 4666 
z
" transform="scale(0.015625)"/>
      <path id="DejaVuSans-6a" d="M 603 3500 
L 1178 3500 
L 1178 -63 
Q 1178 -731 923 -1031 
Q 669 -1331 103 -1331 
L -116 -1331 
L -116 -844 
L 38 -844 
Q 366 -844 484 -692 
Q 603 -541 603 -63 
L 603 3500 
z
M 603 4863 
L 1178 4863 
L 1178 4134 
L 603 4134 
L 603 4863 
z
" transform="scale(0.015625)"/>
      <path id="DejaVuSans-6f" d="M 1959 3097 
Q 1497 3097 1228 2736 
Q 959 2375 959 1747 
Q 959 1119 1226 758 
Q 1494 397 1959 397 
Q 2419 397 2687 759 
Q 2956 1122 2956 1747 
Q 2956 2369 2687 2733 
Q 2419 3097 1959 3097 
z
M 1959 3584 
Q 2709 3584 3137 3096 
Q 3566 2609 3566 1747 
Q 3566 888 3137 398 
Q 2709 -91 1959 -91 
Q 1206 -91 779 398 
Q 353 888 353 1747 
Q 353 2609 779 3096 
Q 1206 3584 1959 3584 
z
" transform="scale(0.015625)"/>
      <path id="DejaVuSans-64" d="M 2906 2969 
L 2906 4863 
L 3481 4863 
L 3481 0 
L 2906 0 
L 2906 525 
Q 2725 213 2448 61 
Q 2172 -91 1784 -91 
Q 1150 -91 751 415 
Q 353 922 353 1747 
Q 353 2572 751 3078 
Q 1150 3584 1784 3584 
Q 2172 3584 2448 3432 
Q 2725 3281 2906 2969 
z
M 947 1747 
Q 947 1113 1208 752 
Q 1469 391 1925 391 
Q 2381 391 2643 752 
Q 2906 1113 2906 1747 
Q 2906 2381 2643 2742 
Q 2381 3103 1925 3103 
Q 1469 3103 1208 2742 
Q 947 2381 947 1747 
z
" transform="scale(0.015625)"/>
     </defs>
     <use xlink:href="#DejaVuSans-41"/>
     <use xlink:href="#DejaVuSans-6e" x="68.408203"/>
     <use xlink:href="#DejaVuSans-67" x="131.787109"/>
     <use xlink:href="#DejaVuSans-6c" x="195.263672"/>
     <use xlink:href="#DejaVuSans-65" x="223.046875"/>
     <use xlink:href="#DejaVuSans-73" x="284.570312"/>
     <use xlink:href="#DejaVuSans-20" x="336.669922"/>
     <use xlink:href="#DejaVuSans-69" x="368.457031"/>
     <use xlink:href="#DejaVuSans-6e" x="396.240234"/>
     <use xlink:href="#DejaVuSans-20" x="459.619141"/>
     <use xlink:href="#DejaVuSans-54" x="491.40625"/>
     <use xlink:href="#DejaVuSans-68" x="552.490234"/>
     <use xlink:href="#DejaVuSans-75" x="615.869141"/>
     <use xlink:href="#DejaVuSans-6d" x="679.248047"/>
     <use xlink:href="#DejaVuSans-62" x="776.660156"/>
     <use xlink:href="#DejaVuSans-20" x="840.136719"/>
     <use xlink:href="#DejaVuSans-4d" x="871.923828"/>
     <use xlink:href="#DejaVuSans-43" x="958.203125"/>
     <use xlink:href="#DejaVuSans-50" x="1028.027344"/>
     <use xlink:href="#DejaVuSans-20" x="1088.330078"/>
     <use xlink:href="#DejaVuSans-6a" x="1120.117188"/>
     <use xlink:href="#DejaVuSans-6f" x="1147.900391"/>
     <use xlink:href="#DejaVuSans-69" x="1209.082031"/>
     <use xlink:href="#DejaVuSans-6e" x="1236.865234"/>
     <use xlink:href="#DejaVuSans-74" x="1300.244141"/>
     <use xlink:href="#DejaVuSans-20" x="1339.453125"/>
     <use xlink:href="#DejaVuSans-74" x="1371.240234"/>
     <use xlink:href="#DejaVuSans-6f" x="1410.449219"/>
     <use xlink:href="#DejaVuSans-20" x="1471.630859"/>
     <use xlink:href="#DejaVuSans-6d" x="1503.417969"/>
     <use xlink:href="#DejaVuSans-69" x="1600.830078"/>
     <use xlink:href="#DejaVuSans-64" x="1628.613281"/>
     <use xlink:href="#DejaVuSans-68" x="1692.089844"/>
     <use xlink:href="#DejaVuSans-61" x="1755.46875"/>
     <use xlink:href="#DejaVuSans-6e" x="1816.748047"/>
     <use xlink:href="#DejaVuSans-64" x="1880.126953"/>
    </g>
   </g>
   <g id="legend_1">
    <g id="patch_7">
     <path d="M 196.77625 64.150125 
L 407.72 64.150125 
Q 409.72 64.150125 409.72 62.150125 
L 409.72 48.472 
Q 409.72 46.472 407.72 46.472 
L 196.77625 46.472 
Q 194.77625 46.472 194.77625 48.472 
L 194.77625 62.150125 
Q 194.77625 64.150125 196.77625 64.150125 
z
" style="fill: #ffffff; opacity: 0.8; stroke: #cccccc; stroke-linejoin: miter"/>
    </g>
    <g id="line2d_44">
     <path d="M 198.77625 54.570438 
L 208.77625 54.570438 
L 218.77625 54.570438 
" style="fill: none; stroke: #1f77b4; stroke-width: 1.5; stroke-linecap: square"/>
    </g>
    <g id="text_25">
     <!-- perpendicular around specified axis -->
     <g transform="translate(226.77625 58.070438) scale(0.1 -0.1)">
      <defs>
       <path id="DejaVuSans-70" d="M 1159 525 
L 1159 -1331 
L 581 -1331 
L 581 3500 
L 1159 3500 
L 1159 2969 
Q 1341 3281 1617 3432 
Q 1894 3584 2278 3584 
Q 2916 3584 3314 3078 
Q 3713 2572 3713 1747 
Q 3713 922 3314 415 
Q 2916 -91 2278 -91 
Q 1894 -91 1617 61 
Q 1341 213 1159 525 
z
M 3116 1747 
Q 3116 2381 2855 2742 
Q 2594 3103 2138 3103 
Q 1681 3103 1420 2742 
Q 1159 2381 1159 1747 
Q 1159 1113 1420 752 
Q 1681 391 2138 391 
Q 2594 391 2855 752 
Q 3116 1113 3116 1747 
z
" transform="scale(0.015625)"/>
       <path id="DejaVuSans-72" d="M 2631 2963 
Q 2534 3019 2420 3045 
Q 2306 3072 2169 3072 
Q 1681 3072 1420 2755 
Q 1159 2438 1159 1844 
L 1159 0 
L 581 0 
L 581 3500 
L 1159 3500 
L 1159 2956 
Q 1341 3275 1631 3429 
Q 1922 3584 2338 3584 
Q 2397 3584 2469 3576 
Q 2541 3569 2628 3553 
L 2631 2963 
z
" transform="scale(0.015625)"/>
       <path id="DejaVuSans-66" d="M 2375 4863 
L 2375 4384 
L 1825 4384 
Q 1516 4384 1395 4259 
Q 1275 4134 1275 3809 
L 1275 3500 
L 2222 3500 
L 2222 3053 
L 1275 3053 
L 1275 0 
L 697 0 
L 697 3053 
L 147 3053 
L 147 3500 
L 697 3500 
L 697 3744 
Q 697 4328 969 4595 
Q 1241 4863 1831 4863 
L 2375 4863 
z
" transform="scale(0.015625)"/>
       <path id="DejaVuSans-78" d="M 3513 3500 
L 2247 1797 
L 3578 0 
L 2900 0 
L 1881 1375 
L 863 0 
L 184 0 
L 1544 1831 
L 300 3500 
L 978 3500 
L 1906 2253 
L 2834 3500 
L 3513 3500 
z
" transform="scale(0.015625)"/>
      </defs>
      <use xlink:href="#DejaVuSans-70"/>
      <use xlink:href="#DejaVuSans-65" x="63.476562"/>
      <use xlink:href="#DejaVuSans-72" x="125"/>
      <use xlink:href="#DejaVuSans-70" x="166.113281"/>
      <use xlink:href="#DejaVuSans-65" x="229.589844"/>
      <use xlink:href="#DejaVuSans-6e" x="291.113281"/>
      <use xlink:href="#DejaVuSans-64" x="354.492188"/>
      <use xlink:href="#DejaVuSans-69" x="417.96875"/>
      <use xlink:href="#DejaVuSans-63" x="445.751953"/>
      <use xlink:href="#DejaVuSans-75" x="500.732422"/>
      <use xlink:href="#DejaVuSans-6c" x="564.111328"/>
      <use xlink:href="#DejaVuSans-61" x="591.894531"/>
      <use xlink:href="#DejaVuSans-72" x="653.173828"/>
      <use xlink:href="#DejaVuSans-20" x="694.287109"/>
      <use xlink:href="#DejaVuSans-61" x="726.074219"/>
      <use xlink:href="#DejaVuSans-72" x="787.353516"/>
      <use xlink:href="#DejaVuSans-6f" x="826.216797"/>
      <use xlink:href="#DejaVuSans-75" x="887.398438"/>
      <use xlink:href="#DejaVuSans-6e" x="950.777344"/>
      <use xlink:href="#DejaVuSans-64" x="1014.15625"/>
      <use xlink:href="#DejaVuSans-20" x="1077.632812"/>
      <use xlink:href="#DejaVuSans-73" x="1109.419922"/>
      <use xlink:href="#DejaVuSans-70" x="1161.519531"/>
      <use xlink:href="#DejaVuSans-65" x="1224.996094"/>
      <use xlink:href="#DejaVuSans-63" x="1286.519531"/>
      <use xlink:href="#DejaVuSans-69" x="1341.5"/>
      <use xlink:href="#DejaVuSans-66" x="1369.283203"/>
      <use xlink:href="#DejaVuSans-69" x="1404.488281"/>
      <use xlink:href="#DejaVuSans-65" x="1432.271484"/>
      <use xlink:href="#DejaVuSans-64" x="1493.794922"/>
      <use xlink:href="#DejaVuSans-20" x="1557.271484"/>
      <use xlink:href="#DejaVuSans-61" x="1589.058594"/>
      <use xlink:href="#DejaVuSans-78" x="1650.337891"/>
      <use xlink:href="#DejaVuSans-69" x="1709.517578"/>
      <use xlink:href="#DejaVuSans-73" x="1737.300781"/>
     </g>
    </g>
   </g>
  </g>
 </g>
 <defs>
  <clipPath id="p9539d38341">
   <rect x="57.6" y="41.472" width="357.12" height="266.112"/>
  </clipPath>
 </defs>
</svg>
