<?xml version="1.0" encoding="utf-8" standalone="no"?>
<!DOCTYPE svg PUBLIC "-//W3C//DTD SVG 1.1//EN"
  "http://www.w3.org/Graphics/SVG/1.1/DTD/svg11.dtd">
<svg xmlns:xlink="http://www.w3.org/1999/xlink" width="460.8pt" height="345.6pt" viewBox="0 0 460.8 345.6" xmlns="http://www.w3.org/2000/svg" version="1.1">
 <metadata>
  <rdf:RDF xmlns:dc="http://purl.org/dc/elements/1.1/" xmlns:cc="http://creativecommons.org/ns#" xmlns:rdf="http://www.w3.org/1999/02/22-rdf-syntax-ns#">
   <cc:Work>
    <dc:type rdf:resource="http://purl.org/dc/dcmitype/StillImage"/>
    <dc:date>2023-07-03T11:42:24.930290</dc:date>
    <dc:format>image/svg+xml</dc:format>
    <dc:creator>
     <cc:Agent>
      <dc:title>Matplotlib v3.7.1, https://matplotlib.org/</dc:title>
     </cc:Agent>
    </dc:creator>
   </cc:Work>
  </rdf:RDF>
 </metadata>
 <defs>
  <style type="text/css">*{stroke-linejoin: round; stroke-linecap: butt}</style>
 </defs>
 <g id="figure_1">
  <g id="patch_1">
   <path d="M 0 345.6 
L 460.8 345.6 
L 460.8 0 
L 0 0 
z
" style="fill: #ffffff"/>
  </g>
  <g id="axes_1">
   <g id="patch_2">
    <path d="M 57.6 307.584 
L 414.72 307.584 
L 414.72 41.472 
L 57.6 41.472 
z
" style="fill: #ffffff"/>
   </g>
   <g id="matplotlib.axis_1">
    <g id="xtick_1">
     <g id="line2d_1">
      <path d="M 64.175902 307.584 
L 64.175902 41.472 
" clip-path="url(#pc82eeb74c7)" style="fill: none; stroke: #b0b0b0; stroke-width: 0.8; stroke-linecap: square"/>
     </g>
     <g id="line2d_2">
      <defs>
       <path id="m487423bf4b" d="M 0 0 
L 0 3.5 
" style="stroke: #000000; stroke-width: 0.8"/>
      </defs>
      <g>
       <use xlink:href="#m487423bf4b" x="64.175902" y="307.584" style="stroke: #000000; stroke-width: 0.8"/>
      </g>
     </g>
     <g id="text_1">
      <!-- 47 -->
      <g transform="translate(57.813402 322.182437) scale(0.1 -0.1)">
       <defs>
        <path id="DejaVuSans-34" d="M 2419 4116 
L 825 1625 
L 2419 1625 
L 2419 4116 
z
M 2253 4666 
L 3047 4666 
L 3047 1625 
L 3713 1625 
L 3713 1100 
L 3047 1100 
L 3047 0 
L 2419 0 
L 2419 1100 
L 313 1100 
L 313 1709 
L 2253 4666 
z
" transform="scale(0.015625)"/>
        <path id="DejaVuSans-37" d="M 525 4666 
L 3525 4666 
L 3525 4397 
L 1831 0 
L 1172 0 
L 2766 4134 
L 525 4134 
L 525 4666 
z
" transform="scale(0.015625)"/>
       </defs>
       <use xlink:href="#DejaVuSans-34"/>
       <use xlink:href="#DejaVuSans-37" x="63.623047"/>
      </g>
     </g>
    </g>
    <g id="xtick_2">
     <g id="line2d_3">
      <path d="M 89.933687 307.584 
L 89.933687 41.472 
" clip-path="url(#pc82eeb74c7)" style="fill: none; stroke: #b0b0b0; stroke-width: 0.8; stroke-linecap: square"/>
     </g>
     <g id="line2d_4">
      <g>
       <use xlink:href="#m487423bf4b" x="89.933687" y="307.584" style="stroke: #000000; stroke-width: 0.8"/>
      </g>
     </g>
     <g id="text_2">
      <!-- 48 -->
      <g transform="translate(83.571187 322.182437) scale(0.1 -0.1)">
       <defs>
        <path id="DejaVuSans-38" d="M 2034 2216 
Q 1584 2216 1326 1975 
Q 1069 1734 1069 1313 
Q 1069 891 1326 650 
Q 1584 409 2034 409 
Q 2484 409 2743 651 
Q 3003 894 3003 1313 
Q 3003 1734 2745 1975 
Q 2488 2216 2034 2216 
z
M 1403 2484 
Q 997 2584 770 2862 
Q 544 3141 544 3541 
Q 544 4100 942 4425 
Q 1341 4750 2034 4750 
Q 2731 4750 3128 4425 
Q 3525 4100 3525 3541 
Q 3525 3141 3298 2862 
Q 3072 2584 2669 2484 
Q 3125 2378 3379 2068 
Q 3634 1759 3634 1313 
Q 3634 634 3220 271 
Q 2806 -91 2034 -91 
Q 1263 -91 848 271 
Q 434 634 434 1313 
Q 434 1759 690 2068 
Q 947 2378 1403 2484 
z
M 1172 3481 
Q 1172 3119 1398 2916 
Q 1625 2713 2034 2713 
Q 2441 2713 2670 2916 
Q 2900 3119 2900 3481 
Q 2900 3844 2670 4047 
Q 2441 4250 2034 4250 
Q 1625 4250 1398 4047 
Q 1172 3844 1172 3481 
z
" transform="scale(0.015625)"/>
       </defs>
       <use xlink:href="#DejaVuSans-34"/>
       <use xlink:href="#DejaVuSans-38" x="63.623047"/>
      </g>
     </g>
    </g>
    <g id="xtick_3">
     <g id="line2d_5">
      <path d="M 115.691472 307.584 
L 115.691472 41.472 
" clip-path="url(#pc82eeb74c7)" style="fill: none; stroke: #b0b0b0; stroke-width: 0.8; stroke-linecap: square"/>
     </g>
     <g id="line2d_6">
      <g>
       <use xlink:href="#m487423bf4b" x="115.691472" y="307.584" style="stroke: #000000; stroke-width: 0.8"/>
      </g>
     </g>
     <g id="text_3">
      <!-- 49 -->
      <g transform="translate(109.328972 322.182437) scale(0.1 -0.1)">
       <defs>
        <path id="DejaVuSans-39" d="M 703 97 
L 703 672 
Q 941 559 1184 500 
Q 1428 441 1663 441 
Q 2288 441 2617 861 
Q 2947 1281 2994 2138 
Q 2813 1869 2534 1725 
Q 2256 1581 1919 1581 
Q 1219 1581 811 2004 
Q 403 2428 403 3163 
Q 403 3881 828 4315 
Q 1253 4750 1959 4750 
Q 2769 4750 3195 4129 
Q 3622 3509 3622 2328 
Q 3622 1225 3098 567 
Q 2575 -91 1691 -91 
Q 1453 -91 1209 -44 
Q 966 3 703 97 
z
M 1959 2075 
Q 2384 2075 2632 2365 
Q 2881 2656 2881 3163 
Q 2881 3666 2632 3958 
Q 2384 4250 1959 4250 
Q 1534 4250 1286 3958 
Q 1038 3666 1038 3163 
Q 1038 2656 1286 2365 
Q 1534 2075 1959 2075 
z
" transform="scale(0.015625)"/>
       </defs>
       <use xlink:href="#DejaVuSans-34"/>
       <use xlink:href="#DejaVuSans-39" x="63.623047"/>
      </g>
     </g>
    </g>
    <g id="xtick_4">
     <g id="line2d_7">
      <path d="M 141.449256 307.584 
L 141.449256 41.472 
" clip-path="url(#pc82eeb74c7)" style="fill: none; stroke: #b0b0b0; stroke-width: 0.8; stroke-linecap: square"/>
     </g>
     <g id="line2d_8">
      <g>
       <use xlink:href="#m487423bf4b" x="141.449256" y="307.584" style="stroke: #000000; stroke-width: 0.8"/>
      </g>
     </g>
     <g id="text_4">
      <!-- 50 -->
      <g transform="translate(135.086756 322.182437) scale(0.1 -0.1)">
       <defs>
        <path id="DejaVuSans-35" d="M 691 4666 
L 3169 4666 
L 3169 4134 
L 1269 4134 
L 1269 2991 
Q 1406 3038 1543 3061 
Q 1681 3084 1819 3084 
Q 2600 3084 3056 2656 
Q 3513 2228 3513 1497 
Q 3513 744 3044 326 
Q 2575 -91 1722 -91 
Q 1428 -91 1123 -41 
Q 819 9 494 109 
L 494 744 
Q 775 591 1075 516 
Q 1375 441 1709 441 
Q 2250 441 2565 725 
Q 2881 1009 2881 1497 
Q 2881 1984 2565 2268 
Q 2250 2553 1709 2553 
Q 1456 2553 1204 2497 
Q 953 2441 691 2322 
L 691 4666 
z
" transform="scale(0.015625)"/>
        <path id="DejaVuSans-30" d="M 2034 4250 
Q 1547 4250 1301 3770 
Q 1056 3291 1056 2328 
Q 1056 1369 1301 889 
Q 1547 409 2034 409 
Q 2525 409 2770 889 
Q 3016 1369 3016 2328 
Q 3016 3291 2770 3770 
Q 2525 4250 2034 4250 
z
M 2034 4750 
Q 2819 4750 3233 4129 
Q 3647 3509 3647 2328 
Q 3647 1150 3233 529 
Q 2819 -91 2034 -91 
Q 1250 -91 836 529 
Q 422 1150 422 2328 
Q 422 3509 836 4129 
Q 1250 4750 2034 4750 
z
" transform="scale(0.015625)"/>
       </defs>
       <use xlink:href="#DejaVuSans-35"/>
       <use xlink:href="#DejaVuSans-30" x="63.623047"/>
      </g>
     </g>
    </g>
    <g id="xtick_5">
     <g id="line2d_9">
      <path d="M 167.207041 307.584 
L 167.207041 41.472 
" clip-path="url(#pc82eeb74c7)" style="fill: none; stroke: #b0b0b0; stroke-width: 0.8; stroke-linecap: square"/>
     </g>
     <g id="line2d_10">
      <g>
       <use xlink:href="#m487423bf4b" x="167.207041" y="307.584" style="stroke: #000000; stroke-width: 0.8"/>
      </g>
     </g>
     <g id="text_5">
      <!-- 51 -->
      <g transform="translate(160.844541 322.182437) scale(0.1 -0.1)">
       <defs>
        <path id="DejaVuSans-31" d="M 794 531 
L 1825 531 
L 1825 4091 
L 703 3866 
L 703 4441 
L 1819 4666 
L 2450 4666 
L 2450 531 
L 3481 531 
L 3481 0 
L 794 0 
L 794 531 
z
" transform="scale(0.015625)"/>
       </defs>
       <use xlink:href="#DejaVuSans-35"/>
       <use xlink:href="#DejaVuSans-31" x="63.623047"/>
      </g>
     </g>
    </g>
    <g id="xtick_6">
     <g id="line2d_11">
      <path d="M 192.964826 307.584 
L 192.964826 41.472 
" clip-path="url(#pc82eeb74c7)" style="fill: none; stroke: #b0b0b0; stroke-width: 0.8; stroke-linecap: square"/>
     </g>
     <g id="line2d_12">
      <g>
       <use xlink:href="#m487423bf4b" x="192.964826" y="307.584" style="stroke: #000000; stroke-width: 0.8"/>
      </g>
     </g>
     <g id="text_6">
      <!-- 52 -->
      <g transform="translate(186.602326 322.182437) scale(0.1 -0.1)">
       <defs>
        <path id="DejaVuSans-32" d="M 1228 531 
L 3431 531 
L 3431 0 
L 469 0 
L 469 531 
Q 828 903 1448 1529 
Q 2069 2156 2228 2338 
Q 2531 2678 2651 2914 
Q 2772 3150 2772 3378 
Q 2772 3750 2511 3984 
Q 2250 4219 1831 4219 
Q 1534 4219 1204 4116 
Q 875 4013 500 3803 
L 500 4441 
Q 881 4594 1212 4672 
Q 1544 4750 1819 4750 
Q 2544 4750 2975 4387 
Q 3406 4025 3406 3419 
Q 3406 3131 3298 2873 
Q 3191 2616 2906 2266 
Q 2828 2175 2409 1742 
Q 1991 1309 1228 531 
z
" transform="scale(0.015625)"/>
       </defs>
       <use xlink:href="#DejaVuSans-35"/>
       <use xlink:href="#DejaVuSans-32" x="63.623047"/>
      </g>
     </g>
    </g>
    <g id="xtick_7">
     <g id="line2d_13">
      <path d="M 218.722611 307.584 
L 218.722611 41.472 
" clip-path="url(#pc82eeb74c7)" style="fill: none; stroke: #b0b0b0; stroke-width: 0.8; stroke-linecap: square"/>
     </g>
     <g id="line2d_14">
      <g>
       <use xlink:href="#m487423bf4b" x="218.722611" y="307.584" style="stroke: #000000; stroke-width: 0.8"/>
      </g>
     </g>
     <g id="text_7">
      <!-- 53 -->
      <g transform="translate(212.360111 322.182437) scale(0.1 -0.1)">
       <defs>
        <path id="DejaVuSans-33" d="M 2597 2516 
Q 3050 2419 3304 2112 
Q 3559 1806 3559 1356 
Q 3559 666 3084 287 
Q 2609 -91 1734 -91 
Q 1441 -91 1130 -33 
Q 819 25 488 141 
L 488 750 
Q 750 597 1062 519 
Q 1375 441 1716 441 
Q 2309 441 2620 675 
Q 2931 909 2931 1356 
Q 2931 1769 2642 2001 
Q 2353 2234 1838 2234 
L 1294 2234 
L 1294 2753 
L 1863 2753 
Q 2328 2753 2575 2939 
Q 2822 3125 2822 3475 
Q 2822 3834 2567 4026 
Q 2313 4219 1838 4219 
Q 1578 4219 1281 4162 
Q 984 4106 628 3988 
L 628 4550 
Q 988 4650 1302 4700 
Q 1616 4750 1894 4750 
Q 2613 4750 3031 4423 
Q 3450 4097 3450 3541 
Q 3450 3153 3228 2886 
Q 3006 2619 2597 2516 
z
" transform="scale(0.015625)"/>
       </defs>
       <use xlink:href="#DejaVuSans-35"/>
       <use xlink:href="#DejaVuSans-33" x="63.623047"/>
      </g>
     </g>
    </g>
    <g id="xtick_8">
     <g id="line2d_15">
      <path d="M 244.480396 307.584 
L 244.480396 41.472 
" clip-path="url(#pc82eeb74c7)" style="fill: none; stroke: #b0b0b0; stroke-width: 0.8; stroke-linecap: square"/>
     </g>
     <g id="line2d_16">
      <g>
       <use xlink:href="#m487423bf4b" x="244.480396" y="307.584" style="stroke: #000000; stroke-width: 0.8"/>
      </g>
     </g>
     <g id="text_8">
      <!-- 54 -->
      <g transform="translate(238.117896 322.182437) scale(0.1 -0.1)">
       <use xlink:href="#DejaVuSans-35"/>
       <use xlink:href="#DejaVuSans-34" x="63.623047"/>
      </g>
     </g>
    </g>
    <g id="xtick_9">
     <g id="line2d_17">
      <path d="M 270.23818 307.584 
L 270.23818 41.472 
" clip-path="url(#pc82eeb74c7)" style="fill: none; stroke: #b0b0b0; stroke-width: 0.8; stroke-linecap: square"/>
     </g>
     <g id="line2d_18">
      <g>
       <use xlink:href="#m487423bf4b" x="270.23818" y="307.584" style="stroke: #000000; stroke-width: 0.8"/>
      </g>
     </g>
     <g id="text_9">
      <!-- 55 -->
      <g transform="translate(263.87568 322.182437) scale(0.1 -0.1)">
       <use xlink:href="#DejaVuSans-35"/>
       <use xlink:href="#DejaVuSans-35" x="63.623047"/>
      </g>
     </g>
    </g>
    <g id="xtick_10">
     <g id="line2d_19">
      <path d="M 295.995965 307.584 
L 295.995965 41.472 
" clip-path="url(#pc82eeb74c7)" style="fill: none; stroke: #b0b0b0; stroke-width: 0.8; stroke-linecap: square"/>
     </g>
     <g id="line2d_20">
      <g>
       <use xlink:href="#m487423bf4b" x="295.995965" y="307.584" style="stroke: #000000; stroke-width: 0.8"/>
      </g>
     </g>
     <g id="text_10">
      <!-- 56 -->
      <g transform="translate(289.633465 322.182437) scale(0.1 -0.1)">
       <defs>
        <path id="DejaVuSans-36" d="M 2113 2584 
Q 1688 2584 1439 2293 
Q 1191 2003 1191 1497 
Q 1191 994 1439 701 
Q 1688 409 2113 409 
Q 2538 409 2786 701 
Q 3034 994 3034 1497 
Q 3034 2003 2786 2293 
Q 2538 2584 2113 2584 
z
M 3366 4563 
L 3366 3988 
Q 3128 4100 2886 4159 
Q 2644 4219 2406 4219 
Q 1781 4219 1451 3797 
Q 1122 3375 1075 2522 
Q 1259 2794 1537 2939 
Q 1816 3084 2150 3084 
Q 2853 3084 3261 2657 
Q 3669 2231 3669 1497 
Q 3669 778 3244 343 
Q 2819 -91 2113 -91 
Q 1303 -91 875 529 
Q 447 1150 447 2328 
Q 447 3434 972 4092 
Q 1497 4750 2381 4750 
Q 2619 4750 2861 4703 
Q 3103 4656 3366 4563 
z
" transform="scale(0.015625)"/>
       </defs>
       <use xlink:href="#DejaVuSans-35"/>
       <use xlink:href="#DejaVuSans-36" x="63.623047"/>
      </g>
     </g>
    </g>
    <g id="xtick_11">
     <g id="line2d_21">
      <path d="M 321.75375 307.584 
L 321.75375 41.472 
" clip-path="url(#pc82eeb74c7)" style="fill: none; stroke: #b0b0b0; stroke-width: 0.8; stroke-linecap: square"/>
     </g>
     <g id="line2d_22">
      <g>
       <use xlink:href="#m487423bf4b" x="321.75375" y="307.584" style="stroke: #000000; stroke-width: 0.8"/>
      </g>
     </g>
     <g id="text_11">
      <!-- 57 -->
      <g transform="translate(315.39125 322.182437) scale(0.1 -0.1)">
       <use xlink:href="#DejaVuSans-35"/>
       <use xlink:href="#DejaVuSans-37" x="63.623047"/>
      </g>
     </g>
    </g>
    <g id="xtick_12">
     <g id="line2d_23">
      <path d="M 347.511535 307.584 
L 347.511535 41.472 
" clip-path="url(#pc82eeb74c7)" style="fill: none; stroke: #b0b0b0; stroke-width: 0.8; stroke-linecap: square"/>
     </g>
     <g id="line2d_24">
      <g>
       <use xlink:href="#m487423bf4b" x="347.511535" y="307.584" style="stroke: #000000; stroke-width: 0.8"/>
      </g>
     </g>
     <g id="text_12">
      <!-- 58 -->
      <g transform="translate(341.149035 322.182437) scale(0.1 -0.1)">
       <use xlink:href="#DejaVuSans-35"/>
       <use xlink:href="#DejaVuSans-38" x="63.623047"/>
      </g>
     </g>
    </g>
    <g id="xtick_13">
     <g id="line2d_25">
      <path d="M 373.26932 307.584 
L 373.26932 41.472 
" clip-path="url(#pc82eeb74c7)" style="fill: none; stroke: #b0b0b0; stroke-width: 0.8; stroke-linecap: square"/>
     </g>
     <g id="line2d_26">
      <g>
       <use xlink:href="#m487423bf4b" x="373.26932" y="307.584" style="stroke: #000000; stroke-width: 0.8"/>
      </g>
     </g>
     <g id="text_13">
      <!-- 59 -->
      <g transform="translate(366.90682 322.182437) scale(0.1 -0.1)">
       <use xlink:href="#DejaVuSans-35"/>
       <use xlink:href="#DejaVuSans-39" x="63.623047"/>
      </g>
     </g>
    </g>
    <g id="text_14">
     <!-- time [sec] -->
     <g transform="translate(210.942813 335.860562) scale(0.1 -0.1)">
      <defs>
       <path id="DejaVuSans-74" d="M 1172 4494 
L 1172 3500 
L 2356 3500 
L 2356 3053 
L 1172 3053 
L 1172 1153 
Q 1172 725 1289 603 
Q 1406 481 1766 481 
L 2356 481 
L 2356 0 
L 1766 0 
Q 1100 0 847 248 
Q 594 497 594 1153 
L 594 3053 
L 172 3053 
L 172 3500 
L 594 3500 
L 594 4494 
L 1172 4494 
z
" transform="scale(0.015625)"/>
       <path id="DejaVuSans-69" d="M 603 3500 
L 1178 3500 
L 1178 0 
L 603 0 
L 603 3500 
z
M 603 4863 
L 1178 4863 
L 1178 4134 
L 603 4134 
L 603 4863 
z
" transform="scale(0.015625)"/>
       <path id="DejaVuSans-6d" d="M 3328 2828 
Q 3544 3216 3844 3400 
Q 4144 3584 4550 3584 
Q 5097 3584 5394 3201 
Q 5691 2819 5691 2113 
L 5691 0 
L 5113 0 
L 5113 2094 
Q 5113 2597 4934 2840 
Q 4756 3084 4391 3084 
Q 3944 3084 3684 2787 
Q 3425 2491 3425 1978 
L 3425 0 
L 2847 0 
L 2847 2094 
Q 2847 2600 2669 2842 
Q 2491 3084 2119 3084 
Q 1678 3084 1418 2786 
Q 1159 2488 1159 1978 
L 1159 0 
L 581 0 
L 581 3500 
L 1159 3500 
L 1159 2956 
Q 1356 3278 1631 3431 
Q 1906 3584 2284 3584 
Q 2666 3584 2933 3390 
Q 3200 3197 3328 2828 
z
" transform="scale(0.015625)"/>
       <path id="DejaVuSans-65" d="M 3597 1894 
L 3597 1613 
L 953 1613 
Q 991 1019 1311 708 
Q 1631 397 2203 397 
Q 2534 397 2845 478 
Q 3156 559 3463 722 
L 3463 178 
Q 3153 47 2828 -22 
Q 2503 -91 2169 -91 
Q 1331 -91 842 396 
Q 353 884 353 1716 
Q 353 2575 817 3079 
Q 1281 3584 2069 3584 
Q 2775 3584 3186 3129 
Q 3597 2675 3597 1894 
z
M 3022 2063 
Q 3016 2534 2758 2815 
Q 2500 3097 2075 3097 
Q 1594 3097 1305 2825 
Q 1016 2553 972 2059 
L 3022 2063 
z
" transform="scale(0.015625)"/>
       <path id="DejaVuSans-20" transform="scale(0.015625)"/>
       <path id="DejaVuSans-5b" d="M 550 4863 
L 1875 4863 
L 1875 4416 
L 1125 4416 
L 1125 -397 
L 1875 -397 
L 1875 -844 
L 550 -844 
L 550 4863 
z
" transform="scale(0.015625)"/>
       <path id="DejaVuSans-73" d="M 2834 3397 
L 2834 2853 
Q 2591 2978 2328 3040 
Q 2066 3103 1784 3103 
Q 1356 3103 1142 2972 
Q 928 2841 928 2578 
Q 928 2378 1081 2264 
Q 1234 2150 1697 2047 
L 1894 2003 
Q 2506 1872 2764 1633 
Q 3022 1394 3022 966 
Q 3022 478 2636 193 
Q 2250 -91 1575 -91 
Q 1294 -91 989 -36 
Q 684 19 347 128 
L 347 722 
Q 666 556 975 473 
Q 1284 391 1588 391 
Q 1994 391 2212 530 
Q 2431 669 2431 922 
Q 2431 1156 2273 1281 
Q 2116 1406 1581 1522 
L 1381 1569 
Q 847 1681 609 1914 
Q 372 2147 372 2553 
Q 372 3047 722 3315 
Q 1072 3584 1716 3584 
Q 2034 3584 2315 3537 
Q 2597 3491 2834 3397 
z
" transform="scale(0.015625)"/>
       <path id="DejaVuSans-63" d="M 3122 3366 
L 3122 2828 
Q 2878 2963 2633 3030 
Q 2388 3097 2138 3097 
Q 1578 3097 1268 2742 
Q 959 2388 959 1747 
Q 959 1106 1268 751 
Q 1578 397 2138 397 
Q 2388 397 2633 464 
Q 2878 531 3122 666 
L 3122 134 
Q 2881 22 2623 -34 
Q 2366 -91 2075 -91 
Q 1284 -91 818 406 
Q 353 903 353 1747 
Q 353 2603 823 3093 
Q 1294 3584 2113 3584 
Q 2378 3584 2631 3529 
Q 2884 3475 3122 3366 
z
" transform="scale(0.015625)"/>
       <path id="DejaVuSans-5d" d="M 1947 4863 
L 1947 -844 
L 622 -844 
L 622 -397 
L 1369 -397 
L 1369 4416 
L 622 4416 
L 622 4863 
L 1947 4863 
z
" transform="scale(0.015625)"/>
      </defs>
      <use xlink:href="#DejaVuSans-74"/>
      <use xlink:href="#DejaVuSans-69" x="39.208984"/>
      <use xlink:href="#DejaVuSans-6d" x="66.992188"/>
      <use xlink:href="#DejaVuSans-65" x="164.404297"/>
      <use xlink:href="#DejaVuSans-20" x="225.927734"/>
      <use xlink:href="#DejaVuSans-5b" x="257.714844"/>
      <use xlink:href="#DejaVuSans-73" x="296.728516"/>
      <use xlink:href="#DejaVuSans-65" x="348.828125"/>
      <use xlink:href="#DejaVuSans-63" x="410.351562"/>
      <use xlink:href="#DejaVuSans-5d" x="465.332031"/>
     </g>
    </g>
   </g>
   <g id="matplotlib.axis_2">
    <g id="ytick_1">
     <g id="line2d_27">
      <path d="M 57.6 294.191835 
L 414.72 294.191835 
" clip-path="url(#pc82eeb74c7)" style="fill: none; stroke: #b0b0b0; stroke-width: 0.8; stroke-linecap: square"/>
     </g>
     <g id="line2d_28">
      <defs>
       <path id="mc8ca040098" d="M 0 0 
L -3.5 0 
" style="stroke: #000000; stroke-width: 0.8"/>
      </defs>
      <g>
       <use xlink:href="#mc8ca040098" x="57.6" y="294.191835" style="stroke: #000000; stroke-width: 0.8"/>
      </g>
     </g>
     <g id="text_15">
      <!-- 12 -->
      <g transform="translate(37.875 297.991054) scale(0.1 -0.1)">
       <use xlink:href="#DejaVuSans-31"/>
       <use xlink:href="#DejaVuSans-32" x="63.623047"/>
      </g>
     </g>
    </g>
    <g id="ytick_2">
     <g id="line2d_29">
      <path d="M 57.6 261.553471 
L 414.72 261.553471 
" clip-path="url(#pc82eeb74c7)" style="fill: none; stroke: #b0b0b0; stroke-width: 0.8; stroke-linecap: square"/>
     </g>
     <g id="line2d_30">
      <g>
       <use xlink:href="#mc8ca040098" x="57.6" y="261.553471" style="stroke: #000000; stroke-width: 0.8"/>
      </g>
     </g>
     <g id="text_16">
      <!-- 14 -->
      <g transform="translate(37.875 265.35269) scale(0.1 -0.1)">
       <use xlink:href="#DejaVuSans-31"/>
       <use xlink:href="#DejaVuSans-34" x="63.623047"/>
      </g>
     </g>
    </g>
    <g id="ytick_3">
     <g id="line2d_31">
      <path d="M 57.6 228.915107 
L 414.72 228.915107 
" clip-path="url(#pc82eeb74c7)" style="fill: none; stroke: #b0b0b0; stroke-width: 0.8; stroke-linecap: square"/>
     </g>
     <g id="line2d_32">
      <g>
       <use xlink:href="#mc8ca040098" x="57.6" y="228.915107" style="stroke: #000000; stroke-width: 0.8"/>
      </g>
     </g>
     <g id="text_17">
      <!-- 16 -->
      <g transform="translate(37.875 232.714326) scale(0.1 -0.1)">
       <use xlink:href="#DejaVuSans-31"/>
       <use xlink:href="#DejaVuSans-36" x="63.623047"/>
      </g>
     </g>
    </g>
    <g id="ytick_4">
     <g id="line2d_33">
      <path d="M 57.6 196.276743 
L 414.72 196.276743 
" clip-path="url(#pc82eeb74c7)" style="fill: none; stroke: #b0b0b0; stroke-width: 0.8; stroke-linecap: square"/>
     </g>
     <g id="line2d_34">
      <g>
       <use xlink:href="#mc8ca040098" x="57.6" y="196.276743" style="stroke: #000000; stroke-width: 0.8"/>
      </g>
     </g>
     <g id="text_18">
      <!-- 18 -->
      <g transform="translate(37.875 200.075962) scale(0.1 -0.1)">
       <use xlink:href="#DejaVuSans-31"/>
       <use xlink:href="#DejaVuSans-38" x="63.623047"/>
      </g>
     </g>
    </g>
    <g id="ytick_5">
     <g id="line2d_35">
      <path d="M 57.6 163.638379 
L 414.72 163.638379 
" clip-path="url(#pc82eeb74c7)" style="fill: none; stroke: #b0b0b0; stroke-width: 0.8; stroke-linecap: square"/>
     </g>
     <g id="line2d_36">
      <g>
       <use xlink:href="#mc8ca040098" x="57.6" y="163.638379" style="stroke: #000000; stroke-width: 0.8"/>
      </g>
     </g>
     <g id="text_19">
      <!-- 20 -->
      <g transform="translate(37.875 167.437598) scale(0.1 -0.1)">
       <use xlink:href="#DejaVuSans-32"/>
       <use xlink:href="#DejaVuSans-30" x="63.623047"/>
      </g>
     </g>
    </g>
    <g id="ytick_6">
     <g id="line2d_37">
      <path d="M 57.6 131.000015 
L 414.72 131.000015 
" clip-path="url(#pc82eeb74c7)" style="fill: none; stroke: #b0b0b0; stroke-width: 0.8; stroke-linecap: square"/>
     </g>
     <g id="line2d_38">
      <g>
       <use xlink:href="#mc8ca040098" x="57.6" y="131.000015" style="stroke: #000000; stroke-width: 0.8"/>
      </g>
     </g>
     <g id="text_20">
      <!-- 22 -->
      <g transform="translate(37.875 134.799234) scale(0.1 -0.1)">
       <use xlink:href="#DejaVuSans-32"/>
       <use xlink:href="#DejaVuSans-32" x="63.623047"/>
      </g>
     </g>
    </g>
    <g id="ytick_7">
     <g id="line2d_39">
      <path d="M 57.6 98.361651 
L 414.72 98.361651 
" clip-path="url(#pc82eeb74c7)" style="fill: none; stroke: #b0b0b0; stroke-width: 0.8; stroke-linecap: square"/>
     </g>
     <g id="line2d_40">
      <g>
       <use xlink:href="#mc8ca040098" x="57.6" y="98.361651" style="stroke: #000000; stroke-width: 0.8"/>
      </g>
     </g>
     <g id="text_21">
      <!-- 24 -->
      <g transform="translate(37.875 102.16087) scale(0.1 -0.1)">
       <use xlink:href="#DejaVuSans-32"/>
       <use xlink:href="#DejaVuSans-34" x="63.623047"/>
      </g>
     </g>
    </g>
    <g id="ytick_8">
     <g id="line2d_41">
      <path d="M 57.6 65.723287 
L 414.72 65.723287 
" clip-path="url(#pc82eeb74c7)" style="fill: none; stroke: #b0b0b0; stroke-width: 0.8; stroke-linecap: square"/>
     </g>
     <g id="line2d_42">
      <g>
       <use xlink:href="#mc8ca040098" x="57.6" y="65.723287" style="stroke: #000000; stroke-width: 0.8"/>
      </g>
     </g>
     <g id="text_22">
      <!-- 26 -->
      <g transform="translate(37.875 69.522506) scale(0.1 -0.1)">
       <use xlink:href="#DejaVuSans-32"/>
       <use xlink:href="#DejaVuSans-36" x="63.623047"/>
      </g>
     </g>
    </g>
    <g id="text_23">
     <!-- angle [°] -->
     <g transform="translate(31.795312 196.391281) rotate(-90) scale(0.1 -0.1)">
      <defs>
       <path id="DejaVuSans-61" d="M 2194 1759 
Q 1497 1759 1228 1600 
Q 959 1441 959 1056 
Q 959 750 1161 570 
Q 1363 391 1709 391 
Q 2188 391 2477 730 
Q 2766 1069 2766 1631 
L 2766 1759 
L 2194 1759 
z
M 3341 1997 
L 3341 0 
L 2766 0 
L 2766 531 
Q 2569 213 2275 61 
Q 1981 -91 1556 -91 
Q 1019 -91 701 211 
Q 384 513 384 1019 
Q 384 1609 779 1909 
Q 1175 2209 1959 2209 
L 2766 2209 
L 2766 2266 
Q 2766 2663 2505 2880 
Q 2244 3097 1772 3097 
Q 1472 3097 1187 3025 
Q 903 2953 641 2809 
L 641 3341 
Q 956 3463 1253 3523 
Q 1550 3584 1831 3584 
Q 2591 3584 2966 3190 
Q 3341 2797 3341 1997 
z
" transform="scale(0.015625)"/>
       <path id="DejaVuSans-6e" d="M 3513 2113 
L 3513 0 
L 2938 0 
L 2938 2094 
Q 2938 2591 2744 2837 
Q 2550 3084 2163 3084 
Q 1697 3084 1428 2787 
Q 1159 2491 1159 1978 
L 1159 0 
L 581 0 
L 581 3500 
L 1159 3500 
L 1159 2956 
Q 1366 3272 1645 3428 
Q 1925 3584 2291 3584 
Q 2894 3584 3203 3211 
Q 3513 2838 3513 2113 
z
" transform="scale(0.015625)"/>
       <path id="DejaVuSans-67" d="M 2906 1791 
Q 2906 2416 2648 2759 
Q 2391 3103 1925 3103 
Q 1463 3103 1205 2759 
Q 947 2416 947 1791 
Q 947 1169 1205 825 
Q 1463 481 1925 481 
Q 2391 481 2648 825 
Q 2906 1169 2906 1791 
z
M 3481 434 
Q 3481 -459 3084 -895 
Q 2688 -1331 1869 -1331 
Q 1566 -1331 1297 -1286 
Q 1028 -1241 775 -1147 
L 775 -588 
Q 1028 -725 1275 -790 
Q 1522 -856 1778 -856 
Q 2344 -856 2625 -561 
Q 2906 -266 2906 331 
L 2906 616 
Q 2728 306 2450 153 
Q 2172 0 1784 0 
Q 1141 0 747 490 
Q 353 981 353 1791 
Q 353 2603 747 3093 
Q 1141 3584 1784 3584 
Q 2172 3584 2450 3431 
Q 2728 3278 2906 2969 
L 2906 3500 
L 3481 3500 
L 3481 434 
z
" transform="scale(0.015625)"/>
       <path id="DejaVuSans-6c" d="M 603 4863 
L 1178 4863 
L 1178 0 
L 603 0 
L 603 4863 
z
" transform="scale(0.015625)"/>
       <path id="DejaVuSans-b0" d="M 1600 4347 
Q 1350 4347 1178 4173 
Q 1006 4000 1006 3750 
Q 1006 3503 1178 3333 
Q 1350 3163 1600 3163 
Q 1850 3163 2022 3333 
Q 2194 3503 2194 3750 
Q 2194 3997 2020 4172 
Q 1847 4347 1600 4347 
z
M 1600 4750 
Q 1800 4750 1984 4673 
Q 2169 4597 2303 4453 
Q 2447 4313 2519 4134 
Q 2591 3956 2591 3750 
Q 2591 3338 2302 3052 
Q 2013 2766 1594 2766 
Q 1172 2766 890 3047 
Q 609 3328 609 3750 
Q 609 4169 896 4459 
Q 1184 4750 1600 4750 
z
" transform="scale(0.015625)"/>
      </defs>
      <use xlink:href="#DejaVuSans-61"/>
      <use xlink:href="#DejaVuSans-6e" x="61.279297"/>
      <use xlink:href="#DejaVuSans-67" x="124.658203"/>
      <use xlink:href="#DejaVuSans-6c" x="188.134766"/>
      <use xlink:href="#DejaVuSans-65" x="215.917969"/>
      <use xlink:href="#DejaVuSans-20" x="277.441406"/>
      <use xlink:href="#DejaVuSans-5b" x="309.228516"/>
      <use xlink:href="#DejaVuSans-b0" x="348.242188"/>
      <use xlink:href="#DejaVuSans-5d" x="398.242188"/>
     </g>
    </g>
   </g>
   <g id="line2d_43">
    <path d="M 73.832727 107.891224 
L 74.655637 100.884735 
L 75.479088 98.186806 
L 76.417856 97.459199 
L 77.230952 100.05723 
L 78.159726 96.757767 
L 78.996931 96.905499 
L 79.807452 100.269556 
L 80.734912 101.387939 
L 81.562793 109.625378 
L 82.3839 119.54238 
L 83.329777 125.389054 
L 85.06562 142.98423 
L 85.887242 145.77324 
L 86.722773 154.007928 
L 87.636762 159.848029 
L 88.50024 166.978928 
L 89.397719 171.556719 
L 90.2154 183.234473 
L 91.068755 191.407254 
L 91.965512 191.951146 
L 92.790611 191.911381 
L 93.613701 192.927499 
L 94.541136 192.35664 
L 95.365797 188.198129 
L 96.294855 185.515437 
L 97.946161 187.558737 
L 98.87442 188.971694 
L 99.699261 192.484904 
L 100.696242 193.694034 
L 101.465833 194.058454 
L 102.285163 193.773086 
L 103.209352 192.981698 
L 104.055418 192.590395 
L 104.843812 192.426598 
L 105.783534 189.965547 
L 106.603919 193.582974 
L 107.533002 194.261523 
L 108.365751 194.107395 
L 109.171841 195.058411 
L 110.104479 186.809606 
L 111.752334 162.001036 
L 112.684662 140.168081 
L 113.509349 137.88139 
L 114.449045 126.867517 
L 116.082964 118.222683 
L 117.008055 114.767784 
L 117.838795 113.265726 
L 118.757112 103.00927 
L 119.591638 99.589301 
L 120.406022 97.753264 
L 121.33016 97.662043 
L 122.155826 100.46934 
L 123.904702 105.471137 
L 124.728899 108.83187 
L 125.660636 119.992613 
L 126.479527 125.625298 
L 127.716777 127.767978 
L 128.232757 131.583615 
L 129.05971 144.091379 
L 129.90982 148.643779 
L 130.811652 152.665873 
L 132.617453 166.370261 
L 133.381815 166.989403 
L 134.2812 174.726958 
L 135.156295 175.342828 
L 136.88745 180.489835 
L 137.709896 179.751616 
L 138.53126 181.331872 
L 140.282532 186.606736 
L 141.104102 179.971956 
L 142.031331 179.118747 
L 142.860242 177.958127 
L 143.810704 178.792139 
L 144.615403 181.402087 
L 145.437927 180.231756 
L 146.384654 180.139734 
L 147.196333 179.899253 
L 148.147903 183.022509 
L 148.960845 184.376869 
L 149.768789 185.035832 
L 150.686693 184.170726 
L 151.535928 184.891146 
L 152.335475 183.687282 
L 153.261313 184.416535 
L 154.088163 188.731918 
L 155.012121 200.642265 
L 155.873925 203.496249 
L 156.671437 204.228508 
L 158.416759 174.964443 
L 159.343447 153.332363 
L 160.988829 138.612453 
L 161.922085 126.64772 
L 162.741002 125.953217 
L 163.564272 125.862639 
L 164.49284 122.094061 
L 165.316471 125.214725 
L 166.243494 117.830253 
L 167.070911 106.868251 
L 167.892095 99.2015 
L 168.818989 95.759454 
L 169.646484 97.947859 
L 170.467255 97.459788 
L 171.393686 94.286006 
L 172.223962 96.216033 
L 173.177953 102.793316 
L 173.973663 111.563001 
L 174.795516 123.998672 
L 175.751001 124.927228 
L 177.374901 140.484778 
L 178.354341 145.320222 
L 179.122721 156.687296 
L 180.088458 162.844901 
L 181.698963 183.344705 
L 182.658441 200.580197 
L 183.459946 210.569403 
L 184.377206 212.710946 
L 185.240401 209.094288 
L 186.067252 213.672575 
L 186.998215 215.778537 
L 187.806881 214.513272 
L 188.613975 217.562615 
L 189.530334 218.19213 
L 190.383561 216.571029 
L 191.287968 217.559381 
L 192.105314 216.215329 
L 192.954085 214.072079 
L 193.881983 213.448195 
L 194.680784 213.286708 
L 195.713439 211.447365 
L 196.535267 211.316153 
L 197.286158 212.550158 
L 198.208853 213.029393 
L 199.022027 213.743556 
L 199.914766 217.894197 
L 200.758565 228.620191 
L 201.586858 242.301637 
L 202.541854 249.089951 
L 203.362265 251.987662 
L 204.161632 258.62787 
L 205.09427 263.147035 
L 205.911333 267.979632 
L 206.839437 271.33039 
L 207.663815 271.687248 
L 208.513925 268.488218 
L 209.413516 249.046652 
L 210.241113 220.362985 
L 211.08754 199.728403 
L 211.992617 172.961121 
L 212.839095 154.715708 
L 213.846482 145.695014 
L 214.62702 141.719593 
L 215.389785 121.099855 
L 216.318122 120.08305 
L 217.141469 115.696384 
L 217.970844 112.556287 
L 219.721008 109.631936 
L 220.646795 110.290953 
L 221.467721 109.151303 
L 222.292047 108.54261 
L 223.22502 108.807313 
L 224.870221 109.929049 
L 226.620926 112.875132 
L 227.564717 115.886244 
L 228.40097 119.556005 
L 229.218882 125.506245 
L 230.14915 127.692477 
L 230.95063 131.255475 
L 231.880846 130.340338 
L 233.52731 147.063939 
L 234.475686 151.190582 
L 235.275053 155.856294 
L 236.129104 158.851737 
L 237.032712 162.879382 
L 237.849028 168.933955 
L 238.809124 172.433103 
L 239.609856 173.102088 
L 240.428361 174.802082 
L 242.203098 182.069623 
L 243.11173 188.149514 
L 243.933996 194.845203 
L 244.779624 198.4936 
L 245.707883 201.00152 
L 248.361347 201.645552 
L 249.091786 202.920922 
L 250.07017 203.629544 
L 250.832626 208.122126 
L 252.586808 220.206868 
L 253.408121 222.284392 
L 254.359098 226.59316 
L 255.164519 231.534465 
L 255.984157 234.240322 
L 256.937478 229.986978 
L 257.778032 215.095288 
L 258.564623 188.21111 
L 259.543059 160.129943 
L 260.364603 142.88815 
L 262.945688 113.971579 
L 264.396109 112.580148 
L 264.715686 103.583099 
L 266.418327 91.619104 
L 267.217024 93.256316 
L 268.209549 89.629984 
L 268.997892 89.171701 
L 269.824072 88.513356 
L 270.755371 88.995887 
L 271.81278 94.200312 
L 272.437921 91.775967 
L 273.306757 95.511022 
L 275.151581 119.128219 
L 275.879779 124.819968 
L 276.717628 136.14025 
L 277.728209 140.587512 
L 279.581302 155.087771 
L 280.302236 162.188306 
L 281.031362 161.66557 
L 281.958719 155.254604 
L 282.779723 152.142408 
L 283.807175 156.961953 
L 284.534266 162.307863 
L 285.35563 164.435213 
L 286.287186 169.106604 
L 287.120116 169.274722 
L 288.956182 173.352291 
L 289.686622 175.784139 
L 290.642802 177.159475 
L 291.440778 177.895787 
L 292.26307 179.02421 
L 294.013466 182.5803 
L 294.841501 184.026686 
L 295.774963 184.873823 
L 296.59674 185.288571 
L 298.368953 185.834823 
L 299.185294 184.826145 
L 300.097532 184.588083 
L 300.949651 183.506523 
L 301.740981 183.521829 
L 302.669086 191.540347 
L 303.490888 194.143359 
L 304.416237 198.727711 
L 306.066744 198.47828 
L 306.994848 186.370334 
L 307.817475 161.879366 
L 308.759282 156.134193 
L 309.569184 139.830644 
L 310.422128 125.906737 
L 311.334906 121.31584 
L 312.144757 108.695331 
L 312.964163 98.290389 
L 313.897523 90.440995 
L 314.715925 93.05422 
L 315.67329 89.738915 
L 316.483398 83.472615 
L 317.29464 73.301292 
L 318.220529 81.197942 
L 319.057193 80.922967 
L 319.86931 87.149676 
L 320.818588 89.773854 
L 323.397328 129.395293 
L 324.207617 138.632311 
L 325.144685 150.990778 
L 325.99106 164.211637 
L 326.88689 168.171143 
L 327.716291 173.321425 
L 328.534847 180.323513 
L 329.481626 189.581137 
L 330.311748 196.391237 
L 331.146507 200.487436 
L 332.064282 205.899384 
L 332.863752 207.49117 
L 334.661568 213.507023 
L 335.460832 212.26921 
L 336.358981 213.280794 
L 337.199148 209.587898 
L 338.135727 209.439576 
L 338.937129 210.875682 
L 339.766426 206.598465 
L 340.693732 205.100723 
L 341.511413 203.553056 
L 342.338084 195.801066 
L 345.014369 191.877825 
L 345.844027 191.280247 
L 346.663898 190.976266 
L 347.591049 192.090056 
L 348.41996 193.879925 
L 349.241531 195.219598 
L 350.166184 201.280149 
L 350.995971 218.282873 
L 351.916811 224.941651 
L 352.744409 216.925831 
L 353.570332 201.521414 
L 354.49277 177.553152 
L 355.341026 151.78984 
L 356.245897 131.173696 
L 357.070403 118.94001 
L 359.646594 90.163632 
L 360.468988 87.778898 
L 361.401163 77.015774 
L 363.160316 59.980441 
L 364.007644 54.384466 
L 364.796142 53.568 
L 365.723242 55.065737 
L 366.549423 55.921007 
L 367.375217 64.265539 
L 368.299535 77.036092 
L 369.126721 81.691339 
L 370.051786 94.369718 
L 371.699254 121.363372 
L 372.639052 131.427958 
L 373.451685 142.225219 
L 376.026536 188.885321 
L 376.955336 190.978192 
L 377.78229 192.212304 
L 378.604323 195.52887 
L 379.531964 194.030638 
L 380.356703 198.48434 
L 381.285348 201.240784 
L 382.105116 202.105076 
L 382.936139 204.010153 
L 383.858474 210.337783 
L 384.681306 212.980507 
L 385.639444 214.657802 
L 386.435102 212.769051 
L 387.257188 211.881063 
L 389.011937 209.252837 
L 389.835748 209.107597 
L 390.760968 209.508559 
L 391.611284 209.681228 
L 393.343417 211.514517 
L 394.163288 211.45952 
L 395.114883 209.873483 
L 395.913169 208.044988 
L 396.739118 206.921233 
L 397.672502 203.615665 
L 398.487273 196.986635 
L 398.487273 196.986635 
" clip-path="url(#pc82eeb74c7)" style="fill: none; stroke: #1f77b4; stroke-width: 1.5; stroke-linecap: square"/>
   </g>
   <g id="line2d_44">
    <path d="M 73.832727 114.759087 
L 74.655637 105.745605 
L 75.479088 101.455472 
L 76.417856 100.854324 
L 77.230952 103.608861 
L 78.159726 101.195204 
L 78.996931 101.466443 
L 79.807452 105.187585 
L 80.734912 106.989796 
L 81.562793 116.839381 
L 82.3839 128.946309 
L 83.329777 136.838954 
L 85.06562 159.476543 
L 85.887242 163.755962 
L 86.722773 174.702852 
L 87.636762 180.660803 
L 88.50024 189.924274 
L 89.397719 195.28752 
L 90.2154 208.250338 
L 91.068755 218.481923 
L 91.965512 218.399146 
L 92.790611 217.433245 
L 93.613701 217.446346 
L 94.541136 218.78898 
L 95.365797 214.949915 
L 96.294855 211.483292 
L 97.119362 211.636407 
L 97.946161 212.041617 
L 98.87442 213.36054 
L 99.699261 216.232589 
L 100.696242 216.508364 
L 103.209352 215.294644 
L 104.055418 214.727435 
L 104.843812 214.500606 
L 105.783534 211.902186 
L 106.603919 215.788802 
L 107.533002 216.462146 
L 108.365751 216.085472 
L 109.171841 218.21172 
L 110.104479 210.088338 
L 111.752334 184.685794 
L 112.684662 161.80533 
L 113.509349 156.499862 
L 114.449045 142.922734 
L 116.082964 130.501569 
L 117.008055 125.224246 
L 117.838795 122.336025 
L 118.757112 110.825357 
L 119.591638 105.601728 
L 120.406022 103.383126 
L 121.33016 103.148971 
L 122.979096 108.608789 
L 123.904702 111.328815 
L 124.728899 115.127174 
L 125.660636 127.607578 
L 126.479527 134.827746 
L 127.716777 137.650707 
L 128.232757 142.959685 
L 129.05971 157.895131 
L 129.90982 164.545474 
L 130.811652 170.471147 
L 132.617453 188.457783 
L 133.381815 189.429387 
L 134.2812 197.916926 
L 135.156295 199.359444 
L 135.961148 202.896002 
L 136.88745 206.381265 
L 138.53126 206.987464 
L 139.456377 212.074548 
L 140.282532 214.390255 
L 141.104102 206.07418 
L 142.031331 205.047465 
L 142.860242 202.874926 
L 143.810704 203.251058 
L 144.615403 205.070107 
L 145.437927 202.50099 
L 147.196333 200.838241 
L 148.147903 203.494013 
L 148.960845 204.08361 
L 149.768789 204.326397 
L 150.686693 202.641145 
L 151.535928 202.561423 
L 152.335475 200.648495 
L 153.261313 200.959492 
L 154.088163 205.671727 
L 155.012121 219.015633 
L 155.873925 222.439971 
L 156.671437 224.668577 
L 157.597816 210.524257 
L 158.416759 195.974298 
L 159.343447 174.461213 
L 160.988829 156.704036 
L 161.922085 142.098812 
L 162.741002 140.038512 
L 163.564272 138.792111 
L 164.49284 134.803399 
L 165.316471 136.392119 
L 166.243494 127.160188 
L 167.070911 114.515929 
L 167.892095 105.658401 
L 168.818989 101.064978 
L 169.646484 101.867583 
L 170.467255 101.22756 
L 171.393686 99.166405 
L 172.223962 101.626408 
L 173.177953 109.932027 
L 173.973663 120.116693 
L 174.795516 135.300325 
L 175.751001 137.380969 
L 177.374901 156.439683 
L 178.354341 163.375636 
L 179.122721 177.706307 
L 180.088458 185.556703 
L 181.698963 208.183826 
L 182.658441 228.399648 
L 183.459946 241.557073 
L 184.377206 244.459256 
L 185.240401 238.425304 
L 186.067252 242.731099 
L 186.998215 244.193003 
L 187.806881 241.801433 
L 188.613975 245.598761 
L 189.530334 247.303941 
L 190.383561 244.989724 
L 191.287968 245.029887 
L 192.954085 240.490464 
L 194.680784 239.117245 
L 195.713439 236.885824 
L 196.535267 236.865335 
L 197.286158 238.099034 
L 198.208853 238.202327 
L 199.022027 238.443545 
L 199.914766 243.189202 
L 200.758565 254.010991 
L 201.586858 267.632824 
L 202.541854 274.242243 
L 203.362265 276.704249 
L 204.161632 282.691546 
L 205.09427 287.443196 
L 205.911333 292.206192 
L 206.839437 295.223947 
L 207.663815 295.488 
L 208.513925 292.840161 
L 209.413516 273.894077 
L 210.241113 245.399292 
L 211.08754 224.706077 
L 211.992617 197.902434 
L 212.839095 177.55597 
L 213.846482 167.07378 
L 214.62702 161.74255 
L 215.389785 136.996495 
L 216.318122 133.566773 
L 217.970844 122.660215 
L 218.89238 120.851103 
L 219.721008 118.910943 
L 220.646795 118.867795 
L 221.467721 116.959345 
L 222.292047 116.151284 
L 223.22502 116.075233 
L 224.04453 116.546309 
L 224.870221 117.335036 
L 225.799356 119.65991 
L 226.620926 122.190871 
L 227.564717 127.201874 
L 228.40097 133.173495 
L 229.218882 141.130518 
L 230.14915 145.417555 
L 230.95063 151.391611 
L 231.880846 151.50144 
L 233.52731 172.622152 
L 234.475686 177.168936 
L 235.275053 183.182371 
L 236.129104 184.629881 
L 237.032712 187.858312 
L 237.849028 193.212726 
L 238.809124 195.690685 
L 239.609856 196.734695 
L 240.428361 198.812509 
L 242.203098 201.574698 
L 243.11173 205.525304 
L 243.933996 209.699875 
L 244.779624 212.494873 
L 245.707883 214.338362 
L 246.518145 212.516968 
L 247.54127 212.041131 
L 248.361347 211.867748 
L 249.091786 212.895019 
L 250.07017 213.572904 
L 251.656077 225.729325 
L 252.586808 232.877196 
L 253.408121 235.649052 
L 254.359098 239.677708 
L 255.164519 244.626216 
L 255.984157 247.880335 
L 256.937478 244.499541 
L 257.778032 232.857899 
L 259.543059 180.575835 
L 260.364603 161.977615 
L 262.078938 139.616852 
L 262.945688 125.744572 
L 264.396109 123.694465 
L 264.715686 113.297896 
L 265.50274 104.234557 
L 266.418327 97.535827 
L 267.217024 97.366708 
L 268.209549 93.38122 
L 269.824072 92.007291 
L 270.755371 92.695961 
L 271.81278 98.525443 
L 272.437921 97.379059 
L 273.306757 102.535462 
L 275.151581 133.250146 
L 275.879779 140.852362 
L 276.717628 155.175575 
L 277.728209 161.822269 
L 279.581302 178.099765 
L 280.302236 187.577458 
L 281.031362 186.467728 
L 281.958719 179.093425 
L 282.779723 171.562996 
L 283.807175 173.542471 
L 284.534266 176.876197 
L 285.35563 176.608428 
L 286.287186 180.918146 
L 287.120116 181.107339 
L 289.686622 187.360214 
L 290.642802 188.009894 
L 291.440778 188.705572 
L 292.26307 189.769247 
L 293.216211 191.679952 
L 294.013466 192.808064 
L 294.841501 193.118415 
L 295.774963 193.177021 
L 297.514876 193.663331 
L 298.368953 193.757347 
L 299.185294 192.220759 
L 300.097532 191.908947 
L 300.949651 190.880795 
L 301.740981 191.047652 
L 302.669086 201.51523 
L 304.416237 210.291814 
L 305.240614 210.461406 
L 306.066744 212.478043 
L 306.994848 201.803629 
L 307.817475 180.564291 
L 308.759282 174.339117 
L 310.422128 142.61933 
L 311.334906 135.91238 
L 312.964163 107.766472 
L 313.897523 97.404116 
L 314.715925 98.068194 
L 315.67329 94.12977 
L 316.483398 86.593488 
L 317.29464 75.736915 
L 318.220529 83.872856 
L 319.057193 83.661913 
L 319.86931 90.502656 
L 320.818588 97.022274 
L 323.397328 147.360177 
L 325.144685 171.897949 
L 325.99106 186.514979 
L 326.88689 189.787021 
L 327.716291 194.33236 
L 328.534847 201.155523 
L 330.311748 217.231908 
L 331.146507 220.188658 
L 332.064282 225.779571 
L 332.863752 226.942724 
L 334.661568 232.363727 
L 335.460832 230.383841 
L 336.358981 231.43534 
L 337.199148 227.311915 
L 338.135727 227.34061 
L 338.937129 229.121562 
L 339.766426 224.063429 
L 340.693732 221.945285 
L 341.511413 220.592437 
L 342.338084 213.457128 
L 343.269253 212.349035 
L 345.014369 209.806255 
L 345.844027 209.228491 
L 346.663898 209.186658 
L 347.591049 210.322089 
L 348.41996 212.268075 
L 349.241531 214.598815 
L 350.166184 220.979478 
L 350.995971 238.634168 
L 351.916811 246.275231 
L 352.744409 239.804862 
L 353.570332 224.250012 
L 354.49277 199.423435 
L 355.341026 173.472041 
L 356.245897 151.901385 
L 357.894343 123.390975 
L 358.820258 108.898845 
L 359.646594 97.763029 
L 360.468988 92.460412 
L 361.401163 80.477615 
L 363.160316 61.104755 
L 364.007644 55.362071 
L 364.796142 54.445538 
L 365.723242 56.326077 
L 366.549423 57.140963 
L 367.375217 66.850448 
L 368.299535 81.623853 
L 369.126721 90.462743 
L 370.051786 106.757057 
L 371.699254 140.297776 
L 372.639052 152.282134 
L 373.451685 164.672137 
L 376.026536 217.544535 
L 376.955336 219.67756 
L 377.78229 219.545708 
L 378.604323 221.001608 
L 379.531964 218.294993 
L 380.356703 221.466163 
L 381.285348 222.575122 
L 382.105116 220.426251 
L 382.936139 218.8811 
L 383.858474 224.170323 
L 384.681306 225.858437 
L 385.639444 227.072542 
L 386.435102 224.67926 
L 388.186142 220.860676 
L 389.011937 218.865906 
L 389.835748 218.564395 
L 390.760968 219.025068 
L 391.611284 218.39791 
L 393.343417 219.278712 
L 394.163288 219.261105 
L 395.114883 217.852182 
L 395.913169 216.164049 
L 396.739118 215.564184 
L 397.672502 214.480148 
L 398.487273 211.330055 
L 398.487273 211.330055 
" clip-path="url(#pc82eeb74c7)" style="fill: none; stroke: #ff7f0e; stroke-width: 1.5; stroke-linecap: square"/>
   </g>
   <g id="patch_3">
    <path d="M 57.6 307.584 
L 57.6 41.472 
" style="fill: none; stroke: #000000; stroke-width: 0.8; stroke-linejoin: miter; stroke-linecap: square"/>
   </g>
   <g id="patch_4">
    <path d="M 414.72 307.584 
L 414.72 41.472 
" style="fill: none; stroke: #000000; stroke-width: 0.8; stroke-linejoin: miter; stroke-linecap: square"/>
   </g>
   <g id="patch_5">
    <path d="M 57.6 307.584 
L 414.72 307.584 
" style="fill: none; stroke: #000000; stroke-width: 0.8; stroke-linejoin: miter; stroke-linecap: square"/>
   </g>
   <g id="patch_6">
    <path d="M 57.6 41.472 
L 414.72 41.472 
" style="fill: none; stroke: #000000; stroke-width: 0.8; stroke-linejoin: miter; stroke-linecap: square"/>
   </g>
   <g id="text_24">
    <!-- Angles in Thumb MCP joint to midhand -->
    <g transform="translate(119.547188 35.472) scale(0.12 -0.12)">
     <defs>
      <path id="DejaVuSans-41" d="M 2188 4044 
L 1331 1722 
L 3047 1722 
L 2188 4044 
z
M 1831 4666 
L 2547 4666 
L 4325 0 
L 3669 0 
L 3244 1197 
L 1141 1197 
L 716 0 
L 50 0 
L 1831 4666 
z
" transform="scale(0.015625)"/>
      <path id="DejaVuSans-54" d="M -19 4666 
L 3928 4666 
L 3928 4134 
L 2272 4134 
L 2272 0 
L 1638 0 
L 1638 4134 
L -19 4134 
L -19 4666 
z
" transform="scale(0.015625)"/>
      <path id="DejaVuSans-68" d="M 3513 2113 
L 3513 0 
L 2938 0 
L 2938 2094 
Q 2938 2591 2744 2837 
Q 2550 3084 2163 3084 
Q 1697 3084 1428 2787 
Q 1159 2491 1159 1978 
L 1159 0 
L 581 0 
L 581 4863 
L 1159 4863 
L 1159 2956 
Q 1366 3272 1645 3428 
Q 1925 3584 2291 3584 
Q 2894 3584 3203 3211 
Q 3513 2838 3513 2113 
z
" transform="scale(0.015625)"/>
      <path id="DejaVuSans-75" d="M 544 1381 
L 544 3500 
L 1119 3500 
L 1119 1403 
Q 1119 906 1312 657 
Q 1506 409 1894 409 
Q 2359 409 2629 706 
Q 2900 1003 2900 1516 
L 2900 3500 
L 3475 3500 
L 3475 0 
L 2900 0 
L 2900 538 
Q 2691 219 2414 64 
Q 2138 -91 1772 -91 
Q 1169 -91 856 284 
Q 544 659 544 1381 
z
M 1991 3584 
L 1991 3584 
z
" transform="scale(0.015625)"/>
      <path id="DejaVuSans-62" d="M 3116 1747 
Q 3116 2381 2855 2742 
Q 2594 3103 2138 3103 
Q 1681 3103 1420 2742 
Q 1159 2381 1159 1747 
Q 1159 1113 1420 752 
Q 1681 391 2138 391 
Q 2594 391 2855 752 
Q 3116 1113 3116 1747 
z
M 1159 2969 
Q 1341 3281 1617 3432 
Q 1894 3584 2278 3584 
Q 2916 3584 3314 3078 
Q 3713 2572 3713 1747 
Q 3713 922 3314 415 
Q 2916 -91 2278 -91 
Q 1894 -91 1617 61 
Q 1341 213 1159 525 
L 1159 0 
L 581 0 
L 581 4863 
L 1159 4863 
L 1159 2969 
z
" transform="scale(0.015625)"/>
      <path id="DejaVuSans-4d" d="M 628 4666 
L 1569 4666 
L 2759 1491 
L 3956 4666 
L 4897 4666 
L 4897 0 
L 4281 0 
L 4281 4097 
L 3078 897 
L 2444 897 
L 1241 4097 
L 1241 0 
L 628 0 
L 628 4666 
z
" transform="scale(0.015625)"/>
      <path id="DejaVuSans-43" d="M 4122 4306 
L 4122 3641 
Q 3803 3938 3442 4084 
Q 3081 4231 2675 4231 
Q 1875 4231 1450 3742 
Q 1025 3253 1025 2328 
Q 1025 1406 1450 917 
Q 1875 428 2675 428 
Q 3081 428 3442 575 
Q 3803 722 4122 1019 
L 4122 359 
Q 3791 134 3420 21 
Q 3050 -91 2638 -91 
Q 1578 -91 968 557 
Q 359 1206 359 2328 
Q 359 3453 968 4101 
Q 1578 4750 2638 4750 
Q 3056 4750 3426 4639 
Q 3797 4528 4122 4306 
z
" transform="scale(0.015625)"/>
      <path id="DejaVuSans-50" d="M 1259 4147 
L 1259 2394 
L 2053 2394 
Q 2494 2394 2734 2622 
Q 2975 2850 2975 3272 
Q 2975 3691 2734 3919 
Q 2494 4147 2053 4147 
L 1259 4147 
z
M 628 4666 
L 2053 4666 
Q 2838 4666 3239 4311 
Q 3641 3956 3641 3272 
Q 3641 2581 3239 2228 
Q 2838 1875 2053 1875 
L 1259 1875 
L 1259 0 
L 628 0 
L 628 4666 
z
" transform="scale(0.015625)"/>
      <path id="DejaVuSans-6a" d="M 603 3500 
L 1178 3500 
L 1178 -63 
Q 1178 -731 923 -1031 
Q 669 -1331 103 -1331 
L -116 -1331 
L -116 -844 
L 38 -844 
Q 366 -844 484 -692 
Q 603 -541 603 -63 
L 603 3500 
z
M 603 4863 
L 1178 4863 
L 1178 4134 
L 603 4134 
L 603 4863 
z
" transform="scale(0.015625)"/>
      <path id="DejaVuSans-6f" d="M 1959 3097 
Q 1497 3097 1228 2736 
Q 959 2375 959 1747 
Q 959 1119 1226 758 
Q 1494 397 1959 397 
Q 2419 397 2687 759 
Q 2956 1122 2956 1747 
Q 2956 2369 2687 2733 
Q 2419 3097 1959 3097 
z
M 1959 3584 
Q 2709 3584 3137 3096 
Q 3566 2609 3566 1747 
Q 3566 888 3137 398 
Q 2709 -91 1959 -91 
Q 1206 -91 779 398 
Q 353 888 353 1747 
Q 353 2609 779 3096 
Q 1206 3584 1959 3584 
z
" transform="scale(0.015625)"/>
      <path id="DejaVuSans-64" d="M 2906 2969 
L 2906 4863 
L 3481 4863 
L 3481 0 
L 2906 0 
L 2906 525 
Q 2725 213 2448 61 
Q 2172 -91 1784 -91 
Q 1150 -91 751 415 
Q 353 922 353 1747 
Q 353 2572 751 3078 
Q 1150 3584 1784 3584 
Q 2172 3584 2448 3432 
Q 2725 3281 2906 2969 
z
M 947 1747 
Q 947 1113 1208 752 
Q 1469 391 1925 391 
Q 2381 391 2643 752 
Q 2906 1113 2906 1747 
Q 2906 2381 2643 2742 
Q 2381 3103 1925 3103 
Q 1469 3103 1208 2742 
Q 947 2381 947 1747 
z
" transform="scale(0.015625)"/>
     </defs>
     <use xlink:href="#DejaVuSans-41"/>
     <use xlink:href="#DejaVuSans-6e" x="68.408203"/>
     <use xlink:href="#DejaVuSans-67" x="131.787109"/>
     <use xlink:href="#DejaVuSans-6c" x="195.263672"/>
     <use xlink:href="#DejaVuSans-65" x="223.046875"/>
     <use xlink:href="#DejaVuSans-73" x="284.570312"/>
     <use xlink:href="#DejaVuSans-20" x="336.669922"/>
     <use xlink:href="#DejaVuSans-69" x="368.457031"/>
     <use xlink:href="#DejaVuSans-6e" x="396.240234"/>
     <use xlink:href="#DejaVuSans-20" x="459.619141"/>
     <use xlink:href="#DejaVuSans-54" x="491.40625"/>
     <use xlink:href="#DejaVuSans-68" x="552.490234"/>
     <use xlink:href="#DejaVuSans-75" x="615.869141"/>
     <use xlink:href="#DejaVuSans-6d" x="679.248047"/>
     <use xlink:href="#DejaVuSans-62" x="776.660156"/>
     <use xlink:href="#DejaVuSans-20" x="840.136719"/>
     <use xlink:href="#DejaVuSans-4d" x="871.923828"/>
     <use xlink:href="#DejaVuSans-43" x="958.203125"/>
     <use xlink:href="#DejaVuSans-50" x="1028.027344"/>
     <use xlink:href="#DejaVuSans-20" x="1088.330078"/>
     <use xlink:href="#DejaVuSans-6a" x="1120.117188"/>
     <use xlink:href="#DejaVuSans-6f" x="1147.900391"/>
     <use xlink:href="#DejaVuSans-69" x="1209.082031"/>
     <use xlink:href="#DejaVuSans-6e" x="1236.865234"/>
     <use xlink:href="#DejaVuSans-74" x="1300.244141"/>
     <use xlink:href="#DejaVuSans-20" x="1339.453125"/>
     <use xlink:href="#DejaVuSans-74" x="1371.240234"/>
     <use xlink:href="#DejaVuSans-6f" x="1410.449219"/>
     <use xlink:href="#DejaVuSans-20" x="1471.630859"/>
     <use xlink:href="#DejaVuSans-6d" x="1503.417969"/>
     <use xlink:href="#DejaVuSans-69" x="1600.830078"/>
     <use xlink:href="#DejaVuSans-64" x="1628.613281"/>
     <use xlink:href="#DejaVuSans-68" x="1692.089844"/>
     <use xlink:href="#DejaVuSans-61" x="1755.46875"/>
     <use xlink:href="#DejaVuSans-6e" x="1816.748047"/>
     <use xlink:href="#DejaVuSans-64" x="1880.126953"/>
    </g>
   </g>
   <g id="legend_1">
    <g id="patch_7">
     <path d="M 269.385625 78.82825 
L 407.72 78.82825 
Q 409.72 78.82825 409.72 76.82825 
L 409.72 48.472 
Q 409.72 46.472 407.72 46.472 
L 269.385625 46.472 
Q 267.385625 46.472 267.385625 48.472 
L 267.385625 76.82825 
Q 267.385625 78.82825 269.385625 78.82825 
z
" style="fill: #ffffff; opacity: 0.8; stroke: #cccccc; stroke-linejoin: miter"/>
    </g>
    <g id="line2d_45">
     <path d="M 271.385625 54.570437 
L 281.385625 54.570437 
L 291.385625 54.570437 
" style="fill: none; stroke: #1f77b4; stroke-width: 1.5; stroke-linecap: square"/>
    </g>
    <g id="text_25">
     <!-- between vectors -->
     <g transform="translate(299.385625 58.070437) scale(0.1 -0.1)">
      <defs>
       <path id="DejaVuSans-77" d="M 269 3500 
L 844 3500 
L 1563 769 
L 2278 3500 
L 2956 3500 
L 3675 769 
L 4391 3500 
L 4966 3500 
L 4050 0 
L 3372 0 
L 2619 2869 
L 1863 0 
L 1184 0 
L 269 3500 
z
" transform="scale(0.015625)"/>
       <path id="DejaVuSans-76" d="M 191 3500 
L 800 3500 
L 1894 563 
L 2988 3500 
L 3597 3500 
L 2284 0 
L 1503 0 
L 191 3500 
z
" transform="scale(0.015625)"/>
       <path id="DejaVuSans-72" d="M 2631 2963 
Q 2534 3019 2420 3045 
Q 2306 3072 2169 3072 
Q 1681 3072 1420 2755 
Q 1159 2438 1159 1844 
L 1159 0 
L 581 0 
L 581 3500 
L 1159 3500 
L 1159 2956 
Q 1341 3275 1631 3429 
Q 1922 3584 2338 3584 
Q 2397 3584 2469 3576 
Q 2541 3569 2628 3553 
L 2631 2963 
z
" transform="scale(0.015625)"/>
      </defs>
      <use xlink:href="#DejaVuSans-62"/>
      <use xlink:href="#DejaVuSans-65" x="63.476562"/>
      <use xlink:href="#DejaVuSans-74" x="125"/>
      <use xlink:href="#DejaVuSans-77" x="164.208984"/>
      <use xlink:href="#DejaVuSans-65" x="245.996094"/>
      <use xlink:href="#DejaVuSans-65" x="307.519531"/>
      <use xlink:href="#DejaVuSans-6e" x="369.042969"/>
      <use xlink:href="#DejaVuSans-20" x="432.421875"/>
      <use xlink:href="#DejaVuSans-76" x="464.208984"/>
      <use xlink:href="#DejaVuSans-65" x="523.388672"/>
      <use xlink:href="#DejaVuSans-63" x="584.912109"/>
      <use xlink:href="#DejaVuSans-74" x="639.892578"/>
      <use xlink:href="#DejaVuSans-6f" x="679.101562"/>
      <use xlink:href="#DejaVuSans-72" x="740.283203"/>
      <use xlink:href="#DejaVuSans-73" x="781.396484"/>
     </g>
    </g>
    <g id="line2d_46">
     <path d="M 271.385625 69.248562 
L 281.385625 69.248562 
L 291.385625 69.248562 
" style="fill: none; stroke: #ff7f0e; stroke-width: 1.5; stroke-linecap: square"/>
    </g>
    <g id="text_26">
     <!-- around specified axis -->
     <g transform="translate(299.385625 72.748562) scale(0.1 -0.1)">
      <defs>
       <path id="DejaVuSans-70" d="M 1159 525 
L 1159 -1331 
L 581 -1331 
L 581 3500 
L 1159 3500 
L 1159 2969 
Q 1341 3281 1617 3432 
Q 1894 3584 2278 3584 
Q 2916 3584 3314 3078 
Q 3713 2572 3713 1747 
Q 3713 922 3314 415 
Q 2916 -91 2278 -91 
Q 1894 -91 1617 61 
Q 1341 213 1159 525 
z
M 3116 1747 
Q 3116 2381 2855 2742 
Q 2594 3103 2138 3103 
Q 1681 3103 1420 2742 
Q 1159 2381 1159 1747 
Q 1159 1113 1420 752 
Q 1681 391 2138 391 
Q 2594 391 2855 752 
Q 3116 1113 3116 1747 
z
" transform="scale(0.015625)"/>
       <path id="DejaVuSans-66" d="M 2375 4863 
L 2375 4384 
L 1825 4384 
Q 1516 4384 1395 4259 
Q 1275 4134 1275 3809 
L 1275 3500 
L 2222 3500 
L 2222 3053 
L 1275 3053 
L 1275 0 
L 697 0 
L 697 3053 
L 147 3053 
L 147 3500 
L 697 3500 
L 697 3744 
Q 697 4328 969 4595 
Q 1241 4863 1831 4863 
L 2375 4863 
z
" transform="scale(0.015625)"/>
       <path id="DejaVuSans-78" d="M 3513 3500 
L 2247 1797 
L 3578 0 
L 2900 0 
L 1881 1375 
L 863 0 
L 184 0 
L 1544 1831 
L 300 3500 
L 978 3500 
L 1906 2253 
L 2834 3500 
L 3513 3500 
z
" transform="scale(0.015625)"/>
      </defs>
      <use xlink:href="#DejaVuSans-61"/>
      <use xlink:href="#DejaVuSans-72" x="61.279297"/>
      <use xlink:href="#DejaVuSans-6f" x="100.142578"/>
      <use xlink:href="#DejaVuSans-75" x="161.324219"/>
      <use xlink:href="#DejaVuSans-6e" x="224.703125"/>
      <use xlink:href="#DejaVuSans-64" x="288.082031"/>
      <use xlink:href="#DejaVuSans-20" x="351.558594"/>
      <use xlink:href="#DejaVuSans-73" x="383.345703"/>
      <use xlink:href="#DejaVuSans-70" x="435.445312"/>
      <use xlink:href="#DejaVuSans-65" x="498.921875"/>
      <use xlink:href="#DejaVuSans-63" x="560.445312"/>
      <use xlink:href="#DejaVuSans-69" x="615.425781"/>
      <use xlink:href="#DejaVuSans-66" x="643.208984"/>
      <use xlink:href="#DejaVuSans-69" x="678.414062"/>
      <use xlink:href="#DejaVuSans-65" x="706.197266"/>
      <use xlink:href="#DejaVuSans-64" x="767.720703"/>
      <use xlink:href="#DejaVuSans-20" x="831.197266"/>
      <use xlink:href="#DejaVuSans-61" x="862.984375"/>
      <use xlink:href="#DejaVuSans-78" x="924.263672"/>
      <use xlink:href="#DejaVuSans-69" x="983.443359"/>
      <use xlink:href="#DejaVuSans-73" x="1011.226562"/>
     </g>
    </g>
   </g>
  </g>
 </g>
 <defs>
  <clipPath id="pc82eeb74c7">
   <rect x="57.6" y="41.472" width="357.12" height="266.112"/>
  </clipPath>
 </defs>
</svg>
