<?xml version="1.0" encoding="utf-8" standalone="no"?>
<!DOCTYPE svg PUBLIC "-//W3C//DTD SVG 1.1//EN"
  "http://www.w3.org/Graphics/SVG/1.1/DTD/svg11.dtd">
<svg xmlns:xlink="http://www.w3.org/1999/xlink" width="460.8pt" height="345.6pt" viewBox="0 0 460.8 345.6" xmlns="http://www.w3.org/2000/svg" version="1.1">
 <metadata>
  <rdf:RDF xmlns:dc="http://purl.org/dc/elements/1.1/" xmlns:cc="http://creativecommons.org/ns#" xmlns:rdf="http://www.w3.org/1999/02/22-rdf-syntax-ns#">
   <cc:Work>
    <dc:type rdf:resource="http://purl.org/dc/dcmitype/StillImage"/>
    <dc:date>2023-07-24T09:55:59.471780</dc:date>
    <dc:format>image/svg+xml</dc:format>
    <dc:creator>
     <cc:Agent>
      <dc:title>Matplotlib v3.7.1, https://matplotlib.org/</dc:title>
     </cc:Agent>
    </dc:creator>
   </cc:Work>
  </rdf:RDF>
 </metadata>
 <defs>
  <style type="text/css">*{stroke-linejoin: round; stroke-linecap: butt}</style>
 </defs>
 <g id="figure_1">
  <g id="patch_1">
   <path d="M 0 345.6 
L 460.8 345.6 
L 460.8 0 
L 0 0 
z
" style="fill: #ffffff"/>
  </g>
  <g id="axes_1">
   <g id="patch_2">
    <path d="M 57.6 307.584 
L 414.72 307.584 
L 414.72 41.472 
L 57.6 41.472 
z
" style="fill: #ffffff"/>
   </g>
   <g id="matplotlib.axis_1">
    <g id="xtick_1">
     <g id="line2d_1">
      <path d="M 67.08111 307.584 
L 67.08111 41.472 
" clip-path="url(#p990ee7f6bd)" style="fill: none; stroke: #b0b0b0; stroke-width: 0.8; stroke-linecap: square"/>
     </g>
     <g id="line2d_2">
      <defs>
       <path id="m104e69be3e" d="M 0 0 
L 0 3.5 
" style="stroke: #000000; stroke-width: 0.8"/>
      </defs>
      <g>
       <use xlink:href="#m104e69be3e" x="67.08111" y="307.584" style="stroke: #000000; stroke-width: 0.8"/>
      </g>
     </g>
     <g id="text_1">
      <!-- 30 -->
      <g transform="translate(60.71861 322.182437) scale(0.1 -0.1)">
       <defs>
        <path id="DejaVuSans-33" d="M 2597 2516 
Q 3050 2419 3304 2112 
Q 3559 1806 3559 1356 
Q 3559 666 3084 287 
Q 2609 -91 1734 -91 
Q 1441 -91 1130 -33 
Q 819 25 488 141 
L 488 750 
Q 750 597 1062 519 
Q 1375 441 1716 441 
Q 2309 441 2620 675 
Q 2931 909 2931 1356 
Q 2931 1769 2642 2001 
Q 2353 2234 1838 2234 
L 1294 2234 
L 1294 2753 
L 1863 2753 
Q 2328 2753 2575 2939 
Q 2822 3125 2822 3475 
Q 2822 3834 2567 4026 
Q 2313 4219 1838 4219 
Q 1578 4219 1281 4162 
Q 984 4106 628 3988 
L 628 4550 
Q 988 4650 1302 4700 
Q 1616 4750 1894 4750 
Q 2613 4750 3031 4423 
Q 3450 4097 3450 3541 
Q 3450 3153 3228 2886 
Q 3006 2619 2597 2516 
z
" transform="scale(0.015625)"/>
        <path id="DejaVuSans-30" d="M 2034 4250 
Q 1547 4250 1301 3770 
Q 1056 3291 1056 2328 
Q 1056 1369 1301 889 
Q 1547 409 2034 409 
Q 2525 409 2770 889 
Q 3016 1369 3016 2328 
Q 3016 3291 2770 3770 
Q 2525 4250 2034 4250 
z
M 2034 4750 
Q 2819 4750 3233 4129 
Q 3647 3509 3647 2328 
Q 3647 1150 3233 529 
Q 2819 -91 2034 -91 
Q 1250 -91 836 529 
Q 422 1150 422 2328 
Q 422 3509 836 4129 
Q 1250 4750 2034 4750 
z
" transform="scale(0.015625)"/>
       </defs>
       <use xlink:href="#DejaVuSans-33"/>
       <use xlink:href="#DejaVuSans-30" x="63.623047"/>
      </g>
     </g>
    </g>
    <g id="xtick_2">
     <g id="line2d_3">
      <path d="M 141.670765 307.584 
L 141.670765 41.472 
" clip-path="url(#p990ee7f6bd)" style="fill: none; stroke: #b0b0b0; stroke-width: 0.8; stroke-linecap: square"/>
     </g>
     <g id="line2d_4">
      <g>
       <use xlink:href="#m104e69be3e" x="141.670765" y="307.584" style="stroke: #000000; stroke-width: 0.8"/>
      </g>
     </g>
     <g id="text_2">
      <!-- 35 -->
      <g transform="translate(135.308265 322.182437) scale(0.1 -0.1)">
       <defs>
        <path id="DejaVuSans-35" d="M 691 4666 
L 3169 4666 
L 3169 4134 
L 1269 4134 
L 1269 2991 
Q 1406 3038 1543 3061 
Q 1681 3084 1819 3084 
Q 2600 3084 3056 2656 
Q 3513 2228 3513 1497 
Q 3513 744 3044 326 
Q 2575 -91 1722 -91 
Q 1428 -91 1123 -41 
Q 819 9 494 109 
L 494 744 
Q 775 591 1075 516 
Q 1375 441 1709 441 
Q 2250 441 2565 725 
Q 2881 1009 2881 1497 
Q 2881 1984 2565 2268 
Q 2250 2553 1709 2553 
Q 1456 2553 1204 2497 
Q 953 2441 691 2322 
L 691 4666 
z
" transform="scale(0.015625)"/>
       </defs>
       <use xlink:href="#DejaVuSans-33"/>
       <use xlink:href="#DejaVuSans-35" x="63.623047"/>
      </g>
     </g>
    </g>
    <g id="xtick_3">
     <g id="line2d_5">
      <path d="M 216.26042 307.584 
L 216.26042 41.472 
" clip-path="url(#p990ee7f6bd)" style="fill: none; stroke: #b0b0b0; stroke-width: 0.8; stroke-linecap: square"/>
     </g>
     <g id="line2d_6">
      <g>
       <use xlink:href="#m104e69be3e" x="216.26042" y="307.584" style="stroke: #000000; stroke-width: 0.8"/>
      </g>
     </g>
     <g id="text_3">
      <!-- 40 -->
      <g transform="translate(209.89792 322.182437) scale(0.1 -0.1)">
       <defs>
        <path id="DejaVuSans-34" d="M 2419 4116 
L 825 1625 
L 2419 1625 
L 2419 4116 
z
M 2253 4666 
L 3047 4666 
L 3047 1625 
L 3713 1625 
L 3713 1100 
L 3047 1100 
L 3047 0 
L 2419 0 
L 2419 1100 
L 313 1100 
L 313 1709 
L 2253 4666 
z
" transform="scale(0.015625)"/>
       </defs>
       <use xlink:href="#DejaVuSans-34"/>
       <use xlink:href="#DejaVuSans-30" x="63.623047"/>
      </g>
     </g>
    </g>
    <g id="xtick_4">
     <g id="line2d_7">
      <path d="M 290.850075 307.584 
L 290.850075 41.472 
" clip-path="url(#p990ee7f6bd)" style="fill: none; stroke: #b0b0b0; stroke-width: 0.8; stroke-linecap: square"/>
     </g>
     <g id="line2d_8">
      <g>
       <use xlink:href="#m104e69be3e" x="290.850075" y="307.584" style="stroke: #000000; stroke-width: 0.8"/>
      </g>
     </g>
     <g id="text_4">
      <!-- 45 -->
      <g transform="translate(284.487575 322.182437) scale(0.1 -0.1)">
       <use xlink:href="#DejaVuSans-34"/>
       <use xlink:href="#DejaVuSans-35" x="63.623047"/>
      </g>
     </g>
    </g>
    <g id="xtick_5">
     <g id="line2d_9">
      <path d="M 365.439729 307.584 
L 365.439729 41.472 
" clip-path="url(#p990ee7f6bd)" style="fill: none; stroke: #b0b0b0; stroke-width: 0.8; stroke-linecap: square"/>
     </g>
     <g id="line2d_10">
      <g>
       <use xlink:href="#m104e69be3e" x="365.439729" y="307.584" style="stroke: #000000; stroke-width: 0.8"/>
      </g>
     </g>
     <g id="text_5">
      <!-- 50 -->
      <g transform="translate(359.077229 322.182437) scale(0.1 -0.1)">
       <use xlink:href="#DejaVuSans-35"/>
       <use xlink:href="#DejaVuSans-30" x="63.623047"/>
      </g>
     </g>
    </g>
    <g id="text_6">
     <!-- time [sec] -->
     <g transform="translate(210.942813 335.860562) scale(0.1 -0.1)">
      <defs>
       <path id="DejaVuSans-74" d="M 1172 4494 
L 1172 3500 
L 2356 3500 
L 2356 3053 
L 1172 3053 
L 1172 1153 
Q 1172 725 1289 603 
Q 1406 481 1766 481 
L 2356 481 
L 2356 0 
L 1766 0 
Q 1100 0 847 248 
Q 594 497 594 1153 
L 594 3053 
L 172 3053 
L 172 3500 
L 594 3500 
L 594 4494 
L 1172 4494 
z
" transform="scale(0.015625)"/>
       <path id="DejaVuSans-69" d="M 603 3500 
L 1178 3500 
L 1178 0 
L 603 0 
L 603 3500 
z
M 603 4863 
L 1178 4863 
L 1178 4134 
L 603 4134 
L 603 4863 
z
" transform="scale(0.015625)"/>
       <path id="DejaVuSans-6d" d="M 3328 2828 
Q 3544 3216 3844 3400 
Q 4144 3584 4550 3584 
Q 5097 3584 5394 3201 
Q 5691 2819 5691 2113 
L 5691 0 
L 5113 0 
L 5113 2094 
Q 5113 2597 4934 2840 
Q 4756 3084 4391 3084 
Q 3944 3084 3684 2787 
Q 3425 2491 3425 1978 
L 3425 0 
L 2847 0 
L 2847 2094 
Q 2847 2600 2669 2842 
Q 2491 3084 2119 3084 
Q 1678 3084 1418 2786 
Q 1159 2488 1159 1978 
L 1159 0 
L 581 0 
L 581 3500 
L 1159 3500 
L 1159 2956 
Q 1356 3278 1631 3431 
Q 1906 3584 2284 3584 
Q 2666 3584 2933 3390 
Q 3200 3197 3328 2828 
z
" transform="scale(0.015625)"/>
       <path id="DejaVuSans-65" d="M 3597 1894 
L 3597 1613 
L 953 1613 
Q 991 1019 1311 708 
Q 1631 397 2203 397 
Q 2534 397 2845 478 
Q 3156 559 3463 722 
L 3463 178 
Q 3153 47 2828 -22 
Q 2503 -91 2169 -91 
Q 1331 -91 842 396 
Q 353 884 353 1716 
Q 353 2575 817 3079 
Q 1281 3584 2069 3584 
Q 2775 3584 3186 3129 
Q 3597 2675 3597 1894 
z
M 3022 2063 
Q 3016 2534 2758 2815 
Q 2500 3097 2075 3097 
Q 1594 3097 1305 2825 
Q 1016 2553 972 2059 
L 3022 2063 
z
" transform="scale(0.015625)"/>
       <path id="DejaVuSans-20" transform="scale(0.015625)"/>
       <path id="DejaVuSans-5b" d="M 550 4863 
L 1875 4863 
L 1875 4416 
L 1125 4416 
L 1125 -397 
L 1875 -397 
L 1875 -844 
L 550 -844 
L 550 4863 
z
" transform="scale(0.015625)"/>
       <path id="DejaVuSans-73" d="M 2834 3397 
L 2834 2853 
Q 2591 2978 2328 3040 
Q 2066 3103 1784 3103 
Q 1356 3103 1142 2972 
Q 928 2841 928 2578 
Q 928 2378 1081 2264 
Q 1234 2150 1697 2047 
L 1894 2003 
Q 2506 1872 2764 1633 
Q 3022 1394 3022 966 
Q 3022 478 2636 193 
Q 2250 -91 1575 -91 
Q 1294 -91 989 -36 
Q 684 19 347 128 
L 347 722 
Q 666 556 975 473 
Q 1284 391 1588 391 
Q 1994 391 2212 530 
Q 2431 669 2431 922 
Q 2431 1156 2273 1281 
Q 2116 1406 1581 1522 
L 1381 1569 
Q 847 1681 609 1914 
Q 372 2147 372 2553 
Q 372 3047 722 3315 
Q 1072 3584 1716 3584 
Q 2034 3584 2315 3537 
Q 2597 3491 2834 3397 
z
" transform="scale(0.015625)"/>
       <path id="DejaVuSans-63" d="M 3122 3366 
L 3122 2828 
Q 2878 2963 2633 3030 
Q 2388 3097 2138 3097 
Q 1578 3097 1268 2742 
Q 959 2388 959 1747 
Q 959 1106 1268 751 
Q 1578 397 2138 397 
Q 2388 397 2633 464 
Q 2878 531 3122 666 
L 3122 134 
Q 2881 22 2623 -34 
Q 2366 -91 2075 -91 
Q 1284 -91 818 406 
Q 353 903 353 1747 
Q 353 2603 823 3093 
Q 1294 3584 2113 3584 
Q 2378 3584 2631 3529 
Q 2884 3475 3122 3366 
z
" transform="scale(0.015625)"/>
       <path id="DejaVuSans-5d" d="M 1947 4863 
L 1947 -844 
L 622 -844 
L 622 -397 
L 1369 -397 
L 1369 4416 
L 622 4416 
L 622 4863 
L 1947 4863 
z
" transform="scale(0.015625)"/>
      </defs>
      <use xlink:href="#DejaVuSans-74"/>
      <use xlink:href="#DejaVuSans-69" x="39.208984"/>
      <use xlink:href="#DejaVuSans-6d" x="66.992188"/>
      <use xlink:href="#DejaVuSans-65" x="164.404297"/>
      <use xlink:href="#DejaVuSans-20" x="225.927734"/>
      <use xlink:href="#DejaVuSans-5b" x="257.714844"/>
      <use xlink:href="#DejaVuSans-73" x="296.728516"/>
      <use xlink:href="#DejaVuSans-65" x="348.828125"/>
      <use xlink:href="#DejaVuSans-63" x="410.351562"/>
      <use xlink:href="#DejaVuSans-5d" x="465.332031"/>
     </g>
    </g>
   </g>
   <g id="matplotlib.axis_2">
    <g id="ytick_1">
     <g id="line2d_11">
      <path d="M 57.6 279.033539 
L 414.72 279.033539 
" clip-path="url(#p990ee7f6bd)" style="fill: none; stroke: #b0b0b0; stroke-width: 0.8; stroke-linecap: square"/>
     </g>
     <g id="line2d_12">
      <defs>
       <path id="m09077f0c3a" d="M 0 0 
L -3.5 0 
" style="stroke: #000000; stroke-width: 0.8"/>
      </defs>
      <g>
       <use xlink:href="#m09077f0c3a" x="57.6" y="279.033539" style="stroke: #000000; stroke-width: 0.8"/>
      </g>
     </g>
     <g id="text_7">
      <!-- 20 -->
      <g transform="translate(37.875 282.832758) scale(0.1 -0.1)">
       <defs>
        <path id="DejaVuSans-32" d="M 1228 531 
L 3431 531 
L 3431 0 
L 469 0 
L 469 531 
Q 828 903 1448 1529 
Q 2069 2156 2228 2338 
Q 2531 2678 2651 2914 
Q 2772 3150 2772 3378 
Q 2772 3750 2511 3984 
Q 2250 4219 1831 4219 
Q 1534 4219 1204 4116 
Q 875 4013 500 3803 
L 500 4441 
Q 881 4594 1212 4672 
Q 1544 4750 1819 4750 
Q 2544 4750 2975 4387 
Q 3406 4025 3406 3419 
Q 3406 3131 3298 2873 
Q 3191 2616 2906 2266 
Q 2828 2175 2409 1742 
Q 1991 1309 1228 531 
z
" transform="scale(0.015625)"/>
       </defs>
       <use xlink:href="#DejaVuSans-32"/>
       <use xlink:href="#DejaVuSans-30" x="63.623047"/>
      </g>
     </g>
    </g>
    <g id="ytick_2">
     <g id="line2d_13">
      <path d="M 57.6 245.98424 
L 414.72 245.98424 
" clip-path="url(#p990ee7f6bd)" style="fill: none; stroke: #b0b0b0; stroke-width: 0.8; stroke-linecap: square"/>
     </g>
     <g id="line2d_14">
      <g>
       <use xlink:href="#m09077f0c3a" x="57.6" y="245.98424" style="stroke: #000000; stroke-width: 0.8"/>
      </g>
     </g>
     <g id="text_8">
      <!-- 40 -->
      <g transform="translate(37.875 249.783458) scale(0.1 -0.1)">
       <use xlink:href="#DejaVuSans-34"/>
       <use xlink:href="#DejaVuSans-30" x="63.623047"/>
      </g>
     </g>
    </g>
    <g id="ytick_3">
     <g id="line2d_15">
      <path d="M 57.6 212.93494 
L 414.72 212.93494 
" clip-path="url(#p990ee7f6bd)" style="fill: none; stroke: #b0b0b0; stroke-width: 0.8; stroke-linecap: square"/>
     </g>
     <g id="line2d_16">
      <g>
       <use xlink:href="#m09077f0c3a" x="57.6" y="212.93494" style="stroke: #000000; stroke-width: 0.8"/>
      </g>
     </g>
     <g id="text_9">
      <!-- 60 -->
      <g transform="translate(37.875 216.734159) scale(0.1 -0.1)">
       <defs>
        <path id="DejaVuSans-36" d="M 2113 2584 
Q 1688 2584 1439 2293 
Q 1191 2003 1191 1497 
Q 1191 994 1439 701 
Q 1688 409 2113 409 
Q 2538 409 2786 701 
Q 3034 994 3034 1497 
Q 3034 2003 2786 2293 
Q 2538 2584 2113 2584 
z
M 3366 4563 
L 3366 3988 
Q 3128 4100 2886 4159 
Q 2644 4219 2406 4219 
Q 1781 4219 1451 3797 
Q 1122 3375 1075 2522 
Q 1259 2794 1537 2939 
Q 1816 3084 2150 3084 
Q 2853 3084 3261 2657 
Q 3669 2231 3669 1497 
Q 3669 778 3244 343 
Q 2819 -91 2113 -91 
Q 1303 -91 875 529 
Q 447 1150 447 2328 
Q 447 3434 972 4092 
Q 1497 4750 2381 4750 
Q 2619 4750 2861 4703 
Q 3103 4656 3366 4563 
z
" transform="scale(0.015625)"/>
       </defs>
       <use xlink:href="#DejaVuSans-36"/>
       <use xlink:href="#DejaVuSans-30" x="63.623047"/>
      </g>
     </g>
    </g>
    <g id="ytick_4">
     <g id="line2d_17">
      <path d="M 57.6 179.88564 
L 414.72 179.88564 
" clip-path="url(#p990ee7f6bd)" style="fill: none; stroke: #b0b0b0; stroke-width: 0.8; stroke-linecap: square"/>
     </g>
     <g id="line2d_18">
      <g>
       <use xlink:href="#m09077f0c3a" x="57.6" y="179.88564" style="stroke: #000000; stroke-width: 0.8"/>
      </g>
     </g>
     <g id="text_10">
      <!-- 80 -->
      <g transform="translate(37.875 183.684859) scale(0.1 -0.1)">
       <defs>
        <path id="DejaVuSans-38" d="M 2034 2216 
Q 1584 2216 1326 1975 
Q 1069 1734 1069 1313 
Q 1069 891 1326 650 
Q 1584 409 2034 409 
Q 2484 409 2743 651 
Q 3003 894 3003 1313 
Q 3003 1734 2745 1975 
Q 2488 2216 2034 2216 
z
M 1403 2484 
Q 997 2584 770 2862 
Q 544 3141 544 3541 
Q 544 4100 942 4425 
Q 1341 4750 2034 4750 
Q 2731 4750 3128 4425 
Q 3525 4100 3525 3541 
Q 3525 3141 3298 2862 
Q 3072 2584 2669 2484 
Q 3125 2378 3379 2068 
Q 3634 1759 3634 1313 
Q 3634 634 3220 271 
Q 2806 -91 2034 -91 
Q 1263 -91 848 271 
Q 434 634 434 1313 
Q 434 1759 690 2068 
Q 947 2378 1403 2484 
z
M 1172 3481 
Q 1172 3119 1398 2916 
Q 1625 2713 2034 2713 
Q 2441 2713 2670 2916 
Q 2900 3119 2900 3481 
Q 2900 3844 2670 4047 
Q 2441 4250 2034 4250 
Q 1625 4250 1398 4047 
Q 1172 3844 1172 3481 
z
" transform="scale(0.015625)"/>
       </defs>
       <use xlink:href="#DejaVuSans-38"/>
       <use xlink:href="#DejaVuSans-30" x="63.623047"/>
      </g>
     </g>
    </g>
    <g id="ytick_5">
     <g id="line2d_19">
      <path d="M 57.6 146.83634 
L 414.72 146.83634 
" clip-path="url(#p990ee7f6bd)" style="fill: none; stroke: #b0b0b0; stroke-width: 0.8; stroke-linecap: square"/>
     </g>
     <g id="line2d_20">
      <g>
       <use xlink:href="#m09077f0c3a" x="57.6" y="146.83634" style="stroke: #000000; stroke-width: 0.8"/>
      </g>
     </g>
     <g id="text_11">
      <!-- 100 -->
      <g transform="translate(31.5125 150.635559) scale(0.1 -0.1)">
       <defs>
        <path id="DejaVuSans-31" d="M 794 531 
L 1825 531 
L 1825 4091 
L 703 3866 
L 703 4441 
L 1819 4666 
L 2450 4666 
L 2450 531 
L 3481 531 
L 3481 0 
L 794 0 
L 794 531 
z
" transform="scale(0.015625)"/>
       </defs>
       <use xlink:href="#DejaVuSans-31"/>
       <use xlink:href="#DejaVuSans-30" x="63.623047"/>
       <use xlink:href="#DejaVuSans-30" x="127.246094"/>
      </g>
     </g>
    </g>
    <g id="ytick_6">
     <g id="line2d_21">
      <path d="M 57.6 113.78704 
L 414.72 113.78704 
" clip-path="url(#p990ee7f6bd)" style="fill: none; stroke: #b0b0b0; stroke-width: 0.8; stroke-linecap: square"/>
     </g>
     <g id="line2d_22">
      <g>
       <use xlink:href="#m09077f0c3a" x="57.6" y="113.78704" style="stroke: #000000; stroke-width: 0.8"/>
      </g>
     </g>
     <g id="text_12">
      <!-- 120 -->
      <g transform="translate(31.5125 117.586259) scale(0.1 -0.1)">
       <use xlink:href="#DejaVuSans-31"/>
       <use xlink:href="#DejaVuSans-32" x="63.623047"/>
       <use xlink:href="#DejaVuSans-30" x="127.246094"/>
      </g>
     </g>
    </g>
    <g id="ytick_7">
     <g id="line2d_23">
      <path d="M 57.6 80.737741 
L 414.72 80.737741 
" clip-path="url(#p990ee7f6bd)" style="fill: none; stroke: #b0b0b0; stroke-width: 0.8; stroke-linecap: square"/>
     </g>
     <g id="line2d_24">
      <g>
       <use xlink:href="#m09077f0c3a" x="57.6" y="80.737741" style="stroke: #000000; stroke-width: 0.8"/>
      </g>
     </g>
     <g id="text_13">
      <!-- 140 -->
      <g transform="translate(31.5125 84.536959) scale(0.1 -0.1)">
       <use xlink:href="#DejaVuSans-31"/>
       <use xlink:href="#DejaVuSans-34" x="63.623047"/>
       <use xlink:href="#DejaVuSans-30" x="127.246094"/>
      </g>
     </g>
    </g>
    <g id="ytick_8">
     <g id="line2d_25">
      <path d="M 57.6 47.688441 
L 414.72 47.688441 
" clip-path="url(#p990ee7f6bd)" style="fill: none; stroke: #b0b0b0; stroke-width: 0.8; stroke-linecap: square"/>
     </g>
     <g id="line2d_26">
      <g>
       <use xlink:href="#m09077f0c3a" x="57.6" y="47.688441" style="stroke: #000000; stroke-width: 0.8"/>
      </g>
     </g>
     <g id="text_14">
      <!-- 160 -->
      <g transform="translate(31.5125 51.48766) scale(0.1 -0.1)">
       <use xlink:href="#DejaVuSans-31"/>
       <use xlink:href="#DejaVuSans-36" x="63.623047"/>
       <use xlink:href="#DejaVuSans-30" x="127.246094"/>
      </g>
     </g>
    </g>
    <g id="text_15">
     <!-- angle [°] -->
     <g transform="translate(25.432812 196.391281) rotate(-90) scale(0.1 -0.1)">
      <defs>
       <path id="DejaVuSans-61" d="M 2194 1759 
Q 1497 1759 1228 1600 
Q 959 1441 959 1056 
Q 959 750 1161 570 
Q 1363 391 1709 391 
Q 2188 391 2477 730 
Q 2766 1069 2766 1631 
L 2766 1759 
L 2194 1759 
z
M 3341 1997 
L 3341 0 
L 2766 0 
L 2766 531 
Q 2569 213 2275 61 
Q 1981 -91 1556 -91 
Q 1019 -91 701 211 
Q 384 513 384 1019 
Q 384 1609 779 1909 
Q 1175 2209 1959 2209 
L 2766 2209 
L 2766 2266 
Q 2766 2663 2505 2880 
Q 2244 3097 1772 3097 
Q 1472 3097 1187 3025 
Q 903 2953 641 2809 
L 641 3341 
Q 956 3463 1253 3523 
Q 1550 3584 1831 3584 
Q 2591 3584 2966 3190 
Q 3341 2797 3341 1997 
z
" transform="scale(0.015625)"/>
       <path id="DejaVuSans-6e" d="M 3513 2113 
L 3513 0 
L 2938 0 
L 2938 2094 
Q 2938 2591 2744 2837 
Q 2550 3084 2163 3084 
Q 1697 3084 1428 2787 
Q 1159 2491 1159 1978 
L 1159 0 
L 581 0 
L 581 3500 
L 1159 3500 
L 1159 2956 
Q 1366 3272 1645 3428 
Q 1925 3584 2291 3584 
Q 2894 3584 3203 3211 
Q 3513 2838 3513 2113 
z
" transform="scale(0.015625)"/>
       <path id="DejaVuSans-67" d="M 2906 1791 
Q 2906 2416 2648 2759 
Q 2391 3103 1925 3103 
Q 1463 3103 1205 2759 
Q 947 2416 947 1791 
Q 947 1169 1205 825 
Q 1463 481 1925 481 
Q 2391 481 2648 825 
Q 2906 1169 2906 1791 
z
M 3481 434 
Q 3481 -459 3084 -895 
Q 2688 -1331 1869 -1331 
Q 1566 -1331 1297 -1286 
Q 1028 -1241 775 -1147 
L 775 -588 
Q 1028 -725 1275 -790 
Q 1522 -856 1778 -856 
Q 2344 -856 2625 -561 
Q 2906 -266 2906 331 
L 2906 616 
Q 2728 306 2450 153 
Q 2172 0 1784 0 
Q 1141 0 747 490 
Q 353 981 353 1791 
Q 353 2603 747 3093 
Q 1141 3584 1784 3584 
Q 2172 3584 2450 3431 
Q 2728 3278 2906 2969 
L 2906 3500 
L 3481 3500 
L 3481 434 
z
" transform="scale(0.015625)"/>
       <path id="DejaVuSans-6c" d="M 603 4863 
L 1178 4863 
L 1178 0 
L 603 0 
L 603 4863 
z
" transform="scale(0.015625)"/>
       <path id="DejaVuSans-b0" d="M 1600 4347 
Q 1350 4347 1178 4173 
Q 1006 4000 1006 3750 
Q 1006 3503 1178 3333 
Q 1350 3163 1600 3163 
Q 1850 3163 2022 3333 
Q 2194 3503 2194 3750 
Q 2194 3997 2020 4172 
Q 1847 4347 1600 4347 
z
M 1600 4750 
Q 1800 4750 1984 4673 
Q 2169 4597 2303 4453 
Q 2447 4313 2519 4134 
Q 2591 3956 2591 3750 
Q 2591 3338 2302 3052 
Q 2013 2766 1594 2766 
Q 1172 2766 890 3047 
Q 609 3328 609 3750 
Q 609 4169 896 4459 
Q 1184 4750 1600 4750 
z
" transform="scale(0.015625)"/>
      </defs>
      <use xlink:href="#DejaVuSans-61"/>
      <use xlink:href="#DejaVuSans-6e" x="61.279297"/>
      <use xlink:href="#DejaVuSans-67" x="124.658203"/>
      <use xlink:href="#DejaVuSans-6c" x="188.134766"/>
      <use xlink:href="#DejaVuSans-65" x="215.917969"/>
      <use xlink:href="#DejaVuSans-20" x="277.441406"/>
      <use xlink:href="#DejaVuSans-5b" x="309.228516"/>
      <use xlink:href="#DejaVuSans-b0" x="348.242188"/>
      <use xlink:href="#DejaVuSans-5d" x="398.242188"/>
     </g>
    </g>
   </g>
   <g id="line2d_27">
    <path d="M 73.832727 234.53837 
L 74.311056 232.286275 
L 74.846281 234.053658 
L 75.802998 233.954986 
L 76.352246 232.271264 
L 76.816433 226.448161 
L 77.298953 227.67452 
L 77.846024 227.273775 
L 78.313805 227.075697 
L 78.850776 223.902906 
L 79.336235 224.631928 
L 79.805434 225.030711 
L 80.342927 226.516001 
L 80.84414 226.31236 
L 81.297451 228.801839 
L 81.830603 228.280617 
L 82.320224 228.324463 
L 82.847663 227.036986 
L 83.350591 227.741311 
L 83.81239 227.124217 
L 84.338546 228.800525 
L 84.817799 225.335508 
L 85.366317 225.458749 
L 86.307176 227.940324 
L 86.856827 228.650939 
L 87.324071 227.164629 
L 87.799193 230.304534 
L 88.347098 234.700779 
L 88.81491 237.267 
L 89.826659 240.893748 
L 90.845464 253.427815 
L 91.320749 252.271512 
L 91.885826 256.760821 
L 92.337153 257.199155 
L 92.813527 268.950981 
L 93.829438 271.80789 
L 94.303873 268.222423 
L 95.352678 270.123066 
L 95.869883 271.32824 
L 96.331712 275.972048 
L 96.805565 273.962337 
L 97.374371 277.204196 
L 97.870526 277.333693 
L 98.302401 276.934031 
L 98.880008 273.021996 
L 99.855506 272.496262 
L 101.414684 238.826693 
L 101.910302 232.229597 
L 102.370759 227.630514 
L 102.835303 228.23666 
L 103.339619 228.581908 
L 103.86288 226.230893 
L 104.323636 225.889278 
L 104.821432 226.178507 
L 105.341769 224.872321 
L 105.845995 226.62303 
L 106.353578 226.458978 
L 106.833652 225.721324 
L 107.307863 225.871936 
L 107.844983 224.040558 
L 108.323536 223.472641 
L 108.799955 222.684782 
L 109.336955 222.876435 
L 109.817208 223.25447 
L 110.35124 223.341034 
L 111.308882 223.703878 
L 111.843392 223.940945 
L 112.319781 225.969258 
L 112.857662 224.512856 
L 113.335617 224.250554 
L 114.365313 224.182339 
L 114.826038 223.716496 
L 115.303248 224.71615 
L 115.83998 224.295253 
L 116.317965 224.739865 
L 116.854877 225.487475 
L 117.332549 225.20896 
L 117.809922 225.707447 
L 118.347013 226.840918 
L 118.84199 226.880585 
L 119.489443 231.956342 
L 119.931789 231.696272 
L 120.31891 237.76197 
L 120.859804 242.843806 
L 121.805228 245.384027 
L 121.944755 251.124717 
L 122.359489 248.390733 
L 122.843068 255.356435 
L 123.37619 254.694408 
L 124.315155 264.535759 
L 124.852752 265.390788 
L 125.343403 267.298701 
L 125.806262 268.231954 
L 126.3428 268.995574 
L 126.823142 265.050781 
L 127.357458 268.640745 
L 127.834325 269.383444 
L 128.313474 271.290826 
L 128.850027 271.652769 
L 129.327415 276.466325 
L 129.865461 280.022141 
L 131.392162 277.558889 
L 131.832584 256.568522 
L 132.312076 247.351618 
L 132.849554 232.852278 
L 133.324944 229.34728 
L 133.861318 228.031096 
L 134.341675 227.41286 
L 134.816244 227.395978 
L 135.356333 227.629423 
L 135.830142 227.259382 
L 136.308858 225.313734 
L 137.32371 225.157017 
L 137.875405 226.625317 
L 138.336831 225.183265 
L 138.813996 226.250837 
L 139.366691 226.212079 
L 140.380319 226.453083 
L 140.849056 226.302066 
L 141.32082 228.015039 
L 142.3397 227.890304 
L 142.812822 226.821764 
L 143.364159 226.687942 
L 143.829345 226.405334 
L 144.378758 226.243457 
L 144.841542 225.07336 
L 145.857035 226.149063 
L 146.333245 225.514958 
L 146.870962 225.974433 
L 147.347277 225.785872 
L 148.362412 226.183467 
L 149.317443 224.947498 
L 149.852698 225.070865 
L 150.33049 226.449947 
L 151.346804 238.831727 
L 151.823282 239.336746 
L 152.375022 244.760855 
L 153.314747 247.417802 
L 153.851196 254.154353 
L 154.345218 253.091927 
L 155.343467 263.187635 
L 155.822049 264.475108 
L 156.834096 268.26209 
L 157.372842 269.511954 
L 157.863896 270.114351 
L 158.327575 274.623149 
L 159.344411 272.421141 
L 159.818786 275.263489 
L 160.356309 272.318018 
L 160.839158 276.17384 
L 161.385273 271.812015 
L 161.848535 274.305585 
L 162.338977 273.900034 
L 162.8765 265.083876 
L 163.340134 248.142557 
L 163.831053 235.745312 
L 164.384762 232.420043 
L 164.838267 230.66272 
L 165.398197 225.051854 
L 165.860205 224.309357 
L 166.334924 223.974292 
L 166.860408 223.461445 
L 167.352849 227.958604 
L 167.879705 225.516184 
L 168.355841 225.737866 
L 168.829023 224.50105 
L 169.844755 225.059669 
L 170.334928 223.201708 
L 170.857608 223.231682 
L 171.335339 225.285324 
L 171.889257 224.192598 
L 172.349982 224.247199 
L 172.826237 224.569444 
L 173.379066 224.623894 
L 173.852919 224.556455 
L 174.869875 224.592451 
L 175.345264 223.738635 
L 175.882131 223.697905 
L 176.360623 223.884505 
L 176.83749 224.939396 
L 177.374864 225.537957 
L 177.854147 225.436234 
L 178.398353 225.808345 
L 178.866478 224.407607 
L 179.895442 224.208236 
L 180.418718 225.053153 
L 180.837107 225.465308 
L 181.374898 225.485182 
L 181.850616 231.002896 
L 182.388915 233.345265 
L 182.866751 237.810828 
L 183.342991 241.066302 
L 184.382935 253.32241 
L 184.892979 249.30389 
L 185.371829 240.612784 
L 185.852948 247.102964 
L 186.402062 262.975703 
L 186.877616 263.294406 
L 187.363135 271.100135 
L 187.878728 266.475036 
L 188.357146 268.727399 
L 190.859196 271.739927 
L 191.338345 279.915214 
L 192.888214 279.588395 
L 193.366841 279.418483 
L 193.8432 274.879289 
L 194.379903 254.754676 
L 194.862125 241.506685 
L 195.871994 227.121156 
L 196.364465 225.766213 
L 196.887115 225.383639 
L 197.362922 225.942232 
L 198.07861 225.313043 
L 198.382578 225.563016 
L 198.855476 225.678535 
L 199.396355 223.351025 
L 200.89243 223.124897 
L 201.369177 222.928375 
L 201.9131 223.152147 
L 202.855152 222.879852 
L 203.392601 222.896652 
L 203.872436 222.595104 
L 204.884752 222.528677 
L 205.369316 223.181256 
L 206.375859 223.457829 
L 206.856201 223.954006 
L 207.39165 224.196043 
L 207.867144 224.268401 
L 208.331465 224.177225 
L 208.882071 224.765191 
L 209.89658 224.18807 
L 210.375401 224.711192 
L 210.851477 225.460239 
L 211.390163 224.792279 
L 211.868581 225.12898 
L 212.402076 226.100403 
L 212.881792 227.499197 
L 213.358718 229.622939 
L 213.894168 232.558643 
L 214.373048 233.124357 
L 214.849184 238.669566 
L 215.386856 242.67096 
L 215.863946 256.10668 
L 216.441792 260.399932 
L 216.877724 257.391558 
L 217.355217 260.080065 
L 218.846488 266.786856 
L 219.384906 267.917916 
L 219.861325 269.222425 
L 220.404189 268.96619 
L 220.879817 271.7104 
L 221.353715 271.75436 
L 221.897951 270.41656 
L 222.369581 272.220598 
L 222.919844 272.58366 
L 223.386701 273.853967 
L 223.901921 281.010149 
L 224.418082 280.878671 
L 224.897768 281.9689 
L 225.353138 262.663703 
L 225.925568 247.582108 
L 226.953921 229.493406 
L 227.395387 227.024748 
L 227.871762 226.658753 
L 228.397857 225.327569 
L 228.902262 226.021584 
L 229.408622 225.514751 
L 229.885861 225.218008 
L 230.3968 225.140124 
L 230.904025 225.594615 
L 231.380011 225.53662 
L 231.885237 223.367323 
L 232.887812 222.954825 
L 233.410581 223.151856 
L 233.884851 222.555782 
L 234.361629 223.348614 
L 235.407361 223.38226 
L 235.87101 223.008418 
L 236.885847 223.156327 
L 237.42146 222.762161 
L 237.898163 223.69523 
L 238.367824 223.567771 
L 238.895904 223.950143 
L 239.376246 223.935194 
L 239.912725 224.075506 
L 240.387682 223.960251 
L 240.867666 224.249732 
L 241.40228 224.17002 
L 242.361399 225.538897 
L 242.896595 226.796338 
L 243.356649 227.472397 
L 243.911178 226.883791 
L 244.386702 228.663028 
L 244.849098 231.427023 
L 245.401285 231.65784 
L 245.878137 240.766553 
L 246.355421 247.029516 
L 246.891766 248.966417 
L 247.370258 258.798423 
L 247.906677 252.843321 
L 248.384454 258.180662 
L 248.863051 261.863551 
L 249.398769 263.782067 
L 249.875083 266.364694 
L 250.415262 267.515759 
L 250.892456 268.118116 
L 251.367324 269.053532 
L 251.908934 269.233906 
L 252.383414 271.73779 
L 252.844975 272.157958 
L 253.399788 272.425307 
L 253.874208 272.434607 
L 254.396723 272.01137 
L 255.365807 272.710409 
L 255.888352 272.980987 
L 256.387596 279.747891 
L 256.917749 251.473882 
L 257.380697 249.714887 
L 257.881582 232.267767 
L 259.367363 223.508663 
L 259.900783 226.42811 
L 260.365432 226.649709 
L 260.924616 228.738719 
L 261.394799 225.65889 
L 261.855077 225.1097 
L 262.4071 225.135259 
L 262.88519 224.899433 
L 263.347482 226.958965 
L 264.377013 226.22633 
L 264.913656 226.133076 
L 265.406529 224.832425 
L 265.868045 224.550933 
L 266.422112 224.439955 
L 267.441693 224.536614 
L 268.393755 224.492697 
L 268.938424 224.888512 
L 269.406683 224.979695 
L 269.878268 224.870199 
L 270.428591 223.946978 
L 270.897342 223.61865 
L 271.427227 224.155316 
L 271.897157 225.687233 
L 272.396236 224.630463 
L 272.909875 224.377999 
L 273.417562 225.278003 
L 273.877781 226.396245 
L 274.399953 224.610944 
L 274.884428 226.374016 
L 275.41561 227.623143 
L 275.892686 229.116668 
L 276.377384 235.192928 
L 276.92902 214.150217 
L 277.401127 243.862718 
L 278.397317 255.61622 
L 278.991841 263.55961 
L 279.427818 258.66619 
L 279.90367 258.875848 
L 280.377225 262.920721 
L 281.385229 268.272243 
L 282.413657 268.621631 
L 282.873159 271.211517 
L 283.410696 272.147858 
L 283.887951 271.750414 
L 284.427025 272.07231 
L 284.903056 271.93702 
L 285.379595 270.635728 
L 285.91855 277.682083 
L 286.393984 272.139236 
L 286.871343 272.606286 
L 287.416489 280.822161 
L 287.885777 263.319306 
L 288.422763 251.434383 
L 288.902897 237.615084 
L 289.914004 229.806612 
L 290.86917 227.488938 
L 291.406946 226.652031 
L 291.887662 226.578523 
L 292.42056 226.09666 
L 292.897397 226.390613 
L 293.379156 226.368312 
L 293.915799 223.768147 
L 294.389742 224.067907 
L 294.9271 223.718787 
L 295.884414 223.442349 
L 296.898624 223.309569 
L 297.373522 223.610585 
L 298.387956 223.809224 
L 298.926747 223.613397 
L 299.401943 224.209265 
L 300.416034 223.706639 
L 300.894526 224.366231 
L 301.371841 224.099045 
L 302.386663 224.193907 
L 302.93157 224.75258 
L 303.878322 224.884898 
L 304.417948 225.181545 
L 304.89283 228.134317 
L 305.451089 226.093778 
L 305.92906 226.508673 
L 306.386339 226.64779 
L 306.941137 228.228559 
L 307.438724 233.058714 
L 307.876685 233.95534 
L 308.440687 239.286638 
L 308.904948 240.129986 
L 309.447842 249.633302 
L 309.925946 238.553524 
L 310.407423 254.747539 
L 311.425198 263.474575 
L 311.948639 264.685732 
L 312.42737 266.313159 
L 312.908011 269.518793 
L 313.430109 271.107808 
L 313.920312 272.117676 
L 314.402206 270.906821 
L 314.925542 272.297133 
L 315.414984 278.306544 
L 315.932233 272.13616 
L 316.409801 272.17656 
L 316.888279 273.727061 
L 317.901102 272.674411 
L 318.382727 280.922793 
L 318.914626 277.763865 
L 319.410647 251.555419 
L 319.932507 246.411348 
L 320.406315 233.081077 
L 320.890476 227.73179 
L 321.423971 225.824702 
L 321.8986 227.084721 
L 322.436988 226.624895 
L 322.927863 226.692466 
L 323.390468 224.196347 
L 323.927379 224.22539 
L 324.412958 225.512777 
L 324.883663 225.690378 
L 325.419217 225.473637 
L 325.898336 223.89548 
L 326.435277 224.371297 
L 328.881654 224.336253 
L 329.417536 223.995266 
L 330.431672 223.763659 
L 330.908523 224.029219 
L 331.386479 223.987813 
L 331.925553 224.551392 
L 332.463404 224.63918 
L 332.937824 223.616038 
L 333.415183 224.738175 
L 334.429453 224.322892 
L 334.907409 226.828802 
L 335.383888 227.110505 
L 335.921157 225.409918 
L 336.399217 227.001506 
L 336.940484 230.600705 
L 337.414337 230.883163 
L 337.890443 233.26085 
L 338.437872 234.516721 
L 338.905146 236.659207 
L 339.441341 237.415621 
L 339.921639 239.169444 
L 340.402593 249.943973 
L 340.934238 250.513484 
L 341.413223 255.505688 
L 341.888747 265.9189 
L 342.534365 262.574451 
L 342.905613 264.537321 
L 343.440659 266.081961 
L 343.916825 269.721169 
L 344.396809 270.315047 
L 344.93475 270.245215 
L 345.409886 269.297252 
L 345.955166 271.387281 
L 346.426886 277.979252 
L 346.901351 272.001682 
L 347.444617 272.479433 
L 347.919201 272.523013 
L 348.393398 268.573988 
L 349.407817 281.55684 
L 349.952724 281.829931 
L 350.426234 255.502227 
L 350.902325 248.489814 
L 351.436984 232.336771 
L 351.927172 226.250035 
L 352.39115 224.653243 
L 352.937504 229.723121 
L 353.41619 224.072817 
L 353.982579 224.323766 
L 354.432027 224.022728 
L 354.906924 224.050406 
L 355.488112 223.235813 
L 356.409652 223.666566 
L 356.931944 223.391038 
L 357.553216 223.286346 
L 358.422812 223.523354 
L 359.457848 223.477786 
L 359.931985 226.006848 
L 360.453083 226.393373 
L 360.962262 226.474779 
L 361.409188 226.062797 
L 361.942534 226.007474 
L 362.403513 226.139393 
L 362.904099 224.085668 
L 363.42005 224.909448 
L 364.432814 228.059383 
L 364.914946 224.405659 
L 365.403912 228.14786 
L 365.923772 227.781375 
L 366.402339 227.812689 
L 366.953437 225.774794 
L 367.627548 225.173737 
L 367.902277 229.70167 
L 368.445961 229.164335 
L 368.907641 229.113521 
L 369.400201 231.165401 
L 369.921852 53.568 
L 370.400135 53.736897 
L 370.938911 53.719396 
L 371.414972 238.558402 
L 371.893405 241.151332 
L 372.429959 256.041706 
L 372.937362 255.303016 
L 373.382767 267.699641 
L 373.922408 270.869931 
L 374.399126 272.015618 
L 374.934694 275.358818 
L 375.457836 276.896411 
L 376.9031 278.863212 
L 377.9174 279.640262 
L 378.395565 279.992553 
L 378.934773 280.2083 
L 379.409328 280.224932 
L 379.886776 280.494163 
L 380.439739 280.235533 
L 380.901255 280.28623 
L 381.438688 276.29064 
L 381.917345 254.746076 
L 382.394107 242.542973 
L 382.931153 238.399985 
L 384.421961 234.88213 
L 384.915178 232.024928 
L 385.438394 230.670739 
L 385.914694 230.326799 
L 386.393336 231.765432 
L 387.405697 230.303635 
L 388.419713 231.329002 
L 388.92112 231.420008 
L 389.534202 229.62808 
L 389.936598 226.70516 
L 390.389253 226.22842 
L 390.925418 224.601229 
L 391.406149 225.30559 
L 391.964184 225.250006 
L 392.8956 224.775053 
L 393.440029 225.113405 
L 393.911496 224.889977 
L 394.463295 224.803964 
L 394.941385 224.588498 
L 395.401618 224.732385 
L 396.917638 224.519027 
L 397.446464 223.613371 
L 397.939501 223.349094 
L 398.487273 224.973391 
L 398.487273 224.973391 
" clip-path="url(#p990ee7f6bd)" style="fill: none; stroke: #ff0000; stroke-width: 1.5; stroke-linecap: square"/>
   </g>
   <g id="line2d_28">
    <path d="M 73.832727 257.823615 
L 75.802998 261.297269 
L 76.816433 263.034096 
L 77.846024 262.355008 
L 78.313805 262.46257 
L 78.850776 266.562679 
L 79.336235 265.468131 
L 79.805434 264.903103 
L 80.342927 262.545145 
L 80.84414 264.123577 
L 81.297451 260.643837 
L 81.830603 260.776992 
L 82.320224 260.686827 
L 82.847663 262.503546 
L 83.350591 261.243518 
L 83.81239 261.617889 
L 84.338546 260.523656 
L 84.817799 263.389074 
L 85.366317 264.466954 
L 85.829712 263.420712 
L 86.307176 263.373611 
L 86.856827 264.738639 
L 87.324071 267.397973 
L 88.347098 269.07102 
L 88.81491 267.746237 
L 89.353954 264.904687 
L 89.826659 273.900229 
L 90.30724 276.702316 
L 90.845464 278.619186 
L 91.320749 286.935239 
L 91.885826 287.175577 
L 92.337153 289.812119 
L 92.813527 286.169484 
L 93.38645 286.908066 
L 93.829438 287.076112 
L 94.303873 290.598687 
L 95.869883 289.187851 
L 96.331712 288.717573 
L 96.805565 290.352409 
L 97.374371 288.288052 
L 97.870526 288.423932 
L 98.302401 288.757157 
L 99.339943 289.190766 
L 99.855506 288.745643 
L 100.357346 290.098915 
L 100.840299 281.346057 
L 101.414684 276.944258 
L 101.910302 271.481882 
L 102.370759 270.150683 
L 102.835303 267.507604 
L 103.339619 266.202538 
L 103.86288 267.73212 
L 104.323636 268.570479 
L 104.821432 268.356502 
L 105.341769 269.166209 
L 105.845995 267.452377 
L 106.353578 267.089472 
L 106.833652 267.260468 
L 107.307863 266.953988 
L 107.844983 268.117815 
L 108.323536 268.530346 
L 108.799955 269.246675 
L 109.336955 268.897402 
L 109.817208 268.840355 
L 111.843392 268.124668 
L 112.319781 266.687298 
L 112.857662 267.506189 
L 113.810813 267.694183 
L 114.365313 267.590335 
L 114.826038 267.874657 
L 115.303248 267.227723 
L 115.83998 267.11294 
L 116.317965 266.556941 
L 116.854877 265.729777 
L 117.332549 267.423765 
L 117.809922 268.675038 
L 118.347013 267.075523 
L 118.84199 269.938124 
L 119.489443 267.432432 
L 119.931789 271.452244 
L 120.31891 268.271952 
L 120.859804 276.023202 
L 121.805228 275.324979 
L 122.359489 286.720566 
L 122.843068 287.272029 
L 123.37619 287.436994 
L 123.85252 287.782196 
L 124.315155 290.661988 
L 129.327415 289.236353 
L 129.865461 287.158143 
L 130.341029 286.774474 
L 130.828905 286.178079 
L 131.392162 286.309909 
L 131.832584 284.267184 
L 132.312076 276.234284 
L 132.849554 273.815572 
L 133.324944 268.430495 
L 133.861318 267.034467 
L 134.341675 267.357257 
L 134.816244 267.207312 
L 135.356333 266.485977 
L 135.830142 266.444498 
L 136.308858 267.398484 
L 136.847007 267.067181 
L 137.32371 267.046514 
L 137.875405 264.794109 
L 138.336831 266.399677 
L 138.813996 264.856144 
L 139.366691 264.918921 
L 139.828058 264.774602 
L 140.849056 264.90602 
L 141.32082 263.80281 
L 142.3397 263.858997 
L 142.812822 264.201993 
L 143.364159 264.318181 
L 143.829345 264.590201 
L 144.378758 264.613601 
L 144.841542 266.120207 
L 145.321257 265.766959 
L 145.857035 264.946306 
L 146.333245 265.733058 
L 146.870962 265.357914 
L 147.347277 265.577849 
L 147.826187 265.633869 
L 148.362412 265.493446 
L 149.317443 269.62006 
L 149.852698 270.066346 
L 150.33049 271.000235 
L 150.867491 270.792891 
L 151.346804 268.463624 
L 151.823282 271.147543 
L 152.375022 271.618669 
L 153.314747 284.983672 
L 153.851196 285.89693 
L 154.345218 288.332457 
L 154.86845 288.834154 
L 155.343467 290.151191 
L 158.327575 288.096269 
L 158.864665 288.793389 
L 159.344411 287.895867 
L 159.818786 288.547528 
L 160.356309 288.95325 
L 160.839158 288.165971 
L 161.848535 290.081675 
L 162.338977 289.164091 
L 162.8765 285.236785 
L 163.340134 283.973013 
L 164.384762 271.794506 
L 164.838267 265.800569 
L 165.398197 268.818997 
L 166.860408 269.307802 
L 167.352849 264.721749 
L 167.879705 267.942338 
L 168.355841 267.318276 
L 168.829023 267.868428 
L 169.844755 266.704652 
L 170.334928 267.918395 
L 170.857608 267.8299 
L 171.335339 266.323326 
L 171.889257 266.778283 
L 172.349982 266.650758 
L 172.826237 266.347137 
L 173.852919 266.269018 
L 174.869875 266.353156 
L 175.345264 267.69571 
L 175.882131 267.806904 
L 176.360623 267.53962 
L 176.83749 266.196788 
L 177.374864 265.780413 
L 177.854147 265.78391 
L 178.398353 265.278052 
L 178.866478 266.844151 
L 179.342957 266.999899 
L 180.418718 268.10216 
L 180.837107 268.320721 
L 181.374898 270.13048 
L 181.850616 268.2988 
L 182.388915 271.908243 
L 182.866751 270.671852 
L 183.342991 270.62242 
L 183.879693 273.556986 
L 184.382935 276.960293 
L 184.892979 286.486072 
L 185.371829 287.557966 
L 185.852948 288.246286 
L 186.402062 287.333459 
L 186.877616 288.376312 
L 187.363135 289.0306 
L 191.338345 286.835751 
L 191.874302 286.464272 
L 192.888214 286.136413 
L 193.366841 287.48543 
L 193.8432 287.291347 
L 194.862125 278.044748 
L 195.39371 268.703278 
L 195.871994 269.466433 
L 196.887115 267.954897 
L 197.362922 267.068547 
L 198.07861 267.144417 
L 198.382578 266.596257 
L 198.855476 266.330823 
L 199.396355 267.862562 
L 199.875489 267.568749 
L 201.369177 267.499752 
L 201.9131 267.335912 
L 202.38573 267.611012 
L 203.392601 267.541007 
L 203.872436 267.758572 
L 204.884752 267.932476 
L 205.369316 267.375878 
L 206.375859 267.34002 
L 207.39165 266.809796 
L 208.331465 266.739785 
L 209.359788 266.071784 
L 209.89658 266.056981 
L 210.375401 265.670982 
L 210.851477 265.918647 
L 211.868581 268.52339 
L 212.402076 270.552112 
L 212.881792 269.556814 
L 213.358718 272.343344 
L 214.373048 274.115752 
L 214.849184 273.920798 
L 215.386856 277.064728 
L 215.863946 279.185764 
L 216.441792 281.228699 
L 216.877724 287.592793 
L 217.355217 289.761178 
L 217.916728 290.568657 
L 219.861325 289.032279 
L 221.897951 287.4959 
L 223.901921 285.959521 
L 224.418082 287.3608 
L 224.897768 285.373918 
L 225.353138 285.336915 
L 225.925568 281.713143 
L 226.412296 273.079565 
L 226.953921 269.508419 
L 227.395387 267.9296 
L 227.871762 267.355247 
L 228.397857 267.840108 
L 228.902262 267.042286 
L 229.885861 267.057953 
L 230.3968 266.896954 
L 230.904025 266.260288 
L 231.380011 266.095295 
L 231.885237 267.649995 
L 232.887812 267.676708 
L 233.410581 267.547418 
L 233.884851 267.975888 
L 234.361629 267.369679 
L 235.407361 267.320418 
L 235.87101 267.533298 
L 236.885847 267.436947 
L 237.42146 267.820222 
L 237.898163 267.217826 
L 238.367824 267.328523 
L 238.895904 266.911387 
L 239.376246 267.036604 
L 241.40228 266.627483 
L 242.361399 265.80873 
L 242.896595 266.047573 
L 243.356649 265.641046 
L 244.386702 271.680339 
L 244.849098 273.059083 
L 245.401285 273.979658 
L 245.878137 271.663898 
L 246.355421 273.216437 
L 246.891766 280.143639 
L 247.370258 280.178386 
L 247.906677 288.54211 
L 248.384454 289.587024 
L 248.863051 289.997971 
L 249.398769 291.152247 
L 249.875083 291.4316 
L 250.415262 292.307729 
L 250.892456 292.84093 
L 251.367324 292.863356 
L 251.908934 293.206298 
L 252.383414 292.107635 
L 252.844975 292.055096 
L 254.396723 292.65111 
L 254.891073 292.392044 
L 255.365807 291.873123 
L 255.888352 292.095122 
L 256.387596 285.803423 
L 256.917749 288.61883 
L 257.380697 271.208034 
L 257.881582 271.122215 
L 258.409915 267.417971 
L 258.885528 266.685087 
L 259.367363 269.661044 
L 259.900783 267.775032 
L 260.365432 267.138389 
L 260.924616 265.223124 
L 261.394799 266.83801 
L 262.88519 266.986804 
L 263.347482 265.538955 
L 263.91029 265.701738 
L 264.377013 266.002596 
L 264.913656 266.014434 
L 265.406529 266.813549 
L 265.868045 267.042622 
L 266.422112 267.115872 
L 267.441693 266.998917 
L 267.916978 267.147829 
L 268.393755 267.102275 
L 268.938424 266.798642 
L 269.406683 266.736587 
L 269.878268 266.860448 
L 270.428591 267.491048 
L 270.897342 267.648173 
L 271.427227 267.066985 
L 271.897157 264.671066 
L 272.396236 266.305624 
L 272.909875 266.309206 
L 273.417562 266.196369 
L 273.877781 265.663313 
L 274.399953 269.661904 
L 274.884428 268.948325 
L 275.41561 269.644972 
L 275.892686 272.581535 
L 276.377384 272.349262 
L 276.92902 279.635449 
L 277.401127 273.393907 
L 277.922226 275.650702 
L 278.397317 280.564186 
L 278.991841 277.855657 
L 279.427818 286.169573 
L 279.90367 290.537808 
L 280.377225 291.131277 
L 280.905349 290.840523 
L 281.385229 290.995811 
L 281.919321 291.872843 
L 282.413657 292.397829 
L 282.873159 291.602484 
L 283.410696 291.450084 
L 283.887951 292.145967 
L 284.427025 291.827198 
L 285.379595 293.178678 
L 285.91855 288.94474 
L 286.393984 292.56371 
L 286.871343 292.241498 
L 287.416489 286.618876 
L 287.885777 285.490062 
L 288.422763 280.333678 
L 288.902897 270.978065 
L 289.377272 266.523273 
L 289.914004 265.449484 
L 290.394019 265.785143 
L 290.86917 265.508001 
L 291.406946 266.231625 
L 291.887662 265.967755 
L 292.42056 266.096906 
L 292.897397 265.652041 
L 293.379156 265.542262 
L 293.915799 267.521503 
L 294.389742 267.026206 
L 294.9271 267.442816 
L 296.898624 267.675338 
L 297.373522 267.273611 
L 298.387956 267.115764 
L 298.926747 267.439002 
L 299.401943 266.882526 
L 299.8951 267.214879 
L 300.416034 267.301101 
L 300.894526 266.780184 
L 301.371841 267.024933 
L 301.909856 267.149763 
L 302.386663 266.955634 
L 302.93157 266.307957 
L 303.401992 266.25023 
L 303.878322 265.960945 
L 304.417948 265.782864 
L 304.89283 263.879351 
L 305.451089 266.814888 
L 305.92906 267.184131 
L 306.941137 272.898172 
L 307.438724 270.886513 
L 307.876685 273.840429 
L 308.440687 272.73964 
L 308.904948 280.323514 
L 309.447842 280.825996 
L 309.925946 282.961088 
L 310.407423 289.289123 
L 311.425198 290.781876 
L 311.948639 292.094931 
L 312.42737 292.753303 
L 312.908011 291.624123 
L 313.430109 291.286769 
L 313.920312 291.69718 
L 314.402206 292.831874 
L 314.925542 292.133708 
L 315.414984 288.672167 
L 315.932233 292.418609 
L 316.409801 292.447096 
L 316.888279 291.260518 
L 317.901102 292.757633 
L 318.382727 286.577042 
L 318.914626 286.316107 
L 319.410647 284.789464 
L 319.932507 277.585924 
L 320.890476 267.601389 
L 321.423971 267.392973 
L 321.8986 266.178859 
L 322.927863 265.998135 
L 323.390468 267.728504 
L 323.927379 267.634631 
L 324.412958 266.584204 
L 324.883663 266.154551 
L 325.419217 266.217436 
L 325.898336 267.284532 
L 326.435277 266.752319 
L 327.927861 266.705888 
L 329.417536 266.820432 
L 329.894029 267.723359 
L 330.431672 267.815487 
L 330.908523 267.438854 
L 331.386479 267.549089 
L 331.925553 266.934936 
L 332.463404 266.938517 
L 332.937824 267.939102 
L 333.415183 266.440918 
L 333.896257 267.046308 
L 334.429453 266.128905 
L 334.907409 262.982813 
L 335.383888 262.76953 
L 335.921157 265.974852 
L 336.399217 264.915241 
L 336.940484 262.218962 
L 337.414337 263.487509 
L 337.890443 263.976105 
L 338.905146 268.572276 
L 339.441341 268.371846 
L 339.921639 274.423759 
L 340.402593 272.662108 
L 340.934238 280.053475 
L 341.413223 283.298564 
L 341.888747 282.119991 
L 342.534365 286.399486 
L 342.905613 285.920933 
L 343.440659 290.979833 
L 343.916825 290.157926 
L 344.396809 291.98652 
L 344.93475 291.901627 
L 345.409886 293.043483 
L 345.955166 292.158086 
L 346.426886 288.528102 
L 346.901351 292.516226 
L 347.444617 292.388895 
L 347.919201 292.564796 
L 348.393398 295.488 
L 349.407817 286.728565 
L 349.952724 286.318057 
L 350.426234 287.862204 
L 350.902325 275.003051 
L 351.436984 275.648059 
L 351.927172 270.342391 
L 352.39115 268.264358 
L 352.937504 257.500208 
L 353.41619 267.39768 
L 354.906924 266.162507 
L 355.488112 266.817039 
L 356.409652 266.300185 
L 356.931944 266.490745 
L 357.553216 266.500891 
L 358.422812 266.225952 
L 359.457848 266.26695 
L 359.931985 263.232304 
L 360.453083 262.957652 
L 360.962262 262.935053 
L 361.409188 263.266154 
L 361.942534 263.332811 
L 362.403513 263.163189 
L 362.904099 265.948797 
L 363.42005 265.51281 
L 363.896455 264.11339 
L 364.432814 261.924118 
L 364.914946 266.061776 
L 365.403912 261.28736 
L 365.923772 261.446778 
L 366.402339 262.094623 
L 366.953437 264.490052 
L 367.627548 266.267487 
L 367.902277 262.062984 
L 368.445961 264.406164 
L 368.907641 264.761855 
L 369.400201 269.134124 
L 369.921852 241.408789 
L 370.938911 252.301041 
L 371.414972 281.438113 
L 371.893405 286.737015 
L 372.429959 283.991631 
L 372.937362 288.408358 
L 373.382767 284.9471 
L 373.922408 286.010628 
L 374.399126 286.300755 
L 375.457836 286.674636 
L 375.888591 286.854054 
L 376.9031 286.951264 
L 378.934773 287.050626 
L 379.886776 287.059669 
L 380.439739 287.385161 
L 380.901255 287.40026 
L 381.438688 286.86168 
L 381.917345 282.181089 
L 382.394107 280.097777 
L 384.421961 276.596659 
L 384.915178 275.872832 
L 385.438394 275.362268 
L 385.914694 276.329986 
L 386.393336 274.178472 
L 386.943703 274.356272 
L 387.405697 271.535115 
L 388.419713 270.795455 
L 388.92112 271.026673 
L 389.534202 270.364902 
L 389.936598 269.493292 
L 390.389253 269.088178 
L 390.925418 269.26541 
L 391.406149 266.798528 
L 392.417808 266.636938 
L 392.8956 266.85467 
L 393.440029 266.457693 
L 394.941385 266.62022 
L 395.401618 266.444915 
L 396.917638 266.492092 
L 397.446464 267.238602 
L 397.939501 267.425987 
L 398.487273 266.998977 
L 398.487273 266.998977 
" clip-path="url(#p990ee7f6bd)" style="fill: none; stroke: #008000; stroke-width: 1.5; stroke-linecap: square"/>
   </g>
   <g id="patch_3">
    <path d="M 57.6 307.584 
L 57.6 41.472 
" style="fill: none; stroke: #000000; stroke-width: 0.8; stroke-linejoin: miter; stroke-linecap: square"/>
   </g>
   <g id="patch_4">
    <path d="M 414.72 307.584 
L 414.72 41.472 
" style="fill: none; stroke: #000000; stroke-width: 0.8; stroke-linejoin: miter; stroke-linecap: square"/>
   </g>
   <g id="patch_5">
    <path d="M 57.6 307.584 
L 414.72 307.584 
" style="fill: none; stroke: #000000; stroke-width: 0.8; stroke-linejoin: miter; stroke-linecap: square"/>
   </g>
   <g id="patch_6">
    <path d="M 57.6 41.472 
L 414.72 41.472 
" style="fill: none; stroke: #000000; stroke-width: 0.8; stroke-linejoin: miter; stroke-linecap: square"/>
   </g>
   <g id="text_16">
    <!-- Angles in Thumb joints -->
    <g transform="translate(167.56125 35.472) scale(0.12 -0.12)">
     <defs>
      <path id="DejaVuSans-41" d="M 2188 4044 
L 1331 1722 
L 3047 1722 
L 2188 4044 
z
M 1831 4666 
L 2547 4666 
L 4325 0 
L 3669 0 
L 3244 1197 
L 1141 1197 
L 716 0 
L 50 0 
L 1831 4666 
z
" transform="scale(0.015625)"/>
      <path id="DejaVuSans-54" d="M -19 4666 
L 3928 4666 
L 3928 4134 
L 2272 4134 
L 2272 0 
L 1638 0 
L 1638 4134 
L -19 4134 
L -19 4666 
z
" transform="scale(0.015625)"/>
      <path id="DejaVuSans-68" d="M 3513 2113 
L 3513 0 
L 2938 0 
L 2938 2094 
Q 2938 2591 2744 2837 
Q 2550 3084 2163 3084 
Q 1697 3084 1428 2787 
Q 1159 2491 1159 1978 
L 1159 0 
L 581 0 
L 581 4863 
L 1159 4863 
L 1159 2956 
Q 1366 3272 1645 3428 
Q 1925 3584 2291 3584 
Q 2894 3584 3203 3211 
Q 3513 2838 3513 2113 
z
" transform="scale(0.015625)"/>
      <path id="DejaVuSans-75" d="M 544 1381 
L 544 3500 
L 1119 3500 
L 1119 1403 
Q 1119 906 1312 657 
Q 1506 409 1894 409 
Q 2359 409 2629 706 
Q 2900 1003 2900 1516 
L 2900 3500 
L 3475 3500 
L 3475 0 
L 2900 0 
L 2900 538 
Q 2691 219 2414 64 
Q 2138 -91 1772 -91 
Q 1169 -91 856 284 
Q 544 659 544 1381 
z
M 1991 3584 
L 1991 3584 
z
" transform="scale(0.015625)"/>
      <path id="DejaVuSans-62" d="M 3116 1747 
Q 3116 2381 2855 2742 
Q 2594 3103 2138 3103 
Q 1681 3103 1420 2742 
Q 1159 2381 1159 1747 
Q 1159 1113 1420 752 
Q 1681 391 2138 391 
Q 2594 391 2855 752 
Q 3116 1113 3116 1747 
z
M 1159 2969 
Q 1341 3281 1617 3432 
Q 1894 3584 2278 3584 
Q 2916 3584 3314 3078 
Q 3713 2572 3713 1747 
Q 3713 922 3314 415 
Q 2916 -91 2278 -91 
Q 1894 -91 1617 61 
Q 1341 213 1159 525 
L 1159 0 
L 581 0 
L 581 4863 
L 1159 4863 
L 1159 2969 
z
" transform="scale(0.015625)"/>
      <path id="DejaVuSans-6a" d="M 603 3500 
L 1178 3500 
L 1178 -63 
Q 1178 -731 923 -1031 
Q 669 -1331 103 -1331 
L -116 -1331 
L -116 -844 
L 38 -844 
Q 366 -844 484 -692 
Q 603 -541 603 -63 
L 603 3500 
z
M 603 4863 
L 1178 4863 
L 1178 4134 
L 603 4134 
L 603 4863 
z
" transform="scale(0.015625)"/>
      <path id="DejaVuSans-6f" d="M 1959 3097 
Q 1497 3097 1228 2736 
Q 959 2375 959 1747 
Q 959 1119 1226 758 
Q 1494 397 1959 397 
Q 2419 397 2687 759 
Q 2956 1122 2956 1747 
Q 2956 2369 2687 2733 
Q 2419 3097 1959 3097 
z
M 1959 3584 
Q 2709 3584 3137 3096 
Q 3566 2609 3566 1747 
Q 3566 888 3137 398 
Q 2709 -91 1959 -91 
Q 1206 -91 779 398 
Q 353 888 353 1747 
Q 353 2609 779 3096 
Q 1206 3584 1959 3584 
z
" transform="scale(0.015625)"/>
     </defs>
     <use xlink:href="#DejaVuSans-41"/>
     <use xlink:href="#DejaVuSans-6e" x="68.408203"/>
     <use xlink:href="#DejaVuSans-67" x="131.787109"/>
     <use xlink:href="#DejaVuSans-6c" x="195.263672"/>
     <use xlink:href="#DejaVuSans-65" x="223.046875"/>
     <use xlink:href="#DejaVuSans-73" x="284.570312"/>
     <use xlink:href="#DejaVuSans-20" x="336.669922"/>
     <use xlink:href="#DejaVuSans-69" x="368.457031"/>
     <use xlink:href="#DejaVuSans-6e" x="396.240234"/>
     <use xlink:href="#DejaVuSans-20" x="459.619141"/>
     <use xlink:href="#DejaVuSans-54" x="491.40625"/>
     <use xlink:href="#DejaVuSans-68" x="552.490234"/>
     <use xlink:href="#DejaVuSans-75" x="615.869141"/>
     <use xlink:href="#DejaVuSans-6d" x="679.248047"/>
     <use xlink:href="#DejaVuSans-62" x="776.660156"/>
     <use xlink:href="#DejaVuSans-20" x="840.136719"/>
     <use xlink:href="#DejaVuSans-6a" x="871.923828"/>
     <use xlink:href="#DejaVuSans-6f" x="899.707031"/>
     <use xlink:href="#DejaVuSans-69" x="960.888672"/>
     <use xlink:href="#DejaVuSans-6e" x="988.671875"/>
     <use xlink:href="#DejaVuSans-74" x="1052.050781"/>
     <use xlink:href="#DejaVuSans-73" x="1091.259766"/>
    </g>
   </g>
   <g id="legend_1">
    <g id="patch_7">
     <path d="M 314.005938 78.82825 
L 407.72 78.82825 
Q 409.72 78.82825 409.72 76.82825 
L 409.72 48.472 
Q 409.72 46.472 407.72 46.472 
L 314.005938 46.472 
Q 312.005938 46.472 312.005938 48.472 
L 312.005938 76.82825 
Q 312.005938 78.82825 314.005938 78.82825 
z
" style="fill: #ffffff; opacity: 0.8; stroke: #cccccc; stroke-linejoin: miter"/>
    </g>
    <g id="line2d_29">
     <path d="M 316.005938 54.570437 
L 326.005938 54.570437 
L 336.005938 54.570437 
" style="fill: none; stroke: #ff0000; stroke-width: 1.5; stroke-linecap: square"/>
    </g>
    <g id="text_17">
     <!-- delta (DIP) -->
     <g transform="translate(344.005938 58.070437) scale(0.1 -0.1)">
      <defs>
       <path id="DejaVuSans-64" d="M 2906 2969 
L 2906 4863 
L 3481 4863 
L 3481 0 
L 2906 0 
L 2906 525 
Q 2725 213 2448 61 
Q 2172 -91 1784 -91 
Q 1150 -91 751 415 
Q 353 922 353 1747 
Q 353 2572 751 3078 
Q 1150 3584 1784 3584 
Q 2172 3584 2448 3432 
Q 2725 3281 2906 2969 
z
M 947 1747 
Q 947 1113 1208 752 
Q 1469 391 1925 391 
Q 2381 391 2643 752 
Q 2906 1113 2906 1747 
Q 2906 2381 2643 2742 
Q 2381 3103 1925 3103 
Q 1469 3103 1208 2742 
Q 947 2381 947 1747 
z
" transform="scale(0.015625)"/>
       <path id="DejaVuSans-28" d="M 1984 4856 
Q 1566 4138 1362 3434 
Q 1159 2731 1159 2009 
Q 1159 1288 1364 580 
Q 1569 -128 1984 -844 
L 1484 -844 
Q 1016 -109 783 600 
Q 550 1309 550 2009 
Q 550 2706 781 3412 
Q 1013 4119 1484 4856 
L 1984 4856 
z
" transform="scale(0.015625)"/>
       <path id="DejaVuSans-44" d="M 1259 4147 
L 1259 519 
L 2022 519 
Q 2988 519 3436 956 
Q 3884 1394 3884 2338 
Q 3884 3275 3436 3711 
Q 2988 4147 2022 4147 
L 1259 4147 
z
M 628 4666 
L 1925 4666 
Q 3281 4666 3915 4102 
Q 4550 3538 4550 2338 
Q 4550 1131 3912 565 
Q 3275 0 1925 0 
L 628 0 
L 628 4666 
z
" transform="scale(0.015625)"/>
       <path id="DejaVuSans-49" d="M 628 4666 
L 1259 4666 
L 1259 0 
L 628 0 
L 628 4666 
z
" transform="scale(0.015625)"/>
       <path id="DejaVuSans-50" d="M 1259 4147 
L 1259 2394 
L 2053 2394 
Q 2494 2394 2734 2622 
Q 2975 2850 2975 3272 
Q 2975 3691 2734 3919 
Q 2494 4147 2053 4147 
L 1259 4147 
z
M 628 4666 
L 2053 4666 
Q 2838 4666 3239 4311 
Q 3641 3956 3641 3272 
Q 3641 2581 3239 2228 
Q 2838 1875 2053 1875 
L 1259 1875 
L 1259 0 
L 628 0 
L 628 4666 
z
" transform="scale(0.015625)"/>
       <path id="DejaVuSans-29" d="M 513 4856 
L 1013 4856 
Q 1481 4119 1714 3412 
Q 1947 2706 1947 2009 
Q 1947 1309 1714 600 
Q 1481 -109 1013 -844 
L 513 -844 
Q 928 -128 1133 580 
Q 1338 1288 1338 2009 
Q 1338 2731 1133 3434 
Q 928 4138 513 4856 
z
" transform="scale(0.015625)"/>
      </defs>
      <use xlink:href="#DejaVuSans-64"/>
      <use xlink:href="#DejaVuSans-65" x="63.476562"/>
      <use xlink:href="#DejaVuSans-6c" x="125"/>
      <use xlink:href="#DejaVuSans-74" x="152.783203"/>
      <use xlink:href="#DejaVuSans-61" x="191.992188"/>
      <use xlink:href="#DejaVuSans-20" x="253.271484"/>
      <use xlink:href="#DejaVuSans-28" x="285.058594"/>
      <use xlink:href="#DejaVuSans-44" x="324.072266"/>
      <use xlink:href="#DejaVuSans-49" x="401.074219"/>
      <use xlink:href="#DejaVuSans-50" x="430.566406"/>
      <use xlink:href="#DejaVuSans-29" x="490.869141"/>
     </g>
    </g>
    <g id="line2d_30">
     <path d="M 316.005938 69.248562 
L 326.005938 69.248562 
L 336.005938 69.248562 
" style="fill: none; stroke: #008000; stroke-width: 1.5; stroke-linecap: square"/>
    </g>
    <g id="text_18">
     <!-- epsilon (PIP) -->
     <g transform="translate(344.005938 72.748562) scale(0.1 -0.1)">
      <defs>
       <path id="DejaVuSans-70" d="M 1159 525 
L 1159 -1331 
L 581 -1331 
L 581 3500 
L 1159 3500 
L 1159 2969 
Q 1341 3281 1617 3432 
Q 1894 3584 2278 3584 
Q 2916 3584 3314 3078 
Q 3713 2572 3713 1747 
Q 3713 922 3314 415 
Q 2916 -91 2278 -91 
Q 1894 -91 1617 61 
Q 1341 213 1159 525 
z
M 3116 1747 
Q 3116 2381 2855 2742 
Q 2594 3103 2138 3103 
Q 1681 3103 1420 2742 
Q 1159 2381 1159 1747 
Q 1159 1113 1420 752 
Q 1681 391 2138 391 
Q 2594 391 2855 752 
Q 3116 1113 3116 1747 
z
" transform="scale(0.015625)"/>
      </defs>
      <use xlink:href="#DejaVuSans-65"/>
      <use xlink:href="#DejaVuSans-70" x="61.523438"/>
      <use xlink:href="#DejaVuSans-73" x="125"/>
      <use xlink:href="#DejaVuSans-69" x="177.099609"/>
      <use xlink:href="#DejaVuSans-6c" x="204.882812"/>
      <use xlink:href="#DejaVuSans-6f" x="232.666016"/>
      <use xlink:href="#DejaVuSans-6e" x="293.847656"/>
      <use xlink:href="#DejaVuSans-20" x="357.226562"/>
      <use xlink:href="#DejaVuSans-28" x="389.013672"/>
      <use xlink:href="#DejaVuSans-50" x="428.027344"/>
      <use xlink:href="#DejaVuSans-49" x="488.330078"/>
      <use xlink:href="#DejaVuSans-50" x="517.822266"/>
      <use xlink:href="#DejaVuSans-29" x="578.125"/>
     </g>
    </g>
   </g>
  </g>
 </g>
 <defs>
  <clipPath id="p990ee7f6bd">
   <rect x="57.6" y="41.472" width="357.12" height="266.112"/>
  </clipPath>
 </defs>
</svg>
