<?xml version="1.0" encoding="utf-8" standalone="no"?>
<!DOCTYPE svg PUBLIC "-//W3C//DTD SVG 1.1//EN"
  "http://www.w3.org/Graphics/SVG/1.1/DTD/svg11.dtd">
<svg xmlns:xlink="http://www.w3.org/1999/xlink" width="460.8pt" height="345.6pt" viewBox="0 0 460.8 345.6" xmlns="http://www.w3.org/2000/svg" version="1.1">
 <metadata>
  <rdf:RDF xmlns:dc="http://purl.org/dc/elements/1.1/" xmlns:cc="http://creativecommons.org/ns#" xmlns:rdf="http://www.w3.org/1999/02/22-rdf-syntax-ns#">
   <cc:Work>
    <dc:type rdf:resource="http://purl.org/dc/dcmitype/StillImage"/>
    <dc:date>2023-07-24T09:55:59.668619</dc:date>
    <dc:format>image/svg+xml</dc:format>
    <dc:creator>
     <cc:Agent>
      <dc:title>Matplotlib v3.7.1, https://matplotlib.org/</dc:title>
     </cc:Agent>
    </dc:creator>
   </cc:Work>
  </rdf:RDF>
 </metadata>
 <defs>
  <style type="text/css">*{stroke-linejoin: round; stroke-linecap: butt}</style>
 </defs>
 <g id="figure_1">
  <g id="patch_1">
   <path d="M 0 345.6 
L 460.8 345.6 
L 460.8 0 
L 0 0 
z
" style="fill: #ffffff"/>
  </g>
  <g id="axes_1">
   <g id="patch_2">
    <path d="M 57.6 307.584 
L 414.72 307.584 
L 414.72 41.472 
L 57.6 41.472 
z
" style="fill: #ffffff"/>
   </g>
   <g id="matplotlib.axis_1">
    <g id="xtick_1">
     <g id="line2d_1">
      <path d="M 67.08111 307.584 
L 67.08111 41.472 
" clip-path="url(#p478048e9cd)" style="fill: none; stroke: #b0b0b0; stroke-width: 0.8; stroke-linecap: square"/>
     </g>
     <g id="line2d_2">
      <defs>
       <path id="mec5ec183bd" d="M 0 0 
L 0 3.5 
" style="stroke: #000000; stroke-width: 0.8"/>
      </defs>
      <g>
       <use xlink:href="#mec5ec183bd" x="67.08111" y="307.584" style="stroke: #000000; stroke-width: 0.8"/>
      </g>
     </g>
     <g id="text_1">
      <!-- 30 -->
      <g transform="translate(60.71861 322.182437) scale(0.1 -0.1)">
       <defs>
        <path id="DejaVuSans-33" d="M 2597 2516 
Q 3050 2419 3304 2112 
Q 3559 1806 3559 1356 
Q 3559 666 3084 287 
Q 2609 -91 1734 -91 
Q 1441 -91 1130 -33 
Q 819 25 488 141 
L 488 750 
Q 750 597 1062 519 
Q 1375 441 1716 441 
Q 2309 441 2620 675 
Q 2931 909 2931 1356 
Q 2931 1769 2642 2001 
Q 2353 2234 1838 2234 
L 1294 2234 
L 1294 2753 
L 1863 2753 
Q 2328 2753 2575 2939 
Q 2822 3125 2822 3475 
Q 2822 3834 2567 4026 
Q 2313 4219 1838 4219 
Q 1578 4219 1281 4162 
Q 984 4106 628 3988 
L 628 4550 
Q 988 4650 1302 4700 
Q 1616 4750 1894 4750 
Q 2613 4750 3031 4423 
Q 3450 4097 3450 3541 
Q 3450 3153 3228 2886 
Q 3006 2619 2597 2516 
z
" transform="scale(0.015625)"/>
        <path id="DejaVuSans-30" d="M 2034 4250 
Q 1547 4250 1301 3770 
Q 1056 3291 1056 2328 
Q 1056 1369 1301 889 
Q 1547 409 2034 409 
Q 2525 409 2770 889 
Q 3016 1369 3016 2328 
Q 3016 3291 2770 3770 
Q 2525 4250 2034 4250 
z
M 2034 4750 
Q 2819 4750 3233 4129 
Q 3647 3509 3647 2328 
Q 3647 1150 3233 529 
Q 2819 -91 2034 -91 
Q 1250 -91 836 529 
Q 422 1150 422 2328 
Q 422 3509 836 4129 
Q 1250 4750 2034 4750 
z
" transform="scale(0.015625)"/>
       </defs>
       <use xlink:href="#DejaVuSans-33"/>
       <use xlink:href="#DejaVuSans-30" x="63.623047"/>
      </g>
     </g>
    </g>
    <g id="xtick_2">
     <g id="line2d_3">
      <path d="M 141.670765 307.584 
L 141.670765 41.472 
" clip-path="url(#p478048e9cd)" style="fill: none; stroke: #b0b0b0; stroke-width: 0.8; stroke-linecap: square"/>
     </g>
     <g id="line2d_4">
      <g>
       <use xlink:href="#mec5ec183bd" x="141.670765" y="307.584" style="stroke: #000000; stroke-width: 0.8"/>
      </g>
     </g>
     <g id="text_2">
      <!-- 35 -->
      <g transform="translate(135.308265 322.182437) scale(0.1 -0.1)">
       <defs>
        <path id="DejaVuSans-35" d="M 691 4666 
L 3169 4666 
L 3169 4134 
L 1269 4134 
L 1269 2991 
Q 1406 3038 1543 3061 
Q 1681 3084 1819 3084 
Q 2600 3084 3056 2656 
Q 3513 2228 3513 1497 
Q 3513 744 3044 326 
Q 2575 -91 1722 -91 
Q 1428 -91 1123 -41 
Q 819 9 494 109 
L 494 744 
Q 775 591 1075 516 
Q 1375 441 1709 441 
Q 2250 441 2565 725 
Q 2881 1009 2881 1497 
Q 2881 1984 2565 2268 
Q 2250 2553 1709 2553 
Q 1456 2553 1204 2497 
Q 953 2441 691 2322 
L 691 4666 
z
" transform="scale(0.015625)"/>
       </defs>
       <use xlink:href="#DejaVuSans-33"/>
       <use xlink:href="#DejaVuSans-35" x="63.623047"/>
      </g>
     </g>
    </g>
    <g id="xtick_3">
     <g id="line2d_5">
      <path d="M 216.26042 307.584 
L 216.26042 41.472 
" clip-path="url(#p478048e9cd)" style="fill: none; stroke: #b0b0b0; stroke-width: 0.8; stroke-linecap: square"/>
     </g>
     <g id="line2d_6">
      <g>
       <use xlink:href="#mec5ec183bd" x="216.26042" y="307.584" style="stroke: #000000; stroke-width: 0.8"/>
      </g>
     </g>
     <g id="text_3">
      <!-- 40 -->
      <g transform="translate(209.89792 322.182437) scale(0.1 -0.1)">
       <defs>
        <path id="DejaVuSans-34" d="M 2419 4116 
L 825 1625 
L 2419 1625 
L 2419 4116 
z
M 2253 4666 
L 3047 4666 
L 3047 1625 
L 3713 1625 
L 3713 1100 
L 3047 1100 
L 3047 0 
L 2419 0 
L 2419 1100 
L 313 1100 
L 313 1709 
L 2253 4666 
z
" transform="scale(0.015625)"/>
       </defs>
       <use xlink:href="#DejaVuSans-34"/>
       <use xlink:href="#DejaVuSans-30" x="63.623047"/>
      </g>
     </g>
    </g>
    <g id="xtick_4">
     <g id="line2d_7">
      <path d="M 290.850075 307.584 
L 290.850075 41.472 
" clip-path="url(#p478048e9cd)" style="fill: none; stroke: #b0b0b0; stroke-width: 0.8; stroke-linecap: square"/>
     </g>
     <g id="line2d_8">
      <g>
       <use xlink:href="#mec5ec183bd" x="290.850075" y="307.584" style="stroke: #000000; stroke-width: 0.8"/>
      </g>
     </g>
     <g id="text_4">
      <!-- 45 -->
      <g transform="translate(284.487575 322.182437) scale(0.1 -0.1)">
       <use xlink:href="#DejaVuSans-34"/>
       <use xlink:href="#DejaVuSans-35" x="63.623047"/>
      </g>
     </g>
    </g>
    <g id="xtick_5">
     <g id="line2d_9">
      <path d="M 365.439729 307.584 
L 365.439729 41.472 
" clip-path="url(#p478048e9cd)" style="fill: none; stroke: #b0b0b0; stroke-width: 0.8; stroke-linecap: square"/>
     </g>
     <g id="line2d_10">
      <g>
       <use xlink:href="#mec5ec183bd" x="365.439729" y="307.584" style="stroke: #000000; stroke-width: 0.8"/>
      </g>
     </g>
     <g id="text_5">
      <!-- 50 -->
      <g transform="translate(359.077229 322.182437) scale(0.1 -0.1)">
       <use xlink:href="#DejaVuSans-35"/>
       <use xlink:href="#DejaVuSans-30" x="63.623047"/>
      </g>
     </g>
    </g>
    <g id="text_6">
     <!-- time [sec] -->
     <g transform="translate(210.942813 335.860562) scale(0.1 -0.1)">
      <defs>
       <path id="DejaVuSans-74" d="M 1172 4494 
L 1172 3500 
L 2356 3500 
L 2356 3053 
L 1172 3053 
L 1172 1153 
Q 1172 725 1289 603 
Q 1406 481 1766 481 
L 2356 481 
L 2356 0 
L 1766 0 
Q 1100 0 847 248 
Q 594 497 594 1153 
L 594 3053 
L 172 3053 
L 172 3500 
L 594 3500 
L 594 4494 
L 1172 4494 
z
" transform="scale(0.015625)"/>
       <path id="DejaVuSans-69" d="M 603 3500 
L 1178 3500 
L 1178 0 
L 603 0 
L 603 3500 
z
M 603 4863 
L 1178 4863 
L 1178 4134 
L 603 4134 
L 603 4863 
z
" transform="scale(0.015625)"/>
       <path id="DejaVuSans-6d" d="M 3328 2828 
Q 3544 3216 3844 3400 
Q 4144 3584 4550 3584 
Q 5097 3584 5394 3201 
Q 5691 2819 5691 2113 
L 5691 0 
L 5113 0 
L 5113 2094 
Q 5113 2597 4934 2840 
Q 4756 3084 4391 3084 
Q 3944 3084 3684 2787 
Q 3425 2491 3425 1978 
L 3425 0 
L 2847 0 
L 2847 2094 
Q 2847 2600 2669 2842 
Q 2491 3084 2119 3084 
Q 1678 3084 1418 2786 
Q 1159 2488 1159 1978 
L 1159 0 
L 581 0 
L 581 3500 
L 1159 3500 
L 1159 2956 
Q 1356 3278 1631 3431 
Q 1906 3584 2284 3584 
Q 2666 3584 2933 3390 
Q 3200 3197 3328 2828 
z
" transform="scale(0.015625)"/>
       <path id="DejaVuSans-65" d="M 3597 1894 
L 3597 1613 
L 953 1613 
Q 991 1019 1311 708 
Q 1631 397 2203 397 
Q 2534 397 2845 478 
Q 3156 559 3463 722 
L 3463 178 
Q 3153 47 2828 -22 
Q 2503 -91 2169 -91 
Q 1331 -91 842 396 
Q 353 884 353 1716 
Q 353 2575 817 3079 
Q 1281 3584 2069 3584 
Q 2775 3584 3186 3129 
Q 3597 2675 3597 1894 
z
M 3022 2063 
Q 3016 2534 2758 2815 
Q 2500 3097 2075 3097 
Q 1594 3097 1305 2825 
Q 1016 2553 972 2059 
L 3022 2063 
z
" transform="scale(0.015625)"/>
       <path id="DejaVuSans-20" transform="scale(0.015625)"/>
       <path id="DejaVuSans-5b" d="M 550 4863 
L 1875 4863 
L 1875 4416 
L 1125 4416 
L 1125 -397 
L 1875 -397 
L 1875 -844 
L 550 -844 
L 550 4863 
z
" transform="scale(0.015625)"/>
       <path id="DejaVuSans-73" d="M 2834 3397 
L 2834 2853 
Q 2591 2978 2328 3040 
Q 2066 3103 1784 3103 
Q 1356 3103 1142 2972 
Q 928 2841 928 2578 
Q 928 2378 1081 2264 
Q 1234 2150 1697 2047 
L 1894 2003 
Q 2506 1872 2764 1633 
Q 3022 1394 3022 966 
Q 3022 478 2636 193 
Q 2250 -91 1575 -91 
Q 1294 -91 989 -36 
Q 684 19 347 128 
L 347 722 
Q 666 556 975 473 
Q 1284 391 1588 391 
Q 1994 391 2212 530 
Q 2431 669 2431 922 
Q 2431 1156 2273 1281 
Q 2116 1406 1581 1522 
L 1381 1569 
Q 847 1681 609 1914 
Q 372 2147 372 2553 
Q 372 3047 722 3315 
Q 1072 3584 1716 3584 
Q 2034 3584 2315 3537 
Q 2597 3491 2834 3397 
z
" transform="scale(0.015625)"/>
       <path id="DejaVuSans-63" d="M 3122 3366 
L 3122 2828 
Q 2878 2963 2633 3030 
Q 2388 3097 2138 3097 
Q 1578 3097 1268 2742 
Q 959 2388 959 1747 
Q 959 1106 1268 751 
Q 1578 397 2138 397 
Q 2388 397 2633 464 
Q 2878 531 3122 666 
L 3122 134 
Q 2881 22 2623 -34 
Q 2366 -91 2075 -91 
Q 1284 -91 818 406 
Q 353 903 353 1747 
Q 353 2603 823 3093 
Q 1294 3584 2113 3584 
Q 2378 3584 2631 3529 
Q 2884 3475 3122 3366 
z
" transform="scale(0.015625)"/>
       <path id="DejaVuSans-5d" d="M 1947 4863 
L 1947 -844 
L 622 -844 
L 622 -397 
L 1369 -397 
L 1369 4416 
L 622 4416 
L 622 4863 
L 1947 4863 
z
" transform="scale(0.015625)"/>
      </defs>
      <use xlink:href="#DejaVuSans-74"/>
      <use xlink:href="#DejaVuSans-69" x="39.208984"/>
      <use xlink:href="#DejaVuSans-6d" x="66.992188"/>
      <use xlink:href="#DejaVuSans-65" x="164.404297"/>
      <use xlink:href="#DejaVuSans-20" x="225.927734"/>
      <use xlink:href="#DejaVuSans-5b" x="257.714844"/>
      <use xlink:href="#DejaVuSans-73" x="296.728516"/>
      <use xlink:href="#DejaVuSans-65" x="348.828125"/>
      <use xlink:href="#DejaVuSans-63" x="410.351562"/>
      <use xlink:href="#DejaVuSans-5d" x="465.332031"/>
     </g>
    </g>
   </g>
   <g id="matplotlib.axis_2">
    <g id="ytick_1">
     <g id="line2d_11">
      <path d="M 57.6 303.278776 
L 414.72 303.278776 
" clip-path="url(#p478048e9cd)" style="fill: none; stroke: #b0b0b0; stroke-width: 0.8; stroke-linecap: square"/>
     </g>
     <g id="line2d_12">
      <defs>
       <path id="m2644ec1d84" d="M 0 0 
L -3.5 0 
" style="stroke: #000000; stroke-width: 0.8"/>
      </defs>
      <g>
       <use xlink:href="#m2644ec1d84" x="57.6" y="303.278776" style="stroke: #000000; stroke-width: 0.8"/>
      </g>
     </g>
     <g id="text_7">
      <!-- 0 -->
      <g transform="translate(44.2375 307.077995) scale(0.1 -0.1)">
       <use xlink:href="#DejaVuSans-30"/>
      </g>
     </g>
    </g>
    <g id="ytick_2">
     <g id="line2d_13">
      <path d="M 57.6 256.98339 
L 414.72 256.98339 
" clip-path="url(#p478048e9cd)" style="fill: none; stroke: #b0b0b0; stroke-width: 0.8; stroke-linecap: square"/>
     </g>
     <g id="line2d_14">
      <g>
       <use xlink:href="#m2644ec1d84" x="57.6" y="256.98339" style="stroke: #000000; stroke-width: 0.8"/>
      </g>
     </g>
     <g id="text_8">
      <!-- 20 -->
      <g transform="translate(37.875 260.782609) scale(0.1 -0.1)">
       <defs>
        <path id="DejaVuSans-32" d="M 1228 531 
L 3431 531 
L 3431 0 
L 469 0 
L 469 531 
Q 828 903 1448 1529 
Q 2069 2156 2228 2338 
Q 2531 2678 2651 2914 
Q 2772 3150 2772 3378 
Q 2772 3750 2511 3984 
Q 2250 4219 1831 4219 
Q 1534 4219 1204 4116 
Q 875 4013 500 3803 
L 500 4441 
Q 881 4594 1212 4672 
Q 1544 4750 1819 4750 
Q 2544 4750 2975 4387 
Q 3406 4025 3406 3419 
Q 3406 3131 3298 2873 
Q 3191 2616 2906 2266 
Q 2828 2175 2409 1742 
Q 1991 1309 1228 531 
z
" transform="scale(0.015625)"/>
       </defs>
       <use xlink:href="#DejaVuSans-32"/>
       <use xlink:href="#DejaVuSans-30" x="63.623047"/>
      </g>
     </g>
    </g>
    <g id="ytick_3">
     <g id="line2d_15">
      <path d="M 57.6 210.688005 
L 414.72 210.688005 
" clip-path="url(#p478048e9cd)" style="fill: none; stroke: #b0b0b0; stroke-width: 0.8; stroke-linecap: square"/>
     </g>
     <g id="line2d_16">
      <g>
       <use xlink:href="#m2644ec1d84" x="57.6" y="210.688005" style="stroke: #000000; stroke-width: 0.8"/>
      </g>
     </g>
     <g id="text_9">
      <!-- 40 -->
      <g transform="translate(37.875 214.487224) scale(0.1 -0.1)">
       <use xlink:href="#DejaVuSans-34"/>
       <use xlink:href="#DejaVuSans-30" x="63.623047"/>
      </g>
     </g>
    </g>
    <g id="ytick_4">
     <g id="line2d_17">
      <path d="M 57.6 164.392619 
L 414.72 164.392619 
" clip-path="url(#p478048e9cd)" style="fill: none; stroke: #b0b0b0; stroke-width: 0.8; stroke-linecap: square"/>
     </g>
     <g id="line2d_18">
      <g>
       <use xlink:href="#m2644ec1d84" x="57.6" y="164.392619" style="stroke: #000000; stroke-width: 0.8"/>
      </g>
     </g>
     <g id="text_10">
      <!-- 60 -->
      <g transform="translate(37.875 168.191838) scale(0.1 -0.1)">
       <defs>
        <path id="DejaVuSans-36" d="M 2113 2584 
Q 1688 2584 1439 2293 
Q 1191 2003 1191 1497 
Q 1191 994 1439 701 
Q 1688 409 2113 409 
Q 2538 409 2786 701 
Q 3034 994 3034 1497 
Q 3034 2003 2786 2293 
Q 2538 2584 2113 2584 
z
M 3366 4563 
L 3366 3988 
Q 3128 4100 2886 4159 
Q 2644 4219 2406 4219 
Q 1781 4219 1451 3797 
Q 1122 3375 1075 2522 
Q 1259 2794 1537 2939 
Q 1816 3084 2150 3084 
Q 2853 3084 3261 2657 
Q 3669 2231 3669 1497 
Q 3669 778 3244 343 
Q 2819 -91 2113 -91 
Q 1303 -91 875 529 
Q 447 1150 447 2328 
Q 447 3434 972 4092 
Q 1497 4750 2381 4750 
Q 2619 4750 2861 4703 
Q 3103 4656 3366 4563 
z
" transform="scale(0.015625)"/>
       </defs>
       <use xlink:href="#DejaVuSans-36"/>
       <use xlink:href="#DejaVuSans-30" x="63.623047"/>
      </g>
     </g>
    </g>
    <g id="ytick_5">
     <g id="line2d_19">
      <path d="M 57.6 118.097234 
L 414.72 118.097234 
" clip-path="url(#p478048e9cd)" style="fill: none; stroke: #b0b0b0; stroke-width: 0.8; stroke-linecap: square"/>
     </g>
     <g id="line2d_20">
      <g>
       <use xlink:href="#m2644ec1d84" x="57.6" y="118.097234" style="stroke: #000000; stroke-width: 0.8"/>
      </g>
     </g>
     <g id="text_11">
      <!-- 80 -->
      <g transform="translate(37.875 121.896453) scale(0.1 -0.1)">
       <defs>
        <path id="DejaVuSans-38" d="M 2034 2216 
Q 1584 2216 1326 1975 
Q 1069 1734 1069 1313 
Q 1069 891 1326 650 
Q 1584 409 2034 409 
Q 2484 409 2743 651 
Q 3003 894 3003 1313 
Q 3003 1734 2745 1975 
Q 2488 2216 2034 2216 
z
M 1403 2484 
Q 997 2584 770 2862 
Q 544 3141 544 3541 
Q 544 4100 942 4425 
Q 1341 4750 2034 4750 
Q 2731 4750 3128 4425 
Q 3525 4100 3525 3541 
Q 3525 3141 3298 2862 
Q 3072 2584 2669 2484 
Q 3125 2378 3379 2068 
Q 3634 1759 3634 1313 
Q 3634 634 3220 271 
Q 2806 -91 2034 -91 
Q 1263 -91 848 271 
Q 434 634 434 1313 
Q 434 1759 690 2068 
Q 947 2378 1403 2484 
z
M 1172 3481 
Q 1172 3119 1398 2916 
Q 1625 2713 2034 2713 
Q 2441 2713 2670 2916 
Q 2900 3119 2900 3481 
Q 2900 3844 2670 4047 
Q 2441 4250 2034 4250 
Q 1625 4250 1398 4047 
Q 1172 3844 1172 3481 
z
" transform="scale(0.015625)"/>
       </defs>
       <use xlink:href="#DejaVuSans-38"/>
       <use xlink:href="#DejaVuSans-30" x="63.623047"/>
      </g>
     </g>
    </g>
    <g id="ytick_6">
     <g id="line2d_21">
      <path d="M 57.6 71.801848 
L 414.72 71.801848 
" clip-path="url(#p478048e9cd)" style="fill: none; stroke: #b0b0b0; stroke-width: 0.8; stroke-linecap: square"/>
     </g>
     <g id="line2d_22">
      <g>
       <use xlink:href="#m2644ec1d84" x="57.6" y="71.801848" style="stroke: #000000; stroke-width: 0.8"/>
      </g>
     </g>
     <g id="text_12">
      <!-- 100 -->
      <g transform="translate(31.5125 75.601067) scale(0.1 -0.1)">
       <defs>
        <path id="DejaVuSans-31" d="M 794 531 
L 1825 531 
L 1825 4091 
L 703 3866 
L 703 4441 
L 1819 4666 
L 2450 4666 
L 2450 531 
L 3481 531 
L 3481 0 
L 794 0 
L 794 531 
z
" transform="scale(0.015625)"/>
       </defs>
       <use xlink:href="#DejaVuSans-31"/>
       <use xlink:href="#DejaVuSans-30" x="63.623047"/>
       <use xlink:href="#DejaVuSans-30" x="127.246094"/>
      </g>
     </g>
    </g>
    <g id="text_13">
     <!-- angle [°] -->
     <g transform="translate(25.432812 196.391281) rotate(-90) scale(0.1 -0.1)">
      <defs>
       <path id="DejaVuSans-61" d="M 2194 1759 
Q 1497 1759 1228 1600 
Q 959 1441 959 1056 
Q 959 750 1161 570 
Q 1363 391 1709 391 
Q 2188 391 2477 730 
Q 2766 1069 2766 1631 
L 2766 1759 
L 2194 1759 
z
M 3341 1997 
L 3341 0 
L 2766 0 
L 2766 531 
Q 2569 213 2275 61 
Q 1981 -91 1556 -91 
Q 1019 -91 701 211 
Q 384 513 384 1019 
Q 384 1609 779 1909 
Q 1175 2209 1959 2209 
L 2766 2209 
L 2766 2266 
Q 2766 2663 2505 2880 
Q 2244 3097 1772 3097 
Q 1472 3097 1187 3025 
Q 903 2953 641 2809 
L 641 3341 
Q 956 3463 1253 3523 
Q 1550 3584 1831 3584 
Q 2591 3584 2966 3190 
Q 3341 2797 3341 1997 
z
" transform="scale(0.015625)"/>
       <path id="DejaVuSans-6e" d="M 3513 2113 
L 3513 0 
L 2938 0 
L 2938 2094 
Q 2938 2591 2744 2837 
Q 2550 3084 2163 3084 
Q 1697 3084 1428 2787 
Q 1159 2491 1159 1978 
L 1159 0 
L 581 0 
L 581 3500 
L 1159 3500 
L 1159 2956 
Q 1366 3272 1645 3428 
Q 1925 3584 2291 3584 
Q 2894 3584 3203 3211 
Q 3513 2838 3513 2113 
z
" transform="scale(0.015625)"/>
       <path id="DejaVuSans-67" d="M 2906 1791 
Q 2906 2416 2648 2759 
Q 2391 3103 1925 3103 
Q 1463 3103 1205 2759 
Q 947 2416 947 1791 
Q 947 1169 1205 825 
Q 1463 481 1925 481 
Q 2391 481 2648 825 
Q 2906 1169 2906 1791 
z
M 3481 434 
Q 3481 -459 3084 -895 
Q 2688 -1331 1869 -1331 
Q 1566 -1331 1297 -1286 
Q 1028 -1241 775 -1147 
L 775 -588 
Q 1028 -725 1275 -790 
Q 1522 -856 1778 -856 
Q 2344 -856 2625 -561 
Q 2906 -266 2906 331 
L 2906 616 
Q 2728 306 2450 153 
Q 2172 0 1784 0 
Q 1141 0 747 490 
Q 353 981 353 1791 
Q 353 2603 747 3093 
Q 1141 3584 1784 3584 
Q 2172 3584 2450 3431 
Q 2728 3278 2906 2969 
L 2906 3500 
L 3481 3500 
L 3481 434 
z
" transform="scale(0.015625)"/>
       <path id="DejaVuSans-6c" d="M 603 4863 
L 1178 4863 
L 1178 0 
L 603 0 
L 603 4863 
z
" transform="scale(0.015625)"/>
       <path id="DejaVuSans-b0" d="M 1600 4347 
Q 1350 4347 1178 4173 
Q 1006 4000 1006 3750 
Q 1006 3503 1178 3333 
Q 1350 3163 1600 3163 
Q 1850 3163 2022 3333 
Q 2194 3503 2194 3750 
Q 2194 3997 2020 4172 
Q 1847 4347 1600 4347 
z
M 1600 4750 
Q 1800 4750 1984 4673 
Q 2169 4597 2303 4453 
Q 2447 4313 2519 4134 
Q 2591 3956 2591 3750 
Q 2591 3338 2302 3052 
Q 2013 2766 1594 2766 
Q 1172 2766 890 3047 
Q 609 3328 609 3750 
Q 609 4169 896 4459 
Q 1184 4750 1600 4750 
z
" transform="scale(0.015625)"/>
      </defs>
      <use xlink:href="#DejaVuSans-61"/>
      <use xlink:href="#DejaVuSans-6e" x="61.279297"/>
      <use xlink:href="#DejaVuSans-67" x="124.658203"/>
      <use xlink:href="#DejaVuSans-6c" x="188.134766"/>
      <use xlink:href="#DejaVuSans-65" x="215.917969"/>
      <use xlink:href="#DejaVuSans-20" x="277.441406"/>
      <use xlink:href="#DejaVuSans-5b" x="309.228516"/>
      <use xlink:href="#DejaVuSans-b0" x="348.242188"/>
      <use xlink:href="#DejaVuSans-5d" x="398.242188"/>
     </g>
    </g>
   </g>
   <g id="line2d_23">
    <path d="M 73.832727 291.398426 
L 74.311056 291.488065 
L 74.846281 291.70646 
L 75.325222 291.522967 
L 75.802998 291.6246 
L 76.352246 290.459717 
L 76.816433 290.43703 
L 77.298953 291.295436 
L 77.846024 290.029008 
L 78.313805 291.034916 
L 78.850776 291.667307 
L 79.336235 290.507189 
L 79.805434 291.143745 
L 80.342927 291.619388 
L 80.84414 292.657679 
L 81.297451 290.53516 
L 81.830603 291.742037 
L 82.320224 291.475392 
L 82.847663 292.322883 
L 83.350591 290.881682 
L 83.81239 291.252686 
L 84.338546 291.149438 
L 84.817799 289.920531 
L 85.366317 290.379223 
L 85.829712 289.893812 
L 86.856827 291.223436 
L 87.324071 290.832751 
L 87.799193 291.992948 
L 88.347098 291.689173 
L 88.81491 291.859154 
L 89.353954 291.137237 
L 89.826659 291.596333 
L 90.30724 291.3035 
L 90.845464 292.265884 
L 91.885826 292.055778 
L 92.813527 291.854731 
L 93.38645 292.054123 
L 93.829438 292.397942 
L 94.303873 292.438333 
L 95.352678 291.438464 
L 95.869883 291.139078 
L 96.331712 290.632369 
L 96.805565 291.316511 
L 97.374371 290.629786 
L 97.870526 291.767456 
L 98.302401 291.426251 
L 99.339943 291.929077 
L 99.855506 291.588401 
L 100.357346 290.913132 
L 101.414684 291.37245 
L 102.835303 291.325852 
L 103.339619 290.788161 
L 103.86288 291.146844 
L 104.323636 290.792301 
L 104.821432 290.671561 
L 105.341769 290.918212 
L 105.845995 291.439792 
L 106.353578 291.353931 
L 106.833652 291.389068 
L 107.307863 290.89148 
L 107.844983 291.155166 
L 108.323536 290.745987 
L 108.799955 290.812127 
L 109.336955 291.136223 
L 109.817208 290.068919 
L 110.35124 290.023792 
L 110.827988 290.294944 
L 111.308882 289.998272 
L 111.843392 289.913863 
L 112.319781 290.704913 
L 112.857662 289.939492 
L 113.335617 289.814219 
L 113.810813 290.238413 
L 114.365313 290.377379 
L 114.826038 290.271183 
L 115.303248 289.942683 
L 115.83998 289.895748 
L 116.317965 289.555511 
L 116.854877 290.339417 
L 117.332549 290.251368 
L 117.809922 290.475704 
L 118.347013 290.269562 
L 118.84199 290.698508 
L 119.489443 290.336134 
L 120.31891 290.531643 
L 120.859804 289.761931 
L 121.805228 289.720775 
L 121.944755 290.068741 
L 122.359489 290.239857 
L 122.843068 290.215947 
L 123.37619 289.889065 
L 123.85252 290.330794 
L 124.315155 290.463051 
L 124.852752 290.40617 
L 125.343403 290.710345 
L 126.3428 290.909511 
L 126.823142 290.926234 
L 127.357458 290.601047 
L 127.834325 290.458059 
L 128.313474 290.556863 
L 128.850027 290.325636 
L 129.327415 290.379708 
L 130.341029 290.901842 
L 130.828905 291.101905 
L 131.392162 290.700604 
L 131.832584 290.801594 
L 132.312076 290.48809 
L 132.849554 291.280409 
L 133.324944 291.608589 
L 133.861318 291.568694 
L 134.341675 291.362051 
L 134.816244 291.515076 
L 135.356333 291.567369 
L 135.830142 291.834108 
L 136.308858 291.613692 
L 136.847007 291.059631 
L 137.875405 292.020608 
L 139.366691 291.996554 
L 139.828058 291.452144 
L 140.380319 291.507226 
L 141.32082 291.338917 
L 141.882555 291.428336 
L 142.812822 290.224961 
L 143.364159 290.190768 
L 143.829345 290.809475 
L 144.378758 290.26822 
L 146.333245 290.391316 
L 146.870962 290.23205 
L 147.826187 289.332422 
L 148.362412 290.205767 
L 149.317443 290.769925 
L 149.852698 290.653023 
L 150.33049 291.559606 
L 150.867491 291.259156 
L 151.346804 290.387162 
L 151.823282 289.846523 
L 152.375022 290.860123 
L 152.867344 291.118121 
L 153.314747 290.452685 
L 153.851196 291.391747 
L 154.345218 289.916797 
L 154.86845 290.39658 
L 155.343467 290.347843 
L 155.822049 290.424594 
L 156.360407 291.94549 
L 156.834096 290.780832 
L 157.372842 292.490822 
L 157.863896 292.78608 
L 158.327575 292.526444 
L 158.864665 293.494713 
L 159.344411 292.028641 
L 159.818786 291.99448 
L 160.356309 291.665338 
L 160.839158 291.782381 
L 161.385273 291.584082 
L 161.848535 291.189921 
L 162.8765 290.746637 
L 163.340134 291.337436 
L 163.831053 291.537855 
L 164.384762 291.624709 
L 164.838267 291.439286 
L 165.398197 291.441948 
L 165.860205 291.051327 
L 166.334924 291.045197 
L 166.860408 291.424947 
L 167.879705 291.594085 
L 168.829023 291.378269 
L 169.36571 290.788187 
L 169.844755 291.619268 
L 170.334928 291.720968 
L 170.857608 290.909843 
L 171.335339 291.797552 
L 171.889257 290.983257 
L 172.349982 290.522668 
L 172.826237 290.304471 
L 173.379066 289.799652 
L 173.852919 290.348559 
L 175.882131 290.081047 
L 176.360623 290.80287 
L 176.83749 289.80454 
L 177.374864 289.68919 
L 177.854147 290.33682 
L 178.866478 289.633418 
L 179.342957 290.393025 
L 179.895442 290.316179 
L 180.418718 290.406824 
L 180.837107 289.880711 
L 181.374898 290.687661 
L 181.850616 290.734898 
L 182.866751 289.811297 
L 183.342991 289.922786 
L 183.879693 290.675004 
L 184.382935 290.272065 
L 184.892979 290.193254 
L 185.371829 290.473292 
L 185.852948 291.351682 
L 186.402062 290.388794 
L 186.877616 290.306925 
L 187.363135 290.031525 
L 188.357146 290.803233 
L 188.8927 291.006805 
L 189.36806 291.55816 
L 189.847119 290.596441 
L 190.382539 291.338536 
L 190.859196 290.38998 
L 191.338345 290.492307 
L 191.874302 290.303951 
L 192.350915 290.798056 
L 192.888214 290.946859 
L 193.8432 290.064559 
L 194.379903 290.735785 
L 194.862125 290.42619 
L 195.39371 291.31724 
L 195.871994 291.269367 
L 196.364465 290.929837 
L 196.887115 291.248501 
L 197.362922 290.924567 
L 198.07861 290.961324 
L 198.382578 291.100462 
L 198.855476 289.991635 
L 199.396355 289.963887 
L 199.875489 290.715376 
L 200.342346 289.980999 
L 200.89243 290.236113 
L 201.369177 291.352194 
L 201.9131 290.121773 
L 202.38573 290.133673 
L 202.855152 290.983961 
L 203.392601 290.933102 
L 203.872436 290.572674 
L 204.346408 289.933404 
L 204.884752 290.438657 
L 205.369316 290.273891 
L 205.898679 290.282946 
L 206.856201 289.970457 
L 207.39165 290.011156 
L 207.867144 289.3356 
L 208.331465 290.347946 
L 208.882071 290.400157 
L 209.89658 289.793115 
L 210.375401 289.751757 
L 210.851477 289.481786 
L 211.390163 289.662861 
L 211.868581 288.72844 
L 212.402076 288.9943 
L 212.881792 289.838992 
L 213.358718 290.046259 
L 214.373048 289.483768 
L 214.849184 291.204362 
L 215.386856 289.347517 
L 215.863946 290.033551 
L 216.441792 290.153358 
L 216.877724 290.052415 
L 217.916728 290.204325 
L 218.369472 290.527404 
L 218.846488 290.240045 
L 219.384906 290.380973 
L 219.861325 291.262461 
L 220.404189 292.026906 
L 221.353715 290.837194 
L 221.897951 291.303958 
L 222.369581 290.433326 
L 222.919844 290.113384 
L 223.386701 290.343821 
L 223.901921 290.013053 
L 224.418082 289.92119 
L 224.897768 289.5544 
L 225.353138 290.770865 
L 225.925568 289.962228 
L 226.412296 290.143402 
L 227.395387 290.929396 
L 227.871762 290.75955 
L 228.397857 291.408386 
L 228.902262 291.046212 
L 229.408622 291.071225 
L 229.885861 290.464624 
L 230.3968 290.492214 
L 230.904025 289.823095 
L 231.885237 289.83172 
L 232.394371 290.917116 
L 232.887812 291.238253 
L 233.410581 291.26992 
L 233.884851 290.940148 
L 234.361629 290.263224 
L 234.915442 290.928923 
L 235.407361 289.734072 
L 235.87101 290.352322 
L 236.40992 290.425372 
L 236.885847 290.196421 
L 238.895904 289.924242 
L 240.387682 290.133827 
L 241.40228 289.344895 
L 241.881071 290.220352 
L 242.361399 289.664708 
L 242.896595 289.669322 
L 243.356649 290.539268 
L 243.911178 289.598003 
L 244.386702 290.149773 
L 244.849098 289.303705 
L 245.401285 289.656083 
L 245.878137 289.382937 
L 246.891766 289.667546 
L 247.370258 290.163328 
L 247.906677 290.127389 
L 248.384454 291.478847 
L 248.863051 290.262114 
L 249.398769 290.262752 
L 249.875083 290.839126 
L 250.415262 290.272811 
L 250.892456 290.665742 
L 251.367324 290.509076 
L 251.908934 290.797609 
L 252.383414 290.823792 
L 253.399788 290.301259 
L 253.874208 290.423532 
L 254.396723 290.177771 
L 254.891073 290.299426 
L 255.365807 290.075767 
L 255.888352 289.638259 
L 256.387596 289.518209 
L 256.917749 289.565775 
L 257.881582 290.977784 
L 258.409915 290.537236 
L 258.885528 290.809213 
L 259.367363 290.610703 
L 260.365432 290.708172 
L 260.924616 291.25411 
L 261.394799 291.103483 
L 262.4071 291.338572 
L 262.88519 291.114712 
L 263.91029 291.258554 
L 264.377013 291.599317 
L 264.913656 290.83236 
L 265.406529 290.455215 
L 265.868045 290.386307 
L 266.422112 291.058603 
L 266.897711 291.002897 
L 267.441693 290.297905 
L 268.393755 290.043903 
L 268.938424 289.925832 
L 269.406683 290.46187 
L 269.878268 289.834584 
L 270.428591 290.153275 
L 272.396236 289.42842 
L 272.909875 289.66749 
L 273.877781 289.625374 
L 274.399953 289.362927 
L 274.884428 289.417728 
L 275.41561 290.0153 
L 275.892686 290.052698 
L 276.377384 289.631512 
L 277.401127 289.29817 
L 277.922226 290.703299 
L 278.397317 289.975179 
L 278.991841 290.041262 
L 279.427818 291.264537 
L 279.90367 289.911516 
L 280.377225 289.806378 
L 280.905349 290.132511 
L 282.413657 290.362124 
L 282.873159 290.701281 
L 283.410696 290.460296 
L 283.887951 290.412566 
L 284.427025 291.176602 
L 284.903056 290.341462 
L 285.379595 290.060928 
L 285.91855 290.224349 
L 286.393984 290.201602 
L 287.416489 289.526864 
L 287.885777 290.17977 
L 288.422763 290.310848 
L 288.902897 289.863798 
L 289.377272 290.056798 
L 289.914004 290.527797 
L 290.394019 290.503008 
L 290.86917 291.488725 
L 291.406946 291.061359 
L 291.887662 290.487045 
L 292.42056 290.429234 
L 292.897397 290.005781 
L 293.379156 289.987665 
L 293.915799 290.24161 
L 294.389742 289.798863 
L 294.9271 290.168304 
L 295.404847 290.091502 
L 296.898624 290.101876 
L 297.373522 290.429436 
L 297.910209 290.507269 
L 298.926747 290.310886 
L 299.401943 290.184708 
L 299.8951 289.819189 
L 300.416034 289.947718 
L 301.909856 289.721324 
L 302.386663 290.586449 
L 302.93157 289.850145 
L 303.401992 289.674881 
L 303.878322 289.747666 
L 304.417948 289.584012 
L 304.89283 289.186835 
L 305.451089 288.961951 
L 305.92906 289.024778 
L 306.386339 289.723444 
L 306.941137 290.331747 
L 307.438724 289.400444 
L 307.876685 289.709291 
L 308.440687 289.740016 
L 308.904948 289.650708 
L 309.447842 290.025558 
L 309.925946 291.065055 
L 310.407423 290.078201 
L 310.934876 291.347399 
L 311.425198 290.097808 
L 311.948639 290.20995 
L 312.42737 289.887305 
L 313.430109 290.609417 
L 313.920312 290.663745 
L 314.402206 291.503576 
L 314.925542 290.405741 
L 315.414984 291.141936 
L 315.932233 290.124774 
L 316.409801 290.319545 
L 317.423146 290.228671 
L 317.901102 289.862536 
L 318.382727 289.827339 
L 318.914626 289.334409 
L 319.410647 289.425424 
L 319.932507 289.871238 
L 320.890476 291.227295 
L 321.423971 290.933882 
L 321.8986 291.516436 
L 322.436988 291.038519 
L 322.927863 291.488528 
L 323.390468 291.398873 
L 323.927379 290.945476 
L 324.883663 290.802585 
L 325.419217 291.090245 
L 325.898336 291.146587 
L 326.435277 290.533257 
L 329.417536 290.342696 
L 329.894029 291.065984 
L 330.431672 290.007307 
L 330.908523 289.719753 
L 331.386479 289.846631 
L 331.925553 289.588585 
L 332.463404 290.05844 
L 332.937824 289.894723 
L 333.415183 289.965378 
L 333.896257 288.994264 
L 334.907409 288.845029 
L 335.383888 289.382553 
L 335.921157 289.816797 
L 336.399217 289.590118 
L 336.940484 288.559937 
L 337.414337 288.588893 
L 337.890443 289.006637 
L 338.437872 290.069281 
L 338.905146 289.600343 
L 339.921639 289.549341 
L 340.934238 290.041469 
L 341.413223 290.073 
L 341.888747 289.798209 
L 343.440659 290.50099 
L 344.93475 290.664809 
L 345.409886 290.425077 
L 345.955166 290.759925 
L 346.426886 290.418351 
L 346.901351 291.132447 
L 347.444617 290.311022 
L 347.919201 290.160023 
L 348.93013 289.590155 
L 349.407817 289.321134 
L 349.952724 289.590063 
L 350.426234 290.725591 
L 350.902325 290.443268 
L 351.436984 290.992499 
L 351.927172 288.962163 
L 352.39115 291.094476 
L 353.41619 290.595564 
L 353.982579 288.88342 
L 354.432027 290.203863 
L 354.906924 290.014392 
L 355.488112 289.43918 
L 355.931458 290.911398 
L 356.931944 290.962449 
L 357.9469 290.837893 
L 358.906466 290.898303 
L 359.457848 290.809814 
L 359.931985 290.575597 
L 360.453083 290.659038 
L 362.403513 290.158331 
L 362.904099 290.145763 
L 363.42005 290.352496 
L 363.896455 289.448768 
L 364.432814 288.723241 
L 364.914946 289.928846 
L 365.403912 289.595768 
L 365.923772 289.512111 
L 366.402339 288.990807 
L 366.953437 288.794071 
L 367.627548 289.664614 
L 367.902277 289.824347 
L 368.445961 288.565208 
L 368.907641 291.20633 
L 369.400201 289.84146 
L 369.921852 289.033649 
L 370.938911 289.365512 
L 371.414972 288.97324 
L 371.893405 289.909416 
L 372.429959 291.863778 
L 372.937362 291.510685 
L 373.382767 292.100885 
L 373.922408 291.612723 
L 374.399126 291.87486 
L 375.888591 292.203242 
L 376.426786 292.490255 
L 377.9174 291.823042 
L 378.395565 292.734025 
L 378.934773 292.564583 
L 379.409328 291.888189 
L 379.886776 291.841332 
L 380.439739 291.164461 
L 381.438688 290.84074 
L 381.917345 290.160452 
L 382.394107 290.327915 
L 382.931153 291.968649 
L 383.423146 290.119744 
L 383.884364 292.963392 
L 384.421961 292.847938 
L 384.915178 292.522425 
L 385.438394 292.355885 
L 385.914694 295.310275 
L 386.393336 292.967901 
L 386.943703 293.27336 
L 387.405697 292.579172 
L 387.963224 293.830372 
L 388.419713 295.488 
L 388.92112 291.036356 
L 389.534202 293.287308 
L 389.936598 292.904269 
L 390.389253 292.689777 
L 390.925418 292.631687 
L 391.406149 293.027921 
L 391.964184 293.782238 
L 392.417808 291.841024 
L 392.8956 293.403216 
L 393.440029 292.938531 
L 394.463295 292.673927 
L 394.941385 292.283461 
L 395.401618 292.614397 
L 395.960429 292.008133 
L 396.423198 291.733979 
L 396.917638 291.114735 
L 397.446464 289.925463 
L 397.939501 290.358437 
L 398.487273 290.123162 
L 398.487273 290.123162 
" clip-path="url(#p478048e9cd)" style="fill: none; stroke: #ff0000; stroke-width: 1.5; stroke-linecap: square"/>
   </g>
   <g id="line2d_24">
    <path d="M 73.832727 59.197428 
L 74.311056 58.942003 
L 74.846281 58.967631 
L 75.325222 58.727804 
L 75.802998 58.659844 
L 76.352246 59.498908 
L 76.816433 59.340283 
L 77.298953 58.347919 
L 77.846024 59.162541 
L 78.313805 58.712297 
L 78.850776 57.755191 
L 79.336235 57.985748 
L 79.805434 58.032428 
L 80.342927 57.49626 
L 80.84414 57.870963 
L 81.297451 57.801885 
L 81.830603 58.051336 
L 82.320224 59.699588 
L 82.847663 59.037367 
L 83.350591 60.153128 
L 83.81239 61.503169 
L 84.338546 62.414428 
L 85.829712 69.848406 
L 86.307176 74.509909 
L 87.799193 80.46123 
L 88.347098 82.245867 
L 88.81491 83.068652 
L 89.353954 83.388126 
L 90.30724 84.410969 
L 90.845464 83.744498 
L 91.320749 85.038141 
L 92.337153 85.224529 
L 92.813527 85.381459 
L 93.38645 85.371007 
L 93.829438 84.744233 
L 94.875871 85.37838 
L 95.352678 86.255373 
L 95.869883 86.361017 
L 96.331712 85.711978 
L 96.805565 85.557739 
L 97.374371 84.902596 
L 97.870526 83.939492 
L 99.855506 75.132619 
L 100.357346 71.532183 
L 100.840299 63.728429 
L 102.370759 58.275477 
L 102.835303 58.224074 
L 103.339619 58.524566 
L 103.86288 57.197102 
L 104.323636 57.926402 
L 105.341769 57.451563 
L 105.845995 56.647179 
L 106.833652 56.231343 
L 107.307863 56.864843 
L 107.844983 55.968799 
L 108.323536 56.562397 
L 108.799955 56.601485 
L 109.336955 55.893439 
L 109.817208 56.582046 
L 110.827988 56.497758 
L 111.308882 56.708409 
L 111.843392 56.806398 
L 112.319781 56.370928 
L 112.857662 57.172652 
L 113.335617 57.539835 
L 114.365313 59.879779 
L 114.826038 60.586413 
L 115.303248 63.433479 
L 116.317965 67.819473 
L 116.854877 71.649511 
L 118.84199 81.040927 
L 119.489443 82.779938 
L 119.931789 83.348218 
L 120.31891 84.34959 
L 120.859804 85.049205 
L 121.805228 85.267849 
L 121.944755 85.436046 
L 122.359489 85.600335 
L 122.843068 85.983882 
L 123.37619 86.249433 
L 124.315155 86.251422 
L 124.852752 86.372267 
L 125.343403 86.363096 
L 125.806262 86.125097 
L 126.3428 86.069084 
L 126.823142 85.643934 
L 127.834325 85.1729 
L 128.313474 84.491772 
L 128.850027 84.191902 
L 129.327415 83.246062 
L 129.865461 81.777036 
L 130.341029 78.954276 
L 130.828905 76.771168 
L 131.392162 73.006096 
L 132.312076 62.911163 
L 132.849554 61.029638 
L 133.324944 60.067512 
L 133.861318 59.518844 
L 134.341675 60.150241 
L 134.816244 60.165965 
L 135.356333 59.931853 
L 135.830142 59.032626 
L 136.308858 58.97784 
L 136.847007 59.485888 
L 137.32371 58.811331 
L 138.813996 58.560512 
L 139.366691 58.472866 
L 139.828058 59.033835 
L 140.380319 58.116975 
L 140.849056 59.079421 
L 142.812822 59.35533 
L 143.364159 59.494073 
L 143.829345 60.079423 
L 144.378758 59.938065 
L 144.841542 60.212019 
L 145.321257 61.039495 
L 145.857035 61.352088 
L 147.347277 66.423362 
L 147.826187 69.714487 
L 148.840636 74.818617 
L 149.317443 77.684482 
L 149.852698 79.035982 
L 150.33049 80.918949 
L 150.867491 82.175061 
L 151.346804 82.994946 
L 151.823282 84.382033 
L 152.375022 83.908117 
L 152.867344 84.245395 
L 153.314747 85.436359 
L 153.851196 84.833356 
L 154.345218 86.039482 
L 154.86845 85.941803 
L 155.343467 86.155791 
L 155.822049 86.148007 
L 156.360407 84.579715 
L 156.834096 85.710712 
L 157.372842 85.578958 
L 157.863896 84.678303 
L 158.327575 84.678613 
L 158.864665 83.519324 
L 159.344411 83.507995 
L 160.356309 82.631585 
L 160.839158 81.740865 
L 161.848535 77.992105 
L 162.8765 71.243398 
L 163.340134 65.541126 
L 163.831053 61.267618 
L 164.384762 60.049932 
L 165.398197 59.023332 
L 165.860205 59.549542 
L 166.334924 59.465099 
L 166.860408 58.673678 
L 168.829023 58.185707 
L 169.36571 58.692773 
L 169.844755 57.753778 
L 170.334928 57.80214 
L 170.857608 58.506801 
L 171.335339 57.472276 
L 172.349982 57.703498 
L 172.826237 57.601279 
L 173.379066 58.443644 
L 173.852919 57.762583 
L 174.392993 57.866209 
L 174.869875 57.839121 
L 175.345264 58.024201 
L 175.882131 58.569307 
L 176.360623 59.560779 
L 176.83749 60.259136 
L 177.374864 61.468173 
L 178.866478 67.662512 
L 179.342957 71.577454 
L 179.895442 73.164881 
L 180.837107 79.027631 
L 181.374898 80.822667 
L 182.388915 83.445858 
L 183.342991 84.400891 
L 183.879693 84.040127 
L 184.382935 85.01998 
L 185.371829 85.569019 
L 185.852948 84.818926 
L 186.402062 85.862746 
L 187.363135 86.213368 
L 188.357146 85.837452 
L 189.36806 85.841792 
L 189.847119 85.004923 
L 190.382539 84.930045 
L 190.859196 84.379663 
L 191.338345 83.631606 
L 191.874302 83.2518 
L 192.350915 81.58527 
L 192.888214 78.20536 
L 193.366841 77.609639 
L 193.8432 71.946839 
L 194.379903 67.842659 
L 194.862125 63.245308 
L 195.871994 59.813323 
L 196.364465 59.842164 
L 196.887115 59.035626 
L 197.362922 59.372322 
L 199.396355 59.113137 
L 199.875489 58.170311 
L 200.342346 58.929635 
L 200.89243 58.759747 
L 201.369177 58.108444 
L 201.9131 58.670179 
L 202.38573 58.637663 
L 202.855152 58.803326 
L 203.392601 58.816777 
L 203.872436 57.921809 
L 204.346408 58.754455 
L 204.884752 58.099875 
L 205.369316 58.126213 
L 205.898679 58.29245 
L 206.375859 58.610131 
L 206.856201 59.277452 
L 207.39165 59.510421 
L 207.867144 60.124881 
L 208.331465 61.14891 
L 208.882071 62.715712 
L 209.89658 67.128571 
L 211.868581 80.078778 
L 212.402076 80.615965 
L 212.881792 82.003688 
L 213.358718 82.836543 
L 213.894168 83.351292 
L 214.373048 84.368963 
L 214.849184 83.837237 
L 215.386856 85.366648 
L 215.863946 85.541419 
L 216.441792 85.554576 
L 216.877724 85.885566 
L 217.916728 86.079974 
L 218.846488 86.124325 
L 219.384906 85.984033 
L 219.861325 86.235506 
L 220.404189 84.923193 
L 220.879817 85.68599 
L 221.353715 84.79849 
L 221.897951 84.703444 
L 222.369581 84.038612 
L 222.919844 83.490914 
L 223.386701 82.6803 
L 224.418082 78.680063 
L 224.897768 75.706865 
L 225.353138 70.254493 
L 225.925568 64.988498 
L 226.953921 60.252044 
L 227.395387 59.298538 
L 227.871762 59.592188 
L 228.397857 58.58867 
L 228.902262 59.25611 
L 230.3968 58.899292 
L 230.904025 59.056871 
L 232.394371 58.905911 
L 232.887812 58.169379 
L 233.410581 58.187392 
L 233.884851 58.826539 
L 234.361629 57.984801 
L 234.915442 58.91908 
L 235.407361 58.704771 
L 235.87101 58.009296 
L 236.885847 58.217269 
L 237.898163 59.089146 
L 238.367824 59.679141 
L 238.895904 59.966117 
L 239.376246 60.750359 
L 239.912725 62.159878 
L 240.387682 63.937853 
L 240.867666 66.501956 
L 241.40228 68.207717 
L 241.881071 70.964362 
L 242.361399 74.677201 
L 242.896595 77.155008 
L 243.356649 80.466195 
L 243.911178 82.141322 
L 244.386702 83.046609 
L 244.849098 83.388037 
L 245.401285 84.006254 
L 245.878137 84.935889 
L 247.906677 85.536078 
L 248.384454 84.004675 
L 248.863051 85.838127 
L 249.398769 85.948081 
L 249.875083 85.273752 
L 250.415262 85.850292 
L 250.892456 85.831662 
L 251.367324 85.699282 
L 252.383414 85.018353 
L 252.844975 84.511952 
L 253.399788 84.20167 
L 254.396723 82.859425 
L 254.891073 81.556269 
L 255.365807 79.119869 
L 255.888352 77.532631 
L 256.387596 74.067522 
L 256.917749 69.310365 
L 257.380697 63.104127 
L 257.881582 60.986978 
L 258.409915 60.006579 
L 258.885528 59.456663 
L 259.900783 59.094295 
L 260.365432 59.531329 
L 260.924616 58.751618 
L 261.394799 58.560118 
L 261.855077 58.209804 
L 263.347482 58.157082 
L 263.91029 58.868273 
L 264.377013 57.987978 
L 264.913656 57.894499 
L 265.406529 58.018959 
L 265.868045 57.993031 
L 266.897711 58.153898 
L 267.441693 58.100902 
L 268.393755 58.493162 
L 268.938424 58.83063 
L 270.428591 60.349301 
L 270.897342 61.077144 
L 272.396236 67.425636 
L 274.399953 79.014454 
L 274.884428 81.131484 
L 275.892686 83.109358 
L 276.377384 83.367487 
L 276.92902 84.358688 
L 277.401127 84.964661 
L 277.922226 84.159541 
L 278.397317 85.380907 
L 278.991841 85.413484 
L 279.427818 84.116152 
L 279.90367 85.934814 
L 281.385229 85.970113 
L 282.413657 85.720832 
L 282.873159 85.529583 
L 283.410696 84.93593 
L 283.887951 84.649355 
L 284.427025 84.655961 
L 284.903056 83.851386 
L 285.379595 83.275522 
L 285.91855 82.407468 
L 286.871343 78.480281 
L 287.416489 75.769338 
L 288.422763 64.50931 
L 289.377272 60.48549 
L 289.914004 59.369812 
L 290.394019 59.470179 
L 290.86917 58.400575 
L 291.406946 58.754815 
L 292.42056 58.378611 
L 293.379156 58.276282 
L 293.915799 57.579391 
L 294.389742 58.170534 
L 294.9271 57.470216 
L 295.884414 57.398956 
L 297.910209 57.355726 
L 299.8951 58.112516 
L 301.371841 59.717226 
L 301.909856 59.981261 
L 302.386663 61.269764 
L 302.93157 64.069994 
L 303.401992 65.395986 
L 304.417948 71.989318 
L 304.89283 75.212848 
L 306.386339 81.479551 
L 307.438724 83.481537 
L 307.876685 83.573513 
L 308.904948 84.604273 
L 309.447842 84.629767 
L 309.925946 84.12915 
L 310.407423 85.093208 
L 310.934876 83.810951 
L 311.425198 85.385137 
L 312.42737 85.639145 
L 313.430109 85.317726 
L 314.402206 85.15521 
L 314.925542 84.583792 
L 315.414984 84.617015 
L 315.932233 84.240318 
L 317.423146 81.318713 
L 318.382727 77.074147 
L 318.914626 73.203929 
L 319.410647 66.896215 
L 319.932507 62.448431 
L 320.406315 60.586992 
L 320.890476 59.629783 
L 321.423971 60.009077 
L 321.8986 58.787801 
L 322.436988 59.128788 
L 322.927863 58.292559 
L 323.390468 58.025125 
L 323.927379 58.642626 
L 324.412958 57.742822 
L 325.419217 57.459516 
L 325.898336 57.371057 
L 326.435277 57.566575 
L 328.403161 57.574102 
L 329.417536 57.733752 
L 329.894029 57.949564 
L 330.431672 57.938085 
L 330.908523 58.174151 
L 332.463404 59.795522 
L 332.937824 60.699603 
L 333.415183 61.224766 
L 333.896257 62.9231 
L 334.907409 67.884826 
L 335.383888 70.006683 
L 336.940484 78.905278 
L 337.414337 80.374369 
L 338.437872 82.697119 
L 338.905146 83.094702 
L 339.921639 84.192018 
L 341.413223 85.024983 
L 341.888747 85.217972 
L 342.534365 85.218781 
L 342.905613 85.445827 
L 343.916825 85.551945 
L 344.396809 85.360546 
L 344.93475 85.272853 
L 346.426886 84.440935 
L 346.901351 84.352555 
L 347.444617 83.501305 
L 347.919201 83.23016 
L 348.393398 82.089174 
L 348.93013 79.670914 
L 349.407817 78.276409 
L 349.952724 74.020848 
L 350.902325 63.744865 
L 351.436984 61.833604 
L 351.927172 62.650915 
L 352.39115 60.116418 
L 352.937504 59.405443 
L 353.41619 59.708299 
L 353.982579 61.384172 
L 354.432027 59.59633 
L 354.906924 59.951317 
L 355.488112 59.355081 
L 355.931458 59.431823 
L 356.409652 59.261448 
L 356.931944 59.295103 
L 357.553216 58.980984 
L 362.403513 59.3759 
L 362.904099 59.848896 
L 363.42005 60.166316 
L 363.896455 61.004032 
L 364.914946 61.894273 
L 365.403912 64.624582 
L 365.923772 65.808173 
L 366.402339 68.751235 
L 366.953437 73.085022 
L 367.627548 73.745397 
L 367.902277 76.775448 
L 368.445961 80.228189 
L 368.907641 79.836784 
L 369.400201 82.276954 
L 369.921852 83.332485 
L 370.938911 84.622377 
L 371.414972 85.03603 
L 371.893405 84.819143 
L 372.429959 84.00544 
L 372.937362 84.514754 
L 373.382767 83.914692 
L 373.922408 85.019061 
L 374.399126 84.445512 
L 374.934694 85.047666 
L 375.457836 84.33654 
L 376.426786 83.962166 
L 376.9031 83.178232 
L 377.441578 83.643859 
L 377.9174 83.425958 
L 378.934773 82.451368 
L 379.409328 81.296372 
L 380.439739 77.316918 
L 380.901255 74.98212 
L 381.917345 67.471743 
L 382.394107 61.481304 
L 383.423146 53.568 
L 383.884364 55.625928 
L 384.421961 56.803247 
L 384.915178 56.169695 
L 385.438394 55.993454 
L 385.914694 56.347271 
L 386.393336 55.271201 
L 386.943703 56.453229 
L 387.405697 55.788766 
L 388.419713 55.605196 
L 388.92112 54.488341 
L 389.534202 54.165736 
L 389.936598 54.616632 
L 390.389253 54.468611 
L 390.925418 54.515288 
L 391.406149 54.287519 
L 391.964184 54.244764 
L 392.417808 55.344598 
L 392.8956 54.553622 
L 393.440029 54.832379 
L 393.911496 55.489212 
L 394.941385 56.357637 
L 395.960429 58.140406 
L 396.423198 59.471533 
L 397.939501 67.140607 
L 398.487273 70.874194 
L 398.487273 70.874194 
" clip-path="url(#p478048e9cd)" style="fill: none; stroke: #008000; stroke-width: 1.5; stroke-linecap: square"/>
   </g>
   <g id="line2d_25">
    <path d="M 73.832727 239.786988 
L 74.311056 239.917672 
L 75.802998 239.733011 
L 77.846024 240.054494 
L 78.313805 240.386084 
L 78.850776 239.899528 
L 79.336235 240.258372 
L 79.805434 240.425941 
L 80.342927 239.557486 
L 80.84414 240.326375 
L 81.297451 239.963979 
L 82.847663 241.007621 
L 83.81239 241.726756 
L 84.338546 242.221215 
L 84.817799 243.088188 
L 85.366317 243.539137 
L 86.307176 244.51969 
L 86.856827 244.608766 
L 87.324071 245.190136 
L 87.799193 244.932098 
L 88.347098 246.113427 
L 88.81491 246.106751 
L 89.353954 246.498661 
L 89.826659 246.439279 
L 90.30724 246.721264 
L 90.845464 245.401171 
L 91.320749 246.285573 
L 91.885826 246.497519 
L 92.337153 246.409566 
L 92.813527 246.573663 
L 93.38645 246.588682 
L 93.829438 245.518385 
L 94.303873 245.565211 
L 94.875871 245.910649 
L 95.352678 246.463148 
L 95.869883 245.972558 
L 96.331712 246.020964 
L 96.805565 245.614642 
L 97.374371 246.251808 
L 97.870526 245.7651 
L 98.302401 245.562637 
L 100.357346 243.511464 
L 100.840299 240.329496 
L 101.414684 240.138133 
L 101.910302 239.647787 
L 102.370759 239.800609 
L 102.835303 239.701167 
L 103.339619 240.497157 
L 103.86288 239.448845 
L 104.323636 240.64212 
L 105.341769 240.943876 
L 105.845995 240.149801 
L 106.833652 240.447015 
L 107.307863 241.530594 
L 107.844983 240.71105 
L 108.323536 241.767461 
L 108.799955 241.82396 
L 109.336955 241.01031 
L 109.817208 241.803258 
L 111.843392 242.15598 
L 112.319781 241.178708 
L 112.857662 241.670451 
L 113.335617 241.904975 
L 113.810813 242.677945 
L 114.826038 243.052815 
L 115.303248 243.733638 
L 116.317965 244.374127 
L 117.809922 245.039449 
L 119.489443 246.417816 
L 119.931789 246.280427 
L 120.31891 246.477335 
L 120.859804 247.028623 
L 121.805228 246.743092 
L 121.944755 246.509075 
L 122.359489 246.841196 
L 122.843068 246.502487 
L 123.37619 246.561056 
L 124.315155 246.441368 
L 124.852752 246.478328 
L 125.806262 246.162644 
L 126.3428 246.509849 
L 126.823142 246.365892 
L 127.357458 245.983913 
L 127.834325 246.00508 
L 128.313474 245.880981 
L 129.327415 245.781267 
L 129.865461 245.382469 
L 130.828905 244.899281 
L 131.392162 244.519123 
L 132.312076 241.92391 
L 132.849554 240.892497 
L 133.324944 241.16032 
L 133.861318 241.022053 
L 134.341675 242.060929 
L 134.816244 242.17408 
L 135.356333 242.1253 
L 135.830142 241.564463 
L 136.308858 241.51254 
L 136.847007 242.543026 
L 137.32371 241.56201 
L 137.875405 241.164712 
L 139.366691 241.177607 
L 139.828058 242.218365 
L 140.380319 241.089909 
L 140.849056 242.328357 
L 141.32082 242.440513 
L 141.882555 242.411597 
L 142.3397 242.943328 
L 142.812822 242.963394 
L 143.364159 243.131599 
L 143.829345 243.471943 
L 144.378758 242.485299 
L 144.841542 242.469846 
L 145.321257 243.43571 
L 145.857035 243.51669 
L 146.333245 243.413501 
L 146.870962 243.982998 
L 148.362412 244.879117 
L 148.840636 244.915172 
L 149.852698 245.405808 
L 150.33049 245.352603 
L 151.346804 246.323167 
L 151.823282 246.376203 
L 152.375022 246.872777 
L 152.867344 246.728739 
L 153.314747 246.364678 
L 153.851196 246.557821 
L 154.345218 246.537408 
L 154.86845 246.802516 
L 155.343467 246.412501 
L 155.822049 246.464885 
L 156.360407 245.701055 
L 156.834096 246.478154 
L 157.372842 245.935699 
L 157.863896 245.143799 
L 158.327575 245.801909 
L 158.864665 244.582236 
L 159.344411 245.954117 
L 159.818786 245.808368 
L 160.356309 245.825639 
L 160.839158 245.711291 
L 161.385273 245.196266 
L 161.848535 245.163377 
L 162.338977 244.733003 
L 162.8765 244.0871 
L 163.340134 242.028506 
L 163.831053 240.581539 
L 164.384762 239.953641 
L 164.838267 240.322526 
L 165.398197 240.321071 
L 165.860205 241.277118 
L 166.334924 241.230854 
L 166.860408 240.535991 
L 168.829023 241.216406 
L 169.36571 242.296404 
L 169.844755 241.257146 
L 170.334928 241.270868 
L 170.857608 242.43765 
L 171.335339 241.409502 
L 171.889257 241.235524 
L 172.349982 241.456607 
L 172.826237 241.48849 
L 173.379066 242.595438 
L 173.852919 241.598028 
L 175.882131 242.032612 
L 176.360623 242.435301 
L 176.83749 242.986583 
L 177.374864 243.301666 
L 177.854147 243.316706 
L 178.398353 243.891802 
L 179.342957 244.527637 
L 179.895442 244.526294 
L 180.418718 245.069484 
L 180.837107 246.497729 
L 181.374898 246.200481 
L 181.850616 246.347688 
L 182.388915 246.182721 
L 183.342991 246.543453 
L 183.879693 246.880502 
L 184.382935 246.613792 
L 184.892979 246.754373 
L 185.371829 246.2665 
L 185.852948 246.587625 
L 186.402062 246.786015 
L 186.877616 246.764618 
L 187.363135 246.374307 
L 187.878728 246.32624 
L 188.357146 246.458191 
L 189.36806 245.797067 
L 189.847119 245.97274 
L 190.382539 245.662367 
L 190.859196 245.83709 
L 191.338345 245.765796 
L 191.874302 245.804055 
L 192.888214 244.698439 
L 193.366841 245.106488 
L 194.379903 242.512652 
L 194.862125 241.355226 
L 195.39371 240.773897 
L 195.871994 241.173716 
L 196.364465 241.89215 
L 196.887115 241.100465 
L 197.362922 241.997046 
L 198.07861 241.966819 
L 198.382578 242.093944 
L 199.396355 242.147939 
L 199.875489 241.310843 
L 200.342346 242.258438 
L 200.89243 242.41512 
L 201.369177 241.846502 
L 201.9131 242.478031 
L 202.38573 242.484207 
L 202.855152 242.874701 
L 203.392601 242.915497 
L 203.872436 241.67271 
L 204.346408 242.669295 
L 204.884752 241.680229 
L 206.375859 241.976943 
L 206.856201 242.321715 
L 207.39165 242.373791 
L 207.867144 242.872593 
L 208.882071 243.275934 
L 209.359788 243.832307 
L 210.851477 244.807314 
L 211.390163 245.592225 
L 211.868581 246.71454 
L 212.402076 246.589066 
L 212.881792 246.34344 
L 213.358718 246.379203 
L 213.894168 246.593832 
L 214.373048 246.630994 
L 214.849184 246.496183 
L 215.386856 246.921006 
L 215.863946 246.573455 
L 216.441792 246.679725 
L 216.877724 246.532554 
L 217.355217 246.828704 
L 217.916728 246.439001 
L 218.369472 246.309425 
L 219.384906 246.622648 
L 219.861325 245.9822 
L 220.404189 246.191891 
L 220.879817 245.723015 
L 221.353715 245.758961 
L 221.897951 245.604932 
L 222.369581 245.815806 
L 223.386701 245.715237 
L 223.901921 245.41098 
L 224.418082 245.30617 
L 224.897768 244.892356 
L 225.353138 243.13282 
L 225.925568 241.746349 
L 226.412296 241.814356 
L 227.395387 241.163834 
L 227.871762 241.976248 
L 228.397857 240.592204 
L 228.902262 241.43103 
L 229.408622 241.43488 
L 229.885861 241.279309 
L 230.3968 241.393847 
L 230.904025 241.826374 
L 231.885237 241.985074 
L 232.394371 242.42642 
L 232.887812 241.65467 
L 233.410581 241.709963 
L 233.884851 242.62462 
L 234.361629 241.656348 
L 234.915442 242.872706 
L 235.407361 242.702587 
L 235.87101 241.637005 
L 236.40992 241.65774 
L 238.895904 242.458404 
L 239.376246 243.270404 
L 239.912725 243.388765 
L 240.867666 244.186356 
L 241.40228 244.386065 
L 241.881071 244.426703 
L 242.361399 245.12605 
L 242.896595 245.607054 
L 243.356649 245.800119 
L 243.911178 246.544739 
L 244.386702 246.274224 
L 244.849098 246.354506 
L 245.401285 246.255106 
L 245.878137 246.568529 
L 247.906677 246.754315 
L 248.384454 245.433995 
L 248.863051 246.466445 
L 249.398769 246.63621 
L 249.875083 246.653947 
L 250.415262 246.190146 
L 251.367324 245.999219 
L 254.891073 245.434002 
L 256.387596 244.28257 
L 256.917749 243.654529 
L 257.380697 240.96368 
L 257.881582 240.227105 
L 258.409915 240.776132 
L 258.885528 241.090087 
L 259.900783 241.152815 
L 260.365432 241.772075 
L 260.924616 240.726708 
L 261.394799 240.974234 
L 262.88519 241.254859 
L 263.347482 241.178467 
L 263.91029 242.162607 
L 264.377013 241.332644 
L 264.913656 241.18899 
L 265.406529 241.385865 
L 265.868045 241.416298 
L 266.422112 241.67679 
L 266.897711 241.680041 
L 267.441693 241.516311 
L 267.916978 241.683728 
L 268.393755 241.708563 
L 268.938424 241.898848 
L 269.406683 242.33612 
L 269.878268 242.2568 
L 272.396236 244.423351 
L 272.909875 244.554058 
L 273.417562 244.945364 
L 274.399953 246.049593 
L 274.884428 245.85452 
L 275.41561 246.026588 
L 275.892686 245.924401 
L 276.377384 246.592716 
L 277.922226 246.685756 
L 278.397317 246.518721 
L 278.991841 246.693221 
L 279.427818 245.756045 
L 279.90367 246.405283 
L 280.905349 246.370928 
L 281.919321 246.271192 
L 282.413657 246.536956 
L 282.873159 246.004215 
L 283.887951 245.75132 
L 284.427025 245.454938 
L 284.903056 245.767257 
L 285.91855 245.576492 
L 286.393984 245.381899 
L 286.871343 244.790668 
L 287.416489 244.558201 
L 287.885777 244.110129 
L 288.422763 242.130336 
L 288.902897 242.266456 
L 289.377272 241.811061 
L 289.914004 241.506546 
L 290.394019 242.20754 
L 290.86917 241.183548 
L 291.406946 242.000063 
L 291.887662 241.797858 
L 292.42056 241.860211 
L 292.897397 242.066962 
L 293.379156 242.096309 
L 293.915799 241.296202 
L 294.389742 242.286161 
L 294.9271 241.408947 
L 295.884414 241.509473 
L 297.910209 241.489304 
L 300.416034 242.245901 
L 300.894526 242.246559 
L 301.371841 242.465564 
L 301.909856 243.157951 
L 302.386663 242.985317 
L 302.93157 243.910638 
L 303.878322 244.209772 
L 304.417948 244.702401 
L 305.451089 246.118027 
L 305.92906 246.545587 
L 307.438724 246.19473 
L 307.876685 246.343176 
L 308.904948 246.370641 
L 309.447842 246.596466 
L 309.925946 246.360717 
L 310.407423 246.744838 
L 310.934876 245.587472 
L 311.425198 246.195076 
L 311.948639 246.376127 
L 312.42737 246.121163 
L 312.908011 246.068187 
L 313.430109 246.203252 
L 313.920312 246.140567 
L 315.414984 245.46185 
L 315.932233 245.978567 
L 316.409801 245.655041 
L 317.423146 245.208853 
L 318.382727 244.774185 
L 318.914626 245.110669 
L 319.932507 241.726731 
L 320.406315 241.249902 
L 320.890476 241.339204 
L 321.423971 241.829134 
L 321.8986 241.222488 
L 322.436988 242.221099 
L 322.927863 241.270266 
L 323.390468 241.310441 
L 323.927379 242.372238 
L 324.412958 241.145873 
L 325.898336 241.23208 
L 326.435277 241.48686 
L 329.417536 241.736549 
L 329.894029 242.121108 
L 330.431672 241.870385 
L 330.908523 242.24433 
L 331.925553 242.574276 
L 332.937824 243.376415 
L 333.415183 243.29561 
L 333.896257 244.01167 
L 334.429453 244.579234 
L 334.907409 244.892696 
L 335.383888 244.335458 
L 336.399217 245.364548 
L 336.940484 246.543565 
L 338.437872 245.945139 
L 338.905146 246.277894 
L 339.441341 246.252185 
L 339.921639 246.393226 
L 340.402593 246.143825 
L 340.934238 246.267365 
L 341.413223 246.118174 
L 341.888747 246.628371 
L 342.534365 246.650661 
L 342.905613 246.098456 
L 343.440659 246.156501 
L 344.396809 246.006656 
L 344.93475 246.332345 
L 345.955166 245.757693 
L 346.426886 245.838709 
L 346.901351 245.472583 
L 347.919201 245.806422 
L 349.407817 245.039077 
L 349.952724 244.461835 
L 350.902325 240.772056 
L 351.436984 240.810118 
L 351.927172 241.870764 
L 352.39115 240.911819 
L 352.937504 241.176597 
L 353.41619 241.789541 
L 353.982579 242.223613 
L 354.432027 241.872976 
L 354.906924 242.275242 
L 355.488112 242.032813 
L 355.931458 242.412899 
L 356.931944 242.510249 
L 357.553216 242.379666 
L 357.9469 242.479737 
L 358.422812 242.473542 
L 358.906466 242.581267 
L 359.457848 242.82298 
L 360.453083 242.816527 
L 361.409188 243.031194 
L 361.942534 243.001343 
L 362.403513 243.163373 
L 362.904099 243.513022 
L 363.896455 243.611498 
L 364.914946 243.17927 
L 365.403912 243.747821 
L 365.923772 244.011123 
L 366.402339 244.762962 
L 366.953437 245.300999 
L 367.627548 244.982015 
L 368.445961 246.029223 
L 368.907641 245.33136 
L 369.400201 245.982062 
L 369.921852 246.462923 
L 370.400135 246.46007 
L 370.938911 246.213794 
L 371.414972 246.869016 
L 371.893405 246.450005 
L 372.429959 246.256573 
L 372.937362 246.605577 
L 373.382767 245.460427 
L 373.922408 246.400325 
L 374.399126 245.371284 
L 374.934694 246.110098 
L 375.457836 245.119885 
L 375.888591 244.924077 
L 376.426786 244.806577 
L 376.9031 244.583021 
L 377.441578 245.661386 
L 377.9174 245.662829 
L 378.395565 244.942851 
L 378.934773 245.000799 
L 379.409328 245.400782 
L 380.901255 244.17792 
L 381.438688 243.407416 
L 381.917345 242.513778 
L 382.394107 240.082046 
L 382.931153 238.604882 
L 383.423146 238.18454 
L 383.884364 239.777721 
L 384.915178 239.510102 
L 385.438394 239.176003 
L 385.914694 239.766854 
L 386.393336 239.037343 
L 386.943703 239.205669 
L 387.405697 237.955704 
L 387.963224 238.191309 
L 388.419713 238.77747 
L 388.92112 237.823035 
L 389.534202 238.255994 
L 389.936598 238.250237 
L 390.389253 238.467656 
L 390.925418 238.570609 
L 391.406149 238.989781 
L 392.417808 238.779902 
L 392.8956 239.162323 
L 393.440029 239.014284 
L 393.911496 239.559593 
L 394.463295 239.786215 
L 394.941385 240.147711 
L 395.960429 240.581978 
L 396.423198 241.002986 
L 397.446464 242.691085 
L 397.939501 243.126918 
L 398.487273 243.873104 
L 398.487273 243.873104 
" clip-path="url(#p478048e9cd)" style="fill: none; stroke: #0000ff; stroke-width: 1.5; stroke-linecap: square"/>
   </g>
   <g id="patch_3">
    <path d="M 57.6 307.584 
L 57.6 41.472 
" style="fill: none; stroke: #000000; stroke-width: 0.8; stroke-linejoin: miter; stroke-linecap: square"/>
   </g>
   <g id="patch_4">
    <path d="M 414.72 307.584 
L 414.72 41.472 
" style="fill: none; stroke: #000000; stroke-width: 0.8; stroke-linejoin: miter; stroke-linecap: square"/>
   </g>
   <g id="patch_5">
    <path d="M 57.6 307.584 
L 414.72 307.584 
" style="fill: none; stroke: #000000; stroke-width: 0.8; stroke-linejoin: miter; stroke-linecap: square"/>
   </g>
   <g id="patch_6">
    <path d="M 57.6 41.472 
L 414.72 41.472 
" style="fill: none; stroke: #000000; stroke-width: 0.8; stroke-linejoin: miter; stroke-linecap: square"/>
   </g>
   <g id="text_14">
    <!-- Angles in Index finger joints -->
    <g transform="translate(152.50875 35.472) scale(0.12 -0.12)">
     <defs>
      <path id="DejaVuSans-41" d="M 2188 4044 
L 1331 1722 
L 3047 1722 
L 2188 4044 
z
M 1831 4666 
L 2547 4666 
L 4325 0 
L 3669 0 
L 3244 1197 
L 1141 1197 
L 716 0 
L 50 0 
L 1831 4666 
z
" transform="scale(0.015625)"/>
      <path id="DejaVuSans-49" d="M 628 4666 
L 1259 4666 
L 1259 0 
L 628 0 
L 628 4666 
z
" transform="scale(0.015625)"/>
      <path id="DejaVuSans-64" d="M 2906 2969 
L 2906 4863 
L 3481 4863 
L 3481 0 
L 2906 0 
L 2906 525 
Q 2725 213 2448 61 
Q 2172 -91 1784 -91 
Q 1150 -91 751 415 
Q 353 922 353 1747 
Q 353 2572 751 3078 
Q 1150 3584 1784 3584 
Q 2172 3584 2448 3432 
Q 2725 3281 2906 2969 
z
M 947 1747 
Q 947 1113 1208 752 
Q 1469 391 1925 391 
Q 2381 391 2643 752 
Q 2906 1113 2906 1747 
Q 2906 2381 2643 2742 
Q 2381 3103 1925 3103 
Q 1469 3103 1208 2742 
Q 947 2381 947 1747 
z
" transform="scale(0.015625)"/>
      <path id="DejaVuSans-78" d="M 3513 3500 
L 2247 1797 
L 3578 0 
L 2900 0 
L 1881 1375 
L 863 0 
L 184 0 
L 1544 1831 
L 300 3500 
L 978 3500 
L 1906 2253 
L 2834 3500 
L 3513 3500 
z
" transform="scale(0.015625)"/>
      <path id="DejaVuSans-66" d="M 2375 4863 
L 2375 4384 
L 1825 4384 
Q 1516 4384 1395 4259 
Q 1275 4134 1275 3809 
L 1275 3500 
L 2222 3500 
L 2222 3053 
L 1275 3053 
L 1275 0 
L 697 0 
L 697 3053 
L 147 3053 
L 147 3500 
L 697 3500 
L 697 3744 
Q 697 4328 969 4595 
Q 1241 4863 1831 4863 
L 2375 4863 
z
" transform="scale(0.015625)"/>
      <path id="DejaVuSans-72" d="M 2631 2963 
Q 2534 3019 2420 3045 
Q 2306 3072 2169 3072 
Q 1681 3072 1420 2755 
Q 1159 2438 1159 1844 
L 1159 0 
L 581 0 
L 581 3500 
L 1159 3500 
L 1159 2956 
Q 1341 3275 1631 3429 
Q 1922 3584 2338 3584 
Q 2397 3584 2469 3576 
Q 2541 3569 2628 3553 
L 2631 2963 
z
" transform="scale(0.015625)"/>
      <path id="DejaVuSans-6a" d="M 603 3500 
L 1178 3500 
L 1178 -63 
Q 1178 -731 923 -1031 
Q 669 -1331 103 -1331 
L -116 -1331 
L -116 -844 
L 38 -844 
Q 366 -844 484 -692 
Q 603 -541 603 -63 
L 603 3500 
z
M 603 4863 
L 1178 4863 
L 1178 4134 
L 603 4134 
L 603 4863 
z
" transform="scale(0.015625)"/>
      <path id="DejaVuSans-6f" d="M 1959 3097 
Q 1497 3097 1228 2736 
Q 959 2375 959 1747 
Q 959 1119 1226 758 
Q 1494 397 1959 397 
Q 2419 397 2687 759 
Q 2956 1122 2956 1747 
Q 2956 2369 2687 2733 
Q 2419 3097 1959 3097 
z
M 1959 3584 
Q 2709 3584 3137 3096 
Q 3566 2609 3566 1747 
Q 3566 888 3137 398 
Q 2709 -91 1959 -91 
Q 1206 -91 779 398 
Q 353 888 353 1747 
Q 353 2609 779 3096 
Q 1206 3584 1959 3584 
z
" transform="scale(0.015625)"/>
     </defs>
     <use xlink:href="#DejaVuSans-41"/>
     <use xlink:href="#DejaVuSans-6e" x="68.408203"/>
     <use xlink:href="#DejaVuSans-67" x="131.787109"/>
     <use xlink:href="#DejaVuSans-6c" x="195.263672"/>
     <use xlink:href="#DejaVuSans-65" x="223.046875"/>
     <use xlink:href="#DejaVuSans-73" x="284.570312"/>
     <use xlink:href="#DejaVuSans-20" x="336.669922"/>
     <use xlink:href="#DejaVuSans-69" x="368.457031"/>
     <use xlink:href="#DejaVuSans-6e" x="396.240234"/>
     <use xlink:href="#DejaVuSans-20" x="459.619141"/>
     <use xlink:href="#DejaVuSans-49" x="491.40625"/>
     <use xlink:href="#DejaVuSans-6e" x="520.898438"/>
     <use xlink:href="#DejaVuSans-64" x="584.277344"/>
     <use xlink:href="#DejaVuSans-65" x="647.753906"/>
     <use xlink:href="#DejaVuSans-78" x="707.527344"/>
     <use xlink:href="#DejaVuSans-20" x="766.707031"/>
     <use xlink:href="#DejaVuSans-66" x="798.494141"/>
     <use xlink:href="#DejaVuSans-69" x="833.699219"/>
     <use xlink:href="#DejaVuSans-6e" x="861.482422"/>
     <use xlink:href="#DejaVuSans-67" x="924.861328"/>
     <use xlink:href="#DejaVuSans-65" x="988.337891"/>
     <use xlink:href="#DejaVuSans-72" x="1049.861328"/>
     <use xlink:href="#DejaVuSans-20" x="1090.974609"/>
     <use xlink:href="#DejaVuSans-6a" x="1122.761719"/>
     <use xlink:href="#DejaVuSans-6f" x="1150.544922"/>
     <use xlink:href="#DejaVuSans-69" x="1211.726562"/>
     <use xlink:href="#DejaVuSans-6e" x="1239.509766"/>
     <use xlink:href="#DejaVuSans-74" x="1302.888672"/>
     <use xlink:href="#DejaVuSans-73" x="1342.097656"/>
    </g>
   </g>
   <g id="legend_1">
    <g id="patch_7">
     <path d="M 305.012188 93.506375 
L 407.72 93.506375 
Q 409.72 93.506375 409.72 91.506375 
L 409.72 48.472 
Q 409.72 46.472 407.72 46.472 
L 305.012188 46.472 
Q 303.012188 46.472 303.012188 48.472 
L 303.012188 91.506375 
Q 303.012188 93.506375 305.012188 93.506375 
z
" style="fill: #ffffff; opacity: 0.8; stroke: #cccccc; stroke-linejoin: miter"/>
    </g>
    <g id="line2d_26">
     <path d="M 307.012188 54.570438 
L 317.012188 54.570438 
L 327.012188 54.570438 
" style="fill: none; stroke: #ff0000; stroke-width: 1.5; stroke-linecap: square"/>
    </g>
    <g id="text_15">
     <!-- alpha (DIP) -->
     <g transform="translate(335.012188 58.070438) scale(0.1 -0.1)">
      <defs>
       <path id="DejaVuSans-70" d="M 1159 525 
L 1159 -1331 
L 581 -1331 
L 581 3500 
L 1159 3500 
L 1159 2969 
Q 1341 3281 1617 3432 
Q 1894 3584 2278 3584 
Q 2916 3584 3314 3078 
Q 3713 2572 3713 1747 
Q 3713 922 3314 415 
Q 2916 -91 2278 -91 
Q 1894 -91 1617 61 
Q 1341 213 1159 525 
z
M 3116 1747 
Q 3116 2381 2855 2742 
Q 2594 3103 2138 3103 
Q 1681 3103 1420 2742 
Q 1159 2381 1159 1747 
Q 1159 1113 1420 752 
Q 1681 391 2138 391 
Q 2594 391 2855 752 
Q 3116 1113 3116 1747 
z
" transform="scale(0.015625)"/>
       <path id="DejaVuSans-68" d="M 3513 2113 
L 3513 0 
L 2938 0 
L 2938 2094 
Q 2938 2591 2744 2837 
Q 2550 3084 2163 3084 
Q 1697 3084 1428 2787 
Q 1159 2491 1159 1978 
L 1159 0 
L 581 0 
L 581 4863 
L 1159 4863 
L 1159 2956 
Q 1366 3272 1645 3428 
Q 1925 3584 2291 3584 
Q 2894 3584 3203 3211 
Q 3513 2838 3513 2113 
z
" transform="scale(0.015625)"/>
       <path id="DejaVuSans-28" d="M 1984 4856 
Q 1566 4138 1362 3434 
Q 1159 2731 1159 2009 
Q 1159 1288 1364 580 
Q 1569 -128 1984 -844 
L 1484 -844 
Q 1016 -109 783 600 
Q 550 1309 550 2009 
Q 550 2706 781 3412 
Q 1013 4119 1484 4856 
L 1984 4856 
z
" transform="scale(0.015625)"/>
       <path id="DejaVuSans-44" d="M 1259 4147 
L 1259 519 
L 2022 519 
Q 2988 519 3436 956 
Q 3884 1394 3884 2338 
Q 3884 3275 3436 3711 
Q 2988 4147 2022 4147 
L 1259 4147 
z
M 628 4666 
L 1925 4666 
Q 3281 4666 3915 4102 
Q 4550 3538 4550 2338 
Q 4550 1131 3912 565 
Q 3275 0 1925 0 
L 628 0 
L 628 4666 
z
" transform="scale(0.015625)"/>
       <path id="DejaVuSans-50" d="M 1259 4147 
L 1259 2394 
L 2053 2394 
Q 2494 2394 2734 2622 
Q 2975 2850 2975 3272 
Q 2975 3691 2734 3919 
Q 2494 4147 2053 4147 
L 1259 4147 
z
M 628 4666 
L 2053 4666 
Q 2838 4666 3239 4311 
Q 3641 3956 3641 3272 
Q 3641 2581 3239 2228 
Q 2838 1875 2053 1875 
L 1259 1875 
L 1259 0 
L 628 0 
L 628 4666 
z
" transform="scale(0.015625)"/>
       <path id="DejaVuSans-29" d="M 513 4856 
L 1013 4856 
Q 1481 4119 1714 3412 
Q 1947 2706 1947 2009 
Q 1947 1309 1714 600 
Q 1481 -109 1013 -844 
L 513 -844 
Q 928 -128 1133 580 
Q 1338 1288 1338 2009 
Q 1338 2731 1133 3434 
Q 928 4138 513 4856 
z
" transform="scale(0.015625)"/>
      </defs>
      <use xlink:href="#DejaVuSans-61"/>
      <use xlink:href="#DejaVuSans-6c" x="61.279297"/>
      <use xlink:href="#DejaVuSans-70" x="89.0625"/>
      <use xlink:href="#DejaVuSans-68" x="152.539062"/>
      <use xlink:href="#DejaVuSans-61" x="215.917969"/>
      <use xlink:href="#DejaVuSans-20" x="277.197266"/>
      <use xlink:href="#DejaVuSans-28" x="308.984375"/>
      <use xlink:href="#DejaVuSans-44" x="347.998047"/>
      <use xlink:href="#DejaVuSans-49" x="425"/>
      <use xlink:href="#DejaVuSans-50" x="454.492188"/>
      <use xlink:href="#DejaVuSans-29" x="514.794922"/>
     </g>
    </g>
    <g id="line2d_27">
     <path d="M 307.012188 69.248563 
L 317.012188 69.248563 
L 327.012188 69.248563 
" style="fill: none; stroke: #008000; stroke-width: 1.5; stroke-linecap: square"/>
    </g>
    <g id="text_16">
     <!-- beta (PIP) -->
     <g transform="translate(335.012188 72.748563) scale(0.1 -0.1)">
      <defs>
       <path id="DejaVuSans-62" d="M 3116 1747 
Q 3116 2381 2855 2742 
Q 2594 3103 2138 3103 
Q 1681 3103 1420 2742 
Q 1159 2381 1159 1747 
Q 1159 1113 1420 752 
Q 1681 391 2138 391 
Q 2594 391 2855 752 
Q 3116 1113 3116 1747 
z
M 1159 2969 
Q 1341 3281 1617 3432 
Q 1894 3584 2278 3584 
Q 2916 3584 3314 3078 
Q 3713 2572 3713 1747 
Q 3713 922 3314 415 
Q 2916 -91 2278 -91 
Q 1894 -91 1617 61 
Q 1341 213 1159 525 
L 1159 0 
L 581 0 
L 581 4863 
L 1159 4863 
L 1159 2969 
z
" transform="scale(0.015625)"/>
      </defs>
      <use xlink:href="#DejaVuSans-62"/>
      <use xlink:href="#DejaVuSans-65" x="63.476562"/>
      <use xlink:href="#DejaVuSans-74" x="125"/>
      <use xlink:href="#DejaVuSans-61" x="164.208984"/>
      <use xlink:href="#DejaVuSans-20" x="225.488281"/>
      <use xlink:href="#DejaVuSans-28" x="257.275391"/>
      <use xlink:href="#DejaVuSans-50" x="296.289062"/>
      <use xlink:href="#DejaVuSans-49" x="356.591797"/>
      <use xlink:href="#DejaVuSans-50" x="386.083984"/>
      <use xlink:href="#DejaVuSans-29" x="446.386719"/>
     </g>
    </g>
    <g id="line2d_28">
     <path d="M 307.012188 83.926688 
L 317.012188 83.926688 
L 327.012188 83.926688 
" style="fill: none; stroke: #0000ff; stroke-width: 1.5; stroke-linecap: square"/>
    </g>
    <g id="text_17">
     <!-- gamma (MCP) -->
     <g transform="translate(335.012188 87.426688) scale(0.1 -0.1)">
      <defs>
       <path id="DejaVuSans-4d" d="M 628 4666 
L 1569 4666 
L 2759 1491 
L 3956 4666 
L 4897 4666 
L 4897 0 
L 4281 0 
L 4281 4097 
L 3078 897 
L 2444 897 
L 1241 4097 
L 1241 0 
L 628 0 
L 628 4666 
z
" transform="scale(0.015625)"/>
       <path id="DejaVuSans-43" d="M 4122 4306 
L 4122 3641 
Q 3803 3938 3442 4084 
Q 3081 4231 2675 4231 
Q 1875 4231 1450 3742 
Q 1025 3253 1025 2328 
Q 1025 1406 1450 917 
Q 1875 428 2675 428 
Q 3081 428 3442 575 
Q 3803 722 4122 1019 
L 4122 359 
Q 3791 134 3420 21 
Q 3050 -91 2638 -91 
Q 1578 -91 968 557 
Q 359 1206 359 2328 
Q 359 3453 968 4101 
Q 1578 4750 2638 4750 
Q 3056 4750 3426 4639 
Q 3797 4528 4122 4306 
z
" transform="scale(0.015625)"/>
      </defs>
      <use xlink:href="#DejaVuSans-67"/>
      <use xlink:href="#DejaVuSans-61" x="63.476562"/>
      <use xlink:href="#DejaVuSans-6d" x="124.755859"/>
      <use xlink:href="#DejaVuSans-6d" x="222.167969"/>
      <use xlink:href="#DejaVuSans-61" x="319.580078"/>
      <use xlink:href="#DejaVuSans-20" x="380.859375"/>
      <use xlink:href="#DejaVuSans-28" x="412.646484"/>
      <use xlink:href="#DejaVuSans-4d" x="451.660156"/>
      <use xlink:href="#DejaVuSans-43" x="537.939453"/>
      <use xlink:href="#DejaVuSans-50" x="607.763672"/>
      <use xlink:href="#DejaVuSans-29" x="668.066406"/>
     </g>
    </g>
   </g>
  </g>
 </g>
 <defs>
  <clipPath id="p478048e9cd">
   <rect x="57.6" y="41.472" width="357.12" height="266.112"/>
  </clipPath>
 </defs>
</svg>
