<?xml version="1.0" encoding="utf-8" standalone="no"?>
<!DOCTYPE svg PUBLIC "-//W3C//DTD SVG 1.1//EN"
  "http://www.w3.org/Graphics/SVG/1.1/DTD/svg11.dtd">
<svg xmlns:xlink="http://www.w3.org/1999/xlink" width="460.8pt" height="345.6pt" viewBox="0 0 460.8 345.6" xmlns="http://www.w3.org/2000/svg" version="1.1">
 <metadata>
  <rdf:RDF xmlns:dc="http://purl.org/dc/elements/1.1/" xmlns:cc="http://creativecommons.org/ns#" xmlns:rdf="http://www.w3.org/1999/02/22-rdf-syntax-ns#">
   <cc:Work>
    <dc:type rdf:resource="http://purl.org/dc/dcmitype/StillImage"/>
    <dc:date>2023-07-24T09:59:07.084625</dc:date>
    <dc:format>image/svg+xml</dc:format>
    <dc:creator>
     <cc:Agent>
      <dc:title>Matplotlib v3.7.1, https://matplotlib.org/</dc:title>
     </cc:Agent>
    </dc:creator>
   </cc:Work>
  </rdf:RDF>
 </metadata>
 <defs>
  <style type="text/css">*{stroke-linejoin: round; stroke-linecap: butt}</style>
 </defs>
 <g id="figure_1">
  <g id="patch_1">
   <path d="M 0 345.6 
L 460.8 345.6 
L 460.8 0 
L 0 0 
z
" style="fill: #ffffff"/>
  </g>
  <g id="axes_1">
   <g id="patch_2">
    <path d="M 57.6 307.584 
L 414.72 307.584 
L 414.72 41.472 
L 57.6 41.472 
z
" style="fill: #ffffff"/>
   </g>
   <g id="matplotlib.axis_1">
    <g id="xtick_1">
     <g id="line2d_1">
      <path d="M 65.905404 307.584 
L 65.905404 41.472 
" clip-path="url(#p9a82bbefb4)" style="fill: none; stroke: #b0b0b0; stroke-width: 0.8; stroke-linecap: square"/>
     </g>
     <g id="line2d_2">
      <defs>
       <path id="m1303409816" d="M 0 0 
L 0 3.5 
" style="stroke: #000000; stroke-width: 0.8"/>
      </defs>
      <g>
       <use xlink:href="#m1303409816" x="65.905404" y="307.584" style="stroke: #000000; stroke-width: 0.8"/>
      </g>
     </g>
     <g id="text_1">
      <!-- 30 -->
      <g transform="translate(59.542904 322.182437) scale(0.1 -0.1)">
       <defs>
        <path id="DejaVuSans-33" d="M 2597 2516 
Q 3050 2419 3304 2112 
Q 3559 1806 3559 1356 
Q 3559 666 3084 287 
Q 2609 -91 1734 -91 
Q 1441 -91 1130 -33 
Q 819 25 488 141 
L 488 750 
Q 750 597 1062 519 
Q 1375 441 1716 441 
Q 2309 441 2620 675 
Q 2931 909 2931 1356 
Q 2931 1769 2642 2001 
Q 2353 2234 1838 2234 
L 1294 2234 
L 1294 2753 
L 1863 2753 
Q 2328 2753 2575 2939 
Q 2822 3125 2822 3475 
Q 2822 3834 2567 4026 
Q 2313 4219 1838 4219 
Q 1578 4219 1281 4162 
Q 984 4106 628 3988 
L 628 4550 
Q 988 4650 1302 4700 
Q 1616 4750 1894 4750 
Q 2613 4750 3031 4423 
Q 3450 4097 3450 3541 
Q 3450 3153 3228 2886 
Q 3006 2619 2597 2516 
z
" transform="scale(0.015625)"/>
        <path id="DejaVuSans-30" d="M 2034 4250 
Q 1547 4250 1301 3770 
Q 1056 3291 1056 2328 
Q 1056 1369 1301 889 
Q 1547 409 2034 409 
Q 2525 409 2770 889 
Q 3016 1369 3016 2328 
Q 3016 3291 2770 3770 
Q 2525 4250 2034 4250 
z
M 2034 4750 
Q 2819 4750 3233 4129 
Q 3647 3509 3647 2328 
Q 3647 1150 3233 529 
Q 2819 -91 2034 -91 
Q 1250 -91 836 529 
Q 422 1150 422 2328 
Q 422 3509 836 4129 
Q 1250 4750 2034 4750 
z
" transform="scale(0.015625)"/>
       </defs>
       <use xlink:href="#DejaVuSans-33"/>
       <use xlink:href="#DejaVuSans-30" x="63.623047"/>
      </g>
     </g>
    </g>
    <g id="xtick_2">
     <g id="line2d_3">
      <path d="M 140.503011 307.584 
L 140.503011 41.472 
" clip-path="url(#p9a82bbefb4)" style="fill: none; stroke: #b0b0b0; stroke-width: 0.8; stroke-linecap: square"/>
     </g>
     <g id="line2d_4">
      <g>
       <use xlink:href="#m1303409816" x="140.503011" y="307.584" style="stroke: #000000; stroke-width: 0.8"/>
      </g>
     </g>
     <g id="text_2">
      <!-- 35 -->
      <g transform="translate(134.140511 322.182437) scale(0.1 -0.1)">
       <defs>
        <path id="DejaVuSans-35" d="M 691 4666 
L 3169 4666 
L 3169 4134 
L 1269 4134 
L 1269 2991 
Q 1406 3038 1543 3061 
Q 1681 3084 1819 3084 
Q 2600 3084 3056 2656 
Q 3513 2228 3513 1497 
Q 3513 744 3044 326 
Q 2575 -91 1722 -91 
Q 1428 -91 1123 -41 
Q 819 9 494 109 
L 494 744 
Q 775 591 1075 516 
Q 1375 441 1709 441 
Q 2250 441 2565 725 
Q 2881 1009 2881 1497 
Q 2881 1984 2565 2268 
Q 2250 2553 1709 2553 
Q 1456 2553 1204 2497 
Q 953 2441 691 2322 
L 691 4666 
z
" transform="scale(0.015625)"/>
       </defs>
       <use xlink:href="#DejaVuSans-33"/>
       <use xlink:href="#DejaVuSans-35" x="63.623047"/>
      </g>
     </g>
    </g>
    <g id="xtick_3">
     <g id="line2d_5">
      <path d="M 215.100618 307.584 
L 215.100618 41.472 
" clip-path="url(#p9a82bbefb4)" style="fill: none; stroke: #b0b0b0; stroke-width: 0.8; stroke-linecap: square"/>
     </g>
     <g id="line2d_6">
      <g>
       <use xlink:href="#m1303409816" x="215.100618" y="307.584" style="stroke: #000000; stroke-width: 0.8"/>
      </g>
     </g>
     <g id="text_3">
      <!-- 40 -->
      <g transform="translate(208.738118 322.182437) scale(0.1 -0.1)">
       <defs>
        <path id="DejaVuSans-34" d="M 2419 4116 
L 825 1625 
L 2419 1625 
L 2419 4116 
z
M 2253 4666 
L 3047 4666 
L 3047 1625 
L 3713 1625 
L 3713 1100 
L 3047 1100 
L 3047 0 
L 2419 0 
L 2419 1100 
L 313 1100 
L 313 1709 
L 2253 4666 
z
" transform="scale(0.015625)"/>
       </defs>
       <use xlink:href="#DejaVuSans-34"/>
       <use xlink:href="#DejaVuSans-30" x="63.623047"/>
      </g>
     </g>
    </g>
    <g id="xtick_4">
     <g id="line2d_7">
      <path d="M 289.698225 307.584 
L 289.698225 41.472 
" clip-path="url(#p9a82bbefb4)" style="fill: none; stroke: #b0b0b0; stroke-width: 0.8; stroke-linecap: square"/>
     </g>
     <g id="line2d_8">
      <g>
       <use xlink:href="#m1303409816" x="289.698225" y="307.584" style="stroke: #000000; stroke-width: 0.8"/>
      </g>
     </g>
     <g id="text_4">
      <!-- 45 -->
      <g transform="translate(283.335725 322.182437) scale(0.1 -0.1)">
       <use xlink:href="#DejaVuSans-34"/>
       <use xlink:href="#DejaVuSans-35" x="63.623047"/>
      </g>
     </g>
    </g>
    <g id="xtick_5">
     <g id="line2d_9">
      <path d="M 364.295832 307.584 
L 364.295832 41.472 
" clip-path="url(#p9a82bbefb4)" style="fill: none; stroke: #b0b0b0; stroke-width: 0.8; stroke-linecap: square"/>
     </g>
     <g id="line2d_10">
      <g>
       <use xlink:href="#m1303409816" x="364.295832" y="307.584" style="stroke: #000000; stroke-width: 0.8"/>
      </g>
     </g>
     <g id="text_5">
      <!-- 50 -->
      <g transform="translate(357.933332 322.182437) scale(0.1 -0.1)">
       <use xlink:href="#DejaVuSans-35"/>
       <use xlink:href="#DejaVuSans-30" x="63.623047"/>
      </g>
     </g>
    </g>
    <g id="text_6">
     <!-- time [sec] -->
     <g transform="translate(210.942813 335.860562) scale(0.1 -0.1)">
      <defs>
       <path id="DejaVuSans-74" d="M 1172 4494 
L 1172 3500 
L 2356 3500 
L 2356 3053 
L 1172 3053 
L 1172 1153 
Q 1172 725 1289 603 
Q 1406 481 1766 481 
L 2356 481 
L 2356 0 
L 1766 0 
Q 1100 0 847 248 
Q 594 497 594 1153 
L 594 3053 
L 172 3053 
L 172 3500 
L 594 3500 
L 594 4494 
L 1172 4494 
z
" transform="scale(0.015625)"/>
       <path id="DejaVuSans-69" d="M 603 3500 
L 1178 3500 
L 1178 0 
L 603 0 
L 603 3500 
z
M 603 4863 
L 1178 4863 
L 1178 4134 
L 603 4134 
L 603 4863 
z
" transform="scale(0.015625)"/>
       <path id="DejaVuSans-6d" d="M 3328 2828 
Q 3544 3216 3844 3400 
Q 4144 3584 4550 3584 
Q 5097 3584 5394 3201 
Q 5691 2819 5691 2113 
L 5691 0 
L 5113 0 
L 5113 2094 
Q 5113 2597 4934 2840 
Q 4756 3084 4391 3084 
Q 3944 3084 3684 2787 
Q 3425 2491 3425 1978 
L 3425 0 
L 2847 0 
L 2847 2094 
Q 2847 2600 2669 2842 
Q 2491 3084 2119 3084 
Q 1678 3084 1418 2786 
Q 1159 2488 1159 1978 
L 1159 0 
L 581 0 
L 581 3500 
L 1159 3500 
L 1159 2956 
Q 1356 3278 1631 3431 
Q 1906 3584 2284 3584 
Q 2666 3584 2933 3390 
Q 3200 3197 3328 2828 
z
" transform="scale(0.015625)"/>
       <path id="DejaVuSans-65" d="M 3597 1894 
L 3597 1613 
L 953 1613 
Q 991 1019 1311 708 
Q 1631 397 2203 397 
Q 2534 397 2845 478 
Q 3156 559 3463 722 
L 3463 178 
Q 3153 47 2828 -22 
Q 2503 -91 2169 -91 
Q 1331 -91 842 396 
Q 353 884 353 1716 
Q 353 2575 817 3079 
Q 1281 3584 2069 3584 
Q 2775 3584 3186 3129 
Q 3597 2675 3597 1894 
z
M 3022 2063 
Q 3016 2534 2758 2815 
Q 2500 3097 2075 3097 
Q 1594 3097 1305 2825 
Q 1016 2553 972 2059 
L 3022 2063 
z
" transform="scale(0.015625)"/>
       <path id="DejaVuSans-20" transform="scale(0.015625)"/>
       <path id="DejaVuSans-5b" d="M 550 4863 
L 1875 4863 
L 1875 4416 
L 1125 4416 
L 1125 -397 
L 1875 -397 
L 1875 -844 
L 550 -844 
L 550 4863 
z
" transform="scale(0.015625)"/>
       <path id="DejaVuSans-73" d="M 2834 3397 
L 2834 2853 
Q 2591 2978 2328 3040 
Q 2066 3103 1784 3103 
Q 1356 3103 1142 2972 
Q 928 2841 928 2578 
Q 928 2378 1081 2264 
Q 1234 2150 1697 2047 
L 1894 2003 
Q 2506 1872 2764 1633 
Q 3022 1394 3022 966 
Q 3022 478 2636 193 
Q 2250 -91 1575 -91 
Q 1294 -91 989 -36 
Q 684 19 347 128 
L 347 722 
Q 666 556 975 473 
Q 1284 391 1588 391 
Q 1994 391 2212 530 
Q 2431 669 2431 922 
Q 2431 1156 2273 1281 
Q 2116 1406 1581 1522 
L 1381 1569 
Q 847 1681 609 1914 
Q 372 2147 372 2553 
Q 372 3047 722 3315 
Q 1072 3584 1716 3584 
Q 2034 3584 2315 3537 
Q 2597 3491 2834 3397 
z
" transform="scale(0.015625)"/>
       <path id="DejaVuSans-63" d="M 3122 3366 
L 3122 2828 
Q 2878 2963 2633 3030 
Q 2388 3097 2138 3097 
Q 1578 3097 1268 2742 
Q 959 2388 959 1747 
Q 959 1106 1268 751 
Q 1578 397 2138 397 
Q 2388 397 2633 464 
Q 2878 531 3122 666 
L 3122 134 
Q 2881 22 2623 -34 
Q 2366 -91 2075 -91 
Q 1284 -91 818 406 
Q 353 903 353 1747 
Q 353 2603 823 3093 
Q 1294 3584 2113 3584 
Q 2378 3584 2631 3529 
Q 2884 3475 3122 3366 
z
" transform="scale(0.015625)"/>
       <path id="DejaVuSans-5d" d="M 1947 4863 
L 1947 -844 
L 622 -844 
L 622 -397 
L 1369 -397 
L 1369 4416 
L 622 4416 
L 622 4863 
L 1947 4863 
z
" transform="scale(0.015625)"/>
      </defs>
      <use xlink:href="#DejaVuSans-74"/>
      <use xlink:href="#DejaVuSans-69" x="39.208984"/>
      <use xlink:href="#DejaVuSans-6d" x="66.992188"/>
      <use xlink:href="#DejaVuSans-65" x="164.404297"/>
      <use xlink:href="#DejaVuSans-20" x="225.927734"/>
      <use xlink:href="#DejaVuSans-5b" x="257.714844"/>
      <use xlink:href="#DejaVuSans-73" x="296.728516"/>
      <use xlink:href="#DejaVuSans-65" x="348.828125"/>
      <use xlink:href="#DejaVuSans-63" x="410.351562"/>
      <use xlink:href="#DejaVuSans-5d" x="465.332031"/>
     </g>
    </g>
   </g>
   <g id="matplotlib.axis_2">
    <g id="ytick_1">
     <g id="line2d_11">
      <path d="M 57.6 305.96919 
L 414.72 305.96919 
" clip-path="url(#p9a82bbefb4)" style="fill: none; stroke: #b0b0b0; stroke-width: 0.8; stroke-linecap: square"/>
     </g>
     <g id="line2d_12">
      <defs>
       <path id="mf4de341071" d="M 0 0 
L -3.5 0 
" style="stroke: #000000; stroke-width: 0.8"/>
      </defs>
      <g>
       <use xlink:href="#mf4de341071" x="57.6" y="305.96919" style="stroke: #000000; stroke-width: 0.8"/>
      </g>
     </g>
     <g id="text_7">
      <!-- 10 -->
      <g transform="translate(37.875 309.768409) scale(0.1 -0.1)">
       <defs>
        <path id="DejaVuSans-31" d="M 794 531 
L 1825 531 
L 1825 4091 
L 703 3866 
L 703 4441 
L 1819 4666 
L 2450 4666 
L 2450 531 
L 3481 531 
L 3481 0 
L 794 0 
L 794 531 
z
" transform="scale(0.015625)"/>
       </defs>
       <use xlink:href="#DejaVuSans-31"/>
       <use xlink:href="#DejaVuSans-30" x="63.623047"/>
      </g>
     </g>
    </g>
    <g id="ytick_2">
     <g id="line2d_13">
      <path d="M 57.6 248.382733 
L 414.72 248.382733 
" clip-path="url(#p9a82bbefb4)" style="fill: none; stroke: #b0b0b0; stroke-width: 0.8; stroke-linecap: square"/>
     </g>
     <g id="line2d_14">
      <g>
       <use xlink:href="#mf4de341071" x="57.6" y="248.382733" style="stroke: #000000; stroke-width: 0.8"/>
      </g>
     </g>
     <g id="text_8">
      <!-- 20 -->
      <g transform="translate(37.875 252.181952) scale(0.1 -0.1)">
       <defs>
        <path id="DejaVuSans-32" d="M 1228 531 
L 3431 531 
L 3431 0 
L 469 0 
L 469 531 
Q 828 903 1448 1529 
Q 2069 2156 2228 2338 
Q 2531 2678 2651 2914 
Q 2772 3150 2772 3378 
Q 2772 3750 2511 3984 
Q 2250 4219 1831 4219 
Q 1534 4219 1204 4116 
Q 875 4013 500 3803 
L 500 4441 
Q 881 4594 1212 4672 
Q 1544 4750 1819 4750 
Q 2544 4750 2975 4387 
Q 3406 4025 3406 3419 
Q 3406 3131 3298 2873 
Q 3191 2616 2906 2266 
Q 2828 2175 2409 1742 
Q 1991 1309 1228 531 
z
" transform="scale(0.015625)"/>
       </defs>
       <use xlink:href="#DejaVuSans-32"/>
       <use xlink:href="#DejaVuSans-30" x="63.623047"/>
      </g>
     </g>
    </g>
    <g id="ytick_3">
     <g id="line2d_15">
      <path d="M 57.6 190.796276 
L 414.72 190.796276 
" clip-path="url(#p9a82bbefb4)" style="fill: none; stroke: #b0b0b0; stroke-width: 0.8; stroke-linecap: square"/>
     </g>
     <g id="line2d_16">
      <g>
       <use xlink:href="#mf4de341071" x="57.6" y="190.796276" style="stroke: #000000; stroke-width: 0.8"/>
      </g>
     </g>
     <g id="text_9">
      <!-- 30 -->
      <g transform="translate(37.875 194.595495) scale(0.1 -0.1)">
       <use xlink:href="#DejaVuSans-33"/>
       <use xlink:href="#DejaVuSans-30" x="63.623047"/>
      </g>
     </g>
    </g>
    <g id="ytick_4">
     <g id="line2d_17">
      <path d="M 57.6 133.209819 
L 414.72 133.209819 
" clip-path="url(#p9a82bbefb4)" style="fill: none; stroke: #b0b0b0; stroke-width: 0.8; stroke-linecap: square"/>
     </g>
     <g id="line2d_18">
      <g>
       <use xlink:href="#mf4de341071" x="57.6" y="133.209819" style="stroke: #000000; stroke-width: 0.8"/>
      </g>
     </g>
     <g id="text_10">
      <!-- 40 -->
      <g transform="translate(37.875 137.009037) scale(0.1 -0.1)">
       <use xlink:href="#DejaVuSans-34"/>
       <use xlink:href="#DejaVuSans-30" x="63.623047"/>
      </g>
     </g>
    </g>
    <g id="ytick_5">
     <g id="line2d_19">
      <path d="M 57.6 75.623362 
L 414.72 75.623362 
" clip-path="url(#p9a82bbefb4)" style="fill: none; stroke: #b0b0b0; stroke-width: 0.8; stroke-linecap: square"/>
     </g>
     <g id="line2d_20">
      <g>
       <use xlink:href="#mf4de341071" x="57.6" y="75.623362" style="stroke: #000000; stroke-width: 0.8"/>
      </g>
     </g>
     <g id="text_11">
      <!-- 50 -->
      <g transform="translate(37.875 79.42258) scale(0.1 -0.1)">
       <use xlink:href="#DejaVuSans-35"/>
       <use xlink:href="#DejaVuSans-30" x="63.623047"/>
      </g>
     </g>
    </g>
    <g id="text_12">
     <!-- angle [°] -->
     <g transform="translate(31.795312 196.391281) rotate(-90) scale(0.1 -0.1)">
      <defs>
       <path id="DejaVuSans-61" d="M 2194 1759 
Q 1497 1759 1228 1600 
Q 959 1441 959 1056 
Q 959 750 1161 570 
Q 1363 391 1709 391 
Q 2188 391 2477 730 
Q 2766 1069 2766 1631 
L 2766 1759 
L 2194 1759 
z
M 3341 1997 
L 3341 0 
L 2766 0 
L 2766 531 
Q 2569 213 2275 61 
Q 1981 -91 1556 -91 
Q 1019 -91 701 211 
Q 384 513 384 1019 
Q 384 1609 779 1909 
Q 1175 2209 1959 2209 
L 2766 2209 
L 2766 2266 
Q 2766 2663 2505 2880 
Q 2244 3097 1772 3097 
Q 1472 3097 1187 3025 
Q 903 2953 641 2809 
L 641 3341 
Q 956 3463 1253 3523 
Q 1550 3584 1831 3584 
Q 2591 3584 2966 3190 
Q 3341 2797 3341 1997 
z
" transform="scale(0.015625)"/>
       <path id="DejaVuSans-6e" d="M 3513 2113 
L 3513 0 
L 2938 0 
L 2938 2094 
Q 2938 2591 2744 2837 
Q 2550 3084 2163 3084 
Q 1697 3084 1428 2787 
Q 1159 2491 1159 1978 
L 1159 0 
L 581 0 
L 581 3500 
L 1159 3500 
L 1159 2956 
Q 1366 3272 1645 3428 
Q 1925 3584 2291 3584 
Q 2894 3584 3203 3211 
Q 3513 2838 3513 2113 
z
" transform="scale(0.015625)"/>
       <path id="DejaVuSans-67" d="M 2906 1791 
Q 2906 2416 2648 2759 
Q 2391 3103 1925 3103 
Q 1463 3103 1205 2759 
Q 947 2416 947 1791 
Q 947 1169 1205 825 
Q 1463 481 1925 481 
Q 2391 481 2648 825 
Q 2906 1169 2906 1791 
z
M 3481 434 
Q 3481 -459 3084 -895 
Q 2688 -1331 1869 -1331 
Q 1566 -1331 1297 -1286 
Q 1028 -1241 775 -1147 
L 775 -588 
Q 1028 -725 1275 -790 
Q 1522 -856 1778 -856 
Q 2344 -856 2625 -561 
Q 2906 -266 2906 331 
L 2906 616 
Q 2728 306 2450 153 
Q 2172 0 1784 0 
Q 1141 0 747 490 
Q 353 981 353 1791 
Q 353 2603 747 3093 
Q 1141 3584 1784 3584 
Q 2172 3584 2450 3431 
Q 2728 3278 2906 2969 
L 2906 3500 
L 3481 3500 
L 3481 434 
z
" transform="scale(0.015625)"/>
       <path id="DejaVuSans-6c" d="M 603 4863 
L 1178 4863 
L 1178 0 
L 603 0 
L 603 4863 
z
" transform="scale(0.015625)"/>
       <path id="DejaVuSans-b0" d="M 1600 4347 
Q 1350 4347 1178 4173 
Q 1006 4000 1006 3750 
Q 1006 3503 1178 3333 
Q 1350 3163 1600 3163 
Q 1850 3163 2022 3333 
Q 2194 3503 2194 3750 
Q 2194 3997 2020 4172 
Q 1847 4347 1600 4347 
z
M 1600 4750 
Q 1800 4750 1984 4673 
Q 2169 4597 2303 4453 
Q 2447 4313 2519 4134 
Q 2591 3956 2591 3750 
Q 2591 3338 2302 3052 
Q 2013 2766 1594 2766 
Q 1172 2766 890 3047 
Q 609 3328 609 3750 
Q 609 4169 896 4459 
Q 1184 4750 1600 4750 
z
" transform="scale(0.015625)"/>
      </defs>
      <use xlink:href="#DejaVuSans-61"/>
      <use xlink:href="#DejaVuSans-6e" x="61.279297"/>
      <use xlink:href="#DejaVuSans-67" x="124.658203"/>
      <use xlink:href="#DejaVuSans-6c" x="188.134766"/>
      <use xlink:href="#DejaVuSans-65" x="215.917969"/>
      <use xlink:href="#DejaVuSans-20" x="277.441406"/>
      <use xlink:href="#DejaVuSans-5b" x="309.228516"/>
      <use xlink:href="#DejaVuSans-b0" x="348.242188"/>
      <use xlink:href="#DejaVuSans-5d" x="398.242188"/>
     </g>
    </g>
   </g>
   <g id="line2d_21">
    <path d="M 73.832727 64.956959 
L 74.317746 63.643012 
L 74.842316 63.20551 
L 75.32174 59.996303 
L 75.794003 64.226437 
L 76.33961 59.534483 
L 76.83364 53.982702 
L 77.286432 60.105842 
L 77.822819 60.414692 
L 78.309509 60.509794 
L 78.830125 62.531467 
L 79.345968 55.163567 
L 79.801431 58.19579 
L 80.322152 57.641044 
L 81.292324 60.106337 
L 81.817058 61.917022 
L 82.299347 58.779967 
L 82.828632 63.727798 
L 83.307354 53.568 
L 83.788599 53.659882 
L 84.321031 56.479602 
L 84.799486 57.819732 
L 85.335708 66.577085 
L 85.813148 58.551415 
L 86.290737 59.391175 
L 86.82954 70.50517 
L 87.305294 75.428801 
L 87.782614 89.634503 
L 88.321716 96.436977 
L 88.796948 111.287159 
L 89.333469 139.850069 
L 89.813012 147.806965 
L 90.290287 189.995281 
L 90.825585 196.628959 
L 91.310186 219.439034 
L 91.84056 225.465637 
L 92.801556 241.818194 
L 93.337227 245.795449 
L 93.809414 251.183531 
L 94.293553 235.023777 
L 94.826971 236.759264 
L 95.300889 258.438769 
L 95.839588 238.874564 
L 96.331157 259.369714 
L 96.793259 242.079797 
L 97.33157 261.629583 
L 97.839356 262.260305 
L 98.288046 268.065601 
L 98.822433 250.74394 
L 99.315643 191.410278 
L 100.314863 109.033498 
L 100.795331 83.132746 
L 101.344862 78.516566 
L 101.806517 79.366738 
L 102.35551 76.103358 
L 102.835814 74.475009 
L 103.298722 72.108809 
L 103.83866 70.100911 
L 104.313787 67.274363 
L 105.330657 73.784367 
L 105.805799 70.619901 
L 106.343096 69.644193 
L 106.821863 69.713456 
L 107.303107 68.041724 
L 107.833914 70.148017 
L 108.314307 70.252239 
L 109.326537 70.029177 
L 109.804245 69.400988 
L 110.817729 69.800154 
L 111.29763 70.241073 
L 111.84822 69.484605 
L 112.311904 72.662764 
L 112.878219 72.569182 
L 113.339889 72.31674 
L 113.801588 66.459151 
L 114.35655 65.639389 
L 114.825948 65.70163 
L 115.293883 72.926262 
L 115.86463 74.154689 
L 116.314468 68.76185 
L 116.861298 77.451781 
L 117.337873 74.785098 
L 118.404708 88.280548 
L 118.848803 96.043599 
L 119.359617 101.929924 
L 119.85229 126.00963 
L 120.317301 169.569966 
L 120.845616 191.047129 
L 121.451334 194.309206 
L 121.898845 224.674553 
L 122.340776 218.776177 
L 122.8192 227.38882 
L 124.322909 239.460528 
L 126.336433 246.752386 
L 126.832164 246.490996 
L 127.351781 267.576862 
L 127.829608 248.214561 
L 128.307481 249.192312 
L 128.846344 250.745675 
L 129.857485 251.214963 
L 130.338311 225.123177 
L 130.812916 168.425932 
L 131.827115 85.686142 
L 132.879329 74.196098 
L 133.388786 70.32896 
L 134.33446 67.940826 
L 134.812899 65.921485 
L 135.35039 64.315327 
L 135.825383 62.393112 
L 136.303046 63.672545 
L 136.84091 64.045572 
L 137.31826 62.277086 
L 137.870476 62.126308 
L 138.333742 62.374232 
L 138.811704 63.410461 
L 139.361205 64.287923 
L 139.823904 62.983179 
L 140.360574 64.141889 
L 140.838148 64.242958 
L 141.315603 66.663117 
L 141.853183 67.841765 
L 142.33289 67.677837 
L 142.807047 69.229456 
L 143.344807 68.870697 
L 143.823067 69.902975 
L 144.837192 71.06616 
L 145.344992 74.273629 
L 145.896 71.892132 
L 146.361519 74.1513 
L 146.8961 74.396823 
L 147.359844 75.941 
L 147.837418 74.801157 
L 148.35881 75.647257 
L 148.839816 77.929236 
L 149.313898 77.672534 
L 150.867006 104.724468 
L 151.386578 117.768633 
L 151.820647 135.960446 
L 152.360614 148.049431 
L 152.833413 182.495881 
L 153.849478 221.980152 
L 154.325709 233.174257 
L 154.871584 220.906914 
L 155.81781 235.907401 
L 156.360105 236.488159 
L 156.831935 239.076842 
L 157.369948 264.265772 
L 157.851266 242.830784 
L 158.324275 243.318269 
L 158.861586 267.308262 
L 159.343696 245.845769 
L 159.819584 246.558714 
L 160.372979 246.167539 
L 160.837737 264.823457 
L 161.382538 229.868006 
L 161.862618 170.718258 
L 162.332166 142.550961 
L 162.861764 92.79084 
L 163.844155 81.924557 
L 164.353164 81.483097 
L 164.860756 79.936886 
L 165.36602 79.285257 
L 165.858156 81.952981 
L 166.359541 78.813277 
L 166.859808 76.458149 
L 167.352211 75.723736 
L 167.873082 86.665535 
L 168.349611 78.29376 
L 168.858621 74.554156 
L 169.364691 73.401578 
L 170.326433 77.239548 
L 170.85621 76.974658 
L 171.334381 76.343958 
L 171.873364 77.10512 
L 172.348431 77.171556 
L 172.825587 77.074544 
L 173.367583 77.738331 
L 173.841234 78.534828 
L 174.377352 79.681031 
L 174.86155 77.458188 
L 175.3315 78.427512 
L 175.869975 80.056681 
L 176.350816 81.016635 
L 176.824914 81.178053 
L 177.362733 80.574356 
L 177.840307 76.117261 
L 178.390852 79.585824 
L 178.853865 79.148602 
L 179.333259 80.629426 
L 179.882715 79.907215 
L 180.345876 84.274715 
L 180.854587 90.922043 
L 181.363015 92.829909 
L 182.373618 112.615809 
L 182.866649 132.887128 
L 183.330348 186.600249 
L 183.866048 197.94261 
L 184.362092 215.984448 
L 184.895942 209.66275 
L 185.840542 228.18777 
L 186.371961 234.285042 
L 186.851056 236.904144 
L 187.333016 240.185573 
L 188.341919 244.637054 
L 188.879678 245.494705 
L 189.356909 246.707146 
L 189.832917 247.239359 
L 190.847832 249.22327 
L 191.325465 270.662355 
L 191.865388 250.738324 
L 192.339695 250.744533 
L 192.876812 215.535956 
L 193.358191 142.808653 
L 193.83205 108.324645 
L 194.369122 83.467446 
L 194.853216 79.212437 
L 195.387947 76.641761 
L 195.862492 72.00111 
L 196.345705 74.35376 
L 196.917228 69.90551 
L 197.354056 67.394388 
L 197.833197 67.070097 
L 198.378416 70.6507 
L 198.917965 66.50497 
L 199.397628 65.640577 
L 199.896984 67.346899 
L 200.382973 66.448346 
L 200.897607 68.959095 
L 201.360649 70.229498 
L 201.911731 72.087218 
L 202.37458 72.091528 
L 202.849841 68.227422 
L 204.344329 72.10505 
L 204.878583 71.620154 
L 205.357932 76.613641 
L 205.90785 75.985806 
L 206.371266 74.757386 
L 206.870264 78.209309 
L 207.390955 79.572915 
L 207.91005 80.105615 
L 208.36623 77.898015 
L 208.885324 78.315859 
L 209.371611 77.04496 
L 209.891751 79.478268 
L 210.376814 79.282654 
L 210.847779 76.975154 
L 211.864798 83.394312 
L 212.397902 91.509132 
L 212.875923 94.87651 
L 213.890212 118.594058 
L 214.848105 181.035853 
L 215.859455 220.431461 
L 216.397856 211.827974 
L 216.874624 221.810405 
L 217.351243 229.121239 
L 217.889017 234.671091 
L 218.365845 237.246377 
L 218.844254 261.865922 
L 219.380283 242.064251 
L 220.395392 245.075826 
L 220.872668 246.12661 
L 221.886986 247.557538 
L 222.904095 249.460788 
L 223.379177 249.606066 
L 223.858661 266.973374 
L 224.39915 172.81887 
L 224.870965 139.126511 
L 225.34836 93.94843 
L 226.363559 83.720688 
L 226.899647 83.678029 
L 227.378265 79.844879 
L 227.856958 78.563726 
L 228.391927 77.995398 
L 228.871262 78.712234 
L 229.884103 76.938272 
L 230.366675 76.412659 
L 230.898019 74.865892 
L 231.375578 76.518284 
L 231.856285 73.889944 
L 232.390807 75.043397 
L 232.868619 76.969507 
L 233.406065 76.68701 
L 234.897913 77.798612 
L 235.375666 77.468992 
L 235.852494 79.607349 
L 236.866275 81.95905 
L 237.425369 82.473796 
L 238.358735 85.333543 
L 238.909772 85.5282 
L 239.377842 83.648112 
L 239.929342 83.562921 
L 240.399099 82.085476 
L 240.865199 80.154942 
L 241.410388 83.772415 
L 241.89772 82.655193 
L 242.357211 82.910438 
L 242.898581 86.440869 
L 243.400116 91.013458 
L 243.908886 92.229951 
L 244.387818 98.142092 
L 244.882519 115.89412 
L 245.399898 140.280176 
L 245.882843 181.042489 
L 246.891388 210.056868 
L 247.372871 213.051683 
L 247.907333 223.193099 
L 248.868329 235.706139 
L 249.398718 238.394383 
L 249.876411 242.547969 
L 250.899846 246.87143 
L 251.389803 267.258449 
L 251.905466 268.160361 
L 252.383055 248.742802 
L 252.862747 269.741305 
L 253.396822 270.303968 
L 253.875485 250.768044 
L 254.412901 251.101633 
L 254.889147 251.558373 
L 255.366288 205.121355 
L 255.903898 137.557125 
L 256.380457 106.104873 
L 256.92411 87.131212 
L 257.396596 82.294085 
L 257.881764 79.589533 
L 258.416181 77.29537 
L 258.889772 75.975146 
L 259.365734 75.273419 
L 259.909133 77.164888 
L 260.380888 75.339978 
L 260.917379 75.148198 
L 261.397191 75.507781 
L 261.871617 75.278155 
L 262.409272 76.039884 
L 262.892709 75.412592 
L 263.364569 77.391 
L 263.901448 77.938029 
L 264.380111 77.207733 
L 264.914722 77.154184 
L 265.393116 78.525051 
L 265.871794 78.731538 
L 266.40751 76.944089 
L 266.884904 77.327723 
L 267.421067 78.194655 
L 267.899596 77.669533 
L 268.376842 76.674277 
L 269.39216 77.810035 
L 269.869107 78.79635 
L 270.40618 79.341093 
L 270.883485 78.746831 
L 271.420006 79.920207 
L 271.899475 80.324637 
L 272.375333 80.302585 
L 272.912122 78.273795 
L 273.390905 79.26907 
L 274.881082 91.606994 
L 275.895699 105.284124 
L 276.931815 147.279377 
L 277.399139 187.316596 
L 278.408504 224.965344 
L 278.885765 216.182208 
L 279.939486 232.941246 
L 280.365334 237.459207 
L 280.946911 240.451438 
L 281.400092 243.416554 
L 281.936866 244.817949 
L 282.441266 245.752405 
L 282.900861 247.149772 
L 283.929324 248.617169 
L 284.457221 249.449373 
L 284.933557 249.728864 
L 285.37871 250.354942 
L 285.929509 250.85381 
L 286.398698 238.593244 
L 286.869753 156.432858 
L 287.408646 109.245432 
L 287.886473 91.88834 
L 288.437347 86.781246 
L 288.92899 84.253453 
L 289.380887 80.065145 
L 289.929448 80.657561 
L 290.411274 79.438537 
L 290.869109 78.762265 
L 291.407122 77.277739 
L 291.900645 74.63431 
L 292.421694 78.3794 
L 293.391806 75.944704 
L 293.916004 76.543233 
L 294.390937 77.757421 
L 294.926503 81.493382 
L 295.419593 87.907581 
L 295.89669 79.324421 
L 296.419708 78.740169 
L 296.895402 80.324301 
L 297.374841 81.42152 
L 297.910527 80.115208 
L 298.394844 81.033185 
L 298.954878 80.940955 
L 299.415414 80.716167 
L 299.89812 81.248461 
L 300.894252 83.108853 
L 301.449631 82.505857 
L 301.923848 80.217153 
L 302.38704 80.257802 
L 302.942717 80.731513 
L 303.412369 80.903039 
L 303.878246 80.342146 
L 304.415602 78.698926 
L 304.895951 77.79938 
L 305.430279 81.378394 
L 305.90733 89.640663 
L 306.385635 93.574568 
L 306.922112 104.491065 
L 307.399193 109.140776 
L 308.413154 177.381213 
L 308.891429 200.280195 
L 309.905941 232.673196 
L 310.383993 222.193717 
L 310.920558 230.081881 
L 311.412813 234.946213 
L 311.951706 238.060699 
L 312.417792 241.624163 
L 312.889249 244.107079 
L 313.904134 245.866051 
L 314.382186 247.025605 
L 314.919199 247.426568 
L 315.484589 248.300458 
L 315.949541 248.662385 
L 316.411181 269.196446 
L 316.903331 264.166479 
L 317.426007 250.929066 
L 318.390628 152.970942 
L 318.922957 127.126559 
L 319.932412 94.643253 
L 320.414163 90.925977 
L 320.901285 89.808081 
L 321.424737 89.245231 
L 321.904713 89.007853 
L 322.467775 87.758733 
L 322.917137 85.293317 
L 323.398933 86.381355 
L 323.964591 86.244759 
L 324.409089 88.143703 
L 324.889169 89.128363 
L 325.459662 89.286269 
L 325.900862 88.030675 
L 326.46755 87.615311 
L 326.930264 90.030622 
L 327.958174 89.716802 
L 328.423216 89.858961 
L 328.958558 90.787003 
L 329.465911 89.948598 
L 329.932743 91.122185 
L 330.450182 91.022298 
L 330.942541 89.056357 
L 331.407448 87.709228 
L 331.94282 84.084383 
L 332.440133 86.724516 
L 333.92752 83.682456 
L 334.448823 79.715229 
L 334.927068 79.187359 
L 335.419233 80.635474 
L 335.934538 84.565746 
L 336.418005 84.61369 
L 337.432801 92.386207 
L 338.437646 105.907941 
L 338.924052 127.603501 
L 339.447922 171.679851 
L 340.444859 203.569431 
L 340.938546 208.867187 
L 341.415568 196.009638 
L 341.902093 198.357555 
L 342.431229 198.447426 
L 342.908132 198.097639 
L 343.446846 198.553323 
L 343.923032 215.051287 
L 344.400069 210.730007 
L 344.938111 218.901845 
L 345.892498 228.45973 
L 346.439881 229.60301 
L 347.448455 232.373124 
L 348.40332 233.981681 
L 348.941452 212.220658 
L 349.421099 138.956079 
L 349.958008 114.402666 
L 350.432419 86.598551 
L 351.448603 72.051383 
L 351.923819 70.787981 
L 352.405973 70.297824 
L 353.415025 67.524059 
L 354.053984 71.697682 
L 354.463942 64.6858 
L 354.962941 64.165279 
L 355.466952 62.656338 
L 356.463621 64.04523 
L 356.96799 61.863459 
L 357.964972 64.713081 
L 358.429581 65.212828 
L 358.910795 61.992998 
L 359.445004 63.493816 
L 359.921429 63.881291 
L 360.465156 67.133358 
L 360.935016 66.74548 
L 361.951483 72.190474 
L 362.427983 70.652643 
L 362.905408 72.090072 
L 363.448911 70.224255 
L 363.919786 71.794827 
L 364.455546 74.433262 
L 364.935417 75.57829 
L 365.411216 74.96867 
L 365.958255 73.926432 
L 366.428086 73.818244 
L 366.968202 76.00797 
L 367.447343 75.401342 
L 367.918949 78.90189 
L 368.455276 88.418174 
L 369.417555 97.135358 
L 369.948048 108.382473 
L 370.423325 147.475645 
L 370.978689 154.157844 
L 371.439061 193.56915 
L 371.922349 217.111253 
L 372.476803 210.029807 
L 372.97871 217.642282 
L 373.406722 226.919918 
L 373.944004 251.168917 
L 374.423577 235.45198 
L 375.915872 242.37942 
L 376.953375 245.049463 
L 377.466801 245.748675 
L 377.959458 246.199716 
L 378.973374 246.84 
L 379.434179 247.356404 
L 379.939965 267.218495 
L 380.450541 192.437415 
L 380.927548 166.539354 
L 381.463263 112.2429 
L 381.947342 92.895374 
L 382.419247 84.045278 
L 382.95529 76.318656 
L 383.439652 76.085719 
L 383.971802 74.361469 
L 384.4476 76.215965 
L 384.926144 76.428961 
L 385.466469 75.577375 
L 385.939836 74.158357 
L 386.422393 73.67927 
L 386.954363 76.386932 
L 387.969115 73.62885 
L 388.448747 73.935922 
L 388.922606 74.78233 
L 389.460664 74.996887 
L 389.93779 75.955687 
L 390.414454 75.538374 
L 390.953272 72.706121 
L 391.430861 77.170212 
L 391.96695 76.820994 
L 392.444523 75.972181 
L 392.923783 78.532387 
L 393.459096 78.41488 
L 393.939295 79.079208 
L 394.475757 78.265246 
L 394.952241 76.146641 
L 395.429189 79.641769 
L 395.973229 88.551193 
L 396.442597 74.792988 
L 396.923483 76.977041 
L 397.464316 78.118659 
L 397.935922 77.866892 
L 398.487273 78.05647 
L 398.487273 78.05647 
" clip-path="url(#p9a82bbefb4)" style="fill: none; stroke: #ff0000; stroke-width: 1.5; stroke-linecap: square"/>
   </g>
   <g id="line2d_22">
    <path d="M 73.832727 207.451798 
L 74.317746 208.382716 
L 74.842316 208.323725 
L 75.32174 209.71761 
L 75.794003 205.368039 
L 76.83364 211.568197 
L 77.286432 208.371545 
L 77.822819 208.05913 
L 78.309509 208.063129 
L 78.830125 205.255255 
L 79.345968 211.152885 
L 79.801431 209.447349 
L 80.322152 209.243946 
L 80.815466 208.563504 
L 81.817058 206.028521 
L 82.299347 208.050536 
L 82.828632 204.777382 
L 83.307354 211.719934 
L 84.799486 209.051521 
L 85.335708 209.306058 
L 86.290737 222.075117 
L 86.82954 219.716312 
L 87.305294 232.475516 
L 87.782614 231.230748 
L 88.796948 248.9595 
L 89.333469 253.930047 
L 89.813012 278.771496 
L 90.290287 266.582075 
L 90.825585 275.258866 
L 91.310186 271.351618 
L 91.84056 272.530847 
L 92.801556 276.953061 
L 93.337227 277.768805 
L 93.809414 277.749963 
L 94.293553 291.696448 
L 94.826971 291.91499 
L 95.300889 278.441647 
L 96.793259 281.779512 
L 97.33157 282.500772 
L 97.839356 282.198946 
L 98.288046 278.087639 
L 98.822433 288.341904 
L 99.315643 277.151326 
L 99.837155 262.115633 
L 100.314863 262.166932 
L 101.344862 255.53298 
L 101.806517 247.518986 
L 102.35551 245.496609 
L 102.835814 244.711802 
L 103.298722 245.000995 
L 103.83866 252.053952 
L 104.313787 251.245931 
L 104.790108 251.188177 
L 105.330657 245.984736 
L 105.805799 252.117143 
L 106.343096 252.440951 
L 106.821863 252.311522 
L 107.303107 255.09439 
L 107.833914 252.804755 
L 108.794552 252.956975 
L 109.326537 252.403185 
L 109.804245 253.151957 
L 110.34378 252.413133 
L 110.817729 252.39408 
L 111.84822 251.312563 
L 112.311904 245.263939 
L 112.878219 244.749005 
L 113.339889 244.654639 
L 113.801588 248.643928 
L 114.35655 249.151665 
L 114.825948 248.752913 
L 115.293883 242.926352 
L 115.86463 241.727561 
L 116.314468 246.393547 
L 116.861298 243.30721 
L 117.337873 246.650026 
L 117.816222 246.85208 
L 118.404708 241.549026 
L 118.848803 246.203163 
L 119.359617 249.049136 
L 119.85229 256.058163 
L 120.317301 256.034465 
L 121.451334 280.635473 
L 121.898845 272.721753 
L 122.340776 288.252816 
L 122.8192 289.887363 
L 124.859415 286.414235 
L 127.351781 282.072826 
L 129.857485 275.325717 
L 130.812916 272.533205 
L 131.351018 259.149874 
L 131.827115 250.086724 
L 132.305972 243.687144 
L 133.388786 234.412561 
L 133.860631 231.102938 
L 134.33446 230.769281 
L 134.812899 229.915598 
L 135.35039 227.168275 
L 135.825383 226.349362 
L 136.303046 224.129436 
L 136.84091 222.725993 
L 137.870476 221.106518 
L 138.333742 221.306714 
L 138.811704 220.679227 
L 139.823904 220.282761 
L 140.360574 220.720175 
L 140.838148 220.472453 
L 141.315603 220.02057 
L 141.853183 218.778082 
L 142.33289 218.937146 
L 142.807047 219.729102 
L 143.823067 219.045856 
L 144.360647 218.919167 
L 144.837192 218.968672 
L 145.344992 218.476228 
L 145.896 219.870963 
L 146.361519 219.437136 
L 146.8961 219.437348 
L 147.359844 218.383186 
L 148.839816 221.863398 
L 149.848972 236.716931 
L 150.342062 232.526824 
L 151.386578 246.347302 
L 152.360614 269.978083 
L 152.833413 265.520849 
L 153.310898 269.704996 
L 153.849478 271.969328 
L 154.325709 275.765576 
L 154.871584 289.2386 
L 155.340445 290.659883 
L 155.81781 291.108179 
L 156.360105 292.78924 
L 157.369948 278.572036 
L 158.861586 278.571961 
L 160.837737 283.295702 
L 161.862618 288.114603 
L 162.332166 263.868885 
L 162.861764 243.376916 
L 163.355391 234.921248 
L 163.844155 231.48591 
L 164.353164 229.7745 
L 164.860756 228.694906 
L 165.36602 231.484711 
L 165.858156 226.640277 
L 166.359541 226.58353 
L 167.352211 222.600502 
L 167.873082 211.820979 
L 168.349611 222.408702 
L 168.858621 221.631018 
L 169.364691 221.652875 
L 169.843041 221.416305 
L 170.326433 221.986131 
L 170.85621 222.335004 
L 171.334381 222.215535 
L 171.873364 221.76222 
L 172.348431 222.350847 
L 172.825587 221.967072 
L 173.841234 221.60099 
L 174.377352 220.607773 
L 174.86155 220.122184 
L 175.3315 219.350464 
L 176.350816 220.361982 
L 176.824914 220.303939 
L 177.362733 220.510966 
L 177.840307 227.005511 
L 178.390852 221.643238 
L 178.853865 221.856996 
L 179.333259 223.469355 
L 179.882715 230.367532 
L 180.345876 226.927773 
L 180.854587 230.929972 
L 181.363015 231.614945 
L 181.838828 237.052559 
L 182.373618 251.054841 
L 182.866649 257.73588 
L 183.330348 255.008129 
L 183.866048 269.076549 
L 184.362092 271.824755 
L 184.895942 287.300762 
L 185.35809 288.571669 
L 185.840542 290.290937 
L 186.851056 292.581339 
L 189.832917 284.296171 
L 190.847832 281.534448 
L 191.325465 280.153586 
L 192.876812 273.169653 
L 193.358191 277.179485 
L 193.83205 258.320485 
L 194.369122 251.404063 
L 194.853216 247.525319 
L 195.387947 245.466204 
L 195.862492 248.928889 
L 196.345705 237.901711 
L 197.354056 227.717318 
L 197.833197 227.899997 
L 198.378416 226.368416 
L 198.917965 222.852027 
L 199.397628 221.476342 
L 199.896984 221.465501 
L 200.382973 221.287321 
L 200.897607 220.057489 
L 201.360649 218.629923 
L 201.911731 220.231221 
L 202.37458 220.558744 
L 202.849841 218.422622 
L 203.388152 218.532172 
L 203.865577 220.163994 
L 204.344329 220.108879 
L 204.878583 219.287808 
L 205.357932 221.726742 
L 205.90785 220.144118 
L 206.371266 219.328597 
L 206.870264 220.370044 
L 207.390955 220.512075 
L 207.91005 220.436542 
L 208.36623 227.129419 
L 209.371611 228.076586 
L 209.891751 222.744747 
L 210.376814 222.77665 
L 210.847779 229.639 
L 211.383568 231.123465 
L 211.864798 233.081116 
L 212.397902 231.34172 
L 212.875923 233.757189 
L 213.356645 240.795569 
L 213.890212 253.678882 
L 214.367518 260.491809 
L 214.848105 265.402602 
L 215.38212 269.616811 
L 215.859455 271.444768 
L 216.397856 287.482652 
L 217.351243 290.178375 
L 218.365845 292.529778 
L 218.844254 279.276147 
L 223.379177 280.917153 
L 223.858661 281.099487 
L 224.39915 289.598301 
L 225.34836 240.281014 
L 225.893758 235.954585 
L 226.363559 233.846735 
L 226.899647 233.850603 
L 227.378265 233.676826 
L 227.856958 228.990297 
L 228.391927 230.085906 
L 228.871262 228.546248 
L 229.407365 227.217444 
L 229.884103 226.524656 
L 230.366675 226.115054 
L 230.898019 226.553717 
L 231.375578 225.099114 
L 231.856285 225.441397 
L 232.390807 225.145642 
L 232.868619 224.163254 
L 233.406065 224.83864 
L 233.883281 224.504029 
L 234.362272 224.001491 
L 235.375666 224.314103 
L 235.852494 223.455998 
L 236.392401 223.55641 
L 236.866275 223.861097 
L 237.881892 223.181199 
L 238.358735 223.414545 
L 238.909772 223.277252 
L 239.377842 223.447406 
L 239.929342 223.224564 
L 240.399099 223.32307 
L 240.865199 229.696545 
L 241.410388 225.499269 
L 241.89772 227.165362 
L 242.898581 229.594727 
L 243.400116 230.930577 
L 243.908886 232.719301 
L 244.882519 251.993008 
L 245.399898 253.226561 
L 245.882843 256.715623 
L 246.362864 268.279639 
L 246.891388 275.124385 
L 247.372871 287.716086 
L 247.907333 288.99495 
L 248.384713 291.110221 
L 248.868329 292.699563 
L 249.398718 292.966693 
L 249.876411 293.572164 
L 250.416065 293.688291 
L 250.899846 293.5613 
L 251.389803 280.763072 
L 251.905466 281.168094 
L 252.383055 294.460944 
L 252.862747 281.217481 
L 253.396822 281.324163 
L 253.875485 294.919532 
L 254.412901 295.202793 
L 254.889147 294.840145 
L 255.366288 278.133982 
L 255.903898 276.732362 
L 256.380457 256.668772 
L 256.92411 226.35204 
L 257.396596 224.770463 
L 257.881764 223.996635 
L 258.416181 223.838569 
L 258.889772 223.919058 
L 259.365734 223.342931 
L 259.909133 223.968046 
L 260.380888 223.258526 
L 260.917379 223.076141 
L 261.871617 224.713431 
L 262.409272 224.521681 
L 262.892709 223.840429 
L 263.364569 223.572524 
L 263.901448 223.54958 
L 264.380111 224.076347 
L 265.393116 223.47435 
L 265.871794 223.750151 
L 266.40751 222.934317 
L 266.884904 222.876192 
L 267.421067 222.464006 
L 267.899596 221.595657 
L 268.376842 221.028034 
L 268.9166 221.088675 
L 269.39216 220.526238 
L 269.869107 220.763719 
L 270.40618 221.379318 
L 270.883485 221.292282 
L 271.420006 222.021267 
L 271.899475 222.332672 
L 272.375333 223.367467 
L 272.912122 230.207359 
L 273.390905 229.938938 
L 273.932901 226.386012 
L 274.403806 229.753037 
L 274.881082 231.33426 
L 275.432 235.185077 
L 275.895699 247.379036 
L 276.3793 255.16287 
L 276.931815 270.230626 
L 277.399139 267.316467 
L 278.408504 273.091582 
L 278.885765 287.948691 
L 279.43343 290.520691 
L 279.939486 291.102139 
L 280.365334 292.424485 
L 281.936866 293.405502 
L 282.441266 294.101976 
L 282.900861 294.198432 
L 283.445021 294.132452 
L 283.929324 294.500351 
L 284.933557 294.635694 
L 285.37871 294.956696 
L 285.929509 294.736247 
L 286.398698 293.649782 
L 286.869753 269.244378 
L 287.408646 259.816896 
L 287.886473 235.290751 
L 288.92899 228.246701 
L 289.380887 227.533387 
L 289.929448 225.95907 
L 290.411274 225.43332 
L 291.407122 223.925508 
L 291.900645 223.541189 
L 292.421694 223.66098 
L 292.899343 229.652531 
L 293.391806 224.397536 
L 293.916004 222.446955 
L 294.390937 222.007488 
L 294.926503 220.52258 
L 295.419593 209.603135 
L 295.89669 221.545384 
L 296.419708 221.987399 
L 296.895402 222.765556 
L 297.374841 222.780701 
L 297.910527 221.997885 
L 298.394844 222.002356 
L 298.954878 222.25251 
L 299.415414 222.141076 
L 299.89812 220.761065 
L 300.433224 220.100725 
L 300.894252 219.968212 
L 301.449631 219.556851 
L 301.923848 220.299616 
L 302.38704 220.366109 
L 302.942717 220.288454 
L 303.412369 221.116245 
L 303.878246 223.448839 
L 304.415602 229.276953 
L 304.895951 230.650389 
L 305.430279 230.973739 
L 305.90733 229.781379 
L 306.385635 231.914761 
L 306.922112 238.167603 
L 307.881675 260.801947 
L 308.891429 269.282395 
L 309.905941 273.84915 
L 310.383993 288.682574 
L 310.920558 290.840798 
L 311.951706 292.702368 
L 312.889249 292.999301 
L 313.426426 293.417132 
L 313.904134 293.947362 
L 314.382186 293.848206 
L 314.919199 294.140481 
L 315.949541 295.488 
L 316.411181 282.204975 
L 316.903331 285.964782 
L 317.426007 294.181202 
L 317.902596 288.979196 
L 318.390628 285.944536 
L 319.394817 236.1768 
L 319.932412 234.351954 
L 320.414163 230.04492 
L 320.901285 228.430552 
L 321.904713 226.893762 
L 322.467775 228.004018 
L 322.917137 228.241918 
L 323.398933 226.932361 
L 323.964591 226.876724 
L 324.889169 225.632284 
L 325.459662 225.755831 
L 325.900862 225.469807 
L 326.46755 226.454372 
L 326.930264 225.972471 
L 327.39253 226.015236 
L 328.423216 225.706774 
L 328.958558 225.743078 
L 329.465911 225.413109 
L 329.932743 225.472805 
L 330.450182 225.738837 
L 330.942541 225.515149 
L 331.407448 224.595925 
L 331.94282 225.609828 
L 332.440133 223.339288 
L 332.956647 222.437305 
L 333.421345 222.026188 
L 333.92752 222.615245 
L 334.448823 228.827889 
L 335.419233 230.133844 
L 335.934538 225.35643 
L 336.947126 228.985202 
L 337.432801 231.082077 
L 337.92616 234.304535 
L 338.437646 248.660474 
L 338.924052 256.48966 
L 339.447922 255.689512 
L 339.923451 266.055703 
L 340.938546 268.985924 
L 341.415568 282.225752 
L 341.902093 281.591113 
L 342.431229 279.578933 
L 342.908132 274.986634 
L 343.446846 273.181555 
L 343.923032 263.61864 
L 344.400069 289.186102 
L 344.938111 288.515822 
L 345.414865 289.881204 
L 345.892498 289.282243 
L 346.439881 289.348479 
L 346.942325 290.268836 
L 347.448455 290.13171 
L 348.40332 290.710644 
L 348.941452 284.638252 
L 349.421099 276.71954 
L 349.958008 257.546929 
L 350.912097 242.151114 
L 351.923819 238.071888 
L 352.405973 232.297224 
L 352.953729 231.13456 
L 353.415025 231.006211 
L 354.053984 220.514137 
L 354.463942 230.198261 
L 354.962941 227.77402 
L 355.98463 227.41881 
L 356.463621 226.126769 
L 356.96799 227.001399 
L 357.441193 226.915013 
L 357.964972 226.246507 
L 358.429581 224.665473 
L 358.910795 229.974355 
L 359.445004 230.314903 
L 359.921429 230.263183 
L 360.465156 225.824807 
L 360.935016 224.339096 
L 361.412665 224.698289 
L 361.951483 224.644334 
L 362.427983 224.087949 
L 362.905408 222.581862 
L 363.448911 221.961699 
L 363.919786 222.435283 
L 364.455546 222.212299 
L 364.935417 222.296251 
L 365.411216 222.566313 
L 365.958255 221.966765 
L 366.428086 227.171202 
L 366.968202 229.488873 
L 367.918949 230.945216 
L 368.455276 230.433846 
L 368.932298 233.259774 
L 369.417555 243.067314 
L 369.948048 250.54379 
L 370.423325 253.79678 
L 370.978689 271.764317 
L 371.439061 267.8963 
L 371.922349 271.357503 
L 372.476803 287.065262 
L 372.97871 288.424308 
L 373.406722 290.639461 
L 373.944004 277.939766 
L 374.423577 292.377509 
L 374.961067 292.775148 
L 375.436075 292.779333 
L 375.915872 293.398062 
L 376.450558 293.554628 
L 376.953375 293.428753 
L 377.466801 293.623362 
L 377.959458 293.949649 
L 378.436361 293.899794 
L 378.973374 294.256633 
L 379.434179 295.092945 
L 379.939965 283.858587 
L 380.450541 287.422632 
L 380.927548 269.866121 
L 381.947342 240.07166 
L 382.419247 235.701396 
L 382.95529 240.533405 
L 383.439652 233.903265 
L 383.971802 230.682695 
L 384.4476 229.81953 
L 384.926144 230.441959 
L 385.466469 227.00898 
L 385.939836 224.764459 
L 386.422393 225.055999 
L 386.954363 223.730473 
L 387.431132 223.014102 
L 387.969115 223.280571 
L 388.448747 223.324003 
L 388.922606 224.142829 
L 389.460664 223.518341 
L 389.93779 223.824362 
L 390.414454 223.610023 
L 390.953272 228.623938 
L 391.430861 223.206399 
L 392.923783 222.03024 
L 393.459096 221.460123 
L 393.939295 220.589406 
L 394.475757 219.875904 
L 394.952241 220.304745 
L 395.429189 221.546581 
L 395.973229 211.115069 
L 396.442597 225.927201 
L 396.923483 222.021819 
L 397.464316 221.929323 
L 397.935922 222.685967 
L 398.487273 229.490518 
L 398.487273 229.490518 
" clip-path="url(#p9a82bbefb4)" style="fill: none; stroke: #008000; stroke-width: 1.5; stroke-linecap: square"/>
   </g>
   <g id="patch_3">
    <path d="M 57.6 307.584 
L 57.6 41.472 
" style="fill: none; stroke: #000000; stroke-width: 0.8; stroke-linejoin: miter; stroke-linecap: square"/>
   </g>
   <g id="patch_4">
    <path d="M 414.72 307.584 
L 414.72 41.472 
" style="fill: none; stroke: #000000; stroke-width: 0.8; stroke-linejoin: miter; stroke-linecap: square"/>
   </g>
   <g id="patch_5">
    <path d="M 57.6 307.584 
L 414.72 307.584 
" style="fill: none; stroke: #000000; stroke-width: 0.8; stroke-linejoin: miter; stroke-linecap: square"/>
   </g>
   <g id="patch_6">
    <path d="M 57.6 41.472 
L 414.72 41.472 
" style="fill: none; stroke: #000000; stroke-width: 0.8; stroke-linejoin: miter; stroke-linecap: square"/>
   </g>
   <g id="text_13">
    <!-- Angles in Thumb joints -->
    <g transform="translate(167.56125 35.472) scale(0.12 -0.12)">
     <defs>
      <path id="DejaVuSans-41" d="M 2188 4044 
L 1331 1722 
L 3047 1722 
L 2188 4044 
z
M 1831 4666 
L 2547 4666 
L 4325 0 
L 3669 0 
L 3244 1197 
L 1141 1197 
L 716 0 
L 50 0 
L 1831 4666 
z
" transform="scale(0.015625)"/>
      <path id="DejaVuSans-54" d="M -19 4666 
L 3928 4666 
L 3928 4134 
L 2272 4134 
L 2272 0 
L 1638 0 
L 1638 4134 
L -19 4134 
L -19 4666 
z
" transform="scale(0.015625)"/>
      <path id="DejaVuSans-68" d="M 3513 2113 
L 3513 0 
L 2938 0 
L 2938 2094 
Q 2938 2591 2744 2837 
Q 2550 3084 2163 3084 
Q 1697 3084 1428 2787 
Q 1159 2491 1159 1978 
L 1159 0 
L 581 0 
L 581 4863 
L 1159 4863 
L 1159 2956 
Q 1366 3272 1645 3428 
Q 1925 3584 2291 3584 
Q 2894 3584 3203 3211 
Q 3513 2838 3513 2113 
z
" transform="scale(0.015625)"/>
      <path id="DejaVuSans-75" d="M 544 1381 
L 544 3500 
L 1119 3500 
L 1119 1403 
Q 1119 906 1312 657 
Q 1506 409 1894 409 
Q 2359 409 2629 706 
Q 2900 1003 2900 1516 
L 2900 3500 
L 3475 3500 
L 3475 0 
L 2900 0 
L 2900 538 
Q 2691 219 2414 64 
Q 2138 -91 1772 -91 
Q 1169 -91 856 284 
Q 544 659 544 1381 
z
M 1991 3584 
L 1991 3584 
z
" transform="scale(0.015625)"/>
      <path id="DejaVuSans-62" d="M 3116 1747 
Q 3116 2381 2855 2742 
Q 2594 3103 2138 3103 
Q 1681 3103 1420 2742 
Q 1159 2381 1159 1747 
Q 1159 1113 1420 752 
Q 1681 391 2138 391 
Q 2594 391 2855 752 
Q 3116 1113 3116 1747 
z
M 1159 2969 
Q 1341 3281 1617 3432 
Q 1894 3584 2278 3584 
Q 2916 3584 3314 3078 
Q 3713 2572 3713 1747 
Q 3713 922 3314 415 
Q 2916 -91 2278 -91 
Q 1894 -91 1617 61 
Q 1341 213 1159 525 
L 1159 0 
L 581 0 
L 581 4863 
L 1159 4863 
L 1159 2969 
z
" transform="scale(0.015625)"/>
      <path id="DejaVuSans-6a" d="M 603 3500 
L 1178 3500 
L 1178 -63 
Q 1178 -731 923 -1031 
Q 669 -1331 103 -1331 
L -116 -1331 
L -116 -844 
L 38 -844 
Q 366 -844 484 -692 
Q 603 -541 603 -63 
L 603 3500 
z
M 603 4863 
L 1178 4863 
L 1178 4134 
L 603 4134 
L 603 4863 
z
" transform="scale(0.015625)"/>
      <path id="DejaVuSans-6f" d="M 1959 3097 
Q 1497 3097 1228 2736 
Q 959 2375 959 1747 
Q 959 1119 1226 758 
Q 1494 397 1959 397 
Q 2419 397 2687 759 
Q 2956 1122 2956 1747 
Q 2956 2369 2687 2733 
Q 2419 3097 1959 3097 
z
M 1959 3584 
Q 2709 3584 3137 3096 
Q 3566 2609 3566 1747 
Q 3566 888 3137 398 
Q 2709 -91 1959 -91 
Q 1206 -91 779 398 
Q 353 888 353 1747 
Q 353 2609 779 3096 
Q 1206 3584 1959 3584 
z
" transform="scale(0.015625)"/>
     </defs>
     <use xlink:href="#DejaVuSans-41"/>
     <use xlink:href="#DejaVuSans-6e" x="68.408203"/>
     <use xlink:href="#DejaVuSans-67" x="131.787109"/>
     <use xlink:href="#DejaVuSans-6c" x="195.263672"/>
     <use xlink:href="#DejaVuSans-65" x="223.046875"/>
     <use xlink:href="#DejaVuSans-73" x="284.570312"/>
     <use xlink:href="#DejaVuSans-20" x="336.669922"/>
     <use xlink:href="#DejaVuSans-69" x="368.457031"/>
     <use xlink:href="#DejaVuSans-6e" x="396.240234"/>
     <use xlink:href="#DejaVuSans-20" x="459.619141"/>
     <use xlink:href="#DejaVuSans-54" x="491.40625"/>
     <use xlink:href="#DejaVuSans-68" x="552.490234"/>
     <use xlink:href="#DejaVuSans-75" x="615.869141"/>
     <use xlink:href="#DejaVuSans-6d" x="679.248047"/>
     <use xlink:href="#DejaVuSans-62" x="776.660156"/>
     <use xlink:href="#DejaVuSans-20" x="840.136719"/>
     <use xlink:href="#DejaVuSans-6a" x="871.923828"/>
     <use xlink:href="#DejaVuSans-6f" x="899.707031"/>
     <use xlink:href="#DejaVuSans-69" x="960.888672"/>
     <use xlink:href="#DejaVuSans-6e" x="988.671875"/>
     <use xlink:href="#DejaVuSans-74" x="1052.050781"/>
     <use xlink:href="#DejaVuSans-73" x="1091.259766"/>
    </g>
   </g>
   <g id="legend_1">
    <g id="patch_7">
     <path d="M 314.005938 78.82825 
L 407.72 78.82825 
Q 409.72 78.82825 409.72 76.82825 
L 409.72 48.472 
Q 409.72 46.472 407.72 46.472 
L 314.005938 46.472 
Q 312.005938 46.472 312.005938 48.472 
L 312.005938 76.82825 
Q 312.005938 78.82825 314.005938 78.82825 
z
" style="fill: #ffffff; opacity: 0.8; stroke: #cccccc; stroke-linejoin: miter"/>
    </g>
    <g id="line2d_23">
     <path d="M 316.005938 54.570437 
L 326.005938 54.570437 
L 336.005938 54.570437 
" style="fill: none; stroke: #ff0000; stroke-width: 1.5; stroke-linecap: square"/>
    </g>
    <g id="text_14">
     <!-- delta (DIP) -->
     <g transform="translate(344.005938 58.070437) scale(0.1 -0.1)">
      <defs>
       <path id="DejaVuSans-64" d="M 2906 2969 
L 2906 4863 
L 3481 4863 
L 3481 0 
L 2906 0 
L 2906 525 
Q 2725 213 2448 61 
Q 2172 -91 1784 -91 
Q 1150 -91 751 415 
Q 353 922 353 1747 
Q 353 2572 751 3078 
Q 1150 3584 1784 3584 
Q 2172 3584 2448 3432 
Q 2725 3281 2906 2969 
z
M 947 1747 
Q 947 1113 1208 752 
Q 1469 391 1925 391 
Q 2381 391 2643 752 
Q 2906 1113 2906 1747 
Q 2906 2381 2643 2742 
Q 2381 3103 1925 3103 
Q 1469 3103 1208 2742 
Q 947 2381 947 1747 
z
" transform="scale(0.015625)"/>
       <path id="DejaVuSans-28" d="M 1984 4856 
Q 1566 4138 1362 3434 
Q 1159 2731 1159 2009 
Q 1159 1288 1364 580 
Q 1569 -128 1984 -844 
L 1484 -844 
Q 1016 -109 783 600 
Q 550 1309 550 2009 
Q 550 2706 781 3412 
Q 1013 4119 1484 4856 
L 1984 4856 
z
" transform="scale(0.015625)"/>
       <path id="DejaVuSans-44" d="M 1259 4147 
L 1259 519 
L 2022 519 
Q 2988 519 3436 956 
Q 3884 1394 3884 2338 
Q 3884 3275 3436 3711 
Q 2988 4147 2022 4147 
L 1259 4147 
z
M 628 4666 
L 1925 4666 
Q 3281 4666 3915 4102 
Q 4550 3538 4550 2338 
Q 4550 1131 3912 565 
Q 3275 0 1925 0 
L 628 0 
L 628 4666 
z
" transform="scale(0.015625)"/>
       <path id="DejaVuSans-49" d="M 628 4666 
L 1259 4666 
L 1259 0 
L 628 0 
L 628 4666 
z
" transform="scale(0.015625)"/>
       <path id="DejaVuSans-50" d="M 1259 4147 
L 1259 2394 
L 2053 2394 
Q 2494 2394 2734 2622 
Q 2975 2850 2975 3272 
Q 2975 3691 2734 3919 
Q 2494 4147 2053 4147 
L 1259 4147 
z
M 628 4666 
L 2053 4666 
Q 2838 4666 3239 4311 
Q 3641 3956 3641 3272 
Q 3641 2581 3239 2228 
Q 2838 1875 2053 1875 
L 1259 1875 
L 1259 0 
L 628 0 
L 628 4666 
z
" transform="scale(0.015625)"/>
       <path id="DejaVuSans-29" d="M 513 4856 
L 1013 4856 
Q 1481 4119 1714 3412 
Q 1947 2706 1947 2009 
Q 1947 1309 1714 600 
Q 1481 -109 1013 -844 
L 513 -844 
Q 928 -128 1133 580 
Q 1338 1288 1338 2009 
Q 1338 2731 1133 3434 
Q 928 4138 513 4856 
z
" transform="scale(0.015625)"/>
      </defs>
      <use xlink:href="#DejaVuSans-64"/>
      <use xlink:href="#DejaVuSans-65" x="63.476562"/>
      <use xlink:href="#DejaVuSans-6c" x="125"/>
      <use xlink:href="#DejaVuSans-74" x="152.783203"/>
      <use xlink:href="#DejaVuSans-61" x="191.992188"/>
      <use xlink:href="#DejaVuSans-20" x="253.271484"/>
      <use xlink:href="#DejaVuSans-28" x="285.058594"/>
      <use xlink:href="#DejaVuSans-44" x="324.072266"/>
      <use xlink:href="#DejaVuSans-49" x="401.074219"/>
      <use xlink:href="#DejaVuSans-50" x="430.566406"/>
      <use xlink:href="#DejaVuSans-29" x="490.869141"/>
     </g>
    </g>
    <g id="line2d_24">
     <path d="M 316.005938 69.248562 
L 326.005938 69.248562 
L 336.005938 69.248562 
" style="fill: none; stroke: #008000; stroke-width: 1.5; stroke-linecap: square"/>
    </g>
    <g id="text_15">
     <!-- epsilon (PIP) -->
     <g transform="translate(344.005938 72.748562) scale(0.1 -0.1)">
      <defs>
       <path id="DejaVuSans-70" d="M 1159 525 
L 1159 -1331 
L 581 -1331 
L 581 3500 
L 1159 3500 
L 1159 2969 
Q 1341 3281 1617 3432 
Q 1894 3584 2278 3584 
Q 2916 3584 3314 3078 
Q 3713 2572 3713 1747 
Q 3713 922 3314 415 
Q 2916 -91 2278 -91 
Q 1894 -91 1617 61 
Q 1341 213 1159 525 
z
M 3116 1747 
Q 3116 2381 2855 2742 
Q 2594 3103 2138 3103 
Q 1681 3103 1420 2742 
Q 1159 2381 1159 1747 
Q 1159 1113 1420 752 
Q 1681 391 2138 391 
Q 2594 391 2855 752 
Q 3116 1113 3116 1747 
z
" transform="scale(0.015625)"/>
      </defs>
      <use xlink:href="#DejaVuSans-65"/>
      <use xlink:href="#DejaVuSans-70" x="61.523438"/>
      <use xlink:href="#DejaVuSans-73" x="125"/>
      <use xlink:href="#DejaVuSans-69" x="177.099609"/>
      <use xlink:href="#DejaVuSans-6c" x="204.882812"/>
      <use xlink:href="#DejaVuSans-6f" x="232.666016"/>
      <use xlink:href="#DejaVuSans-6e" x="293.847656"/>
      <use xlink:href="#DejaVuSans-20" x="357.226562"/>
      <use xlink:href="#DejaVuSans-28" x="389.013672"/>
      <use xlink:href="#DejaVuSans-50" x="428.027344"/>
      <use xlink:href="#DejaVuSans-49" x="488.330078"/>
      <use xlink:href="#DejaVuSans-50" x="517.822266"/>
      <use xlink:href="#DejaVuSans-29" x="578.125"/>
     </g>
    </g>
   </g>
  </g>
 </g>
 <defs>
  <clipPath id="p9a82bbefb4">
   <rect x="57.6" y="41.472" width="357.12" height="266.112"/>
  </clipPath>
 </defs>
</svg>
