<?xml version="1.0" encoding="utf-8" standalone="no"?>
<!DOCTYPE svg PUBLIC "-//W3C//DTD SVG 1.1//EN"
  "http://www.w3.org/Graphics/SVG/1.1/DTD/svg11.dtd">
<svg xmlns:xlink="http://www.w3.org/1999/xlink" width="460.8pt" height="345.6pt" viewBox="0 0 460.8 345.6" xmlns="http://www.w3.org/2000/svg" version="1.1">
 <metadata>
  <rdf:RDF xmlns:dc="http://purl.org/dc/elements/1.1/" xmlns:cc="http://creativecommons.org/ns#" xmlns:rdf="http://www.w3.org/1999/02/22-rdf-syntax-ns#">
   <cc:Work>
    <dc:type rdf:resource="http://purl.org/dc/dcmitype/StillImage"/>
    <dc:date>2023-07-24T09:59:07.184591</dc:date>
    <dc:format>image/svg+xml</dc:format>
    <dc:creator>
     <cc:Agent>
      <dc:title>Matplotlib v3.7.1, https://matplotlib.org/</dc:title>
     </cc:Agent>
    </dc:creator>
   </cc:Work>
  </rdf:RDF>
 </metadata>
 <defs>
  <style type="text/css">*{stroke-linejoin: round; stroke-linecap: butt}</style>
 </defs>
 <g id="figure_1">
  <g id="patch_1">
   <path d="M 0 345.6 
L 460.8 345.6 
L 460.8 0 
L 0 0 
z
" style="fill: #ffffff"/>
  </g>
  <g id="axes_1">
   <g id="patch_2">
    <path d="M 57.6 307.584 
L 414.72 307.584 
L 414.72 41.472 
L 57.6 41.472 
z
" style="fill: #ffffff"/>
   </g>
   <g id="matplotlib.axis_1">
    <g id="xtick_1">
     <g id="line2d_1">
      <path d="M 65.905404 307.584 
L 65.905404 41.472 
" clip-path="url(#p250fc6a688)" style="fill: none; stroke: #b0b0b0; stroke-width: 0.8; stroke-linecap: square"/>
     </g>
     <g id="line2d_2">
      <defs>
       <path id="me63dd75fdb" d="M 0 0 
L 0 3.5 
" style="stroke: #000000; stroke-width: 0.8"/>
      </defs>
      <g>
       <use xlink:href="#me63dd75fdb" x="65.905404" y="307.584" style="stroke: #000000; stroke-width: 0.8"/>
      </g>
     </g>
     <g id="text_1">
      <!-- 30 -->
      <g transform="translate(59.542904 322.182437) scale(0.1 -0.1)">
       <defs>
        <path id="DejaVuSans-33" d="M 2597 2516 
Q 3050 2419 3304 2112 
Q 3559 1806 3559 1356 
Q 3559 666 3084 287 
Q 2609 -91 1734 -91 
Q 1441 -91 1130 -33 
Q 819 25 488 141 
L 488 750 
Q 750 597 1062 519 
Q 1375 441 1716 441 
Q 2309 441 2620 675 
Q 2931 909 2931 1356 
Q 2931 1769 2642 2001 
Q 2353 2234 1838 2234 
L 1294 2234 
L 1294 2753 
L 1863 2753 
Q 2328 2753 2575 2939 
Q 2822 3125 2822 3475 
Q 2822 3834 2567 4026 
Q 2313 4219 1838 4219 
Q 1578 4219 1281 4162 
Q 984 4106 628 3988 
L 628 4550 
Q 988 4650 1302 4700 
Q 1616 4750 1894 4750 
Q 2613 4750 3031 4423 
Q 3450 4097 3450 3541 
Q 3450 3153 3228 2886 
Q 3006 2619 2597 2516 
z
" transform="scale(0.015625)"/>
        <path id="DejaVuSans-30" d="M 2034 4250 
Q 1547 4250 1301 3770 
Q 1056 3291 1056 2328 
Q 1056 1369 1301 889 
Q 1547 409 2034 409 
Q 2525 409 2770 889 
Q 3016 1369 3016 2328 
Q 3016 3291 2770 3770 
Q 2525 4250 2034 4250 
z
M 2034 4750 
Q 2819 4750 3233 4129 
Q 3647 3509 3647 2328 
Q 3647 1150 3233 529 
Q 2819 -91 2034 -91 
Q 1250 -91 836 529 
Q 422 1150 422 2328 
Q 422 3509 836 4129 
Q 1250 4750 2034 4750 
z
" transform="scale(0.015625)"/>
       </defs>
       <use xlink:href="#DejaVuSans-33"/>
       <use xlink:href="#DejaVuSans-30" x="63.623047"/>
      </g>
     </g>
    </g>
    <g id="xtick_2">
     <g id="line2d_3">
      <path d="M 140.503011 307.584 
L 140.503011 41.472 
" clip-path="url(#p250fc6a688)" style="fill: none; stroke: #b0b0b0; stroke-width: 0.8; stroke-linecap: square"/>
     </g>
     <g id="line2d_4">
      <g>
       <use xlink:href="#me63dd75fdb" x="140.503011" y="307.584" style="stroke: #000000; stroke-width: 0.8"/>
      </g>
     </g>
     <g id="text_2">
      <!-- 35 -->
      <g transform="translate(134.140511 322.182437) scale(0.1 -0.1)">
       <defs>
        <path id="DejaVuSans-35" d="M 691 4666 
L 3169 4666 
L 3169 4134 
L 1269 4134 
L 1269 2991 
Q 1406 3038 1543 3061 
Q 1681 3084 1819 3084 
Q 2600 3084 3056 2656 
Q 3513 2228 3513 1497 
Q 3513 744 3044 326 
Q 2575 -91 1722 -91 
Q 1428 -91 1123 -41 
Q 819 9 494 109 
L 494 744 
Q 775 591 1075 516 
Q 1375 441 1709 441 
Q 2250 441 2565 725 
Q 2881 1009 2881 1497 
Q 2881 1984 2565 2268 
Q 2250 2553 1709 2553 
Q 1456 2553 1204 2497 
Q 953 2441 691 2322 
L 691 4666 
z
" transform="scale(0.015625)"/>
       </defs>
       <use xlink:href="#DejaVuSans-33"/>
       <use xlink:href="#DejaVuSans-35" x="63.623047"/>
      </g>
     </g>
    </g>
    <g id="xtick_3">
     <g id="line2d_5">
      <path d="M 215.100618 307.584 
L 215.100618 41.472 
" clip-path="url(#p250fc6a688)" style="fill: none; stroke: #b0b0b0; stroke-width: 0.8; stroke-linecap: square"/>
     </g>
     <g id="line2d_6">
      <g>
       <use xlink:href="#me63dd75fdb" x="215.100618" y="307.584" style="stroke: #000000; stroke-width: 0.8"/>
      </g>
     </g>
     <g id="text_3">
      <!-- 40 -->
      <g transform="translate(208.738118 322.182437) scale(0.1 -0.1)">
       <defs>
        <path id="DejaVuSans-34" d="M 2419 4116 
L 825 1625 
L 2419 1625 
L 2419 4116 
z
M 2253 4666 
L 3047 4666 
L 3047 1625 
L 3713 1625 
L 3713 1100 
L 3047 1100 
L 3047 0 
L 2419 0 
L 2419 1100 
L 313 1100 
L 313 1709 
L 2253 4666 
z
" transform="scale(0.015625)"/>
       </defs>
       <use xlink:href="#DejaVuSans-34"/>
       <use xlink:href="#DejaVuSans-30" x="63.623047"/>
      </g>
     </g>
    </g>
    <g id="xtick_4">
     <g id="line2d_7">
      <path d="M 289.698225 307.584 
L 289.698225 41.472 
" clip-path="url(#p250fc6a688)" style="fill: none; stroke: #b0b0b0; stroke-width: 0.8; stroke-linecap: square"/>
     </g>
     <g id="line2d_8">
      <g>
       <use xlink:href="#me63dd75fdb" x="289.698225" y="307.584" style="stroke: #000000; stroke-width: 0.8"/>
      </g>
     </g>
     <g id="text_4">
      <!-- 45 -->
      <g transform="translate(283.335725 322.182437) scale(0.1 -0.1)">
       <use xlink:href="#DejaVuSans-34"/>
       <use xlink:href="#DejaVuSans-35" x="63.623047"/>
      </g>
     </g>
    </g>
    <g id="xtick_5">
     <g id="line2d_9">
      <path d="M 364.295832 307.584 
L 364.295832 41.472 
" clip-path="url(#p250fc6a688)" style="fill: none; stroke: #b0b0b0; stroke-width: 0.8; stroke-linecap: square"/>
     </g>
     <g id="line2d_10">
      <g>
       <use xlink:href="#me63dd75fdb" x="364.295832" y="307.584" style="stroke: #000000; stroke-width: 0.8"/>
      </g>
     </g>
     <g id="text_5">
      <!-- 50 -->
      <g transform="translate(357.933332 322.182437) scale(0.1 -0.1)">
       <use xlink:href="#DejaVuSans-35"/>
       <use xlink:href="#DejaVuSans-30" x="63.623047"/>
      </g>
     </g>
    </g>
    <g id="text_6">
     <!-- time [sec] -->
     <g transform="translate(210.942813 335.860562) scale(0.1 -0.1)">
      <defs>
       <path id="DejaVuSans-74" d="M 1172 4494 
L 1172 3500 
L 2356 3500 
L 2356 3053 
L 1172 3053 
L 1172 1153 
Q 1172 725 1289 603 
Q 1406 481 1766 481 
L 2356 481 
L 2356 0 
L 1766 0 
Q 1100 0 847 248 
Q 594 497 594 1153 
L 594 3053 
L 172 3053 
L 172 3500 
L 594 3500 
L 594 4494 
L 1172 4494 
z
" transform="scale(0.015625)"/>
       <path id="DejaVuSans-69" d="M 603 3500 
L 1178 3500 
L 1178 0 
L 603 0 
L 603 3500 
z
M 603 4863 
L 1178 4863 
L 1178 4134 
L 603 4134 
L 603 4863 
z
" transform="scale(0.015625)"/>
       <path id="DejaVuSans-6d" d="M 3328 2828 
Q 3544 3216 3844 3400 
Q 4144 3584 4550 3584 
Q 5097 3584 5394 3201 
Q 5691 2819 5691 2113 
L 5691 0 
L 5113 0 
L 5113 2094 
Q 5113 2597 4934 2840 
Q 4756 3084 4391 3084 
Q 3944 3084 3684 2787 
Q 3425 2491 3425 1978 
L 3425 0 
L 2847 0 
L 2847 2094 
Q 2847 2600 2669 2842 
Q 2491 3084 2119 3084 
Q 1678 3084 1418 2786 
Q 1159 2488 1159 1978 
L 1159 0 
L 581 0 
L 581 3500 
L 1159 3500 
L 1159 2956 
Q 1356 3278 1631 3431 
Q 1906 3584 2284 3584 
Q 2666 3584 2933 3390 
Q 3200 3197 3328 2828 
z
" transform="scale(0.015625)"/>
       <path id="DejaVuSans-65" d="M 3597 1894 
L 3597 1613 
L 953 1613 
Q 991 1019 1311 708 
Q 1631 397 2203 397 
Q 2534 397 2845 478 
Q 3156 559 3463 722 
L 3463 178 
Q 3153 47 2828 -22 
Q 2503 -91 2169 -91 
Q 1331 -91 842 396 
Q 353 884 353 1716 
Q 353 2575 817 3079 
Q 1281 3584 2069 3584 
Q 2775 3584 3186 3129 
Q 3597 2675 3597 1894 
z
M 3022 2063 
Q 3016 2534 2758 2815 
Q 2500 3097 2075 3097 
Q 1594 3097 1305 2825 
Q 1016 2553 972 2059 
L 3022 2063 
z
" transform="scale(0.015625)"/>
       <path id="DejaVuSans-20" transform="scale(0.015625)"/>
       <path id="DejaVuSans-5b" d="M 550 4863 
L 1875 4863 
L 1875 4416 
L 1125 4416 
L 1125 -397 
L 1875 -397 
L 1875 -844 
L 550 -844 
L 550 4863 
z
" transform="scale(0.015625)"/>
       <path id="DejaVuSans-73" d="M 2834 3397 
L 2834 2853 
Q 2591 2978 2328 3040 
Q 2066 3103 1784 3103 
Q 1356 3103 1142 2972 
Q 928 2841 928 2578 
Q 928 2378 1081 2264 
Q 1234 2150 1697 2047 
L 1894 2003 
Q 2506 1872 2764 1633 
Q 3022 1394 3022 966 
Q 3022 478 2636 193 
Q 2250 -91 1575 -91 
Q 1294 -91 989 -36 
Q 684 19 347 128 
L 347 722 
Q 666 556 975 473 
Q 1284 391 1588 391 
Q 1994 391 2212 530 
Q 2431 669 2431 922 
Q 2431 1156 2273 1281 
Q 2116 1406 1581 1522 
L 1381 1569 
Q 847 1681 609 1914 
Q 372 2147 372 2553 
Q 372 3047 722 3315 
Q 1072 3584 1716 3584 
Q 2034 3584 2315 3537 
Q 2597 3491 2834 3397 
z
" transform="scale(0.015625)"/>
       <path id="DejaVuSans-63" d="M 3122 3366 
L 3122 2828 
Q 2878 2963 2633 3030 
Q 2388 3097 2138 3097 
Q 1578 3097 1268 2742 
Q 959 2388 959 1747 
Q 959 1106 1268 751 
Q 1578 397 2138 397 
Q 2388 397 2633 464 
Q 2878 531 3122 666 
L 3122 134 
Q 2881 22 2623 -34 
Q 2366 -91 2075 -91 
Q 1284 -91 818 406 
Q 353 903 353 1747 
Q 353 2603 823 3093 
Q 1294 3584 2113 3584 
Q 2378 3584 2631 3529 
Q 2884 3475 3122 3366 
z
" transform="scale(0.015625)"/>
       <path id="DejaVuSans-5d" d="M 1947 4863 
L 1947 -844 
L 622 -844 
L 622 -397 
L 1369 -397 
L 1369 4416 
L 622 4416 
L 622 4863 
L 1947 4863 
z
" transform="scale(0.015625)"/>
      </defs>
      <use xlink:href="#DejaVuSans-74"/>
      <use xlink:href="#DejaVuSans-69" x="39.208984"/>
      <use xlink:href="#DejaVuSans-6d" x="66.992188"/>
      <use xlink:href="#DejaVuSans-65" x="164.404297"/>
      <use xlink:href="#DejaVuSans-20" x="225.927734"/>
      <use xlink:href="#DejaVuSans-5b" x="257.714844"/>
      <use xlink:href="#DejaVuSans-73" x="296.728516"/>
      <use xlink:href="#DejaVuSans-65" x="348.828125"/>
      <use xlink:href="#DejaVuSans-63" x="410.351562"/>
      <use xlink:href="#DejaVuSans-5d" x="465.332031"/>
     </g>
    </g>
   </g>
   <g id="matplotlib.axis_2">
    <g id="ytick_1">
     <g id="line2d_11">
      <path d="M 57.6 304.5216 
L 414.72 304.5216 
" clip-path="url(#p250fc6a688)" style="fill: none; stroke: #b0b0b0; stroke-width: 0.8; stroke-linecap: square"/>
     </g>
     <g id="line2d_12">
      <defs>
       <path id="me7172d4bc4" d="M 0 0 
L -3.5 0 
" style="stroke: #000000; stroke-width: 0.8"/>
      </defs>
      <g>
       <use xlink:href="#me7172d4bc4" x="57.6" y="304.5216" style="stroke: #000000; stroke-width: 0.8"/>
      </g>
     </g>
     <g id="text_7">
      <!-- 0 -->
      <g transform="translate(44.2375 308.320819) scale(0.1 -0.1)">
       <use xlink:href="#DejaVuSans-30"/>
      </g>
     </g>
    </g>
    <g id="ytick_2">
     <g id="line2d_13">
      <path d="M 57.6 258.166603 
L 414.72 258.166603 
" clip-path="url(#p250fc6a688)" style="fill: none; stroke: #b0b0b0; stroke-width: 0.8; stroke-linecap: square"/>
     </g>
     <g id="line2d_14">
      <g>
       <use xlink:href="#me7172d4bc4" x="57.6" y="258.166603" style="stroke: #000000; stroke-width: 0.8"/>
      </g>
     </g>
     <g id="text_8">
      <!-- 20 -->
      <g transform="translate(37.875 261.965822) scale(0.1 -0.1)">
       <defs>
        <path id="DejaVuSans-32" d="M 1228 531 
L 3431 531 
L 3431 0 
L 469 0 
L 469 531 
Q 828 903 1448 1529 
Q 2069 2156 2228 2338 
Q 2531 2678 2651 2914 
Q 2772 3150 2772 3378 
Q 2772 3750 2511 3984 
Q 2250 4219 1831 4219 
Q 1534 4219 1204 4116 
Q 875 4013 500 3803 
L 500 4441 
Q 881 4594 1212 4672 
Q 1544 4750 1819 4750 
Q 2544 4750 2975 4387 
Q 3406 4025 3406 3419 
Q 3406 3131 3298 2873 
Q 3191 2616 2906 2266 
Q 2828 2175 2409 1742 
Q 1991 1309 1228 531 
z
" transform="scale(0.015625)"/>
       </defs>
       <use xlink:href="#DejaVuSans-32"/>
       <use xlink:href="#DejaVuSans-30" x="63.623047"/>
      </g>
     </g>
    </g>
    <g id="ytick_3">
     <g id="line2d_15">
      <path d="M 57.6 211.811606 
L 414.72 211.811606 
" clip-path="url(#p250fc6a688)" style="fill: none; stroke: #b0b0b0; stroke-width: 0.8; stroke-linecap: square"/>
     </g>
     <g id="line2d_16">
      <g>
       <use xlink:href="#me7172d4bc4" x="57.6" y="211.811606" style="stroke: #000000; stroke-width: 0.8"/>
      </g>
     </g>
     <g id="text_9">
      <!-- 40 -->
      <g transform="translate(37.875 215.610825) scale(0.1 -0.1)">
       <use xlink:href="#DejaVuSans-34"/>
       <use xlink:href="#DejaVuSans-30" x="63.623047"/>
      </g>
     </g>
    </g>
    <g id="ytick_4">
     <g id="line2d_17">
      <path d="M 57.6 165.456609 
L 414.72 165.456609 
" clip-path="url(#p250fc6a688)" style="fill: none; stroke: #b0b0b0; stroke-width: 0.8; stroke-linecap: square"/>
     </g>
     <g id="line2d_18">
      <g>
       <use xlink:href="#me7172d4bc4" x="57.6" y="165.456609" style="stroke: #000000; stroke-width: 0.8"/>
      </g>
     </g>
     <g id="text_10">
      <!-- 60 -->
      <g transform="translate(37.875 169.255828) scale(0.1 -0.1)">
       <defs>
        <path id="DejaVuSans-36" d="M 2113 2584 
Q 1688 2584 1439 2293 
Q 1191 2003 1191 1497 
Q 1191 994 1439 701 
Q 1688 409 2113 409 
Q 2538 409 2786 701 
Q 3034 994 3034 1497 
Q 3034 2003 2786 2293 
Q 2538 2584 2113 2584 
z
M 3366 4563 
L 3366 3988 
Q 3128 4100 2886 4159 
Q 2644 4219 2406 4219 
Q 1781 4219 1451 3797 
Q 1122 3375 1075 2522 
Q 1259 2794 1537 2939 
Q 1816 3084 2150 3084 
Q 2853 3084 3261 2657 
Q 3669 2231 3669 1497 
Q 3669 778 3244 343 
Q 2819 -91 2113 -91 
Q 1303 -91 875 529 
Q 447 1150 447 2328 
Q 447 3434 972 4092 
Q 1497 4750 2381 4750 
Q 2619 4750 2861 4703 
Q 3103 4656 3366 4563 
z
" transform="scale(0.015625)"/>
       </defs>
       <use xlink:href="#DejaVuSans-36"/>
       <use xlink:href="#DejaVuSans-30" x="63.623047"/>
      </g>
     </g>
    </g>
    <g id="ytick_5">
     <g id="line2d_19">
      <path d="M 57.6 119.101612 
L 414.72 119.101612 
" clip-path="url(#p250fc6a688)" style="fill: none; stroke: #b0b0b0; stroke-width: 0.8; stroke-linecap: square"/>
     </g>
     <g id="line2d_20">
      <g>
       <use xlink:href="#me7172d4bc4" x="57.6" y="119.101612" style="stroke: #000000; stroke-width: 0.8"/>
      </g>
     </g>
     <g id="text_11">
      <!-- 80 -->
      <g transform="translate(37.875 122.900831) scale(0.1 -0.1)">
       <defs>
        <path id="DejaVuSans-38" d="M 2034 2216 
Q 1584 2216 1326 1975 
Q 1069 1734 1069 1313 
Q 1069 891 1326 650 
Q 1584 409 2034 409 
Q 2484 409 2743 651 
Q 3003 894 3003 1313 
Q 3003 1734 2745 1975 
Q 2488 2216 2034 2216 
z
M 1403 2484 
Q 997 2584 770 2862 
Q 544 3141 544 3541 
Q 544 4100 942 4425 
Q 1341 4750 2034 4750 
Q 2731 4750 3128 4425 
Q 3525 4100 3525 3541 
Q 3525 3141 3298 2862 
Q 3072 2584 2669 2484 
Q 3125 2378 3379 2068 
Q 3634 1759 3634 1313 
Q 3634 634 3220 271 
Q 2806 -91 2034 -91 
Q 1263 -91 848 271 
Q 434 634 434 1313 
Q 434 1759 690 2068 
Q 947 2378 1403 2484 
z
M 1172 3481 
Q 1172 3119 1398 2916 
Q 1625 2713 2034 2713 
Q 2441 2713 2670 2916 
Q 2900 3119 2900 3481 
Q 2900 3844 2670 4047 
Q 2441 4250 2034 4250 
Q 1625 4250 1398 4047 
Q 1172 3844 1172 3481 
z
" transform="scale(0.015625)"/>
       </defs>
       <use xlink:href="#DejaVuSans-38"/>
       <use xlink:href="#DejaVuSans-30" x="63.623047"/>
      </g>
     </g>
    </g>
    <g id="ytick_6">
     <g id="line2d_21">
      <path d="M 57.6 72.746615 
L 414.72 72.746615 
" clip-path="url(#p250fc6a688)" style="fill: none; stroke: #b0b0b0; stroke-width: 0.8; stroke-linecap: square"/>
     </g>
     <g id="line2d_22">
      <g>
       <use xlink:href="#me7172d4bc4" x="57.6" y="72.746615" style="stroke: #000000; stroke-width: 0.8"/>
      </g>
     </g>
     <g id="text_12">
      <!-- 100 -->
      <g transform="translate(31.5125 76.545834) scale(0.1 -0.1)">
       <defs>
        <path id="DejaVuSans-31" d="M 794 531 
L 1825 531 
L 1825 4091 
L 703 3866 
L 703 4441 
L 1819 4666 
L 2450 4666 
L 2450 531 
L 3481 531 
L 3481 0 
L 794 0 
L 794 531 
z
" transform="scale(0.015625)"/>
       </defs>
       <use xlink:href="#DejaVuSans-31"/>
       <use xlink:href="#DejaVuSans-30" x="63.623047"/>
       <use xlink:href="#DejaVuSans-30" x="127.246094"/>
      </g>
     </g>
    </g>
    <g id="text_13">
     <!-- angle [°] -->
     <g transform="translate(25.432812 196.391281) rotate(-90) scale(0.1 -0.1)">
      <defs>
       <path id="DejaVuSans-61" d="M 2194 1759 
Q 1497 1759 1228 1600 
Q 959 1441 959 1056 
Q 959 750 1161 570 
Q 1363 391 1709 391 
Q 2188 391 2477 730 
Q 2766 1069 2766 1631 
L 2766 1759 
L 2194 1759 
z
M 3341 1997 
L 3341 0 
L 2766 0 
L 2766 531 
Q 2569 213 2275 61 
Q 1981 -91 1556 -91 
Q 1019 -91 701 211 
Q 384 513 384 1019 
Q 384 1609 779 1909 
Q 1175 2209 1959 2209 
L 2766 2209 
L 2766 2266 
Q 2766 2663 2505 2880 
Q 2244 3097 1772 3097 
Q 1472 3097 1187 3025 
Q 903 2953 641 2809 
L 641 3341 
Q 956 3463 1253 3523 
Q 1550 3584 1831 3584 
Q 2591 3584 2966 3190 
Q 3341 2797 3341 1997 
z
" transform="scale(0.015625)"/>
       <path id="DejaVuSans-6e" d="M 3513 2113 
L 3513 0 
L 2938 0 
L 2938 2094 
Q 2938 2591 2744 2837 
Q 2550 3084 2163 3084 
Q 1697 3084 1428 2787 
Q 1159 2491 1159 1978 
L 1159 0 
L 581 0 
L 581 3500 
L 1159 3500 
L 1159 2956 
Q 1366 3272 1645 3428 
Q 1925 3584 2291 3584 
Q 2894 3584 3203 3211 
Q 3513 2838 3513 2113 
z
" transform="scale(0.015625)"/>
       <path id="DejaVuSans-67" d="M 2906 1791 
Q 2906 2416 2648 2759 
Q 2391 3103 1925 3103 
Q 1463 3103 1205 2759 
Q 947 2416 947 1791 
Q 947 1169 1205 825 
Q 1463 481 1925 481 
Q 2391 481 2648 825 
Q 2906 1169 2906 1791 
z
M 3481 434 
Q 3481 -459 3084 -895 
Q 2688 -1331 1869 -1331 
Q 1566 -1331 1297 -1286 
Q 1028 -1241 775 -1147 
L 775 -588 
Q 1028 -725 1275 -790 
Q 1522 -856 1778 -856 
Q 2344 -856 2625 -561 
Q 2906 -266 2906 331 
L 2906 616 
Q 2728 306 2450 153 
Q 2172 0 1784 0 
Q 1141 0 747 490 
Q 353 981 353 1791 
Q 353 2603 747 3093 
Q 1141 3584 1784 3584 
Q 2172 3584 2450 3431 
Q 2728 3278 2906 2969 
L 2906 3500 
L 3481 3500 
L 3481 434 
z
" transform="scale(0.015625)"/>
       <path id="DejaVuSans-6c" d="M 603 4863 
L 1178 4863 
L 1178 0 
L 603 0 
L 603 4863 
z
" transform="scale(0.015625)"/>
       <path id="DejaVuSans-b0" d="M 1600 4347 
Q 1350 4347 1178 4173 
Q 1006 4000 1006 3750 
Q 1006 3503 1178 3333 
Q 1350 3163 1600 3163 
Q 1850 3163 2022 3333 
Q 2194 3503 2194 3750 
Q 2194 3997 2020 4172 
Q 1847 4347 1600 4347 
z
M 1600 4750 
Q 1800 4750 1984 4673 
Q 2169 4597 2303 4453 
Q 2447 4313 2519 4134 
Q 2591 3956 2591 3750 
Q 2591 3338 2302 3052 
Q 2013 2766 1594 2766 
Q 1172 2766 890 3047 
Q 609 3328 609 3750 
Q 609 4169 896 4459 
Q 1184 4750 1600 4750 
z
" transform="scale(0.015625)"/>
      </defs>
      <use xlink:href="#DejaVuSans-61"/>
      <use xlink:href="#DejaVuSans-6e" x="61.279297"/>
      <use xlink:href="#DejaVuSans-67" x="124.658203"/>
      <use xlink:href="#DejaVuSans-6c" x="188.134766"/>
      <use xlink:href="#DejaVuSans-65" x="215.917969"/>
      <use xlink:href="#DejaVuSans-20" x="277.441406"/>
      <use xlink:href="#DejaVuSans-5b" x="309.228516"/>
      <use xlink:href="#DejaVuSans-b0" x="348.242188"/>
      <use xlink:href="#DejaVuSans-5d" x="398.242188"/>
     </g>
    </g>
   </g>
   <g id="line2d_23">
    <path d="M 73.832727 295.053398 
L 74.317746 295.004371 
L 74.842316 295.488 
L 75.794003 295.26423 
L 76.33961 293.967582 
L 76.83364 294.981307 
L 77.286432 294.824848 
L 77.822819 294.923216 
L 78.830125 294.698634 
L 80.815466 294.559583 
L 81.292324 293.042966 
L 81.817058 294.175405 
L 82.299347 293.574281 
L 82.828632 294.270736 
L 83.307354 292.907044 
L 83.788599 294.251584 
L 84.799486 291.928735 
L 85.335708 291.926457 
L 85.813148 291.035811 
L 86.82954 291.352803 
L 87.305294 290.710842 
L 87.782614 290.539303 
L 88.796948 290.689859 
L 89.333469 291.544788 
L 89.813012 291.17381 
L 90.290287 291.594229 
L 90.825585 291.158719 
L 91.310186 291.242763 
L 91.84056 291.794432 
L 93.337227 291.460022 
L 93.809414 291.504045 
L 94.293553 291.260987 
L 94.826971 290.831467 
L 95.300889 291.375203 
L 95.839588 290.943797 
L 96.331157 291.232086 
L 96.793259 291.707439 
L 97.33157 291.475598 
L 98.822433 291.436819 
L 99.315643 291.872341 
L 99.837155 289.968158 
L 100.314863 292.312161 
L 100.795331 291.565568 
L 101.344862 292.461382 
L 101.806517 292.59159 
L 102.835814 292.45395 
L 103.298722 292.995988 
L 103.83866 293.335023 
L 104.313787 262.21672 
L 108.794552 262.280965 
L 110.817729 274.024633 
L 112.311904 282.832384 
L 113.339889 288.704218 
L 113.801588 291.640135 
L 114.35655 291.512011 
L 114.825948 291.81293 
L 115.86463 291.133536 
L 116.314468 291.205399 
L 116.861298 289.930629 
L 117.337873 289.101757 
L 118.404708 290.284986 
L 118.848803 289.810691 
L 119.359617 288.659158 
L 119.85229 291.045446 
L 120.317301 290.813834 
L 120.845616 291.570728 
L 121.451334 291.494274 
L 121.898845 291.181314 
L 122.340776 291.49436 
L 122.8192 291.987434 
L 123.353767 290.756783 
L 123.833683 290.451699 
L 124.322909 290.903112 
L 124.859415 290.570877 
L 125.338212 290.711059 
L 125.800703 291.904422 
L 126.336433 292.026433 
L 127.351781 292.048966 
L 127.829608 292.377009 
L 128.846344 292.014727 
L 129.32077 290.503928 
L 129.857485 291.690066 
L 130.338311 291.570915 
L 130.812916 293.024278 
L 131.351018 292.385749 
L 131.827115 291.62251 
L 132.305972 292.951138 
L 132.879329 292.111073 
L 133.388786 292.214652 
L 133.860631 292.850001 
L 134.33446 292.459009 
L 134.812899 292.946749 
L 135.35039 292.621342 
L 135.825383 292.005012 
L 136.303046 292.197223 
L 136.84091 293.462817 
L 137.31826 292.913705 
L 137.870476 292.854405 
L 138.811704 291.797506 
L 139.361205 290.757738 
L 139.823904 291.646419 
L 140.360574 291.483329 
L 140.838148 292.181492 
L 141.315603 292.240014 
L 141.853183 293.208233 
L 142.33289 292.333103 
L 142.807047 292.131901 
L 143.344807 292.442991 
L 143.823067 292.156399 
L 144.360647 292.796086 
L 144.837192 290.181378 
L 145.344992 289.635409 
L 145.896 289.413738 
L 146.361519 289.749248 
L 146.8961 288.143011 
L 147.359844 287.977617 
L 147.837418 288.572064 
L 148.35881 288.12332 
L 148.839816 288.984611 
L 149.313898 288.174933 
L 149.848972 290.607203 
L 150.342062 287.453598 
L 150.867006 287.5426 
L 151.386578 287.428097 
L 151.820647 286.888798 
L 152.360614 286.603959 
L 152.833413 287.149713 
L 153.310898 288.04298 
L 153.849478 289.408328 
L 154.871584 288.466568 
L 155.340445 290.22093 
L 155.81781 289.278836 
L 156.360105 288.990408 
L 157.851266 291.484357 
L 158.324275 291.489806 
L 158.861586 291.796865 
L 159.343696 291.584278 
L 159.819584 291.702644 
L 160.372979 291.364024 
L 160.837737 291.530568 
L 161.382538 291.993627 
L 161.862618 292.14526 
L 162.332166 291.116865 
L 162.861764 292.572026 
L 163.355391 290.18656 
L 163.844155 293.055181 
L 164.353164 293.675365 
L 164.860756 293.535525 
L 165.36602 292.436939 
L 165.858156 292.83593 
L 166.359541 292.267772 
L 166.859808 292.677837 
L 167.352211 291.975222 
L 167.873082 293.00194 
L 168.349611 292.85064 
L 168.858621 291.692799 
L 169.364691 291.992627 
L 169.843041 291.669798 
L 170.326433 292.240952 
L 170.85621 292.451972 
L 171.334381 291.599341 
L 172.348431 291.676373 
L 173.367583 291.391149 
L 173.841234 291.949115 
L 174.377352 291.371084 
L 174.86155 291.220648 
L 175.3315 291.235454 
L 175.869975 292.883039 
L 176.350816 294.846401 
L 177.362733 289.735439 
L 177.840307 289.179842 
L 178.390852 288.098791 
L 178.853865 288.562845 
L 179.333259 288.137247 
L 179.882715 290.178369 
L 180.345876 289.597636 
L 180.854587 289.924012 
L 181.363015 289.938638 
L 182.373618 290.848432 
L 182.866649 290.867859 
L 183.330348 290.709755 
L 183.866048 290.82254 
L 184.362092 290.784623 
L 185.35809 290.89668 
L 185.840542 291.422558 
L 186.851056 291.305257 
L 187.333016 291.260539 
L 187.864166 291.495836 
L 188.879678 291.294597 
L 189.356909 291.582557 
L 189.832917 291.496609 
L 190.374436 290.891412 
L 191.325465 291.940269 
L 191.865388 291.815949 
L 192.339695 291.455592 
L 192.876812 291.847566 
L 193.358191 291.107869 
L 194.369122 292.25681 
L 194.853216 292.170239 
L 195.387947 292.198864 
L 195.862492 292.51447 
L 196.345705 293.124165 
L 197.354056 292.042573 
L 197.833197 293.604925 
L 198.378416 293.953496 
L 198.917965 292.138475 
L 199.397628 292.91189 
L 199.896984 291.725199 
L 200.382973 293.678122 
L 200.897607 293.209612 
L 201.360649 292.590265 
L 201.911731 293.21908 
L 202.37458 292.990624 
L 203.388152 293.211889 
L 203.865577 292.934726 
L 204.344329 292.237164 
L 204.878583 291.765329 
L 205.357932 292.142778 
L 205.90785 291.997588 
L 206.371266 292.541515 
L 207.390955 291.381068 
L 208.36623 289.054244 
L 208.885324 290.895413 
L 209.371611 289.594364 
L 209.891751 289.074379 
L 210.376814 289.373343 
L 210.847779 288.855827 
L 211.864798 286.903589 
L 212.397902 288.498069 
L 212.875923 288.762136 
L 213.356645 288.656685 
L 213.890212 287.717293 
L 214.367518 287.830827 
L 214.848105 289.570261 
L 215.38212 289.975229 
L 215.859455 290.197086 
L 216.397856 289.499718 
L 216.874624 290.600719 
L 217.351243 291.012261 
L 217.889017 291.013997 
L 218.365845 290.025316 
L 218.844254 292.485208 
L 219.380283 291.967318 
L 219.858483 292.106283 
L 220.395392 291.381218 
L 220.872668 291.771618 
L 221.350316 291.903688 
L 221.886986 291.820534 
L 222.366828 292.143782 
L 223.379177 291.873974 
L 223.858661 291.854491 
L 224.39915 289.953424 
L 225.34836 292.909631 
L 225.893758 290.976389 
L 226.363559 292.793049 
L 226.899647 293.094344 
L 227.856958 292.773828 
L 228.871262 293.031938 
L 229.407365 291.345236 
L 229.884103 291.178133 
L 230.366675 292.978734 
L 230.898019 292.265049 
L 231.375578 291.243238 
L 232.390807 291.441759 
L 232.868619 291.285804 
L 233.406065 291.809121 
L 233.883281 291.183419 
L 234.897913 291.390404 
L 236.392401 290.931201 
L 236.866275 290.337739 
L 237.425369 291.280838 
L 237.881892 291.407145 
L 238.358735 291.081376 
L 238.909772 291.090476 
L 239.377842 290.38689 
L 239.929342 290.187481 
L 240.399099 289.309561 
L 240.865199 289.552838 
L 241.410388 289.544617 
L 241.89772 290.253066 
L 242.357211 289.841599 
L 242.898581 290.25914 
L 243.400116 290.045425 
L 243.908886 289.703597 
L 244.387818 291.079041 
L 244.882519 290.866653 
L 245.882843 291.523609 
L 246.362864 291.581497 
L 246.891388 291.517632 
L 247.907333 291.586866 
L 248.384713 291.873148 
L 248.868329 291.330725 
L 249.398718 291.289541 
L 249.876411 291.659443 
L 250.416065 291.841175 
L 250.899846 291.871219 
L 251.389803 291.439027 
L 251.905466 291.877184 
L 252.383055 291.572659 
L 252.862747 291.823787 
L 253.396822 291.854755 
L 253.875485 292.049927 
L 254.412901 292.678385 
L 254.889147 292.139233 
L 255.366288 292.963835 
L 255.903898 291.363767 
L 256.380457 291.834575 
L 256.92411 291.527494 
L 257.396596 292.325504 
L 257.881764 291.858777 
L 258.416181 292.526884 
L 258.889772 292.561653 
L 259.365734 291.875639 
L 259.909133 293.221919 
L 260.380888 293.514236 
L 260.917379 293.349537 
L 261.397191 293.660195 
L 261.871617 293.670704 
L 262.409272 292.690439 
L 262.892709 293.775171 
L 263.364569 293.724625 
L 263.901448 293.82925 
L 264.380111 292.060671 
L 265.393116 292.194879 
L 265.871794 292.845671 
L 266.40751 292.127506 
L 266.884904 292.668806 
L 267.421067 292.711498 
L 267.899596 291.770161 
L 269.869107 290.433433 
L 270.883485 290.200411 
L 271.899475 289.412253 
L 272.375333 288.375366 
L 272.912122 288.606995 
L 273.390905 289.027966 
L 273.932901 289.777931 
L 274.403806 289.901176 
L 274.881082 289.866531 
L 275.432 290.350749 
L 276.3793 290.809929 
L 276.931815 291.244264 
L 277.399139 291.165925 
L 277.939166 291.791338 
L 278.408504 291.337003 
L 278.885765 291.842857 
L 279.43343 291.741376 
L 279.939486 291.766223 
L 280.365334 291.343119 
L 281.400092 291.430366 
L 281.936866 291.242424 
L 282.441266 291.266869 
L 282.900861 291.510405 
L 283.445021 291.434839 
L 283.929324 291.814748 
L 284.933557 291.968476 
L 285.37871 292.328982 
L 286.398698 292.133753 
L 286.869753 291.422035 
L 287.408646 291.32513 
L 287.886473 292.15099 
L 288.437347 291.522855 
L 288.92899 292.135977 
L 289.380887 291.647798 
L 289.929448 292.218413 
L 291.407122 293.025982 
L 292.421694 292.142325 
L 292.899343 292.44874 
L 293.391806 290.771416 
L 293.916004 290.60883 
L 294.390937 290.874201 
L 294.926503 292.533138 
L 295.419593 291.429563 
L 295.89669 293.028561 
L 296.419708 292.590121 
L 297.374841 292.194177 
L 297.910527 292.502343 
L 298.394844 292.579619 
L 299.415414 292.402345 
L 299.89812 290.682649 
L 300.433224 291.270317 
L 300.894252 291.324622 
L 301.449631 289.995792 
L 301.923848 289.699956 
L 302.38704 289.871375 
L 302.942717 289.226156 
L 303.412369 288.320653 
L 303.878246 289.287981 
L 304.415602 288.546314 
L 304.895951 288.848881 
L 305.430279 288.625744 
L 305.90733 288.783564 
L 306.922112 289.933597 
L 307.399193 290.562898 
L 307.881675 290.274759 
L 308.413154 290.847317 
L 308.891429 287.978451 
L 309.437961 291.152424 
L 309.905941 291.101042 
L 310.383993 290.66085 
L 310.920558 291.607381 
L 311.412813 291.664527 
L 311.951706 291.280408 
L 312.417792 291.41522 
L 312.889249 291.713661 
L 313.426426 291.669764 
L 314.382186 291.812385 
L 314.919199 292.549291 
L 315.484589 292.159938 
L 315.949541 293.089356 
L 316.411181 291.118674 
L 317.426007 292.640351 
L 317.902596 292.265364 
L 318.390628 293.899141 
L 318.922957 295.121966 
L 319.394817 294.000986 
L 319.932412 294.943228 
L 320.414163 293.61489 
L 320.901285 293.982449 
L 321.904713 294.555261 
L 322.467775 294.455942 
L 323.398933 294.675254 
L 323.964591 294.52565 
L 324.889169 294.692172 
L 325.459662 294.372397 
L 325.900862 294.322404 
L 326.46755 294.524625 
L 326.930264 294.255237 
L 327.39253 294.286035 
L 328.423216 293.723617 
L 328.958558 293.552688 
L 329.465911 293.632518 
L 331.407448 292.656026 
L 331.94282 292.382038 
L 332.440133 293.109136 
L 332.956647 291.938722 
L 333.421345 291.740615 
L 333.92752 291.074148 
L 334.448823 290.689979 
L 334.927068 290.605437 
L 335.419233 291.062809 
L 335.934538 290.781271 
L 336.947126 290.64988 
L 337.432801 290.945515 
L 337.92616 291.473618 
L 338.924052 291.71416 
L 339.447922 291.557129 
L 339.923451 291.612184 
L 340.444859 291.25608 
L 341.902093 291.275859 
L 342.908132 291.38248 
L 343.446846 291.162033 
L 343.923032 291.840811 
L 344.400069 287.803396 
L 344.938111 291.417077 
L 345.414865 291.470309 
L 345.892498 291.048864 
L 346.439881 291.927084 
L 346.942325 291.543462 
L 347.448455 291.895074 
L 347.932519 291.721583 
L 348.40332 292.177541 
L 348.941452 291.378915 
L 349.958008 291.282368 
L 350.432419 292.056249 
L 350.912097 291.229005 
L 352.405973 292.272001 
L 353.415025 292.356654 
L 354.053984 292.172114 
L 354.463942 292.816072 
L 354.962941 292.084188 
L 355.466952 293.138134 
L 355.98463 292.104318 
L 356.463621 292.678303 
L 356.96799 292.1462 
L 357.441193 292.705106 
L 357.964972 292.774772 
L 358.429581 291.960585 
L 358.910795 292.731429 
L 359.445004 292.042196 
L 359.921429 292.505104 
L 360.465156 291.372297 
L 361.412665 291.171559 
L 361.951483 291.441219 
L 362.427983 289.384888 
L 362.905408 291.705287 
L 363.448911 291.320463 
L 363.919786 291.598938 
L 364.455546 289.567656 
L 364.935417 290.058603 
L 365.411216 289.508451 
L 365.958255 289.33145 
L 366.428086 288.764656 
L 366.968202 288.854158 
L 367.447343 289.149618 
L 369.417555 285.290732 
L 369.948048 285.456197 
L 370.423325 287.178925 
L 370.978689 288.053519 
L 371.439061 289.455099 
L 371.922349 290.233596 
L 372.476803 289.521845 
L 372.97871 289.696456 
L 373.406722 289.275151 
L 373.944004 289.165663 
L 374.423577 290.785784 
L 374.961067 290.461148 
L 375.436075 288.739546 
L 375.915872 290.370274 
L 376.450558 290.733345 
L 376.953375 290.79505 
L 377.466801 291.080511 
L 377.959458 290.850993 
L 378.436361 289.742961 
L 378.973374 291.632815 
L 379.434179 291.678442 
L 379.939965 291.35111 
L 380.450541 290.847602 
L 380.927548 290.198619 
L 381.463263 291.179766 
L 382.419247 291.829881 
L 382.95529 291.988954 
L 383.439652 291.78426 
L 383.971802 290.747827 
L 384.4476 291.777491 
L 384.926144 292.103009 
L 385.466469 290.980536 
L 385.939836 291.180652 
L 386.422393 291.028351 
L 386.954363 289.516714 
L 387.431132 290.640976 
L 387.969115 291.606901 
L 388.448747 291.064741 
L 389.460664 291.206894 
L 389.93779 292.257026 
L 390.414454 291.58867 
L 390.953272 289.283455 
L 391.430861 291.578949 
L 391.96695 292.120548 
L 392.923783 292.074943 
L 393.459096 292.052486 
L 393.939295 290.919407 
L 395.429189 289.03637 
L 395.973229 288.654631 
L 396.442597 287.778159 
L 396.923483 289.068637 
L 397.464316 287.566723 
L 397.935922 288.716533 
L 398.487273 287.340809 
L 398.487273 287.340809 
" clip-path="url(#p250fc6a688)" style="fill: none; stroke: #ff0000; stroke-width: 1.5; stroke-linecap: square"/>
   </g>
   <g id="line2d_24">
    <path d="M 73.832727 53.753943 
L 75.794003 53.667102 
L 76.33961 53.995856 
L 76.83364 53.568 
L 77.286432 53.687167 
L 77.822819 53.697058 
L 78.830125 53.854236 
L 79.801431 54.032383 
L 80.322152 54.268187 
L 80.815466 54.663683 
L 81.292324 55.694079 
L 81.817058 56.079928 
L 82.299347 56.706679 
L 82.828632 57.092253 
L 83.307354 58.345562 
L 85.813148 66.905705 
L 86.290737 69.260844 
L 87.305294 72.94429 
L 87.782614 74.728239 
L 88.321716 76.110084 
L 88.796948 76.479257 
L 89.333469 75.523386 
L 89.813012 76.26622 
L 90.290287 75.686817 
L 91.310186 77.063738 
L 91.84056 76.47609 
L 92.801556 76.783291 
L 93.337227 76.851986 
L 94.293553 76.578112 
L 94.826971 77.234816 
L 95.300889 76.437013 
L 95.839588 77.042728 
L 96.331157 76.048569 
L 96.793259 74.470142 
L 97.33157 74.622171 
L 97.839356 74.216377 
L 99.315643 69.234342 
L 99.837155 63.885636 
L 100.314863 61.727701 
L 100.795331 57.671739 
L 101.344862 57.316428 
L 103.298722 55.234965 
L 104.790108 55.477343 
L 114.35655 56.563616 
L 114.825948 56.728889 
L 115.293883 57.475923 
L 115.86463 59.124689 
L 116.314468 59.02106 
L 116.861298 59.803539 
L 117.337873 61.284787 
L 117.816222 64.776481 
L 118.404708 67.187257 
L 118.848803 71.043756 
L 119.359617 71.156889 
L 120.317301 76.003938 
L 120.845616 75.718874 
L 121.451334 76.327278 
L 121.898845 76.013799 
L 122.340776 77.568301 
L 122.8192 76.95973 
L 123.353767 77.145728 
L 123.833683 77.667644 
L 124.322909 76.948764 
L 124.859415 77.440218 
L 126.336433 76.77748 
L 126.832164 76.734244 
L 127.351781 76.320002 
L 127.829608 74.771714 
L 128.307481 75.256462 
L 128.846344 72.419761 
L 129.32077 73.548178 
L 129.857485 72.873467 
L 130.338311 70.244044 
L 131.351018 67.057176 
L 131.827115 65.187276 
L 132.305972 64.654775 
L 132.879329 64.698347 
L 133.388786 62.923494 
L 133.860631 62.998041 
L 134.33446 62.403588 
L 134.812899 62.477303 
L 135.35039 62.879897 
L 135.825383 61.453507 
L 136.303046 61.247528 
L 136.84091 61.864554 
L 137.31826 61.845991 
L 137.870476 62.028182 
L 138.333742 61.713387 
L 139.361205 60.526368 
L 139.823904 60.861959 
L 140.838148 61.80697 
L 141.315603 62.076322 
L 141.853183 62.748739 
L 142.33289 61.937529 
L 142.807047 62.152329 
L 143.344807 62.711909 
L 143.823067 62.731591 
L 144.360647 63.325122 
L 144.837192 62.582703 
L 145.344992 63.09334 
L 145.896 63.438056 
L 146.361519 64.67286 
L 146.8961 64.649916 
L 147.359844 64.769214 
L 148.35881 65.769316 
L 148.839816 66.708189 
L 149.313898 67.358491 
L 149.848972 71.012251 
L 150.342062 67.38652 
L 151.386578 68.391307 
L 151.820647 69.249452 
L 152.360614 69.179621 
L 152.833413 68.497373 
L 153.310898 69.179665 
L 153.849478 72.325775 
L 154.325709 70.78318 
L 155.340445 72.360635 
L 155.81781 71.093603 
L 156.360105 71.857944 
L 156.831935 70.572784 
L 157.369948 70.804568 
L 157.851266 72.507114 
L 158.324275 71.091512 
L 158.861586 70.731455 
L 159.343696 71.758711 
L 159.819584 70.309471 
L 160.372979 69.811938 
L 160.837737 68.992886 
L 161.382538 67.238937 
L 161.862618 66.744885 
L 162.332166 65.960158 
L 162.861764 64.723987 
L 163.355391 63.276004 
L 163.844155 64.220933 
L 164.353164 63.05995 
L 164.860756 62.732765 
L 165.36602 61.294227 
L 165.858156 61.33678 
L 166.859808 61.946516 
L 167.352211 61.152075 
L 167.873082 61.3925 
L 168.349611 61.34545 
L 168.858621 60.499897 
L 169.364691 61.274982 
L 169.843041 60.839849 
L 170.326433 60.992717 
L 170.85621 60.71026 
L 171.334381 60.921853 
L 171.873364 60.938117 
L 172.348431 61.171166 
L 173.367583 61.15295 
L 173.841234 61.914479 
L 174.377352 62.206668 
L 175.3315 63.046002 
L 175.869975 64.252926 
L 176.350816 63.501943 
L 176.824914 65.704627 
L 177.362733 64.813869 
L 177.840307 65.744581 
L 178.853865 66.299626 
L 179.333259 66.779118 
L 179.882715 67.549413 
L 180.345876 68.970322 
L 181.838828 75.315327 
L 182.373618 75.441901 
L 182.866649 75.804704 
L 183.330348 77.238678 
L 183.866048 77.415782 
L 184.362092 77.772382 
L 185.35809 77.951217 
L 185.840542 77.350678 
L 186.371961 77.455831 
L 187.864166 77.189772 
L 188.341919 76.309375 
L 189.356909 76.459272 
L 189.832917 75.299534 
L 190.374436 75.14425 
L 190.847832 74.031983 
L 191.325465 74.268209 
L 191.865388 73.466222 
L 192.339695 71.700158 
L 192.876812 71.122625 
L 193.358191 68.968389 
L 193.83205 65.841869 
L 194.369122 64.727542 
L 194.853216 63.114511 
L 195.387947 62.184712 
L 196.345705 62.890686 
L 196.917228 62.194425 
L 197.354056 61.012487 
L 197.833197 61.784563 
L 198.378416 62.323607 
L 198.917965 61.713149 
L 199.397628 61.617143 
L 199.896984 61.108179 
L 200.382973 61.510286 
L 201.360649 60.699828 
L 201.911731 61.279121 
L 202.37458 60.987159 
L 202.849841 61.295366 
L 203.388152 61.135853 
L 203.865577 60.540621 
L 204.344329 61.214533 
L 204.878583 60.381695 
L 205.357932 61.890091 
L 205.90785 62.9026 
L 206.371266 62.878722 
L 206.870264 63.385059 
L 207.390955 63.699898 
L 207.91005 63.417853 
L 208.36623 63.875125 
L 208.885324 65.628347 
L 209.371611 65.926873 
L 209.891751 67.037823 
L 210.376814 67.327907 
L 210.847779 68.534435 
L 211.383568 69.255461 
L 211.864798 68.643154 
L 212.397902 68.578506 
L 212.875923 70.232101 
L 213.356645 71.01713 
L 213.890212 69.976775 
L 214.367518 70.140097 
L 214.848105 71.916451 
L 215.38212 73.030765 
L 215.859455 73.372756 
L 216.397856 72.818904 
L 216.874624 74.513779 
L 217.351243 74.078152 
L 218.365845 73.711239 
L 218.844254 74.365469 
L 219.380283 74.378114 
L 219.858483 74.261643 
L 220.395392 74.431229 
L 220.872668 74.139582 
L 221.350316 73.288109 
L 221.886986 73.467924 
L 222.366828 72.732879 
L 222.904095 72.11808 
L 223.379177 70.8397 
L 223.858661 70.134782 
L 224.39915 66.591906 
L 225.34836 64.499256 
L 225.893758 62.179396 
L 226.899647 62.013046 
L 227.378265 61.246089 
L 227.856958 59.854492 
L 228.391927 59.555159 
L 228.871262 59.852698 
L 229.407365 59.183016 
L 229.884103 59.116628 
L 230.366675 58.741357 
L 230.898019 57.491485 
L 231.375578 58.649523 
L 232.390807 58.957588 
L 233.406065 58.585105 
L 233.883281 58.841548 
L 234.897913 59.029981 
L 235.852494 58.892737 
L 236.866275 59.806997 
L 237.425369 60.455641 
L 237.881892 61.841723 
L 238.909772 62.804007 
L 239.929342 64.396572 
L 240.399099 65.760832 
L 241.410388 66.8051 
L 241.89772 67.310757 
L 242.357211 69.719843 
L 242.898581 71.14176 
L 243.400116 73.609715 
L 244.387818 75.211422 
L 244.882519 76.265874 
L 245.399898 75.865983 
L 245.882843 75.930017 
L 246.891388 76.320989 
L 247.372871 77.213601 
L 247.907333 77.27922 
L 248.384713 75.953034 
L 248.868329 76.039143 
L 249.398718 75.978895 
L 249.876411 74.686231 
L 250.416065 76.487953 
L 250.899846 76.394411 
L 251.389803 76.638534 
L 251.905466 76.206538 
L 252.383055 76.740415 
L 252.862747 75.189664 
L 253.396822 74.689104 
L 254.412901 73.062525 
L 254.889147 71.293618 
L 255.366288 71.98736 
L 255.903898 66.878683 
L 256.380457 64.163755 
L 256.92411 63.089896 
L 257.396596 61.599975 
L 257.881764 61.373743 
L 258.416181 61.693132 
L 258.889772 61.484205 
L 259.365734 60.444468 
L 259.909133 60.195879 
L 260.380888 60.306271 
L 260.917379 60.304645 
L 261.397191 60.605033 
L 261.871617 60.638478 
L 262.409272 60.381159 
L 262.892709 60.886872 
L 263.364569 60.645032 
L 263.901448 60.842269 
L 264.380111 60.493453 
L 264.914722 60.635167 
L 265.393116 60.564947 
L 265.871794 60.973498 
L 266.40751 60.570302 
L 266.884904 60.964353 
L 267.421067 61.191452 
L 267.899596 60.716867 
L 268.376842 61.524129 
L 268.9166 61.534113 
L 269.39216 62.103235 
L 269.869107 62.011175 
L 270.40618 62.416678 
L 270.883485 63.565171 
L 271.899475 64.347628 
L 272.375333 65.408294 
L 272.912122 65.88324 
L 273.390905 66.981903 
L 273.932901 67.576142 
L 274.403806 70.658517 
L 274.881082 72.409817 
L 275.432 73.700024 
L 275.895699 72.760386 
L 276.3793 75.706844 
L 276.931815 74.663585 
L 277.399139 74.516115 
L 277.939166 75.71578 
L 278.408504 77.171143 
L 278.885765 76.493639 
L 279.43343 76.916123 
L 279.939486 76.948638 
L 280.365334 77.687711 
L 280.946911 77.378363 
L 281.400092 77.011271 
L 281.936866 77.563968 
L 282.441266 77.417506 
L 282.900861 76.651246 
L 283.445021 76.601724 
L 283.929324 75.33757 
L 284.457221 74.766342 
L 284.933557 74.431719 
L 285.37871 73.444932 
L 286.398698 70.373624 
L 287.408646 64.64808 
L 287.886473 64.342149 
L 289.380887 61.284629 
L 289.929448 60.808693 
L 290.411274 60.704062 
L 290.869109 60.867968 
L 291.407122 60.698096 
L 291.900645 59.423803 
L 292.421694 59.277341 
L 292.899343 59.79428 
L 293.391806 59.580039 
L 293.916004 59.532991 
L 294.390937 59.659718 
L 295.89669 59.384787 
L 296.419708 59.805518 
L 296.895402 59.70104 
L 297.374841 59.726035 
L 299.89812 60.771384 
L 300.433224 61.607592 
L 300.894252 61.604057 
L 301.449631 62.360586 
L 301.923848 62.635221 
L 302.38704 62.693177 
L 303.412369 64.268289 
L 303.878246 64.739814 
L 305.90733 70.157837 
L 306.922112 74.643359 
L 307.399193 74.813885 
L 307.881675 76.176593 
L 308.413154 75.857281 
L 308.891429 71.943075 
L 309.437961 76.433821 
L 309.905941 76.686446 
L 311.412813 76.582071 
L 311.951706 76.991976 
L 313.426426 76.478218 
L 313.904134 75.943107 
L 314.382186 75.645826 
L 314.919199 74.232597 
L 315.484589 75.187097 
L 315.949541 73.566857 
L 316.411181 74.600958 
L 317.426007 70.801654 
L 317.902596 70.484048 
L 318.390628 67.650209 
L 318.922957 67.198906 
L 319.394817 67.288626 
L 319.932412 65.077718 
L 320.414163 65.056685 
L 321.904713 62.834319 
L 322.467775 62.826722 
L 323.398933 62.55756 
L 324.889169 62.716122 
L 325.459662 62.553143 
L 325.900862 62.203918 
L 326.46755 61.987899 
L 327.39253 62.246815 
L 327.958174 62.153828 
L 328.423216 61.79454 
L 328.958558 61.985373 
L 329.465911 61.958055 
L 329.932743 62.18388 
L 330.450182 62.701519 
L 330.942541 62.788125 
L 331.407448 63.032741 
L 331.94282 63.188757 
L 332.440133 62.692168 
L 333.421345 66.504389 
L 334.927068 69.409396 
L 335.419233 69.106009 
L 335.934538 71.748757 
L 336.418005 73.489898 
L 336.947126 74.452546 
L 337.432801 75.792958 
L 337.92616 75.582307 
L 338.437646 76.110468 
L 338.924052 76.390521 
L 339.923451 76.573133 
L 340.444859 77.446997 
L 340.938546 77.612624 
L 342.908132 77.641477 
L 343.446846 78.038456 
L 343.923032 76.862335 
L 344.400069 72.963675 
L 344.938111 77.281822 
L 345.414865 77.082839 
L 345.892498 77.677904 
L 346.439881 75.696353 
L 346.942325 75.491172 
L 347.448455 74.078692 
L 347.932519 74.315801 
L 348.40332 72.218518 
L 348.941452 71.004452 
L 349.421099 69.353942 
L 349.958008 66.664143 
L 350.432419 65.985462 
L 350.912097 63.474724 
L 351.923819 63.029904 
L 352.405973 62.710272 
L 353.415025 62.492997 
L 354.053984 61.888964 
L 354.463942 62.115555 
L 354.962941 61.57951 
L 355.466952 62.30393 
L 355.98463 61.601552 
L 356.463621 62.133555 
L 356.96799 61.648845 
L 357.441193 62.080133 
L 357.964972 62.151721 
L 358.429581 61.573305 
L 358.910795 61.989995 
L 359.445004 61.667264 
L 359.921429 62.389742 
L 360.465156 61.268284 
L 360.935016 61.175982 
L 361.412665 61.211102 
L 361.951483 62.330023 
L 362.427983 62.033488 
L 362.905408 63.42355 
L 363.448911 63.207608 
L 363.919786 63.505276 
L 364.455546 62.890333 
L 364.935417 64.306063 
L 365.411216 64.960738 
L 365.958255 65.267396 
L 366.428086 64.818121 
L 367.447343 66.78085 
L 369.948048 68.767471 
L 370.423325 69.897046 
L 370.978689 69.636179 
L 371.922349 72.92419 
L 372.476803 71.98884 
L 372.97871 72.298471 
L 373.406722 72.316658 
L 373.944004 72.710819 
L 374.423577 73.492517 
L 374.961067 73.050594 
L 375.436075 72.4334 
L 375.915872 72.655789 
L 377.466801 72.443426 
L 377.959458 72.150274 
L 378.436361 73.216591 
L 378.973374 70.683672 
L 379.434179 69.816584 
L 379.939965 69.278542 
L 380.450541 68.108676 
L 380.927548 63.88315 
L 381.463263 63.50515 
L 381.947342 62.14264 
L 382.95529 61.891724 
L 383.439652 61.431285 
L 383.971802 60.272404 
L 384.4476 60.412817 
L 384.926144 60.686178 
L 385.466469 60.438295 
L 385.939836 60.473215 
L 386.422393 60.35135 
L 386.954363 59.73612 
L 387.431132 59.915368 
L 387.969115 59.996696 
L 388.448747 60.308235 
L 389.93779 60.809676 
L 390.414454 60.221425 
L 390.953272 59.799276 
L 391.430861 60.561602 
L 391.96695 61.09487 
L 392.923783 61.73204 
L 393.459096 62.493754 
L 393.939295 62.534548 
L 394.475757 62.400855 
L 394.952241 62.860425 
L 395.973229 64.602616 
L 396.923483 65.745608 
L 397.464316 65.901677 
L 397.935922 65.678357 
L 398.487273 66.604293 
L 398.487273 66.604293 
" clip-path="url(#p250fc6a688)" style="fill: none; stroke: #008000; stroke-width: 1.5; stroke-linecap: square"/>
   </g>
   <g id="line2d_25">
    <path d="M 73.832727 237.487904 
L 74.317746 237.470254 
L 74.842316 237.639886 
L 75.794003 237.782931 
L 76.33961 237.41673 
L 77.286432 237.778968 
L 78.830125 237.966567 
L 80.322152 238.423008 
L 80.815466 238.803501 
L 81.292324 240.331859 
L 81.817058 239.940332 
L 83.307354 240.958492 
L 83.788599 241.978669 
L 84.321031 242.461638 
L 84.799486 242.681234 
L 85.335708 243.105796 
L 86.82954 244.989472 
L 87.305294 246.281104 
L 88.321716 246.697691 
L 88.796948 246.758324 
L 89.333469 245.462759 
L 89.813012 246.734341 
L 90.290287 245.482229 
L 90.825585 246.499225 
L 91.310186 246.677864 
L 91.84056 245.492656 
L 93.337227 245.62806 
L 93.809414 245.621702 
L 94.293553 245.499341 
L 94.826971 246.588568 
L 95.300889 245.415623 
L 95.839588 246.509088 
L 96.331157 246.259842 
L 96.793259 244.900623 
L 97.33157 245.949869 
L 97.839356 245.784227 
L 98.288046 245.274279 
L 98.822433 244.992199 
L 99.315643 244.358119 
L 99.837155 242.090703 
L 100.314863 240.851004 
L 100.795331 241.758521 
L 101.344862 241.110523 
L 101.806517 240.943576 
L 102.35551 240.875239 
L 102.835814 240.697566 
L 104.313787 240.627534 
L 114.35655 241.172452 
L 114.825948 241.2992 
L 115.293883 241.720226 
L 115.86463 243.446832 
L 116.314468 242.783245 
L 116.861298 242.539092 
L 117.337873 244.186899 
L 117.816222 245.011957 
L 118.404708 244.08019 
L 118.848803 245.979324 
L 119.359617 244.08065 
L 120.317301 246.388894 
L 120.845616 245.425935 
L 121.451334 245.439542 
L 121.898845 245.144498 
L 122.340776 246.098463 
L 122.8192 245.156456 
L 123.353767 245.229395 
L 123.833683 246.377303 
L 124.322909 245.247032 
L 125.338212 245.259085 
L 125.800703 245.649909 
L 126.832164 245.604152 
L 127.351781 245.529414 
L 127.829608 244.949638 
L 128.307481 245.2625 
L 129.32077 245.573262 
L 130.338311 244.784195 
L 130.812916 242.515149 
L 131.351018 243.175856 
L 131.827115 242.634413 
L 132.305972 242.414198 
L 132.879329 243.425404 
L 133.388786 242.526651 
L 133.860631 242.228518 
L 134.33446 242.688141 
L 134.812899 242.171375 
L 135.35039 242.577262 
L 135.825383 241.119763 
L 136.84091 242.11124 
L 137.870476 242.18834 
L 138.333742 242.604215 
L 138.811704 241.804713 
L 139.361205 241.476844 
L 139.823904 241.787466 
L 140.360574 241.857068 
L 140.838148 242.57853 
L 141.315603 242.60905 
L 141.853183 242.326431 
L 142.33289 242.83175 
L 142.807047 242.940558 
L 143.344807 241.653132 
L 143.823067 242.354532 
L 144.360647 242.180969 
L 145.896 242.385954 
L 146.361519 242.280651 
L 146.8961 242.413004 
L 147.359844 242.384518 
L 148.839816 243.895526 
L 149.313898 244.078963 
L 149.848972 244.793803 
L 150.342062 244.195031 
L 151.386578 244.497068 
L 151.820647 245.69811 
L 152.360614 245.619838 
L 152.833413 244.758171 
L 153.310898 244.481009 
L 153.849478 246.193392 
L 154.325709 244.583126 
L 154.871584 245.631928 
L 155.81781 244.457076 
L 156.360105 245.529856 
L 156.831935 245.507677 
L 157.369948 245.645117 
L 157.851266 246.463981 
L 158.324275 244.939316 
L 158.861586 244.740843 
L 159.343696 245.859391 
L 159.819584 245.252955 
L 160.372979 245.196536 
L 160.837737 244.878878 
L 161.382538 243.668348 
L 161.862618 243.335345 
L 162.332166 243.726636 
L 162.861764 242.932867 
L 163.355391 241.979379 
L 163.844155 242.012009 
L 164.353164 241.88062 
L 164.860756 242.273046 
L 165.36602 242.95008 
L 165.858156 243.069711 
L 166.359541 242.770952 
L 166.859808 242.223768 
L 167.352211 242.581928 
L 167.873082 243.255754 
L 168.349611 243.07112 
L 168.858621 242.48013 
L 169.364691 242.752958 
L 169.843041 242.785396 
L 170.85621 243.039937 
L 171.334381 242.782352 
L 173.367583 242.793892 
L 174.86155 243.184059 
L 175.3315 243.395062 
L 175.869975 242.467123 
L 176.824914 242.882788 
L 177.362733 243.802021 
L 178.390852 243.906026 
L 178.853865 243.802554 
L 179.333259 244.156886 
L 179.882715 243.459379 
L 180.345876 244.247638 
L 180.854587 244.839052 
L 181.363015 246.414372 
L 181.838828 246.420632 
L 182.373618 245.364114 
L 182.866649 245.538766 
L 183.330348 246.677387 
L 185.35809 246.761165 
L 185.840542 245.557524 
L 187.333016 245.518363 
L 187.864166 245.420594 
L 188.341919 244.983524 
L 188.879678 244.982316 
L 189.356909 245.165249 
L 189.832917 244.510832 
L 190.374436 245.583732 
L 190.847832 245.413583 
L 191.325465 245.657135 
L 191.865388 245.522077 
L 192.876812 244.690188 
L 193.358191 243.713273 
L 193.83205 241.508193 
L 194.369122 242.147945 
L 194.853216 241.586411 
L 195.387947 242.074332 
L 195.862492 242.301075 
L 196.345705 241.980377 
L 196.917228 240.873319 
L 197.354056 242.02788 
L 197.833197 242.936152 
L 198.378416 243.141695 
L 199.397628 242.312828 
L 199.896984 240.993426 
L 200.382973 242.14118 
L 200.897607 242.921443 
L 201.360649 243.395066 
L 201.911731 243.439574 
L 202.37458 243.040793 
L 203.388152 243.118208 
L 203.865577 243.257477 
L 204.344329 243.792044 
L 204.878583 243.50687 
L 205.357932 243.709023 
L 205.90785 243.290728 
L 206.371266 243.206853 
L 206.870264 243.852394 
L 207.390955 243.819549 
L 207.91005 242.766272 
L 208.36623 242.587249 
L 208.885324 243.749921 
L 209.371611 243.81927 
L 209.891751 244.676622 
L 210.376814 244.760636 
L 211.383568 245.541881 
L 211.864798 245.398483 
L 212.397902 244.466081 
L 212.875923 245.92612 
L 213.356645 246.271366 
L 213.890212 244.984542 
L 214.848105 244.855135 
L 215.859455 244.858729 
L 216.397856 244.692358 
L 216.874624 245.288986 
L 217.351243 245.325799 
L 217.889017 245.233106 
L 218.365845 244.614085 
L 218.844254 245.409053 
L 219.380283 245.569165 
L 219.858483 245.456723 
L 220.395392 244.997587 
L 220.872668 245.159891 
L 221.350316 244.883574 
L 221.886986 246.182934 
L 222.904095 245.735066 
L 223.379177 245.143663 
L 223.858661 245.272823 
L 224.39915 242.183623 
L 225.34836 242.577399 
L 226.363559 241.814154 
L 226.899647 241.651537 
L 227.378265 241.655404 
L 228.391927 241.865758 
L 228.871262 241.866756 
L 229.407365 241.623379 
L 229.884103 241.646561 
L 230.366675 241.804574 
L 230.898019 241.76252 
L 231.375578 241.903789 
L 231.856285 241.737914 
L 232.390807 241.881601 
L 232.868619 241.87254 
L 233.406065 242.195946 
L 234.897913 241.916374 
L 236.392401 242.321647 
L 236.866275 242.736024 
L 237.881892 243.391658 
L 238.358735 243.305626 
L 239.929342 243.950299 
L 240.399099 245.152136 
L 240.865199 244.968931 
L 241.410388 245.283457 
L 241.89772 244.41045 
L 242.357211 245.876145 
L 242.898581 245.613565 
L 243.400116 246.535043 
L 243.908886 246.4509 
L 244.387818 246.589964 
L 244.882519 246.145647 
L 245.882843 245.025279 
L 246.362864 245.065171 
L 246.891388 244.988506 
L 247.372871 246.972189 
L 247.907333 247.048093 
L 248.384713 245.543381 
L 248.868329 246.523232 
L 249.398718 246.499233 
L 249.876411 245.009385 
L 250.416065 245.671739 
L 250.899846 245.624344 
L 251.905466 245.303723 
L 252.383055 246.326517 
L 253.875485 246.095709 
L 254.412901 245.943453 
L 254.889147 245.36318 
L 255.366288 245.911927 
L 255.903898 243.278089 
L 256.380457 241.741557 
L 256.92411 242.807899 
L 257.396596 242.947112 
L 257.881764 242.559817 
L 258.416181 242.293889 
L 258.889772 242.21651 
L 259.909133 242.639443 
L 260.380888 242.704644 
L 261.871617 242.596606 
L 262.409272 242.191792 
L 262.892709 242.72763 
L 263.901448 242.749691 
L 264.380111 242.784182 
L 264.914722 242.644948 
L 265.393116 242.68659 
L 265.871794 242.387749 
L 266.40751 242.649844 
L 266.884904 242.59839 
L 267.899596 242.824636 
L 268.376842 243.292258 
L 269.869107 243.50767 
L 270.40618 243.363049 
L 270.883485 243.590357 
L 271.420006 244.01388 
L 271.899475 244.090359 
L 272.375333 245.199673 
L 272.912122 245.138884 
L 273.390905 245.504431 
L 273.932901 244.558289 
L 274.403806 246.171636 
L 275.432 246.367204 
L 275.895699 245.818853 
L 276.3793 246.6995 
L 276.931815 245.363564 
L 277.399139 245.144096 
L 277.939166 245.709567 
L 278.408504 246.853921 
L 278.885765 245.737988 
L 279.43343 245.1266 
L 279.939486 245.136176 
L 280.365334 246.217915 
L 280.946911 246.911902 
L 281.400092 245.535709 
L 281.936866 246.221077 
L 282.441266 246.188676 
L 282.900861 245.474985 
L 283.445021 246.602879 
L 283.929324 246.271313 
L 285.37871 245.982885 
L 285.929509 245.544104 
L 286.398698 243.82547 
L 286.869753 243.426804 
L 287.408646 242.402343 
L 287.886473 242.219332 
L 288.437347 242.617932 
L 288.92899 242.082889 
L 289.380887 242.486122 
L 289.929448 242.583341 
L 290.869109 242.515451 
L 291.407122 242.105364 
L 291.900645 242.151772 
L 292.421694 243.333979 
L 292.899343 243.484097 
L 293.391806 243.177144 
L 293.916004 243.593539 
L 294.390937 243.284428 
L 294.926503 243.962226 
L 295.419593 243.598751 
L 295.89669 243.948596 
L 296.419708 243.784906 
L 297.374841 243.789763 
L 297.910527 243.949279 
L 298.954878 244.037738 
L 299.415414 244.185543 
L 299.89812 244.016593 
L 300.433224 244.376013 
L 300.894252 243.280152 
L 301.449631 244.816181 
L 301.923848 244.835069 
L 302.38704 243.650456 
L 302.942717 244.831553 
L 303.412369 245.286181 
L 303.878246 244.018996 
L 304.415602 245.329247 
L 304.895951 245.246301 
L 305.430279 245.836876 
L 306.922112 246.59895 
L 307.399193 245.521086 
L 307.881675 246.644992 
L 308.413154 245.438067 
L 308.891429 243.185958 
L 309.437961 245.525582 
L 309.905941 245.605557 
L 310.383993 245.325134 
L 310.920558 245.677828 
L 311.412813 245.692779 
L 312.417792 245.509145 
L 312.889249 245.591422 
L 313.426426 245.523995 
L 313.904134 245.340057 
L 314.382186 245.285865 
L 314.919199 244.740009 
L 315.484589 246.147443 
L 315.949541 245.505394 
L 316.411181 245.81577 
L 317.426007 244.026432 
L 317.902596 244.712836 
L 318.390628 244.360948 
L 318.922957 244.515595 
L 319.394817 242.749304 
L 320.414163 241.930098 
L 320.901285 241.50724 
L 321.904713 241.626861 
L 322.917137 241.166056 
L 323.964591 241.397157 
L 324.409089 241.642882 
L 324.889169 241.456374 
L 325.459662 241.393099 
L 326.46755 241.587524 
L 326.930264 241.780093 
L 327.39253 241.599953 
L 329.932743 242.475857 
L 330.450182 243.011364 
L 331.407448 243.094983 
L 332.440133 243.343334 
L 332.956647 245.114047 
L 333.421345 245.568926 
L 333.92752 245.266811 
L 334.448823 245.367338 
L 334.927068 245.611489 
L 335.419233 245.533261 
L 335.934538 246.32069 
L 336.418005 246.547083 
L 337.432801 246.648905 
L 337.92616 245.545191 
L 338.437646 245.095955 
L 338.924052 245.063896 
L 339.447922 245.5901 
L 339.923451 245.52035 
L 340.444859 246.56232 
L 343.446846 246.394731 
L 343.923032 245.313374 
L 344.400069 243.896214 
L 344.938111 245.279012 
L 345.414865 245.11903 
L 345.892498 246.174078 
L 346.439881 244.782468 
L 346.942325 245.919946 
L 347.448455 244.752409 
L 347.932519 245.753067 
L 348.40332 244.354965 
L 348.941452 244.880363 
L 349.421099 244.146507 
L 349.958008 242.509256 
L 350.432419 241.798352 
L 350.912097 242.030944 
L 352.405973 242.217104 
L 354.053984 242.274694 
L 354.463942 242.00186 
L 354.962941 242.426198 
L 355.466952 242.378372 
L 356.463621 242.805605 
L 357.441193 242.389799 
L 357.964972 242.858655 
L 358.429581 242.860616 
L 358.910795 243.108248 
L 359.921429 243.041653 
L 360.465156 242.496682 
L 360.935016 242.524672 
L 361.412665 242.73978 
L 361.951483 242.84155 
L 362.427983 241.570978 
L 362.905408 242.96034 
L 363.448911 242.944323 
L 363.919786 242.611943 
L 364.935417 243.201422 
L 365.411216 243.246409 
L 365.958255 243.082644 
L 366.968202 243.424247 
L 367.918949 243.855702 
L 369.417555 244.408467 
L 369.948048 244.382747 
L 370.423325 245.783698 
L 370.978689 244.65478 
L 371.439061 244.757213 
L 371.922349 245.794529 
L 372.476803 244.701474 
L 372.97871 244.789515 
L 373.406722 245.389209 
L 373.944004 245.413981 
L 374.423577 244.934668 
L 374.961067 244.966148 
L 375.436075 245.468712 
L 375.915872 244.7287 
L 376.953375 244.614862 
L 377.466801 244.842607 
L 377.959458 244.645772 
L 378.436361 245.548516 
L 378.973374 245.691267 
L 379.434179 244.08781 
L 379.939965 245.190551 
L 380.450541 244.121977 
L 380.927548 242.222945 
L 381.463263 242.341068 
L 381.947342 242.035095 
L 382.419247 241.49853 
L 383.439652 241.427053 
L 383.971802 240.420478 
L 384.4476 241.588544 
L 384.926144 241.738345 
L 385.466469 240.679054 
L 385.939836 240.800421 
L 386.422393 240.775014 
L 386.954363 241.334276 
L 387.431132 241.632611 
L 387.969115 241.038868 
L 388.448747 240.843198 
L 389.460664 240.935109 
L 389.93779 241.372024 
L 390.414454 241.177873 
L 390.953272 241.365707 
L 391.430861 241.295745 
L 391.96695 241.505048 
L 392.444523 242.673177 
L 393.459096 243.025905 
L 393.939295 243.14418 
L 394.475757 243.120391 
L 394.952241 243.966362 
L 395.429189 244.51283 
L 395.973229 244.757569 
L 396.442597 244.765914 
L 396.923483 243.755126 
L 397.464316 244.685976 
L 397.935922 243.651156 
L 398.487273 245.23159 
L 398.487273 245.23159 
" clip-path="url(#p250fc6a688)" style="fill: none; stroke: #0000ff; stroke-width: 1.5; stroke-linecap: square"/>
   </g>
   <g id="patch_3">
    <path d="M 57.6 307.584 
L 57.6 41.472 
" style="fill: none; stroke: #000000; stroke-width: 0.8; stroke-linejoin: miter; stroke-linecap: square"/>
   </g>
   <g id="patch_4">
    <path d="M 414.72 307.584 
L 414.72 41.472 
" style="fill: none; stroke: #000000; stroke-width: 0.8; stroke-linejoin: miter; stroke-linecap: square"/>
   </g>
   <g id="patch_5">
    <path d="M 57.6 307.584 
L 414.72 307.584 
" style="fill: none; stroke: #000000; stroke-width: 0.8; stroke-linejoin: miter; stroke-linecap: square"/>
   </g>
   <g id="patch_6">
    <path d="M 57.6 41.472 
L 414.72 41.472 
" style="fill: none; stroke: #000000; stroke-width: 0.8; stroke-linejoin: miter; stroke-linecap: square"/>
   </g>
   <g id="text_14">
    <!-- Angles in Index finger joints -->
    <g transform="translate(152.50875 35.472) scale(0.12 -0.12)">
     <defs>
      <path id="DejaVuSans-41" d="M 2188 4044 
L 1331 1722 
L 3047 1722 
L 2188 4044 
z
M 1831 4666 
L 2547 4666 
L 4325 0 
L 3669 0 
L 3244 1197 
L 1141 1197 
L 716 0 
L 50 0 
L 1831 4666 
z
" transform="scale(0.015625)"/>
      <path id="DejaVuSans-49" d="M 628 4666 
L 1259 4666 
L 1259 0 
L 628 0 
L 628 4666 
z
" transform="scale(0.015625)"/>
      <path id="DejaVuSans-64" d="M 2906 2969 
L 2906 4863 
L 3481 4863 
L 3481 0 
L 2906 0 
L 2906 525 
Q 2725 213 2448 61 
Q 2172 -91 1784 -91 
Q 1150 -91 751 415 
Q 353 922 353 1747 
Q 353 2572 751 3078 
Q 1150 3584 1784 3584 
Q 2172 3584 2448 3432 
Q 2725 3281 2906 2969 
z
M 947 1747 
Q 947 1113 1208 752 
Q 1469 391 1925 391 
Q 2381 391 2643 752 
Q 2906 1113 2906 1747 
Q 2906 2381 2643 2742 
Q 2381 3103 1925 3103 
Q 1469 3103 1208 2742 
Q 947 2381 947 1747 
z
" transform="scale(0.015625)"/>
      <path id="DejaVuSans-78" d="M 3513 3500 
L 2247 1797 
L 3578 0 
L 2900 0 
L 1881 1375 
L 863 0 
L 184 0 
L 1544 1831 
L 300 3500 
L 978 3500 
L 1906 2253 
L 2834 3500 
L 3513 3500 
z
" transform="scale(0.015625)"/>
      <path id="DejaVuSans-66" d="M 2375 4863 
L 2375 4384 
L 1825 4384 
Q 1516 4384 1395 4259 
Q 1275 4134 1275 3809 
L 1275 3500 
L 2222 3500 
L 2222 3053 
L 1275 3053 
L 1275 0 
L 697 0 
L 697 3053 
L 147 3053 
L 147 3500 
L 697 3500 
L 697 3744 
Q 697 4328 969 4595 
Q 1241 4863 1831 4863 
L 2375 4863 
z
" transform="scale(0.015625)"/>
      <path id="DejaVuSans-72" d="M 2631 2963 
Q 2534 3019 2420 3045 
Q 2306 3072 2169 3072 
Q 1681 3072 1420 2755 
Q 1159 2438 1159 1844 
L 1159 0 
L 581 0 
L 581 3500 
L 1159 3500 
L 1159 2956 
Q 1341 3275 1631 3429 
Q 1922 3584 2338 3584 
Q 2397 3584 2469 3576 
Q 2541 3569 2628 3553 
L 2631 2963 
z
" transform="scale(0.015625)"/>
      <path id="DejaVuSans-6a" d="M 603 3500 
L 1178 3500 
L 1178 -63 
Q 1178 -731 923 -1031 
Q 669 -1331 103 -1331 
L -116 -1331 
L -116 -844 
L 38 -844 
Q 366 -844 484 -692 
Q 603 -541 603 -63 
L 603 3500 
z
M 603 4863 
L 1178 4863 
L 1178 4134 
L 603 4134 
L 603 4863 
z
" transform="scale(0.015625)"/>
      <path id="DejaVuSans-6f" d="M 1959 3097 
Q 1497 3097 1228 2736 
Q 959 2375 959 1747 
Q 959 1119 1226 758 
Q 1494 397 1959 397 
Q 2419 397 2687 759 
Q 2956 1122 2956 1747 
Q 2956 2369 2687 2733 
Q 2419 3097 1959 3097 
z
M 1959 3584 
Q 2709 3584 3137 3096 
Q 3566 2609 3566 1747 
Q 3566 888 3137 398 
Q 2709 -91 1959 -91 
Q 1206 -91 779 398 
Q 353 888 353 1747 
Q 353 2609 779 3096 
Q 1206 3584 1959 3584 
z
" transform="scale(0.015625)"/>
     </defs>
     <use xlink:href="#DejaVuSans-41"/>
     <use xlink:href="#DejaVuSans-6e" x="68.408203"/>
     <use xlink:href="#DejaVuSans-67" x="131.787109"/>
     <use xlink:href="#DejaVuSans-6c" x="195.263672"/>
     <use xlink:href="#DejaVuSans-65" x="223.046875"/>
     <use xlink:href="#DejaVuSans-73" x="284.570312"/>
     <use xlink:href="#DejaVuSans-20" x="336.669922"/>
     <use xlink:href="#DejaVuSans-69" x="368.457031"/>
     <use xlink:href="#DejaVuSans-6e" x="396.240234"/>
     <use xlink:href="#DejaVuSans-20" x="459.619141"/>
     <use xlink:href="#DejaVuSans-49" x="491.40625"/>
     <use xlink:href="#DejaVuSans-6e" x="520.898438"/>
     <use xlink:href="#DejaVuSans-64" x="584.277344"/>
     <use xlink:href="#DejaVuSans-65" x="647.753906"/>
     <use xlink:href="#DejaVuSans-78" x="707.527344"/>
     <use xlink:href="#DejaVuSans-20" x="766.707031"/>
     <use xlink:href="#DejaVuSans-66" x="798.494141"/>
     <use xlink:href="#DejaVuSans-69" x="833.699219"/>
     <use xlink:href="#DejaVuSans-6e" x="861.482422"/>
     <use xlink:href="#DejaVuSans-67" x="924.861328"/>
     <use xlink:href="#DejaVuSans-65" x="988.337891"/>
     <use xlink:href="#DejaVuSans-72" x="1049.861328"/>
     <use xlink:href="#DejaVuSans-20" x="1090.974609"/>
     <use xlink:href="#DejaVuSans-6a" x="1122.761719"/>
     <use xlink:href="#DejaVuSans-6f" x="1150.544922"/>
     <use xlink:href="#DejaVuSans-69" x="1211.726562"/>
     <use xlink:href="#DejaVuSans-6e" x="1239.509766"/>
     <use xlink:href="#DejaVuSans-74" x="1302.888672"/>
     <use xlink:href="#DejaVuSans-73" x="1342.097656"/>
    </g>
   </g>
   <g id="legend_1">
    <g id="patch_7">
     <path d="M 305.012188 93.506375 
L 407.72 93.506375 
Q 409.72 93.506375 409.72 91.506375 
L 409.72 48.472 
Q 409.72 46.472 407.72 46.472 
L 305.012188 46.472 
Q 303.012188 46.472 303.012188 48.472 
L 303.012188 91.506375 
Q 303.012188 93.506375 305.012188 93.506375 
z
" style="fill: #ffffff; opacity: 0.8; stroke: #cccccc; stroke-linejoin: miter"/>
    </g>
    <g id="line2d_26">
     <path d="M 307.012188 54.570438 
L 317.012188 54.570438 
L 327.012188 54.570438 
" style="fill: none; stroke: #ff0000; stroke-width: 1.5; stroke-linecap: square"/>
    </g>
    <g id="text_15">
     <!-- alpha (DIP) -->
     <g transform="translate(335.012188 58.070438) scale(0.1 -0.1)">
      <defs>
       <path id="DejaVuSans-70" d="M 1159 525 
L 1159 -1331 
L 581 -1331 
L 581 3500 
L 1159 3500 
L 1159 2969 
Q 1341 3281 1617 3432 
Q 1894 3584 2278 3584 
Q 2916 3584 3314 3078 
Q 3713 2572 3713 1747 
Q 3713 922 3314 415 
Q 2916 -91 2278 -91 
Q 1894 -91 1617 61 
Q 1341 213 1159 525 
z
M 3116 1747 
Q 3116 2381 2855 2742 
Q 2594 3103 2138 3103 
Q 1681 3103 1420 2742 
Q 1159 2381 1159 1747 
Q 1159 1113 1420 752 
Q 1681 391 2138 391 
Q 2594 391 2855 752 
Q 3116 1113 3116 1747 
z
" transform="scale(0.015625)"/>
       <path id="DejaVuSans-68" d="M 3513 2113 
L 3513 0 
L 2938 0 
L 2938 2094 
Q 2938 2591 2744 2837 
Q 2550 3084 2163 3084 
Q 1697 3084 1428 2787 
Q 1159 2491 1159 1978 
L 1159 0 
L 581 0 
L 581 4863 
L 1159 4863 
L 1159 2956 
Q 1366 3272 1645 3428 
Q 1925 3584 2291 3584 
Q 2894 3584 3203 3211 
Q 3513 2838 3513 2113 
z
" transform="scale(0.015625)"/>
       <path id="DejaVuSans-28" d="M 1984 4856 
Q 1566 4138 1362 3434 
Q 1159 2731 1159 2009 
Q 1159 1288 1364 580 
Q 1569 -128 1984 -844 
L 1484 -844 
Q 1016 -109 783 600 
Q 550 1309 550 2009 
Q 550 2706 781 3412 
Q 1013 4119 1484 4856 
L 1984 4856 
z
" transform="scale(0.015625)"/>
       <path id="DejaVuSans-44" d="M 1259 4147 
L 1259 519 
L 2022 519 
Q 2988 519 3436 956 
Q 3884 1394 3884 2338 
Q 3884 3275 3436 3711 
Q 2988 4147 2022 4147 
L 1259 4147 
z
M 628 4666 
L 1925 4666 
Q 3281 4666 3915 4102 
Q 4550 3538 4550 2338 
Q 4550 1131 3912 565 
Q 3275 0 1925 0 
L 628 0 
L 628 4666 
z
" transform="scale(0.015625)"/>
       <path id="DejaVuSans-50" d="M 1259 4147 
L 1259 2394 
L 2053 2394 
Q 2494 2394 2734 2622 
Q 2975 2850 2975 3272 
Q 2975 3691 2734 3919 
Q 2494 4147 2053 4147 
L 1259 4147 
z
M 628 4666 
L 2053 4666 
Q 2838 4666 3239 4311 
Q 3641 3956 3641 3272 
Q 3641 2581 3239 2228 
Q 2838 1875 2053 1875 
L 1259 1875 
L 1259 0 
L 628 0 
L 628 4666 
z
" transform="scale(0.015625)"/>
       <path id="DejaVuSans-29" d="M 513 4856 
L 1013 4856 
Q 1481 4119 1714 3412 
Q 1947 2706 1947 2009 
Q 1947 1309 1714 600 
Q 1481 -109 1013 -844 
L 513 -844 
Q 928 -128 1133 580 
Q 1338 1288 1338 2009 
Q 1338 2731 1133 3434 
Q 928 4138 513 4856 
z
" transform="scale(0.015625)"/>
      </defs>
      <use xlink:href="#DejaVuSans-61"/>
      <use xlink:href="#DejaVuSans-6c" x="61.279297"/>
      <use xlink:href="#DejaVuSans-70" x="89.0625"/>
      <use xlink:href="#DejaVuSans-68" x="152.539062"/>
      <use xlink:href="#DejaVuSans-61" x="215.917969"/>
      <use xlink:href="#DejaVuSans-20" x="277.197266"/>
      <use xlink:href="#DejaVuSans-28" x="308.984375"/>
      <use xlink:href="#DejaVuSans-44" x="347.998047"/>
      <use xlink:href="#DejaVuSans-49" x="425"/>
      <use xlink:href="#DejaVuSans-50" x="454.492188"/>
      <use xlink:href="#DejaVuSans-29" x="514.794922"/>
     </g>
    </g>
    <g id="line2d_27">
     <path d="M 307.012188 69.248563 
L 317.012188 69.248563 
L 327.012188 69.248563 
" style="fill: none; stroke: #008000; stroke-width: 1.5; stroke-linecap: square"/>
    </g>
    <g id="text_16">
     <!-- beta (PIP) -->
     <g transform="translate(335.012188 72.748563) scale(0.1 -0.1)">
      <defs>
       <path id="DejaVuSans-62" d="M 3116 1747 
Q 3116 2381 2855 2742 
Q 2594 3103 2138 3103 
Q 1681 3103 1420 2742 
Q 1159 2381 1159 1747 
Q 1159 1113 1420 752 
Q 1681 391 2138 391 
Q 2594 391 2855 752 
Q 3116 1113 3116 1747 
z
M 1159 2969 
Q 1341 3281 1617 3432 
Q 1894 3584 2278 3584 
Q 2916 3584 3314 3078 
Q 3713 2572 3713 1747 
Q 3713 922 3314 415 
Q 2916 -91 2278 -91 
Q 1894 -91 1617 61 
Q 1341 213 1159 525 
L 1159 0 
L 581 0 
L 581 4863 
L 1159 4863 
L 1159 2969 
z
" transform="scale(0.015625)"/>
      </defs>
      <use xlink:href="#DejaVuSans-62"/>
      <use xlink:href="#DejaVuSans-65" x="63.476562"/>
      <use xlink:href="#DejaVuSans-74" x="125"/>
      <use xlink:href="#DejaVuSans-61" x="164.208984"/>
      <use xlink:href="#DejaVuSans-20" x="225.488281"/>
      <use xlink:href="#DejaVuSans-28" x="257.275391"/>
      <use xlink:href="#DejaVuSans-50" x="296.289062"/>
      <use xlink:href="#DejaVuSans-49" x="356.591797"/>
      <use xlink:href="#DejaVuSans-50" x="386.083984"/>
      <use xlink:href="#DejaVuSans-29" x="446.386719"/>
     </g>
    </g>
    <g id="line2d_28">
     <path d="M 307.012188 83.926688 
L 317.012188 83.926688 
L 327.012188 83.926688 
" style="fill: none; stroke: #0000ff; stroke-width: 1.5; stroke-linecap: square"/>
    </g>
    <g id="text_17">
     <!-- gamma (MCP) -->
     <g transform="translate(335.012188 87.426688) scale(0.1 -0.1)">
      <defs>
       <path id="DejaVuSans-4d" d="M 628 4666 
L 1569 4666 
L 2759 1491 
L 3956 4666 
L 4897 4666 
L 4897 0 
L 4281 0 
L 4281 4097 
L 3078 897 
L 2444 897 
L 1241 4097 
L 1241 0 
L 628 0 
L 628 4666 
z
" transform="scale(0.015625)"/>
       <path id="DejaVuSans-43" d="M 4122 4306 
L 4122 3641 
Q 3803 3938 3442 4084 
Q 3081 4231 2675 4231 
Q 1875 4231 1450 3742 
Q 1025 3253 1025 2328 
Q 1025 1406 1450 917 
Q 1875 428 2675 428 
Q 3081 428 3442 575 
Q 3803 722 4122 1019 
L 4122 359 
Q 3791 134 3420 21 
Q 3050 -91 2638 -91 
Q 1578 -91 968 557 
Q 359 1206 359 2328 
Q 359 3453 968 4101 
Q 1578 4750 2638 4750 
Q 3056 4750 3426 4639 
Q 3797 4528 4122 4306 
z
" transform="scale(0.015625)"/>
      </defs>
      <use xlink:href="#DejaVuSans-67"/>
      <use xlink:href="#DejaVuSans-61" x="63.476562"/>
      <use xlink:href="#DejaVuSans-6d" x="124.755859"/>
      <use xlink:href="#DejaVuSans-6d" x="222.167969"/>
      <use xlink:href="#DejaVuSans-61" x="319.580078"/>
      <use xlink:href="#DejaVuSans-20" x="380.859375"/>
      <use xlink:href="#DejaVuSans-28" x="412.646484"/>
      <use xlink:href="#DejaVuSans-4d" x="451.660156"/>
      <use xlink:href="#DejaVuSans-43" x="537.939453"/>
      <use xlink:href="#DejaVuSans-50" x="607.763672"/>
      <use xlink:href="#DejaVuSans-29" x="668.066406"/>
     </g>
    </g>
   </g>
  </g>
 </g>
 <defs>
  <clipPath id="p250fc6a688">
   <rect x="57.6" y="41.472" width="357.12" height="266.112"/>
  </clipPath>
 </defs>
</svg>
