<?xml version="1.0" encoding="utf-8" standalone="no"?>
<!DOCTYPE svg PUBLIC "-//W3C//DTD SVG 1.1//EN"
  "http://www.w3.org/Graphics/SVG/1.1/DTD/svg11.dtd">
<svg xmlns:xlink="http://www.w3.org/1999/xlink" width="460.8pt" height="345.6pt" viewBox="0 0 460.8 345.6" xmlns="http://www.w3.org/2000/svg" version="1.1">
 <metadata>
  <rdf:RDF xmlns:dc="http://purl.org/dc/elements/1.1/" xmlns:cc="http://creativecommons.org/ns#" xmlns:rdf="http://www.w3.org/1999/02/22-rdf-syntax-ns#">
   <cc:Work>
    <dc:type rdf:resource="http://purl.org/dc/dcmitype/StillImage"/>
    <dc:date>2023-08-08T14:21:01.636648</dc:date>
    <dc:format>image/svg+xml</dc:format>
    <dc:creator>
     <cc:Agent>
      <dc:title>Matplotlib v3.7.1, https://matplotlib.org/</dc:title>
     </cc:Agent>
    </dc:creator>
   </cc:Work>
  </rdf:RDF>
 </metadata>
 <defs>
  <style type="text/css">*{stroke-linejoin: round; stroke-linecap: butt}</style>
 </defs>
 <g id="figure_1">
  <g id="patch_1">
   <path d="M 0 345.6 
L 460.8 345.6 
L 460.8 0 
L 0 0 
z
" style="fill: #ffffff"/>
  </g>
  <g id="axes_1">
   <g id="patch_2">
    <path d="M 57.6 307.584 
L 414.72 307.584 
L 414.72 41.472 
L 57.6 41.472 
z
" style="fill: #ffffff"/>
   </g>
   <g id="matplotlib.axis_1">
    <g id="xtick_1">
     <g id="line2d_1">
      <path d="M 66.248584 307.584 
L 66.248584 41.472 
" clip-path="url(#pcc68781a2e)" style="fill: none; stroke: #b0b0b0; stroke-width: 0.8; stroke-linecap: square"/>
     </g>
     <g id="line2d_2">
      <defs>
       <path id="m22420fb337" d="M 0 0 
L 0 3.5 
" style="stroke: #000000; stroke-width: 0.8"/>
      </defs>
      <g>
       <use xlink:href="#m22420fb337" x="66.248584" y="307.584" style="stroke: #000000; stroke-width: 0.8"/>
      </g>
     </g>
     <g id="text_1">
      <!-- 47 -->
      <g transform="translate(59.886084 322.182437) scale(0.1 -0.1)">
       <defs>
        <path id="DejaVuSans-34" d="M 2419 4116 
L 825 1625 
L 2419 1625 
L 2419 4116 
z
M 2253 4666 
L 3047 4666 
L 3047 1625 
L 3713 1625 
L 3713 1100 
L 3047 1100 
L 3047 0 
L 2419 0 
L 2419 1100 
L 313 1100 
L 313 1709 
L 2253 4666 
z
" transform="scale(0.015625)"/>
        <path id="DejaVuSans-37" d="M 525 4666 
L 3525 4666 
L 3525 4397 
L 1831 0 
L 1172 0 
L 2766 4134 
L 525 4134 
L 525 4666 
z
" transform="scale(0.015625)"/>
       </defs>
       <use xlink:href="#DejaVuSans-34"/>
       <use xlink:href="#DejaVuSans-37" x="63.623047"/>
      </g>
     </g>
    </g>
    <g id="xtick_2">
     <g id="line2d_3">
      <path d="M 91.806192 307.584 
L 91.806192 41.472 
" clip-path="url(#pcc68781a2e)" style="fill: none; stroke: #b0b0b0; stroke-width: 0.8; stroke-linecap: square"/>
     </g>
     <g id="line2d_4">
      <g>
       <use xlink:href="#m22420fb337" x="91.806192" y="307.584" style="stroke: #000000; stroke-width: 0.8"/>
      </g>
     </g>
     <g id="text_2">
      <!-- 48 -->
      <g transform="translate(85.443692 322.182437) scale(0.1 -0.1)">
       <defs>
        <path id="DejaVuSans-38" d="M 2034 2216 
Q 1584 2216 1326 1975 
Q 1069 1734 1069 1313 
Q 1069 891 1326 650 
Q 1584 409 2034 409 
Q 2484 409 2743 651 
Q 3003 894 3003 1313 
Q 3003 1734 2745 1975 
Q 2488 2216 2034 2216 
z
M 1403 2484 
Q 997 2584 770 2862 
Q 544 3141 544 3541 
Q 544 4100 942 4425 
Q 1341 4750 2034 4750 
Q 2731 4750 3128 4425 
Q 3525 4100 3525 3541 
Q 3525 3141 3298 2862 
Q 3072 2584 2669 2484 
Q 3125 2378 3379 2068 
Q 3634 1759 3634 1313 
Q 3634 634 3220 271 
Q 2806 -91 2034 -91 
Q 1263 -91 848 271 
Q 434 634 434 1313 
Q 434 1759 690 2068 
Q 947 2378 1403 2484 
z
M 1172 3481 
Q 1172 3119 1398 2916 
Q 1625 2713 2034 2713 
Q 2441 2713 2670 2916 
Q 2900 3119 2900 3481 
Q 2900 3844 2670 4047 
Q 2441 4250 2034 4250 
Q 1625 4250 1398 4047 
Q 1172 3844 1172 3481 
z
" transform="scale(0.015625)"/>
       </defs>
       <use xlink:href="#DejaVuSans-34"/>
       <use xlink:href="#DejaVuSans-38" x="63.623047"/>
      </g>
     </g>
    </g>
    <g id="xtick_3">
     <g id="line2d_5">
      <path d="M 117.363801 307.584 
L 117.363801 41.472 
" clip-path="url(#pcc68781a2e)" style="fill: none; stroke: #b0b0b0; stroke-width: 0.8; stroke-linecap: square"/>
     </g>
     <g id="line2d_6">
      <g>
       <use xlink:href="#m22420fb337" x="117.363801" y="307.584" style="stroke: #000000; stroke-width: 0.8"/>
      </g>
     </g>
     <g id="text_3">
      <!-- 49 -->
      <g transform="translate(111.001301 322.182437) scale(0.1 -0.1)">
       <defs>
        <path id="DejaVuSans-39" d="M 703 97 
L 703 672 
Q 941 559 1184 500 
Q 1428 441 1663 441 
Q 2288 441 2617 861 
Q 2947 1281 2994 2138 
Q 2813 1869 2534 1725 
Q 2256 1581 1919 1581 
Q 1219 1581 811 2004 
Q 403 2428 403 3163 
Q 403 3881 828 4315 
Q 1253 4750 1959 4750 
Q 2769 4750 3195 4129 
Q 3622 3509 3622 2328 
Q 3622 1225 3098 567 
Q 2575 -91 1691 -91 
Q 1453 -91 1209 -44 
Q 966 3 703 97 
z
M 1959 2075 
Q 2384 2075 2632 2365 
Q 2881 2656 2881 3163 
Q 2881 3666 2632 3958 
Q 2384 4250 1959 4250 
Q 1534 4250 1286 3958 
Q 1038 3666 1038 3163 
Q 1038 2656 1286 2365 
Q 1534 2075 1959 2075 
z
" transform="scale(0.015625)"/>
       </defs>
       <use xlink:href="#DejaVuSans-34"/>
       <use xlink:href="#DejaVuSans-39" x="63.623047"/>
      </g>
     </g>
    </g>
    <g id="xtick_4">
     <g id="line2d_7">
      <path d="M 142.921409 307.584 
L 142.921409 41.472 
" clip-path="url(#pcc68781a2e)" style="fill: none; stroke: #b0b0b0; stroke-width: 0.8; stroke-linecap: square"/>
     </g>
     <g id="line2d_8">
      <g>
       <use xlink:href="#m22420fb337" x="142.921409" y="307.584" style="stroke: #000000; stroke-width: 0.8"/>
      </g>
     </g>
     <g id="text_4">
      <!-- 50 -->
      <g transform="translate(136.558909 322.182437) scale(0.1 -0.1)">
       <defs>
        <path id="DejaVuSans-35" d="M 691 4666 
L 3169 4666 
L 3169 4134 
L 1269 4134 
L 1269 2991 
Q 1406 3038 1543 3061 
Q 1681 3084 1819 3084 
Q 2600 3084 3056 2656 
Q 3513 2228 3513 1497 
Q 3513 744 3044 326 
Q 2575 -91 1722 -91 
Q 1428 -91 1123 -41 
Q 819 9 494 109 
L 494 744 
Q 775 591 1075 516 
Q 1375 441 1709 441 
Q 2250 441 2565 725 
Q 2881 1009 2881 1497 
Q 2881 1984 2565 2268 
Q 2250 2553 1709 2553 
Q 1456 2553 1204 2497 
Q 953 2441 691 2322 
L 691 4666 
z
" transform="scale(0.015625)"/>
        <path id="DejaVuSans-30" d="M 2034 4250 
Q 1547 4250 1301 3770 
Q 1056 3291 1056 2328 
Q 1056 1369 1301 889 
Q 1547 409 2034 409 
Q 2525 409 2770 889 
Q 3016 1369 3016 2328 
Q 3016 3291 2770 3770 
Q 2525 4250 2034 4250 
z
M 2034 4750 
Q 2819 4750 3233 4129 
Q 3647 3509 3647 2328 
Q 3647 1150 3233 529 
Q 2819 -91 2034 -91 
Q 1250 -91 836 529 
Q 422 1150 422 2328 
Q 422 3509 836 4129 
Q 1250 4750 2034 4750 
z
" transform="scale(0.015625)"/>
       </defs>
       <use xlink:href="#DejaVuSans-35"/>
       <use xlink:href="#DejaVuSans-30" x="63.623047"/>
      </g>
     </g>
    </g>
    <g id="xtick_5">
     <g id="line2d_9">
      <path d="M 168.479018 307.584 
L 168.479018 41.472 
" clip-path="url(#pcc68781a2e)" style="fill: none; stroke: #b0b0b0; stroke-width: 0.8; stroke-linecap: square"/>
     </g>
     <g id="line2d_10">
      <g>
       <use xlink:href="#m22420fb337" x="168.479018" y="307.584" style="stroke: #000000; stroke-width: 0.8"/>
      </g>
     </g>
     <g id="text_5">
      <!-- 51 -->
      <g transform="translate(162.116518 322.182437) scale(0.1 -0.1)">
       <defs>
        <path id="DejaVuSans-31" d="M 794 531 
L 1825 531 
L 1825 4091 
L 703 3866 
L 703 4441 
L 1819 4666 
L 2450 4666 
L 2450 531 
L 3481 531 
L 3481 0 
L 794 0 
L 794 531 
z
" transform="scale(0.015625)"/>
       </defs>
       <use xlink:href="#DejaVuSans-35"/>
       <use xlink:href="#DejaVuSans-31" x="63.623047"/>
      </g>
     </g>
    </g>
    <g id="xtick_6">
     <g id="line2d_11">
      <path d="M 194.036627 307.584 
L 194.036627 41.472 
" clip-path="url(#pcc68781a2e)" style="fill: none; stroke: #b0b0b0; stroke-width: 0.8; stroke-linecap: square"/>
     </g>
     <g id="line2d_12">
      <g>
       <use xlink:href="#m22420fb337" x="194.036627" y="307.584" style="stroke: #000000; stroke-width: 0.8"/>
      </g>
     </g>
     <g id="text_6">
      <!-- 52 -->
      <g transform="translate(187.674127 322.182437) scale(0.1 -0.1)">
       <defs>
        <path id="DejaVuSans-32" d="M 1228 531 
L 3431 531 
L 3431 0 
L 469 0 
L 469 531 
Q 828 903 1448 1529 
Q 2069 2156 2228 2338 
Q 2531 2678 2651 2914 
Q 2772 3150 2772 3378 
Q 2772 3750 2511 3984 
Q 2250 4219 1831 4219 
Q 1534 4219 1204 4116 
Q 875 4013 500 3803 
L 500 4441 
Q 881 4594 1212 4672 
Q 1544 4750 1819 4750 
Q 2544 4750 2975 4387 
Q 3406 4025 3406 3419 
Q 3406 3131 3298 2873 
Q 3191 2616 2906 2266 
Q 2828 2175 2409 1742 
Q 1991 1309 1228 531 
z
" transform="scale(0.015625)"/>
       </defs>
       <use xlink:href="#DejaVuSans-35"/>
       <use xlink:href="#DejaVuSans-32" x="63.623047"/>
      </g>
     </g>
    </g>
    <g id="xtick_7">
     <g id="line2d_13">
      <path d="M 219.594235 307.584 
L 219.594235 41.472 
" clip-path="url(#pcc68781a2e)" style="fill: none; stroke: #b0b0b0; stroke-width: 0.8; stroke-linecap: square"/>
     </g>
     <g id="line2d_14">
      <g>
       <use xlink:href="#m22420fb337" x="219.594235" y="307.584" style="stroke: #000000; stroke-width: 0.8"/>
      </g>
     </g>
     <g id="text_7">
      <!-- 53 -->
      <g transform="translate(213.231735 322.182437) scale(0.1 -0.1)">
       <defs>
        <path id="DejaVuSans-33" d="M 2597 2516 
Q 3050 2419 3304 2112 
Q 3559 1806 3559 1356 
Q 3559 666 3084 287 
Q 2609 -91 1734 -91 
Q 1441 -91 1130 -33 
Q 819 25 488 141 
L 488 750 
Q 750 597 1062 519 
Q 1375 441 1716 441 
Q 2309 441 2620 675 
Q 2931 909 2931 1356 
Q 2931 1769 2642 2001 
Q 2353 2234 1838 2234 
L 1294 2234 
L 1294 2753 
L 1863 2753 
Q 2328 2753 2575 2939 
Q 2822 3125 2822 3475 
Q 2822 3834 2567 4026 
Q 2313 4219 1838 4219 
Q 1578 4219 1281 4162 
Q 984 4106 628 3988 
L 628 4550 
Q 988 4650 1302 4700 
Q 1616 4750 1894 4750 
Q 2613 4750 3031 4423 
Q 3450 4097 3450 3541 
Q 3450 3153 3228 2886 
Q 3006 2619 2597 2516 
z
" transform="scale(0.015625)"/>
       </defs>
       <use xlink:href="#DejaVuSans-35"/>
       <use xlink:href="#DejaVuSans-33" x="63.623047"/>
      </g>
     </g>
    </g>
    <g id="xtick_8">
     <g id="line2d_15">
      <path d="M 245.151844 307.584 
L 245.151844 41.472 
" clip-path="url(#pcc68781a2e)" style="fill: none; stroke: #b0b0b0; stroke-width: 0.8; stroke-linecap: square"/>
     </g>
     <g id="line2d_16">
      <g>
       <use xlink:href="#m22420fb337" x="245.151844" y="307.584" style="stroke: #000000; stroke-width: 0.8"/>
      </g>
     </g>
     <g id="text_8">
      <!-- 54 -->
      <g transform="translate(238.789344 322.182437) scale(0.1 -0.1)">
       <use xlink:href="#DejaVuSans-35"/>
       <use xlink:href="#DejaVuSans-34" x="63.623047"/>
      </g>
     </g>
    </g>
    <g id="xtick_9">
     <g id="line2d_17">
      <path d="M 270.709453 307.584 
L 270.709453 41.472 
" clip-path="url(#pcc68781a2e)" style="fill: none; stroke: #b0b0b0; stroke-width: 0.8; stroke-linecap: square"/>
     </g>
     <g id="line2d_18">
      <g>
       <use xlink:href="#m22420fb337" x="270.709453" y="307.584" style="stroke: #000000; stroke-width: 0.8"/>
      </g>
     </g>
     <g id="text_9">
      <!-- 55 -->
      <g transform="translate(264.346953 322.182437) scale(0.1 -0.1)">
       <use xlink:href="#DejaVuSans-35"/>
       <use xlink:href="#DejaVuSans-35" x="63.623047"/>
      </g>
     </g>
    </g>
    <g id="xtick_10">
     <g id="line2d_19">
      <path d="M 296.267061 307.584 
L 296.267061 41.472 
" clip-path="url(#pcc68781a2e)" style="fill: none; stroke: #b0b0b0; stroke-width: 0.8; stroke-linecap: square"/>
     </g>
     <g id="line2d_20">
      <g>
       <use xlink:href="#m22420fb337" x="296.267061" y="307.584" style="stroke: #000000; stroke-width: 0.8"/>
      </g>
     </g>
     <g id="text_10">
      <!-- 56 -->
      <g transform="translate(289.904561 322.182437) scale(0.1 -0.1)">
       <defs>
        <path id="DejaVuSans-36" d="M 2113 2584 
Q 1688 2584 1439 2293 
Q 1191 2003 1191 1497 
Q 1191 994 1439 701 
Q 1688 409 2113 409 
Q 2538 409 2786 701 
Q 3034 994 3034 1497 
Q 3034 2003 2786 2293 
Q 2538 2584 2113 2584 
z
M 3366 4563 
L 3366 3988 
Q 3128 4100 2886 4159 
Q 2644 4219 2406 4219 
Q 1781 4219 1451 3797 
Q 1122 3375 1075 2522 
Q 1259 2794 1537 2939 
Q 1816 3084 2150 3084 
Q 2853 3084 3261 2657 
Q 3669 2231 3669 1497 
Q 3669 778 3244 343 
Q 2819 -91 2113 -91 
Q 1303 -91 875 529 
Q 447 1150 447 2328 
Q 447 3434 972 4092 
Q 1497 4750 2381 4750 
Q 2619 4750 2861 4703 
Q 3103 4656 3366 4563 
z
" transform="scale(0.015625)"/>
       </defs>
       <use xlink:href="#DejaVuSans-35"/>
       <use xlink:href="#DejaVuSans-36" x="63.623047"/>
      </g>
     </g>
    </g>
    <g id="xtick_11">
     <g id="line2d_21">
      <path d="M 321.82467 307.584 
L 321.82467 41.472 
" clip-path="url(#pcc68781a2e)" style="fill: none; stroke: #b0b0b0; stroke-width: 0.8; stroke-linecap: square"/>
     </g>
     <g id="line2d_22">
      <g>
       <use xlink:href="#m22420fb337" x="321.82467" y="307.584" style="stroke: #000000; stroke-width: 0.8"/>
      </g>
     </g>
     <g id="text_11">
      <!-- 57 -->
      <g transform="translate(315.46217 322.182437) scale(0.1 -0.1)">
       <use xlink:href="#DejaVuSans-35"/>
       <use xlink:href="#DejaVuSans-37" x="63.623047"/>
      </g>
     </g>
    </g>
    <g id="xtick_12">
     <g id="line2d_23">
      <path d="M 347.382279 307.584 
L 347.382279 41.472 
" clip-path="url(#pcc68781a2e)" style="fill: none; stroke: #b0b0b0; stroke-width: 0.8; stroke-linecap: square"/>
     </g>
     <g id="line2d_24">
      <g>
       <use xlink:href="#m22420fb337" x="347.382279" y="307.584" style="stroke: #000000; stroke-width: 0.8"/>
      </g>
     </g>
     <g id="text_12">
      <!-- 58 -->
      <g transform="translate(341.019779 322.182437) scale(0.1 -0.1)">
       <use xlink:href="#DejaVuSans-35"/>
       <use xlink:href="#DejaVuSans-38" x="63.623047"/>
      </g>
     </g>
    </g>
    <g id="xtick_13">
     <g id="line2d_25">
      <path d="M 372.939887 307.584 
L 372.939887 41.472 
" clip-path="url(#pcc68781a2e)" style="fill: none; stroke: #b0b0b0; stroke-width: 0.8; stroke-linecap: square"/>
     </g>
     <g id="line2d_26">
      <g>
       <use xlink:href="#m22420fb337" x="372.939887" y="307.584" style="stroke: #000000; stroke-width: 0.8"/>
      </g>
     </g>
     <g id="text_13">
      <!-- 59 -->
      <g transform="translate(366.577387 322.182437) scale(0.1 -0.1)">
       <use xlink:href="#DejaVuSans-35"/>
       <use xlink:href="#DejaVuSans-39" x="63.623047"/>
      </g>
     </g>
    </g>
    <g id="text_14">
     <!-- time [sec] -->
     <g transform="translate(210.942813 335.860562) scale(0.1 -0.1)">
      <defs>
       <path id="DejaVuSans-74" d="M 1172 4494 
L 1172 3500 
L 2356 3500 
L 2356 3053 
L 1172 3053 
L 1172 1153 
Q 1172 725 1289 603 
Q 1406 481 1766 481 
L 2356 481 
L 2356 0 
L 1766 0 
Q 1100 0 847 248 
Q 594 497 594 1153 
L 594 3053 
L 172 3053 
L 172 3500 
L 594 3500 
L 594 4494 
L 1172 4494 
z
" transform="scale(0.015625)"/>
       <path id="DejaVuSans-69" d="M 603 3500 
L 1178 3500 
L 1178 0 
L 603 0 
L 603 3500 
z
M 603 4863 
L 1178 4863 
L 1178 4134 
L 603 4134 
L 603 4863 
z
" transform="scale(0.015625)"/>
       <path id="DejaVuSans-6d" d="M 3328 2828 
Q 3544 3216 3844 3400 
Q 4144 3584 4550 3584 
Q 5097 3584 5394 3201 
Q 5691 2819 5691 2113 
L 5691 0 
L 5113 0 
L 5113 2094 
Q 5113 2597 4934 2840 
Q 4756 3084 4391 3084 
Q 3944 3084 3684 2787 
Q 3425 2491 3425 1978 
L 3425 0 
L 2847 0 
L 2847 2094 
Q 2847 2600 2669 2842 
Q 2491 3084 2119 3084 
Q 1678 3084 1418 2786 
Q 1159 2488 1159 1978 
L 1159 0 
L 581 0 
L 581 3500 
L 1159 3500 
L 1159 2956 
Q 1356 3278 1631 3431 
Q 1906 3584 2284 3584 
Q 2666 3584 2933 3390 
Q 3200 3197 3328 2828 
z
" transform="scale(0.015625)"/>
       <path id="DejaVuSans-65" d="M 3597 1894 
L 3597 1613 
L 953 1613 
Q 991 1019 1311 708 
Q 1631 397 2203 397 
Q 2534 397 2845 478 
Q 3156 559 3463 722 
L 3463 178 
Q 3153 47 2828 -22 
Q 2503 -91 2169 -91 
Q 1331 -91 842 396 
Q 353 884 353 1716 
Q 353 2575 817 3079 
Q 1281 3584 2069 3584 
Q 2775 3584 3186 3129 
Q 3597 2675 3597 1894 
z
M 3022 2063 
Q 3016 2534 2758 2815 
Q 2500 3097 2075 3097 
Q 1594 3097 1305 2825 
Q 1016 2553 972 2059 
L 3022 2063 
z
" transform="scale(0.015625)"/>
       <path id="DejaVuSans-20" transform="scale(0.015625)"/>
       <path id="DejaVuSans-5b" d="M 550 4863 
L 1875 4863 
L 1875 4416 
L 1125 4416 
L 1125 -397 
L 1875 -397 
L 1875 -844 
L 550 -844 
L 550 4863 
z
" transform="scale(0.015625)"/>
       <path id="DejaVuSans-73" d="M 2834 3397 
L 2834 2853 
Q 2591 2978 2328 3040 
Q 2066 3103 1784 3103 
Q 1356 3103 1142 2972 
Q 928 2841 928 2578 
Q 928 2378 1081 2264 
Q 1234 2150 1697 2047 
L 1894 2003 
Q 2506 1872 2764 1633 
Q 3022 1394 3022 966 
Q 3022 478 2636 193 
Q 2250 -91 1575 -91 
Q 1294 -91 989 -36 
Q 684 19 347 128 
L 347 722 
Q 666 556 975 473 
Q 1284 391 1588 391 
Q 1994 391 2212 530 
Q 2431 669 2431 922 
Q 2431 1156 2273 1281 
Q 2116 1406 1581 1522 
L 1381 1569 
Q 847 1681 609 1914 
Q 372 2147 372 2553 
Q 372 3047 722 3315 
Q 1072 3584 1716 3584 
Q 2034 3584 2315 3537 
Q 2597 3491 2834 3397 
z
" transform="scale(0.015625)"/>
       <path id="DejaVuSans-63" d="M 3122 3366 
L 3122 2828 
Q 2878 2963 2633 3030 
Q 2388 3097 2138 3097 
Q 1578 3097 1268 2742 
Q 959 2388 959 1747 
Q 959 1106 1268 751 
Q 1578 397 2138 397 
Q 2388 397 2633 464 
Q 2878 531 3122 666 
L 3122 134 
Q 2881 22 2623 -34 
Q 2366 -91 2075 -91 
Q 1284 -91 818 406 
Q 353 903 353 1747 
Q 353 2603 823 3093 
Q 1294 3584 2113 3584 
Q 2378 3584 2631 3529 
Q 2884 3475 3122 3366 
z
" transform="scale(0.015625)"/>
       <path id="DejaVuSans-5d" d="M 1947 4863 
L 1947 -844 
L 622 -844 
L 622 -397 
L 1369 -397 
L 1369 4416 
L 622 4416 
L 622 4863 
L 1947 4863 
z
" transform="scale(0.015625)"/>
      </defs>
      <use xlink:href="#DejaVuSans-74"/>
      <use xlink:href="#DejaVuSans-69" x="39.208984"/>
      <use xlink:href="#DejaVuSans-6d" x="66.992188"/>
      <use xlink:href="#DejaVuSans-65" x="164.404297"/>
      <use xlink:href="#DejaVuSans-20" x="225.927734"/>
      <use xlink:href="#DejaVuSans-5b" x="257.714844"/>
      <use xlink:href="#DejaVuSans-73" x="296.728516"/>
      <use xlink:href="#DejaVuSans-65" x="348.828125"/>
      <use xlink:href="#DejaVuSans-63" x="410.351562"/>
      <use xlink:href="#DejaVuSans-5d" x="465.332031"/>
     </g>
    </g>
   </g>
   <g id="matplotlib.axis_2">
    <g id="ytick_1">
     <g id="line2d_27">
      <path d="M 57.6 298.825853 
L 414.72 298.825853 
" clip-path="url(#pcc68781a2e)" style="fill: none; stroke: #b0b0b0; stroke-width: 0.8; stroke-linecap: square"/>
     </g>
     <g id="line2d_28">
      <defs>
       <path id="me1eb712c40" d="M 0 0 
L -3.5 0 
" style="stroke: #000000; stroke-width: 0.8"/>
      </defs>
      <g>
       <use xlink:href="#me1eb712c40" x="57.6" y="298.825853" style="stroke: #000000; stroke-width: 0.8"/>
      </g>
     </g>
     <g id="text_15">
      <!-- 0.0 -->
      <g transform="translate(34.696875 302.625071) scale(0.1 -0.1)">
       <defs>
        <path id="DejaVuSans-2e" d="M 684 794 
L 1344 794 
L 1344 0 
L 684 0 
L 684 794 
z
" transform="scale(0.015625)"/>
       </defs>
       <use xlink:href="#DejaVuSans-30"/>
       <use xlink:href="#DejaVuSans-2e" x="63.623047"/>
       <use xlink:href="#DejaVuSans-30" x="95.410156"/>
      </g>
     </g>
    </g>
    <g id="ytick_2">
     <g id="line2d_29">
      <path d="M 57.6 264.747909 
L 414.72 264.747909 
" clip-path="url(#pcc68781a2e)" style="fill: none; stroke: #b0b0b0; stroke-width: 0.8; stroke-linecap: square"/>
     </g>
     <g id="line2d_30">
      <g>
       <use xlink:href="#me1eb712c40" x="57.6" y="264.747909" style="stroke: #000000; stroke-width: 0.8"/>
      </g>
     </g>
     <g id="text_16">
      <!-- 0.2 -->
      <g transform="translate(34.696875 268.547127) scale(0.1 -0.1)">
       <use xlink:href="#DejaVuSans-30"/>
       <use xlink:href="#DejaVuSans-2e" x="63.623047"/>
       <use xlink:href="#DejaVuSans-32" x="95.410156"/>
      </g>
     </g>
    </g>
    <g id="ytick_3">
     <g id="line2d_31">
      <path d="M 57.6 230.669965 
L 414.72 230.669965 
" clip-path="url(#pcc68781a2e)" style="fill: none; stroke: #b0b0b0; stroke-width: 0.8; stroke-linecap: square"/>
     </g>
     <g id="line2d_32">
      <g>
       <use xlink:href="#me1eb712c40" x="57.6" y="230.669965" style="stroke: #000000; stroke-width: 0.8"/>
      </g>
     </g>
     <g id="text_17">
      <!-- 0.4 -->
      <g transform="translate(34.696875 234.469183) scale(0.1 -0.1)">
       <use xlink:href="#DejaVuSans-30"/>
       <use xlink:href="#DejaVuSans-2e" x="63.623047"/>
       <use xlink:href="#DejaVuSans-34" x="95.410156"/>
      </g>
     </g>
    </g>
    <g id="ytick_4">
     <g id="line2d_33">
      <path d="M 57.6 196.592021 
L 414.72 196.592021 
" clip-path="url(#pcc68781a2e)" style="fill: none; stroke: #b0b0b0; stroke-width: 0.8; stroke-linecap: square"/>
     </g>
     <g id="line2d_34">
      <g>
       <use xlink:href="#me1eb712c40" x="57.6" y="196.592021" style="stroke: #000000; stroke-width: 0.8"/>
      </g>
     </g>
     <g id="text_18">
      <!-- 0.6 -->
      <g transform="translate(34.696875 200.391239) scale(0.1 -0.1)">
       <use xlink:href="#DejaVuSans-30"/>
       <use xlink:href="#DejaVuSans-2e" x="63.623047"/>
       <use xlink:href="#DejaVuSans-36" x="95.410156"/>
      </g>
     </g>
    </g>
    <g id="ytick_5">
     <g id="line2d_35">
      <path d="M 57.6 162.514077 
L 414.72 162.514077 
" clip-path="url(#pcc68781a2e)" style="fill: none; stroke: #b0b0b0; stroke-width: 0.8; stroke-linecap: square"/>
     </g>
     <g id="line2d_36">
      <g>
       <use xlink:href="#me1eb712c40" x="57.6" y="162.514077" style="stroke: #000000; stroke-width: 0.8"/>
      </g>
     </g>
     <g id="text_19">
      <!-- 0.8 -->
      <g transform="translate(34.696875 166.313295) scale(0.1 -0.1)">
       <use xlink:href="#DejaVuSans-30"/>
       <use xlink:href="#DejaVuSans-2e" x="63.623047"/>
       <use xlink:href="#DejaVuSans-38" x="95.410156"/>
      </g>
     </g>
    </g>
    <g id="ytick_6">
     <g id="line2d_37">
      <path d="M 57.6 128.436133 
L 414.72 128.436133 
" clip-path="url(#pcc68781a2e)" style="fill: none; stroke: #b0b0b0; stroke-width: 0.8; stroke-linecap: square"/>
     </g>
     <g id="line2d_38">
      <g>
       <use xlink:href="#me1eb712c40" x="57.6" y="128.436133" style="stroke: #000000; stroke-width: 0.8"/>
      </g>
     </g>
     <g id="text_20">
      <!-- 1.0 -->
      <g transform="translate(34.696875 132.235351) scale(0.1 -0.1)">
       <use xlink:href="#DejaVuSans-31"/>
       <use xlink:href="#DejaVuSans-2e" x="63.623047"/>
       <use xlink:href="#DejaVuSans-30" x="95.410156"/>
      </g>
     </g>
    </g>
    <g id="ytick_7">
     <g id="line2d_39">
      <path d="M 57.6 94.358189 
L 414.72 94.358189 
" clip-path="url(#pcc68781a2e)" style="fill: none; stroke: #b0b0b0; stroke-width: 0.8; stroke-linecap: square"/>
     </g>
     <g id="line2d_40">
      <g>
       <use xlink:href="#me1eb712c40" x="57.6" y="94.358189" style="stroke: #000000; stroke-width: 0.8"/>
      </g>
     </g>
     <g id="text_21">
      <!-- 1.2 -->
      <g transform="translate(34.696875 98.157407) scale(0.1 -0.1)">
       <use xlink:href="#DejaVuSans-31"/>
       <use xlink:href="#DejaVuSans-2e" x="63.623047"/>
       <use xlink:href="#DejaVuSans-32" x="95.410156"/>
      </g>
     </g>
    </g>
    <g id="ytick_8">
     <g id="line2d_41">
      <path d="M 57.6 60.280245 
L 414.72 60.280245 
" clip-path="url(#pcc68781a2e)" style="fill: none; stroke: #b0b0b0; stroke-width: 0.8; stroke-linecap: square"/>
     </g>
     <g id="line2d_42">
      <g>
       <use xlink:href="#me1eb712c40" x="57.6" y="60.280245" style="stroke: #000000; stroke-width: 0.8"/>
      </g>
     </g>
     <g id="text_22">
      <!-- 1.4 -->
      <g transform="translate(34.696875 64.079463) scale(0.1 -0.1)">
       <use xlink:href="#DejaVuSans-31"/>
       <use xlink:href="#DejaVuSans-2e" x="63.623047"/>
       <use xlink:href="#DejaVuSans-34" x="95.410156"/>
      </g>
     </g>
    </g>
    <g id="text_23">
     <!-- force [N] -->
     <g transform="translate(28.617187 196.347531) rotate(-90) scale(0.1 -0.1)">
      <defs>
       <path id="DejaVuSans-66" d="M 2375 4863 
L 2375 4384 
L 1825 4384 
Q 1516 4384 1395 4259 
Q 1275 4134 1275 3809 
L 1275 3500 
L 2222 3500 
L 2222 3053 
L 1275 3053 
L 1275 0 
L 697 0 
L 697 3053 
L 147 3053 
L 147 3500 
L 697 3500 
L 697 3744 
Q 697 4328 969 4595 
Q 1241 4863 1831 4863 
L 2375 4863 
z
" transform="scale(0.015625)"/>
       <path id="DejaVuSans-6f" d="M 1959 3097 
Q 1497 3097 1228 2736 
Q 959 2375 959 1747 
Q 959 1119 1226 758 
Q 1494 397 1959 397 
Q 2419 397 2687 759 
Q 2956 1122 2956 1747 
Q 2956 2369 2687 2733 
Q 2419 3097 1959 3097 
z
M 1959 3584 
Q 2709 3584 3137 3096 
Q 3566 2609 3566 1747 
Q 3566 888 3137 398 
Q 2709 -91 1959 -91 
Q 1206 -91 779 398 
Q 353 888 353 1747 
Q 353 2609 779 3096 
Q 1206 3584 1959 3584 
z
" transform="scale(0.015625)"/>
       <path id="DejaVuSans-72" d="M 2631 2963 
Q 2534 3019 2420 3045 
Q 2306 3072 2169 3072 
Q 1681 3072 1420 2755 
Q 1159 2438 1159 1844 
L 1159 0 
L 581 0 
L 581 3500 
L 1159 3500 
L 1159 2956 
Q 1341 3275 1631 3429 
Q 1922 3584 2338 3584 
Q 2397 3584 2469 3576 
Q 2541 3569 2628 3553 
L 2631 2963 
z
" transform="scale(0.015625)"/>
       <path id="DejaVuSans-4e" d="M 628 4666 
L 1478 4666 
L 3547 763 
L 3547 4666 
L 4159 4666 
L 4159 0 
L 3309 0 
L 1241 3903 
L 1241 0 
L 628 0 
L 628 4666 
z
" transform="scale(0.015625)"/>
      </defs>
      <use xlink:href="#DejaVuSans-66"/>
      <use xlink:href="#DejaVuSans-6f" x="35.205078"/>
      <use xlink:href="#DejaVuSans-72" x="96.386719"/>
      <use xlink:href="#DejaVuSans-63" x="135.25"/>
      <use xlink:href="#DejaVuSans-65" x="190.230469"/>
      <use xlink:href="#DejaVuSans-20" x="251.753906"/>
      <use xlink:href="#DejaVuSans-5b" x="283.541016"/>
      <use xlink:href="#DejaVuSans-4e" x="322.554688"/>
      <use xlink:href="#DejaVuSans-5d" x="397.359375"/>
     </g>
    </g>
   </g>
   <g id="line2d_43">
    <path d="M 73.832727 170.517417 
L 74.594165 177.483032 
L 75.416558 187.607667 
L 76.39383 190.221419 
L 77.149619 178.811282 
L 78.120374 161.175263 
L 78.913018 166.855137 
L 79.704895 200.207179 
L 80.67386 202.886545 
L 81.470491 204.141002 
L 82.387549 192.018191 
L 83.256661 189.455199 
L 84.056359 218.458637 
L 84.942748 231.31406 
L 85.786174 238.072713 
L 86.582575 241.353043 
L 87.499684 237.751556 
L 88.351596 255.859506 
L 89.2364 281.244326 
L 90.032443 289.050646 
L 90.899536 292.426443 
L 91.792544 292.157258 
L 92.611794 292.679773 
L 93.454888 292.586132 
L 94.337622 292.362194 
L 95.165817 292.643718 
L 96.072217 292.343149 
L 96.904194 291.594435 
L 97.749333 292.514583 
L 98.625524 292.675567 
L 99.458754 292.463497 
L 100.356158 292.370313 
L 101.170756 292.669118 
L 102.063943 292.646508 
L 102.909644 292.065828 
L 103.726798 292.442341 
L 104.560231 291.859434 
L 105.466657 292.299394 
L 106.283606 292.116088 
L 107.20644 292.075484 
L 108.022163 289.678965 
L 108.839342 286.548969 
L 109.761026 286.048864 
L 110.577719 284.512929 
L 111.39592 284.741612 
L 112.333603 292.760479 
L 113.194307 293.110937 
L 114.061323 293.302249 
L 114.89054 278.893606 
L 115.697036 278.707264 
L 116.618873 271.118559 
L 117.440525 216.910393 
L 118.360266 211.334085 
L 119.99465 160.308752 
L 120.913702 153.094918 
L 121.727763 147.818941 
L 122.553708 149.682186 
L 123.49203 140.675916 
L 124.282246 140.15612 
L 125.376801 137.318984 
L 126.079073 128.721207 
L 126.933873 120.957105 
L 127.79726 120.649891 
L 128.684058 138.361298 
L 129.504585 146.387351 
L 130.368586 152.540443 
L 131.179196 152.423193 
L 132.076447 145.787038 
L 132.872337 138.092413 
L 133.696672 146.52372 
L 134.611788 160.867275 
L 135.427919 179.524361 
L 136.35934 190.060007 
L 137.164226 178.77255 
L 137.982453 198.672735 
L 139.721725 232.546305 
L 140.539568 239.663198 
L 141.470606 225.415572 
L 142.27723 237.668366 
L 143.195004 242.589226 
L 144.017039 255.435068 
L 144.832096 254.875827 
L 145.769192 247.374515 
L 146.574026 261.022339 
L 147.499263 267.442514 
L 148.320045 267.973868 
L 149.127921 267.27904 
L 150.046666 261.136313 
L 150.86382 253.726262 
L 151.695081 250.768838 
L 152.603833 251.571495 
L 153.417996 254.715728 
L 154.369352 280.368981 
L 155.157984 292.402154 
L 155.985871 293.48373 
L 156.935669 292.314705 
L 157.795452 292.596761 
L 159.449029 293.927269 
L 160.270553 294.149109 
L 161.191292 293.894454 
L 162.004995 293.047526 
L 162.826902 293.433415 
L 163.742835 292.766624 
L 164.604178 293.603633 
L 165.483692 294.045004 
L 166.32763 293.140007 
L 168.064499 294.081013 
L 168.853872 291.589213 
L 169.7203 289.572366 
L 170.594933 291.733883 
L 171.41206 273.145241 
L 172.329757 181.843659 
L 173.159 136.697098 
L 173.967387 171.984354 
L 174.885646 183.717789 
L 175.715374 140.920148 
L 176.626963 103.772065 
L 177.44202 102.232731 
L 178.261781 152.194065 
L 179.187375 154.701035 
L 179.998267 145.991789 
L 180.824902 118.011952 
L 181.736184 109.862656 
L 182.552903 112.165677 
L 183.474485 137.580505 
L 184.296111 145.443929 
L 185.107846 146.693541 
L 186.029556 149.020705 
L 186.846888 146.004576 
L 187.663428 136.93784 
L 188.586441 149.166895 
L 189.404566 171.22675 
L 190.322902 187.736413 
L 191.141001 190.821035 
L 191.961988 207.080412 
L 192.878995 214.618422 
L 193.701592 219.053919 
L 194.620567 213.459958 
L 195.4368 224.107006 
L 196.253826 253.040083 
L 197.185784 251.890804 
L 197.989827 248.911217 
L 198.813599 252.103821 
L 199.740063 258.502054 
L 201.49242 237.615017 
L 202.29613 248.638638 
L 203.101042 276.390451 
L 204.02109 291.360868 
L 204.864338 288.95768 
L 205.657339 280.055969 
L 206.578001 278.142592 
L 207.397531 281.964908 
L 208.318678 291.189305 
L 209.131462 292.826028 
L 209.976268 293.334444 
L 210.872906 293.329093 
L 211.715361 292.943794 
L 215.16592 293.601412 
L 215.98384 293.238035 
L 216.799536 291.992851 
L 217.719943 292.279408 
L 218.543332 291.874288 
L 219.459036 292.072815 
L 220.277927 291.901201 
L 222.03468 292.590237 
L 222.832103 292.446055 
L 223.774233 284.923994 
L 224.594019 233.039556 
L 225.387251 200.646696 
L 226.360076 186.689033 
L 227.126523 198.323014 
L 228.933855 159.593904 
L 229.726575 126.281033 
L 230.601361 112.231022 
L 231.428558 118.858749 
L 232.238811 133.523589 
L 233.194921 137.943852 
L 234.007295 133.845131 
L 234.850288 128.203219 
L 235.758605 129.977127 
L 236.539288 136.378024 
L 238.303555 125.441684 
L 239.11483 137.78207 
L 240.061024 158.279006 
L 240.867111 164.579621 
L 241.746727 148.463327 
L 242.588569 148.494615 
L 243.412751 149.942305 
L 244.33078 171.759306 
L 245.124957 185.273418 
L 245.967592 195.539098 
L 246.857559 191.688771 
L 247.699529 214.971611 
L 248.595527 229.367793 
L 249.41194 228.638085 
L 250.256107 200.949803 
L 251.148886 180.976324 
L 251.969898 221.462124 
L 252.811536 231.571113 
L 253.705541 215.388219 
L 254.524688 185.377359 
L 255.457464 234.988535 
L 256.2612 264.15267 
L 257.078762 277.410412 
L 258.001366 282.437481 
L 258.817165 285.018651 
L 259.8844 280.756752 
L 260.567989 274.934714 
L 261.387187 260.348932 
L 262.320807 275.869274 
L 263.132312 285.719839 
L 263.93114 293.324772 
L 265.673351 291.133992 
L 267.419498 291.943696 
L 268.272202 292.226434 
L 269.150438 292.092376 
L 269.968461 291.365612 
L 270.887052 291.376173 
L 271.706174 291.05507 
L 272.524861 291.114243 
L 273.444475 290.301821 
L 274.286649 292.089875 
L 275.081388 291.314405 
L 276.002229 290.822106 
L 276.817287 289.844127 
L 277.738511 264.797044 
L 278.589323 229.351694 
L 279.373431 283.684179 
L 280.29192 235.202228 
L 281.110888 226.738917 
L 281.953063 235.814585 
L 282.847604 239.161541 
L 283.670636 243.210542 
L 284.597125 234.768507 
L 285.404081 223.69222 
L 286.251341 216.644434 
L 287.146854 216.847377 
L 287.959944 208.741859 
L 289.72416 179.555689 
L 290.515986 181.555521 
L 291.437005 204.527978 
L 292.26221 214.995241 
L 293.072948 207.958924 
L 294.035166 204.938735 
L 294.816335 210.628002 
L 295.730198 220.95492 
L 296.550853 227.338467 
L 297.395685 246.243977 
L 298.286342 261.865685 
L 299.116147 282.414117 
L 299.928189 289.331064 
L 300.8431 290.643895 
L 301.659206 293.601897 
L 302.584902 293.613964 
L 303.404279 292.495388 
L 304.21443 293.553873 
L 305.134785 292.747967 
L 305.954238 293.813996 
L 306.875948 293.3813 
L 307.690929 294.205709 
L 308.509028 293.14903 
L 309.429511 292.146524 
L 310.281244 293.123366 
L 311.063741 293.119445 
L 312.009347 294.704665 
L 312.855559 294.098034 
L 313.730882 292.347379 
L 314.54024 292.902117 
L 315.360921 292.302149 
L 316.284649 292.277347 
L 317.124038 185.465391 
L 318.018017 205.657844 
L 318.840947 261.837886 
L 319.652682 282.110089 
L 320.570967 288.723316 
L 321.392158 270.895246 
L 322.234001 198.729862 
L 323.126268 164.363905 
L 323.947485 182.302377 
L 325.682565 288.657715 
L 326.50575 292.727592 
L 327.420457 292.80861 
L 328.239834 268.613113 
L 329.058981 278.189952 
L 329.976653 291.75839 
L 331.718404 290.93012 
L 332.557358 278.189049 
L 333.348826 255.322359 
L 334.269564 217.006007 
L 335.086027 153.030121 
L 336.007328 121.435428 
L 336.856607 119.885573 
L 337.641839 72.563966 
L 338.56268 53.568 
L 339.383974 71.20913 
L 340.198265 111.341501 
L 341.116473 119.111239 
L 341.935645 121.153185 
L 342.858812 110.92796 
L 343.698277 120.618476 
L 344.491355 125.311828 
L 345.418943 121.34126 
L 346.229375 111.5032 
L 347.086654 110.876767 
L 347.969592 119.349261 
L 348.785059 131.906541 
L 349.705235 140.105161 
L 350.526069 142.747121 
L 353.083491 185.385319 
L 353.999169 190.291996 
L 354.841369 206.328203 
L 355.638204 226.295007 
L 356.554572 240.48448 
L 357.371342 276.64963 
L 358.196495 294.717972 
L 359.134613 294.867686 
L 359.928151 294.829484 
L 360.847509 294.933413 
L 361.668113 295.488 
L 362.484244 294.406418 
L 363.405442 293.81051 
L 364.224078 294.230817 
L 365.156522 294.12946 
L 365.973292 295.26109 
L 366.777513 292.82675 
L 367.710698 295.065212 
L 368.535902 293.972763 
L 369.336801 294.535382 
L 370.253655 294.658559 
L 371.078603 293.810562 
L 372.021347 293.327276 
L 372.825747 293.629254 
L 373.697389 292.727287 
L 374.607777 293.244069 
L 375.370339 283.776759 
L 377.159551 293.31881 
L 377.932387 293.896714 
L 379.692258 292.879843 
L 380.495023 291.594842 
L 381.394702 293.873909 
L 382.268798 292.44742 
L 383.143175 293.273885 
L 383.956571 256.985739 
L 385.713759 147.064962 
L 386.546017 118.25917 
L 387.372013 167.97124 
L 388.269801 187.791699 
L 389.063032 170.095438 
L 389.982697 146.332031 
L 390.800081 159.992665 
L 391.644249 200.884985 
L 392.537538 222.466973 
L 393.367803 219.269269 
L 394.176113 207.620321 
L 395.161793 198.730917 
L 395.929135 214.775904 
L 396.819715 216.306606 
L 397.640524 211.817159 
L 398.487273 212.385609 
L 398.487273 212.385609 
" clip-path="url(#pcc68781a2e)" style="fill: none; stroke: #0065bd; stroke-width: 1.5; stroke-linecap: square"/>
   </g>
   <g id="patch_3">
    <path d="M 57.6 307.584 
L 57.6 41.472 
" style="fill: none; stroke: #000000; stroke-width: 0.8; stroke-linejoin: miter; stroke-linecap: square"/>
   </g>
   <g id="patch_4">
    <path d="M 414.72 307.584 
L 414.72 41.472 
" style="fill: none; stroke: #000000; stroke-width: 0.8; stroke-linejoin: miter; stroke-linecap: square"/>
   </g>
   <g id="patch_5">
    <path d="M 57.6 307.584 
L 414.72 307.584 
" style="fill: none; stroke: #000000; stroke-width: 0.8; stroke-linejoin: miter; stroke-linecap: square"/>
   </g>
   <g id="patch_6">
    <path d="M 57.6 41.472 
L 414.72 41.472 
" style="fill: none; stroke: #000000; stroke-width: 0.8; stroke-linejoin: miter; stroke-linecap: square"/>
   </g>
   <g id="text_24">
    <!-- Grip Force -->
    <g transform="translate(205.434375 35.472) scale(0.12 -0.12)">
     <defs>
      <path id="DejaVuSans-47" d="M 3809 666 
L 3809 1919 
L 2778 1919 
L 2778 2438 
L 4434 2438 
L 4434 434 
Q 4069 175 3628 42 
Q 3188 -91 2688 -91 
Q 1594 -91 976 548 
Q 359 1188 359 2328 
Q 359 3472 976 4111 
Q 1594 4750 2688 4750 
Q 3144 4750 3555 4637 
Q 3966 4525 4313 4306 
L 4313 3634 
Q 3963 3931 3569 4081 
Q 3175 4231 2741 4231 
Q 1884 4231 1454 3753 
Q 1025 3275 1025 2328 
Q 1025 1384 1454 906 
Q 1884 428 2741 428 
Q 3075 428 3337 486 
Q 3600 544 3809 666 
z
" transform="scale(0.015625)"/>
      <path id="DejaVuSans-70" d="M 1159 525 
L 1159 -1331 
L 581 -1331 
L 581 3500 
L 1159 3500 
L 1159 2969 
Q 1341 3281 1617 3432 
Q 1894 3584 2278 3584 
Q 2916 3584 3314 3078 
Q 3713 2572 3713 1747 
Q 3713 922 3314 415 
Q 2916 -91 2278 -91 
Q 1894 -91 1617 61 
Q 1341 213 1159 525 
z
M 3116 1747 
Q 3116 2381 2855 2742 
Q 2594 3103 2138 3103 
Q 1681 3103 1420 2742 
Q 1159 2381 1159 1747 
Q 1159 1113 1420 752 
Q 1681 391 2138 391 
Q 2594 391 2855 752 
Q 3116 1113 3116 1747 
z
" transform="scale(0.015625)"/>
      <path id="DejaVuSans-46" d="M 628 4666 
L 3309 4666 
L 3309 4134 
L 1259 4134 
L 1259 2759 
L 3109 2759 
L 3109 2228 
L 1259 2228 
L 1259 0 
L 628 0 
L 628 4666 
z
" transform="scale(0.015625)"/>
     </defs>
     <use xlink:href="#DejaVuSans-47"/>
     <use xlink:href="#DejaVuSans-72" x="77.490234"/>
     <use xlink:href="#DejaVuSans-69" x="118.603516"/>
     <use xlink:href="#DejaVuSans-70" x="146.386719"/>
     <use xlink:href="#DejaVuSans-20" x="209.863281"/>
     <use xlink:href="#DejaVuSans-46" x="241.650391"/>
     <use xlink:href="#DejaVuSans-6f" x="295.544922"/>
     <use xlink:href="#DejaVuSans-72" x="356.726562"/>
     <use xlink:href="#DejaVuSans-63" x="395.589844"/>
     <use xlink:href="#DejaVuSans-65" x="450.570312"/>
    </g>
   </g>
   <g id="legend_1">
    <g id="patch_7">
     <path d="M 64.6 64.150125 
L 215.425 64.150125 
Q 217.425 64.150125 217.425 62.150125 
L 217.425 48.472 
Q 217.425 46.472 215.425 46.472 
L 64.6 46.472 
Q 62.6 46.472 62.6 48.472 
L 62.6 62.150125 
Q 62.6 64.150125 64.6 64.150125 
z
" style="fill: #ffffff; opacity: 0.8; stroke: #cccccc; stroke-linejoin: miter"/>
    </g>
    <g id="line2d_44">
     <path d="M 66.6 54.570438 
L 76.6 54.570438 
L 86.6 54.570438 
" style="fill: none; stroke: #0065bd; stroke-width: 1.5; stroke-linecap: square"/>
    </g>
    <g id="text_25">
     <!-- normed FT-Sensor force -->
     <g transform="translate(94.6 58.070438) scale(0.1 -0.1)">
      <defs>
       <path id="DejaVuSans-6e" d="M 3513 2113 
L 3513 0 
L 2938 0 
L 2938 2094 
Q 2938 2591 2744 2837 
Q 2550 3084 2163 3084 
Q 1697 3084 1428 2787 
Q 1159 2491 1159 1978 
L 1159 0 
L 581 0 
L 581 3500 
L 1159 3500 
L 1159 2956 
Q 1366 3272 1645 3428 
Q 1925 3584 2291 3584 
Q 2894 3584 3203 3211 
Q 3513 2838 3513 2113 
z
" transform="scale(0.015625)"/>
       <path id="DejaVuSans-64" d="M 2906 2969 
L 2906 4863 
L 3481 4863 
L 3481 0 
L 2906 0 
L 2906 525 
Q 2725 213 2448 61 
Q 2172 -91 1784 -91 
Q 1150 -91 751 415 
Q 353 922 353 1747 
Q 353 2572 751 3078 
Q 1150 3584 1784 3584 
Q 2172 3584 2448 3432 
Q 2725 3281 2906 2969 
z
M 947 1747 
Q 947 1113 1208 752 
Q 1469 391 1925 391 
Q 2381 391 2643 752 
Q 2906 1113 2906 1747 
Q 2906 2381 2643 2742 
Q 2381 3103 1925 3103 
Q 1469 3103 1208 2742 
Q 947 2381 947 1747 
z
" transform="scale(0.015625)"/>
       <path id="DejaVuSans-54" d="M -19 4666 
L 3928 4666 
L 3928 4134 
L 2272 4134 
L 2272 0 
L 1638 0 
L 1638 4134 
L -19 4134 
L -19 4666 
z
" transform="scale(0.015625)"/>
       <path id="DejaVuSans-2d" d="M 313 2009 
L 1997 2009 
L 1997 1497 
L 313 1497 
L 313 2009 
z
" transform="scale(0.015625)"/>
       <path id="DejaVuSans-53" d="M 3425 4513 
L 3425 3897 
Q 3066 4069 2747 4153 
Q 2428 4238 2131 4238 
Q 1616 4238 1336 4038 
Q 1056 3838 1056 3469 
Q 1056 3159 1242 3001 
Q 1428 2844 1947 2747 
L 2328 2669 
Q 3034 2534 3370 2195 
Q 3706 1856 3706 1288 
Q 3706 609 3251 259 
Q 2797 -91 1919 -91 
Q 1588 -91 1214 -16 
Q 841 59 441 206 
L 441 856 
Q 825 641 1194 531 
Q 1563 422 1919 422 
Q 2459 422 2753 634 
Q 3047 847 3047 1241 
Q 3047 1584 2836 1778 
Q 2625 1972 2144 2069 
L 1759 2144 
Q 1053 2284 737 2584 
Q 422 2884 422 3419 
Q 422 4038 858 4394 
Q 1294 4750 2059 4750 
Q 2388 4750 2728 4690 
Q 3069 4631 3425 4513 
z
" transform="scale(0.015625)"/>
      </defs>
      <use xlink:href="#DejaVuSans-6e"/>
      <use xlink:href="#DejaVuSans-6f" x="63.378906"/>
      <use xlink:href="#DejaVuSans-72" x="124.560547"/>
      <use xlink:href="#DejaVuSans-6d" x="163.923828"/>
      <use xlink:href="#DejaVuSans-65" x="261.335938"/>
      <use xlink:href="#DejaVuSans-64" x="322.859375"/>
      <use xlink:href="#DejaVuSans-20" x="386.335938"/>
      <use xlink:href="#DejaVuSans-46" x="418.123047"/>
      <use xlink:href="#DejaVuSans-54" x="473.892578"/>
      <use xlink:href="#DejaVuSans-2d" x="525.851562"/>
      <use xlink:href="#DejaVuSans-53" x="561.935547"/>
      <use xlink:href="#DejaVuSans-65" x="625.412109"/>
      <use xlink:href="#DejaVuSans-6e" x="686.935547"/>
      <use xlink:href="#DejaVuSans-73" x="750.314453"/>
      <use xlink:href="#DejaVuSans-6f" x="802.414062"/>
      <use xlink:href="#DejaVuSans-72" x="863.595703"/>
      <use xlink:href="#DejaVuSans-20" x="904.708984"/>
      <use xlink:href="#DejaVuSans-66" x="936.496094"/>
      <use xlink:href="#DejaVuSans-6f" x="971.701172"/>
      <use xlink:href="#DejaVuSans-72" x="1032.882812"/>
      <use xlink:href="#DejaVuSans-63" x="1071.746094"/>
      <use xlink:href="#DejaVuSans-65" x="1126.726562"/>
     </g>
    </g>
   </g>
  </g>
 </g>
 <defs>
  <clipPath id="pcc68781a2e">
   <rect x="57.6" y="41.472" width="357.12" height="266.112"/>
  </clipPath>
 </defs>
</svg>
